G04 #@! TF.GenerationSoftware,KiCad,Pcbnew,5.0.2-bee76a0~70~ubuntu18.04.1*
G04 #@! TF.CreationDate,2019-12-10T23:09:57+02:00*
G04 #@! TF.ProjectId,videosport,76696465-6f73-4706-9f72-742e6b696361,rev?*
G04 #@! TF.SameCoordinates,Original*
G04 #@! TF.FileFunction,Paste,Top*
G04 #@! TF.FilePolarity,Positive*
%FSLAX46Y46*%
G04 Gerber Fmt 4.6, Leading zero omitted, Abs format (unit mm)*
G04 Created by KiCad (PCBNEW 5.0.2-bee76a0~70~ubuntu18.04.1) date Вт 10 дек 2019 23:09:57*
%MOMM*%
%LPD*%
G01*
G04 APERTURE LIST*
%ADD10C,0.100000*%
%ADD11C,1.425000*%
%ADD12R,0.797560X1.198880*%
%ADD13R,1.300000X1.700000*%
%ADD14R,1.700000X1.300000*%
%ADD15R,1.198880X0.797560*%
%ADD16C,2.250000*%
%ADD17R,0.800000X0.900000*%
%ADD18R,1.500000X0.600000*%
%ADD19R,0.600000X1.500000*%
G04 APERTURE END LIST*
D10*
G04 #@! TO.C,D12*
G36*
X202199504Y-67198204D02*
X202223773Y-67201804D01*
X202247571Y-67207765D01*
X202270671Y-67216030D01*
X202292849Y-67226520D01*
X202313893Y-67239133D01*
X202333598Y-67253747D01*
X202351777Y-67270223D01*
X202368253Y-67288402D01*
X202382867Y-67308107D01*
X202395480Y-67329151D01*
X202405970Y-67351329D01*
X202414235Y-67374429D01*
X202420196Y-67398227D01*
X202423796Y-67422496D01*
X202425000Y-67447000D01*
X202425000Y-68697000D01*
X202423796Y-68721504D01*
X202420196Y-68745773D01*
X202414235Y-68769571D01*
X202405970Y-68792671D01*
X202395480Y-68814849D01*
X202382867Y-68835893D01*
X202368253Y-68855598D01*
X202351777Y-68873777D01*
X202333598Y-68890253D01*
X202313893Y-68904867D01*
X202292849Y-68917480D01*
X202270671Y-68927970D01*
X202247571Y-68936235D01*
X202223773Y-68942196D01*
X202199504Y-68945796D01*
X202175000Y-68947000D01*
X201250000Y-68947000D01*
X201225496Y-68945796D01*
X201201227Y-68942196D01*
X201177429Y-68936235D01*
X201154329Y-68927970D01*
X201132151Y-68917480D01*
X201111107Y-68904867D01*
X201091402Y-68890253D01*
X201073223Y-68873777D01*
X201056747Y-68855598D01*
X201042133Y-68835893D01*
X201029520Y-68814849D01*
X201019030Y-68792671D01*
X201010765Y-68769571D01*
X201004804Y-68745773D01*
X201001204Y-68721504D01*
X201000000Y-68697000D01*
X201000000Y-67447000D01*
X201001204Y-67422496D01*
X201004804Y-67398227D01*
X201010765Y-67374429D01*
X201019030Y-67351329D01*
X201029520Y-67329151D01*
X201042133Y-67308107D01*
X201056747Y-67288402D01*
X201073223Y-67270223D01*
X201091402Y-67253747D01*
X201111107Y-67239133D01*
X201132151Y-67226520D01*
X201154329Y-67216030D01*
X201177429Y-67207765D01*
X201201227Y-67201804D01*
X201225496Y-67198204D01*
X201250000Y-67197000D01*
X202175000Y-67197000D01*
X202199504Y-67198204D01*
X202199504Y-67198204D01*
G37*
D11*
X201712500Y-68072000D03*
D10*
G36*
X205174504Y-67198204D02*
X205198773Y-67201804D01*
X205222571Y-67207765D01*
X205245671Y-67216030D01*
X205267849Y-67226520D01*
X205288893Y-67239133D01*
X205308598Y-67253747D01*
X205326777Y-67270223D01*
X205343253Y-67288402D01*
X205357867Y-67308107D01*
X205370480Y-67329151D01*
X205380970Y-67351329D01*
X205389235Y-67374429D01*
X205395196Y-67398227D01*
X205398796Y-67422496D01*
X205400000Y-67447000D01*
X205400000Y-68697000D01*
X205398796Y-68721504D01*
X205395196Y-68745773D01*
X205389235Y-68769571D01*
X205380970Y-68792671D01*
X205370480Y-68814849D01*
X205357867Y-68835893D01*
X205343253Y-68855598D01*
X205326777Y-68873777D01*
X205308598Y-68890253D01*
X205288893Y-68904867D01*
X205267849Y-68917480D01*
X205245671Y-68927970D01*
X205222571Y-68936235D01*
X205198773Y-68942196D01*
X205174504Y-68945796D01*
X205150000Y-68947000D01*
X204225000Y-68947000D01*
X204200496Y-68945796D01*
X204176227Y-68942196D01*
X204152429Y-68936235D01*
X204129329Y-68927970D01*
X204107151Y-68917480D01*
X204086107Y-68904867D01*
X204066402Y-68890253D01*
X204048223Y-68873777D01*
X204031747Y-68855598D01*
X204017133Y-68835893D01*
X204004520Y-68814849D01*
X203994030Y-68792671D01*
X203985765Y-68769571D01*
X203979804Y-68745773D01*
X203976204Y-68721504D01*
X203975000Y-68697000D01*
X203975000Y-67447000D01*
X203976204Y-67422496D01*
X203979804Y-67398227D01*
X203985765Y-67374429D01*
X203994030Y-67351329D01*
X204004520Y-67329151D01*
X204017133Y-67308107D01*
X204031747Y-67288402D01*
X204048223Y-67270223D01*
X204066402Y-67253747D01*
X204086107Y-67239133D01*
X204107151Y-67226520D01*
X204129329Y-67216030D01*
X204152429Y-67207765D01*
X204176227Y-67201804D01*
X204200496Y-67198204D01*
X204225000Y-67197000D01*
X205150000Y-67197000D01*
X205174504Y-67198204D01*
X205174504Y-67198204D01*
G37*
D11*
X204687500Y-68072000D03*
G04 #@! TD*
D12*
G04 #@! TO.C,R29*
X204099160Y-64516000D03*
X202300840Y-64516000D03*
G04 #@! TD*
D13*
G04 #@! TO.C,D8*
X148618000Y-72644000D03*
X152118000Y-72644000D03*
G04 #@! TD*
D14*
G04 #@! TO.C,D6*
X148844000Y-91158000D03*
X148844000Y-87658000D03*
G04 #@! TD*
D13*
G04 #@! TO.C,D11*
X162278000Y-81280000D03*
X158778000Y-81280000D03*
G04 #@! TD*
G04 #@! TO.C,D10*
X158778000Y-77216000D03*
X162278000Y-77216000D03*
G04 #@! TD*
G04 #@! TO.C,D9*
X162278000Y-73152000D03*
X158778000Y-73152000D03*
G04 #@! TD*
D14*
G04 #@! TO.C,D7*
X163068000Y-91158000D03*
X163068000Y-87658000D03*
G04 #@! TD*
G04 #@! TO.C,D5*
X155956000Y-87658000D03*
X155956000Y-91158000D03*
G04 #@! TD*
G04 #@! TO.C,D4*
X159512000Y-91158000D03*
X159512000Y-87658000D03*
G04 #@! TD*
G04 #@! TO.C,D3*
X145288000Y-87658000D03*
X145288000Y-91158000D03*
G04 #@! TD*
G04 #@! TO.C,D2*
X152400000Y-91158000D03*
X152400000Y-87658000D03*
G04 #@! TD*
D13*
G04 #@! TO.C,D1*
X124742000Y-86360000D03*
X128242000Y-86360000D03*
G04 #@! TD*
D12*
G04 #@! TO.C,C13*
X124068840Y-116840000D03*
X125867160Y-116840000D03*
G04 #@! TD*
G04 #@! TO.C,C14*
X133720840Y-55372000D03*
X135519160Y-55372000D03*
G04 #@! TD*
G04 #@! TO.C,C16*
X135519160Y-70104000D03*
X133720840Y-70104000D03*
G04 #@! TD*
G04 #@! TO.C,C17*
X200035160Y-92964000D03*
X198236840Y-92964000D03*
G04 #@! TD*
G04 #@! TO.C,C18*
X184520840Y-92964000D03*
X186319160Y-92964000D03*
G04 #@! TD*
D15*
G04 #@! TO.C,C19*
X173736000Y-69204840D03*
X173736000Y-71003160D03*
G04 #@! TD*
D12*
G04 #@! TO.C,R27*
X125867160Y-113284000D03*
X124068840Y-113284000D03*
G04 #@! TD*
G04 #@! TO.C,R28*
X124068840Y-120396000D03*
X125867160Y-120396000D03*
G04 #@! TD*
D10*
G04 #@! TO.C,C3*
G36*
X130449505Y-103982204D02*
X130473773Y-103985804D01*
X130497572Y-103991765D01*
X130520671Y-104000030D01*
X130542850Y-104010520D01*
X130563893Y-104023132D01*
X130583599Y-104037747D01*
X130601777Y-104054223D01*
X130618253Y-104072401D01*
X130632868Y-104092107D01*
X130645480Y-104113150D01*
X130655970Y-104135329D01*
X130664235Y-104158428D01*
X130670196Y-104182227D01*
X130673796Y-104206495D01*
X130675000Y-104230999D01*
X130675000Y-106081001D01*
X130673796Y-106105505D01*
X130670196Y-106129773D01*
X130664235Y-106153572D01*
X130655970Y-106176671D01*
X130645480Y-106198850D01*
X130632868Y-106219893D01*
X130618253Y-106239599D01*
X130601777Y-106257777D01*
X130583599Y-106274253D01*
X130563893Y-106288868D01*
X130542850Y-106301480D01*
X130520671Y-106311970D01*
X130497572Y-106320235D01*
X130473773Y-106326196D01*
X130449505Y-106329796D01*
X130425001Y-106331000D01*
X128674999Y-106331000D01*
X128650495Y-106329796D01*
X128626227Y-106326196D01*
X128602428Y-106320235D01*
X128579329Y-106311970D01*
X128557150Y-106301480D01*
X128536107Y-106288868D01*
X128516401Y-106274253D01*
X128498223Y-106257777D01*
X128481747Y-106239599D01*
X128467132Y-106219893D01*
X128454520Y-106198850D01*
X128444030Y-106176671D01*
X128435765Y-106153572D01*
X128429804Y-106129773D01*
X128426204Y-106105505D01*
X128425000Y-106081001D01*
X128425000Y-104230999D01*
X128426204Y-104206495D01*
X128429804Y-104182227D01*
X128435765Y-104158428D01*
X128444030Y-104135329D01*
X128454520Y-104113150D01*
X128467132Y-104092107D01*
X128481747Y-104072401D01*
X128498223Y-104054223D01*
X128516401Y-104037747D01*
X128536107Y-104023132D01*
X128557150Y-104010520D01*
X128579329Y-104000030D01*
X128602428Y-103991765D01*
X128626227Y-103985804D01*
X128650495Y-103982204D01*
X128674999Y-103981000D01*
X130425001Y-103981000D01*
X130449505Y-103982204D01*
X130449505Y-103982204D01*
G37*
D16*
X129550000Y-105156000D03*
D10*
G36*
X125349505Y-103982204D02*
X125373773Y-103985804D01*
X125397572Y-103991765D01*
X125420671Y-104000030D01*
X125442850Y-104010520D01*
X125463893Y-104023132D01*
X125483599Y-104037747D01*
X125501777Y-104054223D01*
X125518253Y-104072401D01*
X125532868Y-104092107D01*
X125545480Y-104113150D01*
X125555970Y-104135329D01*
X125564235Y-104158428D01*
X125570196Y-104182227D01*
X125573796Y-104206495D01*
X125575000Y-104230999D01*
X125575000Y-106081001D01*
X125573796Y-106105505D01*
X125570196Y-106129773D01*
X125564235Y-106153572D01*
X125555970Y-106176671D01*
X125545480Y-106198850D01*
X125532868Y-106219893D01*
X125518253Y-106239599D01*
X125501777Y-106257777D01*
X125483599Y-106274253D01*
X125463893Y-106288868D01*
X125442850Y-106301480D01*
X125420671Y-106311970D01*
X125397572Y-106320235D01*
X125373773Y-106326196D01*
X125349505Y-106329796D01*
X125325001Y-106331000D01*
X123574999Y-106331000D01*
X123550495Y-106329796D01*
X123526227Y-106326196D01*
X123502428Y-106320235D01*
X123479329Y-106311970D01*
X123457150Y-106301480D01*
X123436107Y-106288868D01*
X123416401Y-106274253D01*
X123398223Y-106257777D01*
X123381747Y-106239599D01*
X123367132Y-106219893D01*
X123354520Y-106198850D01*
X123344030Y-106176671D01*
X123335765Y-106153572D01*
X123329804Y-106129773D01*
X123326204Y-106105505D01*
X123325000Y-106081001D01*
X123325000Y-104230999D01*
X123326204Y-104206495D01*
X123329804Y-104182227D01*
X123335765Y-104158428D01*
X123344030Y-104135329D01*
X123354520Y-104113150D01*
X123367132Y-104092107D01*
X123381747Y-104072401D01*
X123398223Y-104054223D01*
X123416401Y-104037747D01*
X123436107Y-104023132D01*
X123457150Y-104010520D01*
X123479329Y-104000030D01*
X123502428Y-103991765D01*
X123526227Y-103985804D01*
X123550495Y-103982204D01*
X123574999Y-103981000D01*
X125325001Y-103981000D01*
X125349505Y-103982204D01*
X125349505Y-103982204D01*
G37*
D16*
X124450000Y-105156000D03*
G04 #@! TD*
D10*
G04 #@! TO.C,C6*
G36*
X179705505Y-68930204D02*
X179729773Y-68933804D01*
X179753572Y-68939765D01*
X179776671Y-68948030D01*
X179798850Y-68958520D01*
X179819893Y-68971132D01*
X179839599Y-68985747D01*
X179857777Y-69002223D01*
X179874253Y-69020401D01*
X179888868Y-69040107D01*
X179901480Y-69061150D01*
X179911970Y-69083329D01*
X179920235Y-69106428D01*
X179926196Y-69130227D01*
X179929796Y-69154495D01*
X179931000Y-69178999D01*
X179931000Y-71029001D01*
X179929796Y-71053505D01*
X179926196Y-71077773D01*
X179920235Y-71101572D01*
X179911970Y-71124671D01*
X179901480Y-71146850D01*
X179888868Y-71167893D01*
X179874253Y-71187599D01*
X179857777Y-71205777D01*
X179839599Y-71222253D01*
X179819893Y-71236868D01*
X179798850Y-71249480D01*
X179776671Y-71259970D01*
X179753572Y-71268235D01*
X179729773Y-71274196D01*
X179705505Y-71277796D01*
X179681001Y-71279000D01*
X177930999Y-71279000D01*
X177906495Y-71277796D01*
X177882227Y-71274196D01*
X177858428Y-71268235D01*
X177835329Y-71259970D01*
X177813150Y-71249480D01*
X177792107Y-71236868D01*
X177772401Y-71222253D01*
X177754223Y-71205777D01*
X177737747Y-71187599D01*
X177723132Y-71167893D01*
X177710520Y-71146850D01*
X177700030Y-71124671D01*
X177691765Y-71101572D01*
X177685804Y-71077773D01*
X177682204Y-71053505D01*
X177681000Y-71029001D01*
X177681000Y-69178999D01*
X177682204Y-69154495D01*
X177685804Y-69130227D01*
X177691765Y-69106428D01*
X177700030Y-69083329D01*
X177710520Y-69061150D01*
X177723132Y-69040107D01*
X177737747Y-69020401D01*
X177754223Y-69002223D01*
X177772401Y-68985747D01*
X177792107Y-68971132D01*
X177813150Y-68958520D01*
X177835329Y-68948030D01*
X177858428Y-68939765D01*
X177882227Y-68933804D01*
X177906495Y-68930204D01*
X177930999Y-68929000D01*
X179681001Y-68929000D01*
X179705505Y-68930204D01*
X179705505Y-68930204D01*
G37*
D16*
X178806000Y-70104000D03*
D10*
G36*
X184805505Y-68930204D02*
X184829773Y-68933804D01*
X184853572Y-68939765D01*
X184876671Y-68948030D01*
X184898850Y-68958520D01*
X184919893Y-68971132D01*
X184939599Y-68985747D01*
X184957777Y-69002223D01*
X184974253Y-69020401D01*
X184988868Y-69040107D01*
X185001480Y-69061150D01*
X185011970Y-69083329D01*
X185020235Y-69106428D01*
X185026196Y-69130227D01*
X185029796Y-69154495D01*
X185031000Y-69178999D01*
X185031000Y-71029001D01*
X185029796Y-71053505D01*
X185026196Y-71077773D01*
X185020235Y-71101572D01*
X185011970Y-71124671D01*
X185001480Y-71146850D01*
X184988868Y-71167893D01*
X184974253Y-71187599D01*
X184957777Y-71205777D01*
X184939599Y-71222253D01*
X184919893Y-71236868D01*
X184898850Y-71249480D01*
X184876671Y-71259970D01*
X184853572Y-71268235D01*
X184829773Y-71274196D01*
X184805505Y-71277796D01*
X184781001Y-71279000D01*
X183030999Y-71279000D01*
X183006495Y-71277796D01*
X182982227Y-71274196D01*
X182958428Y-71268235D01*
X182935329Y-71259970D01*
X182913150Y-71249480D01*
X182892107Y-71236868D01*
X182872401Y-71222253D01*
X182854223Y-71205777D01*
X182837747Y-71187599D01*
X182823132Y-71167893D01*
X182810520Y-71146850D01*
X182800030Y-71124671D01*
X182791765Y-71101572D01*
X182785804Y-71077773D01*
X182782204Y-71053505D01*
X182781000Y-71029001D01*
X182781000Y-69178999D01*
X182782204Y-69154495D01*
X182785804Y-69130227D01*
X182791765Y-69106428D01*
X182800030Y-69083329D01*
X182810520Y-69061150D01*
X182823132Y-69040107D01*
X182837747Y-69020401D01*
X182854223Y-69002223D01*
X182872401Y-68985747D01*
X182892107Y-68971132D01*
X182913150Y-68958520D01*
X182935329Y-68948030D01*
X182958428Y-68939765D01*
X182982227Y-68933804D01*
X183006495Y-68930204D01*
X183030999Y-68929000D01*
X184781001Y-68929000D01*
X184805505Y-68930204D01*
X184805505Y-68930204D01*
G37*
D16*
X183906000Y-70104000D03*
G04 #@! TD*
D10*
G04 #@! TO.C,C12*
G36*
X146845505Y-62020204D02*
X146869773Y-62023804D01*
X146893572Y-62029765D01*
X146916671Y-62038030D01*
X146938850Y-62048520D01*
X146959893Y-62061132D01*
X146979599Y-62075747D01*
X146997777Y-62092223D01*
X147014253Y-62110401D01*
X147028868Y-62130107D01*
X147041480Y-62151150D01*
X147051970Y-62173329D01*
X147060235Y-62196428D01*
X147066196Y-62220227D01*
X147069796Y-62244495D01*
X147071000Y-62268999D01*
X147071000Y-64019001D01*
X147069796Y-64043505D01*
X147066196Y-64067773D01*
X147060235Y-64091572D01*
X147051970Y-64114671D01*
X147041480Y-64136850D01*
X147028868Y-64157893D01*
X147014253Y-64177599D01*
X146997777Y-64195777D01*
X146979599Y-64212253D01*
X146959893Y-64226868D01*
X146938850Y-64239480D01*
X146916671Y-64249970D01*
X146893572Y-64258235D01*
X146869773Y-64264196D01*
X146845505Y-64267796D01*
X146821001Y-64269000D01*
X144770999Y-64269000D01*
X144746495Y-64267796D01*
X144722227Y-64264196D01*
X144698428Y-64258235D01*
X144675329Y-64249970D01*
X144653150Y-64239480D01*
X144632107Y-64226868D01*
X144612401Y-64212253D01*
X144594223Y-64195777D01*
X144577747Y-64177599D01*
X144563132Y-64157893D01*
X144550520Y-64136850D01*
X144540030Y-64114671D01*
X144531765Y-64091572D01*
X144525804Y-64067773D01*
X144522204Y-64043505D01*
X144521000Y-64019001D01*
X144521000Y-62268999D01*
X144522204Y-62244495D01*
X144525804Y-62220227D01*
X144531765Y-62196428D01*
X144540030Y-62173329D01*
X144550520Y-62151150D01*
X144563132Y-62130107D01*
X144577747Y-62110401D01*
X144594223Y-62092223D01*
X144612401Y-62075747D01*
X144632107Y-62061132D01*
X144653150Y-62048520D01*
X144675329Y-62038030D01*
X144698428Y-62029765D01*
X144722227Y-62023804D01*
X144746495Y-62020204D01*
X144770999Y-62019000D01*
X146821001Y-62019000D01*
X146845505Y-62020204D01*
X146845505Y-62020204D01*
G37*
D16*
X145796000Y-63144000D03*
D10*
G36*
X146845505Y-55620204D02*
X146869773Y-55623804D01*
X146893572Y-55629765D01*
X146916671Y-55638030D01*
X146938850Y-55648520D01*
X146959893Y-55661132D01*
X146979599Y-55675747D01*
X146997777Y-55692223D01*
X147014253Y-55710401D01*
X147028868Y-55730107D01*
X147041480Y-55751150D01*
X147051970Y-55773329D01*
X147060235Y-55796428D01*
X147066196Y-55820227D01*
X147069796Y-55844495D01*
X147071000Y-55868999D01*
X147071000Y-57619001D01*
X147069796Y-57643505D01*
X147066196Y-57667773D01*
X147060235Y-57691572D01*
X147051970Y-57714671D01*
X147041480Y-57736850D01*
X147028868Y-57757893D01*
X147014253Y-57777599D01*
X146997777Y-57795777D01*
X146979599Y-57812253D01*
X146959893Y-57826868D01*
X146938850Y-57839480D01*
X146916671Y-57849970D01*
X146893572Y-57858235D01*
X146869773Y-57864196D01*
X146845505Y-57867796D01*
X146821001Y-57869000D01*
X144770999Y-57869000D01*
X144746495Y-57867796D01*
X144722227Y-57864196D01*
X144698428Y-57858235D01*
X144675329Y-57849970D01*
X144653150Y-57839480D01*
X144632107Y-57826868D01*
X144612401Y-57812253D01*
X144594223Y-57795777D01*
X144577747Y-57777599D01*
X144563132Y-57757893D01*
X144550520Y-57736850D01*
X144540030Y-57714671D01*
X144531765Y-57691572D01*
X144525804Y-57667773D01*
X144522204Y-57643505D01*
X144521000Y-57619001D01*
X144521000Y-55868999D01*
X144522204Y-55844495D01*
X144525804Y-55820227D01*
X144531765Y-55796428D01*
X144540030Y-55773329D01*
X144550520Y-55751150D01*
X144563132Y-55730107D01*
X144577747Y-55710401D01*
X144594223Y-55692223D01*
X144612401Y-55675747D01*
X144632107Y-55661132D01*
X144653150Y-55648520D01*
X144675329Y-55638030D01*
X144698428Y-55629765D01*
X144722227Y-55623804D01*
X144746495Y-55620204D01*
X144770999Y-55619000D01*
X146821001Y-55619000D01*
X146845505Y-55620204D01*
X146845505Y-55620204D01*
G37*
D16*
X145796000Y-56744000D03*
G04 #@! TD*
D12*
G04 #@! TO.C,C11*
X151775160Y-59944000D03*
X149976840Y-59944000D03*
G04 #@! TD*
G04 #@! TO.C,C10*
X126100840Y-75692000D03*
X127899160Y-75692000D03*
G04 #@! TD*
D15*
G04 #@! TO.C,C9*
X144272000Y-71744840D03*
X144272000Y-73543160D03*
G04 #@! TD*
G04 #@! TO.C,C8*
X139192000Y-73543160D03*
X139192000Y-71744840D03*
G04 #@! TD*
G04 #@! TO.C,C7*
X141732000Y-71744840D03*
X141732000Y-73543160D03*
G04 #@! TD*
D12*
G04 #@! TO.C,C5*
X183779160Y-115824000D03*
X181980840Y-115824000D03*
G04 #@! TD*
G04 #@! TO.C,C4*
X141848840Y-115824000D03*
X143647160Y-115824000D03*
G04 #@! TD*
G04 #@! TO.C,C2*
X194289680Y-107188000D03*
X196088000Y-107188000D03*
G04 #@! TD*
D17*
G04 #@! TO.C,Q2*
X177800000Y-115332000D03*
X178750000Y-117332000D03*
X176850000Y-117332000D03*
G04 #@! TD*
G04 #@! TO.C,Q1*
X136718000Y-117332000D03*
X138618000Y-117332000D03*
X137668000Y-115332000D03*
G04 #@! TD*
D12*
G04 #@! TO.C,R20*
X182996840Y-74676000D03*
X184795160Y-74676000D03*
G04 #@! TD*
G04 #@! TO.C,R17*
X143647160Y-119888000D03*
X141848840Y-119888000D03*
G04 #@! TD*
G04 #@! TO.C,R19*
X178308000Y-74676000D03*
X180106320Y-74676000D03*
G04 #@! TD*
D15*
G04 #@! TO.C,R21*
X139192000Y-75808840D03*
X139192000Y-77607160D03*
G04 #@! TD*
D12*
G04 #@! TO.C,R18*
X181980840Y-119888000D03*
X183779160Y-119888000D03*
G04 #@! TD*
G04 #@! TO.C,R13*
X135519160Y-119888000D03*
X133720840Y-119888000D03*
G04 #@! TD*
G04 #@! TO.C,R14*
X177916840Y-119888000D03*
X179715160Y-119888000D03*
G04 #@! TD*
G04 #@! TO.C,R15*
X175651160Y-119888000D03*
X173852840Y-119888000D03*
G04 #@! TD*
G04 #@! TO.C,R16*
X124068840Y-109728000D03*
X125867160Y-109728000D03*
G04 #@! TD*
G04 #@! TO.C,R26*
X151775160Y-56388000D03*
X149976840Y-56388000D03*
G04 #@! TD*
D15*
G04 #@! TO.C,R25*
X146812000Y-67680840D03*
X146812000Y-69479160D03*
G04 #@! TD*
D12*
G04 #@! TO.C,R24*
X127899160Y-72136000D03*
X126100840Y-72136000D03*
G04 #@! TD*
D15*
G04 #@! TO.C,R23*
X144272000Y-77607160D03*
X144272000Y-75808840D03*
G04 #@! TD*
G04 #@! TO.C,R22*
X141732000Y-75808840D03*
X141732000Y-77607160D03*
G04 #@! TD*
D12*
G04 #@! TO.C,R12*
X137784840Y-119888000D03*
X139583160Y-119888000D03*
G04 #@! TD*
D15*
G04 #@! TO.C,C1*
X203708000Y-107579160D03*
X203708000Y-105780840D03*
G04 #@! TD*
G04 #@! TO.C,R11*
X191008000Y-99451160D03*
X191008000Y-97652840D03*
G04 #@! TD*
G04 #@! TO.C,R10*
X203668157Y-101466575D03*
X203668157Y-103264895D03*
G04 #@! TD*
G04 #@! TO.C,R9*
X191008000Y-103515160D03*
X191008000Y-101716840D03*
G04 #@! TD*
D18*
G04 #@! TO.C,U3*
X200780157Y-103635735D03*
X200780157Y-102365735D03*
X200780157Y-101095735D03*
X200780157Y-99825735D03*
X200780157Y-98555735D03*
X200780157Y-97285735D03*
X200780157Y-96015735D03*
X195380157Y-96015735D03*
X195380157Y-97285735D03*
X195380157Y-98555735D03*
X195380157Y-99825735D03*
X195380157Y-101095735D03*
X195380157Y-102365735D03*
X195380157Y-103635735D03*
G04 #@! TD*
G04 #@! TO.C,U4*
X187104000Y-104270735D03*
X187104000Y-103000735D03*
X187104000Y-101730735D03*
X187104000Y-100460735D03*
X187104000Y-99190735D03*
X187104000Y-97920735D03*
X187104000Y-96650735D03*
X187104000Y-95380735D03*
X181704000Y-95380735D03*
X181704000Y-96650735D03*
X181704000Y-97920735D03*
X181704000Y-99190735D03*
X181704000Y-100460735D03*
X181704000Y-101730735D03*
X181704000Y-103000735D03*
X181704000Y-104270735D03*
G04 #@! TD*
D15*
G04 #@! TO.C,R8*
X144272000Y-67680840D03*
X144272000Y-69479160D03*
G04 #@! TD*
D12*
G04 #@! TO.C,R1*
X150484840Y-84328000D03*
X152283160Y-84328000D03*
G04 #@! TD*
G04 #@! TO.C,R2*
X148417161Y-84324961D03*
X146618841Y-84324961D03*
G04 #@! TD*
G04 #@! TO.C,R3*
X154548840Y-84328000D03*
X156347160Y-84328000D03*
G04 #@! TD*
G04 #@! TO.C,R4*
X154548840Y-72644000D03*
X156347160Y-72644000D03*
G04 #@! TD*
D15*
G04 #@! TO.C,R5*
X139192000Y-81671160D03*
X139192000Y-79872840D03*
G04 #@! TD*
G04 #@! TO.C,R6*
X141732000Y-79872840D03*
X141732000Y-81671160D03*
G04 #@! TD*
G04 #@! TO.C,R7*
X144272000Y-81671160D03*
X144272000Y-79872840D03*
G04 #@! TD*
D18*
G04 #@! TO.C,U1*
X168496000Y-73914000D03*
X168496000Y-75184000D03*
X168496000Y-76454000D03*
X168496000Y-77724000D03*
X168496000Y-78994000D03*
X168496000Y-80264000D03*
X168496000Y-81534000D03*
X173896000Y-81534000D03*
X173896000Y-80264000D03*
X173896000Y-78994000D03*
X173896000Y-77724000D03*
X173896000Y-76454000D03*
X173896000Y-75184000D03*
X173896000Y-73914000D03*
G04 #@! TD*
D19*
G04 #@! TO.C,U2*
X131699000Y-67134000D03*
X132969000Y-67134000D03*
X134239000Y-67134000D03*
X135509000Y-67134000D03*
X136779000Y-67134000D03*
X138049000Y-67134000D03*
X139319000Y-67134000D03*
X140589000Y-67134000D03*
X140589000Y-57834000D03*
X139319000Y-57834000D03*
X138049000Y-57834000D03*
X136779000Y-57834000D03*
X135509000Y-57834000D03*
X134239000Y-57834000D03*
X132969000Y-57834000D03*
X131699000Y-57834000D03*
G04 #@! TD*
M02*
