G04 #@! TF.GenerationSoftware,KiCad,Pcbnew,5.0.2-bee76a0~70~ubuntu18.04.1*
G04 #@! TF.CreationDate,2020-01-13T15:24:33+02:00*
G04 #@! TF.ProjectId,videosport,76696465-6f73-4706-9f72-742e6b696361,rev?*
G04 #@! TF.SameCoordinates,Original*
G04 #@! TF.FileFunction,Paste,Bot*
G04 #@! TF.FilePolarity,Positive*
%FSLAX46Y46*%
G04 Gerber Fmt 4.6, Leading zero omitted, Abs format (unit mm)*
G04 Created by KiCad (PCBNEW 5.0.2-bee76a0~70~ubuntu18.04.1) date Пнд 13 янв 2020 15:24:33*
%MOMM*%
%LPD*%
G01*
G04 APERTURE LIST*
%ADD10C,0.100000*%
%ADD11C,0.975000*%
G04 APERTURE END LIST*
D10*
G04 #@! TO.C,C15*
G36*
X163548142Y-97636174D02*
X163571803Y-97639684D01*
X163595007Y-97645496D01*
X163617529Y-97653554D01*
X163639153Y-97663782D01*
X163659670Y-97676079D01*
X163678883Y-97690329D01*
X163696607Y-97706393D01*
X163712671Y-97724117D01*
X163726921Y-97743330D01*
X163739218Y-97763847D01*
X163749446Y-97785471D01*
X163757504Y-97807993D01*
X163763316Y-97831197D01*
X163766826Y-97854858D01*
X163768000Y-97878750D01*
X163768000Y-98366250D01*
X163766826Y-98390142D01*
X163763316Y-98413803D01*
X163757504Y-98437007D01*
X163749446Y-98459529D01*
X163739218Y-98481153D01*
X163726921Y-98501670D01*
X163712671Y-98520883D01*
X163696607Y-98538607D01*
X163678883Y-98554671D01*
X163659670Y-98568921D01*
X163639153Y-98581218D01*
X163617529Y-98591446D01*
X163595007Y-98599504D01*
X163571803Y-98605316D01*
X163548142Y-98608826D01*
X163524250Y-98610000D01*
X162611750Y-98610000D01*
X162587858Y-98608826D01*
X162564197Y-98605316D01*
X162540993Y-98599504D01*
X162518471Y-98591446D01*
X162496847Y-98581218D01*
X162476330Y-98568921D01*
X162457117Y-98554671D01*
X162439393Y-98538607D01*
X162423329Y-98520883D01*
X162409079Y-98501670D01*
X162396782Y-98481153D01*
X162386554Y-98459529D01*
X162378496Y-98437007D01*
X162372684Y-98413803D01*
X162369174Y-98390142D01*
X162368000Y-98366250D01*
X162368000Y-97878750D01*
X162369174Y-97854858D01*
X162372684Y-97831197D01*
X162378496Y-97807993D01*
X162386554Y-97785471D01*
X162396782Y-97763847D01*
X162409079Y-97743330D01*
X162423329Y-97724117D01*
X162439393Y-97706393D01*
X162457117Y-97690329D01*
X162476330Y-97676079D01*
X162496847Y-97663782D01*
X162518471Y-97653554D01*
X162540993Y-97645496D01*
X162564197Y-97639684D01*
X162587858Y-97636174D01*
X162611750Y-97635000D01*
X163524250Y-97635000D01*
X163548142Y-97636174D01*
X163548142Y-97636174D01*
G37*
D11*
X163068000Y-98122500D03*
D10*
G36*
X163548142Y-99511174D02*
X163571803Y-99514684D01*
X163595007Y-99520496D01*
X163617529Y-99528554D01*
X163639153Y-99538782D01*
X163659670Y-99551079D01*
X163678883Y-99565329D01*
X163696607Y-99581393D01*
X163712671Y-99599117D01*
X163726921Y-99618330D01*
X163739218Y-99638847D01*
X163749446Y-99660471D01*
X163757504Y-99682993D01*
X163763316Y-99706197D01*
X163766826Y-99729858D01*
X163768000Y-99753750D01*
X163768000Y-100241250D01*
X163766826Y-100265142D01*
X163763316Y-100288803D01*
X163757504Y-100312007D01*
X163749446Y-100334529D01*
X163739218Y-100356153D01*
X163726921Y-100376670D01*
X163712671Y-100395883D01*
X163696607Y-100413607D01*
X163678883Y-100429671D01*
X163659670Y-100443921D01*
X163639153Y-100456218D01*
X163617529Y-100466446D01*
X163595007Y-100474504D01*
X163571803Y-100480316D01*
X163548142Y-100483826D01*
X163524250Y-100485000D01*
X162611750Y-100485000D01*
X162587858Y-100483826D01*
X162564197Y-100480316D01*
X162540993Y-100474504D01*
X162518471Y-100466446D01*
X162496847Y-100456218D01*
X162476330Y-100443921D01*
X162457117Y-100429671D01*
X162439393Y-100413607D01*
X162423329Y-100395883D01*
X162409079Y-100376670D01*
X162396782Y-100356153D01*
X162386554Y-100334529D01*
X162378496Y-100312007D01*
X162372684Y-100288803D01*
X162369174Y-100265142D01*
X162368000Y-100241250D01*
X162368000Y-99753750D01*
X162369174Y-99729858D01*
X162372684Y-99706197D01*
X162378496Y-99682993D01*
X162386554Y-99660471D01*
X162396782Y-99638847D01*
X162409079Y-99618330D01*
X162423329Y-99599117D01*
X162439393Y-99581393D01*
X162457117Y-99565329D01*
X162476330Y-99551079D01*
X162496847Y-99538782D01*
X162518471Y-99528554D01*
X162540993Y-99520496D01*
X162564197Y-99514684D01*
X162587858Y-99511174D01*
X162611750Y-99510000D01*
X163524250Y-99510000D01*
X163548142Y-99511174D01*
X163548142Y-99511174D01*
G37*
D11*
X163068000Y-99997500D03*
G04 #@! TD*
M02*
