G04 #@! TF.GenerationSoftware,KiCad,Pcbnew,5.0.2-bee76a0~70~ubuntu18.04.1*
G04 #@! TF.CreationDate,2020-01-13T15:24:33+02:00*
G04 #@! TF.ProjectId,videosport,76696465-6f73-4706-9f72-742e6b696361,rev?*
G04 #@! TF.SameCoordinates,Original*
G04 #@! TF.FileFunction,Legend,Top*
G04 #@! TF.FilePolarity,Positive*
%FSLAX46Y46*%
G04 Gerber Fmt 4.6, Leading zero omitted, Abs format (unit mm)*
G04 Created by KiCad (PCBNEW 5.0.2-bee76a0~70~ubuntu18.04.1) date Пнд 13 янв 2020 15:24:33*
%MOMM*%
%LPD*%
G01*
G04 APERTURE LIST*
%ADD10C,0.500000*%
%ADD11C,0.120000*%
%ADD12C,0.100000*%
%ADD13C,0.150000*%
%ADD14C,0.203200*%
%ADD15C,0.125000*%
G04 APERTURE END LIST*
D10*
X155496190Y-117115952D02*
X155496190Y-114615952D01*
X156448571Y-114615952D01*
X156686666Y-114735000D01*
X156805714Y-114854047D01*
X156924761Y-115092142D01*
X156924761Y-115449285D01*
X156805714Y-115687380D01*
X156686666Y-115806428D01*
X156448571Y-115925476D01*
X155496190Y-115925476D01*
X158472380Y-114615952D02*
X158948571Y-114615952D01*
X159186666Y-114735000D01*
X159424761Y-114973095D01*
X159543809Y-115449285D01*
X159543809Y-116282619D01*
X159424761Y-116758809D01*
X159186666Y-116996904D01*
X158948571Y-117115952D01*
X158472380Y-117115952D01*
X158234285Y-116996904D01*
X157996190Y-116758809D01*
X157877142Y-116282619D01*
X157877142Y-115449285D01*
X157996190Y-114973095D01*
X158234285Y-114735000D01*
X158472380Y-114615952D01*
X160615238Y-117115952D02*
X160615238Y-114615952D01*
X162043809Y-117115952D01*
X162043809Y-114615952D01*
X164543809Y-114735000D02*
X164305714Y-114615952D01*
X163948571Y-114615952D01*
X163591428Y-114735000D01*
X163353333Y-114973095D01*
X163234285Y-115211190D01*
X163115238Y-115687380D01*
X163115238Y-116044523D01*
X163234285Y-116520714D01*
X163353333Y-116758809D01*
X163591428Y-116996904D01*
X163948571Y-117115952D01*
X164186666Y-117115952D01*
X164543809Y-116996904D01*
X164662857Y-116877857D01*
X164662857Y-116044523D01*
X164186666Y-116044523D01*
X155972380Y-121365952D02*
X155972380Y-119699285D01*
X155972380Y-120175476D02*
X156091428Y-119937380D01*
X156210476Y-119818333D01*
X156448571Y-119699285D01*
X156686666Y-119699285D01*
X158472380Y-121246904D02*
X158234285Y-121365952D01*
X157758095Y-121365952D01*
X157520000Y-121246904D01*
X157400952Y-121008809D01*
X157400952Y-120056428D01*
X157520000Y-119818333D01*
X157758095Y-119699285D01*
X158234285Y-119699285D01*
X158472380Y-119818333D01*
X158591428Y-120056428D01*
X158591428Y-120294523D01*
X157400952Y-120532619D01*
X159424761Y-119699285D02*
X160020000Y-121365952D01*
X160615238Y-119699285D01*
X161567619Y-121127857D02*
X161686666Y-121246904D01*
X161567619Y-121365952D01*
X161448571Y-121246904D01*
X161567619Y-121127857D01*
X161567619Y-121365952D01*
X163591428Y-120056428D02*
X163948571Y-120175476D01*
X164067619Y-120294523D01*
X164186666Y-120532619D01*
X164186666Y-120889761D01*
X164067619Y-121127857D01*
X163948571Y-121246904D01*
X163710476Y-121365952D01*
X162758095Y-121365952D01*
X162758095Y-118865952D01*
X163591428Y-118865952D01*
X163829523Y-118985000D01*
X163948571Y-119104047D01*
X164067619Y-119342142D01*
X164067619Y-119580238D01*
X163948571Y-119818333D01*
X163829523Y-119937380D01*
X163591428Y-120056428D01*
X162758095Y-120056428D01*
D11*
G04 #@! TO.C,C2*
X194930262Y-107898000D02*
X195447418Y-107898000D01*
X194930262Y-106478000D02*
X195447418Y-106478000D01*
G04 #@! TO.C,C4*
X143006578Y-116534000D02*
X142489422Y-116534000D01*
X143006578Y-115114000D02*
X142489422Y-115114000D01*
G04 #@! TO.C,C5*
X183138578Y-115114000D02*
X182621422Y-115114000D01*
X183138578Y-116534000D02*
X182621422Y-116534000D01*
G04 #@! TO.C,C7*
X141022000Y-72902578D02*
X141022000Y-72385422D01*
X142442000Y-72902578D02*
X142442000Y-72385422D01*
G04 #@! TO.C,C8*
X139902000Y-72902578D02*
X139902000Y-72385422D01*
X138482000Y-72902578D02*
X138482000Y-72385422D01*
G04 #@! TO.C,C9*
X143562000Y-72902578D02*
X143562000Y-72385422D01*
X144982000Y-72902578D02*
X144982000Y-72385422D01*
G04 #@! TO.C,C10*
X126741422Y-76402000D02*
X127258578Y-76402000D01*
X126741422Y-74982000D02*
X127258578Y-74982000D01*
G04 #@! TO.C,C11*
X150617422Y-59234000D02*
X151134578Y-59234000D01*
X150617422Y-60654000D02*
X151134578Y-60654000D01*
G04 #@! TO.C,C13*
X124709422Y-117550000D02*
X125226578Y-117550000D01*
X124709422Y-116130000D02*
X125226578Y-116130000D01*
G04 #@! TO.C,C14*
X134878578Y-56082000D02*
X134361422Y-56082000D01*
X134878578Y-54662000D02*
X134361422Y-54662000D01*
G04 #@! TO.C,C16*
X134361422Y-69394000D02*
X134878578Y-69394000D01*
X134361422Y-70814000D02*
X134878578Y-70814000D01*
G04 #@! TO.C,C17*
X199394578Y-92254000D02*
X198877422Y-92254000D01*
X199394578Y-93674000D02*
X198877422Y-93674000D01*
G04 #@! TO.C,C18*
X185678578Y-93674000D02*
X185161422Y-93674000D01*
X185678578Y-92254000D02*
X185161422Y-92254000D01*
G04 #@! TO.C,C19*
X173026000Y-69845422D02*
X173026000Y-70362578D01*
X174446000Y-69845422D02*
X174446000Y-70362578D01*
G04 #@! TO.C,C1*
X202998000Y-106938578D02*
X202998000Y-106421422D01*
X204418000Y-106938578D02*
X204418000Y-106421422D01*
G04 #@! TO.C,R7*
X143562000Y-79760578D02*
X143562000Y-79243422D01*
X144982000Y-79760578D02*
X144982000Y-79243422D01*
G04 #@! TO.C,R5*
X139902000Y-79760578D02*
X139902000Y-79243422D01*
X138482000Y-79760578D02*
X138482000Y-79243422D01*
G04 #@! TO.C,R16*
X124709422Y-109018000D02*
X125226578Y-109018000D01*
X124709422Y-110438000D02*
X125226578Y-110438000D01*
G04 #@! TO.C,R17*
X142489422Y-120598000D02*
X143006578Y-120598000D01*
X142489422Y-119178000D02*
X143006578Y-119178000D01*
G04 #@! TO.C,R18*
X182621422Y-119178000D02*
X183138578Y-119178000D01*
X182621422Y-120598000D02*
X183138578Y-120598000D01*
G04 #@! TO.C,R19*
X178948582Y-75386000D02*
X179465738Y-75386000D01*
X178948582Y-73966000D02*
X179465738Y-73966000D01*
G04 #@! TO.C,R20*
X183637422Y-73966000D02*
X184154578Y-73966000D01*
X183637422Y-75386000D02*
X184154578Y-75386000D01*
G04 #@! TO.C,R9*
X191718000Y-102874578D02*
X191718000Y-102357422D01*
X190298000Y-102874578D02*
X190298000Y-102357422D01*
G04 #@! TO.C,R10*
X202958157Y-102624313D02*
X202958157Y-102107157D01*
X204378157Y-102624313D02*
X204378157Y-102107157D01*
G04 #@! TO.C,R11*
X191718000Y-98810578D02*
X191718000Y-98293422D01*
X190298000Y-98810578D02*
X190298000Y-98293422D01*
G04 #@! TO.C,R13*
X134361422Y-119178000D02*
X134878578Y-119178000D01*
X134361422Y-120598000D02*
X134878578Y-120598000D01*
G04 #@! TO.C,R12*
X138425422Y-120598000D02*
X138942578Y-120598000D01*
X138425422Y-119178000D02*
X138942578Y-119178000D01*
G04 #@! TO.C,R6*
X141022000Y-79760578D02*
X141022000Y-79243422D01*
X142442000Y-79760578D02*
X142442000Y-79243422D01*
G04 #@! TO.C,R25*
X146102000Y-68321422D02*
X146102000Y-68838578D01*
X147522000Y-68321422D02*
X147522000Y-68838578D01*
G04 #@! TO.C,R24*
X126741422Y-71426000D02*
X127258578Y-71426000D01*
X126741422Y-72846000D02*
X127258578Y-72846000D01*
G04 #@! TO.C,R14*
X178557422Y-120598000D02*
X179074578Y-120598000D01*
X178557422Y-119178000D02*
X179074578Y-119178000D01*
G04 #@! TO.C,R26*
X150617422Y-55678000D02*
X151134578Y-55678000D01*
X150617422Y-57098000D02*
X151134578Y-57098000D01*
G04 #@! TO.C,R27*
X124709422Y-113994000D02*
X125226578Y-113994000D01*
X124709422Y-112574000D02*
X125226578Y-112574000D01*
G04 #@! TO.C,R29*
X203458578Y-65226000D02*
X202941422Y-65226000D01*
X203458578Y-63806000D02*
X202941422Y-63806000D01*
G04 #@! TO.C,R15*
X174493422Y-120598000D02*
X175010578Y-120598000D01*
X174493422Y-119178000D02*
X175010578Y-119178000D01*
G04 #@! TO.C,R28*
X124709422Y-119686000D02*
X125226578Y-119686000D01*
X124709422Y-121106000D02*
X125226578Y-121106000D01*
G04 #@! TO.C,R3*
X155189422Y-85038000D02*
X155706578Y-85038000D01*
X155189422Y-83618000D02*
X155706578Y-83618000D01*
G04 #@! TO.C,R1*
X151125422Y-83618000D02*
X151642578Y-83618000D01*
X151125422Y-85038000D02*
X151642578Y-85038000D01*
G04 #@! TO.C,R2*
X147259423Y-85034961D02*
X147776579Y-85034961D01*
X147259423Y-83614961D02*
X147776579Y-83614961D01*
G04 #@! TO.C,R4*
X155706578Y-73354000D02*
X155189422Y-73354000D01*
X155706578Y-71934000D02*
X155189422Y-71934000D01*
G04 #@! TO.C,R8*
X197560000Y-77728578D02*
X197560000Y-77211422D01*
X196140000Y-77728578D02*
X196140000Y-77211422D01*
G04 #@! TO.C,R21*
X196140000Y-81538578D02*
X196140000Y-81021422D01*
X197560000Y-81538578D02*
X197560000Y-81021422D01*
G04 #@! TO.C,C23*
X200401422Y-85800000D02*
X200918578Y-85800000D01*
X200401422Y-84380000D02*
X200918578Y-84380000D01*
G04 #@! TO.C,C22*
X187701422Y-84380000D02*
X188218578Y-84380000D01*
X187701422Y-85800000D02*
X188218578Y-85800000D01*
G04 #@! TO.C,C21*
X204543922Y-85800000D02*
X205061078Y-85800000D01*
X204543922Y-84380000D02*
X205061078Y-84380000D01*
G04 #@! TO.C,C20*
X191843922Y-84380000D02*
X192361078Y-84380000D01*
X191843922Y-85800000D02*
X192361078Y-85800000D01*
G04 #@! TO.C,U6*
X187090000Y-81570000D02*
X187090000Y-75560000D01*
X193910000Y-79320000D02*
X193910000Y-75560000D01*
X187090000Y-75560000D02*
X188350000Y-75560000D01*
X193910000Y-75560000D02*
X192650000Y-75560000D01*
G04 #@! TO.C,U7*
X206610000Y-75560000D02*
X205350000Y-75560000D01*
X199790000Y-75560000D02*
X201050000Y-75560000D01*
X206610000Y-79320000D02*
X206610000Y-75560000D01*
X199790000Y-81570000D02*
X199790000Y-75560000D01*
G04 #@! TO.C,D12*
X204800000Y-66937000D02*
X200740000Y-66937000D01*
X200740000Y-66937000D02*
X200740000Y-69207000D01*
X200740000Y-69207000D02*
X204800000Y-69207000D01*
G04 #@! TO.C,D6*
X147844000Y-86858000D02*
X147844000Y-91158000D01*
X149844000Y-86858000D02*
X147844000Y-86858000D01*
X149844000Y-91158000D02*
X149844000Y-86858000D01*
G04 #@! TO.C,D7*
X162068000Y-86858000D02*
X162068000Y-91158000D01*
X164068000Y-86858000D02*
X162068000Y-86858000D01*
X164068000Y-91158000D02*
X164068000Y-86858000D01*
G04 #@! TO.C,D5*
X156956000Y-91158000D02*
X156956000Y-86858000D01*
X156956000Y-86858000D02*
X154956000Y-86858000D01*
X154956000Y-86858000D02*
X154956000Y-91158000D01*
G04 #@! TO.C,D4*
X158512000Y-86858000D02*
X158512000Y-91158000D01*
X160512000Y-86858000D02*
X158512000Y-86858000D01*
X160512000Y-91158000D02*
X160512000Y-86858000D01*
G04 #@! TO.C,D3*
X146288000Y-91158000D02*
X146288000Y-86858000D01*
X146288000Y-86858000D02*
X144288000Y-86858000D01*
X144288000Y-86858000D02*
X144288000Y-91158000D01*
G04 #@! TO.C,D2*
X151400000Y-86858000D02*
X151400000Y-91158000D01*
X153400000Y-86858000D02*
X151400000Y-86858000D01*
X153400000Y-91158000D02*
X153400000Y-86858000D01*
G04 #@! TO.C,D1*
X128242000Y-85360000D02*
X123942000Y-85360000D01*
X123942000Y-85360000D02*
X123942000Y-87360000D01*
X123942000Y-87360000D02*
X128242000Y-87360000D01*
G04 #@! TO.C,U5*
X166938000Y-104124000D02*
G75*
G02X166938000Y-102124000I0J1000000D01*
G01*
X166938000Y-102124000D02*
X166938000Y-96664000D01*
X166938000Y-96664000D02*
X136338000Y-96664000D01*
X136338000Y-96664000D02*
X136338000Y-109584000D01*
X136338000Y-109584000D02*
X166938000Y-109584000D01*
X166938000Y-109584000D02*
X166938000Y-104124000D01*
D12*
G04 #@! TO.C,S5*
X121584000Y-95944000D02*
X121084000Y-95944000D01*
X121584000Y-95944000D02*
X121584000Y-96444000D01*
X109684000Y-95944000D02*
X109684000Y-96444000D01*
X109684000Y-95944000D02*
X110184000Y-95944000D01*
X109684000Y-100144000D02*
X109684000Y-99644000D01*
X109684000Y-100144000D02*
X110184000Y-100144000D01*
X121584000Y-100144000D02*
X121584000Y-99644000D01*
X121584000Y-100144000D02*
X121084000Y-100144000D01*
G04 #@! TO.C,S2*
X121584000Y-77284000D02*
X121084000Y-77284000D01*
X121584000Y-77284000D02*
X121584000Y-76784000D01*
X109684000Y-77284000D02*
X110184000Y-77284000D01*
X109684000Y-77284000D02*
X109684000Y-76784000D01*
X109684000Y-73084000D02*
X110184000Y-73084000D01*
X109684000Y-73084000D02*
X109684000Y-73584000D01*
X121584000Y-73084000D02*
X121584000Y-73584000D01*
X121584000Y-73084000D02*
X121084000Y-73084000D01*
G04 #@! TO.C,S3*
X121584000Y-80704000D02*
X121084000Y-80704000D01*
X121584000Y-80704000D02*
X121584000Y-81204000D01*
X109684000Y-80704000D02*
X109684000Y-81204000D01*
X109684000Y-80704000D02*
X110184000Y-80704000D01*
X109684000Y-84904000D02*
X109684000Y-84404000D01*
X109684000Y-84904000D02*
X110184000Y-84904000D01*
X121584000Y-84904000D02*
X121584000Y-84404000D01*
X121584000Y-84904000D02*
X121084000Y-84904000D01*
G04 #@! TO.C,S4*
X121584000Y-92524000D02*
X121084000Y-92524000D01*
X121584000Y-92524000D02*
X121584000Y-92024000D01*
X109684000Y-92524000D02*
X110184000Y-92524000D01*
X109684000Y-92524000D02*
X109684000Y-92024000D01*
X109684000Y-88324000D02*
X110184000Y-88324000D01*
X109684000Y-88324000D02*
X109684000Y-88824000D01*
X121584000Y-88324000D02*
X121584000Y-88824000D01*
X121584000Y-88324000D02*
X121084000Y-88324000D01*
G04 #@! TO.C,S7*
X113468000Y-115290600D02*
X118135400Y-115290600D01*
X112471200Y-117525800D02*
X112471200Y-119634000D01*
X118577200Y-117536800D02*
X118577200Y-119632000D01*
X118160800Y-121894600D02*
X112868000Y-121884800D01*
X112471200Y-117532400D02*
X112221200Y-117532400D01*
G04 #@! TO.C,S6*
X112471200Y-106356400D02*
X112221200Y-106356400D01*
X118160800Y-110718600D02*
X112868000Y-110708800D01*
X118577200Y-106360800D02*
X118577200Y-108456000D01*
X112471200Y-106349800D02*
X112471200Y-108458000D01*
X113468000Y-104114600D02*
X118135400Y-104114600D01*
D11*
G04 #@! TO.C,C3*
X123065000Y-106866000D02*
X130000000Y-106866000D01*
X123065000Y-103446000D02*
X123065000Y-106866000D01*
X130000000Y-103446000D02*
X123065000Y-103446000D01*
G04 #@! TO.C,C6*
X184356000Y-68394000D02*
X177421000Y-68394000D01*
X177421000Y-68394000D02*
X177421000Y-71814000D01*
X177421000Y-71814000D02*
X184356000Y-71814000D01*
G04 #@! TO.C,C12*
X143536000Y-56294000D02*
X143536000Y-64529000D01*
X143536000Y-64529000D02*
X148056000Y-64529000D01*
X148056000Y-64529000D02*
X148056000Y-56294000D01*
G04 #@! TO.C,Y2*
X130571000Y-81457000D02*
X130571000Y-75207000D01*
X135621000Y-81457000D02*
X135621000Y-75207000D01*
X135621000Y-81457000D02*
G75*
G02X130571000Y-81457000I-2525000J0D01*
G01*
X135621000Y-75207000D02*
G75*
G03X130571000Y-75207000I-2525000J0D01*
G01*
G04 #@! TO.C,Q2*
X179380000Y-115572000D02*
X179380000Y-117032000D01*
X176220000Y-115572000D02*
X176220000Y-117732000D01*
X176220000Y-115572000D02*
X177150000Y-115572000D01*
X179380000Y-115572000D02*
X178450000Y-115572000D01*
G04 #@! TO.C,Q1*
X139248000Y-115572000D02*
X138318000Y-115572000D01*
X136088000Y-115572000D02*
X137018000Y-115572000D01*
X136088000Y-115572000D02*
X136088000Y-117732000D01*
X139248000Y-115572000D02*
X139248000Y-117032000D01*
D12*
G04 #@! TO.C,S1*
X121584000Y-69664000D02*
X121084000Y-69664000D01*
X121584000Y-69664000D02*
X121584000Y-69164000D01*
X109684000Y-69664000D02*
X110184000Y-69664000D01*
X109684000Y-69664000D02*
X109684000Y-69164000D01*
X109684000Y-65464000D02*
X110184000Y-65464000D01*
X109684000Y-65464000D02*
X109684000Y-65964000D01*
X121584000Y-65464000D02*
X121584000Y-65964000D01*
X121584000Y-65464000D02*
X121084000Y-65464000D01*
D11*
G04 #@! TO.C,Y1*
X195911000Y-109743000D02*
X202161000Y-109743000D01*
X195911000Y-114793000D02*
X202161000Y-114793000D01*
X195911000Y-114793000D02*
G75*
G02X195911000Y-109743000I0J2525000D01*
G01*
X202161000Y-114793000D02*
G75*
G03X202161000Y-109743000I0J2525000D01*
G01*
G04 #@! TO.C,JP3*
X176660000Y-94504000D02*
X176660000Y-96504000D01*
X173860000Y-94504000D02*
X176660000Y-94504000D01*
X173860000Y-96504000D02*
X173860000Y-94504000D01*
X176660000Y-96504000D02*
X173860000Y-96504000D01*
G04 #@! TO.C,JP2*
X176660000Y-100060000D02*
X173860000Y-100060000D01*
X173860000Y-100060000D02*
X173860000Y-98060000D01*
X173860000Y-98060000D02*
X176660000Y-98060000D01*
X176660000Y-98060000D02*
X176660000Y-100060000D01*
G04 #@! TO.C,JP1*
X176660000Y-101616000D02*
X176660000Y-103616000D01*
X173860000Y-101616000D02*
X176660000Y-101616000D01*
X173860000Y-103616000D02*
X173860000Y-101616000D01*
X176660000Y-103616000D02*
X173860000Y-103616000D01*
D13*
G04 #@! TO.C,U3*
X200155157Y-104275735D02*
X200155157Y-104250735D01*
X196005157Y-104275735D02*
X196005157Y-104160735D01*
X196005157Y-95375735D02*
X196005157Y-95490735D01*
X200155157Y-95375735D02*
X200155157Y-95490735D01*
X200155157Y-104275735D02*
X196005157Y-104275735D01*
X200155157Y-95375735D02*
X196005157Y-95375735D01*
X200155157Y-104250735D02*
X201530157Y-104250735D01*
G04 #@! TO.C,U4*
X186479000Y-104900735D02*
X186479000Y-104875735D01*
X182329000Y-104900735D02*
X182329000Y-104795735D01*
X182329000Y-94750735D02*
X182329000Y-94855735D01*
X186479000Y-94750735D02*
X186479000Y-94855735D01*
X186479000Y-104900735D02*
X182329000Y-104900735D01*
X186479000Y-94750735D02*
X182329000Y-94750735D01*
X186479000Y-104875735D02*
X187854000Y-104875735D01*
D14*
G04 #@! TO.C,J5*
X180258720Y-57437020D02*
X180258720Y-61434980D01*
X180258720Y-65234820D02*
X170261280Y-65234820D01*
X170261280Y-57437020D02*
X170261280Y-61434980D01*
X178259740Y-55438040D02*
X172260260Y-55438040D01*
D11*
G04 #@! TO.C,J4*
X187932000Y-62872000D02*
X187932000Y-54372000D01*
X187932000Y-54372000D02*
X197132000Y-54372000D01*
X197132000Y-54372000D02*
X197132000Y-69072000D01*
X190032000Y-69072000D02*
X187932000Y-69072000D01*
X187932000Y-69072000D02*
X187932000Y-67272000D01*
X195732000Y-69372000D02*
X197432000Y-69372000D01*
X197432000Y-69372000D02*
X197432000Y-67772000D01*
X197132000Y-69072000D02*
X195032000Y-69072000D01*
D14*
G04 #@! TO.C,J3*
X165526720Y-57437020D02*
X165526720Y-61434980D01*
X165526720Y-65234820D02*
X155529280Y-65234820D01*
X155529280Y-57437020D02*
X155529280Y-61434980D01*
X163527740Y-55438040D02*
X157528260Y-55438040D01*
D11*
G04 #@! TO.C,J2*
X174244000Y-122762675D02*
X173994000Y-122329662D01*
X174494000Y-122329662D02*
X174244000Y-122762675D01*
X173994000Y-122329662D02*
X174494000Y-122329662D01*
X195269000Y-123224000D02*
X195269000Y-133704000D01*
X164299000Y-123224000D02*
X195269000Y-123224000D01*
X164299000Y-133704000D02*
X164299000Y-123224000D01*
G04 #@! TO.C,J1*
X124167000Y-133704000D02*
X124167000Y-123224000D01*
X124167000Y-123224000D02*
X155137000Y-123224000D01*
X155137000Y-123224000D02*
X155137000Y-133704000D01*
X133862000Y-122329662D02*
X134362000Y-122329662D01*
X134362000Y-122329662D02*
X134112000Y-122762675D01*
X134112000Y-122762675D02*
X133862000Y-122329662D01*
D13*
G04 #@! TO.C,U1*
X169121000Y-73274000D02*
X169121000Y-73299000D01*
X173271000Y-73274000D02*
X173271000Y-73389000D01*
X173271000Y-82174000D02*
X173271000Y-82059000D01*
X169121000Y-82174000D02*
X169121000Y-82059000D01*
X169121000Y-73274000D02*
X173271000Y-73274000D01*
X169121000Y-82174000D02*
X173271000Y-82174000D01*
X169121000Y-73299000D02*
X167746000Y-73299000D01*
G04 #@! TO.C,U2*
X130819000Y-66359000D02*
X131094000Y-66359000D01*
X130819000Y-58609000D02*
X131174000Y-58609000D01*
X141469000Y-58609000D02*
X141114000Y-58609000D01*
X141469000Y-66359000D02*
X141114000Y-66359000D01*
X130819000Y-66359000D02*
X130819000Y-58609000D01*
X141469000Y-66359000D02*
X141469000Y-58609000D01*
X131094000Y-66359000D02*
X131094000Y-67884000D01*
G04 #@! TO.C,C2*
X195022173Y-105895142D02*
X194974554Y-105942761D01*
X194831697Y-105990380D01*
X194736459Y-105990380D01*
X194593601Y-105942761D01*
X194498363Y-105847523D01*
X194450744Y-105752285D01*
X194403125Y-105561809D01*
X194403125Y-105418952D01*
X194450744Y-105228476D01*
X194498363Y-105133238D01*
X194593601Y-105038000D01*
X194736459Y-104990380D01*
X194831697Y-104990380D01*
X194974554Y-105038000D01*
X195022173Y-105085619D01*
X195403125Y-105085619D02*
X195450744Y-105038000D01*
X195545982Y-104990380D01*
X195784078Y-104990380D01*
X195879316Y-105038000D01*
X195926935Y-105085619D01*
X195974554Y-105180857D01*
X195974554Y-105276095D01*
X195926935Y-105418952D01*
X195355506Y-105990380D01*
X195974554Y-105990380D01*
G04 #@! TO.C,C4*
X145502333Y-116181142D02*
X145454714Y-116228761D01*
X145311857Y-116276380D01*
X145216619Y-116276380D01*
X145073761Y-116228761D01*
X144978523Y-116133523D01*
X144930904Y-116038285D01*
X144883285Y-115847809D01*
X144883285Y-115704952D01*
X144930904Y-115514476D01*
X144978523Y-115419238D01*
X145073761Y-115324000D01*
X145216619Y-115276380D01*
X145311857Y-115276380D01*
X145454714Y-115324000D01*
X145502333Y-115371619D01*
X146359476Y-115609714D02*
X146359476Y-116276380D01*
X146121380Y-115228761D02*
X145883285Y-115943047D01*
X146502333Y-115943047D01*
G04 #@! TO.C,C5*
X185507333Y-116181142D02*
X185459714Y-116228761D01*
X185316857Y-116276380D01*
X185221619Y-116276380D01*
X185078761Y-116228761D01*
X184983523Y-116133523D01*
X184935904Y-116038285D01*
X184888285Y-115847809D01*
X184888285Y-115704952D01*
X184935904Y-115514476D01*
X184983523Y-115419238D01*
X185078761Y-115324000D01*
X185221619Y-115276380D01*
X185316857Y-115276380D01*
X185459714Y-115324000D01*
X185507333Y-115371619D01*
X186412095Y-115276380D02*
X185935904Y-115276380D01*
X185888285Y-115752571D01*
X185935904Y-115704952D01*
X186031142Y-115657333D01*
X186269238Y-115657333D01*
X186364476Y-115704952D01*
X186412095Y-115752571D01*
X186459714Y-115847809D01*
X186459714Y-116085904D01*
X186412095Y-116181142D01*
X186364476Y-116228761D01*
X186269238Y-116276380D01*
X186031142Y-116276380D01*
X185935904Y-116228761D01*
X185888285Y-116181142D01*
G04 #@! TO.C,C7*
X141962142Y-75858666D02*
X142009761Y-75906285D01*
X142057380Y-76049142D01*
X142057380Y-76144380D01*
X142009761Y-76287238D01*
X141914523Y-76382476D01*
X141819285Y-76430095D01*
X141628809Y-76477714D01*
X141485952Y-76477714D01*
X141295476Y-76430095D01*
X141200238Y-76382476D01*
X141105000Y-76287238D01*
X141057380Y-76144380D01*
X141057380Y-76049142D01*
X141105000Y-75906285D01*
X141152619Y-75858666D01*
X141057380Y-75525333D02*
X141057380Y-74858666D01*
X142057380Y-75287238D01*
G04 #@! TO.C,C8*
X139549142Y-75858666D02*
X139596761Y-75906285D01*
X139644380Y-76049142D01*
X139644380Y-76144380D01*
X139596761Y-76287238D01*
X139501523Y-76382476D01*
X139406285Y-76430095D01*
X139215809Y-76477714D01*
X139072952Y-76477714D01*
X138882476Y-76430095D01*
X138787238Y-76382476D01*
X138692000Y-76287238D01*
X138644380Y-76144380D01*
X138644380Y-76049142D01*
X138692000Y-75906285D01*
X138739619Y-75858666D01*
X139072952Y-75287238D02*
X139025333Y-75382476D01*
X138977714Y-75430095D01*
X138882476Y-75477714D01*
X138834857Y-75477714D01*
X138739619Y-75430095D01*
X138692000Y-75382476D01*
X138644380Y-75287238D01*
X138644380Y-75096761D01*
X138692000Y-75001523D01*
X138739619Y-74953904D01*
X138834857Y-74906285D01*
X138882476Y-74906285D01*
X138977714Y-74953904D01*
X139025333Y-75001523D01*
X139072952Y-75096761D01*
X139072952Y-75287238D01*
X139120571Y-75382476D01*
X139168190Y-75430095D01*
X139263428Y-75477714D01*
X139453904Y-75477714D01*
X139549142Y-75430095D01*
X139596761Y-75382476D01*
X139644380Y-75287238D01*
X139644380Y-75096761D01*
X139596761Y-75001523D01*
X139549142Y-74953904D01*
X139453904Y-74906285D01*
X139263428Y-74906285D01*
X139168190Y-74953904D01*
X139120571Y-75001523D01*
X139072952Y-75096761D01*
G04 #@! TO.C,C9*
X144629142Y-75858666D02*
X144676761Y-75906285D01*
X144724380Y-76049142D01*
X144724380Y-76144380D01*
X144676761Y-76287238D01*
X144581523Y-76382476D01*
X144486285Y-76430095D01*
X144295809Y-76477714D01*
X144152952Y-76477714D01*
X143962476Y-76430095D01*
X143867238Y-76382476D01*
X143772000Y-76287238D01*
X143724380Y-76144380D01*
X143724380Y-76049142D01*
X143772000Y-75906285D01*
X143819619Y-75858666D01*
X144724380Y-75382476D02*
X144724380Y-75192000D01*
X144676761Y-75096761D01*
X144629142Y-75049142D01*
X144486285Y-74953904D01*
X144295809Y-74906285D01*
X143914857Y-74906285D01*
X143819619Y-74953904D01*
X143772000Y-75001523D01*
X143724380Y-75096761D01*
X143724380Y-75287238D01*
X143772000Y-75382476D01*
X143819619Y-75430095D01*
X143914857Y-75477714D01*
X144152952Y-75477714D01*
X144248190Y-75430095D01*
X144295809Y-75382476D01*
X144343428Y-75287238D01*
X144343428Y-75096761D01*
X144295809Y-75001523D01*
X144248190Y-74953904D01*
X144152952Y-74906285D01*
G04 #@! TO.C,C10*
X126357142Y-74399142D02*
X126309523Y-74446761D01*
X126166666Y-74494380D01*
X126071428Y-74494380D01*
X125928571Y-74446761D01*
X125833333Y-74351523D01*
X125785714Y-74256285D01*
X125738095Y-74065809D01*
X125738095Y-73922952D01*
X125785714Y-73732476D01*
X125833333Y-73637238D01*
X125928571Y-73542000D01*
X126071428Y-73494380D01*
X126166666Y-73494380D01*
X126309523Y-73542000D01*
X126357142Y-73589619D01*
X127309523Y-74494380D02*
X126738095Y-74494380D01*
X127023809Y-74494380D02*
X127023809Y-73494380D01*
X126928571Y-73637238D01*
X126833333Y-73732476D01*
X126738095Y-73780095D01*
X127928571Y-73494380D02*
X128023809Y-73494380D01*
X128119047Y-73542000D01*
X128166666Y-73589619D01*
X128214285Y-73684857D01*
X128261904Y-73875333D01*
X128261904Y-74113428D01*
X128214285Y-74303904D01*
X128166666Y-74399142D01*
X128119047Y-74446761D01*
X128023809Y-74494380D01*
X127928571Y-74494380D01*
X127833333Y-74446761D01*
X127785714Y-74399142D01*
X127738095Y-74303904D01*
X127690476Y-74113428D01*
X127690476Y-73875333D01*
X127738095Y-73684857D01*
X127785714Y-73589619D01*
X127833333Y-73542000D01*
X127928571Y-73494380D01*
G04 #@! TO.C,C11*
X150233142Y-58651142D02*
X150185523Y-58698761D01*
X150042666Y-58746380D01*
X149947428Y-58746380D01*
X149804571Y-58698761D01*
X149709333Y-58603523D01*
X149661714Y-58508285D01*
X149614095Y-58317809D01*
X149614095Y-58174952D01*
X149661714Y-57984476D01*
X149709333Y-57889238D01*
X149804571Y-57794000D01*
X149947428Y-57746380D01*
X150042666Y-57746380D01*
X150185523Y-57794000D01*
X150233142Y-57841619D01*
X151185523Y-58746380D02*
X150614095Y-58746380D01*
X150899809Y-58746380D02*
X150899809Y-57746380D01*
X150804571Y-57889238D01*
X150709333Y-57984476D01*
X150614095Y-58032095D01*
X152137904Y-58746380D02*
X151566476Y-58746380D01*
X151852190Y-58746380D02*
X151852190Y-57746380D01*
X151756952Y-57889238D01*
X151661714Y-57984476D01*
X151566476Y-58032095D01*
G04 #@! TO.C,C13*
X124325142Y-115547142D02*
X124277523Y-115594761D01*
X124134666Y-115642380D01*
X124039428Y-115642380D01*
X123896571Y-115594761D01*
X123801333Y-115499523D01*
X123753714Y-115404285D01*
X123706095Y-115213809D01*
X123706095Y-115070952D01*
X123753714Y-114880476D01*
X123801333Y-114785238D01*
X123896571Y-114690000D01*
X124039428Y-114642380D01*
X124134666Y-114642380D01*
X124277523Y-114690000D01*
X124325142Y-114737619D01*
X125277523Y-115642380D02*
X124706095Y-115642380D01*
X124991809Y-115642380D02*
X124991809Y-114642380D01*
X124896571Y-114785238D01*
X124801333Y-114880476D01*
X124706095Y-114928095D01*
X125610857Y-114642380D02*
X126229904Y-114642380D01*
X125896571Y-115023333D01*
X126039428Y-115023333D01*
X126134666Y-115070952D01*
X126182285Y-115118571D01*
X126229904Y-115213809D01*
X126229904Y-115451904D01*
X126182285Y-115547142D01*
X126134666Y-115594761D01*
X126039428Y-115642380D01*
X125753714Y-115642380D01*
X125658476Y-115594761D01*
X125610857Y-115547142D01*
G04 #@! TO.C,C14*
X130421142Y-55729142D02*
X130373523Y-55776761D01*
X130230666Y-55824380D01*
X130135428Y-55824380D01*
X129992571Y-55776761D01*
X129897333Y-55681523D01*
X129849714Y-55586285D01*
X129802095Y-55395809D01*
X129802095Y-55252952D01*
X129849714Y-55062476D01*
X129897333Y-54967238D01*
X129992571Y-54872000D01*
X130135428Y-54824380D01*
X130230666Y-54824380D01*
X130373523Y-54872000D01*
X130421142Y-54919619D01*
X131373523Y-55824380D02*
X130802095Y-55824380D01*
X131087809Y-55824380D02*
X131087809Y-54824380D01*
X130992571Y-54967238D01*
X130897333Y-55062476D01*
X130802095Y-55110095D01*
X132230666Y-55157714D02*
X132230666Y-55824380D01*
X131992571Y-54776761D02*
X131754476Y-55491047D01*
X132373523Y-55491047D01*
G04 #@! TO.C,C16*
X130548142Y-70588142D02*
X130500523Y-70635761D01*
X130357666Y-70683380D01*
X130262428Y-70683380D01*
X130119571Y-70635761D01*
X130024333Y-70540523D01*
X129976714Y-70445285D01*
X129929095Y-70254809D01*
X129929095Y-70111952D01*
X129976714Y-69921476D01*
X130024333Y-69826238D01*
X130119571Y-69731000D01*
X130262428Y-69683380D01*
X130357666Y-69683380D01*
X130500523Y-69731000D01*
X130548142Y-69778619D01*
X131500523Y-70683380D02*
X130929095Y-70683380D01*
X131214809Y-70683380D02*
X131214809Y-69683380D01*
X131119571Y-69826238D01*
X131024333Y-69921476D01*
X130929095Y-69969095D01*
X132357666Y-69683380D02*
X132167190Y-69683380D01*
X132071952Y-69731000D01*
X132024333Y-69778619D01*
X131929095Y-69921476D01*
X131881476Y-70111952D01*
X131881476Y-70492904D01*
X131929095Y-70588142D01*
X131976714Y-70635761D01*
X132071952Y-70683380D01*
X132262428Y-70683380D01*
X132357666Y-70635761D01*
X132405285Y-70588142D01*
X132452904Y-70492904D01*
X132452904Y-70254809D01*
X132405285Y-70159571D01*
X132357666Y-70111952D01*
X132262428Y-70064333D01*
X132071952Y-70064333D01*
X131976714Y-70111952D01*
X131929095Y-70159571D01*
X131881476Y-70254809D01*
G04 #@! TO.C,C17*
X195191142Y-93575142D02*
X195143523Y-93622761D01*
X195000666Y-93670380D01*
X194905428Y-93670380D01*
X194762571Y-93622761D01*
X194667333Y-93527523D01*
X194619714Y-93432285D01*
X194572095Y-93241809D01*
X194572095Y-93098952D01*
X194619714Y-92908476D01*
X194667333Y-92813238D01*
X194762571Y-92718000D01*
X194905428Y-92670380D01*
X195000666Y-92670380D01*
X195143523Y-92718000D01*
X195191142Y-92765619D01*
X196143523Y-93670380D02*
X195572095Y-93670380D01*
X195857809Y-93670380D02*
X195857809Y-92670380D01*
X195762571Y-92813238D01*
X195667333Y-92908476D01*
X195572095Y-92956095D01*
X196476857Y-92670380D02*
X197143523Y-92670380D01*
X196714952Y-93670380D01*
G04 #@! TO.C,C18*
X181475142Y-93448142D02*
X181427523Y-93495761D01*
X181284666Y-93543380D01*
X181189428Y-93543380D01*
X181046571Y-93495761D01*
X180951333Y-93400523D01*
X180903714Y-93305285D01*
X180856095Y-93114809D01*
X180856095Y-92971952D01*
X180903714Y-92781476D01*
X180951333Y-92686238D01*
X181046571Y-92591000D01*
X181189428Y-92543380D01*
X181284666Y-92543380D01*
X181427523Y-92591000D01*
X181475142Y-92638619D01*
X182427523Y-93543380D02*
X181856095Y-93543380D01*
X182141809Y-93543380D02*
X182141809Y-92543380D01*
X182046571Y-92686238D01*
X181951333Y-92781476D01*
X181856095Y-92829095D01*
X182998952Y-92971952D02*
X182903714Y-92924333D01*
X182856095Y-92876714D01*
X182808476Y-92781476D01*
X182808476Y-92733857D01*
X182856095Y-92638619D01*
X182903714Y-92591000D01*
X182998952Y-92543380D01*
X183189428Y-92543380D01*
X183284666Y-92591000D01*
X183332285Y-92638619D01*
X183379904Y-92733857D01*
X183379904Y-92781476D01*
X183332285Y-92876714D01*
X183284666Y-92924333D01*
X183189428Y-92971952D01*
X182998952Y-92971952D01*
X182903714Y-93019571D01*
X182856095Y-93067190D01*
X182808476Y-93162428D01*
X182808476Y-93352904D01*
X182856095Y-93448142D01*
X182903714Y-93495761D01*
X182998952Y-93543380D01*
X183189428Y-93543380D01*
X183284666Y-93495761D01*
X183332285Y-93448142D01*
X183379904Y-93352904D01*
X183379904Y-93162428D01*
X183332285Y-93067190D01*
X183284666Y-93019571D01*
X183189428Y-92971952D01*
G04 #@! TO.C,C19*
X175743142Y-70746857D02*
X175790761Y-70794476D01*
X175838380Y-70937333D01*
X175838380Y-71032571D01*
X175790761Y-71175428D01*
X175695523Y-71270666D01*
X175600285Y-71318285D01*
X175409809Y-71365904D01*
X175266952Y-71365904D01*
X175076476Y-71318285D01*
X174981238Y-71270666D01*
X174886000Y-71175428D01*
X174838380Y-71032571D01*
X174838380Y-70937333D01*
X174886000Y-70794476D01*
X174933619Y-70746857D01*
X175838380Y-69794476D02*
X175838380Y-70365904D01*
X175838380Y-70080190D02*
X174838380Y-70080190D01*
X174981238Y-70175428D01*
X175076476Y-70270666D01*
X175124095Y-70365904D01*
X175838380Y-69318285D02*
X175838380Y-69127809D01*
X175790761Y-69032571D01*
X175743142Y-68984952D01*
X175600285Y-68889714D01*
X175409809Y-68842095D01*
X175028857Y-68842095D01*
X174933619Y-68889714D01*
X174886000Y-68937333D01*
X174838380Y-69032571D01*
X174838380Y-69223047D01*
X174886000Y-69318285D01*
X174933619Y-69365904D01*
X175028857Y-69413523D01*
X175266952Y-69413523D01*
X175362190Y-69365904D01*
X175409809Y-69318285D01*
X175457428Y-69223047D01*
X175457428Y-69032571D01*
X175409809Y-68937333D01*
X175362190Y-68889714D01*
X175266952Y-68842095D01*
G04 #@! TO.C,C1*
X202415142Y-106846666D02*
X202462761Y-106894285D01*
X202510380Y-107037142D01*
X202510380Y-107132380D01*
X202462761Y-107275238D01*
X202367523Y-107370476D01*
X202272285Y-107418095D01*
X202081809Y-107465714D01*
X201938952Y-107465714D01*
X201748476Y-107418095D01*
X201653238Y-107370476D01*
X201558000Y-107275238D01*
X201510380Y-107132380D01*
X201510380Y-107037142D01*
X201558000Y-106894285D01*
X201605619Y-106846666D01*
X202510380Y-105894285D02*
X202510380Y-106465714D01*
X202510380Y-106180000D02*
X201510380Y-106180000D01*
X201653238Y-106275238D01*
X201748476Y-106370476D01*
X201796095Y-106465714D01*
G04 #@! TO.C,R7*
X144724380Y-82716666D02*
X144248190Y-83050000D01*
X144724380Y-83288095D02*
X143724380Y-83288095D01*
X143724380Y-82907142D01*
X143772000Y-82811904D01*
X143819619Y-82764285D01*
X143914857Y-82716666D01*
X144057714Y-82716666D01*
X144152952Y-82764285D01*
X144200571Y-82811904D01*
X144248190Y-82907142D01*
X144248190Y-83288095D01*
X143724380Y-82383333D02*
X143724380Y-81716666D01*
X144724380Y-82145238D01*
G04 #@! TO.C,R5*
X139644380Y-82716666D02*
X139168190Y-83050000D01*
X139644380Y-83288095D02*
X138644380Y-83288095D01*
X138644380Y-82907142D01*
X138692000Y-82811904D01*
X138739619Y-82764285D01*
X138834857Y-82716666D01*
X138977714Y-82716666D01*
X139072952Y-82764285D01*
X139120571Y-82811904D01*
X139168190Y-82907142D01*
X139168190Y-83288095D01*
X138644380Y-81811904D02*
X138644380Y-82288095D01*
X139120571Y-82335714D01*
X139072952Y-82288095D01*
X139025333Y-82192857D01*
X139025333Y-81954761D01*
X139072952Y-81859523D01*
X139120571Y-81811904D01*
X139215809Y-81764285D01*
X139453904Y-81764285D01*
X139549142Y-81811904D01*
X139596761Y-81859523D01*
X139644380Y-81954761D01*
X139644380Y-82192857D01*
X139596761Y-82288095D01*
X139549142Y-82335714D01*
G04 #@! TO.C,R16*
X124325142Y-108530380D02*
X123991809Y-108054190D01*
X123753714Y-108530380D02*
X123753714Y-107530380D01*
X124134666Y-107530380D01*
X124229904Y-107578000D01*
X124277523Y-107625619D01*
X124325142Y-107720857D01*
X124325142Y-107863714D01*
X124277523Y-107958952D01*
X124229904Y-108006571D01*
X124134666Y-108054190D01*
X123753714Y-108054190D01*
X125277523Y-108530380D02*
X124706095Y-108530380D01*
X124991809Y-108530380D02*
X124991809Y-107530380D01*
X124896571Y-107673238D01*
X124801333Y-107768476D01*
X124706095Y-107816095D01*
X126134666Y-107530380D02*
X125944190Y-107530380D01*
X125848952Y-107578000D01*
X125801333Y-107625619D01*
X125706095Y-107768476D01*
X125658476Y-107958952D01*
X125658476Y-108339904D01*
X125706095Y-108435142D01*
X125753714Y-108482761D01*
X125848952Y-108530380D01*
X126039428Y-108530380D01*
X126134666Y-108482761D01*
X126182285Y-108435142D01*
X126229904Y-108339904D01*
X126229904Y-108101809D01*
X126182285Y-108006571D01*
X126134666Y-107958952D01*
X126039428Y-107911333D01*
X125848952Y-107911333D01*
X125753714Y-107958952D01*
X125706095Y-108006571D01*
X125658476Y-108101809D01*
G04 #@! TO.C,R17*
X142105142Y-118690380D02*
X141771809Y-118214190D01*
X141533714Y-118690380D02*
X141533714Y-117690380D01*
X141914666Y-117690380D01*
X142009904Y-117738000D01*
X142057523Y-117785619D01*
X142105142Y-117880857D01*
X142105142Y-118023714D01*
X142057523Y-118118952D01*
X142009904Y-118166571D01*
X141914666Y-118214190D01*
X141533714Y-118214190D01*
X143057523Y-118690380D02*
X142486095Y-118690380D01*
X142771809Y-118690380D02*
X142771809Y-117690380D01*
X142676571Y-117833238D01*
X142581333Y-117928476D01*
X142486095Y-117976095D01*
X143390857Y-117690380D02*
X144057523Y-117690380D01*
X143628952Y-118690380D01*
G04 #@! TO.C,R18*
X182237142Y-118690380D02*
X181903809Y-118214190D01*
X181665714Y-118690380D02*
X181665714Y-117690380D01*
X182046666Y-117690380D01*
X182141904Y-117738000D01*
X182189523Y-117785619D01*
X182237142Y-117880857D01*
X182237142Y-118023714D01*
X182189523Y-118118952D01*
X182141904Y-118166571D01*
X182046666Y-118214190D01*
X181665714Y-118214190D01*
X183189523Y-118690380D02*
X182618095Y-118690380D01*
X182903809Y-118690380D02*
X182903809Y-117690380D01*
X182808571Y-117833238D01*
X182713333Y-117928476D01*
X182618095Y-117976095D01*
X183760952Y-118118952D02*
X183665714Y-118071333D01*
X183618095Y-118023714D01*
X183570476Y-117928476D01*
X183570476Y-117880857D01*
X183618095Y-117785619D01*
X183665714Y-117738000D01*
X183760952Y-117690380D01*
X183951428Y-117690380D01*
X184046666Y-117738000D01*
X184094285Y-117785619D01*
X184141904Y-117880857D01*
X184141904Y-117928476D01*
X184094285Y-118023714D01*
X184046666Y-118071333D01*
X183951428Y-118118952D01*
X183760952Y-118118952D01*
X183665714Y-118166571D01*
X183618095Y-118214190D01*
X183570476Y-118309428D01*
X183570476Y-118499904D01*
X183618095Y-118595142D01*
X183665714Y-118642761D01*
X183760952Y-118690380D01*
X183951428Y-118690380D01*
X184046666Y-118642761D01*
X184094285Y-118595142D01*
X184141904Y-118499904D01*
X184141904Y-118309428D01*
X184094285Y-118214190D01*
X184046666Y-118166571D01*
X183951428Y-118118952D01*
G04 #@! TO.C,R19*
X178564302Y-73478380D02*
X178230969Y-73002190D01*
X177992874Y-73478380D02*
X177992874Y-72478380D01*
X178373826Y-72478380D01*
X178469064Y-72526000D01*
X178516683Y-72573619D01*
X178564302Y-72668857D01*
X178564302Y-72811714D01*
X178516683Y-72906952D01*
X178469064Y-72954571D01*
X178373826Y-73002190D01*
X177992874Y-73002190D01*
X179516683Y-73478380D02*
X178945255Y-73478380D01*
X179230969Y-73478380D02*
X179230969Y-72478380D01*
X179135731Y-72621238D01*
X179040493Y-72716476D01*
X178945255Y-72764095D01*
X179992874Y-73478380D02*
X180183350Y-73478380D01*
X180278588Y-73430761D01*
X180326207Y-73383142D01*
X180421445Y-73240285D01*
X180469064Y-73049809D01*
X180469064Y-72668857D01*
X180421445Y-72573619D01*
X180373826Y-72526000D01*
X180278588Y-72478380D01*
X180088112Y-72478380D01*
X179992874Y-72526000D01*
X179945255Y-72573619D01*
X179897636Y-72668857D01*
X179897636Y-72906952D01*
X179945255Y-73002190D01*
X179992874Y-73049809D01*
X180088112Y-73097428D01*
X180278588Y-73097428D01*
X180373826Y-73049809D01*
X180421445Y-73002190D01*
X180469064Y-72906952D01*
G04 #@! TO.C,R20*
X183253142Y-73478380D02*
X182919809Y-73002190D01*
X182681714Y-73478380D02*
X182681714Y-72478380D01*
X183062666Y-72478380D01*
X183157904Y-72526000D01*
X183205523Y-72573619D01*
X183253142Y-72668857D01*
X183253142Y-72811714D01*
X183205523Y-72906952D01*
X183157904Y-72954571D01*
X183062666Y-73002190D01*
X182681714Y-73002190D01*
X183634095Y-72573619D02*
X183681714Y-72526000D01*
X183776952Y-72478380D01*
X184015047Y-72478380D01*
X184110285Y-72526000D01*
X184157904Y-72573619D01*
X184205523Y-72668857D01*
X184205523Y-72764095D01*
X184157904Y-72906952D01*
X183586476Y-73478380D01*
X184205523Y-73478380D01*
X184824571Y-72478380D02*
X184919809Y-72478380D01*
X185015047Y-72526000D01*
X185062666Y-72573619D01*
X185110285Y-72668857D01*
X185157904Y-72859333D01*
X185157904Y-73097428D01*
X185110285Y-73287904D01*
X185062666Y-73383142D01*
X185015047Y-73430761D01*
X184919809Y-73478380D01*
X184824571Y-73478380D01*
X184729333Y-73430761D01*
X184681714Y-73383142D01*
X184634095Y-73287904D01*
X184586476Y-73097428D01*
X184586476Y-72859333D01*
X184634095Y-72668857D01*
X184681714Y-72573619D01*
X184729333Y-72526000D01*
X184824571Y-72478380D01*
G04 #@! TO.C,R9*
X189810380Y-102782666D02*
X189334190Y-103116000D01*
X189810380Y-103354095D02*
X188810380Y-103354095D01*
X188810380Y-102973142D01*
X188858000Y-102877904D01*
X188905619Y-102830285D01*
X189000857Y-102782666D01*
X189143714Y-102782666D01*
X189238952Y-102830285D01*
X189286571Y-102877904D01*
X189334190Y-102973142D01*
X189334190Y-103354095D01*
X189810380Y-102306476D02*
X189810380Y-102116000D01*
X189762761Y-102020761D01*
X189715142Y-101973142D01*
X189572285Y-101877904D01*
X189381809Y-101830285D01*
X189000857Y-101830285D01*
X188905619Y-101877904D01*
X188858000Y-101925523D01*
X188810380Y-102020761D01*
X188810380Y-102211238D01*
X188858000Y-102306476D01*
X188905619Y-102354095D01*
X189000857Y-102401714D01*
X189238952Y-102401714D01*
X189334190Y-102354095D01*
X189381809Y-102306476D01*
X189429428Y-102211238D01*
X189429428Y-102020761D01*
X189381809Y-101925523D01*
X189334190Y-101877904D01*
X189238952Y-101830285D01*
G04 #@! TO.C,R10*
X204033380Y-99702857D02*
X203557190Y-100036190D01*
X204033380Y-100274285D02*
X203033380Y-100274285D01*
X203033380Y-99893333D01*
X203081000Y-99798095D01*
X203128619Y-99750476D01*
X203223857Y-99702857D01*
X203366714Y-99702857D01*
X203461952Y-99750476D01*
X203509571Y-99798095D01*
X203557190Y-99893333D01*
X203557190Y-100274285D01*
X204033380Y-98750476D02*
X204033380Y-99321904D01*
X204033380Y-99036190D02*
X203033380Y-99036190D01*
X203176238Y-99131428D01*
X203271476Y-99226666D01*
X203319095Y-99321904D01*
X203033380Y-98131428D02*
X203033380Y-98036190D01*
X203081000Y-97940952D01*
X203128619Y-97893333D01*
X203223857Y-97845714D01*
X203414333Y-97798095D01*
X203652428Y-97798095D01*
X203842904Y-97845714D01*
X203938142Y-97893333D01*
X203985761Y-97940952D01*
X204033380Y-98036190D01*
X204033380Y-98131428D01*
X203985761Y-98226666D01*
X203938142Y-98274285D01*
X203842904Y-98321904D01*
X203652428Y-98369523D01*
X203414333Y-98369523D01*
X203223857Y-98321904D01*
X203128619Y-98274285D01*
X203081000Y-98226666D01*
X203033380Y-98131428D01*
G04 #@! TO.C,R11*
X189810380Y-99194857D02*
X189334190Y-99528190D01*
X189810380Y-99766285D02*
X188810380Y-99766285D01*
X188810380Y-99385333D01*
X188858000Y-99290095D01*
X188905619Y-99242476D01*
X189000857Y-99194857D01*
X189143714Y-99194857D01*
X189238952Y-99242476D01*
X189286571Y-99290095D01*
X189334190Y-99385333D01*
X189334190Y-99766285D01*
X189810380Y-98242476D02*
X189810380Y-98813904D01*
X189810380Y-98528190D02*
X188810380Y-98528190D01*
X188953238Y-98623428D01*
X189048476Y-98718666D01*
X189096095Y-98813904D01*
X189810380Y-97290095D02*
X189810380Y-97861523D01*
X189810380Y-97575809D02*
X188810380Y-97575809D01*
X188953238Y-97671047D01*
X189048476Y-97766285D01*
X189096095Y-97861523D01*
G04 #@! TO.C,R13*
X133977142Y-118690380D02*
X133643809Y-118214190D01*
X133405714Y-118690380D02*
X133405714Y-117690380D01*
X133786666Y-117690380D01*
X133881904Y-117738000D01*
X133929523Y-117785619D01*
X133977142Y-117880857D01*
X133977142Y-118023714D01*
X133929523Y-118118952D01*
X133881904Y-118166571D01*
X133786666Y-118214190D01*
X133405714Y-118214190D01*
X134929523Y-118690380D02*
X134358095Y-118690380D01*
X134643809Y-118690380D02*
X134643809Y-117690380D01*
X134548571Y-117833238D01*
X134453333Y-117928476D01*
X134358095Y-117976095D01*
X135262857Y-117690380D02*
X135881904Y-117690380D01*
X135548571Y-118071333D01*
X135691428Y-118071333D01*
X135786666Y-118118952D01*
X135834285Y-118166571D01*
X135881904Y-118261809D01*
X135881904Y-118499904D01*
X135834285Y-118595142D01*
X135786666Y-118642761D01*
X135691428Y-118690380D01*
X135405714Y-118690380D01*
X135310476Y-118642761D01*
X135262857Y-118595142D01*
G04 #@! TO.C,R12*
X138041142Y-118690380D02*
X137707809Y-118214190D01*
X137469714Y-118690380D02*
X137469714Y-117690380D01*
X137850666Y-117690380D01*
X137945904Y-117738000D01*
X137993523Y-117785619D01*
X138041142Y-117880857D01*
X138041142Y-118023714D01*
X137993523Y-118118952D01*
X137945904Y-118166571D01*
X137850666Y-118214190D01*
X137469714Y-118214190D01*
X138993523Y-118690380D02*
X138422095Y-118690380D01*
X138707809Y-118690380D02*
X138707809Y-117690380D01*
X138612571Y-117833238D01*
X138517333Y-117928476D01*
X138422095Y-117976095D01*
X139374476Y-117785619D02*
X139422095Y-117738000D01*
X139517333Y-117690380D01*
X139755428Y-117690380D01*
X139850666Y-117738000D01*
X139898285Y-117785619D01*
X139945904Y-117880857D01*
X139945904Y-117976095D01*
X139898285Y-118118952D01*
X139326857Y-118690380D01*
X139945904Y-118690380D01*
G04 #@! TO.C,R6*
X142057380Y-82716666D02*
X141581190Y-83050000D01*
X142057380Y-83288095D02*
X141057380Y-83288095D01*
X141057380Y-82907142D01*
X141105000Y-82811904D01*
X141152619Y-82764285D01*
X141247857Y-82716666D01*
X141390714Y-82716666D01*
X141485952Y-82764285D01*
X141533571Y-82811904D01*
X141581190Y-82907142D01*
X141581190Y-83288095D01*
X141057380Y-81859523D02*
X141057380Y-82050000D01*
X141105000Y-82145238D01*
X141152619Y-82192857D01*
X141295476Y-82288095D01*
X141485952Y-82335714D01*
X141866904Y-82335714D01*
X141962142Y-82288095D01*
X142009761Y-82240476D01*
X142057380Y-82145238D01*
X142057380Y-81954761D01*
X142009761Y-81859523D01*
X141962142Y-81811904D01*
X141866904Y-81764285D01*
X141628809Y-81764285D01*
X141533571Y-81811904D01*
X141485952Y-81859523D01*
X141438333Y-81954761D01*
X141438333Y-82145238D01*
X141485952Y-82240476D01*
X141533571Y-82288095D01*
X141628809Y-82335714D01*
G04 #@! TO.C,R25*
X148914380Y-69222857D02*
X148438190Y-69556190D01*
X148914380Y-69794285D02*
X147914380Y-69794285D01*
X147914380Y-69413333D01*
X147962000Y-69318095D01*
X148009619Y-69270476D01*
X148104857Y-69222857D01*
X148247714Y-69222857D01*
X148342952Y-69270476D01*
X148390571Y-69318095D01*
X148438190Y-69413333D01*
X148438190Y-69794285D01*
X148009619Y-68841904D02*
X147962000Y-68794285D01*
X147914380Y-68699047D01*
X147914380Y-68460952D01*
X147962000Y-68365714D01*
X148009619Y-68318095D01*
X148104857Y-68270476D01*
X148200095Y-68270476D01*
X148342952Y-68318095D01*
X148914380Y-68889523D01*
X148914380Y-68270476D01*
X147914380Y-67365714D02*
X147914380Y-67841904D01*
X148390571Y-67889523D01*
X148342952Y-67841904D01*
X148295333Y-67746666D01*
X148295333Y-67508571D01*
X148342952Y-67413333D01*
X148390571Y-67365714D01*
X148485809Y-67318095D01*
X148723904Y-67318095D01*
X148819142Y-67365714D01*
X148866761Y-67413333D01*
X148914380Y-67508571D01*
X148914380Y-67746666D01*
X148866761Y-67841904D01*
X148819142Y-67889523D01*
G04 #@! TO.C,R24*
X126357142Y-70938380D02*
X126023809Y-70462190D01*
X125785714Y-70938380D02*
X125785714Y-69938380D01*
X126166666Y-69938380D01*
X126261904Y-69986000D01*
X126309523Y-70033619D01*
X126357142Y-70128857D01*
X126357142Y-70271714D01*
X126309523Y-70366952D01*
X126261904Y-70414571D01*
X126166666Y-70462190D01*
X125785714Y-70462190D01*
X126738095Y-70033619D02*
X126785714Y-69986000D01*
X126880952Y-69938380D01*
X127119047Y-69938380D01*
X127214285Y-69986000D01*
X127261904Y-70033619D01*
X127309523Y-70128857D01*
X127309523Y-70224095D01*
X127261904Y-70366952D01*
X126690476Y-70938380D01*
X127309523Y-70938380D01*
X128166666Y-70271714D02*
X128166666Y-70938380D01*
X127928571Y-69890761D02*
X127690476Y-70605047D01*
X128309523Y-70605047D01*
G04 #@! TO.C,R14*
X178173142Y-118690380D02*
X177839809Y-118214190D01*
X177601714Y-118690380D02*
X177601714Y-117690380D01*
X177982666Y-117690380D01*
X178077904Y-117738000D01*
X178125523Y-117785619D01*
X178173142Y-117880857D01*
X178173142Y-118023714D01*
X178125523Y-118118952D01*
X178077904Y-118166571D01*
X177982666Y-118214190D01*
X177601714Y-118214190D01*
X179125523Y-118690380D02*
X178554095Y-118690380D01*
X178839809Y-118690380D02*
X178839809Y-117690380D01*
X178744571Y-117833238D01*
X178649333Y-117928476D01*
X178554095Y-117976095D01*
X179982666Y-118023714D02*
X179982666Y-118690380D01*
X179744571Y-117642761D02*
X179506476Y-118357047D01*
X180125523Y-118357047D01*
G04 #@! TO.C,R26*
X150233142Y-55190380D02*
X149899809Y-54714190D01*
X149661714Y-55190380D02*
X149661714Y-54190380D01*
X150042666Y-54190380D01*
X150137904Y-54238000D01*
X150185523Y-54285619D01*
X150233142Y-54380857D01*
X150233142Y-54523714D01*
X150185523Y-54618952D01*
X150137904Y-54666571D01*
X150042666Y-54714190D01*
X149661714Y-54714190D01*
X150614095Y-54285619D02*
X150661714Y-54238000D01*
X150756952Y-54190380D01*
X150995047Y-54190380D01*
X151090285Y-54238000D01*
X151137904Y-54285619D01*
X151185523Y-54380857D01*
X151185523Y-54476095D01*
X151137904Y-54618952D01*
X150566476Y-55190380D01*
X151185523Y-55190380D01*
X152042666Y-54190380D02*
X151852190Y-54190380D01*
X151756952Y-54238000D01*
X151709333Y-54285619D01*
X151614095Y-54428476D01*
X151566476Y-54618952D01*
X151566476Y-54999904D01*
X151614095Y-55095142D01*
X151661714Y-55142761D01*
X151756952Y-55190380D01*
X151947428Y-55190380D01*
X152042666Y-55142761D01*
X152090285Y-55095142D01*
X152137904Y-54999904D01*
X152137904Y-54761809D01*
X152090285Y-54666571D01*
X152042666Y-54618952D01*
X151947428Y-54571333D01*
X151756952Y-54571333D01*
X151661714Y-54618952D01*
X151614095Y-54666571D01*
X151566476Y-54761809D01*
G04 #@! TO.C,R27*
X124325142Y-112086380D02*
X123991809Y-111610190D01*
X123753714Y-112086380D02*
X123753714Y-111086380D01*
X124134666Y-111086380D01*
X124229904Y-111134000D01*
X124277523Y-111181619D01*
X124325142Y-111276857D01*
X124325142Y-111419714D01*
X124277523Y-111514952D01*
X124229904Y-111562571D01*
X124134666Y-111610190D01*
X123753714Y-111610190D01*
X124706095Y-111181619D02*
X124753714Y-111134000D01*
X124848952Y-111086380D01*
X125087047Y-111086380D01*
X125182285Y-111134000D01*
X125229904Y-111181619D01*
X125277523Y-111276857D01*
X125277523Y-111372095D01*
X125229904Y-111514952D01*
X124658476Y-112086380D01*
X125277523Y-112086380D01*
X125610857Y-111086380D02*
X126277523Y-111086380D01*
X125848952Y-112086380D01*
G04 #@! TO.C,R29*
X206367142Y-65222380D02*
X206033809Y-64746190D01*
X205795714Y-65222380D02*
X205795714Y-64222380D01*
X206176666Y-64222380D01*
X206271904Y-64270000D01*
X206319523Y-64317619D01*
X206367142Y-64412857D01*
X206367142Y-64555714D01*
X206319523Y-64650952D01*
X206271904Y-64698571D01*
X206176666Y-64746190D01*
X205795714Y-64746190D01*
X206748095Y-64317619D02*
X206795714Y-64270000D01*
X206890952Y-64222380D01*
X207129047Y-64222380D01*
X207224285Y-64270000D01*
X207271904Y-64317619D01*
X207319523Y-64412857D01*
X207319523Y-64508095D01*
X207271904Y-64650952D01*
X206700476Y-65222380D01*
X207319523Y-65222380D01*
X207795714Y-65222380D02*
X207986190Y-65222380D01*
X208081428Y-65174761D01*
X208129047Y-65127142D01*
X208224285Y-64984285D01*
X208271904Y-64793809D01*
X208271904Y-64412857D01*
X208224285Y-64317619D01*
X208176666Y-64270000D01*
X208081428Y-64222380D01*
X207890952Y-64222380D01*
X207795714Y-64270000D01*
X207748095Y-64317619D01*
X207700476Y-64412857D01*
X207700476Y-64650952D01*
X207748095Y-64746190D01*
X207795714Y-64793809D01*
X207890952Y-64841428D01*
X208081428Y-64841428D01*
X208176666Y-64793809D01*
X208224285Y-64746190D01*
X208271904Y-64650952D01*
G04 #@! TO.C,R15*
X174109142Y-118690380D02*
X173775809Y-118214190D01*
X173537714Y-118690380D02*
X173537714Y-117690380D01*
X173918666Y-117690380D01*
X174013904Y-117738000D01*
X174061523Y-117785619D01*
X174109142Y-117880857D01*
X174109142Y-118023714D01*
X174061523Y-118118952D01*
X174013904Y-118166571D01*
X173918666Y-118214190D01*
X173537714Y-118214190D01*
X175061523Y-118690380D02*
X174490095Y-118690380D01*
X174775809Y-118690380D02*
X174775809Y-117690380D01*
X174680571Y-117833238D01*
X174585333Y-117928476D01*
X174490095Y-117976095D01*
X175966285Y-117690380D02*
X175490095Y-117690380D01*
X175442476Y-118166571D01*
X175490095Y-118118952D01*
X175585333Y-118071333D01*
X175823428Y-118071333D01*
X175918666Y-118118952D01*
X175966285Y-118166571D01*
X176013904Y-118261809D01*
X176013904Y-118499904D01*
X175966285Y-118595142D01*
X175918666Y-118642761D01*
X175823428Y-118690380D01*
X175585333Y-118690380D01*
X175490095Y-118642761D01*
X175442476Y-118595142D01*
G04 #@! TO.C,R28*
X124325142Y-119198380D02*
X123991809Y-118722190D01*
X123753714Y-119198380D02*
X123753714Y-118198380D01*
X124134666Y-118198380D01*
X124229904Y-118246000D01*
X124277523Y-118293619D01*
X124325142Y-118388857D01*
X124325142Y-118531714D01*
X124277523Y-118626952D01*
X124229904Y-118674571D01*
X124134666Y-118722190D01*
X123753714Y-118722190D01*
X124706095Y-118293619D02*
X124753714Y-118246000D01*
X124848952Y-118198380D01*
X125087047Y-118198380D01*
X125182285Y-118246000D01*
X125229904Y-118293619D01*
X125277523Y-118388857D01*
X125277523Y-118484095D01*
X125229904Y-118626952D01*
X124658476Y-119198380D01*
X125277523Y-119198380D01*
X125848952Y-118626952D02*
X125753714Y-118579333D01*
X125706095Y-118531714D01*
X125658476Y-118436476D01*
X125658476Y-118388857D01*
X125706095Y-118293619D01*
X125753714Y-118246000D01*
X125848952Y-118198380D01*
X126039428Y-118198380D01*
X126134666Y-118246000D01*
X126182285Y-118293619D01*
X126229904Y-118388857D01*
X126229904Y-118436476D01*
X126182285Y-118531714D01*
X126134666Y-118579333D01*
X126039428Y-118626952D01*
X125848952Y-118626952D01*
X125753714Y-118674571D01*
X125706095Y-118722190D01*
X125658476Y-118817428D01*
X125658476Y-119007904D01*
X125706095Y-119103142D01*
X125753714Y-119150761D01*
X125848952Y-119198380D01*
X126039428Y-119198380D01*
X126134666Y-119150761D01*
X126182285Y-119103142D01*
X126229904Y-119007904D01*
X126229904Y-118817428D01*
X126182285Y-118722190D01*
X126134666Y-118674571D01*
X126039428Y-118626952D01*
G04 #@! TO.C,R3*
X155281333Y-83130380D02*
X154948000Y-82654190D01*
X154709904Y-83130380D02*
X154709904Y-82130380D01*
X155090857Y-82130380D01*
X155186095Y-82178000D01*
X155233714Y-82225619D01*
X155281333Y-82320857D01*
X155281333Y-82463714D01*
X155233714Y-82558952D01*
X155186095Y-82606571D01*
X155090857Y-82654190D01*
X154709904Y-82654190D01*
X155614666Y-82130380D02*
X156233714Y-82130380D01*
X155900380Y-82511333D01*
X156043238Y-82511333D01*
X156138476Y-82558952D01*
X156186095Y-82606571D01*
X156233714Y-82701809D01*
X156233714Y-82939904D01*
X156186095Y-83035142D01*
X156138476Y-83082761D01*
X156043238Y-83130380D01*
X155757523Y-83130380D01*
X155662285Y-83082761D01*
X155614666Y-83035142D01*
G04 #@! TO.C,R1*
X151217333Y-83130380D02*
X150884000Y-82654190D01*
X150645904Y-83130380D02*
X150645904Y-82130380D01*
X151026857Y-82130380D01*
X151122095Y-82178000D01*
X151169714Y-82225619D01*
X151217333Y-82320857D01*
X151217333Y-82463714D01*
X151169714Y-82558952D01*
X151122095Y-82606571D01*
X151026857Y-82654190D01*
X150645904Y-82654190D01*
X152169714Y-83130380D02*
X151598285Y-83130380D01*
X151884000Y-83130380D02*
X151884000Y-82130380D01*
X151788761Y-82273238D01*
X151693523Y-82368476D01*
X151598285Y-82416095D01*
G04 #@! TO.C,R2*
X147351334Y-83127341D02*
X147018001Y-82651151D01*
X146779905Y-83127341D02*
X146779905Y-82127341D01*
X147160858Y-82127341D01*
X147256096Y-82174961D01*
X147303715Y-82222580D01*
X147351334Y-82317818D01*
X147351334Y-82460675D01*
X147303715Y-82555913D01*
X147256096Y-82603532D01*
X147160858Y-82651151D01*
X146779905Y-82651151D01*
X147732286Y-82222580D02*
X147779905Y-82174961D01*
X147875143Y-82127341D01*
X148113239Y-82127341D01*
X148208477Y-82174961D01*
X148256096Y-82222580D01*
X148303715Y-82317818D01*
X148303715Y-82413056D01*
X148256096Y-82555913D01*
X147684667Y-83127341D01*
X148303715Y-83127341D01*
G04 #@! TO.C,R4*
X155281333Y-74746380D02*
X154948000Y-74270190D01*
X154709904Y-74746380D02*
X154709904Y-73746380D01*
X155090857Y-73746380D01*
X155186095Y-73794000D01*
X155233714Y-73841619D01*
X155281333Y-73936857D01*
X155281333Y-74079714D01*
X155233714Y-74174952D01*
X155186095Y-74222571D01*
X155090857Y-74270190D01*
X154709904Y-74270190D01*
X156138476Y-74079714D02*
X156138476Y-74746380D01*
X155900380Y-73698761D02*
X155662285Y-74413047D01*
X156281333Y-74413047D01*
G04 #@! TO.C,R8*
X195652380Y-77636666D02*
X195176190Y-77970000D01*
X195652380Y-78208095D02*
X194652380Y-78208095D01*
X194652380Y-77827142D01*
X194700000Y-77731904D01*
X194747619Y-77684285D01*
X194842857Y-77636666D01*
X194985714Y-77636666D01*
X195080952Y-77684285D01*
X195128571Y-77731904D01*
X195176190Y-77827142D01*
X195176190Y-78208095D01*
X195080952Y-77065238D02*
X195033333Y-77160476D01*
X194985714Y-77208095D01*
X194890476Y-77255714D01*
X194842857Y-77255714D01*
X194747619Y-77208095D01*
X194700000Y-77160476D01*
X194652380Y-77065238D01*
X194652380Y-76874761D01*
X194700000Y-76779523D01*
X194747619Y-76731904D01*
X194842857Y-76684285D01*
X194890476Y-76684285D01*
X194985714Y-76731904D01*
X195033333Y-76779523D01*
X195080952Y-76874761D01*
X195080952Y-77065238D01*
X195128571Y-77160476D01*
X195176190Y-77208095D01*
X195271428Y-77255714D01*
X195461904Y-77255714D01*
X195557142Y-77208095D01*
X195604761Y-77160476D01*
X195652380Y-77065238D01*
X195652380Y-76874761D01*
X195604761Y-76779523D01*
X195557142Y-76731904D01*
X195461904Y-76684285D01*
X195271428Y-76684285D01*
X195176190Y-76731904D01*
X195128571Y-76779523D01*
X195080952Y-76874761D01*
G04 #@! TO.C,R21*
X195652380Y-81922857D02*
X195176190Y-82256190D01*
X195652380Y-82494285D02*
X194652380Y-82494285D01*
X194652380Y-82113333D01*
X194700000Y-82018095D01*
X194747619Y-81970476D01*
X194842857Y-81922857D01*
X194985714Y-81922857D01*
X195080952Y-81970476D01*
X195128571Y-82018095D01*
X195176190Y-82113333D01*
X195176190Y-82494285D01*
X194747619Y-81541904D02*
X194700000Y-81494285D01*
X194652380Y-81399047D01*
X194652380Y-81160952D01*
X194700000Y-81065714D01*
X194747619Y-81018095D01*
X194842857Y-80970476D01*
X194938095Y-80970476D01*
X195080952Y-81018095D01*
X195652380Y-81589523D01*
X195652380Y-80970476D01*
X195652380Y-80018095D02*
X195652380Y-80589523D01*
X195652380Y-80303809D02*
X194652380Y-80303809D01*
X194795238Y-80399047D01*
X194890476Y-80494285D01*
X194938095Y-80589523D01*
G04 #@! TO.C,C23*
X200017142Y-83797142D02*
X199969523Y-83844761D01*
X199826666Y-83892380D01*
X199731428Y-83892380D01*
X199588571Y-83844761D01*
X199493333Y-83749523D01*
X199445714Y-83654285D01*
X199398095Y-83463809D01*
X199398095Y-83320952D01*
X199445714Y-83130476D01*
X199493333Y-83035238D01*
X199588571Y-82940000D01*
X199731428Y-82892380D01*
X199826666Y-82892380D01*
X199969523Y-82940000D01*
X200017142Y-82987619D01*
X200398095Y-82987619D02*
X200445714Y-82940000D01*
X200540952Y-82892380D01*
X200779047Y-82892380D01*
X200874285Y-82940000D01*
X200921904Y-82987619D01*
X200969523Y-83082857D01*
X200969523Y-83178095D01*
X200921904Y-83320952D01*
X200350476Y-83892380D01*
X200969523Y-83892380D01*
X201302857Y-82892380D02*
X201921904Y-82892380D01*
X201588571Y-83273333D01*
X201731428Y-83273333D01*
X201826666Y-83320952D01*
X201874285Y-83368571D01*
X201921904Y-83463809D01*
X201921904Y-83701904D01*
X201874285Y-83797142D01*
X201826666Y-83844761D01*
X201731428Y-83892380D01*
X201445714Y-83892380D01*
X201350476Y-83844761D01*
X201302857Y-83797142D01*
G04 #@! TO.C,C22*
X187317142Y-83797142D02*
X187269523Y-83844761D01*
X187126666Y-83892380D01*
X187031428Y-83892380D01*
X186888571Y-83844761D01*
X186793333Y-83749523D01*
X186745714Y-83654285D01*
X186698095Y-83463809D01*
X186698095Y-83320952D01*
X186745714Y-83130476D01*
X186793333Y-83035238D01*
X186888571Y-82940000D01*
X187031428Y-82892380D01*
X187126666Y-82892380D01*
X187269523Y-82940000D01*
X187317142Y-82987619D01*
X187698095Y-82987619D02*
X187745714Y-82940000D01*
X187840952Y-82892380D01*
X188079047Y-82892380D01*
X188174285Y-82940000D01*
X188221904Y-82987619D01*
X188269523Y-83082857D01*
X188269523Y-83178095D01*
X188221904Y-83320952D01*
X187650476Y-83892380D01*
X188269523Y-83892380D01*
X188650476Y-82987619D02*
X188698095Y-82940000D01*
X188793333Y-82892380D01*
X189031428Y-82892380D01*
X189126666Y-82940000D01*
X189174285Y-82987619D01*
X189221904Y-83082857D01*
X189221904Y-83178095D01*
X189174285Y-83320952D01*
X188602857Y-83892380D01*
X189221904Y-83892380D01*
G04 #@! TO.C,C21*
X204159642Y-83797142D02*
X204112023Y-83844761D01*
X203969166Y-83892380D01*
X203873928Y-83892380D01*
X203731071Y-83844761D01*
X203635833Y-83749523D01*
X203588214Y-83654285D01*
X203540595Y-83463809D01*
X203540595Y-83320952D01*
X203588214Y-83130476D01*
X203635833Y-83035238D01*
X203731071Y-82940000D01*
X203873928Y-82892380D01*
X203969166Y-82892380D01*
X204112023Y-82940000D01*
X204159642Y-82987619D01*
X204540595Y-82987619D02*
X204588214Y-82940000D01*
X204683452Y-82892380D01*
X204921547Y-82892380D01*
X205016785Y-82940000D01*
X205064404Y-82987619D01*
X205112023Y-83082857D01*
X205112023Y-83178095D01*
X205064404Y-83320952D01*
X204492976Y-83892380D01*
X205112023Y-83892380D01*
X206064404Y-83892380D02*
X205492976Y-83892380D01*
X205778690Y-83892380D02*
X205778690Y-82892380D01*
X205683452Y-83035238D01*
X205588214Y-83130476D01*
X205492976Y-83178095D01*
G04 #@! TO.C,C20*
X191459642Y-83797142D02*
X191412023Y-83844761D01*
X191269166Y-83892380D01*
X191173928Y-83892380D01*
X191031071Y-83844761D01*
X190935833Y-83749523D01*
X190888214Y-83654285D01*
X190840595Y-83463809D01*
X190840595Y-83320952D01*
X190888214Y-83130476D01*
X190935833Y-83035238D01*
X191031071Y-82940000D01*
X191173928Y-82892380D01*
X191269166Y-82892380D01*
X191412023Y-82940000D01*
X191459642Y-82987619D01*
X191840595Y-82987619D02*
X191888214Y-82940000D01*
X191983452Y-82892380D01*
X192221547Y-82892380D01*
X192316785Y-82940000D01*
X192364404Y-82987619D01*
X192412023Y-83082857D01*
X192412023Y-83178095D01*
X192364404Y-83320952D01*
X191792976Y-83892380D01*
X192412023Y-83892380D01*
X193031071Y-82892380D02*
X193126309Y-82892380D01*
X193221547Y-82940000D01*
X193269166Y-82987619D01*
X193316785Y-83082857D01*
X193364404Y-83273333D01*
X193364404Y-83511428D01*
X193316785Y-83701904D01*
X193269166Y-83797142D01*
X193221547Y-83844761D01*
X193126309Y-83892380D01*
X193031071Y-83892380D01*
X192935833Y-83844761D01*
X192888214Y-83797142D01*
X192840595Y-83701904D01*
X192792976Y-83511428D01*
X192792976Y-83273333D01*
X192840595Y-83082857D01*
X192888214Y-82987619D01*
X192935833Y-82940000D01*
X193031071Y-82892380D01*
G04 #@! TO.C,U6*
X185452380Y-78231904D02*
X186261904Y-78231904D01*
X186357142Y-78184285D01*
X186404761Y-78136666D01*
X186452380Y-78041428D01*
X186452380Y-77850952D01*
X186404761Y-77755714D01*
X186357142Y-77708095D01*
X186261904Y-77660476D01*
X185452380Y-77660476D01*
X185452380Y-76755714D02*
X185452380Y-76946190D01*
X185500000Y-77041428D01*
X185547619Y-77089047D01*
X185690476Y-77184285D01*
X185880952Y-77231904D01*
X186261904Y-77231904D01*
X186357142Y-77184285D01*
X186404761Y-77136666D01*
X186452380Y-77041428D01*
X186452380Y-76850952D01*
X186404761Y-76755714D01*
X186357142Y-76708095D01*
X186261904Y-76660476D01*
X186023809Y-76660476D01*
X185928571Y-76708095D01*
X185880952Y-76755714D01*
X185833333Y-76850952D01*
X185833333Y-77041428D01*
X185880952Y-77136666D01*
X185928571Y-77184285D01*
X186023809Y-77231904D01*
G04 #@! TO.C,U7*
X198152380Y-78231904D02*
X198961904Y-78231904D01*
X199057142Y-78184285D01*
X199104761Y-78136666D01*
X199152380Y-78041428D01*
X199152380Y-77850952D01*
X199104761Y-77755714D01*
X199057142Y-77708095D01*
X198961904Y-77660476D01*
X198152380Y-77660476D01*
X198152380Y-77279523D02*
X198152380Y-76612857D01*
X199152380Y-77041428D01*
G04 #@! TO.C,D12*
X205795714Y-68524380D02*
X205795714Y-67524380D01*
X206033809Y-67524380D01*
X206176666Y-67572000D01*
X206271904Y-67667238D01*
X206319523Y-67762476D01*
X206367142Y-67952952D01*
X206367142Y-68095809D01*
X206319523Y-68286285D01*
X206271904Y-68381523D01*
X206176666Y-68476761D01*
X206033809Y-68524380D01*
X205795714Y-68524380D01*
X207319523Y-68524380D02*
X206748095Y-68524380D01*
X207033809Y-68524380D02*
X207033809Y-67524380D01*
X206938571Y-67667238D01*
X206843333Y-67762476D01*
X206748095Y-67810095D01*
X207700476Y-67619619D02*
X207748095Y-67572000D01*
X207843333Y-67524380D01*
X208081428Y-67524380D01*
X208176666Y-67572000D01*
X208224285Y-67619619D01*
X208271904Y-67714857D01*
X208271904Y-67810095D01*
X208224285Y-67952952D01*
X207652857Y-68524380D01*
X208271904Y-68524380D01*
X201223809Y-71064380D02*
X201223809Y-70064380D01*
X201604761Y-70064380D01*
X201700000Y-70112000D01*
X201747619Y-70159619D01*
X201795238Y-70254857D01*
X201795238Y-70397714D01*
X201747619Y-70492952D01*
X201700000Y-70540571D01*
X201604761Y-70588190D01*
X201223809Y-70588190D01*
X202366666Y-71064380D02*
X202271428Y-71016761D01*
X202223809Y-70969142D01*
X202176190Y-70873904D01*
X202176190Y-70588190D01*
X202223809Y-70492952D01*
X202271428Y-70445333D01*
X202366666Y-70397714D01*
X202509523Y-70397714D01*
X202604761Y-70445333D01*
X202652380Y-70492952D01*
X202700000Y-70588190D01*
X202700000Y-70873904D01*
X202652380Y-70969142D01*
X202604761Y-71016761D01*
X202509523Y-71064380D01*
X202366666Y-71064380D01*
X203033333Y-70397714D02*
X203223809Y-71064380D01*
X203414285Y-70588190D01*
X203604761Y-71064380D01*
X203795238Y-70397714D01*
X204557142Y-71016761D02*
X204461904Y-71064380D01*
X204271428Y-71064380D01*
X204176190Y-71016761D01*
X204128571Y-70921523D01*
X204128571Y-70540571D01*
X204176190Y-70445333D01*
X204271428Y-70397714D01*
X204461904Y-70397714D01*
X204557142Y-70445333D01*
X204604761Y-70540571D01*
X204604761Y-70635809D01*
X204128571Y-70731047D01*
X205033333Y-71064380D02*
X205033333Y-70397714D01*
X205033333Y-70588190D02*
X205080952Y-70492952D01*
X205128571Y-70445333D01*
X205223809Y-70397714D01*
X205319047Y-70397714D01*
G04 #@! TO.C,D6*
X151074380Y-90146095D02*
X150074380Y-90146095D01*
X150074380Y-89908000D01*
X150122000Y-89765142D01*
X150217238Y-89669904D01*
X150312476Y-89622285D01*
X150502952Y-89574666D01*
X150645809Y-89574666D01*
X150836285Y-89622285D01*
X150931523Y-89669904D01*
X151026761Y-89765142D01*
X151074380Y-89908000D01*
X151074380Y-90146095D01*
X150074380Y-88717523D02*
X150074380Y-88908000D01*
X150122000Y-89003238D01*
X150169619Y-89050857D01*
X150312476Y-89146095D01*
X150502952Y-89193714D01*
X150883904Y-89193714D01*
X150979142Y-89146095D01*
X151026761Y-89098476D01*
X151074380Y-89003238D01*
X151074380Y-88812761D01*
X151026761Y-88717523D01*
X150979142Y-88669904D01*
X150883904Y-88622285D01*
X150645809Y-88622285D01*
X150550571Y-88669904D01*
X150502952Y-88717523D01*
X150455333Y-88812761D01*
X150455333Y-89003238D01*
X150502952Y-89098476D01*
X150550571Y-89146095D01*
X150645809Y-89193714D01*
G04 #@! TO.C,D7*
X165425380Y-90146095D02*
X164425380Y-90146095D01*
X164425380Y-89908000D01*
X164473000Y-89765142D01*
X164568238Y-89669904D01*
X164663476Y-89622285D01*
X164853952Y-89574666D01*
X164996809Y-89574666D01*
X165187285Y-89622285D01*
X165282523Y-89669904D01*
X165377761Y-89765142D01*
X165425380Y-89908000D01*
X165425380Y-90146095D01*
X164425380Y-89241333D02*
X164425380Y-88574666D01*
X165425380Y-89003238D01*
G04 #@! TO.C,D5*
X158186380Y-90146095D02*
X157186380Y-90146095D01*
X157186380Y-89908000D01*
X157234000Y-89765142D01*
X157329238Y-89669904D01*
X157424476Y-89622285D01*
X157614952Y-89574666D01*
X157757809Y-89574666D01*
X157948285Y-89622285D01*
X158043523Y-89669904D01*
X158138761Y-89765142D01*
X158186380Y-89908000D01*
X158186380Y-90146095D01*
X157186380Y-88669904D02*
X157186380Y-89146095D01*
X157662571Y-89193714D01*
X157614952Y-89146095D01*
X157567333Y-89050857D01*
X157567333Y-88812761D01*
X157614952Y-88717523D01*
X157662571Y-88669904D01*
X157757809Y-88622285D01*
X157995904Y-88622285D01*
X158091142Y-88669904D01*
X158138761Y-88717523D01*
X158186380Y-88812761D01*
X158186380Y-89050857D01*
X158138761Y-89146095D01*
X158091142Y-89193714D01*
G04 #@! TO.C,D4*
X161869380Y-90146095D02*
X160869380Y-90146095D01*
X160869380Y-89908000D01*
X160917000Y-89765142D01*
X161012238Y-89669904D01*
X161107476Y-89622285D01*
X161297952Y-89574666D01*
X161440809Y-89574666D01*
X161631285Y-89622285D01*
X161726523Y-89669904D01*
X161821761Y-89765142D01*
X161869380Y-89908000D01*
X161869380Y-90146095D01*
X161202714Y-88717523D02*
X161869380Y-88717523D01*
X160821761Y-88955619D02*
X161536047Y-89193714D01*
X161536047Y-88574666D01*
G04 #@! TO.C,D3*
X147518380Y-90146095D02*
X146518380Y-90146095D01*
X146518380Y-89908000D01*
X146566000Y-89765142D01*
X146661238Y-89669904D01*
X146756476Y-89622285D01*
X146946952Y-89574666D01*
X147089809Y-89574666D01*
X147280285Y-89622285D01*
X147375523Y-89669904D01*
X147470761Y-89765142D01*
X147518380Y-89908000D01*
X147518380Y-90146095D01*
X146518380Y-89241333D02*
X146518380Y-88622285D01*
X146899333Y-88955619D01*
X146899333Y-88812761D01*
X146946952Y-88717523D01*
X146994571Y-88669904D01*
X147089809Y-88622285D01*
X147327904Y-88622285D01*
X147423142Y-88669904D01*
X147470761Y-88717523D01*
X147518380Y-88812761D01*
X147518380Y-89098476D01*
X147470761Y-89193714D01*
X147423142Y-89241333D01*
G04 #@! TO.C,D2*
X154630380Y-90146095D02*
X153630380Y-90146095D01*
X153630380Y-89908000D01*
X153678000Y-89765142D01*
X153773238Y-89669904D01*
X153868476Y-89622285D01*
X154058952Y-89574666D01*
X154201809Y-89574666D01*
X154392285Y-89622285D01*
X154487523Y-89669904D01*
X154582761Y-89765142D01*
X154630380Y-89908000D01*
X154630380Y-90146095D01*
X153725619Y-89193714D02*
X153678000Y-89146095D01*
X153630380Y-89050857D01*
X153630380Y-88812761D01*
X153678000Y-88717523D01*
X153725619Y-88669904D01*
X153820857Y-88622285D01*
X153916095Y-88622285D01*
X154058952Y-88669904D01*
X154630380Y-89241333D01*
X154630380Y-88622285D01*
G04 #@! TO.C,D1*
X125753904Y-84812380D02*
X125753904Y-83812380D01*
X125992000Y-83812380D01*
X126134857Y-83860000D01*
X126230095Y-83955238D01*
X126277714Y-84050476D01*
X126325333Y-84240952D01*
X126325333Y-84383809D01*
X126277714Y-84574285D01*
X126230095Y-84669523D01*
X126134857Y-84764761D01*
X125992000Y-84812380D01*
X125753904Y-84812380D01*
X127277714Y-84812380D02*
X126706285Y-84812380D01*
X126992000Y-84812380D02*
X126992000Y-83812380D01*
X126896761Y-83955238D01*
X126801523Y-84050476D01*
X126706285Y-84098095D01*
G04 #@! TO.C,U5*
X167390380Y-103885904D02*
X168199904Y-103885904D01*
X168295142Y-103838285D01*
X168342761Y-103790666D01*
X168390380Y-103695428D01*
X168390380Y-103504952D01*
X168342761Y-103409714D01*
X168295142Y-103362095D01*
X168199904Y-103314476D01*
X167390380Y-103314476D01*
X167390380Y-102362095D02*
X167390380Y-102838285D01*
X167866571Y-102885904D01*
X167818952Y-102838285D01*
X167771333Y-102743047D01*
X167771333Y-102504952D01*
X167818952Y-102409714D01*
X167866571Y-102362095D01*
X167961809Y-102314476D01*
X168199904Y-102314476D01*
X168295142Y-102362095D01*
X168342761Y-102409714D01*
X168390380Y-102504952D01*
X168390380Y-102743047D01*
X168342761Y-102838285D01*
X168295142Y-102885904D01*
G04 #@! TO.C,S5*
X109982095Y-98448761D02*
X110124952Y-98496380D01*
X110363047Y-98496380D01*
X110458285Y-98448761D01*
X110505904Y-98401142D01*
X110553523Y-98305904D01*
X110553523Y-98210666D01*
X110505904Y-98115428D01*
X110458285Y-98067809D01*
X110363047Y-98020190D01*
X110172571Y-97972571D01*
X110077333Y-97924952D01*
X110029714Y-97877333D01*
X109982095Y-97782095D01*
X109982095Y-97686857D01*
X110029714Y-97591619D01*
X110077333Y-97544000D01*
X110172571Y-97496380D01*
X110410666Y-97496380D01*
X110553523Y-97544000D01*
X111458285Y-97496380D02*
X110982095Y-97496380D01*
X110934476Y-97972571D01*
X110982095Y-97924952D01*
X111077333Y-97877333D01*
X111315428Y-97877333D01*
X111410666Y-97924952D01*
X111458285Y-97972571D01*
X111505904Y-98067809D01*
X111505904Y-98305904D01*
X111458285Y-98401142D01*
X111410666Y-98448761D01*
X111315428Y-98496380D01*
X111077333Y-98496380D01*
X110982095Y-98448761D01*
X110934476Y-98401142D01*
X112227333Y-101350666D02*
X112703523Y-101350666D01*
X112132095Y-101636380D02*
X112465428Y-100636380D01*
X112798761Y-101636380D01*
X113560666Y-100969714D02*
X113560666Y-101636380D01*
X113132095Y-100969714D02*
X113132095Y-101493523D01*
X113179714Y-101588761D01*
X113274952Y-101636380D01*
X113417809Y-101636380D01*
X113513047Y-101588761D01*
X113560666Y-101541142D01*
X113894000Y-100969714D02*
X114274952Y-100969714D01*
X114036857Y-100636380D02*
X114036857Y-101493523D01*
X114084476Y-101588761D01*
X114179714Y-101636380D01*
X114274952Y-101636380D01*
X114751142Y-101636380D02*
X114655904Y-101588761D01*
X114608285Y-101541142D01*
X114560666Y-101445904D01*
X114560666Y-101160190D01*
X114608285Y-101064952D01*
X114655904Y-101017333D01*
X114751142Y-100969714D01*
X114894000Y-100969714D01*
X114989238Y-101017333D01*
X115036857Y-101064952D01*
X115084476Y-101160190D01*
X115084476Y-101445904D01*
X115036857Y-101541142D01*
X114989238Y-101588761D01*
X114894000Y-101636380D01*
X114751142Y-101636380D01*
X115465428Y-101588761D02*
X115560666Y-101636380D01*
X115751142Y-101636380D01*
X115846380Y-101588761D01*
X115894000Y-101493523D01*
X115894000Y-101445904D01*
X115846380Y-101350666D01*
X115751142Y-101303047D01*
X115608285Y-101303047D01*
X115513047Y-101255428D01*
X115465428Y-101160190D01*
X115465428Y-101112571D01*
X115513047Y-101017333D01*
X115608285Y-100969714D01*
X115751142Y-100969714D01*
X115846380Y-101017333D01*
X116179714Y-100969714D02*
X116560666Y-100969714D01*
X116322571Y-100636380D02*
X116322571Y-101493523D01*
X116370190Y-101588761D01*
X116465428Y-101636380D01*
X116560666Y-101636380D01*
X117322571Y-101636380D02*
X117322571Y-101112571D01*
X117274952Y-101017333D01*
X117179714Y-100969714D01*
X116989238Y-100969714D01*
X116894000Y-101017333D01*
X117322571Y-101588761D02*
X117227333Y-101636380D01*
X116989238Y-101636380D01*
X116894000Y-101588761D01*
X116846380Y-101493523D01*
X116846380Y-101398285D01*
X116894000Y-101303047D01*
X116989238Y-101255428D01*
X117227333Y-101255428D01*
X117322571Y-101207809D01*
X117798761Y-101636380D02*
X117798761Y-100969714D01*
X117798761Y-101160190D02*
X117846380Y-101064952D01*
X117894000Y-101017333D01*
X117989238Y-100969714D01*
X118084476Y-100969714D01*
X118274952Y-100969714D02*
X118655904Y-100969714D01*
X118417809Y-100636380D02*
X118417809Y-101493523D01*
X118465428Y-101588761D01*
X118560666Y-101636380D01*
X118655904Y-101636380D01*
G04 #@! TO.C,S2*
X109982095Y-75588761D02*
X110124952Y-75636380D01*
X110363047Y-75636380D01*
X110458285Y-75588761D01*
X110505904Y-75541142D01*
X110553523Y-75445904D01*
X110553523Y-75350666D01*
X110505904Y-75255428D01*
X110458285Y-75207809D01*
X110363047Y-75160190D01*
X110172571Y-75112571D01*
X110077333Y-75064952D01*
X110029714Y-75017333D01*
X109982095Y-74922095D01*
X109982095Y-74826857D01*
X110029714Y-74731619D01*
X110077333Y-74684000D01*
X110172571Y-74636380D01*
X110410666Y-74636380D01*
X110553523Y-74684000D01*
X110934476Y-74731619D02*
X110982095Y-74684000D01*
X111077333Y-74636380D01*
X111315428Y-74636380D01*
X111410666Y-74684000D01*
X111458285Y-74731619D01*
X111505904Y-74826857D01*
X111505904Y-74922095D01*
X111458285Y-75064952D01*
X110886857Y-75636380D01*
X111505904Y-75636380D01*
X111941619Y-78252571D02*
X112084476Y-78300190D01*
X112132095Y-78347809D01*
X112179714Y-78443047D01*
X112179714Y-78585904D01*
X112132095Y-78681142D01*
X112084476Y-78728761D01*
X111989238Y-78776380D01*
X111608285Y-78776380D01*
X111608285Y-77776380D01*
X111941619Y-77776380D01*
X112036857Y-77824000D01*
X112084476Y-77871619D01*
X112132095Y-77966857D01*
X112132095Y-78062095D01*
X112084476Y-78157333D01*
X112036857Y-78204952D01*
X111941619Y-78252571D01*
X111608285Y-78252571D01*
X113036857Y-78776380D02*
X113036857Y-78252571D01*
X112989238Y-78157333D01*
X112894000Y-78109714D01*
X112703523Y-78109714D01*
X112608285Y-78157333D01*
X113036857Y-78728761D02*
X112941619Y-78776380D01*
X112703523Y-78776380D01*
X112608285Y-78728761D01*
X112560666Y-78633523D01*
X112560666Y-78538285D01*
X112608285Y-78443047D01*
X112703523Y-78395428D01*
X112941619Y-78395428D01*
X113036857Y-78347809D01*
X113655904Y-78776380D02*
X113560666Y-78728761D01*
X113513047Y-78633523D01*
X113513047Y-77776380D01*
X114179714Y-78776380D02*
X114084476Y-78728761D01*
X114036857Y-78633523D01*
X114036857Y-77776380D01*
X115274952Y-78728761D02*
X115370190Y-78776380D01*
X115560666Y-78776380D01*
X115655904Y-78728761D01*
X115703523Y-78633523D01*
X115703523Y-78585904D01*
X115655904Y-78490666D01*
X115560666Y-78443047D01*
X115417809Y-78443047D01*
X115322571Y-78395428D01*
X115274952Y-78300190D01*
X115274952Y-78252571D01*
X115322571Y-78157333D01*
X115417809Y-78109714D01*
X115560666Y-78109714D01*
X115655904Y-78157333D01*
X116132095Y-78109714D02*
X116132095Y-79109714D01*
X116132095Y-78157333D02*
X116227333Y-78109714D01*
X116417809Y-78109714D01*
X116513047Y-78157333D01*
X116560666Y-78204952D01*
X116608285Y-78300190D01*
X116608285Y-78585904D01*
X116560666Y-78681142D01*
X116513047Y-78728761D01*
X116417809Y-78776380D01*
X116227333Y-78776380D01*
X116132095Y-78728761D01*
X117417809Y-78728761D02*
X117322571Y-78776380D01*
X117132095Y-78776380D01*
X117036857Y-78728761D01*
X116989238Y-78633523D01*
X116989238Y-78252571D01*
X117036857Y-78157333D01*
X117132095Y-78109714D01*
X117322571Y-78109714D01*
X117417809Y-78157333D01*
X117465428Y-78252571D01*
X117465428Y-78347809D01*
X116989238Y-78443047D01*
X118274952Y-78728761D02*
X118179714Y-78776380D01*
X117989238Y-78776380D01*
X117894000Y-78728761D01*
X117846380Y-78633523D01*
X117846380Y-78252571D01*
X117894000Y-78157333D01*
X117989238Y-78109714D01*
X118179714Y-78109714D01*
X118274952Y-78157333D01*
X118322571Y-78252571D01*
X118322571Y-78347809D01*
X117846380Y-78443047D01*
X119179714Y-78776380D02*
X119179714Y-77776380D01*
X119179714Y-78728761D02*
X119084476Y-78776380D01*
X118894000Y-78776380D01*
X118798761Y-78728761D01*
X118751142Y-78681142D01*
X118703523Y-78585904D01*
X118703523Y-78300190D01*
X118751142Y-78204952D01*
X118798761Y-78157333D01*
X118894000Y-78109714D01*
X119084476Y-78109714D01*
X119179714Y-78157333D01*
G04 #@! TO.C,S3*
X109982095Y-83208761D02*
X110124952Y-83256380D01*
X110363047Y-83256380D01*
X110458285Y-83208761D01*
X110505904Y-83161142D01*
X110553523Y-83065904D01*
X110553523Y-82970666D01*
X110505904Y-82875428D01*
X110458285Y-82827809D01*
X110363047Y-82780190D01*
X110172571Y-82732571D01*
X110077333Y-82684952D01*
X110029714Y-82637333D01*
X109982095Y-82542095D01*
X109982095Y-82446857D01*
X110029714Y-82351619D01*
X110077333Y-82304000D01*
X110172571Y-82256380D01*
X110410666Y-82256380D01*
X110553523Y-82304000D01*
X110886857Y-82256380D02*
X111505904Y-82256380D01*
X111172571Y-82637333D01*
X111315428Y-82637333D01*
X111410666Y-82684952D01*
X111458285Y-82732571D01*
X111505904Y-82827809D01*
X111505904Y-83065904D01*
X111458285Y-83161142D01*
X111410666Y-83208761D01*
X111315428Y-83256380D01*
X111029714Y-83256380D01*
X110934476Y-83208761D01*
X110886857Y-83161142D01*
X112060666Y-85872571D02*
X112203523Y-85920190D01*
X112251142Y-85967809D01*
X112298761Y-86063047D01*
X112298761Y-86205904D01*
X112251142Y-86301142D01*
X112203523Y-86348761D01*
X112108285Y-86396380D01*
X111727333Y-86396380D01*
X111727333Y-85396380D01*
X112060666Y-85396380D01*
X112155904Y-85444000D01*
X112203523Y-85491619D01*
X112251142Y-85586857D01*
X112251142Y-85682095D01*
X112203523Y-85777333D01*
X112155904Y-85824952D01*
X112060666Y-85872571D01*
X111727333Y-85872571D01*
X113155904Y-86396380D02*
X113155904Y-85872571D01*
X113108285Y-85777333D01*
X113013047Y-85729714D01*
X112822571Y-85729714D01*
X112727333Y-85777333D01*
X113155904Y-86348761D02*
X113060666Y-86396380D01*
X112822571Y-86396380D01*
X112727333Y-86348761D01*
X112679714Y-86253523D01*
X112679714Y-86158285D01*
X112727333Y-86063047D01*
X112822571Y-86015428D01*
X113060666Y-86015428D01*
X113155904Y-85967809D01*
X113774952Y-86396380D02*
X113679714Y-86348761D01*
X113632095Y-86253523D01*
X113632095Y-85396380D01*
X114298761Y-86396380D02*
X114203523Y-86348761D01*
X114155904Y-86253523D01*
X114155904Y-85396380D01*
X115870190Y-86396380D02*
X115870190Y-85872571D01*
X115822571Y-85777333D01*
X115727333Y-85729714D01*
X115536857Y-85729714D01*
X115441619Y-85777333D01*
X115870190Y-86348761D02*
X115774952Y-86396380D01*
X115536857Y-86396380D01*
X115441619Y-86348761D01*
X115394000Y-86253523D01*
X115394000Y-86158285D01*
X115441619Y-86063047D01*
X115536857Y-86015428D01*
X115774952Y-86015428D01*
X115870190Y-85967809D01*
X116346380Y-85729714D02*
X116346380Y-86396380D01*
X116346380Y-85824952D02*
X116394000Y-85777333D01*
X116489238Y-85729714D01*
X116632095Y-85729714D01*
X116727333Y-85777333D01*
X116774952Y-85872571D01*
X116774952Y-86396380D01*
X117679714Y-85729714D02*
X117679714Y-86539238D01*
X117632095Y-86634476D01*
X117584476Y-86682095D01*
X117489238Y-86729714D01*
X117346380Y-86729714D01*
X117251142Y-86682095D01*
X117679714Y-86348761D02*
X117584476Y-86396380D01*
X117394000Y-86396380D01*
X117298761Y-86348761D01*
X117251142Y-86301142D01*
X117203523Y-86205904D01*
X117203523Y-85920190D01*
X117251142Y-85824952D01*
X117298761Y-85777333D01*
X117394000Y-85729714D01*
X117584476Y-85729714D01*
X117679714Y-85777333D01*
X118298761Y-86396380D02*
X118203523Y-86348761D01*
X118155904Y-86253523D01*
X118155904Y-85396380D01*
X119060666Y-86348761D02*
X118965428Y-86396380D01*
X118774952Y-86396380D01*
X118679714Y-86348761D01*
X118632095Y-86253523D01*
X118632095Y-85872571D01*
X118679714Y-85777333D01*
X118774952Y-85729714D01*
X118965428Y-85729714D01*
X119060666Y-85777333D01*
X119108285Y-85872571D01*
X119108285Y-85967809D01*
X118632095Y-86063047D01*
G04 #@! TO.C,S4*
X109982095Y-90828761D02*
X110124952Y-90876380D01*
X110363047Y-90876380D01*
X110458285Y-90828761D01*
X110505904Y-90781142D01*
X110553523Y-90685904D01*
X110553523Y-90590666D01*
X110505904Y-90495428D01*
X110458285Y-90447809D01*
X110363047Y-90400190D01*
X110172571Y-90352571D01*
X110077333Y-90304952D01*
X110029714Y-90257333D01*
X109982095Y-90162095D01*
X109982095Y-90066857D01*
X110029714Y-89971619D01*
X110077333Y-89924000D01*
X110172571Y-89876380D01*
X110410666Y-89876380D01*
X110553523Y-89924000D01*
X111410666Y-90209714D02*
X111410666Y-90876380D01*
X111172571Y-89828761D02*
X110934476Y-90543047D01*
X111553523Y-90543047D01*
X111870190Y-93492571D02*
X111536857Y-93492571D01*
X111536857Y-94016380D02*
X111536857Y-93016380D01*
X112013047Y-93016380D01*
X112394000Y-94016380D02*
X112394000Y-93349714D01*
X112394000Y-93016380D02*
X112346380Y-93064000D01*
X112394000Y-93111619D01*
X112441619Y-93064000D01*
X112394000Y-93016380D01*
X112394000Y-93111619D01*
X113251142Y-93968761D02*
X113155904Y-94016380D01*
X112965428Y-94016380D01*
X112870190Y-93968761D01*
X112822571Y-93873523D01*
X112822571Y-93492571D01*
X112870190Y-93397333D01*
X112965428Y-93349714D01*
X113155904Y-93349714D01*
X113251142Y-93397333D01*
X113298761Y-93492571D01*
X113298761Y-93587809D01*
X112822571Y-93683047D01*
X113870190Y-94016380D02*
X113774952Y-93968761D01*
X113727333Y-93873523D01*
X113727333Y-93016380D01*
X114679714Y-94016380D02*
X114679714Y-93016380D01*
X114679714Y-93968761D02*
X114584476Y-94016380D01*
X114394000Y-94016380D01*
X114298761Y-93968761D01*
X114251142Y-93921142D01*
X114203523Y-93825904D01*
X114203523Y-93540190D01*
X114251142Y-93444952D01*
X114298761Y-93397333D01*
X114394000Y-93349714D01*
X114584476Y-93349714D01*
X114679714Y-93397333D01*
X116346380Y-93968761D02*
X116251142Y-94016380D01*
X116060666Y-94016380D01*
X115965428Y-93968761D01*
X115917809Y-93921142D01*
X115870190Y-93825904D01*
X115870190Y-93540190D01*
X115917809Y-93444952D01*
X115965428Y-93397333D01*
X116060666Y-93349714D01*
X116251142Y-93349714D01*
X116346380Y-93397333D01*
X116917809Y-94016380D02*
X116822571Y-93968761D01*
X116774952Y-93921142D01*
X116727333Y-93825904D01*
X116727333Y-93540190D01*
X116774952Y-93444952D01*
X116822571Y-93397333D01*
X116917809Y-93349714D01*
X117060666Y-93349714D01*
X117155904Y-93397333D01*
X117203523Y-93444952D01*
X117251142Y-93540190D01*
X117251142Y-93825904D01*
X117203523Y-93921142D01*
X117155904Y-93968761D01*
X117060666Y-94016380D01*
X116917809Y-94016380D01*
X117822571Y-94016380D02*
X117727333Y-93968761D01*
X117679714Y-93873523D01*
X117679714Y-93016380D01*
X118346380Y-94016380D02*
X118251142Y-93968761D01*
X118203523Y-93921142D01*
X118155904Y-93825904D01*
X118155904Y-93540190D01*
X118203523Y-93444952D01*
X118251142Y-93397333D01*
X118346380Y-93349714D01*
X118489238Y-93349714D01*
X118584476Y-93397333D01*
X118632095Y-93444952D01*
X118679714Y-93540190D01*
X118679714Y-93825904D01*
X118632095Y-93921142D01*
X118584476Y-93968761D01*
X118489238Y-94016380D01*
X118346380Y-94016380D01*
X119108285Y-94016380D02*
X119108285Y-93349714D01*
X119108285Y-93540190D02*
X119155904Y-93444952D01*
X119203523Y-93397333D01*
X119298761Y-93349714D01*
X119394000Y-93349714D01*
G04 #@! TO.C,S7*
X114554095Y-119276761D02*
X114696952Y-119324380D01*
X114935047Y-119324380D01*
X115030285Y-119276761D01*
X115077904Y-119229142D01*
X115125523Y-119133904D01*
X115125523Y-119038666D01*
X115077904Y-118943428D01*
X115030285Y-118895809D01*
X114935047Y-118848190D01*
X114744571Y-118800571D01*
X114649333Y-118752952D01*
X114601714Y-118705333D01*
X114554095Y-118610095D01*
X114554095Y-118514857D01*
X114601714Y-118419619D01*
X114649333Y-118372000D01*
X114744571Y-118324380D01*
X114982666Y-118324380D01*
X115125523Y-118372000D01*
X115458857Y-118324380D02*
X116125523Y-118324380D01*
X115696952Y-119324380D01*
X111995438Y-122918600D02*
X111900200Y-122870980D01*
X111757342Y-122870980D01*
X111614485Y-122918600D01*
X111519247Y-123013838D01*
X111471628Y-123109076D01*
X111424009Y-123299552D01*
X111424009Y-123442409D01*
X111471628Y-123632885D01*
X111519247Y-123728123D01*
X111614485Y-123823361D01*
X111757342Y-123870980D01*
X111852580Y-123870980D01*
X111995438Y-123823361D01*
X112043057Y-123775742D01*
X112043057Y-123442409D01*
X111852580Y-123442409D01*
X112900200Y-123870980D02*
X112900200Y-123347171D01*
X112852580Y-123251933D01*
X112757342Y-123204314D01*
X112566866Y-123204314D01*
X112471628Y-123251933D01*
X112900200Y-123823361D02*
X112804961Y-123870980D01*
X112566866Y-123870980D01*
X112471628Y-123823361D01*
X112424009Y-123728123D01*
X112424009Y-123632885D01*
X112471628Y-123537647D01*
X112566866Y-123490028D01*
X112804961Y-123490028D01*
X112900200Y-123442409D01*
X113376390Y-123870980D02*
X113376390Y-123204314D01*
X113376390Y-123299552D02*
X113424009Y-123251933D01*
X113519247Y-123204314D01*
X113662104Y-123204314D01*
X113757342Y-123251933D01*
X113804961Y-123347171D01*
X113804961Y-123870980D01*
X113804961Y-123347171D02*
X113852580Y-123251933D01*
X113947819Y-123204314D01*
X114090676Y-123204314D01*
X114185914Y-123251933D01*
X114233533Y-123347171D01*
X114233533Y-123870980D01*
X115090676Y-123823361D02*
X114995438Y-123870980D01*
X114804961Y-123870980D01*
X114709723Y-123823361D01*
X114662104Y-123728123D01*
X114662104Y-123347171D01*
X114709723Y-123251933D01*
X114804961Y-123204314D01*
X114995438Y-123204314D01*
X115090676Y-123251933D01*
X115138295Y-123347171D01*
X115138295Y-123442409D01*
X114662104Y-123537647D01*
X116281152Y-123823361D02*
X116376390Y-123870980D01*
X116566866Y-123870980D01*
X116662104Y-123823361D01*
X116709723Y-123728123D01*
X116709723Y-123680504D01*
X116662104Y-123585266D01*
X116566866Y-123537647D01*
X116424009Y-123537647D01*
X116328771Y-123490028D01*
X116281152Y-123394790D01*
X116281152Y-123347171D01*
X116328771Y-123251933D01*
X116424009Y-123204314D01*
X116566866Y-123204314D01*
X116662104Y-123251933D01*
X117519247Y-123823361D02*
X117424009Y-123870980D01*
X117233533Y-123870980D01*
X117138295Y-123823361D01*
X117090676Y-123728123D01*
X117090676Y-123347171D01*
X117138295Y-123251933D01*
X117233533Y-123204314D01*
X117424009Y-123204314D01*
X117519247Y-123251933D01*
X117566866Y-123347171D01*
X117566866Y-123442409D01*
X117090676Y-123537647D01*
X118138295Y-123870980D02*
X118043057Y-123823361D01*
X117995438Y-123728123D01*
X117995438Y-122870980D01*
X118900200Y-123823361D02*
X118804961Y-123870980D01*
X118614485Y-123870980D01*
X118519247Y-123823361D01*
X118471628Y-123728123D01*
X118471628Y-123347171D01*
X118519247Y-123251933D01*
X118614485Y-123204314D01*
X118804961Y-123204314D01*
X118900200Y-123251933D01*
X118947819Y-123347171D01*
X118947819Y-123442409D01*
X118471628Y-123537647D01*
X119804961Y-123823361D02*
X119709723Y-123870980D01*
X119519247Y-123870980D01*
X119424009Y-123823361D01*
X119376390Y-123775742D01*
X119328771Y-123680504D01*
X119328771Y-123394790D01*
X119376390Y-123299552D01*
X119424009Y-123251933D01*
X119519247Y-123204314D01*
X119709723Y-123204314D01*
X119804961Y-123251933D01*
X120090676Y-123204314D02*
X120471628Y-123204314D01*
X120233533Y-122870980D02*
X120233533Y-123728123D01*
X120281152Y-123823361D01*
X120376390Y-123870980D01*
X120471628Y-123870980D01*
G04 #@! TO.C,S6*
X114554095Y-108100761D02*
X114696952Y-108148380D01*
X114935047Y-108148380D01*
X115030285Y-108100761D01*
X115077904Y-108053142D01*
X115125523Y-107957904D01*
X115125523Y-107862666D01*
X115077904Y-107767428D01*
X115030285Y-107719809D01*
X114935047Y-107672190D01*
X114744571Y-107624571D01*
X114649333Y-107576952D01*
X114601714Y-107529333D01*
X114554095Y-107434095D01*
X114554095Y-107338857D01*
X114601714Y-107243619D01*
X114649333Y-107196000D01*
X114744571Y-107148380D01*
X114982666Y-107148380D01*
X115125523Y-107196000D01*
X115982666Y-107148380D02*
X115792190Y-107148380D01*
X115696952Y-107196000D01*
X115649333Y-107243619D01*
X115554095Y-107386476D01*
X115506476Y-107576952D01*
X115506476Y-107957904D01*
X115554095Y-108053142D01*
X115601714Y-108100761D01*
X115696952Y-108148380D01*
X115887428Y-108148380D01*
X115982666Y-108100761D01*
X116030285Y-108053142D01*
X116077904Y-107957904D01*
X116077904Y-107719809D01*
X116030285Y-107624571D01*
X115982666Y-107576952D01*
X115887428Y-107529333D01*
X115696952Y-107529333D01*
X115601714Y-107576952D01*
X115554095Y-107624571D01*
X115506476Y-107719809D01*
X114662104Y-112694980D02*
X114328771Y-112218790D01*
X114090676Y-112694980D02*
X114090676Y-111694980D01*
X114471628Y-111694980D01*
X114566866Y-111742600D01*
X114614485Y-111790219D01*
X114662104Y-111885457D01*
X114662104Y-112028314D01*
X114614485Y-112123552D01*
X114566866Y-112171171D01*
X114471628Y-112218790D01*
X114090676Y-112218790D01*
X115471628Y-112647361D02*
X115376390Y-112694980D01*
X115185914Y-112694980D01*
X115090676Y-112647361D01*
X115043057Y-112552123D01*
X115043057Y-112171171D01*
X115090676Y-112075933D01*
X115185914Y-112028314D01*
X115376390Y-112028314D01*
X115471628Y-112075933D01*
X115519247Y-112171171D01*
X115519247Y-112266409D01*
X115043057Y-112361647D01*
X115900200Y-112647361D02*
X115995438Y-112694980D01*
X116185914Y-112694980D01*
X116281152Y-112647361D01*
X116328771Y-112552123D01*
X116328771Y-112504504D01*
X116281152Y-112409266D01*
X116185914Y-112361647D01*
X116043057Y-112361647D01*
X115947819Y-112314028D01*
X115900200Y-112218790D01*
X115900200Y-112171171D01*
X115947819Y-112075933D01*
X116043057Y-112028314D01*
X116185914Y-112028314D01*
X116281152Y-112075933D01*
X117138295Y-112647361D02*
X117043057Y-112694980D01*
X116852580Y-112694980D01*
X116757342Y-112647361D01*
X116709723Y-112552123D01*
X116709723Y-112171171D01*
X116757342Y-112075933D01*
X116852580Y-112028314D01*
X117043057Y-112028314D01*
X117138295Y-112075933D01*
X117185914Y-112171171D01*
X117185914Y-112266409D01*
X116709723Y-112361647D01*
X117471628Y-112028314D02*
X117852580Y-112028314D01*
X117614485Y-111694980D02*
X117614485Y-112552123D01*
X117662104Y-112647361D01*
X117757342Y-112694980D01*
X117852580Y-112694980D01*
G04 #@! TO.C,C3*
X126833333Y-102963142D02*
X126785714Y-103010761D01*
X126642857Y-103058380D01*
X126547619Y-103058380D01*
X126404761Y-103010761D01*
X126309523Y-102915523D01*
X126261904Y-102820285D01*
X126214285Y-102629809D01*
X126214285Y-102486952D01*
X126261904Y-102296476D01*
X126309523Y-102201238D01*
X126404761Y-102106000D01*
X126547619Y-102058380D01*
X126642857Y-102058380D01*
X126785714Y-102106000D01*
X126833333Y-102153619D01*
X127166666Y-102058380D02*
X127785714Y-102058380D01*
X127452380Y-102439333D01*
X127595238Y-102439333D01*
X127690476Y-102486952D01*
X127738095Y-102534571D01*
X127785714Y-102629809D01*
X127785714Y-102867904D01*
X127738095Y-102963142D01*
X127690476Y-103010761D01*
X127595238Y-103058380D01*
X127309523Y-103058380D01*
X127214285Y-103010761D01*
X127166666Y-102963142D01*
G04 #@! TO.C,C6*
X181189333Y-67911142D02*
X181141714Y-67958761D01*
X180998857Y-68006380D01*
X180903619Y-68006380D01*
X180760761Y-67958761D01*
X180665523Y-67863523D01*
X180617904Y-67768285D01*
X180570285Y-67577809D01*
X180570285Y-67434952D01*
X180617904Y-67244476D01*
X180665523Y-67149238D01*
X180760761Y-67054000D01*
X180903619Y-67006380D01*
X180998857Y-67006380D01*
X181141714Y-67054000D01*
X181189333Y-67101619D01*
X182046476Y-67006380D02*
X181856000Y-67006380D01*
X181760761Y-67054000D01*
X181713142Y-67101619D01*
X181617904Y-67244476D01*
X181570285Y-67434952D01*
X181570285Y-67815904D01*
X181617904Y-67911142D01*
X181665523Y-67958761D01*
X181760761Y-68006380D01*
X181951238Y-68006380D01*
X182046476Y-67958761D01*
X182094095Y-67911142D01*
X182141714Y-67815904D01*
X182141714Y-67577809D01*
X182094095Y-67482571D01*
X182046476Y-67434952D01*
X181951238Y-67387333D01*
X181760761Y-67387333D01*
X181665523Y-67434952D01*
X181617904Y-67482571D01*
X181570285Y-67577809D01*
G04 #@! TO.C,C12*
X143053142Y-57538857D02*
X143100761Y-57586476D01*
X143148380Y-57729333D01*
X143148380Y-57824571D01*
X143100761Y-57967428D01*
X143005523Y-58062666D01*
X142910285Y-58110285D01*
X142719809Y-58157904D01*
X142576952Y-58157904D01*
X142386476Y-58110285D01*
X142291238Y-58062666D01*
X142196000Y-57967428D01*
X142148380Y-57824571D01*
X142148380Y-57729333D01*
X142196000Y-57586476D01*
X142243619Y-57538857D01*
X143148380Y-56586476D02*
X143148380Y-57157904D01*
X143148380Y-56872190D02*
X142148380Y-56872190D01*
X142291238Y-56967428D01*
X142386476Y-57062666D01*
X142434095Y-57157904D01*
X142243619Y-56205523D02*
X142196000Y-56157904D01*
X142148380Y-56062666D01*
X142148380Y-55824571D01*
X142196000Y-55729333D01*
X142243619Y-55681714D01*
X142338857Y-55634095D01*
X142434095Y-55634095D01*
X142576952Y-55681714D01*
X143148380Y-56253142D01*
X143148380Y-55634095D01*
G04 #@! TO.C,Y2*
X129547190Y-78808190D02*
X130023380Y-78808190D01*
X129023380Y-79141523D02*
X129547190Y-78808190D01*
X129023380Y-78474857D01*
X129118619Y-78189142D02*
X129071000Y-78141523D01*
X129023380Y-78046285D01*
X129023380Y-77808190D01*
X129071000Y-77712952D01*
X129118619Y-77665333D01*
X129213857Y-77617714D01*
X129309095Y-77617714D01*
X129451952Y-77665333D01*
X130023380Y-78236761D01*
X130023380Y-77617714D01*
G04 #@! TO.C,Q2*
X174910761Y-116879619D02*
X174815523Y-116832000D01*
X174720285Y-116736761D01*
X174577428Y-116593904D01*
X174482190Y-116546285D01*
X174386952Y-116546285D01*
X174434571Y-116784380D02*
X174339333Y-116736761D01*
X174244095Y-116641523D01*
X174196476Y-116451047D01*
X174196476Y-116117714D01*
X174244095Y-115927238D01*
X174339333Y-115832000D01*
X174434571Y-115784380D01*
X174625047Y-115784380D01*
X174720285Y-115832000D01*
X174815523Y-115927238D01*
X174863142Y-116117714D01*
X174863142Y-116451047D01*
X174815523Y-116641523D01*
X174720285Y-116736761D01*
X174625047Y-116784380D01*
X174434571Y-116784380D01*
X175244095Y-115879619D02*
X175291714Y-115832000D01*
X175386952Y-115784380D01*
X175625047Y-115784380D01*
X175720285Y-115832000D01*
X175767904Y-115879619D01*
X175815523Y-115974857D01*
X175815523Y-116070095D01*
X175767904Y-116212952D01*
X175196476Y-116784380D01*
X175815523Y-116784380D01*
G04 #@! TO.C,Q1*
X134651761Y-116879619D02*
X134556523Y-116832000D01*
X134461285Y-116736761D01*
X134318428Y-116593904D01*
X134223190Y-116546285D01*
X134127952Y-116546285D01*
X134175571Y-116784380D02*
X134080333Y-116736761D01*
X133985095Y-116641523D01*
X133937476Y-116451047D01*
X133937476Y-116117714D01*
X133985095Y-115927238D01*
X134080333Y-115832000D01*
X134175571Y-115784380D01*
X134366047Y-115784380D01*
X134461285Y-115832000D01*
X134556523Y-115927238D01*
X134604142Y-116117714D01*
X134604142Y-116451047D01*
X134556523Y-116641523D01*
X134461285Y-116736761D01*
X134366047Y-116784380D01*
X134175571Y-116784380D01*
X135556523Y-116784380D02*
X134985095Y-116784380D01*
X135270809Y-116784380D02*
X135270809Y-115784380D01*
X135175571Y-115927238D01*
X135080333Y-116022476D01*
X134985095Y-116070095D01*
G04 #@! TO.C,S1*
X109982095Y-67968761D02*
X110124952Y-68016380D01*
X110363047Y-68016380D01*
X110458285Y-67968761D01*
X110505904Y-67921142D01*
X110553523Y-67825904D01*
X110553523Y-67730666D01*
X110505904Y-67635428D01*
X110458285Y-67587809D01*
X110363047Y-67540190D01*
X110172571Y-67492571D01*
X110077333Y-67444952D01*
X110029714Y-67397333D01*
X109982095Y-67302095D01*
X109982095Y-67206857D01*
X110029714Y-67111619D01*
X110077333Y-67064000D01*
X110172571Y-67016380D01*
X110410666Y-67016380D01*
X110553523Y-67064000D01*
X111505904Y-68016380D02*
X110934476Y-68016380D01*
X111220190Y-68016380D02*
X111220190Y-67016380D01*
X111124952Y-67159238D01*
X111029714Y-67254476D01*
X110934476Y-67302095D01*
X111227333Y-71156380D02*
X111227333Y-70156380D01*
X111608285Y-70156380D01*
X111703523Y-70204000D01*
X111751142Y-70251619D01*
X111798761Y-70346857D01*
X111798761Y-70489714D01*
X111751142Y-70584952D01*
X111703523Y-70632571D01*
X111608285Y-70680190D01*
X111227333Y-70680190D01*
X112655904Y-71156380D02*
X112655904Y-70632571D01*
X112608285Y-70537333D01*
X112513047Y-70489714D01*
X112322571Y-70489714D01*
X112227333Y-70537333D01*
X112655904Y-71108761D02*
X112560666Y-71156380D01*
X112322571Y-71156380D01*
X112227333Y-71108761D01*
X112179714Y-71013523D01*
X112179714Y-70918285D01*
X112227333Y-70823047D01*
X112322571Y-70775428D01*
X112560666Y-70775428D01*
X112655904Y-70727809D01*
X113560666Y-71156380D02*
X113560666Y-70156380D01*
X113560666Y-71108761D02*
X113465428Y-71156380D01*
X113274952Y-71156380D01*
X113179714Y-71108761D01*
X113132095Y-71061142D01*
X113084476Y-70965904D01*
X113084476Y-70680190D01*
X113132095Y-70584952D01*
X113179714Y-70537333D01*
X113274952Y-70489714D01*
X113465428Y-70489714D01*
X113560666Y-70537333D01*
X114465428Y-71156380D02*
X114465428Y-70156380D01*
X114465428Y-71108761D02*
X114370190Y-71156380D01*
X114179714Y-71156380D01*
X114084476Y-71108761D01*
X114036857Y-71061142D01*
X113989238Y-70965904D01*
X113989238Y-70680190D01*
X114036857Y-70584952D01*
X114084476Y-70537333D01*
X114179714Y-70489714D01*
X114370190Y-70489714D01*
X114465428Y-70537333D01*
X115084476Y-71156380D02*
X114989238Y-71108761D01*
X114941619Y-71013523D01*
X114941619Y-70156380D01*
X115846380Y-71108761D02*
X115751142Y-71156380D01*
X115560666Y-71156380D01*
X115465428Y-71108761D01*
X115417809Y-71013523D01*
X115417809Y-70632571D01*
X115465428Y-70537333D01*
X115560666Y-70489714D01*
X115751142Y-70489714D01*
X115846380Y-70537333D01*
X115894000Y-70632571D01*
X115894000Y-70727809D01*
X115417809Y-70823047D01*
X117036857Y-71108761D02*
X117132095Y-71156380D01*
X117322571Y-71156380D01*
X117417809Y-71108761D01*
X117465428Y-71013523D01*
X117465428Y-70965904D01*
X117417809Y-70870666D01*
X117322571Y-70823047D01*
X117179714Y-70823047D01*
X117084476Y-70775428D01*
X117036857Y-70680190D01*
X117036857Y-70632571D01*
X117084476Y-70537333D01*
X117179714Y-70489714D01*
X117322571Y-70489714D01*
X117417809Y-70537333D01*
X117894000Y-71156380D02*
X117894000Y-70489714D01*
X117894000Y-70156380D02*
X117846380Y-70204000D01*
X117894000Y-70251619D01*
X117941619Y-70204000D01*
X117894000Y-70156380D01*
X117894000Y-70251619D01*
X118274952Y-70489714D02*
X118798761Y-70489714D01*
X118274952Y-71156380D01*
X118798761Y-71156380D01*
X119560666Y-71108761D02*
X119465428Y-71156380D01*
X119274952Y-71156380D01*
X119179714Y-71108761D01*
X119132095Y-71013523D01*
X119132095Y-70632571D01*
X119179714Y-70537333D01*
X119274952Y-70489714D01*
X119465428Y-70489714D01*
X119560666Y-70537333D01*
X119608285Y-70632571D01*
X119608285Y-70727809D01*
X119132095Y-70823047D01*
G04 #@! TO.C,Y1*
X198559809Y-108719190D02*
X198559809Y-109195380D01*
X198226476Y-108195380D02*
X198559809Y-108719190D01*
X198893142Y-108195380D01*
X199750285Y-109195380D02*
X199178857Y-109195380D01*
X199464571Y-109195380D02*
X199464571Y-108195380D01*
X199369333Y-108338238D01*
X199274095Y-108433476D01*
X199178857Y-108481095D01*
G04 #@! TO.C,JP3*
X177474666Y-94956380D02*
X177474666Y-95670666D01*
X177427047Y-95813523D01*
X177331809Y-95908761D01*
X177188952Y-95956380D01*
X177093714Y-95956380D01*
X177950857Y-95956380D02*
X177950857Y-94956380D01*
X178331809Y-94956380D01*
X178427047Y-95004000D01*
X178474666Y-95051619D01*
X178522285Y-95146857D01*
X178522285Y-95289714D01*
X178474666Y-95384952D01*
X178427047Y-95432571D01*
X178331809Y-95480190D01*
X177950857Y-95480190D01*
X178855619Y-94956380D02*
X179474666Y-94956380D01*
X179141333Y-95337333D01*
X179284190Y-95337333D01*
X179379428Y-95384952D01*
X179427047Y-95432571D01*
X179474666Y-95527809D01*
X179474666Y-95765904D01*
X179427047Y-95861142D01*
X179379428Y-95908761D01*
X179284190Y-95956380D01*
X178998476Y-95956380D01*
X178903238Y-95908761D01*
X178855619Y-95861142D01*
D15*
X170181714Y-95775428D02*
X169838857Y-95775428D01*
X170010285Y-95775428D02*
X170010285Y-95175428D01*
X169953142Y-95261142D01*
X169896000Y-95318285D01*
X169838857Y-95346857D01*
X170696000Y-95175428D02*
X170581714Y-95175428D01*
X170524571Y-95204000D01*
X170496000Y-95232571D01*
X170438857Y-95318285D01*
X170410285Y-95432571D01*
X170410285Y-95661142D01*
X170438857Y-95718285D01*
X170467428Y-95746857D01*
X170524571Y-95775428D01*
X170638857Y-95775428D01*
X170696000Y-95746857D01*
X170724571Y-95718285D01*
X170753142Y-95661142D01*
X170753142Y-95518285D01*
X170724571Y-95461142D01*
X170696000Y-95432571D01*
X170638857Y-95404000D01*
X170524571Y-95404000D01*
X170467428Y-95432571D01*
X170438857Y-95461142D01*
X170410285Y-95518285D01*
X171010285Y-95775428D02*
X171010285Y-95175428D01*
X171210285Y-95604000D01*
X171410285Y-95175428D01*
X171410285Y-95775428D01*
X171696000Y-95775428D02*
X171696000Y-95175428D01*
X171696000Y-95461142D02*
X172038857Y-95461142D01*
X172038857Y-95775428D02*
X172038857Y-95175428D01*
X172267428Y-95375428D02*
X172581714Y-95375428D01*
X172267428Y-95775428D01*
X172581714Y-95775428D01*
G04 #@! TO.C,JP2*
D13*
X177474666Y-98512380D02*
X177474666Y-99226666D01*
X177427047Y-99369523D01*
X177331809Y-99464761D01*
X177188952Y-99512380D01*
X177093714Y-99512380D01*
X177950857Y-99512380D02*
X177950857Y-98512380D01*
X178331809Y-98512380D01*
X178427047Y-98560000D01*
X178474666Y-98607619D01*
X178522285Y-98702857D01*
X178522285Y-98845714D01*
X178474666Y-98940952D01*
X178427047Y-98988571D01*
X178331809Y-99036190D01*
X177950857Y-99036190D01*
X178903238Y-98607619D02*
X178950857Y-98560000D01*
X179046095Y-98512380D01*
X179284190Y-98512380D01*
X179379428Y-98560000D01*
X179427047Y-98607619D01*
X179474666Y-98702857D01*
X179474666Y-98798095D01*
X179427047Y-98940952D01*
X178855619Y-99512380D01*
X179474666Y-99512380D01*
D15*
X170238857Y-98988571D02*
X170181714Y-98960000D01*
X170153142Y-98931428D01*
X170124571Y-98874285D01*
X170124571Y-98845714D01*
X170153142Y-98788571D01*
X170181714Y-98760000D01*
X170238857Y-98731428D01*
X170353142Y-98731428D01*
X170410285Y-98760000D01*
X170438857Y-98788571D01*
X170467428Y-98845714D01*
X170467428Y-98874285D01*
X170438857Y-98931428D01*
X170410285Y-98960000D01*
X170353142Y-98988571D01*
X170238857Y-98988571D01*
X170181714Y-99017142D01*
X170153142Y-99045714D01*
X170124571Y-99102857D01*
X170124571Y-99217142D01*
X170153142Y-99274285D01*
X170181714Y-99302857D01*
X170238857Y-99331428D01*
X170353142Y-99331428D01*
X170410285Y-99302857D01*
X170438857Y-99274285D01*
X170467428Y-99217142D01*
X170467428Y-99102857D01*
X170438857Y-99045714D01*
X170410285Y-99017142D01*
X170353142Y-98988571D01*
X170724571Y-99331428D02*
X170724571Y-98731428D01*
X170924571Y-99160000D01*
X171124571Y-98731428D01*
X171124571Y-99331428D01*
X171410285Y-99331428D02*
X171410285Y-98731428D01*
X171410285Y-99017142D02*
X171753142Y-99017142D01*
X171753142Y-99331428D02*
X171753142Y-98731428D01*
X171981714Y-98931428D02*
X172296000Y-98931428D01*
X171981714Y-99331428D01*
X172296000Y-99331428D01*
G04 #@! TO.C,JP1*
D13*
X177474666Y-102068380D02*
X177474666Y-102782666D01*
X177427047Y-102925523D01*
X177331809Y-103020761D01*
X177188952Y-103068380D01*
X177093714Y-103068380D01*
X177950857Y-103068380D02*
X177950857Y-102068380D01*
X178331809Y-102068380D01*
X178427047Y-102116000D01*
X178474666Y-102163619D01*
X178522285Y-102258857D01*
X178522285Y-102401714D01*
X178474666Y-102496952D01*
X178427047Y-102544571D01*
X178331809Y-102592190D01*
X177950857Y-102592190D01*
X179474666Y-103068380D02*
X178903238Y-103068380D01*
X179188952Y-103068380D02*
X179188952Y-102068380D01*
X179093714Y-102211238D01*
X178998476Y-102306476D01*
X178903238Y-102354095D01*
D15*
X170410285Y-102487428D02*
X170410285Y-102887428D01*
X170267428Y-102258857D02*
X170124571Y-102687428D01*
X170496000Y-102687428D01*
X170724571Y-102887428D02*
X170724571Y-102287428D01*
X170924571Y-102716000D01*
X171124571Y-102287428D01*
X171124571Y-102887428D01*
X171410285Y-102887428D02*
X171410285Y-102287428D01*
X171410285Y-102573142D02*
X171753142Y-102573142D01*
X171753142Y-102887428D02*
X171753142Y-102287428D01*
X171981714Y-102487428D02*
X172296000Y-102487428D01*
X171981714Y-102887428D01*
X172296000Y-102887428D01*
G04 #@! TO.C,U3*
D13*
X197318252Y-104653115D02*
X197318252Y-105462639D01*
X197365871Y-105557877D01*
X197413490Y-105605496D01*
X197508728Y-105653115D01*
X197699204Y-105653115D01*
X197794442Y-105605496D01*
X197842061Y-105557877D01*
X197889680Y-105462639D01*
X197889680Y-104653115D01*
X198270633Y-104653115D02*
X198889680Y-104653115D01*
X198556347Y-105034068D01*
X198699204Y-105034068D01*
X198794442Y-105081687D01*
X198842061Y-105129306D01*
X198889680Y-105224544D01*
X198889680Y-105462639D01*
X198842061Y-105557877D01*
X198794442Y-105605496D01*
X198699204Y-105653115D01*
X198413490Y-105653115D01*
X198318252Y-105605496D01*
X198270633Y-105557877D01*
G04 #@! TO.C,U4*
X183642095Y-105278115D02*
X183642095Y-106087639D01*
X183689714Y-106182877D01*
X183737333Y-106230496D01*
X183832571Y-106278115D01*
X184023047Y-106278115D01*
X184118285Y-106230496D01*
X184165904Y-106182877D01*
X184213523Y-106087639D01*
X184213523Y-105278115D01*
X185118285Y-105611449D02*
X185118285Y-106278115D01*
X184880190Y-105230496D02*
X184642095Y-105944782D01*
X185261142Y-105944782D01*
G04 #@! TO.C,J5*
X174926666Y-65492380D02*
X174926666Y-66206666D01*
X174879047Y-66349523D01*
X174783809Y-66444761D01*
X174640952Y-66492380D01*
X174545714Y-66492380D01*
X175879047Y-65492380D02*
X175402857Y-65492380D01*
X175355238Y-65968571D01*
X175402857Y-65920952D01*
X175498095Y-65873333D01*
X175736190Y-65873333D01*
X175831428Y-65920952D01*
X175879047Y-65968571D01*
X175926666Y-66063809D01*
X175926666Y-66301904D01*
X175879047Y-66397142D01*
X175831428Y-66444761D01*
X175736190Y-66492380D01*
X175498095Y-66492380D01*
X175402857Y-66444761D01*
X175355238Y-66397142D01*
X173236190Y-67730666D02*
X173712380Y-67730666D01*
X173140952Y-68016380D02*
X173474285Y-67016380D01*
X173807619Y-68016380D01*
X174140952Y-67016380D02*
X174140952Y-67825904D01*
X174188571Y-67921142D01*
X174236190Y-67968761D01*
X174331428Y-68016380D01*
X174521904Y-68016380D01*
X174617142Y-67968761D01*
X174664761Y-67921142D01*
X174712380Y-67825904D01*
X174712380Y-67016380D01*
X175188571Y-68016380D02*
X175188571Y-67016380D01*
X175426666Y-67016380D01*
X175569523Y-67064000D01*
X175664761Y-67159238D01*
X175712380Y-67254476D01*
X175760000Y-67444952D01*
X175760000Y-67587809D01*
X175712380Y-67778285D01*
X175664761Y-67873523D01*
X175569523Y-67968761D01*
X175426666Y-68016380D01*
X175188571Y-68016380D01*
X176188571Y-68016380D02*
X176188571Y-67016380D01*
X176855238Y-67016380D02*
X177045714Y-67016380D01*
X177140952Y-67064000D01*
X177236190Y-67159238D01*
X177283809Y-67349714D01*
X177283809Y-67683047D01*
X177236190Y-67873523D01*
X177140952Y-67968761D01*
X177045714Y-68016380D01*
X176855238Y-68016380D01*
X176760000Y-67968761D01*
X176664761Y-67873523D01*
X176617142Y-67683047D01*
X176617142Y-67349714D01*
X176664761Y-67159238D01*
X176760000Y-67064000D01*
X176855238Y-67016380D01*
G04 #@! TO.C,J4*
X192198666Y-70024380D02*
X192198666Y-70738666D01*
X192151047Y-70881523D01*
X192055809Y-70976761D01*
X191912952Y-71024380D01*
X191817714Y-71024380D01*
X193103428Y-70357714D02*
X193103428Y-71024380D01*
X192865333Y-69976761D02*
X192627238Y-70691047D01*
X193246285Y-70691047D01*
X190484380Y-72080380D02*
X190484380Y-71080380D01*
X190722476Y-71080380D01*
X190865333Y-71128000D01*
X190960571Y-71223238D01*
X191008190Y-71318476D01*
X191055809Y-71508952D01*
X191055809Y-71651809D01*
X191008190Y-71842285D01*
X190960571Y-71937523D01*
X190865333Y-72032761D01*
X190722476Y-72080380D01*
X190484380Y-72080380D01*
X192055809Y-71985142D02*
X192008190Y-72032761D01*
X191865333Y-72080380D01*
X191770095Y-72080380D01*
X191627238Y-72032761D01*
X191532000Y-71937523D01*
X191484380Y-71842285D01*
X191436761Y-71651809D01*
X191436761Y-71508952D01*
X191484380Y-71318476D01*
X191532000Y-71223238D01*
X191627238Y-71128000D01*
X191770095Y-71080380D01*
X191865333Y-71080380D01*
X192008190Y-71128000D01*
X192055809Y-71175619D01*
X193293904Y-72080380D02*
X193484380Y-72080380D01*
X193579619Y-72032761D01*
X193627238Y-71985142D01*
X193722476Y-71842285D01*
X193770095Y-71651809D01*
X193770095Y-71270857D01*
X193722476Y-71175619D01*
X193674857Y-71128000D01*
X193579619Y-71080380D01*
X193389142Y-71080380D01*
X193293904Y-71128000D01*
X193246285Y-71175619D01*
X193198666Y-71270857D01*
X193198666Y-71508952D01*
X193246285Y-71604190D01*
X193293904Y-71651809D01*
X193389142Y-71699428D01*
X193579619Y-71699428D01*
X193674857Y-71651809D01*
X193722476Y-71604190D01*
X193770095Y-71508952D01*
X194055809Y-71080380D02*
X194389142Y-72080380D01*
X194722476Y-71080380D01*
G04 #@! TO.C,J3*
X160194666Y-65492380D02*
X160194666Y-66206666D01*
X160147047Y-66349523D01*
X160051809Y-66444761D01*
X159908952Y-66492380D01*
X159813714Y-66492380D01*
X160575619Y-65492380D02*
X161194666Y-65492380D01*
X160861333Y-65873333D01*
X161004190Y-65873333D01*
X161099428Y-65920952D01*
X161147047Y-65968571D01*
X161194666Y-66063809D01*
X161194666Y-66301904D01*
X161147047Y-66397142D01*
X161099428Y-66444761D01*
X161004190Y-66492380D01*
X160718476Y-66492380D01*
X160623238Y-66444761D01*
X160575619Y-66397142D01*
X158480380Y-67016380D02*
X158813714Y-68016380D01*
X159147047Y-67016380D01*
X159480380Y-68016380D02*
X159480380Y-67016380D01*
X159956571Y-68016380D02*
X159956571Y-67016380D01*
X160194666Y-67016380D01*
X160337523Y-67064000D01*
X160432761Y-67159238D01*
X160480380Y-67254476D01*
X160528000Y-67444952D01*
X160528000Y-67587809D01*
X160480380Y-67778285D01*
X160432761Y-67873523D01*
X160337523Y-67968761D01*
X160194666Y-68016380D01*
X159956571Y-68016380D01*
X160956571Y-67492571D02*
X161289904Y-67492571D01*
X161432761Y-68016380D02*
X160956571Y-68016380D01*
X160956571Y-67016380D01*
X161432761Y-67016380D01*
X162051809Y-67016380D02*
X162242285Y-67016380D01*
X162337523Y-67064000D01*
X162432761Y-67159238D01*
X162480380Y-67349714D01*
X162480380Y-67683047D01*
X162432761Y-67873523D01*
X162337523Y-67968761D01*
X162242285Y-68016380D01*
X162051809Y-68016380D01*
X161956571Y-67968761D01*
X161861333Y-67873523D01*
X161813714Y-67683047D01*
X161813714Y-67349714D01*
X161861333Y-67159238D01*
X161956571Y-67064000D01*
X162051809Y-67016380D01*
G04 #@! TO.C,J2*
X179450666Y-121736380D02*
X179450666Y-122450666D01*
X179403047Y-122593523D01*
X179307809Y-122688761D01*
X179164952Y-122736380D01*
X179069714Y-122736380D01*
X179879238Y-121831619D02*
X179926857Y-121784000D01*
X180022095Y-121736380D01*
X180260190Y-121736380D01*
X180355428Y-121784000D01*
X180403047Y-121831619D01*
X180450666Y-121926857D01*
X180450666Y-122022095D01*
X180403047Y-122164952D01*
X179831619Y-122736380D01*
X180450666Y-122736380D01*
X176046285Y-133040380D02*
X175712952Y-132564190D01*
X175474857Y-133040380D02*
X175474857Y-132040380D01*
X175855809Y-132040380D01*
X175951047Y-132088000D01*
X175998666Y-132135619D01*
X176046285Y-132230857D01*
X176046285Y-132373714D01*
X175998666Y-132468952D01*
X175951047Y-132516571D01*
X175855809Y-132564190D01*
X175474857Y-132564190D01*
X176474857Y-133040380D02*
X176474857Y-132373714D01*
X176474857Y-132040380D02*
X176427238Y-132088000D01*
X176474857Y-132135619D01*
X176522476Y-132088000D01*
X176474857Y-132040380D01*
X176474857Y-132135619D01*
X177379619Y-132373714D02*
X177379619Y-133183238D01*
X177332000Y-133278476D01*
X177284380Y-133326095D01*
X177189142Y-133373714D01*
X177046285Y-133373714D01*
X176951047Y-133326095D01*
X177379619Y-132992761D02*
X177284380Y-133040380D01*
X177093904Y-133040380D01*
X176998666Y-132992761D01*
X176951047Y-132945142D01*
X176903428Y-132849904D01*
X176903428Y-132564190D01*
X176951047Y-132468952D01*
X176998666Y-132421333D01*
X177093904Y-132373714D01*
X177284380Y-132373714D01*
X177379619Y-132421333D01*
X177855809Y-133040380D02*
X177855809Y-132040380D01*
X178284380Y-133040380D02*
X178284380Y-132516571D01*
X178236761Y-132421333D01*
X178141523Y-132373714D01*
X177998666Y-132373714D01*
X177903428Y-132421333D01*
X177855809Y-132468952D01*
X178617714Y-132373714D02*
X178998666Y-132373714D01*
X178760571Y-132040380D02*
X178760571Y-132897523D01*
X178808190Y-132992761D01*
X178903428Y-133040380D01*
X178998666Y-133040380D01*
X180093904Y-132373714D02*
X180093904Y-133373714D01*
X180093904Y-132421333D02*
X180189142Y-132373714D01*
X180379619Y-132373714D01*
X180474857Y-132421333D01*
X180522476Y-132468952D01*
X180570095Y-132564190D01*
X180570095Y-132849904D01*
X180522476Y-132945142D01*
X180474857Y-132992761D01*
X180379619Y-133040380D01*
X180189142Y-133040380D01*
X180093904Y-132992761D01*
X181141523Y-133040380D02*
X181046285Y-132992761D01*
X180998666Y-132897523D01*
X180998666Y-132040380D01*
X181951047Y-133040380D02*
X181951047Y-132516571D01*
X181903428Y-132421333D01*
X181808190Y-132373714D01*
X181617714Y-132373714D01*
X181522476Y-132421333D01*
X181951047Y-132992761D02*
X181855809Y-133040380D01*
X181617714Y-133040380D01*
X181522476Y-132992761D01*
X181474857Y-132897523D01*
X181474857Y-132802285D01*
X181522476Y-132707047D01*
X181617714Y-132659428D01*
X181855809Y-132659428D01*
X181951047Y-132611809D01*
X182332000Y-132373714D02*
X182570095Y-133040380D01*
X182808190Y-132373714D02*
X182570095Y-133040380D01*
X182474857Y-133278476D01*
X182427238Y-133326095D01*
X182332000Y-133373714D01*
X183570095Y-132992761D02*
X183474857Y-133040380D01*
X183284380Y-133040380D01*
X183189142Y-132992761D01*
X183141523Y-132897523D01*
X183141523Y-132516571D01*
X183189142Y-132421333D01*
X183284380Y-132373714D01*
X183474857Y-132373714D01*
X183570095Y-132421333D01*
X183617714Y-132516571D01*
X183617714Y-132611809D01*
X183141523Y-132707047D01*
X184046285Y-133040380D02*
X184046285Y-132373714D01*
X184046285Y-132564190D02*
X184093904Y-132468952D01*
X184141523Y-132421333D01*
X184236761Y-132373714D01*
X184332000Y-132373714D01*
G04 #@! TO.C,J1*
X139318666Y-121736380D02*
X139318666Y-122450666D01*
X139271047Y-122593523D01*
X139175809Y-122688761D01*
X139032952Y-122736380D01*
X138937714Y-122736380D01*
X140318666Y-122736380D02*
X139747238Y-122736380D01*
X140032952Y-122736380D02*
X140032952Y-121736380D01*
X139937714Y-121879238D01*
X139842476Y-121974476D01*
X139747238Y-122022095D01*
X136294857Y-133040380D02*
X135818666Y-133040380D01*
X135818666Y-132040380D01*
X137009142Y-132992761D02*
X136913904Y-133040380D01*
X136723428Y-133040380D01*
X136628190Y-132992761D01*
X136580571Y-132897523D01*
X136580571Y-132516571D01*
X136628190Y-132421333D01*
X136723428Y-132373714D01*
X136913904Y-132373714D01*
X137009142Y-132421333D01*
X137056761Y-132516571D01*
X137056761Y-132611809D01*
X136580571Y-132707047D01*
X137342476Y-132373714D02*
X137723428Y-132373714D01*
X137485333Y-133040380D02*
X137485333Y-132183238D01*
X137532952Y-132088000D01*
X137628190Y-132040380D01*
X137723428Y-132040380D01*
X137913904Y-132373714D02*
X138294857Y-132373714D01*
X138056761Y-132040380D02*
X138056761Y-132897523D01*
X138104380Y-132992761D01*
X138199619Y-133040380D01*
X138294857Y-133040380D01*
X139390095Y-132373714D02*
X139390095Y-133373714D01*
X139390095Y-132421333D02*
X139485333Y-132373714D01*
X139675809Y-132373714D01*
X139771047Y-132421333D01*
X139818666Y-132468952D01*
X139866285Y-132564190D01*
X139866285Y-132849904D01*
X139818666Y-132945142D01*
X139771047Y-132992761D01*
X139675809Y-133040380D01*
X139485333Y-133040380D01*
X139390095Y-132992761D01*
X140437714Y-133040380D02*
X140342476Y-132992761D01*
X140294857Y-132897523D01*
X140294857Y-132040380D01*
X141247238Y-133040380D02*
X141247238Y-132516571D01*
X141199619Y-132421333D01*
X141104380Y-132373714D01*
X140913904Y-132373714D01*
X140818666Y-132421333D01*
X141247238Y-132992761D02*
X141152000Y-133040380D01*
X140913904Y-133040380D01*
X140818666Y-132992761D01*
X140771047Y-132897523D01*
X140771047Y-132802285D01*
X140818666Y-132707047D01*
X140913904Y-132659428D01*
X141152000Y-132659428D01*
X141247238Y-132611809D01*
X141628190Y-132373714D02*
X141866285Y-133040380D01*
X142104380Y-132373714D02*
X141866285Y-133040380D01*
X141771047Y-133278476D01*
X141723428Y-133326095D01*
X141628190Y-133373714D01*
X142866285Y-132992761D02*
X142771047Y-133040380D01*
X142580571Y-133040380D01*
X142485333Y-132992761D01*
X142437714Y-132897523D01*
X142437714Y-132516571D01*
X142485333Y-132421333D01*
X142580571Y-132373714D01*
X142771047Y-132373714D01*
X142866285Y-132421333D01*
X142913904Y-132516571D01*
X142913904Y-132611809D01*
X142437714Y-132707047D01*
X143342476Y-133040380D02*
X143342476Y-132373714D01*
X143342476Y-132564190D02*
X143390095Y-132468952D01*
X143437714Y-132421333D01*
X143532952Y-132373714D01*
X143628190Y-132373714D01*
G04 #@! TO.C,U1*
X170434095Y-71801380D02*
X170434095Y-72610904D01*
X170481714Y-72706142D01*
X170529333Y-72753761D01*
X170624571Y-72801380D01*
X170815047Y-72801380D01*
X170910285Y-72753761D01*
X170957904Y-72706142D01*
X171005523Y-72610904D01*
X171005523Y-71801380D01*
X172005523Y-72801380D02*
X171434095Y-72801380D01*
X171719809Y-72801380D02*
X171719809Y-71801380D01*
X171624571Y-71944238D01*
X171529333Y-72039476D01*
X171434095Y-72087095D01*
G04 #@! TO.C,U2*
X129346380Y-63245904D02*
X130155904Y-63245904D01*
X130251142Y-63198285D01*
X130298761Y-63150666D01*
X130346380Y-63055428D01*
X130346380Y-62864952D01*
X130298761Y-62769714D01*
X130251142Y-62722095D01*
X130155904Y-62674476D01*
X129346380Y-62674476D01*
X129441619Y-62245904D02*
X129394000Y-62198285D01*
X129346380Y-62103047D01*
X129346380Y-61864952D01*
X129394000Y-61769714D01*
X129441619Y-61722095D01*
X129536857Y-61674476D01*
X129632095Y-61674476D01*
X129774952Y-61722095D01*
X130346380Y-62293523D01*
X130346380Y-61674476D01*
G04 #@! TD*
M02*
