G04 #@! TF.GenerationSoftware,KiCad,Pcbnew,5.0.2-bee76a0~70~ubuntu18.04.1*
G04 #@! TF.CreationDate,2020-01-13T15:24:33+02:00*
G04 #@! TF.ProjectId,videosport,76696465-6f73-4706-9f72-742e6b696361,rev?*
G04 #@! TF.SameCoordinates,Original*
G04 #@! TF.FileFunction,Paste,Top*
G04 #@! TF.FilePolarity,Positive*
%FSLAX46Y46*%
G04 Gerber Fmt 4.6, Leading zero omitted, Abs format (unit mm)*
G04 Created by KiCad (PCBNEW 5.0.2-bee76a0~70~ubuntu18.04.1) date Пнд 13 янв 2020 15:24:33*
%MOMM*%
%LPD*%
G01*
G04 APERTURE LIST*
%ADD10C,0.100000*%
%ADD11C,0.975000*%
%ADD12R,1.500000X2.000000*%
%ADD13R,3.800000X2.000000*%
%ADD14C,1.425000*%
%ADD15R,1.700000X1.300000*%
%ADD16R,1.300000X1.700000*%
%ADD17C,2.250000*%
%ADD18R,0.800000X0.900000*%
%ADD19R,1.500000X0.600000*%
%ADD20R,0.600000X1.500000*%
G04 APERTURE END LIST*
D10*
G04 #@! TO.C,C2*
G36*
X196393982Y-106489174D02*
X196417643Y-106492684D01*
X196440847Y-106498496D01*
X196463369Y-106506554D01*
X196484993Y-106516782D01*
X196505510Y-106529079D01*
X196524723Y-106543329D01*
X196542447Y-106559393D01*
X196558511Y-106577117D01*
X196572761Y-106596330D01*
X196585058Y-106616847D01*
X196595286Y-106638471D01*
X196603344Y-106660993D01*
X196609156Y-106684197D01*
X196612666Y-106707858D01*
X196613840Y-106731750D01*
X196613840Y-107644250D01*
X196612666Y-107668142D01*
X196609156Y-107691803D01*
X196603344Y-107715007D01*
X196595286Y-107737529D01*
X196585058Y-107759153D01*
X196572761Y-107779670D01*
X196558511Y-107798883D01*
X196542447Y-107816607D01*
X196524723Y-107832671D01*
X196505510Y-107846921D01*
X196484993Y-107859218D01*
X196463369Y-107869446D01*
X196440847Y-107877504D01*
X196417643Y-107883316D01*
X196393982Y-107886826D01*
X196370090Y-107888000D01*
X195882590Y-107888000D01*
X195858698Y-107886826D01*
X195835037Y-107883316D01*
X195811833Y-107877504D01*
X195789311Y-107869446D01*
X195767687Y-107859218D01*
X195747170Y-107846921D01*
X195727957Y-107832671D01*
X195710233Y-107816607D01*
X195694169Y-107798883D01*
X195679919Y-107779670D01*
X195667622Y-107759153D01*
X195657394Y-107737529D01*
X195649336Y-107715007D01*
X195643524Y-107691803D01*
X195640014Y-107668142D01*
X195638840Y-107644250D01*
X195638840Y-106731750D01*
X195640014Y-106707858D01*
X195643524Y-106684197D01*
X195649336Y-106660993D01*
X195657394Y-106638471D01*
X195667622Y-106616847D01*
X195679919Y-106596330D01*
X195694169Y-106577117D01*
X195710233Y-106559393D01*
X195727957Y-106543329D01*
X195747170Y-106529079D01*
X195767687Y-106516782D01*
X195789311Y-106506554D01*
X195811833Y-106498496D01*
X195835037Y-106492684D01*
X195858698Y-106489174D01*
X195882590Y-106488000D01*
X196370090Y-106488000D01*
X196393982Y-106489174D01*
X196393982Y-106489174D01*
G37*
D11*
X196126340Y-107188000D03*
D10*
G36*
X194518982Y-106489174D02*
X194542643Y-106492684D01*
X194565847Y-106498496D01*
X194588369Y-106506554D01*
X194609993Y-106516782D01*
X194630510Y-106529079D01*
X194649723Y-106543329D01*
X194667447Y-106559393D01*
X194683511Y-106577117D01*
X194697761Y-106596330D01*
X194710058Y-106616847D01*
X194720286Y-106638471D01*
X194728344Y-106660993D01*
X194734156Y-106684197D01*
X194737666Y-106707858D01*
X194738840Y-106731750D01*
X194738840Y-107644250D01*
X194737666Y-107668142D01*
X194734156Y-107691803D01*
X194728344Y-107715007D01*
X194720286Y-107737529D01*
X194710058Y-107759153D01*
X194697761Y-107779670D01*
X194683511Y-107798883D01*
X194667447Y-107816607D01*
X194649723Y-107832671D01*
X194630510Y-107846921D01*
X194609993Y-107859218D01*
X194588369Y-107869446D01*
X194565847Y-107877504D01*
X194542643Y-107883316D01*
X194518982Y-107886826D01*
X194495090Y-107888000D01*
X194007590Y-107888000D01*
X193983698Y-107886826D01*
X193960037Y-107883316D01*
X193936833Y-107877504D01*
X193914311Y-107869446D01*
X193892687Y-107859218D01*
X193872170Y-107846921D01*
X193852957Y-107832671D01*
X193835233Y-107816607D01*
X193819169Y-107798883D01*
X193804919Y-107779670D01*
X193792622Y-107759153D01*
X193782394Y-107737529D01*
X193774336Y-107715007D01*
X193768524Y-107691803D01*
X193765014Y-107668142D01*
X193763840Y-107644250D01*
X193763840Y-106731750D01*
X193765014Y-106707858D01*
X193768524Y-106684197D01*
X193774336Y-106660993D01*
X193782394Y-106638471D01*
X193792622Y-106616847D01*
X193804919Y-106596330D01*
X193819169Y-106577117D01*
X193835233Y-106559393D01*
X193852957Y-106543329D01*
X193872170Y-106529079D01*
X193892687Y-106516782D01*
X193914311Y-106506554D01*
X193936833Y-106498496D01*
X193960037Y-106492684D01*
X193983698Y-106489174D01*
X194007590Y-106488000D01*
X194495090Y-106488000D01*
X194518982Y-106489174D01*
X194518982Y-106489174D01*
G37*
D11*
X194251340Y-107188000D03*
G04 #@! TD*
D10*
G04 #@! TO.C,C4*
G36*
X143953142Y-115125174D02*
X143976803Y-115128684D01*
X144000007Y-115134496D01*
X144022529Y-115142554D01*
X144044153Y-115152782D01*
X144064670Y-115165079D01*
X144083883Y-115179329D01*
X144101607Y-115195393D01*
X144117671Y-115213117D01*
X144131921Y-115232330D01*
X144144218Y-115252847D01*
X144154446Y-115274471D01*
X144162504Y-115296993D01*
X144168316Y-115320197D01*
X144171826Y-115343858D01*
X144173000Y-115367750D01*
X144173000Y-116280250D01*
X144171826Y-116304142D01*
X144168316Y-116327803D01*
X144162504Y-116351007D01*
X144154446Y-116373529D01*
X144144218Y-116395153D01*
X144131921Y-116415670D01*
X144117671Y-116434883D01*
X144101607Y-116452607D01*
X144083883Y-116468671D01*
X144064670Y-116482921D01*
X144044153Y-116495218D01*
X144022529Y-116505446D01*
X144000007Y-116513504D01*
X143976803Y-116519316D01*
X143953142Y-116522826D01*
X143929250Y-116524000D01*
X143441750Y-116524000D01*
X143417858Y-116522826D01*
X143394197Y-116519316D01*
X143370993Y-116513504D01*
X143348471Y-116505446D01*
X143326847Y-116495218D01*
X143306330Y-116482921D01*
X143287117Y-116468671D01*
X143269393Y-116452607D01*
X143253329Y-116434883D01*
X143239079Y-116415670D01*
X143226782Y-116395153D01*
X143216554Y-116373529D01*
X143208496Y-116351007D01*
X143202684Y-116327803D01*
X143199174Y-116304142D01*
X143198000Y-116280250D01*
X143198000Y-115367750D01*
X143199174Y-115343858D01*
X143202684Y-115320197D01*
X143208496Y-115296993D01*
X143216554Y-115274471D01*
X143226782Y-115252847D01*
X143239079Y-115232330D01*
X143253329Y-115213117D01*
X143269393Y-115195393D01*
X143287117Y-115179329D01*
X143306330Y-115165079D01*
X143326847Y-115152782D01*
X143348471Y-115142554D01*
X143370993Y-115134496D01*
X143394197Y-115128684D01*
X143417858Y-115125174D01*
X143441750Y-115124000D01*
X143929250Y-115124000D01*
X143953142Y-115125174D01*
X143953142Y-115125174D01*
G37*
D11*
X143685500Y-115824000D03*
D10*
G36*
X142078142Y-115125174D02*
X142101803Y-115128684D01*
X142125007Y-115134496D01*
X142147529Y-115142554D01*
X142169153Y-115152782D01*
X142189670Y-115165079D01*
X142208883Y-115179329D01*
X142226607Y-115195393D01*
X142242671Y-115213117D01*
X142256921Y-115232330D01*
X142269218Y-115252847D01*
X142279446Y-115274471D01*
X142287504Y-115296993D01*
X142293316Y-115320197D01*
X142296826Y-115343858D01*
X142298000Y-115367750D01*
X142298000Y-116280250D01*
X142296826Y-116304142D01*
X142293316Y-116327803D01*
X142287504Y-116351007D01*
X142279446Y-116373529D01*
X142269218Y-116395153D01*
X142256921Y-116415670D01*
X142242671Y-116434883D01*
X142226607Y-116452607D01*
X142208883Y-116468671D01*
X142189670Y-116482921D01*
X142169153Y-116495218D01*
X142147529Y-116505446D01*
X142125007Y-116513504D01*
X142101803Y-116519316D01*
X142078142Y-116522826D01*
X142054250Y-116524000D01*
X141566750Y-116524000D01*
X141542858Y-116522826D01*
X141519197Y-116519316D01*
X141495993Y-116513504D01*
X141473471Y-116505446D01*
X141451847Y-116495218D01*
X141431330Y-116482921D01*
X141412117Y-116468671D01*
X141394393Y-116452607D01*
X141378329Y-116434883D01*
X141364079Y-116415670D01*
X141351782Y-116395153D01*
X141341554Y-116373529D01*
X141333496Y-116351007D01*
X141327684Y-116327803D01*
X141324174Y-116304142D01*
X141323000Y-116280250D01*
X141323000Y-115367750D01*
X141324174Y-115343858D01*
X141327684Y-115320197D01*
X141333496Y-115296993D01*
X141341554Y-115274471D01*
X141351782Y-115252847D01*
X141364079Y-115232330D01*
X141378329Y-115213117D01*
X141394393Y-115195393D01*
X141412117Y-115179329D01*
X141431330Y-115165079D01*
X141451847Y-115152782D01*
X141473471Y-115142554D01*
X141495993Y-115134496D01*
X141519197Y-115128684D01*
X141542858Y-115125174D01*
X141566750Y-115124000D01*
X142054250Y-115124000D01*
X142078142Y-115125174D01*
X142078142Y-115125174D01*
G37*
D11*
X141810500Y-115824000D03*
G04 #@! TD*
D10*
G04 #@! TO.C,C5*
G36*
X182210142Y-115125174D02*
X182233803Y-115128684D01*
X182257007Y-115134496D01*
X182279529Y-115142554D01*
X182301153Y-115152782D01*
X182321670Y-115165079D01*
X182340883Y-115179329D01*
X182358607Y-115195393D01*
X182374671Y-115213117D01*
X182388921Y-115232330D01*
X182401218Y-115252847D01*
X182411446Y-115274471D01*
X182419504Y-115296993D01*
X182425316Y-115320197D01*
X182428826Y-115343858D01*
X182430000Y-115367750D01*
X182430000Y-116280250D01*
X182428826Y-116304142D01*
X182425316Y-116327803D01*
X182419504Y-116351007D01*
X182411446Y-116373529D01*
X182401218Y-116395153D01*
X182388921Y-116415670D01*
X182374671Y-116434883D01*
X182358607Y-116452607D01*
X182340883Y-116468671D01*
X182321670Y-116482921D01*
X182301153Y-116495218D01*
X182279529Y-116505446D01*
X182257007Y-116513504D01*
X182233803Y-116519316D01*
X182210142Y-116522826D01*
X182186250Y-116524000D01*
X181698750Y-116524000D01*
X181674858Y-116522826D01*
X181651197Y-116519316D01*
X181627993Y-116513504D01*
X181605471Y-116505446D01*
X181583847Y-116495218D01*
X181563330Y-116482921D01*
X181544117Y-116468671D01*
X181526393Y-116452607D01*
X181510329Y-116434883D01*
X181496079Y-116415670D01*
X181483782Y-116395153D01*
X181473554Y-116373529D01*
X181465496Y-116351007D01*
X181459684Y-116327803D01*
X181456174Y-116304142D01*
X181455000Y-116280250D01*
X181455000Y-115367750D01*
X181456174Y-115343858D01*
X181459684Y-115320197D01*
X181465496Y-115296993D01*
X181473554Y-115274471D01*
X181483782Y-115252847D01*
X181496079Y-115232330D01*
X181510329Y-115213117D01*
X181526393Y-115195393D01*
X181544117Y-115179329D01*
X181563330Y-115165079D01*
X181583847Y-115152782D01*
X181605471Y-115142554D01*
X181627993Y-115134496D01*
X181651197Y-115128684D01*
X181674858Y-115125174D01*
X181698750Y-115124000D01*
X182186250Y-115124000D01*
X182210142Y-115125174D01*
X182210142Y-115125174D01*
G37*
D11*
X181942500Y-115824000D03*
D10*
G36*
X184085142Y-115125174D02*
X184108803Y-115128684D01*
X184132007Y-115134496D01*
X184154529Y-115142554D01*
X184176153Y-115152782D01*
X184196670Y-115165079D01*
X184215883Y-115179329D01*
X184233607Y-115195393D01*
X184249671Y-115213117D01*
X184263921Y-115232330D01*
X184276218Y-115252847D01*
X184286446Y-115274471D01*
X184294504Y-115296993D01*
X184300316Y-115320197D01*
X184303826Y-115343858D01*
X184305000Y-115367750D01*
X184305000Y-116280250D01*
X184303826Y-116304142D01*
X184300316Y-116327803D01*
X184294504Y-116351007D01*
X184286446Y-116373529D01*
X184276218Y-116395153D01*
X184263921Y-116415670D01*
X184249671Y-116434883D01*
X184233607Y-116452607D01*
X184215883Y-116468671D01*
X184196670Y-116482921D01*
X184176153Y-116495218D01*
X184154529Y-116505446D01*
X184132007Y-116513504D01*
X184108803Y-116519316D01*
X184085142Y-116522826D01*
X184061250Y-116524000D01*
X183573750Y-116524000D01*
X183549858Y-116522826D01*
X183526197Y-116519316D01*
X183502993Y-116513504D01*
X183480471Y-116505446D01*
X183458847Y-116495218D01*
X183438330Y-116482921D01*
X183419117Y-116468671D01*
X183401393Y-116452607D01*
X183385329Y-116434883D01*
X183371079Y-116415670D01*
X183358782Y-116395153D01*
X183348554Y-116373529D01*
X183340496Y-116351007D01*
X183334684Y-116327803D01*
X183331174Y-116304142D01*
X183330000Y-116280250D01*
X183330000Y-115367750D01*
X183331174Y-115343858D01*
X183334684Y-115320197D01*
X183340496Y-115296993D01*
X183348554Y-115274471D01*
X183358782Y-115252847D01*
X183371079Y-115232330D01*
X183385329Y-115213117D01*
X183401393Y-115195393D01*
X183419117Y-115179329D01*
X183438330Y-115165079D01*
X183458847Y-115152782D01*
X183480471Y-115142554D01*
X183502993Y-115134496D01*
X183526197Y-115128684D01*
X183549858Y-115125174D01*
X183573750Y-115124000D01*
X184061250Y-115124000D01*
X184085142Y-115125174D01*
X184085142Y-115125174D01*
G37*
D11*
X183817500Y-115824000D03*
G04 #@! TD*
D10*
G04 #@! TO.C,C7*
G36*
X142212142Y-73095174D02*
X142235803Y-73098684D01*
X142259007Y-73104496D01*
X142281529Y-73112554D01*
X142303153Y-73122782D01*
X142323670Y-73135079D01*
X142342883Y-73149329D01*
X142360607Y-73165393D01*
X142376671Y-73183117D01*
X142390921Y-73202330D01*
X142403218Y-73222847D01*
X142413446Y-73244471D01*
X142421504Y-73266993D01*
X142427316Y-73290197D01*
X142430826Y-73313858D01*
X142432000Y-73337750D01*
X142432000Y-73825250D01*
X142430826Y-73849142D01*
X142427316Y-73872803D01*
X142421504Y-73896007D01*
X142413446Y-73918529D01*
X142403218Y-73940153D01*
X142390921Y-73960670D01*
X142376671Y-73979883D01*
X142360607Y-73997607D01*
X142342883Y-74013671D01*
X142323670Y-74027921D01*
X142303153Y-74040218D01*
X142281529Y-74050446D01*
X142259007Y-74058504D01*
X142235803Y-74064316D01*
X142212142Y-74067826D01*
X142188250Y-74069000D01*
X141275750Y-74069000D01*
X141251858Y-74067826D01*
X141228197Y-74064316D01*
X141204993Y-74058504D01*
X141182471Y-74050446D01*
X141160847Y-74040218D01*
X141140330Y-74027921D01*
X141121117Y-74013671D01*
X141103393Y-73997607D01*
X141087329Y-73979883D01*
X141073079Y-73960670D01*
X141060782Y-73940153D01*
X141050554Y-73918529D01*
X141042496Y-73896007D01*
X141036684Y-73872803D01*
X141033174Y-73849142D01*
X141032000Y-73825250D01*
X141032000Y-73337750D01*
X141033174Y-73313858D01*
X141036684Y-73290197D01*
X141042496Y-73266993D01*
X141050554Y-73244471D01*
X141060782Y-73222847D01*
X141073079Y-73202330D01*
X141087329Y-73183117D01*
X141103393Y-73165393D01*
X141121117Y-73149329D01*
X141140330Y-73135079D01*
X141160847Y-73122782D01*
X141182471Y-73112554D01*
X141204993Y-73104496D01*
X141228197Y-73098684D01*
X141251858Y-73095174D01*
X141275750Y-73094000D01*
X142188250Y-73094000D01*
X142212142Y-73095174D01*
X142212142Y-73095174D01*
G37*
D11*
X141732000Y-73581500D03*
D10*
G36*
X142212142Y-71220174D02*
X142235803Y-71223684D01*
X142259007Y-71229496D01*
X142281529Y-71237554D01*
X142303153Y-71247782D01*
X142323670Y-71260079D01*
X142342883Y-71274329D01*
X142360607Y-71290393D01*
X142376671Y-71308117D01*
X142390921Y-71327330D01*
X142403218Y-71347847D01*
X142413446Y-71369471D01*
X142421504Y-71391993D01*
X142427316Y-71415197D01*
X142430826Y-71438858D01*
X142432000Y-71462750D01*
X142432000Y-71950250D01*
X142430826Y-71974142D01*
X142427316Y-71997803D01*
X142421504Y-72021007D01*
X142413446Y-72043529D01*
X142403218Y-72065153D01*
X142390921Y-72085670D01*
X142376671Y-72104883D01*
X142360607Y-72122607D01*
X142342883Y-72138671D01*
X142323670Y-72152921D01*
X142303153Y-72165218D01*
X142281529Y-72175446D01*
X142259007Y-72183504D01*
X142235803Y-72189316D01*
X142212142Y-72192826D01*
X142188250Y-72194000D01*
X141275750Y-72194000D01*
X141251858Y-72192826D01*
X141228197Y-72189316D01*
X141204993Y-72183504D01*
X141182471Y-72175446D01*
X141160847Y-72165218D01*
X141140330Y-72152921D01*
X141121117Y-72138671D01*
X141103393Y-72122607D01*
X141087329Y-72104883D01*
X141073079Y-72085670D01*
X141060782Y-72065153D01*
X141050554Y-72043529D01*
X141042496Y-72021007D01*
X141036684Y-71997803D01*
X141033174Y-71974142D01*
X141032000Y-71950250D01*
X141032000Y-71462750D01*
X141033174Y-71438858D01*
X141036684Y-71415197D01*
X141042496Y-71391993D01*
X141050554Y-71369471D01*
X141060782Y-71347847D01*
X141073079Y-71327330D01*
X141087329Y-71308117D01*
X141103393Y-71290393D01*
X141121117Y-71274329D01*
X141140330Y-71260079D01*
X141160847Y-71247782D01*
X141182471Y-71237554D01*
X141204993Y-71229496D01*
X141228197Y-71223684D01*
X141251858Y-71220174D01*
X141275750Y-71219000D01*
X142188250Y-71219000D01*
X142212142Y-71220174D01*
X142212142Y-71220174D01*
G37*
D11*
X141732000Y-71706500D03*
G04 #@! TD*
D10*
G04 #@! TO.C,C8*
G36*
X139672142Y-71220174D02*
X139695803Y-71223684D01*
X139719007Y-71229496D01*
X139741529Y-71237554D01*
X139763153Y-71247782D01*
X139783670Y-71260079D01*
X139802883Y-71274329D01*
X139820607Y-71290393D01*
X139836671Y-71308117D01*
X139850921Y-71327330D01*
X139863218Y-71347847D01*
X139873446Y-71369471D01*
X139881504Y-71391993D01*
X139887316Y-71415197D01*
X139890826Y-71438858D01*
X139892000Y-71462750D01*
X139892000Y-71950250D01*
X139890826Y-71974142D01*
X139887316Y-71997803D01*
X139881504Y-72021007D01*
X139873446Y-72043529D01*
X139863218Y-72065153D01*
X139850921Y-72085670D01*
X139836671Y-72104883D01*
X139820607Y-72122607D01*
X139802883Y-72138671D01*
X139783670Y-72152921D01*
X139763153Y-72165218D01*
X139741529Y-72175446D01*
X139719007Y-72183504D01*
X139695803Y-72189316D01*
X139672142Y-72192826D01*
X139648250Y-72194000D01*
X138735750Y-72194000D01*
X138711858Y-72192826D01*
X138688197Y-72189316D01*
X138664993Y-72183504D01*
X138642471Y-72175446D01*
X138620847Y-72165218D01*
X138600330Y-72152921D01*
X138581117Y-72138671D01*
X138563393Y-72122607D01*
X138547329Y-72104883D01*
X138533079Y-72085670D01*
X138520782Y-72065153D01*
X138510554Y-72043529D01*
X138502496Y-72021007D01*
X138496684Y-71997803D01*
X138493174Y-71974142D01*
X138492000Y-71950250D01*
X138492000Y-71462750D01*
X138493174Y-71438858D01*
X138496684Y-71415197D01*
X138502496Y-71391993D01*
X138510554Y-71369471D01*
X138520782Y-71347847D01*
X138533079Y-71327330D01*
X138547329Y-71308117D01*
X138563393Y-71290393D01*
X138581117Y-71274329D01*
X138600330Y-71260079D01*
X138620847Y-71247782D01*
X138642471Y-71237554D01*
X138664993Y-71229496D01*
X138688197Y-71223684D01*
X138711858Y-71220174D01*
X138735750Y-71219000D01*
X139648250Y-71219000D01*
X139672142Y-71220174D01*
X139672142Y-71220174D01*
G37*
D11*
X139192000Y-71706500D03*
D10*
G36*
X139672142Y-73095174D02*
X139695803Y-73098684D01*
X139719007Y-73104496D01*
X139741529Y-73112554D01*
X139763153Y-73122782D01*
X139783670Y-73135079D01*
X139802883Y-73149329D01*
X139820607Y-73165393D01*
X139836671Y-73183117D01*
X139850921Y-73202330D01*
X139863218Y-73222847D01*
X139873446Y-73244471D01*
X139881504Y-73266993D01*
X139887316Y-73290197D01*
X139890826Y-73313858D01*
X139892000Y-73337750D01*
X139892000Y-73825250D01*
X139890826Y-73849142D01*
X139887316Y-73872803D01*
X139881504Y-73896007D01*
X139873446Y-73918529D01*
X139863218Y-73940153D01*
X139850921Y-73960670D01*
X139836671Y-73979883D01*
X139820607Y-73997607D01*
X139802883Y-74013671D01*
X139783670Y-74027921D01*
X139763153Y-74040218D01*
X139741529Y-74050446D01*
X139719007Y-74058504D01*
X139695803Y-74064316D01*
X139672142Y-74067826D01*
X139648250Y-74069000D01*
X138735750Y-74069000D01*
X138711858Y-74067826D01*
X138688197Y-74064316D01*
X138664993Y-74058504D01*
X138642471Y-74050446D01*
X138620847Y-74040218D01*
X138600330Y-74027921D01*
X138581117Y-74013671D01*
X138563393Y-73997607D01*
X138547329Y-73979883D01*
X138533079Y-73960670D01*
X138520782Y-73940153D01*
X138510554Y-73918529D01*
X138502496Y-73896007D01*
X138496684Y-73872803D01*
X138493174Y-73849142D01*
X138492000Y-73825250D01*
X138492000Y-73337750D01*
X138493174Y-73313858D01*
X138496684Y-73290197D01*
X138502496Y-73266993D01*
X138510554Y-73244471D01*
X138520782Y-73222847D01*
X138533079Y-73202330D01*
X138547329Y-73183117D01*
X138563393Y-73165393D01*
X138581117Y-73149329D01*
X138600330Y-73135079D01*
X138620847Y-73122782D01*
X138642471Y-73112554D01*
X138664993Y-73104496D01*
X138688197Y-73098684D01*
X138711858Y-73095174D01*
X138735750Y-73094000D01*
X139648250Y-73094000D01*
X139672142Y-73095174D01*
X139672142Y-73095174D01*
G37*
D11*
X139192000Y-73581500D03*
G04 #@! TD*
D10*
G04 #@! TO.C,C9*
G36*
X144752142Y-73095174D02*
X144775803Y-73098684D01*
X144799007Y-73104496D01*
X144821529Y-73112554D01*
X144843153Y-73122782D01*
X144863670Y-73135079D01*
X144882883Y-73149329D01*
X144900607Y-73165393D01*
X144916671Y-73183117D01*
X144930921Y-73202330D01*
X144943218Y-73222847D01*
X144953446Y-73244471D01*
X144961504Y-73266993D01*
X144967316Y-73290197D01*
X144970826Y-73313858D01*
X144972000Y-73337750D01*
X144972000Y-73825250D01*
X144970826Y-73849142D01*
X144967316Y-73872803D01*
X144961504Y-73896007D01*
X144953446Y-73918529D01*
X144943218Y-73940153D01*
X144930921Y-73960670D01*
X144916671Y-73979883D01*
X144900607Y-73997607D01*
X144882883Y-74013671D01*
X144863670Y-74027921D01*
X144843153Y-74040218D01*
X144821529Y-74050446D01*
X144799007Y-74058504D01*
X144775803Y-74064316D01*
X144752142Y-74067826D01*
X144728250Y-74069000D01*
X143815750Y-74069000D01*
X143791858Y-74067826D01*
X143768197Y-74064316D01*
X143744993Y-74058504D01*
X143722471Y-74050446D01*
X143700847Y-74040218D01*
X143680330Y-74027921D01*
X143661117Y-74013671D01*
X143643393Y-73997607D01*
X143627329Y-73979883D01*
X143613079Y-73960670D01*
X143600782Y-73940153D01*
X143590554Y-73918529D01*
X143582496Y-73896007D01*
X143576684Y-73872803D01*
X143573174Y-73849142D01*
X143572000Y-73825250D01*
X143572000Y-73337750D01*
X143573174Y-73313858D01*
X143576684Y-73290197D01*
X143582496Y-73266993D01*
X143590554Y-73244471D01*
X143600782Y-73222847D01*
X143613079Y-73202330D01*
X143627329Y-73183117D01*
X143643393Y-73165393D01*
X143661117Y-73149329D01*
X143680330Y-73135079D01*
X143700847Y-73122782D01*
X143722471Y-73112554D01*
X143744993Y-73104496D01*
X143768197Y-73098684D01*
X143791858Y-73095174D01*
X143815750Y-73094000D01*
X144728250Y-73094000D01*
X144752142Y-73095174D01*
X144752142Y-73095174D01*
G37*
D11*
X144272000Y-73581500D03*
D10*
G36*
X144752142Y-71220174D02*
X144775803Y-71223684D01*
X144799007Y-71229496D01*
X144821529Y-71237554D01*
X144843153Y-71247782D01*
X144863670Y-71260079D01*
X144882883Y-71274329D01*
X144900607Y-71290393D01*
X144916671Y-71308117D01*
X144930921Y-71327330D01*
X144943218Y-71347847D01*
X144953446Y-71369471D01*
X144961504Y-71391993D01*
X144967316Y-71415197D01*
X144970826Y-71438858D01*
X144972000Y-71462750D01*
X144972000Y-71950250D01*
X144970826Y-71974142D01*
X144967316Y-71997803D01*
X144961504Y-72021007D01*
X144953446Y-72043529D01*
X144943218Y-72065153D01*
X144930921Y-72085670D01*
X144916671Y-72104883D01*
X144900607Y-72122607D01*
X144882883Y-72138671D01*
X144863670Y-72152921D01*
X144843153Y-72165218D01*
X144821529Y-72175446D01*
X144799007Y-72183504D01*
X144775803Y-72189316D01*
X144752142Y-72192826D01*
X144728250Y-72194000D01*
X143815750Y-72194000D01*
X143791858Y-72192826D01*
X143768197Y-72189316D01*
X143744993Y-72183504D01*
X143722471Y-72175446D01*
X143700847Y-72165218D01*
X143680330Y-72152921D01*
X143661117Y-72138671D01*
X143643393Y-72122607D01*
X143627329Y-72104883D01*
X143613079Y-72085670D01*
X143600782Y-72065153D01*
X143590554Y-72043529D01*
X143582496Y-72021007D01*
X143576684Y-71997803D01*
X143573174Y-71974142D01*
X143572000Y-71950250D01*
X143572000Y-71462750D01*
X143573174Y-71438858D01*
X143576684Y-71415197D01*
X143582496Y-71391993D01*
X143590554Y-71369471D01*
X143600782Y-71347847D01*
X143613079Y-71327330D01*
X143627329Y-71308117D01*
X143643393Y-71290393D01*
X143661117Y-71274329D01*
X143680330Y-71260079D01*
X143700847Y-71247782D01*
X143722471Y-71237554D01*
X143744993Y-71229496D01*
X143768197Y-71223684D01*
X143791858Y-71220174D01*
X143815750Y-71219000D01*
X144728250Y-71219000D01*
X144752142Y-71220174D01*
X144752142Y-71220174D01*
G37*
D11*
X144272000Y-71706500D03*
G04 #@! TD*
D10*
G04 #@! TO.C,C10*
G36*
X128205142Y-74993174D02*
X128228803Y-74996684D01*
X128252007Y-75002496D01*
X128274529Y-75010554D01*
X128296153Y-75020782D01*
X128316670Y-75033079D01*
X128335883Y-75047329D01*
X128353607Y-75063393D01*
X128369671Y-75081117D01*
X128383921Y-75100330D01*
X128396218Y-75120847D01*
X128406446Y-75142471D01*
X128414504Y-75164993D01*
X128420316Y-75188197D01*
X128423826Y-75211858D01*
X128425000Y-75235750D01*
X128425000Y-76148250D01*
X128423826Y-76172142D01*
X128420316Y-76195803D01*
X128414504Y-76219007D01*
X128406446Y-76241529D01*
X128396218Y-76263153D01*
X128383921Y-76283670D01*
X128369671Y-76302883D01*
X128353607Y-76320607D01*
X128335883Y-76336671D01*
X128316670Y-76350921D01*
X128296153Y-76363218D01*
X128274529Y-76373446D01*
X128252007Y-76381504D01*
X128228803Y-76387316D01*
X128205142Y-76390826D01*
X128181250Y-76392000D01*
X127693750Y-76392000D01*
X127669858Y-76390826D01*
X127646197Y-76387316D01*
X127622993Y-76381504D01*
X127600471Y-76373446D01*
X127578847Y-76363218D01*
X127558330Y-76350921D01*
X127539117Y-76336671D01*
X127521393Y-76320607D01*
X127505329Y-76302883D01*
X127491079Y-76283670D01*
X127478782Y-76263153D01*
X127468554Y-76241529D01*
X127460496Y-76219007D01*
X127454684Y-76195803D01*
X127451174Y-76172142D01*
X127450000Y-76148250D01*
X127450000Y-75235750D01*
X127451174Y-75211858D01*
X127454684Y-75188197D01*
X127460496Y-75164993D01*
X127468554Y-75142471D01*
X127478782Y-75120847D01*
X127491079Y-75100330D01*
X127505329Y-75081117D01*
X127521393Y-75063393D01*
X127539117Y-75047329D01*
X127558330Y-75033079D01*
X127578847Y-75020782D01*
X127600471Y-75010554D01*
X127622993Y-75002496D01*
X127646197Y-74996684D01*
X127669858Y-74993174D01*
X127693750Y-74992000D01*
X128181250Y-74992000D01*
X128205142Y-74993174D01*
X128205142Y-74993174D01*
G37*
D11*
X127937500Y-75692000D03*
D10*
G36*
X126330142Y-74993174D02*
X126353803Y-74996684D01*
X126377007Y-75002496D01*
X126399529Y-75010554D01*
X126421153Y-75020782D01*
X126441670Y-75033079D01*
X126460883Y-75047329D01*
X126478607Y-75063393D01*
X126494671Y-75081117D01*
X126508921Y-75100330D01*
X126521218Y-75120847D01*
X126531446Y-75142471D01*
X126539504Y-75164993D01*
X126545316Y-75188197D01*
X126548826Y-75211858D01*
X126550000Y-75235750D01*
X126550000Y-76148250D01*
X126548826Y-76172142D01*
X126545316Y-76195803D01*
X126539504Y-76219007D01*
X126531446Y-76241529D01*
X126521218Y-76263153D01*
X126508921Y-76283670D01*
X126494671Y-76302883D01*
X126478607Y-76320607D01*
X126460883Y-76336671D01*
X126441670Y-76350921D01*
X126421153Y-76363218D01*
X126399529Y-76373446D01*
X126377007Y-76381504D01*
X126353803Y-76387316D01*
X126330142Y-76390826D01*
X126306250Y-76392000D01*
X125818750Y-76392000D01*
X125794858Y-76390826D01*
X125771197Y-76387316D01*
X125747993Y-76381504D01*
X125725471Y-76373446D01*
X125703847Y-76363218D01*
X125683330Y-76350921D01*
X125664117Y-76336671D01*
X125646393Y-76320607D01*
X125630329Y-76302883D01*
X125616079Y-76283670D01*
X125603782Y-76263153D01*
X125593554Y-76241529D01*
X125585496Y-76219007D01*
X125579684Y-76195803D01*
X125576174Y-76172142D01*
X125575000Y-76148250D01*
X125575000Y-75235750D01*
X125576174Y-75211858D01*
X125579684Y-75188197D01*
X125585496Y-75164993D01*
X125593554Y-75142471D01*
X125603782Y-75120847D01*
X125616079Y-75100330D01*
X125630329Y-75081117D01*
X125646393Y-75063393D01*
X125664117Y-75047329D01*
X125683330Y-75033079D01*
X125703847Y-75020782D01*
X125725471Y-75010554D01*
X125747993Y-75002496D01*
X125771197Y-74996684D01*
X125794858Y-74993174D01*
X125818750Y-74992000D01*
X126306250Y-74992000D01*
X126330142Y-74993174D01*
X126330142Y-74993174D01*
G37*
D11*
X126062500Y-75692000D03*
G04 #@! TD*
D10*
G04 #@! TO.C,C11*
G36*
X150206142Y-59245174D02*
X150229803Y-59248684D01*
X150253007Y-59254496D01*
X150275529Y-59262554D01*
X150297153Y-59272782D01*
X150317670Y-59285079D01*
X150336883Y-59299329D01*
X150354607Y-59315393D01*
X150370671Y-59333117D01*
X150384921Y-59352330D01*
X150397218Y-59372847D01*
X150407446Y-59394471D01*
X150415504Y-59416993D01*
X150421316Y-59440197D01*
X150424826Y-59463858D01*
X150426000Y-59487750D01*
X150426000Y-60400250D01*
X150424826Y-60424142D01*
X150421316Y-60447803D01*
X150415504Y-60471007D01*
X150407446Y-60493529D01*
X150397218Y-60515153D01*
X150384921Y-60535670D01*
X150370671Y-60554883D01*
X150354607Y-60572607D01*
X150336883Y-60588671D01*
X150317670Y-60602921D01*
X150297153Y-60615218D01*
X150275529Y-60625446D01*
X150253007Y-60633504D01*
X150229803Y-60639316D01*
X150206142Y-60642826D01*
X150182250Y-60644000D01*
X149694750Y-60644000D01*
X149670858Y-60642826D01*
X149647197Y-60639316D01*
X149623993Y-60633504D01*
X149601471Y-60625446D01*
X149579847Y-60615218D01*
X149559330Y-60602921D01*
X149540117Y-60588671D01*
X149522393Y-60572607D01*
X149506329Y-60554883D01*
X149492079Y-60535670D01*
X149479782Y-60515153D01*
X149469554Y-60493529D01*
X149461496Y-60471007D01*
X149455684Y-60447803D01*
X149452174Y-60424142D01*
X149451000Y-60400250D01*
X149451000Y-59487750D01*
X149452174Y-59463858D01*
X149455684Y-59440197D01*
X149461496Y-59416993D01*
X149469554Y-59394471D01*
X149479782Y-59372847D01*
X149492079Y-59352330D01*
X149506329Y-59333117D01*
X149522393Y-59315393D01*
X149540117Y-59299329D01*
X149559330Y-59285079D01*
X149579847Y-59272782D01*
X149601471Y-59262554D01*
X149623993Y-59254496D01*
X149647197Y-59248684D01*
X149670858Y-59245174D01*
X149694750Y-59244000D01*
X150182250Y-59244000D01*
X150206142Y-59245174D01*
X150206142Y-59245174D01*
G37*
D11*
X149938500Y-59944000D03*
D10*
G36*
X152081142Y-59245174D02*
X152104803Y-59248684D01*
X152128007Y-59254496D01*
X152150529Y-59262554D01*
X152172153Y-59272782D01*
X152192670Y-59285079D01*
X152211883Y-59299329D01*
X152229607Y-59315393D01*
X152245671Y-59333117D01*
X152259921Y-59352330D01*
X152272218Y-59372847D01*
X152282446Y-59394471D01*
X152290504Y-59416993D01*
X152296316Y-59440197D01*
X152299826Y-59463858D01*
X152301000Y-59487750D01*
X152301000Y-60400250D01*
X152299826Y-60424142D01*
X152296316Y-60447803D01*
X152290504Y-60471007D01*
X152282446Y-60493529D01*
X152272218Y-60515153D01*
X152259921Y-60535670D01*
X152245671Y-60554883D01*
X152229607Y-60572607D01*
X152211883Y-60588671D01*
X152192670Y-60602921D01*
X152172153Y-60615218D01*
X152150529Y-60625446D01*
X152128007Y-60633504D01*
X152104803Y-60639316D01*
X152081142Y-60642826D01*
X152057250Y-60644000D01*
X151569750Y-60644000D01*
X151545858Y-60642826D01*
X151522197Y-60639316D01*
X151498993Y-60633504D01*
X151476471Y-60625446D01*
X151454847Y-60615218D01*
X151434330Y-60602921D01*
X151415117Y-60588671D01*
X151397393Y-60572607D01*
X151381329Y-60554883D01*
X151367079Y-60535670D01*
X151354782Y-60515153D01*
X151344554Y-60493529D01*
X151336496Y-60471007D01*
X151330684Y-60447803D01*
X151327174Y-60424142D01*
X151326000Y-60400250D01*
X151326000Y-59487750D01*
X151327174Y-59463858D01*
X151330684Y-59440197D01*
X151336496Y-59416993D01*
X151344554Y-59394471D01*
X151354782Y-59372847D01*
X151367079Y-59352330D01*
X151381329Y-59333117D01*
X151397393Y-59315393D01*
X151415117Y-59299329D01*
X151434330Y-59285079D01*
X151454847Y-59272782D01*
X151476471Y-59262554D01*
X151498993Y-59254496D01*
X151522197Y-59248684D01*
X151545858Y-59245174D01*
X151569750Y-59244000D01*
X152057250Y-59244000D01*
X152081142Y-59245174D01*
X152081142Y-59245174D01*
G37*
D11*
X151813500Y-59944000D03*
G04 #@! TD*
D10*
G04 #@! TO.C,C13*
G36*
X126173142Y-116141174D02*
X126196803Y-116144684D01*
X126220007Y-116150496D01*
X126242529Y-116158554D01*
X126264153Y-116168782D01*
X126284670Y-116181079D01*
X126303883Y-116195329D01*
X126321607Y-116211393D01*
X126337671Y-116229117D01*
X126351921Y-116248330D01*
X126364218Y-116268847D01*
X126374446Y-116290471D01*
X126382504Y-116312993D01*
X126388316Y-116336197D01*
X126391826Y-116359858D01*
X126393000Y-116383750D01*
X126393000Y-117296250D01*
X126391826Y-117320142D01*
X126388316Y-117343803D01*
X126382504Y-117367007D01*
X126374446Y-117389529D01*
X126364218Y-117411153D01*
X126351921Y-117431670D01*
X126337671Y-117450883D01*
X126321607Y-117468607D01*
X126303883Y-117484671D01*
X126284670Y-117498921D01*
X126264153Y-117511218D01*
X126242529Y-117521446D01*
X126220007Y-117529504D01*
X126196803Y-117535316D01*
X126173142Y-117538826D01*
X126149250Y-117540000D01*
X125661750Y-117540000D01*
X125637858Y-117538826D01*
X125614197Y-117535316D01*
X125590993Y-117529504D01*
X125568471Y-117521446D01*
X125546847Y-117511218D01*
X125526330Y-117498921D01*
X125507117Y-117484671D01*
X125489393Y-117468607D01*
X125473329Y-117450883D01*
X125459079Y-117431670D01*
X125446782Y-117411153D01*
X125436554Y-117389529D01*
X125428496Y-117367007D01*
X125422684Y-117343803D01*
X125419174Y-117320142D01*
X125418000Y-117296250D01*
X125418000Y-116383750D01*
X125419174Y-116359858D01*
X125422684Y-116336197D01*
X125428496Y-116312993D01*
X125436554Y-116290471D01*
X125446782Y-116268847D01*
X125459079Y-116248330D01*
X125473329Y-116229117D01*
X125489393Y-116211393D01*
X125507117Y-116195329D01*
X125526330Y-116181079D01*
X125546847Y-116168782D01*
X125568471Y-116158554D01*
X125590993Y-116150496D01*
X125614197Y-116144684D01*
X125637858Y-116141174D01*
X125661750Y-116140000D01*
X126149250Y-116140000D01*
X126173142Y-116141174D01*
X126173142Y-116141174D01*
G37*
D11*
X125905500Y-116840000D03*
D10*
G36*
X124298142Y-116141174D02*
X124321803Y-116144684D01*
X124345007Y-116150496D01*
X124367529Y-116158554D01*
X124389153Y-116168782D01*
X124409670Y-116181079D01*
X124428883Y-116195329D01*
X124446607Y-116211393D01*
X124462671Y-116229117D01*
X124476921Y-116248330D01*
X124489218Y-116268847D01*
X124499446Y-116290471D01*
X124507504Y-116312993D01*
X124513316Y-116336197D01*
X124516826Y-116359858D01*
X124518000Y-116383750D01*
X124518000Y-117296250D01*
X124516826Y-117320142D01*
X124513316Y-117343803D01*
X124507504Y-117367007D01*
X124499446Y-117389529D01*
X124489218Y-117411153D01*
X124476921Y-117431670D01*
X124462671Y-117450883D01*
X124446607Y-117468607D01*
X124428883Y-117484671D01*
X124409670Y-117498921D01*
X124389153Y-117511218D01*
X124367529Y-117521446D01*
X124345007Y-117529504D01*
X124321803Y-117535316D01*
X124298142Y-117538826D01*
X124274250Y-117540000D01*
X123786750Y-117540000D01*
X123762858Y-117538826D01*
X123739197Y-117535316D01*
X123715993Y-117529504D01*
X123693471Y-117521446D01*
X123671847Y-117511218D01*
X123651330Y-117498921D01*
X123632117Y-117484671D01*
X123614393Y-117468607D01*
X123598329Y-117450883D01*
X123584079Y-117431670D01*
X123571782Y-117411153D01*
X123561554Y-117389529D01*
X123553496Y-117367007D01*
X123547684Y-117343803D01*
X123544174Y-117320142D01*
X123543000Y-117296250D01*
X123543000Y-116383750D01*
X123544174Y-116359858D01*
X123547684Y-116336197D01*
X123553496Y-116312993D01*
X123561554Y-116290471D01*
X123571782Y-116268847D01*
X123584079Y-116248330D01*
X123598329Y-116229117D01*
X123614393Y-116211393D01*
X123632117Y-116195329D01*
X123651330Y-116181079D01*
X123671847Y-116168782D01*
X123693471Y-116158554D01*
X123715993Y-116150496D01*
X123739197Y-116144684D01*
X123762858Y-116141174D01*
X123786750Y-116140000D01*
X124274250Y-116140000D01*
X124298142Y-116141174D01*
X124298142Y-116141174D01*
G37*
D11*
X124030500Y-116840000D03*
G04 #@! TD*
D10*
G04 #@! TO.C,C14*
G36*
X135825142Y-54673174D02*
X135848803Y-54676684D01*
X135872007Y-54682496D01*
X135894529Y-54690554D01*
X135916153Y-54700782D01*
X135936670Y-54713079D01*
X135955883Y-54727329D01*
X135973607Y-54743393D01*
X135989671Y-54761117D01*
X136003921Y-54780330D01*
X136016218Y-54800847D01*
X136026446Y-54822471D01*
X136034504Y-54844993D01*
X136040316Y-54868197D01*
X136043826Y-54891858D01*
X136045000Y-54915750D01*
X136045000Y-55828250D01*
X136043826Y-55852142D01*
X136040316Y-55875803D01*
X136034504Y-55899007D01*
X136026446Y-55921529D01*
X136016218Y-55943153D01*
X136003921Y-55963670D01*
X135989671Y-55982883D01*
X135973607Y-56000607D01*
X135955883Y-56016671D01*
X135936670Y-56030921D01*
X135916153Y-56043218D01*
X135894529Y-56053446D01*
X135872007Y-56061504D01*
X135848803Y-56067316D01*
X135825142Y-56070826D01*
X135801250Y-56072000D01*
X135313750Y-56072000D01*
X135289858Y-56070826D01*
X135266197Y-56067316D01*
X135242993Y-56061504D01*
X135220471Y-56053446D01*
X135198847Y-56043218D01*
X135178330Y-56030921D01*
X135159117Y-56016671D01*
X135141393Y-56000607D01*
X135125329Y-55982883D01*
X135111079Y-55963670D01*
X135098782Y-55943153D01*
X135088554Y-55921529D01*
X135080496Y-55899007D01*
X135074684Y-55875803D01*
X135071174Y-55852142D01*
X135070000Y-55828250D01*
X135070000Y-54915750D01*
X135071174Y-54891858D01*
X135074684Y-54868197D01*
X135080496Y-54844993D01*
X135088554Y-54822471D01*
X135098782Y-54800847D01*
X135111079Y-54780330D01*
X135125329Y-54761117D01*
X135141393Y-54743393D01*
X135159117Y-54727329D01*
X135178330Y-54713079D01*
X135198847Y-54700782D01*
X135220471Y-54690554D01*
X135242993Y-54682496D01*
X135266197Y-54676684D01*
X135289858Y-54673174D01*
X135313750Y-54672000D01*
X135801250Y-54672000D01*
X135825142Y-54673174D01*
X135825142Y-54673174D01*
G37*
D11*
X135557500Y-55372000D03*
D10*
G36*
X133950142Y-54673174D02*
X133973803Y-54676684D01*
X133997007Y-54682496D01*
X134019529Y-54690554D01*
X134041153Y-54700782D01*
X134061670Y-54713079D01*
X134080883Y-54727329D01*
X134098607Y-54743393D01*
X134114671Y-54761117D01*
X134128921Y-54780330D01*
X134141218Y-54800847D01*
X134151446Y-54822471D01*
X134159504Y-54844993D01*
X134165316Y-54868197D01*
X134168826Y-54891858D01*
X134170000Y-54915750D01*
X134170000Y-55828250D01*
X134168826Y-55852142D01*
X134165316Y-55875803D01*
X134159504Y-55899007D01*
X134151446Y-55921529D01*
X134141218Y-55943153D01*
X134128921Y-55963670D01*
X134114671Y-55982883D01*
X134098607Y-56000607D01*
X134080883Y-56016671D01*
X134061670Y-56030921D01*
X134041153Y-56043218D01*
X134019529Y-56053446D01*
X133997007Y-56061504D01*
X133973803Y-56067316D01*
X133950142Y-56070826D01*
X133926250Y-56072000D01*
X133438750Y-56072000D01*
X133414858Y-56070826D01*
X133391197Y-56067316D01*
X133367993Y-56061504D01*
X133345471Y-56053446D01*
X133323847Y-56043218D01*
X133303330Y-56030921D01*
X133284117Y-56016671D01*
X133266393Y-56000607D01*
X133250329Y-55982883D01*
X133236079Y-55963670D01*
X133223782Y-55943153D01*
X133213554Y-55921529D01*
X133205496Y-55899007D01*
X133199684Y-55875803D01*
X133196174Y-55852142D01*
X133195000Y-55828250D01*
X133195000Y-54915750D01*
X133196174Y-54891858D01*
X133199684Y-54868197D01*
X133205496Y-54844993D01*
X133213554Y-54822471D01*
X133223782Y-54800847D01*
X133236079Y-54780330D01*
X133250329Y-54761117D01*
X133266393Y-54743393D01*
X133284117Y-54727329D01*
X133303330Y-54713079D01*
X133323847Y-54700782D01*
X133345471Y-54690554D01*
X133367993Y-54682496D01*
X133391197Y-54676684D01*
X133414858Y-54673174D01*
X133438750Y-54672000D01*
X133926250Y-54672000D01*
X133950142Y-54673174D01*
X133950142Y-54673174D01*
G37*
D11*
X133682500Y-55372000D03*
G04 #@! TD*
D10*
G04 #@! TO.C,C16*
G36*
X133950142Y-69405174D02*
X133973803Y-69408684D01*
X133997007Y-69414496D01*
X134019529Y-69422554D01*
X134041153Y-69432782D01*
X134061670Y-69445079D01*
X134080883Y-69459329D01*
X134098607Y-69475393D01*
X134114671Y-69493117D01*
X134128921Y-69512330D01*
X134141218Y-69532847D01*
X134151446Y-69554471D01*
X134159504Y-69576993D01*
X134165316Y-69600197D01*
X134168826Y-69623858D01*
X134170000Y-69647750D01*
X134170000Y-70560250D01*
X134168826Y-70584142D01*
X134165316Y-70607803D01*
X134159504Y-70631007D01*
X134151446Y-70653529D01*
X134141218Y-70675153D01*
X134128921Y-70695670D01*
X134114671Y-70714883D01*
X134098607Y-70732607D01*
X134080883Y-70748671D01*
X134061670Y-70762921D01*
X134041153Y-70775218D01*
X134019529Y-70785446D01*
X133997007Y-70793504D01*
X133973803Y-70799316D01*
X133950142Y-70802826D01*
X133926250Y-70804000D01*
X133438750Y-70804000D01*
X133414858Y-70802826D01*
X133391197Y-70799316D01*
X133367993Y-70793504D01*
X133345471Y-70785446D01*
X133323847Y-70775218D01*
X133303330Y-70762921D01*
X133284117Y-70748671D01*
X133266393Y-70732607D01*
X133250329Y-70714883D01*
X133236079Y-70695670D01*
X133223782Y-70675153D01*
X133213554Y-70653529D01*
X133205496Y-70631007D01*
X133199684Y-70607803D01*
X133196174Y-70584142D01*
X133195000Y-70560250D01*
X133195000Y-69647750D01*
X133196174Y-69623858D01*
X133199684Y-69600197D01*
X133205496Y-69576993D01*
X133213554Y-69554471D01*
X133223782Y-69532847D01*
X133236079Y-69512330D01*
X133250329Y-69493117D01*
X133266393Y-69475393D01*
X133284117Y-69459329D01*
X133303330Y-69445079D01*
X133323847Y-69432782D01*
X133345471Y-69422554D01*
X133367993Y-69414496D01*
X133391197Y-69408684D01*
X133414858Y-69405174D01*
X133438750Y-69404000D01*
X133926250Y-69404000D01*
X133950142Y-69405174D01*
X133950142Y-69405174D01*
G37*
D11*
X133682500Y-70104000D03*
D10*
G36*
X135825142Y-69405174D02*
X135848803Y-69408684D01*
X135872007Y-69414496D01*
X135894529Y-69422554D01*
X135916153Y-69432782D01*
X135936670Y-69445079D01*
X135955883Y-69459329D01*
X135973607Y-69475393D01*
X135989671Y-69493117D01*
X136003921Y-69512330D01*
X136016218Y-69532847D01*
X136026446Y-69554471D01*
X136034504Y-69576993D01*
X136040316Y-69600197D01*
X136043826Y-69623858D01*
X136045000Y-69647750D01*
X136045000Y-70560250D01*
X136043826Y-70584142D01*
X136040316Y-70607803D01*
X136034504Y-70631007D01*
X136026446Y-70653529D01*
X136016218Y-70675153D01*
X136003921Y-70695670D01*
X135989671Y-70714883D01*
X135973607Y-70732607D01*
X135955883Y-70748671D01*
X135936670Y-70762921D01*
X135916153Y-70775218D01*
X135894529Y-70785446D01*
X135872007Y-70793504D01*
X135848803Y-70799316D01*
X135825142Y-70802826D01*
X135801250Y-70804000D01*
X135313750Y-70804000D01*
X135289858Y-70802826D01*
X135266197Y-70799316D01*
X135242993Y-70793504D01*
X135220471Y-70785446D01*
X135198847Y-70775218D01*
X135178330Y-70762921D01*
X135159117Y-70748671D01*
X135141393Y-70732607D01*
X135125329Y-70714883D01*
X135111079Y-70695670D01*
X135098782Y-70675153D01*
X135088554Y-70653529D01*
X135080496Y-70631007D01*
X135074684Y-70607803D01*
X135071174Y-70584142D01*
X135070000Y-70560250D01*
X135070000Y-69647750D01*
X135071174Y-69623858D01*
X135074684Y-69600197D01*
X135080496Y-69576993D01*
X135088554Y-69554471D01*
X135098782Y-69532847D01*
X135111079Y-69512330D01*
X135125329Y-69493117D01*
X135141393Y-69475393D01*
X135159117Y-69459329D01*
X135178330Y-69445079D01*
X135198847Y-69432782D01*
X135220471Y-69422554D01*
X135242993Y-69414496D01*
X135266197Y-69408684D01*
X135289858Y-69405174D01*
X135313750Y-69404000D01*
X135801250Y-69404000D01*
X135825142Y-69405174D01*
X135825142Y-69405174D01*
G37*
D11*
X135557500Y-70104000D03*
G04 #@! TD*
D10*
G04 #@! TO.C,C17*
G36*
X198466142Y-92265174D02*
X198489803Y-92268684D01*
X198513007Y-92274496D01*
X198535529Y-92282554D01*
X198557153Y-92292782D01*
X198577670Y-92305079D01*
X198596883Y-92319329D01*
X198614607Y-92335393D01*
X198630671Y-92353117D01*
X198644921Y-92372330D01*
X198657218Y-92392847D01*
X198667446Y-92414471D01*
X198675504Y-92436993D01*
X198681316Y-92460197D01*
X198684826Y-92483858D01*
X198686000Y-92507750D01*
X198686000Y-93420250D01*
X198684826Y-93444142D01*
X198681316Y-93467803D01*
X198675504Y-93491007D01*
X198667446Y-93513529D01*
X198657218Y-93535153D01*
X198644921Y-93555670D01*
X198630671Y-93574883D01*
X198614607Y-93592607D01*
X198596883Y-93608671D01*
X198577670Y-93622921D01*
X198557153Y-93635218D01*
X198535529Y-93645446D01*
X198513007Y-93653504D01*
X198489803Y-93659316D01*
X198466142Y-93662826D01*
X198442250Y-93664000D01*
X197954750Y-93664000D01*
X197930858Y-93662826D01*
X197907197Y-93659316D01*
X197883993Y-93653504D01*
X197861471Y-93645446D01*
X197839847Y-93635218D01*
X197819330Y-93622921D01*
X197800117Y-93608671D01*
X197782393Y-93592607D01*
X197766329Y-93574883D01*
X197752079Y-93555670D01*
X197739782Y-93535153D01*
X197729554Y-93513529D01*
X197721496Y-93491007D01*
X197715684Y-93467803D01*
X197712174Y-93444142D01*
X197711000Y-93420250D01*
X197711000Y-92507750D01*
X197712174Y-92483858D01*
X197715684Y-92460197D01*
X197721496Y-92436993D01*
X197729554Y-92414471D01*
X197739782Y-92392847D01*
X197752079Y-92372330D01*
X197766329Y-92353117D01*
X197782393Y-92335393D01*
X197800117Y-92319329D01*
X197819330Y-92305079D01*
X197839847Y-92292782D01*
X197861471Y-92282554D01*
X197883993Y-92274496D01*
X197907197Y-92268684D01*
X197930858Y-92265174D01*
X197954750Y-92264000D01*
X198442250Y-92264000D01*
X198466142Y-92265174D01*
X198466142Y-92265174D01*
G37*
D11*
X198198500Y-92964000D03*
D10*
G36*
X200341142Y-92265174D02*
X200364803Y-92268684D01*
X200388007Y-92274496D01*
X200410529Y-92282554D01*
X200432153Y-92292782D01*
X200452670Y-92305079D01*
X200471883Y-92319329D01*
X200489607Y-92335393D01*
X200505671Y-92353117D01*
X200519921Y-92372330D01*
X200532218Y-92392847D01*
X200542446Y-92414471D01*
X200550504Y-92436993D01*
X200556316Y-92460197D01*
X200559826Y-92483858D01*
X200561000Y-92507750D01*
X200561000Y-93420250D01*
X200559826Y-93444142D01*
X200556316Y-93467803D01*
X200550504Y-93491007D01*
X200542446Y-93513529D01*
X200532218Y-93535153D01*
X200519921Y-93555670D01*
X200505671Y-93574883D01*
X200489607Y-93592607D01*
X200471883Y-93608671D01*
X200452670Y-93622921D01*
X200432153Y-93635218D01*
X200410529Y-93645446D01*
X200388007Y-93653504D01*
X200364803Y-93659316D01*
X200341142Y-93662826D01*
X200317250Y-93664000D01*
X199829750Y-93664000D01*
X199805858Y-93662826D01*
X199782197Y-93659316D01*
X199758993Y-93653504D01*
X199736471Y-93645446D01*
X199714847Y-93635218D01*
X199694330Y-93622921D01*
X199675117Y-93608671D01*
X199657393Y-93592607D01*
X199641329Y-93574883D01*
X199627079Y-93555670D01*
X199614782Y-93535153D01*
X199604554Y-93513529D01*
X199596496Y-93491007D01*
X199590684Y-93467803D01*
X199587174Y-93444142D01*
X199586000Y-93420250D01*
X199586000Y-92507750D01*
X199587174Y-92483858D01*
X199590684Y-92460197D01*
X199596496Y-92436993D01*
X199604554Y-92414471D01*
X199614782Y-92392847D01*
X199627079Y-92372330D01*
X199641329Y-92353117D01*
X199657393Y-92335393D01*
X199675117Y-92319329D01*
X199694330Y-92305079D01*
X199714847Y-92292782D01*
X199736471Y-92282554D01*
X199758993Y-92274496D01*
X199782197Y-92268684D01*
X199805858Y-92265174D01*
X199829750Y-92264000D01*
X200317250Y-92264000D01*
X200341142Y-92265174D01*
X200341142Y-92265174D01*
G37*
D11*
X200073500Y-92964000D03*
G04 #@! TD*
D10*
G04 #@! TO.C,C18*
G36*
X186625142Y-92265174D02*
X186648803Y-92268684D01*
X186672007Y-92274496D01*
X186694529Y-92282554D01*
X186716153Y-92292782D01*
X186736670Y-92305079D01*
X186755883Y-92319329D01*
X186773607Y-92335393D01*
X186789671Y-92353117D01*
X186803921Y-92372330D01*
X186816218Y-92392847D01*
X186826446Y-92414471D01*
X186834504Y-92436993D01*
X186840316Y-92460197D01*
X186843826Y-92483858D01*
X186845000Y-92507750D01*
X186845000Y-93420250D01*
X186843826Y-93444142D01*
X186840316Y-93467803D01*
X186834504Y-93491007D01*
X186826446Y-93513529D01*
X186816218Y-93535153D01*
X186803921Y-93555670D01*
X186789671Y-93574883D01*
X186773607Y-93592607D01*
X186755883Y-93608671D01*
X186736670Y-93622921D01*
X186716153Y-93635218D01*
X186694529Y-93645446D01*
X186672007Y-93653504D01*
X186648803Y-93659316D01*
X186625142Y-93662826D01*
X186601250Y-93664000D01*
X186113750Y-93664000D01*
X186089858Y-93662826D01*
X186066197Y-93659316D01*
X186042993Y-93653504D01*
X186020471Y-93645446D01*
X185998847Y-93635218D01*
X185978330Y-93622921D01*
X185959117Y-93608671D01*
X185941393Y-93592607D01*
X185925329Y-93574883D01*
X185911079Y-93555670D01*
X185898782Y-93535153D01*
X185888554Y-93513529D01*
X185880496Y-93491007D01*
X185874684Y-93467803D01*
X185871174Y-93444142D01*
X185870000Y-93420250D01*
X185870000Y-92507750D01*
X185871174Y-92483858D01*
X185874684Y-92460197D01*
X185880496Y-92436993D01*
X185888554Y-92414471D01*
X185898782Y-92392847D01*
X185911079Y-92372330D01*
X185925329Y-92353117D01*
X185941393Y-92335393D01*
X185959117Y-92319329D01*
X185978330Y-92305079D01*
X185998847Y-92292782D01*
X186020471Y-92282554D01*
X186042993Y-92274496D01*
X186066197Y-92268684D01*
X186089858Y-92265174D01*
X186113750Y-92264000D01*
X186601250Y-92264000D01*
X186625142Y-92265174D01*
X186625142Y-92265174D01*
G37*
D11*
X186357500Y-92964000D03*
D10*
G36*
X184750142Y-92265174D02*
X184773803Y-92268684D01*
X184797007Y-92274496D01*
X184819529Y-92282554D01*
X184841153Y-92292782D01*
X184861670Y-92305079D01*
X184880883Y-92319329D01*
X184898607Y-92335393D01*
X184914671Y-92353117D01*
X184928921Y-92372330D01*
X184941218Y-92392847D01*
X184951446Y-92414471D01*
X184959504Y-92436993D01*
X184965316Y-92460197D01*
X184968826Y-92483858D01*
X184970000Y-92507750D01*
X184970000Y-93420250D01*
X184968826Y-93444142D01*
X184965316Y-93467803D01*
X184959504Y-93491007D01*
X184951446Y-93513529D01*
X184941218Y-93535153D01*
X184928921Y-93555670D01*
X184914671Y-93574883D01*
X184898607Y-93592607D01*
X184880883Y-93608671D01*
X184861670Y-93622921D01*
X184841153Y-93635218D01*
X184819529Y-93645446D01*
X184797007Y-93653504D01*
X184773803Y-93659316D01*
X184750142Y-93662826D01*
X184726250Y-93664000D01*
X184238750Y-93664000D01*
X184214858Y-93662826D01*
X184191197Y-93659316D01*
X184167993Y-93653504D01*
X184145471Y-93645446D01*
X184123847Y-93635218D01*
X184103330Y-93622921D01*
X184084117Y-93608671D01*
X184066393Y-93592607D01*
X184050329Y-93574883D01*
X184036079Y-93555670D01*
X184023782Y-93535153D01*
X184013554Y-93513529D01*
X184005496Y-93491007D01*
X183999684Y-93467803D01*
X183996174Y-93444142D01*
X183995000Y-93420250D01*
X183995000Y-92507750D01*
X183996174Y-92483858D01*
X183999684Y-92460197D01*
X184005496Y-92436993D01*
X184013554Y-92414471D01*
X184023782Y-92392847D01*
X184036079Y-92372330D01*
X184050329Y-92353117D01*
X184066393Y-92335393D01*
X184084117Y-92319329D01*
X184103330Y-92305079D01*
X184123847Y-92292782D01*
X184145471Y-92282554D01*
X184167993Y-92274496D01*
X184191197Y-92268684D01*
X184214858Y-92265174D01*
X184238750Y-92264000D01*
X184726250Y-92264000D01*
X184750142Y-92265174D01*
X184750142Y-92265174D01*
G37*
D11*
X184482500Y-92964000D03*
G04 #@! TD*
D10*
G04 #@! TO.C,C19*
G36*
X174216142Y-70555174D02*
X174239803Y-70558684D01*
X174263007Y-70564496D01*
X174285529Y-70572554D01*
X174307153Y-70582782D01*
X174327670Y-70595079D01*
X174346883Y-70609329D01*
X174364607Y-70625393D01*
X174380671Y-70643117D01*
X174394921Y-70662330D01*
X174407218Y-70682847D01*
X174417446Y-70704471D01*
X174425504Y-70726993D01*
X174431316Y-70750197D01*
X174434826Y-70773858D01*
X174436000Y-70797750D01*
X174436000Y-71285250D01*
X174434826Y-71309142D01*
X174431316Y-71332803D01*
X174425504Y-71356007D01*
X174417446Y-71378529D01*
X174407218Y-71400153D01*
X174394921Y-71420670D01*
X174380671Y-71439883D01*
X174364607Y-71457607D01*
X174346883Y-71473671D01*
X174327670Y-71487921D01*
X174307153Y-71500218D01*
X174285529Y-71510446D01*
X174263007Y-71518504D01*
X174239803Y-71524316D01*
X174216142Y-71527826D01*
X174192250Y-71529000D01*
X173279750Y-71529000D01*
X173255858Y-71527826D01*
X173232197Y-71524316D01*
X173208993Y-71518504D01*
X173186471Y-71510446D01*
X173164847Y-71500218D01*
X173144330Y-71487921D01*
X173125117Y-71473671D01*
X173107393Y-71457607D01*
X173091329Y-71439883D01*
X173077079Y-71420670D01*
X173064782Y-71400153D01*
X173054554Y-71378529D01*
X173046496Y-71356007D01*
X173040684Y-71332803D01*
X173037174Y-71309142D01*
X173036000Y-71285250D01*
X173036000Y-70797750D01*
X173037174Y-70773858D01*
X173040684Y-70750197D01*
X173046496Y-70726993D01*
X173054554Y-70704471D01*
X173064782Y-70682847D01*
X173077079Y-70662330D01*
X173091329Y-70643117D01*
X173107393Y-70625393D01*
X173125117Y-70609329D01*
X173144330Y-70595079D01*
X173164847Y-70582782D01*
X173186471Y-70572554D01*
X173208993Y-70564496D01*
X173232197Y-70558684D01*
X173255858Y-70555174D01*
X173279750Y-70554000D01*
X174192250Y-70554000D01*
X174216142Y-70555174D01*
X174216142Y-70555174D01*
G37*
D11*
X173736000Y-71041500D03*
D10*
G36*
X174216142Y-68680174D02*
X174239803Y-68683684D01*
X174263007Y-68689496D01*
X174285529Y-68697554D01*
X174307153Y-68707782D01*
X174327670Y-68720079D01*
X174346883Y-68734329D01*
X174364607Y-68750393D01*
X174380671Y-68768117D01*
X174394921Y-68787330D01*
X174407218Y-68807847D01*
X174417446Y-68829471D01*
X174425504Y-68851993D01*
X174431316Y-68875197D01*
X174434826Y-68898858D01*
X174436000Y-68922750D01*
X174436000Y-69410250D01*
X174434826Y-69434142D01*
X174431316Y-69457803D01*
X174425504Y-69481007D01*
X174417446Y-69503529D01*
X174407218Y-69525153D01*
X174394921Y-69545670D01*
X174380671Y-69564883D01*
X174364607Y-69582607D01*
X174346883Y-69598671D01*
X174327670Y-69612921D01*
X174307153Y-69625218D01*
X174285529Y-69635446D01*
X174263007Y-69643504D01*
X174239803Y-69649316D01*
X174216142Y-69652826D01*
X174192250Y-69654000D01*
X173279750Y-69654000D01*
X173255858Y-69652826D01*
X173232197Y-69649316D01*
X173208993Y-69643504D01*
X173186471Y-69635446D01*
X173164847Y-69625218D01*
X173144330Y-69612921D01*
X173125117Y-69598671D01*
X173107393Y-69582607D01*
X173091329Y-69564883D01*
X173077079Y-69545670D01*
X173064782Y-69525153D01*
X173054554Y-69503529D01*
X173046496Y-69481007D01*
X173040684Y-69457803D01*
X173037174Y-69434142D01*
X173036000Y-69410250D01*
X173036000Y-68922750D01*
X173037174Y-68898858D01*
X173040684Y-68875197D01*
X173046496Y-68851993D01*
X173054554Y-68829471D01*
X173064782Y-68807847D01*
X173077079Y-68787330D01*
X173091329Y-68768117D01*
X173107393Y-68750393D01*
X173125117Y-68734329D01*
X173144330Y-68720079D01*
X173164847Y-68707782D01*
X173186471Y-68697554D01*
X173208993Y-68689496D01*
X173232197Y-68683684D01*
X173255858Y-68680174D01*
X173279750Y-68679000D01*
X174192250Y-68679000D01*
X174216142Y-68680174D01*
X174216142Y-68680174D01*
G37*
D11*
X173736000Y-69166500D03*
G04 #@! TD*
D10*
G04 #@! TO.C,C1*
G36*
X204188142Y-107131174D02*
X204211803Y-107134684D01*
X204235007Y-107140496D01*
X204257529Y-107148554D01*
X204279153Y-107158782D01*
X204299670Y-107171079D01*
X204318883Y-107185329D01*
X204336607Y-107201393D01*
X204352671Y-107219117D01*
X204366921Y-107238330D01*
X204379218Y-107258847D01*
X204389446Y-107280471D01*
X204397504Y-107302993D01*
X204403316Y-107326197D01*
X204406826Y-107349858D01*
X204408000Y-107373750D01*
X204408000Y-107861250D01*
X204406826Y-107885142D01*
X204403316Y-107908803D01*
X204397504Y-107932007D01*
X204389446Y-107954529D01*
X204379218Y-107976153D01*
X204366921Y-107996670D01*
X204352671Y-108015883D01*
X204336607Y-108033607D01*
X204318883Y-108049671D01*
X204299670Y-108063921D01*
X204279153Y-108076218D01*
X204257529Y-108086446D01*
X204235007Y-108094504D01*
X204211803Y-108100316D01*
X204188142Y-108103826D01*
X204164250Y-108105000D01*
X203251750Y-108105000D01*
X203227858Y-108103826D01*
X203204197Y-108100316D01*
X203180993Y-108094504D01*
X203158471Y-108086446D01*
X203136847Y-108076218D01*
X203116330Y-108063921D01*
X203097117Y-108049671D01*
X203079393Y-108033607D01*
X203063329Y-108015883D01*
X203049079Y-107996670D01*
X203036782Y-107976153D01*
X203026554Y-107954529D01*
X203018496Y-107932007D01*
X203012684Y-107908803D01*
X203009174Y-107885142D01*
X203008000Y-107861250D01*
X203008000Y-107373750D01*
X203009174Y-107349858D01*
X203012684Y-107326197D01*
X203018496Y-107302993D01*
X203026554Y-107280471D01*
X203036782Y-107258847D01*
X203049079Y-107238330D01*
X203063329Y-107219117D01*
X203079393Y-107201393D01*
X203097117Y-107185329D01*
X203116330Y-107171079D01*
X203136847Y-107158782D01*
X203158471Y-107148554D01*
X203180993Y-107140496D01*
X203204197Y-107134684D01*
X203227858Y-107131174D01*
X203251750Y-107130000D01*
X204164250Y-107130000D01*
X204188142Y-107131174D01*
X204188142Y-107131174D01*
G37*
D11*
X203708000Y-107617500D03*
D10*
G36*
X204188142Y-105256174D02*
X204211803Y-105259684D01*
X204235007Y-105265496D01*
X204257529Y-105273554D01*
X204279153Y-105283782D01*
X204299670Y-105296079D01*
X204318883Y-105310329D01*
X204336607Y-105326393D01*
X204352671Y-105344117D01*
X204366921Y-105363330D01*
X204379218Y-105383847D01*
X204389446Y-105405471D01*
X204397504Y-105427993D01*
X204403316Y-105451197D01*
X204406826Y-105474858D01*
X204408000Y-105498750D01*
X204408000Y-105986250D01*
X204406826Y-106010142D01*
X204403316Y-106033803D01*
X204397504Y-106057007D01*
X204389446Y-106079529D01*
X204379218Y-106101153D01*
X204366921Y-106121670D01*
X204352671Y-106140883D01*
X204336607Y-106158607D01*
X204318883Y-106174671D01*
X204299670Y-106188921D01*
X204279153Y-106201218D01*
X204257529Y-106211446D01*
X204235007Y-106219504D01*
X204211803Y-106225316D01*
X204188142Y-106228826D01*
X204164250Y-106230000D01*
X203251750Y-106230000D01*
X203227858Y-106228826D01*
X203204197Y-106225316D01*
X203180993Y-106219504D01*
X203158471Y-106211446D01*
X203136847Y-106201218D01*
X203116330Y-106188921D01*
X203097117Y-106174671D01*
X203079393Y-106158607D01*
X203063329Y-106140883D01*
X203049079Y-106121670D01*
X203036782Y-106101153D01*
X203026554Y-106079529D01*
X203018496Y-106057007D01*
X203012684Y-106033803D01*
X203009174Y-106010142D01*
X203008000Y-105986250D01*
X203008000Y-105498750D01*
X203009174Y-105474858D01*
X203012684Y-105451197D01*
X203018496Y-105427993D01*
X203026554Y-105405471D01*
X203036782Y-105383847D01*
X203049079Y-105363330D01*
X203063329Y-105344117D01*
X203079393Y-105326393D01*
X203097117Y-105310329D01*
X203116330Y-105296079D01*
X203136847Y-105283782D01*
X203158471Y-105273554D01*
X203180993Y-105265496D01*
X203204197Y-105259684D01*
X203227858Y-105256174D01*
X203251750Y-105255000D01*
X204164250Y-105255000D01*
X204188142Y-105256174D01*
X204188142Y-105256174D01*
G37*
D11*
X203708000Y-105742500D03*
G04 #@! TD*
D10*
G04 #@! TO.C,R7*
G36*
X144752142Y-79953174D02*
X144775803Y-79956684D01*
X144799007Y-79962496D01*
X144821529Y-79970554D01*
X144843153Y-79980782D01*
X144863670Y-79993079D01*
X144882883Y-80007329D01*
X144900607Y-80023393D01*
X144916671Y-80041117D01*
X144930921Y-80060330D01*
X144943218Y-80080847D01*
X144953446Y-80102471D01*
X144961504Y-80124993D01*
X144967316Y-80148197D01*
X144970826Y-80171858D01*
X144972000Y-80195750D01*
X144972000Y-80683250D01*
X144970826Y-80707142D01*
X144967316Y-80730803D01*
X144961504Y-80754007D01*
X144953446Y-80776529D01*
X144943218Y-80798153D01*
X144930921Y-80818670D01*
X144916671Y-80837883D01*
X144900607Y-80855607D01*
X144882883Y-80871671D01*
X144863670Y-80885921D01*
X144843153Y-80898218D01*
X144821529Y-80908446D01*
X144799007Y-80916504D01*
X144775803Y-80922316D01*
X144752142Y-80925826D01*
X144728250Y-80927000D01*
X143815750Y-80927000D01*
X143791858Y-80925826D01*
X143768197Y-80922316D01*
X143744993Y-80916504D01*
X143722471Y-80908446D01*
X143700847Y-80898218D01*
X143680330Y-80885921D01*
X143661117Y-80871671D01*
X143643393Y-80855607D01*
X143627329Y-80837883D01*
X143613079Y-80818670D01*
X143600782Y-80798153D01*
X143590554Y-80776529D01*
X143582496Y-80754007D01*
X143576684Y-80730803D01*
X143573174Y-80707142D01*
X143572000Y-80683250D01*
X143572000Y-80195750D01*
X143573174Y-80171858D01*
X143576684Y-80148197D01*
X143582496Y-80124993D01*
X143590554Y-80102471D01*
X143600782Y-80080847D01*
X143613079Y-80060330D01*
X143627329Y-80041117D01*
X143643393Y-80023393D01*
X143661117Y-80007329D01*
X143680330Y-79993079D01*
X143700847Y-79980782D01*
X143722471Y-79970554D01*
X143744993Y-79962496D01*
X143768197Y-79956684D01*
X143791858Y-79953174D01*
X143815750Y-79952000D01*
X144728250Y-79952000D01*
X144752142Y-79953174D01*
X144752142Y-79953174D01*
G37*
D11*
X144272000Y-80439500D03*
D10*
G36*
X144752142Y-78078174D02*
X144775803Y-78081684D01*
X144799007Y-78087496D01*
X144821529Y-78095554D01*
X144843153Y-78105782D01*
X144863670Y-78118079D01*
X144882883Y-78132329D01*
X144900607Y-78148393D01*
X144916671Y-78166117D01*
X144930921Y-78185330D01*
X144943218Y-78205847D01*
X144953446Y-78227471D01*
X144961504Y-78249993D01*
X144967316Y-78273197D01*
X144970826Y-78296858D01*
X144972000Y-78320750D01*
X144972000Y-78808250D01*
X144970826Y-78832142D01*
X144967316Y-78855803D01*
X144961504Y-78879007D01*
X144953446Y-78901529D01*
X144943218Y-78923153D01*
X144930921Y-78943670D01*
X144916671Y-78962883D01*
X144900607Y-78980607D01*
X144882883Y-78996671D01*
X144863670Y-79010921D01*
X144843153Y-79023218D01*
X144821529Y-79033446D01*
X144799007Y-79041504D01*
X144775803Y-79047316D01*
X144752142Y-79050826D01*
X144728250Y-79052000D01*
X143815750Y-79052000D01*
X143791858Y-79050826D01*
X143768197Y-79047316D01*
X143744993Y-79041504D01*
X143722471Y-79033446D01*
X143700847Y-79023218D01*
X143680330Y-79010921D01*
X143661117Y-78996671D01*
X143643393Y-78980607D01*
X143627329Y-78962883D01*
X143613079Y-78943670D01*
X143600782Y-78923153D01*
X143590554Y-78901529D01*
X143582496Y-78879007D01*
X143576684Y-78855803D01*
X143573174Y-78832142D01*
X143572000Y-78808250D01*
X143572000Y-78320750D01*
X143573174Y-78296858D01*
X143576684Y-78273197D01*
X143582496Y-78249993D01*
X143590554Y-78227471D01*
X143600782Y-78205847D01*
X143613079Y-78185330D01*
X143627329Y-78166117D01*
X143643393Y-78148393D01*
X143661117Y-78132329D01*
X143680330Y-78118079D01*
X143700847Y-78105782D01*
X143722471Y-78095554D01*
X143744993Y-78087496D01*
X143768197Y-78081684D01*
X143791858Y-78078174D01*
X143815750Y-78077000D01*
X144728250Y-78077000D01*
X144752142Y-78078174D01*
X144752142Y-78078174D01*
G37*
D11*
X144272000Y-78564500D03*
G04 #@! TD*
D10*
G04 #@! TO.C,R5*
G36*
X139672142Y-78078174D02*
X139695803Y-78081684D01*
X139719007Y-78087496D01*
X139741529Y-78095554D01*
X139763153Y-78105782D01*
X139783670Y-78118079D01*
X139802883Y-78132329D01*
X139820607Y-78148393D01*
X139836671Y-78166117D01*
X139850921Y-78185330D01*
X139863218Y-78205847D01*
X139873446Y-78227471D01*
X139881504Y-78249993D01*
X139887316Y-78273197D01*
X139890826Y-78296858D01*
X139892000Y-78320750D01*
X139892000Y-78808250D01*
X139890826Y-78832142D01*
X139887316Y-78855803D01*
X139881504Y-78879007D01*
X139873446Y-78901529D01*
X139863218Y-78923153D01*
X139850921Y-78943670D01*
X139836671Y-78962883D01*
X139820607Y-78980607D01*
X139802883Y-78996671D01*
X139783670Y-79010921D01*
X139763153Y-79023218D01*
X139741529Y-79033446D01*
X139719007Y-79041504D01*
X139695803Y-79047316D01*
X139672142Y-79050826D01*
X139648250Y-79052000D01*
X138735750Y-79052000D01*
X138711858Y-79050826D01*
X138688197Y-79047316D01*
X138664993Y-79041504D01*
X138642471Y-79033446D01*
X138620847Y-79023218D01*
X138600330Y-79010921D01*
X138581117Y-78996671D01*
X138563393Y-78980607D01*
X138547329Y-78962883D01*
X138533079Y-78943670D01*
X138520782Y-78923153D01*
X138510554Y-78901529D01*
X138502496Y-78879007D01*
X138496684Y-78855803D01*
X138493174Y-78832142D01*
X138492000Y-78808250D01*
X138492000Y-78320750D01*
X138493174Y-78296858D01*
X138496684Y-78273197D01*
X138502496Y-78249993D01*
X138510554Y-78227471D01*
X138520782Y-78205847D01*
X138533079Y-78185330D01*
X138547329Y-78166117D01*
X138563393Y-78148393D01*
X138581117Y-78132329D01*
X138600330Y-78118079D01*
X138620847Y-78105782D01*
X138642471Y-78095554D01*
X138664993Y-78087496D01*
X138688197Y-78081684D01*
X138711858Y-78078174D01*
X138735750Y-78077000D01*
X139648250Y-78077000D01*
X139672142Y-78078174D01*
X139672142Y-78078174D01*
G37*
D11*
X139192000Y-78564500D03*
D10*
G36*
X139672142Y-79953174D02*
X139695803Y-79956684D01*
X139719007Y-79962496D01*
X139741529Y-79970554D01*
X139763153Y-79980782D01*
X139783670Y-79993079D01*
X139802883Y-80007329D01*
X139820607Y-80023393D01*
X139836671Y-80041117D01*
X139850921Y-80060330D01*
X139863218Y-80080847D01*
X139873446Y-80102471D01*
X139881504Y-80124993D01*
X139887316Y-80148197D01*
X139890826Y-80171858D01*
X139892000Y-80195750D01*
X139892000Y-80683250D01*
X139890826Y-80707142D01*
X139887316Y-80730803D01*
X139881504Y-80754007D01*
X139873446Y-80776529D01*
X139863218Y-80798153D01*
X139850921Y-80818670D01*
X139836671Y-80837883D01*
X139820607Y-80855607D01*
X139802883Y-80871671D01*
X139783670Y-80885921D01*
X139763153Y-80898218D01*
X139741529Y-80908446D01*
X139719007Y-80916504D01*
X139695803Y-80922316D01*
X139672142Y-80925826D01*
X139648250Y-80927000D01*
X138735750Y-80927000D01*
X138711858Y-80925826D01*
X138688197Y-80922316D01*
X138664993Y-80916504D01*
X138642471Y-80908446D01*
X138620847Y-80898218D01*
X138600330Y-80885921D01*
X138581117Y-80871671D01*
X138563393Y-80855607D01*
X138547329Y-80837883D01*
X138533079Y-80818670D01*
X138520782Y-80798153D01*
X138510554Y-80776529D01*
X138502496Y-80754007D01*
X138496684Y-80730803D01*
X138493174Y-80707142D01*
X138492000Y-80683250D01*
X138492000Y-80195750D01*
X138493174Y-80171858D01*
X138496684Y-80148197D01*
X138502496Y-80124993D01*
X138510554Y-80102471D01*
X138520782Y-80080847D01*
X138533079Y-80060330D01*
X138547329Y-80041117D01*
X138563393Y-80023393D01*
X138581117Y-80007329D01*
X138600330Y-79993079D01*
X138620847Y-79980782D01*
X138642471Y-79970554D01*
X138664993Y-79962496D01*
X138688197Y-79956684D01*
X138711858Y-79953174D01*
X138735750Y-79952000D01*
X139648250Y-79952000D01*
X139672142Y-79953174D01*
X139672142Y-79953174D01*
G37*
D11*
X139192000Y-80439500D03*
G04 #@! TD*
D10*
G04 #@! TO.C,R16*
G36*
X124298142Y-109029174D02*
X124321803Y-109032684D01*
X124345007Y-109038496D01*
X124367529Y-109046554D01*
X124389153Y-109056782D01*
X124409670Y-109069079D01*
X124428883Y-109083329D01*
X124446607Y-109099393D01*
X124462671Y-109117117D01*
X124476921Y-109136330D01*
X124489218Y-109156847D01*
X124499446Y-109178471D01*
X124507504Y-109200993D01*
X124513316Y-109224197D01*
X124516826Y-109247858D01*
X124518000Y-109271750D01*
X124518000Y-110184250D01*
X124516826Y-110208142D01*
X124513316Y-110231803D01*
X124507504Y-110255007D01*
X124499446Y-110277529D01*
X124489218Y-110299153D01*
X124476921Y-110319670D01*
X124462671Y-110338883D01*
X124446607Y-110356607D01*
X124428883Y-110372671D01*
X124409670Y-110386921D01*
X124389153Y-110399218D01*
X124367529Y-110409446D01*
X124345007Y-110417504D01*
X124321803Y-110423316D01*
X124298142Y-110426826D01*
X124274250Y-110428000D01*
X123786750Y-110428000D01*
X123762858Y-110426826D01*
X123739197Y-110423316D01*
X123715993Y-110417504D01*
X123693471Y-110409446D01*
X123671847Y-110399218D01*
X123651330Y-110386921D01*
X123632117Y-110372671D01*
X123614393Y-110356607D01*
X123598329Y-110338883D01*
X123584079Y-110319670D01*
X123571782Y-110299153D01*
X123561554Y-110277529D01*
X123553496Y-110255007D01*
X123547684Y-110231803D01*
X123544174Y-110208142D01*
X123543000Y-110184250D01*
X123543000Y-109271750D01*
X123544174Y-109247858D01*
X123547684Y-109224197D01*
X123553496Y-109200993D01*
X123561554Y-109178471D01*
X123571782Y-109156847D01*
X123584079Y-109136330D01*
X123598329Y-109117117D01*
X123614393Y-109099393D01*
X123632117Y-109083329D01*
X123651330Y-109069079D01*
X123671847Y-109056782D01*
X123693471Y-109046554D01*
X123715993Y-109038496D01*
X123739197Y-109032684D01*
X123762858Y-109029174D01*
X123786750Y-109028000D01*
X124274250Y-109028000D01*
X124298142Y-109029174D01*
X124298142Y-109029174D01*
G37*
D11*
X124030500Y-109728000D03*
D10*
G36*
X126173142Y-109029174D02*
X126196803Y-109032684D01*
X126220007Y-109038496D01*
X126242529Y-109046554D01*
X126264153Y-109056782D01*
X126284670Y-109069079D01*
X126303883Y-109083329D01*
X126321607Y-109099393D01*
X126337671Y-109117117D01*
X126351921Y-109136330D01*
X126364218Y-109156847D01*
X126374446Y-109178471D01*
X126382504Y-109200993D01*
X126388316Y-109224197D01*
X126391826Y-109247858D01*
X126393000Y-109271750D01*
X126393000Y-110184250D01*
X126391826Y-110208142D01*
X126388316Y-110231803D01*
X126382504Y-110255007D01*
X126374446Y-110277529D01*
X126364218Y-110299153D01*
X126351921Y-110319670D01*
X126337671Y-110338883D01*
X126321607Y-110356607D01*
X126303883Y-110372671D01*
X126284670Y-110386921D01*
X126264153Y-110399218D01*
X126242529Y-110409446D01*
X126220007Y-110417504D01*
X126196803Y-110423316D01*
X126173142Y-110426826D01*
X126149250Y-110428000D01*
X125661750Y-110428000D01*
X125637858Y-110426826D01*
X125614197Y-110423316D01*
X125590993Y-110417504D01*
X125568471Y-110409446D01*
X125546847Y-110399218D01*
X125526330Y-110386921D01*
X125507117Y-110372671D01*
X125489393Y-110356607D01*
X125473329Y-110338883D01*
X125459079Y-110319670D01*
X125446782Y-110299153D01*
X125436554Y-110277529D01*
X125428496Y-110255007D01*
X125422684Y-110231803D01*
X125419174Y-110208142D01*
X125418000Y-110184250D01*
X125418000Y-109271750D01*
X125419174Y-109247858D01*
X125422684Y-109224197D01*
X125428496Y-109200993D01*
X125436554Y-109178471D01*
X125446782Y-109156847D01*
X125459079Y-109136330D01*
X125473329Y-109117117D01*
X125489393Y-109099393D01*
X125507117Y-109083329D01*
X125526330Y-109069079D01*
X125546847Y-109056782D01*
X125568471Y-109046554D01*
X125590993Y-109038496D01*
X125614197Y-109032684D01*
X125637858Y-109029174D01*
X125661750Y-109028000D01*
X126149250Y-109028000D01*
X126173142Y-109029174D01*
X126173142Y-109029174D01*
G37*
D11*
X125905500Y-109728000D03*
G04 #@! TD*
D10*
G04 #@! TO.C,R17*
G36*
X143953142Y-119189174D02*
X143976803Y-119192684D01*
X144000007Y-119198496D01*
X144022529Y-119206554D01*
X144044153Y-119216782D01*
X144064670Y-119229079D01*
X144083883Y-119243329D01*
X144101607Y-119259393D01*
X144117671Y-119277117D01*
X144131921Y-119296330D01*
X144144218Y-119316847D01*
X144154446Y-119338471D01*
X144162504Y-119360993D01*
X144168316Y-119384197D01*
X144171826Y-119407858D01*
X144173000Y-119431750D01*
X144173000Y-120344250D01*
X144171826Y-120368142D01*
X144168316Y-120391803D01*
X144162504Y-120415007D01*
X144154446Y-120437529D01*
X144144218Y-120459153D01*
X144131921Y-120479670D01*
X144117671Y-120498883D01*
X144101607Y-120516607D01*
X144083883Y-120532671D01*
X144064670Y-120546921D01*
X144044153Y-120559218D01*
X144022529Y-120569446D01*
X144000007Y-120577504D01*
X143976803Y-120583316D01*
X143953142Y-120586826D01*
X143929250Y-120588000D01*
X143441750Y-120588000D01*
X143417858Y-120586826D01*
X143394197Y-120583316D01*
X143370993Y-120577504D01*
X143348471Y-120569446D01*
X143326847Y-120559218D01*
X143306330Y-120546921D01*
X143287117Y-120532671D01*
X143269393Y-120516607D01*
X143253329Y-120498883D01*
X143239079Y-120479670D01*
X143226782Y-120459153D01*
X143216554Y-120437529D01*
X143208496Y-120415007D01*
X143202684Y-120391803D01*
X143199174Y-120368142D01*
X143198000Y-120344250D01*
X143198000Y-119431750D01*
X143199174Y-119407858D01*
X143202684Y-119384197D01*
X143208496Y-119360993D01*
X143216554Y-119338471D01*
X143226782Y-119316847D01*
X143239079Y-119296330D01*
X143253329Y-119277117D01*
X143269393Y-119259393D01*
X143287117Y-119243329D01*
X143306330Y-119229079D01*
X143326847Y-119216782D01*
X143348471Y-119206554D01*
X143370993Y-119198496D01*
X143394197Y-119192684D01*
X143417858Y-119189174D01*
X143441750Y-119188000D01*
X143929250Y-119188000D01*
X143953142Y-119189174D01*
X143953142Y-119189174D01*
G37*
D11*
X143685500Y-119888000D03*
D10*
G36*
X142078142Y-119189174D02*
X142101803Y-119192684D01*
X142125007Y-119198496D01*
X142147529Y-119206554D01*
X142169153Y-119216782D01*
X142189670Y-119229079D01*
X142208883Y-119243329D01*
X142226607Y-119259393D01*
X142242671Y-119277117D01*
X142256921Y-119296330D01*
X142269218Y-119316847D01*
X142279446Y-119338471D01*
X142287504Y-119360993D01*
X142293316Y-119384197D01*
X142296826Y-119407858D01*
X142298000Y-119431750D01*
X142298000Y-120344250D01*
X142296826Y-120368142D01*
X142293316Y-120391803D01*
X142287504Y-120415007D01*
X142279446Y-120437529D01*
X142269218Y-120459153D01*
X142256921Y-120479670D01*
X142242671Y-120498883D01*
X142226607Y-120516607D01*
X142208883Y-120532671D01*
X142189670Y-120546921D01*
X142169153Y-120559218D01*
X142147529Y-120569446D01*
X142125007Y-120577504D01*
X142101803Y-120583316D01*
X142078142Y-120586826D01*
X142054250Y-120588000D01*
X141566750Y-120588000D01*
X141542858Y-120586826D01*
X141519197Y-120583316D01*
X141495993Y-120577504D01*
X141473471Y-120569446D01*
X141451847Y-120559218D01*
X141431330Y-120546921D01*
X141412117Y-120532671D01*
X141394393Y-120516607D01*
X141378329Y-120498883D01*
X141364079Y-120479670D01*
X141351782Y-120459153D01*
X141341554Y-120437529D01*
X141333496Y-120415007D01*
X141327684Y-120391803D01*
X141324174Y-120368142D01*
X141323000Y-120344250D01*
X141323000Y-119431750D01*
X141324174Y-119407858D01*
X141327684Y-119384197D01*
X141333496Y-119360993D01*
X141341554Y-119338471D01*
X141351782Y-119316847D01*
X141364079Y-119296330D01*
X141378329Y-119277117D01*
X141394393Y-119259393D01*
X141412117Y-119243329D01*
X141431330Y-119229079D01*
X141451847Y-119216782D01*
X141473471Y-119206554D01*
X141495993Y-119198496D01*
X141519197Y-119192684D01*
X141542858Y-119189174D01*
X141566750Y-119188000D01*
X142054250Y-119188000D01*
X142078142Y-119189174D01*
X142078142Y-119189174D01*
G37*
D11*
X141810500Y-119888000D03*
G04 #@! TD*
D10*
G04 #@! TO.C,R18*
G36*
X182210142Y-119189174D02*
X182233803Y-119192684D01*
X182257007Y-119198496D01*
X182279529Y-119206554D01*
X182301153Y-119216782D01*
X182321670Y-119229079D01*
X182340883Y-119243329D01*
X182358607Y-119259393D01*
X182374671Y-119277117D01*
X182388921Y-119296330D01*
X182401218Y-119316847D01*
X182411446Y-119338471D01*
X182419504Y-119360993D01*
X182425316Y-119384197D01*
X182428826Y-119407858D01*
X182430000Y-119431750D01*
X182430000Y-120344250D01*
X182428826Y-120368142D01*
X182425316Y-120391803D01*
X182419504Y-120415007D01*
X182411446Y-120437529D01*
X182401218Y-120459153D01*
X182388921Y-120479670D01*
X182374671Y-120498883D01*
X182358607Y-120516607D01*
X182340883Y-120532671D01*
X182321670Y-120546921D01*
X182301153Y-120559218D01*
X182279529Y-120569446D01*
X182257007Y-120577504D01*
X182233803Y-120583316D01*
X182210142Y-120586826D01*
X182186250Y-120588000D01*
X181698750Y-120588000D01*
X181674858Y-120586826D01*
X181651197Y-120583316D01*
X181627993Y-120577504D01*
X181605471Y-120569446D01*
X181583847Y-120559218D01*
X181563330Y-120546921D01*
X181544117Y-120532671D01*
X181526393Y-120516607D01*
X181510329Y-120498883D01*
X181496079Y-120479670D01*
X181483782Y-120459153D01*
X181473554Y-120437529D01*
X181465496Y-120415007D01*
X181459684Y-120391803D01*
X181456174Y-120368142D01*
X181455000Y-120344250D01*
X181455000Y-119431750D01*
X181456174Y-119407858D01*
X181459684Y-119384197D01*
X181465496Y-119360993D01*
X181473554Y-119338471D01*
X181483782Y-119316847D01*
X181496079Y-119296330D01*
X181510329Y-119277117D01*
X181526393Y-119259393D01*
X181544117Y-119243329D01*
X181563330Y-119229079D01*
X181583847Y-119216782D01*
X181605471Y-119206554D01*
X181627993Y-119198496D01*
X181651197Y-119192684D01*
X181674858Y-119189174D01*
X181698750Y-119188000D01*
X182186250Y-119188000D01*
X182210142Y-119189174D01*
X182210142Y-119189174D01*
G37*
D11*
X181942500Y-119888000D03*
D10*
G36*
X184085142Y-119189174D02*
X184108803Y-119192684D01*
X184132007Y-119198496D01*
X184154529Y-119206554D01*
X184176153Y-119216782D01*
X184196670Y-119229079D01*
X184215883Y-119243329D01*
X184233607Y-119259393D01*
X184249671Y-119277117D01*
X184263921Y-119296330D01*
X184276218Y-119316847D01*
X184286446Y-119338471D01*
X184294504Y-119360993D01*
X184300316Y-119384197D01*
X184303826Y-119407858D01*
X184305000Y-119431750D01*
X184305000Y-120344250D01*
X184303826Y-120368142D01*
X184300316Y-120391803D01*
X184294504Y-120415007D01*
X184286446Y-120437529D01*
X184276218Y-120459153D01*
X184263921Y-120479670D01*
X184249671Y-120498883D01*
X184233607Y-120516607D01*
X184215883Y-120532671D01*
X184196670Y-120546921D01*
X184176153Y-120559218D01*
X184154529Y-120569446D01*
X184132007Y-120577504D01*
X184108803Y-120583316D01*
X184085142Y-120586826D01*
X184061250Y-120588000D01*
X183573750Y-120588000D01*
X183549858Y-120586826D01*
X183526197Y-120583316D01*
X183502993Y-120577504D01*
X183480471Y-120569446D01*
X183458847Y-120559218D01*
X183438330Y-120546921D01*
X183419117Y-120532671D01*
X183401393Y-120516607D01*
X183385329Y-120498883D01*
X183371079Y-120479670D01*
X183358782Y-120459153D01*
X183348554Y-120437529D01*
X183340496Y-120415007D01*
X183334684Y-120391803D01*
X183331174Y-120368142D01*
X183330000Y-120344250D01*
X183330000Y-119431750D01*
X183331174Y-119407858D01*
X183334684Y-119384197D01*
X183340496Y-119360993D01*
X183348554Y-119338471D01*
X183358782Y-119316847D01*
X183371079Y-119296330D01*
X183385329Y-119277117D01*
X183401393Y-119259393D01*
X183419117Y-119243329D01*
X183438330Y-119229079D01*
X183458847Y-119216782D01*
X183480471Y-119206554D01*
X183502993Y-119198496D01*
X183526197Y-119192684D01*
X183549858Y-119189174D01*
X183573750Y-119188000D01*
X184061250Y-119188000D01*
X184085142Y-119189174D01*
X184085142Y-119189174D01*
G37*
D11*
X183817500Y-119888000D03*
G04 #@! TD*
D10*
G04 #@! TO.C,R19*
G36*
X180412302Y-73977174D02*
X180435963Y-73980684D01*
X180459167Y-73986496D01*
X180481689Y-73994554D01*
X180503313Y-74004782D01*
X180523830Y-74017079D01*
X180543043Y-74031329D01*
X180560767Y-74047393D01*
X180576831Y-74065117D01*
X180591081Y-74084330D01*
X180603378Y-74104847D01*
X180613606Y-74126471D01*
X180621664Y-74148993D01*
X180627476Y-74172197D01*
X180630986Y-74195858D01*
X180632160Y-74219750D01*
X180632160Y-75132250D01*
X180630986Y-75156142D01*
X180627476Y-75179803D01*
X180621664Y-75203007D01*
X180613606Y-75225529D01*
X180603378Y-75247153D01*
X180591081Y-75267670D01*
X180576831Y-75286883D01*
X180560767Y-75304607D01*
X180543043Y-75320671D01*
X180523830Y-75334921D01*
X180503313Y-75347218D01*
X180481689Y-75357446D01*
X180459167Y-75365504D01*
X180435963Y-75371316D01*
X180412302Y-75374826D01*
X180388410Y-75376000D01*
X179900910Y-75376000D01*
X179877018Y-75374826D01*
X179853357Y-75371316D01*
X179830153Y-75365504D01*
X179807631Y-75357446D01*
X179786007Y-75347218D01*
X179765490Y-75334921D01*
X179746277Y-75320671D01*
X179728553Y-75304607D01*
X179712489Y-75286883D01*
X179698239Y-75267670D01*
X179685942Y-75247153D01*
X179675714Y-75225529D01*
X179667656Y-75203007D01*
X179661844Y-75179803D01*
X179658334Y-75156142D01*
X179657160Y-75132250D01*
X179657160Y-74219750D01*
X179658334Y-74195858D01*
X179661844Y-74172197D01*
X179667656Y-74148993D01*
X179675714Y-74126471D01*
X179685942Y-74104847D01*
X179698239Y-74084330D01*
X179712489Y-74065117D01*
X179728553Y-74047393D01*
X179746277Y-74031329D01*
X179765490Y-74017079D01*
X179786007Y-74004782D01*
X179807631Y-73994554D01*
X179830153Y-73986496D01*
X179853357Y-73980684D01*
X179877018Y-73977174D01*
X179900910Y-73976000D01*
X180388410Y-73976000D01*
X180412302Y-73977174D01*
X180412302Y-73977174D01*
G37*
D11*
X180144660Y-74676000D03*
D10*
G36*
X178537302Y-73977174D02*
X178560963Y-73980684D01*
X178584167Y-73986496D01*
X178606689Y-73994554D01*
X178628313Y-74004782D01*
X178648830Y-74017079D01*
X178668043Y-74031329D01*
X178685767Y-74047393D01*
X178701831Y-74065117D01*
X178716081Y-74084330D01*
X178728378Y-74104847D01*
X178738606Y-74126471D01*
X178746664Y-74148993D01*
X178752476Y-74172197D01*
X178755986Y-74195858D01*
X178757160Y-74219750D01*
X178757160Y-75132250D01*
X178755986Y-75156142D01*
X178752476Y-75179803D01*
X178746664Y-75203007D01*
X178738606Y-75225529D01*
X178728378Y-75247153D01*
X178716081Y-75267670D01*
X178701831Y-75286883D01*
X178685767Y-75304607D01*
X178668043Y-75320671D01*
X178648830Y-75334921D01*
X178628313Y-75347218D01*
X178606689Y-75357446D01*
X178584167Y-75365504D01*
X178560963Y-75371316D01*
X178537302Y-75374826D01*
X178513410Y-75376000D01*
X178025910Y-75376000D01*
X178002018Y-75374826D01*
X177978357Y-75371316D01*
X177955153Y-75365504D01*
X177932631Y-75357446D01*
X177911007Y-75347218D01*
X177890490Y-75334921D01*
X177871277Y-75320671D01*
X177853553Y-75304607D01*
X177837489Y-75286883D01*
X177823239Y-75267670D01*
X177810942Y-75247153D01*
X177800714Y-75225529D01*
X177792656Y-75203007D01*
X177786844Y-75179803D01*
X177783334Y-75156142D01*
X177782160Y-75132250D01*
X177782160Y-74219750D01*
X177783334Y-74195858D01*
X177786844Y-74172197D01*
X177792656Y-74148993D01*
X177800714Y-74126471D01*
X177810942Y-74104847D01*
X177823239Y-74084330D01*
X177837489Y-74065117D01*
X177853553Y-74047393D01*
X177871277Y-74031329D01*
X177890490Y-74017079D01*
X177911007Y-74004782D01*
X177932631Y-73994554D01*
X177955153Y-73986496D01*
X177978357Y-73980684D01*
X178002018Y-73977174D01*
X178025910Y-73976000D01*
X178513410Y-73976000D01*
X178537302Y-73977174D01*
X178537302Y-73977174D01*
G37*
D11*
X178269660Y-74676000D03*
G04 #@! TD*
D10*
G04 #@! TO.C,R20*
G36*
X183226142Y-73977174D02*
X183249803Y-73980684D01*
X183273007Y-73986496D01*
X183295529Y-73994554D01*
X183317153Y-74004782D01*
X183337670Y-74017079D01*
X183356883Y-74031329D01*
X183374607Y-74047393D01*
X183390671Y-74065117D01*
X183404921Y-74084330D01*
X183417218Y-74104847D01*
X183427446Y-74126471D01*
X183435504Y-74148993D01*
X183441316Y-74172197D01*
X183444826Y-74195858D01*
X183446000Y-74219750D01*
X183446000Y-75132250D01*
X183444826Y-75156142D01*
X183441316Y-75179803D01*
X183435504Y-75203007D01*
X183427446Y-75225529D01*
X183417218Y-75247153D01*
X183404921Y-75267670D01*
X183390671Y-75286883D01*
X183374607Y-75304607D01*
X183356883Y-75320671D01*
X183337670Y-75334921D01*
X183317153Y-75347218D01*
X183295529Y-75357446D01*
X183273007Y-75365504D01*
X183249803Y-75371316D01*
X183226142Y-75374826D01*
X183202250Y-75376000D01*
X182714750Y-75376000D01*
X182690858Y-75374826D01*
X182667197Y-75371316D01*
X182643993Y-75365504D01*
X182621471Y-75357446D01*
X182599847Y-75347218D01*
X182579330Y-75334921D01*
X182560117Y-75320671D01*
X182542393Y-75304607D01*
X182526329Y-75286883D01*
X182512079Y-75267670D01*
X182499782Y-75247153D01*
X182489554Y-75225529D01*
X182481496Y-75203007D01*
X182475684Y-75179803D01*
X182472174Y-75156142D01*
X182471000Y-75132250D01*
X182471000Y-74219750D01*
X182472174Y-74195858D01*
X182475684Y-74172197D01*
X182481496Y-74148993D01*
X182489554Y-74126471D01*
X182499782Y-74104847D01*
X182512079Y-74084330D01*
X182526329Y-74065117D01*
X182542393Y-74047393D01*
X182560117Y-74031329D01*
X182579330Y-74017079D01*
X182599847Y-74004782D01*
X182621471Y-73994554D01*
X182643993Y-73986496D01*
X182667197Y-73980684D01*
X182690858Y-73977174D01*
X182714750Y-73976000D01*
X183202250Y-73976000D01*
X183226142Y-73977174D01*
X183226142Y-73977174D01*
G37*
D11*
X182958500Y-74676000D03*
D10*
G36*
X185101142Y-73977174D02*
X185124803Y-73980684D01*
X185148007Y-73986496D01*
X185170529Y-73994554D01*
X185192153Y-74004782D01*
X185212670Y-74017079D01*
X185231883Y-74031329D01*
X185249607Y-74047393D01*
X185265671Y-74065117D01*
X185279921Y-74084330D01*
X185292218Y-74104847D01*
X185302446Y-74126471D01*
X185310504Y-74148993D01*
X185316316Y-74172197D01*
X185319826Y-74195858D01*
X185321000Y-74219750D01*
X185321000Y-75132250D01*
X185319826Y-75156142D01*
X185316316Y-75179803D01*
X185310504Y-75203007D01*
X185302446Y-75225529D01*
X185292218Y-75247153D01*
X185279921Y-75267670D01*
X185265671Y-75286883D01*
X185249607Y-75304607D01*
X185231883Y-75320671D01*
X185212670Y-75334921D01*
X185192153Y-75347218D01*
X185170529Y-75357446D01*
X185148007Y-75365504D01*
X185124803Y-75371316D01*
X185101142Y-75374826D01*
X185077250Y-75376000D01*
X184589750Y-75376000D01*
X184565858Y-75374826D01*
X184542197Y-75371316D01*
X184518993Y-75365504D01*
X184496471Y-75357446D01*
X184474847Y-75347218D01*
X184454330Y-75334921D01*
X184435117Y-75320671D01*
X184417393Y-75304607D01*
X184401329Y-75286883D01*
X184387079Y-75267670D01*
X184374782Y-75247153D01*
X184364554Y-75225529D01*
X184356496Y-75203007D01*
X184350684Y-75179803D01*
X184347174Y-75156142D01*
X184346000Y-75132250D01*
X184346000Y-74219750D01*
X184347174Y-74195858D01*
X184350684Y-74172197D01*
X184356496Y-74148993D01*
X184364554Y-74126471D01*
X184374782Y-74104847D01*
X184387079Y-74084330D01*
X184401329Y-74065117D01*
X184417393Y-74047393D01*
X184435117Y-74031329D01*
X184454330Y-74017079D01*
X184474847Y-74004782D01*
X184496471Y-73994554D01*
X184518993Y-73986496D01*
X184542197Y-73980684D01*
X184565858Y-73977174D01*
X184589750Y-73976000D01*
X185077250Y-73976000D01*
X185101142Y-73977174D01*
X185101142Y-73977174D01*
G37*
D11*
X184833500Y-74676000D03*
G04 #@! TD*
D10*
G04 #@! TO.C,R9*
G36*
X191488142Y-101192174D02*
X191511803Y-101195684D01*
X191535007Y-101201496D01*
X191557529Y-101209554D01*
X191579153Y-101219782D01*
X191599670Y-101232079D01*
X191618883Y-101246329D01*
X191636607Y-101262393D01*
X191652671Y-101280117D01*
X191666921Y-101299330D01*
X191679218Y-101319847D01*
X191689446Y-101341471D01*
X191697504Y-101363993D01*
X191703316Y-101387197D01*
X191706826Y-101410858D01*
X191708000Y-101434750D01*
X191708000Y-101922250D01*
X191706826Y-101946142D01*
X191703316Y-101969803D01*
X191697504Y-101993007D01*
X191689446Y-102015529D01*
X191679218Y-102037153D01*
X191666921Y-102057670D01*
X191652671Y-102076883D01*
X191636607Y-102094607D01*
X191618883Y-102110671D01*
X191599670Y-102124921D01*
X191579153Y-102137218D01*
X191557529Y-102147446D01*
X191535007Y-102155504D01*
X191511803Y-102161316D01*
X191488142Y-102164826D01*
X191464250Y-102166000D01*
X190551750Y-102166000D01*
X190527858Y-102164826D01*
X190504197Y-102161316D01*
X190480993Y-102155504D01*
X190458471Y-102147446D01*
X190436847Y-102137218D01*
X190416330Y-102124921D01*
X190397117Y-102110671D01*
X190379393Y-102094607D01*
X190363329Y-102076883D01*
X190349079Y-102057670D01*
X190336782Y-102037153D01*
X190326554Y-102015529D01*
X190318496Y-101993007D01*
X190312684Y-101969803D01*
X190309174Y-101946142D01*
X190308000Y-101922250D01*
X190308000Y-101434750D01*
X190309174Y-101410858D01*
X190312684Y-101387197D01*
X190318496Y-101363993D01*
X190326554Y-101341471D01*
X190336782Y-101319847D01*
X190349079Y-101299330D01*
X190363329Y-101280117D01*
X190379393Y-101262393D01*
X190397117Y-101246329D01*
X190416330Y-101232079D01*
X190436847Y-101219782D01*
X190458471Y-101209554D01*
X190480993Y-101201496D01*
X190504197Y-101195684D01*
X190527858Y-101192174D01*
X190551750Y-101191000D01*
X191464250Y-101191000D01*
X191488142Y-101192174D01*
X191488142Y-101192174D01*
G37*
D11*
X191008000Y-101678500D03*
D10*
G36*
X191488142Y-103067174D02*
X191511803Y-103070684D01*
X191535007Y-103076496D01*
X191557529Y-103084554D01*
X191579153Y-103094782D01*
X191599670Y-103107079D01*
X191618883Y-103121329D01*
X191636607Y-103137393D01*
X191652671Y-103155117D01*
X191666921Y-103174330D01*
X191679218Y-103194847D01*
X191689446Y-103216471D01*
X191697504Y-103238993D01*
X191703316Y-103262197D01*
X191706826Y-103285858D01*
X191708000Y-103309750D01*
X191708000Y-103797250D01*
X191706826Y-103821142D01*
X191703316Y-103844803D01*
X191697504Y-103868007D01*
X191689446Y-103890529D01*
X191679218Y-103912153D01*
X191666921Y-103932670D01*
X191652671Y-103951883D01*
X191636607Y-103969607D01*
X191618883Y-103985671D01*
X191599670Y-103999921D01*
X191579153Y-104012218D01*
X191557529Y-104022446D01*
X191535007Y-104030504D01*
X191511803Y-104036316D01*
X191488142Y-104039826D01*
X191464250Y-104041000D01*
X190551750Y-104041000D01*
X190527858Y-104039826D01*
X190504197Y-104036316D01*
X190480993Y-104030504D01*
X190458471Y-104022446D01*
X190436847Y-104012218D01*
X190416330Y-103999921D01*
X190397117Y-103985671D01*
X190379393Y-103969607D01*
X190363329Y-103951883D01*
X190349079Y-103932670D01*
X190336782Y-103912153D01*
X190326554Y-103890529D01*
X190318496Y-103868007D01*
X190312684Y-103844803D01*
X190309174Y-103821142D01*
X190308000Y-103797250D01*
X190308000Y-103309750D01*
X190309174Y-103285858D01*
X190312684Y-103262197D01*
X190318496Y-103238993D01*
X190326554Y-103216471D01*
X190336782Y-103194847D01*
X190349079Y-103174330D01*
X190363329Y-103155117D01*
X190379393Y-103137393D01*
X190397117Y-103121329D01*
X190416330Y-103107079D01*
X190436847Y-103094782D01*
X190458471Y-103084554D01*
X190480993Y-103076496D01*
X190504197Y-103070684D01*
X190527858Y-103067174D01*
X190551750Y-103066000D01*
X191464250Y-103066000D01*
X191488142Y-103067174D01*
X191488142Y-103067174D01*
G37*
D11*
X191008000Y-103553500D03*
G04 #@! TD*
D10*
G04 #@! TO.C,R10*
G36*
X204148299Y-102816909D02*
X204171960Y-102820419D01*
X204195164Y-102826231D01*
X204217686Y-102834289D01*
X204239310Y-102844517D01*
X204259827Y-102856814D01*
X204279040Y-102871064D01*
X204296764Y-102887128D01*
X204312828Y-102904852D01*
X204327078Y-102924065D01*
X204339375Y-102944582D01*
X204349603Y-102966206D01*
X204357661Y-102988728D01*
X204363473Y-103011932D01*
X204366983Y-103035593D01*
X204368157Y-103059485D01*
X204368157Y-103546985D01*
X204366983Y-103570877D01*
X204363473Y-103594538D01*
X204357661Y-103617742D01*
X204349603Y-103640264D01*
X204339375Y-103661888D01*
X204327078Y-103682405D01*
X204312828Y-103701618D01*
X204296764Y-103719342D01*
X204279040Y-103735406D01*
X204259827Y-103749656D01*
X204239310Y-103761953D01*
X204217686Y-103772181D01*
X204195164Y-103780239D01*
X204171960Y-103786051D01*
X204148299Y-103789561D01*
X204124407Y-103790735D01*
X203211907Y-103790735D01*
X203188015Y-103789561D01*
X203164354Y-103786051D01*
X203141150Y-103780239D01*
X203118628Y-103772181D01*
X203097004Y-103761953D01*
X203076487Y-103749656D01*
X203057274Y-103735406D01*
X203039550Y-103719342D01*
X203023486Y-103701618D01*
X203009236Y-103682405D01*
X202996939Y-103661888D01*
X202986711Y-103640264D01*
X202978653Y-103617742D01*
X202972841Y-103594538D01*
X202969331Y-103570877D01*
X202968157Y-103546985D01*
X202968157Y-103059485D01*
X202969331Y-103035593D01*
X202972841Y-103011932D01*
X202978653Y-102988728D01*
X202986711Y-102966206D01*
X202996939Y-102944582D01*
X203009236Y-102924065D01*
X203023486Y-102904852D01*
X203039550Y-102887128D01*
X203057274Y-102871064D01*
X203076487Y-102856814D01*
X203097004Y-102844517D01*
X203118628Y-102834289D01*
X203141150Y-102826231D01*
X203164354Y-102820419D01*
X203188015Y-102816909D01*
X203211907Y-102815735D01*
X204124407Y-102815735D01*
X204148299Y-102816909D01*
X204148299Y-102816909D01*
G37*
D11*
X203668157Y-103303235D03*
D10*
G36*
X204148299Y-100941909D02*
X204171960Y-100945419D01*
X204195164Y-100951231D01*
X204217686Y-100959289D01*
X204239310Y-100969517D01*
X204259827Y-100981814D01*
X204279040Y-100996064D01*
X204296764Y-101012128D01*
X204312828Y-101029852D01*
X204327078Y-101049065D01*
X204339375Y-101069582D01*
X204349603Y-101091206D01*
X204357661Y-101113728D01*
X204363473Y-101136932D01*
X204366983Y-101160593D01*
X204368157Y-101184485D01*
X204368157Y-101671985D01*
X204366983Y-101695877D01*
X204363473Y-101719538D01*
X204357661Y-101742742D01*
X204349603Y-101765264D01*
X204339375Y-101786888D01*
X204327078Y-101807405D01*
X204312828Y-101826618D01*
X204296764Y-101844342D01*
X204279040Y-101860406D01*
X204259827Y-101874656D01*
X204239310Y-101886953D01*
X204217686Y-101897181D01*
X204195164Y-101905239D01*
X204171960Y-101911051D01*
X204148299Y-101914561D01*
X204124407Y-101915735D01*
X203211907Y-101915735D01*
X203188015Y-101914561D01*
X203164354Y-101911051D01*
X203141150Y-101905239D01*
X203118628Y-101897181D01*
X203097004Y-101886953D01*
X203076487Y-101874656D01*
X203057274Y-101860406D01*
X203039550Y-101844342D01*
X203023486Y-101826618D01*
X203009236Y-101807405D01*
X202996939Y-101786888D01*
X202986711Y-101765264D01*
X202978653Y-101742742D01*
X202972841Y-101719538D01*
X202969331Y-101695877D01*
X202968157Y-101671985D01*
X202968157Y-101184485D01*
X202969331Y-101160593D01*
X202972841Y-101136932D01*
X202978653Y-101113728D01*
X202986711Y-101091206D01*
X202996939Y-101069582D01*
X203009236Y-101049065D01*
X203023486Y-101029852D01*
X203039550Y-101012128D01*
X203057274Y-100996064D01*
X203076487Y-100981814D01*
X203097004Y-100969517D01*
X203118628Y-100959289D01*
X203141150Y-100951231D01*
X203164354Y-100945419D01*
X203188015Y-100941909D01*
X203211907Y-100940735D01*
X204124407Y-100940735D01*
X204148299Y-100941909D01*
X204148299Y-100941909D01*
G37*
D11*
X203668157Y-101428235D03*
G04 #@! TD*
D10*
G04 #@! TO.C,R11*
G36*
X191488142Y-97128174D02*
X191511803Y-97131684D01*
X191535007Y-97137496D01*
X191557529Y-97145554D01*
X191579153Y-97155782D01*
X191599670Y-97168079D01*
X191618883Y-97182329D01*
X191636607Y-97198393D01*
X191652671Y-97216117D01*
X191666921Y-97235330D01*
X191679218Y-97255847D01*
X191689446Y-97277471D01*
X191697504Y-97299993D01*
X191703316Y-97323197D01*
X191706826Y-97346858D01*
X191708000Y-97370750D01*
X191708000Y-97858250D01*
X191706826Y-97882142D01*
X191703316Y-97905803D01*
X191697504Y-97929007D01*
X191689446Y-97951529D01*
X191679218Y-97973153D01*
X191666921Y-97993670D01*
X191652671Y-98012883D01*
X191636607Y-98030607D01*
X191618883Y-98046671D01*
X191599670Y-98060921D01*
X191579153Y-98073218D01*
X191557529Y-98083446D01*
X191535007Y-98091504D01*
X191511803Y-98097316D01*
X191488142Y-98100826D01*
X191464250Y-98102000D01*
X190551750Y-98102000D01*
X190527858Y-98100826D01*
X190504197Y-98097316D01*
X190480993Y-98091504D01*
X190458471Y-98083446D01*
X190436847Y-98073218D01*
X190416330Y-98060921D01*
X190397117Y-98046671D01*
X190379393Y-98030607D01*
X190363329Y-98012883D01*
X190349079Y-97993670D01*
X190336782Y-97973153D01*
X190326554Y-97951529D01*
X190318496Y-97929007D01*
X190312684Y-97905803D01*
X190309174Y-97882142D01*
X190308000Y-97858250D01*
X190308000Y-97370750D01*
X190309174Y-97346858D01*
X190312684Y-97323197D01*
X190318496Y-97299993D01*
X190326554Y-97277471D01*
X190336782Y-97255847D01*
X190349079Y-97235330D01*
X190363329Y-97216117D01*
X190379393Y-97198393D01*
X190397117Y-97182329D01*
X190416330Y-97168079D01*
X190436847Y-97155782D01*
X190458471Y-97145554D01*
X190480993Y-97137496D01*
X190504197Y-97131684D01*
X190527858Y-97128174D01*
X190551750Y-97127000D01*
X191464250Y-97127000D01*
X191488142Y-97128174D01*
X191488142Y-97128174D01*
G37*
D11*
X191008000Y-97614500D03*
D10*
G36*
X191488142Y-99003174D02*
X191511803Y-99006684D01*
X191535007Y-99012496D01*
X191557529Y-99020554D01*
X191579153Y-99030782D01*
X191599670Y-99043079D01*
X191618883Y-99057329D01*
X191636607Y-99073393D01*
X191652671Y-99091117D01*
X191666921Y-99110330D01*
X191679218Y-99130847D01*
X191689446Y-99152471D01*
X191697504Y-99174993D01*
X191703316Y-99198197D01*
X191706826Y-99221858D01*
X191708000Y-99245750D01*
X191708000Y-99733250D01*
X191706826Y-99757142D01*
X191703316Y-99780803D01*
X191697504Y-99804007D01*
X191689446Y-99826529D01*
X191679218Y-99848153D01*
X191666921Y-99868670D01*
X191652671Y-99887883D01*
X191636607Y-99905607D01*
X191618883Y-99921671D01*
X191599670Y-99935921D01*
X191579153Y-99948218D01*
X191557529Y-99958446D01*
X191535007Y-99966504D01*
X191511803Y-99972316D01*
X191488142Y-99975826D01*
X191464250Y-99977000D01*
X190551750Y-99977000D01*
X190527858Y-99975826D01*
X190504197Y-99972316D01*
X190480993Y-99966504D01*
X190458471Y-99958446D01*
X190436847Y-99948218D01*
X190416330Y-99935921D01*
X190397117Y-99921671D01*
X190379393Y-99905607D01*
X190363329Y-99887883D01*
X190349079Y-99868670D01*
X190336782Y-99848153D01*
X190326554Y-99826529D01*
X190318496Y-99804007D01*
X190312684Y-99780803D01*
X190309174Y-99757142D01*
X190308000Y-99733250D01*
X190308000Y-99245750D01*
X190309174Y-99221858D01*
X190312684Y-99198197D01*
X190318496Y-99174993D01*
X190326554Y-99152471D01*
X190336782Y-99130847D01*
X190349079Y-99110330D01*
X190363329Y-99091117D01*
X190379393Y-99073393D01*
X190397117Y-99057329D01*
X190416330Y-99043079D01*
X190436847Y-99030782D01*
X190458471Y-99020554D01*
X190480993Y-99012496D01*
X190504197Y-99006684D01*
X190527858Y-99003174D01*
X190551750Y-99002000D01*
X191464250Y-99002000D01*
X191488142Y-99003174D01*
X191488142Y-99003174D01*
G37*
D11*
X191008000Y-99489500D03*
G04 #@! TD*
D10*
G04 #@! TO.C,R13*
G36*
X133950142Y-119189174D02*
X133973803Y-119192684D01*
X133997007Y-119198496D01*
X134019529Y-119206554D01*
X134041153Y-119216782D01*
X134061670Y-119229079D01*
X134080883Y-119243329D01*
X134098607Y-119259393D01*
X134114671Y-119277117D01*
X134128921Y-119296330D01*
X134141218Y-119316847D01*
X134151446Y-119338471D01*
X134159504Y-119360993D01*
X134165316Y-119384197D01*
X134168826Y-119407858D01*
X134170000Y-119431750D01*
X134170000Y-120344250D01*
X134168826Y-120368142D01*
X134165316Y-120391803D01*
X134159504Y-120415007D01*
X134151446Y-120437529D01*
X134141218Y-120459153D01*
X134128921Y-120479670D01*
X134114671Y-120498883D01*
X134098607Y-120516607D01*
X134080883Y-120532671D01*
X134061670Y-120546921D01*
X134041153Y-120559218D01*
X134019529Y-120569446D01*
X133997007Y-120577504D01*
X133973803Y-120583316D01*
X133950142Y-120586826D01*
X133926250Y-120588000D01*
X133438750Y-120588000D01*
X133414858Y-120586826D01*
X133391197Y-120583316D01*
X133367993Y-120577504D01*
X133345471Y-120569446D01*
X133323847Y-120559218D01*
X133303330Y-120546921D01*
X133284117Y-120532671D01*
X133266393Y-120516607D01*
X133250329Y-120498883D01*
X133236079Y-120479670D01*
X133223782Y-120459153D01*
X133213554Y-120437529D01*
X133205496Y-120415007D01*
X133199684Y-120391803D01*
X133196174Y-120368142D01*
X133195000Y-120344250D01*
X133195000Y-119431750D01*
X133196174Y-119407858D01*
X133199684Y-119384197D01*
X133205496Y-119360993D01*
X133213554Y-119338471D01*
X133223782Y-119316847D01*
X133236079Y-119296330D01*
X133250329Y-119277117D01*
X133266393Y-119259393D01*
X133284117Y-119243329D01*
X133303330Y-119229079D01*
X133323847Y-119216782D01*
X133345471Y-119206554D01*
X133367993Y-119198496D01*
X133391197Y-119192684D01*
X133414858Y-119189174D01*
X133438750Y-119188000D01*
X133926250Y-119188000D01*
X133950142Y-119189174D01*
X133950142Y-119189174D01*
G37*
D11*
X133682500Y-119888000D03*
D10*
G36*
X135825142Y-119189174D02*
X135848803Y-119192684D01*
X135872007Y-119198496D01*
X135894529Y-119206554D01*
X135916153Y-119216782D01*
X135936670Y-119229079D01*
X135955883Y-119243329D01*
X135973607Y-119259393D01*
X135989671Y-119277117D01*
X136003921Y-119296330D01*
X136016218Y-119316847D01*
X136026446Y-119338471D01*
X136034504Y-119360993D01*
X136040316Y-119384197D01*
X136043826Y-119407858D01*
X136045000Y-119431750D01*
X136045000Y-120344250D01*
X136043826Y-120368142D01*
X136040316Y-120391803D01*
X136034504Y-120415007D01*
X136026446Y-120437529D01*
X136016218Y-120459153D01*
X136003921Y-120479670D01*
X135989671Y-120498883D01*
X135973607Y-120516607D01*
X135955883Y-120532671D01*
X135936670Y-120546921D01*
X135916153Y-120559218D01*
X135894529Y-120569446D01*
X135872007Y-120577504D01*
X135848803Y-120583316D01*
X135825142Y-120586826D01*
X135801250Y-120588000D01*
X135313750Y-120588000D01*
X135289858Y-120586826D01*
X135266197Y-120583316D01*
X135242993Y-120577504D01*
X135220471Y-120569446D01*
X135198847Y-120559218D01*
X135178330Y-120546921D01*
X135159117Y-120532671D01*
X135141393Y-120516607D01*
X135125329Y-120498883D01*
X135111079Y-120479670D01*
X135098782Y-120459153D01*
X135088554Y-120437529D01*
X135080496Y-120415007D01*
X135074684Y-120391803D01*
X135071174Y-120368142D01*
X135070000Y-120344250D01*
X135070000Y-119431750D01*
X135071174Y-119407858D01*
X135074684Y-119384197D01*
X135080496Y-119360993D01*
X135088554Y-119338471D01*
X135098782Y-119316847D01*
X135111079Y-119296330D01*
X135125329Y-119277117D01*
X135141393Y-119259393D01*
X135159117Y-119243329D01*
X135178330Y-119229079D01*
X135198847Y-119216782D01*
X135220471Y-119206554D01*
X135242993Y-119198496D01*
X135266197Y-119192684D01*
X135289858Y-119189174D01*
X135313750Y-119188000D01*
X135801250Y-119188000D01*
X135825142Y-119189174D01*
X135825142Y-119189174D01*
G37*
D11*
X135557500Y-119888000D03*
G04 #@! TD*
D10*
G04 #@! TO.C,R12*
G36*
X139889142Y-119189174D02*
X139912803Y-119192684D01*
X139936007Y-119198496D01*
X139958529Y-119206554D01*
X139980153Y-119216782D01*
X140000670Y-119229079D01*
X140019883Y-119243329D01*
X140037607Y-119259393D01*
X140053671Y-119277117D01*
X140067921Y-119296330D01*
X140080218Y-119316847D01*
X140090446Y-119338471D01*
X140098504Y-119360993D01*
X140104316Y-119384197D01*
X140107826Y-119407858D01*
X140109000Y-119431750D01*
X140109000Y-120344250D01*
X140107826Y-120368142D01*
X140104316Y-120391803D01*
X140098504Y-120415007D01*
X140090446Y-120437529D01*
X140080218Y-120459153D01*
X140067921Y-120479670D01*
X140053671Y-120498883D01*
X140037607Y-120516607D01*
X140019883Y-120532671D01*
X140000670Y-120546921D01*
X139980153Y-120559218D01*
X139958529Y-120569446D01*
X139936007Y-120577504D01*
X139912803Y-120583316D01*
X139889142Y-120586826D01*
X139865250Y-120588000D01*
X139377750Y-120588000D01*
X139353858Y-120586826D01*
X139330197Y-120583316D01*
X139306993Y-120577504D01*
X139284471Y-120569446D01*
X139262847Y-120559218D01*
X139242330Y-120546921D01*
X139223117Y-120532671D01*
X139205393Y-120516607D01*
X139189329Y-120498883D01*
X139175079Y-120479670D01*
X139162782Y-120459153D01*
X139152554Y-120437529D01*
X139144496Y-120415007D01*
X139138684Y-120391803D01*
X139135174Y-120368142D01*
X139134000Y-120344250D01*
X139134000Y-119431750D01*
X139135174Y-119407858D01*
X139138684Y-119384197D01*
X139144496Y-119360993D01*
X139152554Y-119338471D01*
X139162782Y-119316847D01*
X139175079Y-119296330D01*
X139189329Y-119277117D01*
X139205393Y-119259393D01*
X139223117Y-119243329D01*
X139242330Y-119229079D01*
X139262847Y-119216782D01*
X139284471Y-119206554D01*
X139306993Y-119198496D01*
X139330197Y-119192684D01*
X139353858Y-119189174D01*
X139377750Y-119188000D01*
X139865250Y-119188000D01*
X139889142Y-119189174D01*
X139889142Y-119189174D01*
G37*
D11*
X139621500Y-119888000D03*
D10*
G36*
X138014142Y-119189174D02*
X138037803Y-119192684D01*
X138061007Y-119198496D01*
X138083529Y-119206554D01*
X138105153Y-119216782D01*
X138125670Y-119229079D01*
X138144883Y-119243329D01*
X138162607Y-119259393D01*
X138178671Y-119277117D01*
X138192921Y-119296330D01*
X138205218Y-119316847D01*
X138215446Y-119338471D01*
X138223504Y-119360993D01*
X138229316Y-119384197D01*
X138232826Y-119407858D01*
X138234000Y-119431750D01*
X138234000Y-120344250D01*
X138232826Y-120368142D01*
X138229316Y-120391803D01*
X138223504Y-120415007D01*
X138215446Y-120437529D01*
X138205218Y-120459153D01*
X138192921Y-120479670D01*
X138178671Y-120498883D01*
X138162607Y-120516607D01*
X138144883Y-120532671D01*
X138125670Y-120546921D01*
X138105153Y-120559218D01*
X138083529Y-120569446D01*
X138061007Y-120577504D01*
X138037803Y-120583316D01*
X138014142Y-120586826D01*
X137990250Y-120588000D01*
X137502750Y-120588000D01*
X137478858Y-120586826D01*
X137455197Y-120583316D01*
X137431993Y-120577504D01*
X137409471Y-120569446D01*
X137387847Y-120559218D01*
X137367330Y-120546921D01*
X137348117Y-120532671D01*
X137330393Y-120516607D01*
X137314329Y-120498883D01*
X137300079Y-120479670D01*
X137287782Y-120459153D01*
X137277554Y-120437529D01*
X137269496Y-120415007D01*
X137263684Y-120391803D01*
X137260174Y-120368142D01*
X137259000Y-120344250D01*
X137259000Y-119431750D01*
X137260174Y-119407858D01*
X137263684Y-119384197D01*
X137269496Y-119360993D01*
X137277554Y-119338471D01*
X137287782Y-119316847D01*
X137300079Y-119296330D01*
X137314329Y-119277117D01*
X137330393Y-119259393D01*
X137348117Y-119243329D01*
X137367330Y-119229079D01*
X137387847Y-119216782D01*
X137409471Y-119206554D01*
X137431993Y-119198496D01*
X137455197Y-119192684D01*
X137478858Y-119189174D01*
X137502750Y-119188000D01*
X137990250Y-119188000D01*
X138014142Y-119189174D01*
X138014142Y-119189174D01*
G37*
D11*
X137746500Y-119888000D03*
G04 #@! TD*
D10*
G04 #@! TO.C,R6*
G36*
X142212142Y-79953174D02*
X142235803Y-79956684D01*
X142259007Y-79962496D01*
X142281529Y-79970554D01*
X142303153Y-79980782D01*
X142323670Y-79993079D01*
X142342883Y-80007329D01*
X142360607Y-80023393D01*
X142376671Y-80041117D01*
X142390921Y-80060330D01*
X142403218Y-80080847D01*
X142413446Y-80102471D01*
X142421504Y-80124993D01*
X142427316Y-80148197D01*
X142430826Y-80171858D01*
X142432000Y-80195750D01*
X142432000Y-80683250D01*
X142430826Y-80707142D01*
X142427316Y-80730803D01*
X142421504Y-80754007D01*
X142413446Y-80776529D01*
X142403218Y-80798153D01*
X142390921Y-80818670D01*
X142376671Y-80837883D01*
X142360607Y-80855607D01*
X142342883Y-80871671D01*
X142323670Y-80885921D01*
X142303153Y-80898218D01*
X142281529Y-80908446D01*
X142259007Y-80916504D01*
X142235803Y-80922316D01*
X142212142Y-80925826D01*
X142188250Y-80927000D01*
X141275750Y-80927000D01*
X141251858Y-80925826D01*
X141228197Y-80922316D01*
X141204993Y-80916504D01*
X141182471Y-80908446D01*
X141160847Y-80898218D01*
X141140330Y-80885921D01*
X141121117Y-80871671D01*
X141103393Y-80855607D01*
X141087329Y-80837883D01*
X141073079Y-80818670D01*
X141060782Y-80798153D01*
X141050554Y-80776529D01*
X141042496Y-80754007D01*
X141036684Y-80730803D01*
X141033174Y-80707142D01*
X141032000Y-80683250D01*
X141032000Y-80195750D01*
X141033174Y-80171858D01*
X141036684Y-80148197D01*
X141042496Y-80124993D01*
X141050554Y-80102471D01*
X141060782Y-80080847D01*
X141073079Y-80060330D01*
X141087329Y-80041117D01*
X141103393Y-80023393D01*
X141121117Y-80007329D01*
X141140330Y-79993079D01*
X141160847Y-79980782D01*
X141182471Y-79970554D01*
X141204993Y-79962496D01*
X141228197Y-79956684D01*
X141251858Y-79953174D01*
X141275750Y-79952000D01*
X142188250Y-79952000D01*
X142212142Y-79953174D01*
X142212142Y-79953174D01*
G37*
D11*
X141732000Y-80439500D03*
D10*
G36*
X142212142Y-78078174D02*
X142235803Y-78081684D01*
X142259007Y-78087496D01*
X142281529Y-78095554D01*
X142303153Y-78105782D01*
X142323670Y-78118079D01*
X142342883Y-78132329D01*
X142360607Y-78148393D01*
X142376671Y-78166117D01*
X142390921Y-78185330D01*
X142403218Y-78205847D01*
X142413446Y-78227471D01*
X142421504Y-78249993D01*
X142427316Y-78273197D01*
X142430826Y-78296858D01*
X142432000Y-78320750D01*
X142432000Y-78808250D01*
X142430826Y-78832142D01*
X142427316Y-78855803D01*
X142421504Y-78879007D01*
X142413446Y-78901529D01*
X142403218Y-78923153D01*
X142390921Y-78943670D01*
X142376671Y-78962883D01*
X142360607Y-78980607D01*
X142342883Y-78996671D01*
X142323670Y-79010921D01*
X142303153Y-79023218D01*
X142281529Y-79033446D01*
X142259007Y-79041504D01*
X142235803Y-79047316D01*
X142212142Y-79050826D01*
X142188250Y-79052000D01*
X141275750Y-79052000D01*
X141251858Y-79050826D01*
X141228197Y-79047316D01*
X141204993Y-79041504D01*
X141182471Y-79033446D01*
X141160847Y-79023218D01*
X141140330Y-79010921D01*
X141121117Y-78996671D01*
X141103393Y-78980607D01*
X141087329Y-78962883D01*
X141073079Y-78943670D01*
X141060782Y-78923153D01*
X141050554Y-78901529D01*
X141042496Y-78879007D01*
X141036684Y-78855803D01*
X141033174Y-78832142D01*
X141032000Y-78808250D01*
X141032000Y-78320750D01*
X141033174Y-78296858D01*
X141036684Y-78273197D01*
X141042496Y-78249993D01*
X141050554Y-78227471D01*
X141060782Y-78205847D01*
X141073079Y-78185330D01*
X141087329Y-78166117D01*
X141103393Y-78148393D01*
X141121117Y-78132329D01*
X141140330Y-78118079D01*
X141160847Y-78105782D01*
X141182471Y-78095554D01*
X141204993Y-78087496D01*
X141228197Y-78081684D01*
X141251858Y-78078174D01*
X141275750Y-78077000D01*
X142188250Y-78077000D01*
X142212142Y-78078174D01*
X142212142Y-78078174D01*
G37*
D11*
X141732000Y-78564500D03*
G04 #@! TD*
D10*
G04 #@! TO.C,R25*
G36*
X147292142Y-69031174D02*
X147315803Y-69034684D01*
X147339007Y-69040496D01*
X147361529Y-69048554D01*
X147383153Y-69058782D01*
X147403670Y-69071079D01*
X147422883Y-69085329D01*
X147440607Y-69101393D01*
X147456671Y-69119117D01*
X147470921Y-69138330D01*
X147483218Y-69158847D01*
X147493446Y-69180471D01*
X147501504Y-69202993D01*
X147507316Y-69226197D01*
X147510826Y-69249858D01*
X147512000Y-69273750D01*
X147512000Y-69761250D01*
X147510826Y-69785142D01*
X147507316Y-69808803D01*
X147501504Y-69832007D01*
X147493446Y-69854529D01*
X147483218Y-69876153D01*
X147470921Y-69896670D01*
X147456671Y-69915883D01*
X147440607Y-69933607D01*
X147422883Y-69949671D01*
X147403670Y-69963921D01*
X147383153Y-69976218D01*
X147361529Y-69986446D01*
X147339007Y-69994504D01*
X147315803Y-70000316D01*
X147292142Y-70003826D01*
X147268250Y-70005000D01*
X146355750Y-70005000D01*
X146331858Y-70003826D01*
X146308197Y-70000316D01*
X146284993Y-69994504D01*
X146262471Y-69986446D01*
X146240847Y-69976218D01*
X146220330Y-69963921D01*
X146201117Y-69949671D01*
X146183393Y-69933607D01*
X146167329Y-69915883D01*
X146153079Y-69896670D01*
X146140782Y-69876153D01*
X146130554Y-69854529D01*
X146122496Y-69832007D01*
X146116684Y-69808803D01*
X146113174Y-69785142D01*
X146112000Y-69761250D01*
X146112000Y-69273750D01*
X146113174Y-69249858D01*
X146116684Y-69226197D01*
X146122496Y-69202993D01*
X146130554Y-69180471D01*
X146140782Y-69158847D01*
X146153079Y-69138330D01*
X146167329Y-69119117D01*
X146183393Y-69101393D01*
X146201117Y-69085329D01*
X146220330Y-69071079D01*
X146240847Y-69058782D01*
X146262471Y-69048554D01*
X146284993Y-69040496D01*
X146308197Y-69034684D01*
X146331858Y-69031174D01*
X146355750Y-69030000D01*
X147268250Y-69030000D01*
X147292142Y-69031174D01*
X147292142Y-69031174D01*
G37*
D11*
X146812000Y-69517500D03*
D10*
G36*
X147292142Y-67156174D02*
X147315803Y-67159684D01*
X147339007Y-67165496D01*
X147361529Y-67173554D01*
X147383153Y-67183782D01*
X147403670Y-67196079D01*
X147422883Y-67210329D01*
X147440607Y-67226393D01*
X147456671Y-67244117D01*
X147470921Y-67263330D01*
X147483218Y-67283847D01*
X147493446Y-67305471D01*
X147501504Y-67327993D01*
X147507316Y-67351197D01*
X147510826Y-67374858D01*
X147512000Y-67398750D01*
X147512000Y-67886250D01*
X147510826Y-67910142D01*
X147507316Y-67933803D01*
X147501504Y-67957007D01*
X147493446Y-67979529D01*
X147483218Y-68001153D01*
X147470921Y-68021670D01*
X147456671Y-68040883D01*
X147440607Y-68058607D01*
X147422883Y-68074671D01*
X147403670Y-68088921D01*
X147383153Y-68101218D01*
X147361529Y-68111446D01*
X147339007Y-68119504D01*
X147315803Y-68125316D01*
X147292142Y-68128826D01*
X147268250Y-68130000D01*
X146355750Y-68130000D01*
X146331858Y-68128826D01*
X146308197Y-68125316D01*
X146284993Y-68119504D01*
X146262471Y-68111446D01*
X146240847Y-68101218D01*
X146220330Y-68088921D01*
X146201117Y-68074671D01*
X146183393Y-68058607D01*
X146167329Y-68040883D01*
X146153079Y-68021670D01*
X146140782Y-68001153D01*
X146130554Y-67979529D01*
X146122496Y-67957007D01*
X146116684Y-67933803D01*
X146113174Y-67910142D01*
X146112000Y-67886250D01*
X146112000Y-67398750D01*
X146113174Y-67374858D01*
X146116684Y-67351197D01*
X146122496Y-67327993D01*
X146130554Y-67305471D01*
X146140782Y-67283847D01*
X146153079Y-67263330D01*
X146167329Y-67244117D01*
X146183393Y-67226393D01*
X146201117Y-67210329D01*
X146220330Y-67196079D01*
X146240847Y-67183782D01*
X146262471Y-67173554D01*
X146284993Y-67165496D01*
X146308197Y-67159684D01*
X146331858Y-67156174D01*
X146355750Y-67155000D01*
X147268250Y-67155000D01*
X147292142Y-67156174D01*
X147292142Y-67156174D01*
G37*
D11*
X146812000Y-67642500D03*
G04 #@! TD*
D10*
G04 #@! TO.C,R24*
G36*
X126330142Y-71437174D02*
X126353803Y-71440684D01*
X126377007Y-71446496D01*
X126399529Y-71454554D01*
X126421153Y-71464782D01*
X126441670Y-71477079D01*
X126460883Y-71491329D01*
X126478607Y-71507393D01*
X126494671Y-71525117D01*
X126508921Y-71544330D01*
X126521218Y-71564847D01*
X126531446Y-71586471D01*
X126539504Y-71608993D01*
X126545316Y-71632197D01*
X126548826Y-71655858D01*
X126550000Y-71679750D01*
X126550000Y-72592250D01*
X126548826Y-72616142D01*
X126545316Y-72639803D01*
X126539504Y-72663007D01*
X126531446Y-72685529D01*
X126521218Y-72707153D01*
X126508921Y-72727670D01*
X126494671Y-72746883D01*
X126478607Y-72764607D01*
X126460883Y-72780671D01*
X126441670Y-72794921D01*
X126421153Y-72807218D01*
X126399529Y-72817446D01*
X126377007Y-72825504D01*
X126353803Y-72831316D01*
X126330142Y-72834826D01*
X126306250Y-72836000D01*
X125818750Y-72836000D01*
X125794858Y-72834826D01*
X125771197Y-72831316D01*
X125747993Y-72825504D01*
X125725471Y-72817446D01*
X125703847Y-72807218D01*
X125683330Y-72794921D01*
X125664117Y-72780671D01*
X125646393Y-72764607D01*
X125630329Y-72746883D01*
X125616079Y-72727670D01*
X125603782Y-72707153D01*
X125593554Y-72685529D01*
X125585496Y-72663007D01*
X125579684Y-72639803D01*
X125576174Y-72616142D01*
X125575000Y-72592250D01*
X125575000Y-71679750D01*
X125576174Y-71655858D01*
X125579684Y-71632197D01*
X125585496Y-71608993D01*
X125593554Y-71586471D01*
X125603782Y-71564847D01*
X125616079Y-71544330D01*
X125630329Y-71525117D01*
X125646393Y-71507393D01*
X125664117Y-71491329D01*
X125683330Y-71477079D01*
X125703847Y-71464782D01*
X125725471Y-71454554D01*
X125747993Y-71446496D01*
X125771197Y-71440684D01*
X125794858Y-71437174D01*
X125818750Y-71436000D01*
X126306250Y-71436000D01*
X126330142Y-71437174D01*
X126330142Y-71437174D01*
G37*
D11*
X126062500Y-72136000D03*
D10*
G36*
X128205142Y-71437174D02*
X128228803Y-71440684D01*
X128252007Y-71446496D01*
X128274529Y-71454554D01*
X128296153Y-71464782D01*
X128316670Y-71477079D01*
X128335883Y-71491329D01*
X128353607Y-71507393D01*
X128369671Y-71525117D01*
X128383921Y-71544330D01*
X128396218Y-71564847D01*
X128406446Y-71586471D01*
X128414504Y-71608993D01*
X128420316Y-71632197D01*
X128423826Y-71655858D01*
X128425000Y-71679750D01*
X128425000Y-72592250D01*
X128423826Y-72616142D01*
X128420316Y-72639803D01*
X128414504Y-72663007D01*
X128406446Y-72685529D01*
X128396218Y-72707153D01*
X128383921Y-72727670D01*
X128369671Y-72746883D01*
X128353607Y-72764607D01*
X128335883Y-72780671D01*
X128316670Y-72794921D01*
X128296153Y-72807218D01*
X128274529Y-72817446D01*
X128252007Y-72825504D01*
X128228803Y-72831316D01*
X128205142Y-72834826D01*
X128181250Y-72836000D01*
X127693750Y-72836000D01*
X127669858Y-72834826D01*
X127646197Y-72831316D01*
X127622993Y-72825504D01*
X127600471Y-72817446D01*
X127578847Y-72807218D01*
X127558330Y-72794921D01*
X127539117Y-72780671D01*
X127521393Y-72764607D01*
X127505329Y-72746883D01*
X127491079Y-72727670D01*
X127478782Y-72707153D01*
X127468554Y-72685529D01*
X127460496Y-72663007D01*
X127454684Y-72639803D01*
X127451174Y-72616142D01*
X127450000Y-72592250D01*
X127450000Y-71679750D01*
X127451174Y-71655858D01*
X127454684Y-71632197D01*
X127460496Y-71608993D01*
X127468554Y-71586471D01*
X127478782Y-71564847D01*
X127491079Y-71544330D01*
X127505329Y-71525117D01*
X127521393Y-71507393D01*
X127539117Y-71491329D01*
X127558330Y-71477079D01*
X127578847Y-71464782D01*
X127600471Y-71454554D01*
X127622993Y-71446496D01*
X127646197Y-71440684D01*
X127669858Y-71437174D01*
X127693750Y-71436000D01*
X128181250Y-71436000D01*
X128205142Y-71437174D01*
X128205142Y-71437174D01*
G37*
D11*
X127937500Y-72136000D03*
G04 #@! TD*
D10*
G04 #@! TO.C,R14*
G36*
X180021142Y-119189174D02*
X180044803Y-119192684D01*
X180068007Y-119198496D01*
X180090529Y-119206554D01*
X180112153Y-119216782D01*
X180132670Y-119229079D01*
X180151883Y-119243329D01*
X180169607Y-119259393D01*
X180185671Y-119277117D01*
X180199921Y-119296330D01*
X180212218Y-119316847D01*
X180222446Y-119338471D01*
X180230504Y-119360993D01*
X180236316Y-119384197D01*
X180239826Y-119407858D01*
X180241000Y-119431750D01*
X180241000Y-120344250D01*
X180239826Y-120368142D01*
X180236316Y-120391803D01*
X180230504Y-120415007D01*
X180222446Y-120437529D01*
X180212218Y-120459153D01*
X180199921Y-120479670D01*
X180185671Y-120498883D01*
X180169607Y-120516607D01*
X180151883Y-120532671D01*
X180132670Y-120546921D01*
X180112153Y-120559218D01*
X180090529Y-120569446D01*
X180068007Y-120577504D01*
X180044803Y-120583316D01*
X180021142Y-120586826D01*
X179997250Y-120588000D01*
X179509750Y-120588000D01*
X179485858Y-120586826D01*
X179462197Y-120583316D01*
X179438993Y-120577504D01*
X179416471Y-120569446D01*
X179394847Y-120559218D01*
X179374330Y-120546921D01*
X179355117Y-120532671D01*
X179337393Y-120516607D01*
X179321329Y-120498883D01*
X179307079Y-120479670D01*
X179294782Y-120459153D01*
X179284554Y-120437529D01*
X179276496Y-120415007D01*
X179270684Y-120391803D01*
X179267174Y-120368142D01*
X179266000Y-120344250D01*
X179266000Y-119431750D01*
X179267174Y-119407858D01*
X179270684Y-119384197D01*
X179276496Y-119360993D01*
X179284554Y-119338471D01*
X179294782Y-119316847D01*
X179307079Y-119296330D01*
X179321329Y-119277117D01*
X179337393Y-119259393D01*
X179355117Y-119243329D01*
X179374330Y-119229079D01*
X179394847Y-119216782D01*
X179416471Y-119206554D01*
X179438993Y-119198496D01*
X179462197Y-119192684D01*
X179485858Y-119189174D01*
X179509750Y-119188000D01*
X179997250Y-119188000D01*
X180021142Y-119189174D01*
X180021142Y-119189174D01*
G37*
D11*
X179753500Y-119888000D03*
D10*
G36*
X178146142Y-119189174D02*
X178169803Y-119192684D01*
X178193007Y-119198496D01*
X178215529Y-119206554D01*
X178237153Y-119216782D01*
X178257670Y-119229079D01*
X178276883Y-119243329D01*
X178294607Y-119259393D01*
X178310671Y-119277117D01*
X178324921Y-119296330D01*
X178337218Y-119316847D01*
X178347446Y-119338471D01*
X178355504Y-119360993D01*
X178361316Y-119384197D01*
X178364826Y-119407858D01*
X178366000Y-119431750D01*
X178366000Y-120344250D01*
X178364826Y-120368142D01*
X178361316Y-120391803D01*
X178355504Y-120415007D01*
X178347446Y-120437529D01*
X178337218Y-120459153D01*
X178324921Y-120479670D01*
X178310671Y-120498883D01*
X178294607Y-120516607D01*
X178276883Y-120532671D01*
X178257670Y-120546921D01*
X178237153Y-120559218D01*
X178215529Y-120569446D01*
X178193007Y-120577504D01*
X178169803Y-120583316D01*
X178146142Y-120586826D01*
X178122250Y-120588000D01*
X177634750Y-120588000D01*
X177610858Y-120586826D01*
X177587197Y-120583316D01*
X177563993Y-120577504D01*
X177541471Y-120569446D01*
X177519847Y-120559218D01*
X177499330Y-120546921D01*
X177480117Y-120532671D01*
X177462393Y-120516607D01*
X177446329Y-120498883D01*
X177432079Y-120479670D01*
X177419782Y-120459153D01*
X177409554Y-120437529D01*
X177401496Y-120415007D01*
X177395684Y-120391803D01*
X177392174Y-120368142D01*
X177391000Y-120344250D01*
X177391000Y-119431750D01*
X177392174Y-119407858D01*
X177395684Y-119384197D01*
X177401496Y-119360993D01*
X177409554Y-119338471D01*
X177419782Y-119316847D01*
X177432079Y-119296330D01*
X177446329Y-119277117D01*
X177462393Y-119259393D01*
X177480117Y-119243329D01*
X177499330Y-119229079D01*
X177519847Y-119216782D01*
X177541471Y-119206554D01*
X177563993Y-119198496D01*
X177587197Y-119192684D01*
X177610858Y-119189174D01*
X177634750Y-119188000D01*
X178122250Y-119188000D01*
X178146142Y-119189174D01*
X178146142Y-119189174D01*
G37*
D11*
X177878500Y-119888000D03*
G04 #@! TD*
D10*
G04 #@! TO.C,R26*
G36*
X150206142Y-55689174D02*
X150229803Y-55692684D01*
X150253007Y-55698496D01*
X150275529Y-55706554D01*
X150297153Y-55716782D01*
X150317670Y-55729079D01*
X150336883Y-55743329D01*
X150354607Y-55759393D01*
X150370671Y-55777117D01*
X150384921Y-55796330D01*
X150397218Y-55816847D01*
X150407446Y-55838471D01*
X150415504Y-55860993D01*
X150421316Y-55884197D01*
X150424826Y-55907858D01*
X150426000Y-55931750D01*
X150426000Y-56844250D01*
X150424826Y-56868142D01*
X150421316Y-56891803D01*
X150415504Y-56915007D01*
X150407446Y-56937529D01*
X150397218Y-56959153D01*
X150384921Y-56979670D01*
X150370671Y-56998883D01*
X150354607Y-57016607D01*
X150336883Y-57032671D01*
X150317670Y-57046921D01*
X150297153Y-57059218D01*
X150275529Y-57069446D01*
X150253007Y-57077504D01*
X150229803Y-57083316D01*
X150206142Y-57086826D01*
X150182250Y-57088000D01*
X149694750Y-57088000D01*
X149670858Y-57086826D01*
X149647197Y-57083316D01*
X149623993Y-57077504D01*
X149601471Y-57069446D01*
X149579847Y-57059218D01*
X149559330Y-57046921D01*
X149540117Y-57032671D01*
X149522393Y-57016607D01*
X149506329Y-56998883D01*
X149492079Y-56979670D01*
X149479782Y-56959153D01*
X149469554Y-56937529D01*
X149461496Y-56915007D01*
X149455684Y-56891803D01*
X149452174Y-56868142D01*
X149451000Y-56844250D01*
X149451000Y-55931750D01*
X149452174Y-55907858D01*
X149455684Y-55884197D01*
X149461496Y-55860993D01*
X149469554Y-55838471D01*
X149479782Y-55816847D01*
X149492079Y-55796330D01*
X149506329Y-55777117D01*
X149522393Y-55759393D01*
X149540117Y-55743329D01*
X149559330Y-55729079D01*
X149579847Y-55716782D01*
X149601471Y-55706554D01*
X149623993Y-55698496D01*
X149647197Y-55692684D01*
X149670858Y-55689174D01*
X149694750Y-55688000D01*
X150182250Y-55688000D01*
X150206142Y-55689174D01*
X150206142Y-55689174D01*
G37*
D11*
X149938500Y-56388000D03*
D10*
G36*
X152081142Y-55689174D02*
X152104803Y-55692684D01*
X152128007Y-55698496D01*
X152150529Y-55706554D01*
X152172153Y-55716782D01*
X152192670Y-55729079D01*
X152211883Y-55743329D01*
X152229607Y-55759393D01*
X152245671Y-55777117D01*
X152259921Y-55796330D01*
X152272218Y-55816847D01*
X152282446Y-55838471D01*
X152290504Y-55860993D01*
X152296316Y-55884197D01*
X152299826Y-55907858D01*
X152301000Y-55931750D01*
X152301000Y-56844250D01*
X152299826Y-56868142D01*
X152296316Y-56891803D01*
X152290504Y-56915007D01*
X152282446Y-56937529D01*
X152272218Y-56959153D01*
X152259921Y-56979670D01*
X152245671Y-56998883D01*
X152229607Y-57016607D01*
X152211883Y-57032671D01*
X152192670Y-57046921D01*
X152172153Y-57059218D01*
X152150529Y-57069446D01*
X152128007Y-57077504D01*
X152104803Y-57083316D01*
X152081142Y-57086826D01*
X152057250Y-57088000D01*
X151569750Y-57088000D01*
X151545858Y-57086826D01*
X151522197Y-57083316D01*
X151498993Y-57077504D01*
X151476471Y-57069446D01*
X151454847Y-57059218D01*
X151434330Y-57046921D01*
X151415117Y-57032671D01*
X151397393Y-57016607D01*
X151381329Y-56998883D01*
X151367079Y-56979670D01*
X151354782Y-56959153D01*
X151344554Y-56937529D01*
X151336496Y-56915007D01*
X151330684Y-56891803D01*
X151327174Y-56868142D01*
X151326000Y-56844250D01*
X151326000Y-55931750D01*
X151327174Y-55907858D01*
X151330684Y-55884197D01*
X151336496Y-55860993D01*
X151344554Y-55838471D01*
X151354782Y-55816847D01*
X151367079Y-55796330D01*
X151381329Y-55777117D01*
X151397393Y-55759393D01*
X151415117Y-55743329D01*
X151434330Y-55729079D01*
X151454847Y-55716782D01*
X151476471Y-55706554D01*
X151498993Y-55698496D01*
X151522197Y-55692684D01*
X151545858Y-55689174D01*
X151569750Y-55688000D01*
X152057250Y-55688000D01*
X152081142Y-55689174D01*
X152081142Y-55689174D01*
G37*
D11*
X151813500Y-56388000D03*
G04 #@! TD*
D10*
G04 #@! TO.C,R27*
G36*
X126173142Y-112585174D02*
X126196803Y-112588684D01*
X126220007Y-112594496D01*
X126242529Y-112602554D01*
X126264153Y-112612782D01*
X126284670Y-112625079D01*
X126303883Y-112639329D01*
X126321607Y-112655393D01*
X126337671Y-112673117D01*
X126351921Y-112692330D01*
X126364218Y-112712847D01*
X126374446Y-112734471D01*
X126382504Y-112756993D01*
X126388316Y-112780197D01*
X126391826Y-112803858D01*
X126393000Y-112827750D01*
X126393000Y-113740250D01*
X126391826Y-113764142D01*
X126388316Y-113787803D01*
X126382504Y-113811007D01*
X126374446Y-113833529D01*
X126364218Y-113855153D01*
X126351921Y-113875670D01*
X126337671Y-113894883D01*
X126321607Y-113912607D01*
X126303883Y-113928671D01*
X126284670Y-113942921D01*
X126264153Y-113955218D01*
X126242529Y-113965446D01*
X126220007Y-113973504D01*
X126196803Y-113979316D01*
X126173142Y-113982826D01*
X126149250Y-113984000D01*
X125661750Y-113984000D01*
X125637858Y-113982826D01*
X125614197Y-113979316D01*
X125590993Y-113973504D01*
X125568471Y-113965446D01*
X125546847Y-113955218D01*
X125526330Y-113942921D01*
X125507117Y-113928671D01*
X125489393Y-113912607D01*
X125473329Y-113894883D01*
X125459079Y-113875670D01*
X125446782Y-113855153D01*
X125436554Y-113833529D01*
X125428496Y-113811007D01*
X125422684Y-113787803D01*
X125419174Y-113764142D01*
X125418000Y-113740250D01*
X125418000Y-112827750D01*
X125419174Y-112803858D01*
X125422684Y-112780197D01*
X125428496Y-112756993D01*
X125436554Y-112734471D01*
X125446782Y-112712847D01*
X125459079Y-112692330D01*
X125473329Y-112673117D01*
X125489393Y-112655393D01*
X125507117Y-112639329D01*
X125526330Y-112625079D01*
X125546847Y-112612782D01*
X125568471Y-112602554D01*
X125590993Y-112594496D01*
X125614197Y-112588684D01*
X125637858Y-112585174D01*
X125661750Y-112584000D01*
X126149250Y-112584000D01*
X126173142Y-112585174D01*
X126173142Y-112585174D01*
G37*
D11*
X125905500Y-113284000D03*
D10*
G36*
X124298142Y-112585174D02*
X124321803Y-112588684D01*
X124345007Y-112594496D01*
X124367529Y-112602554D01*
X124389153Y-112612782D01*
X124409670Y-112625079D01*
X124428883Y-112639329D01*
X124446607Y-112655393D01*
X124462671Y-112673117D01*
X124476921Y-112692330D01*
X124489218Y-112712847D01*
X124499446Y-112734471D01*
X124507504Y-112756993D01*
X124513316Y-112780197D01*
X124516826Y-112803858D01*
X124518000Y-112827750D01*
X124518000Y-113740250D01*
X124516826Y-113764142D01*
X124513316Y-113787803D01*
X124507504Y-113811007D01*
X124499446Y-113833529D01*
X124489218Y-113855153D01*
X124476921Y-113875670D01*
X124462671Y-113894883D01*
X124446607Y-113912607D01*
X124428883Y-113928671D01*
X124409670Y-113942921D01*
X124389153Y-113955218D01*
X124367529Y-113965446D01*
X124345007Y-113973504D01*
X124321803Y-113979316D01*
X124298142Y-113982826D01*
X124274250Y-113984000D01*
X123786750Y-113984000D01*
X123762858Y-113982826D01*
X123739197Y-113979316D01*
X123715993Y-113973504D01*
X123693471Y-113965446D01*
X123671847Y-113955218D01*
X123651330Y-113942921D01*
X123632117Y-113928671D01*
X123614393Y-113912607D01*
X123598329Y-113894883D01*
X123584079Y-113875670D01*
X123571782Y-113855153D01*
X123561554Y-113833529D01*
X123553496Y-113811007D01*
X123547684Y-113787803D01*
X123544174Y-113764142D01*
X123543000Y-113740250D01*
X123543000Y-112827750D01*
X123544174Y-112803858D01*
X123547684Y-112780197D01*
X123553496Y-112756993D01*
X123561554Y-112734471D01*
X123571782Y-112712847D01*
X123584079Y-112692330D01*
X123598329Y-112673117D01*
X123614393Y-112655393D01*
X123632117Y-112639329D01*
X123651330Y-112625079D01*
X123671847Y-112612782D01*
X123693471Y-112602554D01*
X123715993Y-112594496D01*
X123739197Y-112588684D01*
X123762858Y-112585174D01*
X123786750Y-112584000D01*
X124274250Y-112584000D01*
X124298142Y-112585174D01*
X124298142Y-112585174D01*
G37*
D11*
X124030500Y-113284000D03*
G04 #@! TD*
D10*
G04 #@! TO.C,R29*
G36*
X204405142Y-63817174D02*
X204428803Y-63820684D01*
X204452007Y-63826496D01*
X204474529Y-63834554D01*
X204496153Y-63844782D01*
X204516670Y-63857079D01*
X204535883Y-63871329D01*
X204553607Y-63887393D01*
X204569671Y-63905117D01*
X204583921Y-63924330D01*
X204596218Y-63944847D01*
X204606446Y-63966471D01*
X204614504Y-63988993D01*
X204620316Y-64012197D01*
X204623826Y-64035858D01*
X204625000Y-64059750D01*
X204625000Y-64972250D01*
X204623826Y-64996142D01*
X204620316Y-65019803D01*
X204614504Y-65043007D01*
X204606446Y-65065529D01*
X204596218Y-65087153D01*
X204583921Y-65107670D01*
X204569671Y-65126883D01*
X204553607Y-65144607D01*
X204535883Y-65160671D01*
X204516670Y-65174921D01*
X204496153Y-65187218D01*
X204474529Y-65197446D01*
X204452007Y-65205504D01*
X204428803Y-65211316D01*
X204405142Y-65214826D01*
X204381250Y-65216000D01*
X203893750Y-65216000D01*
X203869858Y-65214826D01*
X203846197Y-65211316D01*
X203822993Y-65205504D01*
X203800471Y-65197446D01*
X203778847Y-65187218D01*
X203758330Y-65174921D01*
X203739117Y-65160671D01*
X203721393Y-65144607D01*
X203705329Y-65126883D01*
X203691079Y-65107670D01*
X203678782Y-65087153D01*
X203668554Y-65065529D01*
X203660496Y-65043007D01*
X203654684Y-65019803D01*
X203651174Y-64996142D01*
X203650000Y-64972250D01*
X203650000Y-64059750D01*
X203651174Y-64035858D01*
X203654684Y-64012197D01*
X203660496Y-63988993D01*
X203668554Y-63966471D01*
X203678782Y-63944847D01*
X203691079Y-63924330D01*
X203705329Y-63905117D01*
X203721393Y-63887393D01*
X203739117Y-63871329D01*
X203758330Y-63857079D01*
X203778847Y-63844782D01*
X203800471Y-63834554D01*
X203822993Y-63826496D01*
X203846197Y-63820684D01*
X203869858Y-63817174D01*
X203893750Y-63816000D01*
X204381250Y-63816000D01*
X204405142Y-63817174D01*
X204405142Y-63817174D01*
G37*
D11*
X204137500Y-64516000D03*
D10*
G36*
X202530142Y-63817174D02*
X202553803Y-63820684D01*
X202577007Y-63826496D01*
X202599529Y-63834554D01*
X202621153Y-63844782D01*
X202641670Y-63857079D01*
X202660883Y-63871329D01*
X202678607Y-63887393D01*
X202694671Y-63905117D01*
X202708921Y-63924330D01*
X202721218Y-63944847D01*
X202731446Y-63966471D01*
X202739504Y-63988993D01*
X202745316Y-64012197D01*
X202748826Y-64035858D01*
X202750000Y-64059750D01*
X202750000Y-64972250D01*
X202748826Y-64996142D01*
X202745316Y-65019803D01*
X202739504Y-65043007D01*
X202731446Y-65065529D01*
X202721218Y-65087153D01*
X202708921Y-65107670D01*
X202694671Y-65126883D01*
X202678607Y-65144607D01*
X202660883Y-65160671D01*
X202641670Y-65174921D01*
X202621153Y-65187218D01*
X202599529Y-65197446D01*
X202577007Y-65205504D01*
X202553803Y-65211316D01*
X202530142Y-65214826D01*
X202506250Y-65216000D01*
X202018750Y-65216000D01*
X201994858Y-65214826D01*
X201971197Y-65211316D01*
X201947993Y-65205504D01*
X201925471Y-65197446D01*
X201903847Y-65187218D01*
X201883330Y-65174921D01*
X201864117Y-65160671D01*
X201846393Y-65144607D01*
X201830329Y-65126883D01*
X201816079Y-65107670D01*
X201803782Y-65087153D01*
X201793554Y-65065529D01*
X201785496Y-65043007D01*
X201779684Y-65019803D01*
X201776174Y-64996142D01*
X201775000Y-64972250D01*
X201775000Y-64059750D01*
X201776174Y-64035858D01*
X201779684Y-64012197D01*
X201785496Y-63988993D01*
X201793554Y-63966471D01*
X201803782Y-63944847D01*
X201816079Y-63924330D01*
X201830329Y-63905117D01*
X201846393Y-63887393D01*
X201864117Y-63871329D01*
X201883330Y-63857079D01*
X201903847Y-63844782D01*
X201925471Y-63834554D01*
X201947993Y-63826496D01*
X201971197Y-63820684D01*
X201994858Y-63817174D01*
X202018750Y-63816000D01*
X202506250Y-63816000D01*
X202530142Y-63817174D01*
X202530142Y-63817174D01*
G37*
D11*
X202262500Y-64516000D03*
G04 #@! TD*
D10*
G04 #@! TO.C,R15*
G36*
X175957142Y-119189174D02*
X175980803Y-119192684D01*
X176004007Y-119198496D01*
X176026529Y-119206554D01*
X176048153Y-119216782D01*
X176068670Y-119229079D01*
X176087883Y-119243329D01*
X176105607Y-119259393D01*
X176121671Y-119277117D01*
X176135921Y-119296330D01*
X176148218Y-119316847D01*
X176158446Y-119338471D01*
X176166504Y-119360993D01*
X176172316Y-119384197D01*
X176175826Y-119407858D01*
X176177000Y-119431750D01*
X176177000Y-120344250D01*
X176175826Y-120368142D01*
X176172316Y-120391803D01*
X176166504Y-120415007D01*
X176158446Y-120437529D01*
X176148218Y-120459153D01*
X176135921Y-120479670D01*
X176121671Y-120498883D01*
X176105607Y-120516607D01*
X176087883Y-120532671D01*
X176068670Y-120546921D01*
X176048153Y-120559218D01*
X176026529Y-120569446D01*
X176004007Y-120577504D01*
X175980803Y-120583316D01*
X175957142Y-120586826D01*
X175933250Y-120588000D01*
X175445750Y-120588000D01*
X175421858Y-120586826D01*
X175398197Y-120583316D01*
X175374993Y-120577504D01*
X175352471Y-120569446D01*
X175330847Y-120559218D01*
X175310330Y-120546921D01*
X175291117Y-120532671D01*
X175273393Y-120516607D01*
X175257329Y-120498883D01*
X175243079Y-120479670D01*
X175230782Y-120459153D01*
X175220554Y-120437529D01*
X175212496Y-120415007D01*
X175206684Y-120391803D01*
X175203174Y-120368142D01*
X175202000Y-120344250D01*
X175202000Y-119431750D01*
X175203174Y-119407858D01*
X175206684Y-119384197D01*
X175212496Y-119360993D01*
X175220554Y-119338471D01*
X175230782Y-119316847D01*
X175243079Y-119296330D01*
X175257329Y-119277117D01*
X175273393Y-119259393D01*
X175291117Y-119243329D01*
X175310330Y-119229079D01*
X175330847Y-119216782D01*
X175352471Y-119206554D01*
X175374993Y-119198496D01*
X175398197Y-119192684D01*
X175421858Y-119189174D01*
X175445750Y-119188000D01*
X175933250Y-119188000D01*
X175957142Y-119189174D01*
X175957142Y-119189174D01*
G37*
D11*
X175689500Y-119888000D03*
D10*
G36*
X174082142Y-119189174D02*
X174105803Y-119192684D01*
X174129007Y-119198496D01*
X174151529Y-119206554D01*
X174173153Y-119216782D01*
X174193670Y-119229079D01*
X174212883Y-119243329D01*
X174230607Y-119259393D01*
X174246671Y-119277117D01*
X174260921Y-119296330D01*
X174273218Y-119316847D01*
X174283446Y-119338471D01*
X174291504Y-119360993D01*
X174297316Y-119384197D01*
X174300826Y-119407858D01*
X174302000Y-119431750D01*
X174302000Y-120344250D01*
X174300826Y-120368142D01*
X174297316Y-120391803D01*
X174291504Y-120415007D01*
X174283446Y-120437529D01*
X174273218Y-120459153D01*
X174260921Y-120479670D01*
X174246671Y-120498883D01*
X174230607Y-120516607D01*
X174212883Y-120532671D01*
X174193670Y-120546921D01*
X174173153Y-120559218D01*
X174151529Y-120569446D01*
X174129007Y-120577504D01*
X174105803Y-120583316D01*
X174082142Y-120586826D01*
X174058250Y-120588000D01*
X173570750Y-120588000D01*
X173546858Y-120586826D01*
X173523197Y-120583316D01*
X173499993Y-120577504D01*
X173477471Y-120569446D01*
X173455847Y-120559218D01*
X173435330Y-120546921D01*
X173416117Y-120532671D01*
X173398393Y-120516607D01*
X173382329Y-120498883D01*
X173368079Y-120479670D01*
X173355782Y-120459153D01*
X173345554Y-120437529D01*
X173337496Y-120415007D01*
X173331684Y-120391803D01*
X173328174Y-120368142D01*
X173327000Y-120344250D01*
X173327000Y-119431750D01*
X173328174Y-119407858D01*
X173331684Y-119384197D01*
X173337496Y-119360993D01*
X173345554Y-119338471D01*
X173355782Y-119316847D01*
X173368079Y-119296330D01*
X173382329Y-119277117D01*
X173398393Y-119259393D01*
X173416117Y-119243329D01*
X173435330Y-119229079D01*
X173455847Y-119216782D01*
X173477471Y-119206554D01*
X173499993Y-119198496D01*
X173523197Y-119192684D01*
X173546858Y-119189174D01*
X173570750Y-119188000D01*
X174058250Y-119188000D01*
X174082142Y-119189174D01*
X174082142Y-119189174D01*
G37*
D11*
X173814500Y-119888000D03*
G04 #@! TD*
D10*
G04 #@! TO.C,R28*
G36*
X124298142Y-119697174D02*
X124321803Y-119700684D01*
X124345007Y-119706496D01*
X124367529Y-119714554D01*
X124389153Y-119724782D01*
X124409670Y-119737079D01*
X124428883Y-119751329D01*
X124446607Y-119767393D01*
X124462671Y-119785117D01*
X124476921Y-119804330D01*
X124489218Y-119824847D01*
X124499446Y-119846471D01*
X124507504Y-119868993D01*
X124513316Y-119892197D01*
X124516826Y-119915858D01*
X124518000Y-119939750D01*
X124518000Y-120852250D01*
X124516826Y-120876142D01*
X124513316Y-120899803D01*
X124507504Y-120923007D01*
X124499446Y-120945529D01*
X124489218Y-120967153D01*
X124476921Y-120987670D01*
X124462671Y-121006883D01*
X124446607Y-121024607D01*
X124428883Y-121040671D01*
X124409670Y-121054921D01*
X124389153Y-121067218D01*
X124367529Y-121077446D01*
X124345007Y-121085504D01*
X124321803Y-121091316D01*
X124298142Y-121094826D01*
X124274250Y-121096000D01*
X123786750Y-121096000D01*
X123762858Y-121094826D01*
X123739197Y-121091316D01*
X123715993Y-121085504D01*
X123693471Y-121077446D01*
X123671847Y-121067218D01*
X123651330Y-121054921D01*
X123632117Y-121040671D01*
X123614393Y-121024607D01*
X123598329Y-121006883D01*
X123584079Y-120987670D01*
X123571782Y-120967153D01*
X123561554Y-120945529D01*
X123553496Y-120923007D01*
X123547684Y-120899803D01*
X123544174Y-120876142D01*
X123543000Y-120852250D01*
X123543000Y-119939750D01*
X123544174Y-119915858D01*
X123547684Y-119892197D01*
X123553496Y-119868993D01*
X123561554Y-119846471D01*
X123571782Y-119824847D01*
X123584079Y-119804330D01*
X123598329Y-119785117D01*
X123614393Y-119767393D01*
X123632117Y-119751329D01*
X123651330Y-119737079D01*
X123671847Y-119724782D01*
X123693471Y-119714554D01*
X123715993Y-119706496D01*
X123739197Y-119700684D01*
X123762858Y-119697174D01*
X123786750Y-119696000D01*
X124274250Y-119696000D01*
X124298142Y-119697174D01*
X124298142Y-119697174D01*
G37*
D11*
X124030500Y-120396000D03*
D10*
G36*
X126173142Y-119697174D02*
X126196803Y-119700684D01*
X126220007Y-119706496D01*
X126242529Y-119714554D01*
X126264153Y-119724782D01*
X126284670Y-119737079D01*
X126303883Y-119751329D01*
X126321607Y-119767393D01*
X126337671Y-119785117D01*
X126351921Y-119804330D01*
X126364218Y-119824847D01*
X126374446Y-119846471D01*
X126382504Y-119868993D01*
X126388316Y-119892197D01*
X126391826Y-119915858D01*
X126393000Y-119939750D01*
X126393000Y-120852250D01*
X126391826Y-120876142D01*
X126388316Y-120899803D01*
X126382504Y-120923007D01*
X126374446Y-120945529D01*
X126364218Y-120967153D01*
X126351921Y-120987670D01*
X126337671Y-121006883D01*
X126321607Y-121024607D01*
X126303883Y-121040671D01*
X126284670Y-121054921D01*
X126264153Y-121067218D01*
X126242529Y-121077446D01*
X126220007Y-121085504D01*
X126196803Y-121091316D01*
X126173142Y-121094826D01*
X126149250Y-121096000D01*
X125661750Y-121096000D01*
X125637858Y-121094826D01*
X125614197Y-121091316D01*
X125590993Y-121085504D01*
X125568471Y-121077446D01*
X125546847Y-121067218D01*
X125526330Y-121054921D01*
X125507117Y-121040671D01*
X125489393Y-121024607D01*
X125473329Y-121006883D01*
X125459079Y-120987670D01*
X125446782Y-120967153D01*
X125436554Y-120945529D01*
X125428496Y-120923007D01*
X125422684Y-120899803D01*
X125419174Y-120876142D01*
X125418000Y-120852250D01*
X125418000Y-119939750D01*
X125419174Y-119915858D01*
X125422684Y-119892197D01*
X125428496Y-119868993D01*
X125436554Y-119846471D01*
X125446782Y-119824847D01*
X125459079Y-119804330D01*
X125473329Y-119785117D01*
X125489393Y-119767393D01*
X125507117Y-119751329D01*
X125526330Y-119737079D01*
X125546847Y-119724782D01*
X125568471Y-119714554D01*
X125590993Y-119706496D01*
X125614197Y-119700684D01*
X125637858Y-119697174D01*
X125661750Y-119696000D01*
X126149250Y-119696000D01*
X126173142Y-119697174D01*
X126173142Y-119697174D01*
G37*
D11*
X125905500Y-120396000D03*
G04 #@! TD*
D10*
G04 #@! TO.C,R3*
G36*
X156653142Y-83629174D02*
X156676803Y-83632684D01*
X156700007Y-83638496D01*
X156722529Y-83646554D01*
X156744153Y-83656782D01*
X156764670Y-83669079D01*
X156783883Y-83683329D01*
X156801607Y-83699393D01*
X156817671Y-83717117D01*
X156831921Y-83736330D01*
X156844218Y-83756847D01*
X156854446Y-83778471D01*
X156862504Y-83800993D01*
X156868316Y-83824197D01*
X156871826Y-83847858D01*
X156873000Y-83871750D01*
X156873000Y-84784250D01*
X156871826Y-84808142D01*
X156868316Y-84831803D01*
X156862504Y-84855007D01*
X156854446Y-84877529D01*
X156844218Y-84899153D01*
X156831921Y-84919670D01*
X156817671Y-84938883D01*
X156801607Y-84956607D01*
X156783883Y-84972671D01*
X156764670Y-84986921D01*
X156744153Y-84999218D01*
X156722529Y-85009446D01*
X156700007Y-85017504D01*
X156676803Y-85023316D01*
X156653142Y-85026826D01*
X156629250Y-85028000D01*
X156141750Y-85028000D01*
X156117858Y-85026826D01*
X156094197Y-85023316D01*
X156070993Y-85017504D01*
X156048471Y-85009446D01*
X156026847Y-84999218D01*
X156006330Y-84986921D01*
X155987117Y-84972671D01*
X155969393Y-84956607D01*
X155953329Y-84938883D01*
X155939079Y-84919670D01*
X155926782Y-84899153D01*
X155916554Y-84877529D01*
X155908496Y-84855007D01*
X155902684Y-84831803D01*
X155899174Y-84808142D01*
X155898000Y-84784250D01*
X155898000Y-83871750D01*
X155899174Y-83847858D01*
X155902684Y-83824197D01*
X155908496Y-83800993D01*
X155916554Y-83778471D01*
X155926782Y-83756847D01*
X155939079Y-83736330D01*
X155953329Y-83717117D01*
X155969393Y-83699393D01*
X155987117Y-83683329D01*
X156006330Y-83669079D01*
X156026847Y-83656782D01*
X156048471Y-83646554D01*
X156070993Y-83638496D01*
X156094197Y-83632684D01*
X156117858Y-83629174D01*
X156141750Y-83628000D01*
X156629250Y-83628000D01*
X156653142Y-83629174D01*
X156653142Y-83629174D01*
G37*
D11*
X156385500Y-84328000D03*
D10*
G36*
X154778142Y-83629174D02*
X154801803Y-83632684D01*
X154825007Y-83638496D01*
X154847529Y-83646554D01*
X154869153Y-83656782D01*
X154889670Y-83669079D01*
X154908883Y-83683329D01*
X154926607Y-83699393D01*
X154942671Y-83717117D01*
X154956921Y-83736330D01*
X154969218Y-83756847D01*
X154979446Y-83778471D01*
X154987504Y-83800993D01*
X154993316Y-83824197D01*
X154996826Y-83847858D01*
X154998000Y-83871750D01*
X154998000Y-84784250D01*
X154996826Y-84808142D01*
X154993316Y-84831803D01*
X154987504Y-84855007D01*
X154979446Y-84877529D01*
X154969218Y-84899153D01*
X154956921Y-84919670D01*
X154942671Y-84938883D01*
X154926607Y-84956607D01*
X154908883Y-84972671D01*
X154889670Y-84986921D01*
X154869153Y-84999218D01*
X154847529Y-85009446D01*
X154825007Y-85017504D01*
X154801803Y-85023316D01*
X154778142Y-85026826D01*
X154754250Y-85028000D01*
X154266750Y-85028000D01*
X154242858Y-85026826D01*
X154219197Y-85023316D01*
X154195993Y-85017504D01*
X154173471Y-85009446D01*
X154151847Y-84999218D01*
X154131330Y-84986921D01*
X154112117Y-84972671D01*
X154094393Y-84956607D01*
X154078329Y-84938883D01*
X154064079Y-84919670D01*
X154051782Y-84899153D01*
X154041554Y-84877529D01*
X154033496Y-84855007D01*
X154027684Y-84831803D01*
X154024174Y-84808142D01*
X154023000Y-84784250D01*
X154023000Y-83871750D01*
X154024174Y-83847858D01*
X154027684Y-83824197D01*
X154033496Y-83800993D01*
X154041554Y-83778471D01*
X154051782Y-83756847D01*
X154064079Y-83736330D01*
X154078329Y-83717117D01*
X154094393Y-83699393D01*
X154112117Y-83683329D01*
X154131330Y-83669079D01*
X154151847Y-83656782D01*
X154173471Y-83646554D01*
X154195993Y-83638496D01*
X154219197Y-83632684D01*
X154242858Y-83629174D01*
X154266750Y-83628000D01*
X154754250Y-83628000D01*
X154778142Y-83629174D01*
X154778142Y-83629174D01*
G37*
D11*
X154510500Y-84328000D03*
G04 #@! TD*
D10*
G04 #@! TO.C,R1*
G36*
X150714142Y-83629174D02*
X150737803Y-83632684D01*
X150761007Y-83638496D01*
X150783529Y-83646554D01*
X150805153Y-83656782D01*
X150825670Y-83669079D01*
X150844883Y-83683329D01*
X150862607Y-83699393D01*
X150878671Y-83717117D01*
X150892921Y-83736330D01*
X150905218Y-83756847D01*
X150915446Y-83778471D01*
X150923504Y-83800993D01*
X150929316Y-83824197D01*
X150932826Y-83847858D01*
X150934000Y-83871750D01*
X150934000Y-84784250D01*
X150932826Y-84808142D01*
X150929316Y-84831803D01*
X150923504Y-84855007D01*
X150915446Y-84877529D01*
X150905218Y-84899153D01*
X150892921Y-84919670D01*
X150878671Y-84938883D01*
X150862607Y-84956607D01*
X150844883Y-84972671D01*
X150825670Y-84986921D01*
X150805153Y-84999218D01*
X150783529Y-85009446D01*
X150761007Y-85017504D01*
X150737803Y-85023316D01*
X150714142Y-85026826D01*
X150690250Y-85028000D01*
X150202750Y-85028000D01*
X150178858Y-85026826D01*
X150155197Y-85023316D01*
X150131993Y-85017504D01*
X150109471Y-85009446D01*
X150087847Y-84999218D01*
X150067330Y-84986921D01*
X150048117Y-84972671D01*
X150030393Y-84956607D01*
X150014329Y-84938883D01*
X150000079Y-84919670D01*
X149987782Y-84899153D01*
X149977554Y-84877529D01*
X149969496Y-84855007D01*
X149963684Y-84831803D01*
X149960174Y-84808142D01*
X149959000Y-84784250D01*
X149959000Y-83871750D01*
X149960174Y-83847858D01*
X149963684Y-83824197D01*
X149969496Y-83800993D01*
X149977554Y-83778471D01*
X149987782Y-83756847D01*
X150000079Y-83736330D01*
X150014329Y-83717117D01*
X150030393Y-83699393D01*
X150048117Y-83683329D01*
X150067330Y-83669079D01*
X150087847Y-83656782D01*
X150109471Y-83646554D01*
X150131993Y-83638496D01*
X150155197Y-83632684D01*
X150178858Y-83629174D01*
X150202750Y-83628000D01*
X150690250Y-83628000D01*
X150714142Y-83629174D01*
X150714142Y-83629174D01*
G37*
D11*
X150446500Y-84328000D03*
D10*
G36*
X152589142Y-83629174D02*
X152612803Y-83632684D01*
X152636007Y-83638496D01*
X152658529Y-83646554D01*
X152680153Y-83656782D01*
X152700670Y-83669079D01*
X152719883Y-83683329D01*
X152737607Y-83699393D01*
X152753671Y-83717117D01*
X152767921Y-83736330D01*
X152780218Y-83756847D01*
X152790446Y-83778471D01*
X152798504Y-83800993D01*
X152804316Y-83824197D01*
X152807826Y-83847858D01*
X152809000Y-83871750D01*
X152809000Y-84784250D01*
X152807826Y-84808142D01*
X152804316Y-84831803D01*
X152798504Y-84855007D01*
X152790446Y-84877529D01*
X152780218Y-84899153D01*
X152767921Y-84919670D01*
X152753671Y-84938883D01*
X152737607Y-84956607D01*
X152719883Y-84972671D01*
X152700670Y-84986921D01*
X152680153Y-84999218D01*
X152658529Y-85009446D01*
X152636007Y-85017504D01*
X152612803Y-85023316D01*
X152589142Y-85026826D01*
X152565250Y-85028000D01*
X152077750Y-85028000D01*
X152053858Y-85026826D01*
X152030197Y-85023316D01*
X152006993Y-85017504D01*
X151984471Y-85009446D01*
X151962847Y-84999218D01*
X151942330Y-84986921D01*
X151923117Y-84972671D01*
X151905393Y-84956607D01*
X151889329Y-84938883D01*
X151875079Y-84919670D01*
X151862782Y-84899153D01*
X151852554Y-84877529D01*
X151844496Y-84855007D01*
X151838684Y-84831803D01*
X151835174Y-84808142D01*
X151834000Y-84784250D01*
X151834000Y-83871750D01*
X151835174Y-83847858D01*
X151838684Y-83824197D01*
X151844496Y-83800993D01*
X151852554Y-83778471D01*
X151862782Y-83756847D01*
X151875079Y-83736330D01*
X151889329Y-83717117D01*
X151905393Y-83699393D01*
X151923117Y-83683329D01*
X151942330Y-83669079D01*
X151962847Y-83656782D01*
X151984471Y-83646554D01*
X152006993Y-83638496D01*
X152030197Y-83632684D01*
X152053858Y-83629174D01*
X152077750Y-83628000D01*
X152565250Y-83628000D01*
X152589142Y-83629174D01*
X152589142Y-83629174D01*
G37*
D11*
X152321500Y-84328000D03*
G04 #@! TD*
D10*
G04 #@! TO.C,R2*
G36*
X148723143Y-83626135D02*
X148746804Y-83629645D01*
X148770008Y-83635457D01*
X148792530Y-83643515D01*
X148814154Y-83653743D01*
X148834671Y-83666040D01*
X148853884Y-83680290D01*
X148871608Y-83696354D01*
X148887672Y-83714078D01*
X148901922Y-83733291D01*
X148914219Y-83753808D01*
X148924447Y-83775432D01*
X148932505Y-83797954D01*
X148938317Y-83821158D01*
X148941827Y-83844819D01*
X148943001Y-83868711D01*
X148943001Y-84781211D01*
X148941827Y-84805103D01*
X148938317Y-84828764D01*
X148932505Y-84851968D01*
X148924447Y-84874490D01*
X148914219Y-84896114D01*
X148901922Y-84916631D01*
X148887672Y-84935844D01*
X148871608Y-84953568D01*
X148853884Y-84969632D01*
X148834671Y-84983882D01*
X148814154Y-84996179D01*
X148792530Y-85006407D01*
X148770008Y-85014465D01*
X148746804Y-85020277D01*
X148723143Y-85023787D01*
X148699251Y-85024961D01*
X148211751Y-85024961D01*
X148187859Y-85023787D01*
X148164198Y-85020277D01*
X148140994Y-85014465D01*
X148118472Y-85006407D01*
X148096848Y-84996179D01*
X148076331Y-84983882D01*
X148057118Y-84969632D01*
X148039394Y-84953568D01*
X148023330Y-84935844D01*
X148009080Y-84916631D01*
X147996783Y-84896114D01*
X147986555Y-84874490D01*
X147978497Y-84851968D01*
X147972685Y-84828764D01*
X147969175Y-84805103D01*
X147968001Y-84781211D01*
X147968001Y-83868711D01*
X147969175Y-83844819D01*
X147972685Y-83821158D01*
X147978497Y-83797954D01*
X147986555Y-83775432D01*
X147996783Y-83753808D01*
X148009080Y-83733291D01*
X148023330Y-83714078D01*
X148039394Y-83696354D01*
X148057118Y-83680290D01*
X148076331Y-83666040D01*
X148096848Y-83653743D01*
X148118472Y-83643515D01*
X148140994Y-83635457D01*
X148164198Y-83629645D01*
X148187859Y-83626135D01*
X148211751Y-83624961D01*
X148699251Y-83624961D01*
X148723143Y-83626135D01*
X148723143Y-83626135D01*
G37*
D11*
X148455501Y-84324961D03*
D10*
G36*
X146848143Y-83626135D02*
X146871804Y-83629645D01*
X146895008Y-83635457D01*
X146917530Y-83643515D01*
X146939154Y-83653743D01*
X146959671Y-83666040D01*
X146978884Y-83680290D01*
X146996608Y-83696354D01*
X147012672Y-83714078D01*
X147026922Y-83733291D01*
X147039219Y-83753808D01*
X147049447Y-83775432D01*
X147057505Y-83797954D01*
X147063317Y-83821158D01*
X147066827Y-83844819D01*
X147068001Y-83868711D01*
X147068001Y-84781211D01*
X147066827Y-84805103D01*
X147063317Y-84828764D01*
X147057505Y-84851968D01*
X147049447Y-84874490D01*
X147039219Y-84896114D01*
X147026922Y-84916631D01*
X147012672Y-84935844D01*
X146996608Y-84953568D01*
X146978884Y-84969632D01*
X146959671Y-84983882D01*
X146939154Y-84996179D01*
X146917530Y-85006407D01*
X146895008Y-85014465D01*
X146871804Y-85020277D01*
X146848143Y-85023787D01*
X146824251Y-85024961D01*
X146336751Y-85024961D01*
X146312859Y-85023787D01*
X146289198Y-85020277D01*
X146265994Y-85014465D01*
X146243472Y-85006407D01*
X146221848Y-84996179D01*
X146201331Y-84983882D01*
X146182118Y-84969632D01*
X146164394Y-84953568D01*
X146148330Y-84935844D01*
X146134080Y-84916631D01*
X146121783Y-84896114D01*
X146111555Y-84874490D01*
X146103497Y-84851968D01*
X146097685Y-84828764D01*
X146094175Y-84805103D01*
X146093001Y-84781211D01*
X146093001Y-83868711D01*
X146094175Y-83844819D01*
X146097685Y-83821158D01*
X146103497Y-83797954D01*
X146111555Y-83775432D01*
X146121783Y-83753808D01*
X146134080Y-83733291D01*
X146148330Y-83714078D01*
X146164394Y-83696354D01*
X146182118Y-83680290D01*
X146201331Y-83666040D01*
X146221848Y-83653743D01*
X146243472Y-83643515D01*
X146265994Y-83635457D01*
X146289198Y-83629645D01*
X146312859Y-83626135D01*
X146336751Y-83624961D01*
X146824251Y-83624961D01*
X146848143Y-83626135D01*
X146848143Y-83626135D01*
G37*
D11*
X146580501Y-84324961D03*
G04 #@! TD*
D10*
G04 #@! TO.C,R4*
G36*
X156653142Y-71945174D02*
X156676803Y-71948684D01*
X156700007Y-71954496D01*
X156722529Y-71962554D01*
X156744153Y-71972782D01*
X156764670Y-71985079D01*
X156783883Y-71999329D01*
X156801607Y-72015393D01*
X156817671Y-72033117D01*
X156831921Y-72052330D01*
X156844218Y-72072847D01*
X156854446Y-72094471D01*
X156862504Y-72116993D01*
X156868316Y-72140197D01*
X156871826Y-72163858D01*
X156873000Y-72187750D01*
X156873000Y-73100250D01*
X156871826Y-73124142D01*
X156868316Y-73147803D01*
X156862504Y-73171007D01*
X156854446Y-73193529D01*
X156844218Y-73215153D01*
X156831921Y-73235670D01*
X156817671Y-73254883D01*
X156801607Y-73272607D01*
X156783883Y-73288671D01*
X156764670Y-73302921D01*
X156744153Y-73315218D01*
X156722529Y-73325446D01*
X156700007Y-73333504D01*
X156676803Y-73339316D01*
X156653142Y-73342826D01*
X156629250Y-73344000D01*
X156141750Y-73344000D01*
X156117858Y-73342826D01*
X156094197Y-73339316D01*
X156070993Y-73333504D01*
X156048471Y-73325446D01*
X156026847Y-73315218D01*
X156006330Y-73302921D01*
X155987117Y-73288671D01*
X155969393Y-73272607D01*
X155953329Y-73254883D01*
X155939079Y-73235670D01*
X155926782Y-73215153D01*
X155916554Y-73193529D01*
X155908496Y-73171007D01*
X155902684Y-73147803D01*
X155899174Y-73124142D01*
X155898000Y-73100250D01*
X155898000Y-72187750D01*
X155899174Y-72163858D01*
X155902684Y-72140197D01*
X155908496Y-72116993D01*
X155916554Y-72094471D01*
X155926782Y-72072847D01*
X155939079Y-72052330D01*
X155953329Y-72033117D01*
X155969393Y-72015393D01*
X155987117Y-71999329D01*
X156006330Y-71985079D01*
X156026847Y-71972782D01*
X156048471Y-71962554D01*
X156070993Y-71954496D01*
X156094197Y-71948684D01*
X156117858Y-71945174D01*
X156141750Y-71944000D01*
X156629250Y-71944000D01*
X156653142Y-71945174D01*
X156653142Y-71945174D01*
G37*
D11*
X156385500Y-72644000D03*
D10*
G36*
X154778142Y-71945174D02*
X154801803Y-71948684D01*
X154825007Y-71954496D01*
X154847529Y-71962554D01*
X154869153Y-71972782D01*
X154889670Y-71985079D01*
X154908883Y-71999329D01*
X154926607Y-72015393D01*
X154942671Y-72033117D01*
X154956921Y-72052330D01*
X154969218Y-72072847D01*
X154979446Y-72094471D01*
X154987504Y-72116993D01*
X154993316Y-72140197D01*
X154996826Y-72163858D01*
X154998000Y-72187750D01*
X154998000Y-73100250D01*
X154996826Y-73124142D01*
X154993316Y-73147803D01*
X154987504Y-73171007D01*
X154979446Y-73193529D01*
X154969218Y-73215153D01*
X154956921Y-73235670D01*
X154942671Y-73254883D01*
X154926607Y-73272607D01*
X154908883Y-73288671D01*
X154889670Y-73302921D01*
X154869153Y-73315218D01*
X154847529Y-73325446D01*
X154825007Y-73333504D01*
X154801803Y-73339316D01*
X154778142Y-73342826D01*
X154754250Y-73344000D01*
X154266750Y-73344000D01*
X154242858Y-73342826D01*
X154219197Y-73339316D01*
X154195993Y-73333504D01*
X154173471Y-73325446D01*
X154151847Y-73315218D01*
X154131330Y-73302921D01*
X154112117Y-73288671D01*
X154094393Y-73272607D01*
X154078329Y-73254883D01*
X154064079Y-73235670D01*
X154051782Y-73215153D01*
X154041554Y-73193529D01*
X154033496Y-73171007D01*
X154027684Y-73147803D01*
X154024174Y-73124142D01*
X154023000Y-73100250D01*
X154023000Y-72187750D01*
X154024174Y-72163858D01*
X154027684Y-72140197D01*
X154033496Y-72116993D01*
X154041554Y-72094471D01*
X154051782Y-72072847D01*
X154064079Y-72052330D01*
X154078329Y-72033117D01*
X154094393Y-72015393D01*
X154112117Y-71999329D01*
X154131330Y-71985079D01*
X154151847Y-71972782D01*
X154173471Y-71962554D01*
X154195993Y-71954496D01*
X154219197Y-71948684D01*
X154242858Y-71945174D01*
X154266750Y-71944000D01*
X154754250Y-71944000D01*
X154778142Y-71945174D01*
X154778142Y-71945174D01*
G37*
D11*
X154510500Y-72644000D03*
G04 #@! TD*
D10*
G04 #@! TO.C,R8*
G36*
X197330142Y-76046174D02*
X197353803Y-76049684D01*
X197377007Y-76055496D01*
X197399529Y-76063554D01*
X197421153Y-76073782D01*
X197441670Y-76086079D01*
X197460883Y-76100329D01*
X197478607Y-76116393D01*
X197494671Y-76134117D01*
X197508921Y-76153330D01*
X197521218Y-76173847D01*
X197531446Y-76195471D01*
X197539504Y-76217993D01*
X197545316Y-76241197D01*
X197548826Y-76264858D01*
X197550000Y-76288750D01*
X197550000Y-76776250D01*
X197548826Y-76800142D01*
X197545316Y-76823803D01*
X197539504Y-76847007D01*
X197531446Y-76869529D01*
X197521218Y-76891153D01*
X197508921Y-76911670D01*
X197494671Y-76930883D01*
X197478607Y-76948607D01*
X197460883Y-76964671D01*
X197441670Y-76978921D01*
X197421153Y-76991218D01*
X197399529Y-77001446D01*
X197377007Y-77009504D01*
X197353803Y-77015316D01*
X197330142Y-77018826D01*
X197306250Y-77020000D01*
X196393750Y-77020000D01*
X196369858Y-77018826D01*
X196346197Y-77015316D01*
X196322993Y-77009504D01*
X196300471Y-77001446D01*
X196278847Y-76991218D01*
X196258330Y-76978921D01*
X196239117Y-76964671D01*
X196221393Y-76948607D01*
X196205329Y-76930883D01*
X196191079Y-76911670D01*
X196178782Y-76891153D01*
X196168554Y-76869529D01*
X196160496Y-76847007D01*
X196154684Y-76823803D01*
X196151174Y-76800142D01*
X196150000Y-76776250D01*
X196150000Y-76288750D01*
X196151174Y-76264858D01*
X196154684Y-76241197D01*
X196160496Y-76217993D01*
X196168554Y-76195471D01*
X196178782Y-76173847D01*
X196191079Y-76153330D01*
X196205329Y-76134117D01*
X196221393Y-76116393D01*
X196239117Y-76100329D01*
X196258330Y-76086079D01*
X196278847Y-76073782D01*
X196300471Y-76063554D01*
X196322993Y-76055496D01*
X196346197Y-76049684D01*
X196369858Y-76046174D01*
X196393750Y-76045000D01*
X197306250Y-76045000D01*
X197330142Y-76046174D01*
X197330142Y-76046174D01*
G37*
D11*
X196850000Y-76532500D03*
D10*
G36*
X197330142Y-77921174D02*
X197353803Y-77924684D01*
X197377007Y-77930496D01*
X197399529Y-77938554D01*
X197421153Y-77948782D01*
X197441670Y-77961079D01*
X197460883Y-77975329D01*
X197478607Y-77991393D01*
X197494671Y-78009117D01*
X197508921Y-78028330D01*
X197521218Y-78048847D01*
X197531446Y-78070471D01*
X197539504Y-78092993D01*
X197545316Y-78116197D01*
X197548826Y-78139858D01*
X197550000Y-78163750D01*
X197550000Y-78651250D01*
X197548826Y-78675142D01*
X197545316Y-78698803D01*
X197539504Y-78722007D01*
X197531446Y-78744529D01*
X197521218Y-78766153D01*
X197508921Y-78786670D01*
X197494671Y-78805883D01*
X197478607Y-78823607D01*
X197460883Y-78839671D01*
X197441670Y-78853921D01*
X197421153Y-78866218D01*
X197399529Y-78876446D01*
X197377007Y-78884504D01*
X197353803Y-78890316D01*
X197330142Y-78893826D01*
X197306250Y-78895000D01*
X196393750Y-78895000D01*
X196369858Y-78893826D01*
X196346197Y-78890316D01*
X196322993Y-78884504D01*
X196300471Y-78876446D01*
X196278847Y-78866218D01*
X196258330Y-78853921D01*
X196239117Y-78839671D01*
X196221393Y-78823607D01*
X196205329Y-78805883D01*
X196191079Y-78786670D01*
X196178782Y-78766153D01*
X196168554Y-78744529D01*
X196160496Y-78722007D01*
X196154684Y-78698803D01*
X196151174Y-78675142D01*
X196150000Y-78651250D01*
X196150000Y-78163750D01*
X196151174Y-78139858D01*
X196154684Y-78116197D01*
X196160496Y-78092993D01*
X196168554Y-78070471D01*
X196178782Y-78048847D01*
X196191079Y-78028330D01*
X196205329Y-78009117D01*
X196221393Y-77991393D01*
X196239117Y-77975329D01*
X196258330Y-77961079D01*
X196278847Y-77948782D01*
X196300471Y-77938554D01*
X196322993Y-77930496D01*
X196346197Y-77924684D01*
X196369858Y-77921174D01*
X196393750Y-77920000D01*
X197306250Y-77920000D01*
X197330142Y-77921174D01*
X197330142Y-77921174D01*
G37*
D11*
X196850000Y-78407500D03*
G04 #@! TD*
D10*
G04 #@! TO.C,R21*
G36*
X197330142Y-81731174D02*
X197353803Y-81734684D01*
X197377007Y-81740496D01*
X197399529Y-81748554D01*
X197421153Y-81758782D01*
X197441670Y-81771079D01*
X197460883Y-81785329D01*
X197478607Y-81801393D01*
X197494671Y-81819117D01*
X197508921Y-81838330D01*
X197521218Y-81858847D01*
X197531446Y-81880471D01*
X197539504Y-81902993D01*
X197545316Y-81926197D01*
X197548826Y-81949858D01*
X197550000Y-81973750D01*
X197550000Y-82461250D01*
X197548826Y-82485142D01*
X197545316Y-82508803D01*
X197539504Y-82532007D01*
X197531446Y-82554529D01*
X197521218Y-82576153D01*
X197508921Y-82596670D01*
X197494671Y-82615883D01*
X197478607Y-82633607D01*
X197460883Y-82649671D01*
X197441670Y-82663921D01*
X197421153Y-82676218D01*
X197399529Y-82686446D01*
X197377007Y-82694504D01*
X197353803Y-82700316D01*
X197330142Y-82703826D01*
X197306250Y-82705000D01*
X196393750Y-82705000D01*
X196369858Y-82703826D01*
X196346197Y-82700316D01*
X196322993Y-82694504D01*
X196300471Y-82686446D01*
X196278847Y-82676218D01*
X196258330Y-82663921D01*
X196239117Y-82649671D01*
X196221393Y-82633607D01*
X196205329Y-82615883D01*
X196191079Y-82596670D01*
X196178782Y-82576153D01*
X196168554Y-82554529D01*
X196160496Y-82532007D01*
X196154684Y-82508803D01*
X196151174Y-82485142D01*
X196150000Y-82461250D01*
X196150000Y-81973750D01*
X196151174Y-81949858D01*
X196154684Y-81926197D01*
X196160496Y-81902993D01*
X196168554Y-81880471D01*
X196178782Y-81858847D01*
X196191079Y-81838330D01*
X196205329Y-81819117D01*
X196221393Y-81801393D01*
X196239117Y-81785329D01*
X196258330Y-81771079D01*
X196278847Y-81758782D01*
X196300471Y-81748554D01*
X196322993Y-81740496D01*
X196346197Y-81734684D01*
X196369858Y-81731174D01*
X196393750Y-81730000D01*
X197306250Y-81730000D01*
X197330142Y-81731174D01*
X197330142Y-81731174D01*
G37*
D11*
X196850000Y-82217500D03*
D10*
G36*
X197330142Y-79856174D02*
X197353803Y-79859684D01*
X197377007Y-79865496D01*
X197399529Y-79873554D01*
X197421153Y-79883782D01*
X197441670Y-79896079D01*
X197460883Y-79910329D01*
X197478607Y-79926393D01*
X197494671Y-79944117D01*
X197508921Y-79963330D01*
X197521218Y-79983847D01*
X197531446Y-80005471D01*
X197539504Y-80027993D01*
X197545316Y-80051197D01*
X197548826Y-80074858D01*
X197550000Y-80098750D01*
X197550000Y-80586250D01*
X197548826Y-80610142D01*
X197545316Y-80633803D01*
X197539504Y-80657007D01*
X197531446Y-80679529D01*
X197521218Y-80701153D01*
X197508921Y-80721670D01*
X197494671Y-80740883D01*
X197478607Y-80758607D01*
X197460883Y-80774671D01*
X197441670Y-80788921D01*
X197421153Y-80801218D01*
X197399529Y-80811446D01*
X197377007Y-80819504D01*
X197353803Y-80825316D01*
X197330142Y-80828826D01*
X197306250Y-80830000D01*
X196393750Y-80830000D01*
X196369858Y-80828826D01*
X196346197Y-80825316D01*
X196322993Y-80819504D01*
X196300471Y-80811446D01*
X196278847Y-80801218D01*
X196258330Y-80788921D01*
X196239117Y-80774671D01*
X196221393Y-80758607D01*
X196205329Y-80740883D01*
X196191079Y-80721670D01*
X196178782Y-80701153D01*
X196168554Y-80679529D01*
X196160496Y-80657007D01*
X196154684Y-80633803D01*
X196151174Y-80610142D01*
X196150000Y-80586250D01*
X196150000Y-80098750D01*
X196151174Y-80074858D01*
X196154684Y-80051197D01*
X196160496Y-80027993D01*
X196168554Y-80005471D01*
X196178782Y-79983847D01*
X196191079Y-79963330D01*
X196205329Y-79944117D01*
X196221393Y-79926393D01*
X196239117Y-79910329D01*
X196258330Y-79896079D01*
X196278847Y-79883782D01*
X196300471Y-79873554D01*
X196322993Y-79865496D01*
X196346197Y-79859684D01*
X196369858Y-79856174D01*
X196393750Y-79855000D01*
X197306250Y-79855000D01*
X197330142Y-79856174D01*
X197330142Y-79856174D01*
G37*
D11*
X196850000Y-80342500D03*
G04 #@! TD*
D10*
G04 #@! TO.C,C23*
G36*
X201865142Y-84391174D02*
X201888803Y-84394684D01*
X201912007Y-84400496D01*
X201934529Y-84408554D01*
X201956153Y-84418782D01*
X201976670Y-84431079D01*
X201995883Y-84445329D01*
X202013607Y-84461393D01*
X202029671Y-84479117D01*
X202043921Y-84498330D01*
X202056218Y-84518847D01*
X202066446Y-84540471D01*
X202074504Y-84562993D01*
X202080316Y-84586197D01*
X202083826Y-84609858D01*
X202085000Y-84633750D01*
X202085000Y-85546250D01*
X202083826Y-85570142D01*
X202080316Y-85593803D01*
X202074504Y-85617007D01*
X202066446Y-85639529D01*
X202056218Y-85661153D01*
X202043921Y-85681670D01*
X202029671Y-85700883D01*
X202013607Y-85718607D01*
X201995883Y-85734671D01*
X201976670Y-85748921D01*
X201956153Y-85761218D01*
X201934529Y-85771446D01*
X201912007Y-85779504D01*
X201888803Y-85785316D01*
X201865142Y-85788826D01*
X201841250Y-85790000D01*
X201353750Y-85790000D01*
X201329858Y-85788826D01*
X201306197Y-85785316D01*
X201282993Y-85779504D01*
X201260471Y-85771446D01*
X201238847Y-85761218D01*
X201218330Y-85748921D01*
X201199117Y-85734671D01*
X201181393Y-85718607D01*
X201165329Y-85700883D01*
X201151079Y-85681670D01*
X201138782Y-85661153D01*
X201128554Y-85639529D01*
X201120496Y-85617007D01*
X201114684Y-85593803D01*
X201111174Y-85570142D01*
X201110000Y-85546250D01*
X201110000Y-84633750D01*
X201111174Y-84609858D01*
X201114684Y-84586197D01*
X201120496Y-84562993D01*
X201128554Y-84540471D01*
X201138782Y-84518847D01*
X201151079Y-84498330D01*
X201165329Y-84479117D01*
X201181393Y-84461393D01*
X201199117Y-84445329D01*
X201218330Y-84431079D01*
X201238847Y-84418782D01*
X201260471Y-84408554D01*
X201282993Y-84400496D01*
X201306197Y-84394684D01*
X201329858Y-84391174D01*
X201353750Y-84390000D01*
X201841250Y-84390000D01*
X201865142Y-84391174D01*
X201865142Y-84391174D01*
G37*
D11*
X201597500Y-85090000D03*
D10*
G36*
X199990142Y-84391174D02*
X200013803Y-84394684D01*
X200037007Y-84400496D01*
X200059529Y-84408554D01*
X200081153Y-84418782D01*
X200101670Y-84431079D01*
X200120883Y-84445329D01*
X200138607Y-84461393D01*
X200154671Y-84479117D01*
X200168921Y-84498330D01*
X200181218Y-84518847D01*
X200191446Y-84540471D01*
X200199504Y-84562993D01*
X200205316Y-84586197D01*
X200208826Y-84609858D01*
X200210000Y-84633750D01*
X200210000Y-85546250D01*
X200208826Y-85570142D01*
X200205316Y-85593803D01*
X200199504Y-85617007D01*
X200191446Y-85639529D01*
X200181218Y-85661153D01*
X200168921Y-85681670D01*
X200154671Y-85700883D01*
X200138607Y-85718607D01*
X200120883Y-85734671D01*
X200101670Y-85748921D01*
X200081153Y-85761218D01*
X200059529Y-85771446D01*
X200037007Y-85779504D01*
X200013803Y-85785316D01*
X199990142Y-85788826D01*
X199966250Y-85790000D01*
X199478750Y-85790000D01*
X199454858Y-85788826D01*
X199431197Y-85785316D01*
X199407993Y-85779504D01*
X199385471Y-85771446D01*
X199363847Y-85761218D01*
X199343330Y-85748921D01*
X199324117Y-85734671D01*
X199306393Y-85718607D01*
X199290329Y-85700883D01*
X199276079Y-85681670D01*
X199263782Y-85661153D01*
X199253554Y-85639529D01*
X199245496Y-85617007D01*
X199239684Y-85593803D01*
X199236174Y-85570142D01*
X199235000Y-85546250D01*
X199235000Y-84633750D01*
X199236174Y-84609858D01*
X199239684Y-84586197D01*
X199245496Y-84562993D01*
X199253554Y-84540471D01*
X199263782Y-84518847D01*
X199276079Y-84498330D01*
X199290329Y-84479117D01*
X199306393Y-84461393D01*
X199324117Y-84445329D01*
X199343330Y-84431079D01*
X199363847Y-84418782D01*
X199385471Y-84408554D01*
X199407993Y-84400496D01*
X199431197Y-84394684D01*
X199454858Y-84391174D01*
X199478750Y-84390000D01*
X199966250Y-84390000D01*
X199990142Y-84391174D01*
X199990142Y-84391174D01*
G37*
D11*
X199722500Y-85090000D03*
G04 #@! TD*
D10*
G04 #@! TO.C,C22*
G36*
X187290142Y-84391174D02*
X187313803Y-84394684D01*
X187337007Y-84400496D01*
X187359529Y-84408554D01*
X187381153Y-84418782D01*
X187401670Y-84431079D01*
X187420883Y-84445329D01*
X187438607Y-84461393D01*
X187454671Y-84479117D01*
X187468921Y-84498330D01*
X187481218Y-84518847D01*
X187491446Y-84540471D01*
X187499504Y-84562993D01*
X187505316Y-84586197D01*
X187508826Y-84609858D01*
X187510000Y-84633750D01*
X187510000Y-85546250D01*
X187508826Y-85570142D01*
X187505316Y-85593803D01*
X187499504Y-85617007D01*
X187491446Y-85639529D01*
X187481218Y-85661153D01*
X187468921Y-85681670D01*
X187454671Y-85700883D01*
X187438607Y-85718607D01*
X187420883Y-85734671D01*
X187401670Y-85748921D01*
X187381153Y-85761218D01*
X187359529Y-85771446D01*
X187337007Y-85779504D01*
X187313803Y-85785316D01*
X187290142Y-85788826D01*
X187266250Y-85790000D01*
X186778750Y-85790000D01*
X186754858Y-85788826D01*
X186731197Y-85785316D01*
X186707993Y-85779504D01*
X186685471Y-85771446D01*
X186663847Y-85761218D01*
X186643330Y-85748921D01*
X186624117Y-85734671D01*
X186606393Y-85718607D01*
X186590329Y-85700883D01*
X186576079Y-85681670D01*
X186563782Y-85661153D01*
X186553554Y-85639529D01*
X186545496Y-85617007D01*
X186539684Y-85593803D01*
X186536174Y-85570142D01*
X186535000Y-85546250D01*
X186535000Y-84633750D01*
X186536174Y-84609858D01*
X186539684Y-84586197D01*
X186545496Y-84562993D01*
X186553554Y-84540471D01*
X186563782Y-84518847D01*
X186576079Y-84498330D01*
X186590329Y-84479117D01*
X186606393Y-84461393D01*
X186624117Y-84445329D01*
X186643330Y-84431079D01*
X186663847Y-84418782D01*
X186685471Y-84408554D01*
X186707993Y-84400496D01*
X186731197Y-84394684D01*
X186754858Y-84391174D01*
X186778750Y-84390000D01*
X187266250Y-84390000D01*
X187290142Y-84391174D01*
X187290142Y-84391174D01*
G37*
D11*
X187022500Y-85090000D03*
D10*
G36*
X189165142Y-84391174D02*
X189188803Y-84394684D01*
X189212007Y-84400496D01*
X189234529Y-84408554D01*
X189256153Y-84418782D01*
X189276670Y-84431079D01*
X189295883Y-84445329D01*
X189313607Y-84461393D01*
X189329671Y-84479117D01*
X189343921Y-84498330D01*
X189356218Y-84518847D01*
X189366446Y-84540471D01*
X189374504Y-84562993D01*
X189380316Y-84586197D01*
X189383826Y-84609858D01*
X189385000Y-84633750D01*
X189385000Y-85546250D01*
X189383826Y-85570142D01*
X189380316Y-85593803D01*
X189374504Y-85617007D01*
X189366446Y-85639529D01*
X189356218Y-85661153D01*
X189343921Y-85681670D01*
X189329671Y-85700883D01*
X189313607Y-85718607D01*
X189295883Y-85734671D01*
X189276670Y-85748921D01*
X189256153Y-85761218D01*
X189234529Y-85771446D01*
X189212007Y-85779504D01*
X189188803Y-85785316D01*
X189165142Y-85788826D01*
X189141250Y-85790000D01*
X188653750Y-85790000D01*
X188629858Y-85788826D01*
X188606197Y-85785316D01*
X188582993Y-85779504D01*
X188560471Y-85771446D01*
X188538847Y-85761218D01*
X188518330Y-85748921D01*
X188499117Y-85734671D01*
X188481393Y-85718607D01*
X188465329Y-85700883D01*
X188451079Y-85681670D01*
X188438782Y-85661153D01*
X188428554Y-85639529D01*
X188420496Y-85617007D01*
X188414684Y-85593803D01*
X188411174Y-85570142D01*
X188410000Y-85546250D01*
X188410000Y-84633750D01*
X188411174Y-84609858D01*
X188414684Y-84586197D01*
X188420496Y-84562993D01*
X188428554Y-84540471D01*
X188438782Y-84518847D01*
X188451079Y-84498330D01*
X188465329Y-84479117D01*
X188481393Y-84461393D01*
X188499117Y-84445329D01*
X188518330Y-84431079D01*
X188538847Y-84418782D01*
X188560471Y-84408554D01*
X188582993Y-84400496D01*
X188606197Y-84394684D01*
X188629858Y-84391174D01*
X188653750Y-84390000D01*
X189141250Y-84390000D01*
X189165142Y-84391174D01*
X189165142Y-84391174D01*
G37*
D11*
X188897500Y-85090000D03*
G04 #@! TD*
D10*
G04 #@! TO.C,C21*
G36*
X206007642Y-84391174D02*
X206031303Y-84394684D01*
X206054507Y-84400496D01*
X206077029Y-84408554D01*
X206098653Y-84418782D01*
X206119170Y-84431079D01*
X206138383Y-84445329D01*
X206156107Y-84461393D01*
X206172171Y-84479117D01*
X206186421Y-84498330D01*
X206198718Y-84518847D01*
X206208946Y-84540471D01*
X206217004Y-84562993D01*
X206222816Y-84586197D01*
X206226326Y-84609858D01*
X206227500Y-84633750D01*
X206227500Y-85546250D01*
X206226326Y-85570142D01*
X206222816Y-85593803D01*
X206217004Y-85617007D01*
X206208946Y-85639529D01*
X206198718Y-85661153D01*
X206186421Y-85681670D01*
X206172171Y-85700883D01*
X206156107Y-85718607D01*
X206138383Y-85734671D01*
X206119170Y-85748921D01*
X206098653Y-85761218D01*
X206077029Y-85771446D01*
X206054507Y-85779504D01*
X206031303Y-85785316D01*
X206007642Y-85788826D01*
X205983750Y-85790000D01*
X205496250Y-85790000D01*
X205472358Y-85788826D01*
X205448697Y-85785316D01*
X205425493Y-85779504D01*
X205402971Y-85771446D01*
X205381347Y-85761218D01*
X205360830Y-85748921D01*
X205341617Y-85734671D01*
X205323893Y-85718607D01*
X205307829Y-85700883D01*
X205293579Y-85681670D01*
X205281282Y-85661153D01*
X205271054Y-85639529D01*
X205262996Y-85617007D01*
X205257184Y-85593803D01*
X205253674Y-85570142D01*
X205252500Y-85546250D01*
X205252500Y-84633750D01*
X205253674Y-84609858D01*
X205257184Y-84586197D01*
X205262996Y-84562993D01*
X205271054Y-84540471D01*
X205281282Y-84518847D01*
X205293579Y-84498330D01*
X205307829Y-84479117D01*
X205323893Y-84461393D01*
X205341617Y-84445329D01*
X205360830Y-84431079D01*
X205381347Y-84418782D01*
X205402971Y-84408554D01*
X205425493Y-84400496D01*
X205448697Y-84394684D01*
X205472358Y-84391174D01*
X205496250Y-84390000D01*
X205983750Y-84390000D01*
X206007642Y-84391174D01*
X206007642Y-84391174D01*
G37*
D11*
X205740000Y-85090000D03*
D10*
G36*
X204132642Y-84391174D02*
X204156303Y-84394684D01*
X204179507Y-84400496D01*
X204202029Y-84408554D01*
X204223653Y-84418782D01*
X204244170Y-84431079D01*
X204263383Y-84445329D01*
X204281107Y-84461393D01*
X204297171Y-84479117D01*
X204311421Y-84498330D01*
X204323718Y-84518847D01*
X204333946Y-84540471D01*
X204342004Y-84562993D01*
X204347816Y-84586197D01*
X204351326Y-84609858D01*
X204352500Y-84633750D01*
X204352500Y-85546250D01*
X204351326Y-85570142D01*
X204347816Y-85593803D01*
X204342004Y-85617007D01*
X204333946Y-85639529D01*
X204323718Y-85661153D01*
X204311421Y-85681670D01*
X204297171Y-85700883D01*
X204281107Y-85718607D01*
X204263383Y-85734671D01*
X204244170Y-85748921D01*
X204223653Y-85761218D01*
X204202029Y-85771446D01*
X204179507Y-85779504D01*
X204156303Y-85785316D01*
X204132642Y-85788826D01*
X204108750Y-85790000D01*
X203621250Y-85790000D01*
X203597358Y-85788826D01*
X203573697Y-85785316D01*
X203550493Y-85779504D01*
X203527971Y-85771446D01*
X203506347Y-85761218D01*
X203485830Y-85748921D01*
X203466617Y-85734671D01*
X203448893Y-85718607D01*
X203432829Y-85700883D01*
X203418579Y-85681670D01*
X203406282Y-85661153D01*
X203396054Y-85639529D01*
X203387996Y-85617007D01*
X203382184Y-85593803D01*
X203378674Y-85570142D01*
X203377500Y-85546250D01*
X203377500Y-84633750D01*
X203378674Y-84609858D01*
X203382184Y-84586197D01*
X203387996Y-84562993D01*
X203396054Y-84540471D01*
X203406282Y-84518847D01*
X203418579Y-84498330D01*
X203432829Y-84479117D01*
X203448893Y-84461393D01*
X203466617Y-84445329D01*
X203485830Y-84431079D01*
X203506347Y-84418782D01*
X203527971Y-84408554D01*
X203550493Y-84400496D01*
X203573697Y-84394684D01*
X203597358Y-84391174D01*
X203621250Y-84390000D01*
X204108750Y-84390000D01*
X204132642Y-84391174D01*
X204132642Y-84391174D01*
G37*
D11*
X203865000Y-85090000D03*
G04 #@! TD*
D10*
G04 #@! TO.C,C20*
G36*
X191432642Y-84391174D02*
X191456303Y-84394684D01*
X191479507Y-84400496D01*
X191502029Y-84408554D01*
X191523653Y-84418782D01*
X191544170Y-84431079D01*
X191563383Y-84445329D01*
X191581107Y-84461393D01*
X191597171Y-84479117D01*
X191611421Y-84498330D01*
X191623718Y-84518847D01*
X191633946Y-84540471D01*
X191642004Y-84562993D01*
X191647816Y-84586197D01*
X191651326Y-84609858D01*
X191652500Y-84633750D01*
X191652500Y-85546250D01*
X191651326Y-85570142D01*
X191647816Y-85593803D01*
X191642004Y-85617007D01*
X191633946Y-85639529D01*
X191623718Y-85661153D01*
X191611421Y-85681670D01*
X191597171Y-85700883D01*
X191581107Y-85718607D01*
X191563383Y-85734671D01*
X191544170Y-85748921D01*
X191523653Y-85761218D01*
X191502029Y-85771446D01*
X191479507Y-85779504D01*
X191456303Y-85785316D01*
X191432642Y-85788826D01*
X191408750Y-85790000D01*
X190921250Y-85790000D01*
X190897358Y-85788826D01*
X190873697Y-85785316D01*
X190850493Y-85779504D01*
X190827971Y-85771446D01*
X190806347Y-85761218D01*
X190785830Y-85748921D01*
X190766617Y-85734671D01*
X190748893Y-85718607D01*
X190732829Y-85700883D01*
X190718579Y-85681670D01*
X190706282Y-85661153D01*
X190696054Y-85639529D01*
X190687996Y-85617007D01*
X190682184Y-85593803D01*
X190678674Y-85570142D01*
X190677500Y-85546250D01*
X190677500Y-84633750D01*
X190678674Y-84609858D01*
X190682184Y-84586197D01*
X190687996Y-84562993D01*
X190696054Y-84540471D01*
X190706282Y-84518847D01*
X190718579Y-84498330D01*
X190732829Y-84479117D01*
X190748893Y-84461393D01*
X190766617Y-84445329D01*
X190785830Y-84431079D01*
X190806347Y-84418782D01*
X190827971Y-84408554D01*
X190850493Y-84400496D01*
X190873697Y-84394684D01*
X190897358Y-84391174D01*
X190921250Y-84390000D01*
X191408750Y-84390000D01*
X191432642Y-84391174D01*
X191432642Y-84391174D01*
G37*
D11*
X191165000Y-85090000D03*
D10*
G36*
X193307642Y-84391174D02*
X193331303Y-84394684D01*
X193354507Y-84400496D01*
X193377029Y-84408554D01*
X193398653Y-84418782D01*
X193419170Y-84431079D01*
X193438383Y-84445329D01*
X193456107Y-84461393D01*
X193472171Y-84479117D01*
X193486421Y-84498330D01*
X193498718Y-84518847D01*
X193508946Y-84540471D01*
X193517004Y-84562993D01*
X193522816Y-84586197D01*
X193526326Y-84609858D01*
X193527500Y-84633750D01*
X193527500Y-85546250D01*
X193526326Y-85570142D01*
X193522816Y-85593803D01*
X193517004Y-85617007D01*
X193508946Y-85639529D01*
X193498718Y-85661153D01*
X193486421Y-85681670D01*
X193472171Y-85700883D01*
X193456107Y-85718607D01*
X193438383Y-85734671D01*
X193419170Y-85748921D01*
X193398653Y-85761218D01*
X193377029Y-85771446D01*
X193354507Y-85779504D01*
X193331303Y-85785316D01*
X193307642Y-85788826D01*
X193283750Y-85790000D01*
X192796250Y-85790000D01*
X192772358Y-85788826D01*
X192748697Y-85785316D01*
X192725493Y-85779504D01*
X192702971Y-85771446D01*
X192681347Y-85761218D01*
X192660830Y-85748921D01*
X192641617Y-85734671D01*
X192623893Y-85718607D01*
X192607829Y-85700883D01*
X192593579Y-85681670D01*
X192581282Y-85661153D01*
X192571054Y-85639529D01*
X192562996Y-85617007D01*
X192557184Y-85593803D01*
X192553674Y-85570142D01*
X192552500Y-85546250D01*
X192552500Y-84633750D01*
X192553674Y-84609858D01*
X192557184Y-84586197D01*
X192562996Y-84562993D01*
X192571054Y-84540471D01*
X192581282Y-84518847D01*
X192593579Y-84498330D01*
X192607829Y-84479117D01*
X192623893Y-84461393D01*
X192641617Y-84445329D01*
X192660830Y-84431079D01*
X192681347Y-84418782D01*
X192702971Y-84408554D01*
X192725493Y-84400496D01*
X192748697Y-84394684D01*
X192772358Y-84391174D01*
X192796250Y-84390000D01*
X193283750Y-84390000D01*
X193307642Y-84391174D01*
X193307642Y-84391174D01*
G37*
D11*
X193040000Y-85090000D03*
G04 #@! TD*
D12*
G04 #@! TO.C,U6*
X188200000Y-80620000D03*
X192800000Y-80620000D03*
X190500000Y-80620000D03*
D13*
X190500000Y-74320000D03*
G04 #@! TD*
G04 #@! TO.C,U7*
X203200000Y-74320000D03*
D12*
X203200000Y-80620000D03*
X205500000Y-80620000D03*
X200900000Y-80620000D03*
G04 #@! TD*
D10*
G04 #@! TO.C,D12*
G36*
X202199504Y-67198204D02*
X202223773Y-67201804D01*
X202247571Y-67207765D01*
X202270671Y-67216030D01*
X202292849Y-67226520D01*
X202313893Y-67239133D01*
X202333598Y-67253747D01*
X202351777Y-67270223D01*
X202368253Y-67288402D01*
X202382867Y-67308107D01*
X202395480Y-67329151D01*
X202405970Y-67351329D01*
X202414235Y-67374429D01*
X202420196Y-67398227D01*
X202423796Y-67422496D01*
X202425000Y-67447000D01*
X202425000Y-68697000D01*
X202423796Y-68721504D01*
X202420196Y-68745773D01*
X202414235Y-68769571D01*
X202405970Y-68792671D01*
X202395480Y-68814849D01*
X202382867Y-68835893D01*
X202368253Y-68855598D01*
X202351777Y-68873777D01*
X202333598Y-68890253D01*
X202313893Y-68904867D01*
X202292849Y-68917480D01*
X202270671Y-68927970D01*
X202247571Y-68936235D01*
X202223773Y-68942196D01*
X202199504Y-68945796D01*
X202175000Y-68947000D01*
X201250000Y-68947000D01*
X201225496Y-68945796D01*
X201201227Y-68942196D01*
X201177429Y-68936235D01*
X201154329Y-68927970D01*
X201132151Y-68917480D01*
X201111107Y-68904867D01*
X201091402Y-68890253D01*
X201073223Y-68873777D01*
X201056747Y-68855598D01*
X201042133Y-68835893D01*
X201029520Y-68814849D01*
X201019030Y-68792671D01*
X201010765Y-68769571D01*
X201004804Y-68745773D01*
X201001204Y-68721504D01*
X201000000Y-68697000D01*
X201000000Y-67447000D01*
X201001204Y-67422496D01*
X201004804Y-67398227D01*
X201010765Y-67374429D01*
X201019030Y-67351329D01*
X201029520Y-67329151D01*
X201042133Y-67308107D01*
X201056747Y-67288402D01*
X201073223Y-67270223D01*
X201091402Y-67253747D01*
X201111107Y-67239133D01*
X201132151Y-67226520D01*
X201154329Y-67216030D01*
X201177429Y-67207765D01*
X201201227Y-67201804D01*
X201225496Y-67198204D01*
X201250000Y-67197000D01*
X202175000Y-67197000D01*
X202199504Y-67198204D01*
X202199504Y-67198204D01*
G37*
D14*
X201712500Y-68072000D03*
D10*
G36*
X205174504Y-67198204D02*
X205198773Y-67201804D01*
X205222571Y-67207765D01*
X205245671Y-67216030D01*
X205267849Y-67226520D01*
X205288893Y-67239133D01*
X205308598Y-67253747D01*
X205326777Y-67270223D01*
X205343253Y-67288402D01*
X205357867Y-67308107D01*
X205370480Y-67329151D01*
X205380970Y-67351329D01*
X205389235Y-67374429D01*
X205395196Y-67398227D01*
X205398796Y-67422496D01*
X205400000Y-67447000D01*
X205400000Y-68697000D01*
X205398796Y-68721504D01*
X205395196Y-68745773D01*
X205389235Y-68769571D01*
X205380970Y-68792671D01*
X205370480Y-68814849D01*
X205357867Y-68835893D01*
X205343253Y-68855598D01*
X205326777Y-68873777D01*
X205308598Y-68890253D01*
X205288893Y-68904867D01*
X205267849Y-68917480D01*
X205245671Y-68927970D01*
X205222571Y-68936235D01*
X205198773Y-68942196D01*
X205174504Y-68945796D01*
X205150000Y-68947000D01*
X204225000Y-68947000D01*
X204200496Y-68945796D01*
X204176227Y-68942196D01*
X204152429Y-68936235D01*
X204129329Y-68927970D01*
X204107151Y-68917480D01*
X204086107Y-68904867D01*
X204066402Y-68890253D01*
X204048223Y-68873777D01*
X204031747Y-68855598D01*
X204017133Y-68835893D01*
X204004520Y-68814849D01*
X203994030Y-68792671D01*
X203985765Y-68769571D01*
X203979804Y-68745773D01*
X203976204Y-68721504D01*
X203975000Y-68697000D01*
X203975000Y-67447000D01*
X203976204Y-67422496D01*
X203979804Y-67398227D01*
X203985765Y-67374429D01*
X203994030Y-67351329D01*
X204004520Y-67329151D01*
X204017133Y-67308107D01*
X204031747Y-67288402D01*
X204048223Y-67270223D01*
X204066402Y-67253747D01*
X204086107Y-67239133D01*
X204107151Y-67226520D01*
X204129329Y-67216030D01*
X204152429Y-67207765D01*
X204176227Y-67201804D01*
X204200496Y-67198204D01*
X204225000Y-67197000D01*
X205150000Y-67197000D01*
X205174504Y-67198204D01*
X205174504Y-67198204D01*
G37*
D14*
X204687500Y-68072000D03*
G04 #@! TD*
D15*
G04 #@! TO.C,D6*
X148844000Y-91158000D03*
X148844000Y-87658000D03*
G04 #@! TD*
G04 #@! TO.C,D7*
X163068000Y-91158000D03*
X163068000Y-87658000D03*
G04 #@! TD*
G04 #@! TO.C,D5*
X155956000Y-87658000D03*
X155956000Y-91158000D03*
G04 #@! TD*
G04 #@! TO.C,D4*
X159512000Y-91158000D03*
X159512000Y-87658000D03*
G04 #@! TD*
G04 #@! TO.C,D3*
X145288000Y-87658000D03*
X145288000Y-91158000D03*
G04 #@! TD*
G04 #@! TO.C,D2*
X152400000Y-91158000D03*
X152400000Y-87658000D03*
G04 #@! TD*
D16*
G04 #@! TO.C,D1*
X124742000Y-86360000D03*
X128242000Y-86360000D03*
G04 #@! TD*
D10*
G04 #@! TO.C,C3*
G36*
X130449505Y-103982204D02*
X130473773Y-103985804D01*
X130497572Y-103991765D01*
X130520671Y-104000030D01*
X130542850Y-104010520D01*
X130563893Y-104023132D01*
X130583599Y-104037747D01*
X130601777Y-104054223D01*
X130618253Y-104072401D01*
X130632868Y-104092107D01*
X130645480Y-104113150D01*
X130655970Y-104135329D01*
X130664235Y-104158428D01*
X130670196Y-104182227D01*
X130673796Y-104206495D01*
X130675000Y-104230999D01*
X130675000Y-106081001D01*
X130673796Y-106105505D01*
X130670196Y-106129773D01*
X130664235Y-106153572D01*
X130655970Y-106176671D01*
X130645480Y-106198850D01*
X130632868Y-106219893D01*
X130618253Y-106239599D01*
X130601777Y-106257777D01*
X130583599Y-106274253D01*
X130563893Y-106288868D01*
X130542850Y-106301480D01*
X130520671Y-106311970D01*
X130497572Y-106320235D01*
X130473773Y-106326196D01*
X130449505Y-106329796D01*
X130425001Y-106331000D01*
X128674999Y-106331000D01*
X128650495Y-106329796D01*
X128626227Y-106326196D01*
X128602428Y-106320235D01*
X128579329Y-106311970D01*
X128557150Y-106301480D01*
X128536107Y-106288868D01*
X128516401Y-106274253D01*
X128498223Y-106257777D01*
X128481747Y-106239599D01*
X128467132Y-106219893D01*
X128454520Y-106198850D01*
X128444030Y-106176671D01*
X128435765Y-106153572D01*
X128429804Y-106129773D01*
X128426204Y-106105505D01*
X128425000Y-106081001D01*
X128425000Y-104230999D01*
X128426204Y-104206495D01*
X128429804Y-104182227D01*
X128435765Y-104158428D01*
X128444030Y-104135329D01*
X128454520Y-104113150D01*
X128467132Y-104092107D01*
X128481747Y-104072401D01*
X128498223Y-104054223D01*
X128516401Y-104037747D01*
X128536107Y-104023132D01*
X128557150Y-104010520D01*
X128579329Y-104000030D01*
X128602428Y-103991765D01*
X128626227Y-103985804D01*
X128650495Y-103982204D01*
X128674999Y-103981000D01*
X130425001Y-103981000D01*
X130449505Y-103982204D01*
X130449505Y-103982204D01*
G37*
D17*
X129550000Y-105156000D03*
D10*
G36*
X125349505Y-103982204D02*
X125373773Y-103985804D01*
X125397572Y-103991765D01*
X125420671Y-104000030D01*
X125442850Y-104010520D01*
X125463893Y-104023132D01*
X125483599Y-104037747D01*
X125501777Y-104054223D01*
X125518253Y-104072401D01*
X125532868Y-104092107D01*
X125545480Y-104113150D01*
X125555970Y-104135329D01*
X125564235Y-104158428D01*
X125570196Y-104182227D01*
X125573796Y-104206495D01*
X125575000Y-104230999D01*
X125575000Y-106081001D01*
X125573796Y-106105505D01*
X125570196Y-106129773D01*
X125564235Y-106153572D01*
X125555970Y-106176671D01*
X125545480Y-106198850D01*
X125532868Y-106219893D01*
X125518253Y-106239599D01*
X125501777Y-106257777D01*
X125483599Y-106274253D01*
X125463893Y-106288868D01*
X125442850Y-106301480D01*
X125420671Y-106311970D01*
X125397572Y-106320235D01*
X125373773Y-106326196D01*
X125349505Y-106329796D01*
X125325001Y-106331000D01*
X123574999Y-106331000D01*
X123550495Y-106329796D01*
X123526227Y-106326196D01*
X123502428Y-106320235D01*
X123479329Y-106311970D01*
X123457150Y-106301480D01*
X123436107Y-106288868D01*
X123416401Y-106274253D01*
X123398223Y-106257777D01*
X123381747Y-106239599D01*
X123367132Y-106219893D01*
X123354520Y-106198850D01*
X123344030Y-106176671D01*
X123335765Y-106153572D01*
X123329804Y-106129773D01*
X123326204Y-106105505D01*
X123325000Y-106081001D01*
X123325000Y-104230999D01*
X123326204Y-104206495D01*
X123329804Y-104182227D01*
X123335765Y-104158428D01*
X123344030Y-104135329D01*
X123354520Y-104113150D01*
X123367132Y-104092107D01*
X123381747Y-104072401D01*
X123398223Y-104054223D01*
X123416401Y-104037747D01*
X123436107Y-104023132D01*
X123457150Y-104010520D01*
X123479329Y-104000030D01*
X123502428Y-103991765D01*
X123526227Y-103985804D01*
X123550495Y-103982204D01*
X123574999Y-103981000D01*
X125325001Y-103981000D01*
X125349505Y-103982204D01*
X125349505Y-103982204D01*
G37*
D17*
X124450000Y-105156000D03*
G04 #@! TD*
D10*
G04 #@! TO.C,C6*
G36*
X179705505Y-68930204D02*
X179729773Y-68933804D01*
X179753572Y-68939765D01*
X179776671Y-68948030D01*
X179798850Y-68958520D01*
X179819893Y-68971132D01*
X179839599Y-68985747D01*
X179857777Y-69002223D01*
X179874253Y-69020401D01*
X179888868Y-69040107D01*
X179901480Y-69061150D01*
X179911970Y-69083329D01*
X179920235Y-69106428D01*
X179926196Y-69130227D01*
X179929796Y-69154495D01*
X179931000Y-69178999D01*
X179931000Y-71029001D01*
X179929796Y-71053505D01*
X179926196Y-71077773D01*
X179920235Y-71101572D01*
X179911970Y-71124671D01*
X179901480Y-71146850D01*
X179888868Y-71167893D01*
X179874253Y-71187599D01*
X179857777Y-71205777D01*
X179839599Y-71222253D01*
X179819893Y-71236868D01*
X179798850Y-71249480D01*
X179776671Y-71259970D01*
X179753572Y-71268235D01*
X179729773Y-71274196D01*
X179705505Y-71277796D01*
X179681001Y-71279000D01*
X177930999Y-71279000D01*
X177906495Y-71277796D01*
X177882227Y-71274196D01*
X177858428Y-71268235D01*
X177835329Y-71259970D01*
X177813150Y-71249480D01*
X177792107Y-71236868D01*
X177772401Y-71222253D01*
X177754223Y-71205777D01*
X177737747Y-71187599D01*
X177723132Y-71167893D01*
X177710520Y-71146850D01*
X177700030Y-71124671D01*
X177691765Y-71101572D01*
X177685804Y-71077773D01*
X177682204Y-71053505D01*
X177681000Y-71029001D01*
X177681000Y-69178999D01*
X177682204Y-69154495D01*
X177685804Y-69130227D01*
X177691765Y-69106428D01*
X177700030Y-69083329D01*
X177710520Y-69061150D01*
X177723132Y-69040107D01*
X177737747Y-69020401D01*
X177754223Y-69002223D01*
X177772401Y-68985747D01*
X177792107Y-68971132D01*
X177813150Y-68958520D01*
X177835329Y-68948030D01*
X177858428Y-68939765D01*
X177882227Y-68933804D01*
X177906495Y-68930204D01*
X177930999Y-68929000D01*
X179681001Y-68929000D01*
X179705505Y-68930204D01*
X179705505Y-68930204D01*
G37*
D17*
X178806000Y-70104000D03*
D10*
G36*
X184805505Y-68930204D02*
X184829773Y-68933804D01*
X184853572Y-68939765D01*
X184876671Y-68948030D01*
X184898850Y-68958520D01*
X184919893Y-68971132D01*
X184939599Y-68985747D01*
X184957777Y-69002223D01*
X184974253Y-69020401D01*
X184988868Y-69040107D01*
X185001480Y-69061150D01*
X185011970Y-69083329D01*
X185020235Y-69106428D01*
X185026196Y-69130227D01*
X185029796Y-69154495D01*
X185031000Y-69178999D01*
X185031000Y-71029001D01*
X185029796Y-71053505D01*
X185026196Y-71077773D01*
X185020235Y-71101572D01*
X185011970Y-71124671D01*
X185001480Y-71146850D01*
X184988868Y-71167893D01*
X184974253Y-71187599D01*
X184957777Y-71205777D01*
X184939599Y-71222253D01*
X184919893Y-71236868D01*
X184898850Y-71249480D01*
X184876671Y-71259970D01*
X184853572Y-71268235D01*
X184829773Y-71274196D01*
X184805505Y-71277796D01*
X184781001Y-71279000D01*
X183030999Y-71279000D01*
X183006495Y-71277796D01*
X182982227Y-71274196D01*
X182958428Y-71268235D01*
X182935329Y-71259970D01*
X182913150Y-71249480D01*
X182892107Y-71236868D01*
X182872401Y-71222253D01*
X182854223Y-71205777D01*
X182837747Y-71187599D01*
X182823132Y-71167893D01*
X182810520Y-71146850D01*
X182800030Y-71124671D01*
X182791765Y-71101572D01*
X182785804Y-71077773D01*
X182782204Y-71053505D01*
X182781000Y-71029001D01*
X182781000Y-69178999D01*
X182782204Y-69154495D01*
X182785804Y-69130227D01*
X182791765Y-69106428D01*
X182800030Y-69083329D01*
X182810520Y-69061150D01*
X182823132Y-69040107D01*
X182837747Y-69020401D01*
X182854223Y-69002223D01*
X182872401Y-68985747D01*
X182892107Y-68971132D01*
X182913150Y-68958520D01*
X182935329Y-68948030D01*
X182958428Y-68939765D01*
X182982227Y-68933804D01*
X183006495Y-68930204D01*
X183030999Y-68929000D01*
X184781001Y-68929000D01*
X184805505Y-68930204D01*
X184805505Y-68930204D01*
G37*
D17*
X183906000Y-70104000D03*
G04 #@! TD*
D10*
G04 #@! TO.C,C12*
G36*
X146845505Y-62020204D02*
X146869773Y-62023804D01*
X146893572Y-62029765D01*
X146916671Y-62038030D01*
X146938850Y-62048520D01*
X146959893Y-62061132D01*
X146979599Y-62075747D01*
X146997777Y-62092223D01*
X147014253Y-62110401D01*
X147028868Y-62130107D01*
X147041480Y-62151150D01*
X147051970Y-62173329D01*
X147060235Y-62196428D01*
X147066196Y-62220227D01*
X147069796Y-62244495D01*
X147071000Y-62268999D01*
X147071000Y-64019001D01*
X147069796Y-64043505D01*
X147066196Y-64067773D01*
X147060235Y-64091572D01*
X147051970Y-64114671D01*
X147041480Y-64136850D01*
X147028868Y-64157893D01*
X147014253Y-64177599D01*
X146997777Y-64195777D01*
X146979599Y-64212253D01*
X146959893Y-64226868D01*
X146938850Y-64239480D01*
X146916671Y-64249970D01*
X146893572Y-64258235D01*
X146869773Y-64264196D01*
X146845505Y-64267796D01*
X146821001Y-64269000D01*
X144770999Y-64269000D01*
X144746495Y-64267796D01*
X144722227Y-64264196D01*
X144698428Y-64258235D01*
X144675329Y-64249970D01*
X144653150Y-64239480D01*
X144632107Y-64226868D01*
X144612401Y-64212253D01*
X144594223Y-64195777D01*
X144577747Y-64177599D01*
X144563132Y-64157893D01*
X144550520Y-64136850D01*
X144540030Y-64114671D01*
X144531765Y-64091572D01*
X144525804Y-64067773D01*
X144522204Y-64043505D01*
X144521000Y-64019001D01*
X144521000Y-62268999D01*
X144522204Y-62244495D01*
X144525804Y-62220227D01*
X144531765Y-62196428D01*
X144540030Y-62173329D01*
X144550520Y-62151150D01*
X144563132Y-62130107D01*
X144577747Y-62110401D01*
X144594223Y-62092223D01*
X144612401Y-62075747D01*
X144632107Y-62061132D01*
X144653150Y-62048520D01*
X144675329Y-62038030D01*
X144698428Y-62029765D01*
X144722227Y-62023804D01*
X144746495Y-62020204D01*
X144770999Y-62019000D01*
X146821001Y-62019000D01*
X146845505Y-62020204D01*
X146845505Y-62020204D01*
G37*
D17*
X145796000Y-63144000D03*
D10*
G36*
X146845505Y-55620204D02*
X146869773Y-55623804D01*
X146893572Y-55629765D01*
X146916671Y-55638030D01*
X146938850Y-55648520D01*
X146959893Y-55661132D01*
X146979599Y-55675747D01*
X146997777Y-55692223D01*
X147014253Y-55710401D01*
X147028868Y-55730107D01*
X147041480Y-55751150D01*
X147051970Y-55773329D01*
X147060235Y-55796428D01*
X147066196Y-55820227D01*
X147069796Y-55844495D01*
X147071000Y-55868999D01*
X147071000Y-57619001D01*
X147069796Y-57643505D01*
X147066196Y-57667773D01*
X147060235Y-57691572D01*
X147051970Y-57714671D01*
X147041480Y-57736850D01*
X147028868Y-57757893D01*
X147014253Y-57777599D01*
X146997777Y-57795777D01*
X146979599Y-57812253D01*
X146959893Y-57826868D01*
X146938850Y-57839480D01*
X146916671Y-57849970D01*
X146893572Y-57858235D01*
X146869773Y-57864196D01*
X146845505Y-57867796D01*
X146821001Y-57869000D01*
X144770999Y-57869000D01*
X144746495Y-57867796D01*
X144722227Y-57864196D01*
X144698428Y-57858235D01*
X144675329Y-57849970D01*
X144653150Y-57839480D01*
X144632107Y-57826868D01*
X144612401Y-57812253D01*
X144594223Y-57795777D01*
X144577747Y-57777599D01*
X144563132Y-57757893D01*
X144550520Y-57736850D01*
X144540030Y-57714671D01*
X144531765Y-57691572D01*
X144525804Y-57667773D01*
X144522204Y-57643505D01*
X144521000Y-57619001D01*
X144521000Y-55868999D01*
X144522204Y-55844495D01*
X144525804Y-55820227D01*
X144531765Y-55796428D01*
X144540030Y-55773329D01*
X144550520Y-55751150D01*
X144563132Y-55730107D01*
X144577747Y-55710401D01*
X144594223Y-55692223D01*
X144612401Y-55675747D01*
X144632107Y-55661132D01*
X144653150Y-55648520D01*
X144675329Y-55638030D01*
X144698428Y-55629765D01*
X144722227Y-55623804D01*
X144746495Y-55620204D01*
X144770999Y-55619000D01*
X146821001Y-55619000D01*
X146845505Y-55620204D01*
X146845505Y-55620204D01*
G37*
D17*
X145796000Y-56744000D03*
G04 #@! TD*
D18*
G04 #@! TO.C,Q2*
X177800000Y-115332000D03*
X178750000Y-117332000D03*
X176850000Y-117332000D03*
G04 #@! TD*
G04 #@! TO.C,Q1*
X136718000Y-117332000D03*
X138618000Y-117332000D03*
X137668000Y-115332000D03*
G04 #@! TD*
D19*
G04 #@! TO.C,U3*
X200780157Y-103635735D03*
X200780157Y-102365735D03*
X200780157Y-101095735D03*
X200780157Y-99825735D03*
X200780157Y-98555735D03*
X200780157Y-97285735D03*
X200780157Y-96015735D03*
X195380157Y-96015735D03*
X195380157Y-97285735D03*
X195380157Y-98555735D03*
X195380157Y-99825735D03*
X195380157Y-101095735D03*
X195380157Y-102365735D03*
X195380157Y-103635735D03*
G04 #@! TD*
G04 #@! TO.C,U4*
X187104000Y-104270735D03*
X187104000Y-103000735D03*
X187104000Y-101730735D03*
X187104000Y-100460735D03*
X187104000Y-99190735D03*
X187104000Y-97920735D03*
X187104000Y-96650735D03*
X187104000Y-95380735D03*
X181704000Y-95380735D03*
X181704000Y-96650735D03*
X181704000Y-97920735D03*
X181704000Y-99190735D03*
X181704000Y-100460735D03*
X181704000Y-101730735D03*
X181704000Y-103000735D03*
X181704000Y-104270735D03*
G04 #@! TD*
G04 #@! TO.C,U1*
X168496000Y-73914000D03*
X168496000Y-75184000D03*
X168496000Y-76454000D03*
X168496000Y-77724000D03*
X168496000Y-78994000D03*
X168496000Y-80264000D03*
X168496000Y-81534000D03*
X173896000Y-81534000D03*
X173896000Y-80264000D03*
X173896000Y-78994000D03*
X173896000Y-77724000D03*
X173896000Y-76454000D03*
X173896000Y-75184000D03*
X173896000Y-73914000D03*
G04 #@! TD*
D20*
G04 #@! TO.C,U2*
X131699000Y-67134000D03*
X132969000Y-67134000D03*
X134239000Y-67134000D03*
X135509000Y-67134000D03*
X136779000Y-67134000D03*
X138049000Y-67134000D03*
X139319000Y-67134000D03*
X140589000Y-67134000D03*
X140589000Y-57834000D03*
X139319000Y-57834000D03*
X138049000Y-57834000D03*
X136779000Y-57834000D03*
X135509000Y-57834000D03*
X134239000Y-57834000D03*
X132969000Y-57834000D03*
X131699000Y-57834000D03*
G04 #@! TD*
M02*
