G04 #@! TF.GenerationSoftware,KiCad,Pcbnew,5.0.2-bee76a0~70~ubuntu18.04.1*
G04 #@! TF.CreationDate,2020-01-13T15:24:33+02:00*
G04 #@! TF.ProjectId,videosport,76696465-6f73-4706-9f72-742e6b696361,rev?*
G04 #@! TF.SameCoordinates,Original*
G04 #@! TF.FileFunction,Soldermask,Bot*
G04 #@! TF.FilePolarity,Negative*
%FSLAX46Y46*%
G04 Gerber Fmt 4.6, Leading zero omitted, Abs format (unit mm)*
G04 Created by KiCad (PCBNEW 5.0.2-bee76a0~70~ubuntu18.04.1) date Пнд 13 янв 2020 15:24:33*
%MOMM*%
%LPD*%
G01*
G04 APERTURE LIST*
%ADD10C,0.100000*%
G04 APERTURE END LIST*
D10*
G36*
X205359728Y-126738147D02*
X205951682Y-126855894D01*
X206543326Y-127100961D01*
X206832923Y-127294464D01*
X207075795Y-127456746D01*
X207528614Y-127909565D01*
X207528616Y-127909568D01*
X207884399Y-128442034D01*
X208077332Y-128907816D01*
X208129466Y-129033679D01*
X208254400Y-129661763D01*
X208254400Y-130302157D01*
X208191933Y-130616199D01*
X208129466Y-130930242D01*
X207884399Y-131521886D01*
X207636665Y-131892645D01*
X207528614Y-132054355D01*
X207075795Y-132507174D01*
X207075792Y-132507176D01*
X206543326Y-132862959D01*
X205951682Y-133108026D01*
X205637639Y-133170493D01*
X205323597Y-133232960D01*
X204683203Y-133232960D01*
X204369161Y-133170493D01*
X204055118Y-133108026D01*
X203463474Y-132862959D01*
X202931008Y-132507176D01*
X202931005Y-132507174D01*
X202478186Y-132054355D01*
X202370135Y-131892645D01*
X202122401Y-131521886D01*
X201877334Y-130930242D01*
X201814867Y-130616199D01*
X201752400Y-130302157D01*
X201752400Y-129661763D01*
X201877334Y-129033679D01*
X201929468Y-128907816D01*
X202122401Y-128442034D01*
X202478184Y-127909568D01*
X202478186Y-127909565D01*
X202931005Y-127456746D01*
X203173877Y-127294464D01*
X203463474Y-127100961D01*
X204055118Y-126855894D01*
X204647072Y-126738147D01*
X204683203Y-126730960D01*
X205323597Y-126730960D01*
X205359728Y-126738147D01*
X205359728Y-126738147D01*
G37*
G36*
X113360928Y-126738147D02*
X113952882Y-126855894D01*
X114544526Y-127100961D01*
X114834123Y-127294464D01*
X115076995Y-127456746D01*
X115529814Y-127909565D01*
X115529816Y-127909568D01*
X115885599Y-128442034D01*
X116078532Y-128907816D01*
X116130666Y-129033679D01*
X116255600Y-129661763D01*
X116255600Y-130302157D01*
X116193133Y-130616199D01*
X116130666Y-130930242D01*
X115885599Y-131521886D01*
X115637865Y-131892645D01*
X115529814Y-132054355D01*
X115076995Y-132507174D01*
X115076992Y-132507176D01*
X114544526Y-132862959D01*
X113952882Y-133108026D01*
X113638839Y-133170493D01*
X113324797Y-133232960D01*
X112684403Y-133232960D01*
X112370361Y-133170493D01*
X112056318Y-133108026D01*
X111464674Y-132862959D01*
X110932208Y-132507176D01*
X110932205Y-132507174D01*
X110479386Y-132054355D01*
X110371335Y-131892645D01*
X110123601Y-131521886D01*
X109878534Y-130930242D01*
X109816067Y-130616199D01*
X109753600Y-130302157D01*
X109753600Y-129661763D01*
X109878534Y-129033679D01*
X109930668Y-128907816D01*
X110123601Y-128442034D01*
X110479384Y-127909568D01*
X110479386Y-127909565D01*
X110932205Y-127456746D01*
X111175077Y-127294464D01*
X111464674Y-127100961D01*
X112056318Y-126855894D01*
X112648272Y-126738147D01*
X112684403Y-126730960D01*
X113324797Y-126730960D01*
X113360928Y-126738147D01*
X113360928Y-126738147D01*
G37*
G36*
X181417228Y-128005703D02*
X181572100Y-128069853D01*
X181711481Y-128162985D01*
X181830015Y-128281519D01*
X181923147Y-128420900D01*
X181987297Y-128575772D01*
X182020000Y-128740184D01*
X182020000Y-128907816D01*
X181987297Y-129072228D01*
X181923147Y-129227100D01*
X181830015Y-129366481D01*
X181711481Y-129485015D01*
X181572100Y-129578147D01*
X181417228Y-129642297D01*
X181252816Y-129675000D01*
X181085184Y-129675000D01*
X180920772Y-129642297D01*
X180765900Y-129578147D01*
X180626519Y-129485015D01*
X180507985Y-129366481D01*
X180414853Y-129227100D01*
X180350703Y-129072228D01*
X180318000Y-128907816D01*
X180318000Y-128740184D01*
X180350703Y-128575772D01*
X180414853Y-128420900D01*
X180507985Y-128281519D01*
X180626519Y-128162985D01*
X180765900Y-128069853D01*
X180920772Y-128005703D01*
X181085184Y-127973000D01*
X181252816Y-127973000D01*
X181417228Y-128005703D01*
X181417228Y-128005703D01*
G37*
G36*
X184187228Y-128005703D02*
X184342100Y-128069853D01*
X184481481Y-128162985D01*
X184600015Y-128281519D01*
X184693147Y-128420900D01*
X184757297Y-128575772D01*
X184790000Y-128740184D01*
X184790000Y-128907816D01*
X184757297Y-129072228D01*
X184693147Y-129227100D01*
X184600015Y-129366481D01*
X184481481Y-129485015D01*
X184342100Y-129578147D01*
X184187228Y-129642297D01*
X184022816Y-129675000D01*
X183855184Y-129675000D01*
X183690772Y-129642297D01*
X183535900Y-129578147D01*
X183396519Y-129485015D01*
X183277985Y-129366481D01*
X183184853Y-129227100D01*
X183120703Y-129072228D01*
X183088000Y-128907816D01*
X183088000Y-128740184D01*
X183120703Y-128575772D01*
X183184853Y-128420900D01*
X183277985Y-128281519D01*
X183396519Y-128162985D01*
X183535900Y-128069853D01*
X183690772Y-128005703D01*
X183855184Y-127973000D01*
X184022816Y-127973000D01*
X184187228Y-128005703D01*
X184187228Y-128005703D01*
G37*
G36*
X138515228Y-128005703D02*
X138670100Y-128069853D01*
X138809481Y-128162985D01*
X138928015Y-128281519D01*
X139021147Y-128420900D01*
X139085297Y-128575772D01*
X139118000Y-128740184D01*
X139118000Y-128907816D01*
X139085297Y-129072228D01*
X139021147Y-129227100D01*
X138928015Y-129366481D01*
X138809481Y-129485015D01*
X138670100Y-129578147D01*
X138515228Y-129642297D01*
X138350816Y-129675000D01*
X138183184Y-129675000D01*
X138018772Y-129642297D01*
X137863900Y-129578147D01*
X137724519Y-129485015D01*
X137605985Y-129366481D01*
X137512853Y-129227100D01*
X137448703Y-129072228D01*
X137416000Y-128907816D01*
X137416000Y-128740184D01*
X137448703Y-128575772D01*
X137512853Y-128420900D01*
X137605985Y-128281519D01*
X137724519Y-128162985D01*
X137863900Y-128069853D01*
X138018772Y-128005703D01*
X138183184Y-127973000D01*
X138350816Y-127973000D01*
X138515228Y-128005703D01*
X138515228Y-128005703D01*
G37*
G36*
X141285228Y-128005703D02*
X141440100Y-128069853D01*
X141579481Y-128162985D01*
X141698015Y-128281519D01*
X141791147Y-128420900D01*
X141855297Y-128575772D01*
X141888000Y-128740184D01*
X141888000Y-128907816D01*
X141855297Y-129072228D01*
X141791147Y-129227100D01*
X141698015Y-129366481D01*
X141579481Y-129485015D01*
X141440100Y-129578147D01*
X141285228Y-129642297D01*
X141120816Y-129675000D01*
X140953184Y-129675000D01*
X140788772Y-129642297D01*
X140633900Y-129578147D01*
X140494519Y-129485015D01*
X140375985Y-129366481D01*
X140282853Y-129227100D01*
X140218703Y-129072228D01*
X140186000Y-128907816D01*
X140186000Y-128740184D01*
X140218703Y-128575772D01*
X140282853Y-128420900D01*
X140375985Y-128281519D01*
X140494519Y-128162985D01*
X140633900Y-128069853D01*
X140788772Y-128005703D01*
X140953184Y-127973000D01*
X141120816Y-127973000D01*
X141285228Y-128005703D01*
X141285228Y-128005703D01*
G37*
G36*
X144055228Y-128005703D02*
X144210100Y-128069853D01*
X144349481Y-128162985D01*
X144468015Y-128281519D01*
X144561147Y-128420900D01*
X144625297Y-128575772D01*
X144658000Y-128740184D01*
X144658000Y-128907816D01*
X144625297Y-129072228D01*
X144561147Y-129227100D01*
X144468015Y-129366481D01*
X144349481Y-129485015D01*
X144210100Y-129578147D01*
X144055228Y-129642297D01*
X143890816Y-129675000D01*
X143723184Y-129675000D01*
X143558772Y-129642297D01*
X143403900Y-129578147D01*
X143264519Y-129485015D01*
X143145985Y-129366481D01*
X143052853Y-129227100D01*
X142988703Y-129072228D01*
X142956000Y-128907816D01*
X142956000Y-128740184D01*
X142988703Y-128575772D01*
X143052853Y-128420900D01*
X143145985Y-128281519D01*
X143264519Y-128162985D01*
X143403900Y-128069853D01*
X143558772Y-128005703D01*
X143723184Y-127973000D01*
X143890816Y-127973000D01*
X144055228Y-128005703D01*
X144055228Y-128005703D01*
G37*
G36*
X135745228Y-128005703D02*
X135900100Y-128069853D01*
X136039481Y-128162985D01*
X136158015Y-128281519D01*
X136251147Y-128420900D01*
X136315297Y-128575772D01*
X136348000Y-128740184D01*
X136348000Y-128907816D01*
X136315297Y-129072228D01*
X136251147Y-129227100D01*
X136158015Y-129366481D01*
X136039481Y-129485015D01*
X135900100Y-129578147D01*
X135745228Y-129642297D01*
X135580816Y-129675000D01*
X135413184Y-129675000D01*
X135248772Y-129642297D01*
X135093900Y-129578147D01*
X134954519Y-129485015D01*
X134835985Y-129366481D01*
X134742853Y-129227100D01*
X134678703Y-129072228D01*
X134646000Y-128907816D01*
X134646000Y-128740184D01*
X134678703Y-128575772D01*
X134742853Y-128420900D01*
X134835985Y-128281519D01*
X134954519Y-128162985D01*
X135093900Y-128069853D01*
X135248772Y-128005703D01*
X135413184Y-127973000D01*
X135580816Y-127973000D01*
X135745228Y-128005703D01*
X135745228Y-128005703D01*
G37*
G36*
X178647228Y-128005703D02*
X178802100Y-128069853D01*
X178941481Y-128162985D01*
X179060015Y-128281519D01*
X179153147Y-128420900D01*
X179217297Y-128575772D01*
X179250000Y-128740184D01*
X179250000Y-128907816D01*
X179217297Y-129072228D01*
X179153147Y-129227100D01*
X179060015Y-129366481D01*
X178941481Y-129485015D01*
X178802100Y-129578147D01*
X178647228Y-129642297D01*
X178482816Y-129675000D01*
X178315184Y-129675000D01*
X178150772Y-129642297D01*
X177995900Y-129578147D01*
X177856519Y-129485015D01*
X177737985Y-129366481D01*
X177644853Y-129227100D01*
X177580703Y-129072228D01*
X177548000Y-128907816D01*
X177548000Y-128740184D01*
X177580703Y-128575772D01*
X177644853Y-128420900D01*
X177737985Y-128281519D01*
X177856519Y-128162985D01*
X177995900Y-128069853D01*
X178150772Y-128005703D01*
X178315184Y-127973000D01*
X178482816Y-127973000D01*
X178647228Y-128005703D01*
X178647228Y-128005703D01*
G37*
G36*
X175877228Y-128005703D02*
X176032100Y-128069853D01*
X176171481Y-128162985D01*
X176290015Y-128281519D01*
X176383147Y-128420900D01*
X176447297Y-128575772D01*
X176480000Y-128740184D01*
X176480000Y-128907816D01*
X176447297Y-129072228D01*
X176383147Y-129227100D01*
X176290015Y-129366481D01*
X176171481Y-129485015D01*
X176032100Y-129578147D01*
X175877228Y-129642297D01*
X175712816Y-129675000D01*
X175545184Y-129675000D01*
X175380772Y-129642297D01*
X175225900Y-129578147D01*
X175086519Y-129485015D01*
X174967985Y-129366481D01*
X174874853Y-129227100D01*
X174810703Y-129072228D01*
X174778000Y-128907816D01*
X174778000Y-128740184D01*
X174810703Y-128575772D01*
X174874853Y-128420900D01*
X174967985Y-128281519D01*
X175086519Y-128162985D01*
X175225900Y-128069853D01*
X175380772Y-128005703D01*
X175545184Y-127973000D01*
X175712816Y-127973000D01*
X175877228Y-128005703D01*
X175877228Y-128005703D01*
G37*
G36*
X127750252Y-124311818D02*
X127750254Y-124311819D01*
X127750255Y-124311819D01*
X128123513Y-124466427D01*
X128123514Y-124466428D01*
X128459439Y-124690886D01*
X128745114Y-124976561D01*
X128745116Y-124976564D01*
X128969573Y-125312487D01*
X129080753Y-125580900D01*
X129124182Y-125685748D01*
X129203000Y-126081993D01*
X129203000Y-126486007D01*
X129171372Y-126645014D01*
X129124181Y-126882255D01*
X128969573Y-127255513D01*
X128894190Y-127368331D01*
X128745114Y-127591439D01*
X128459439Y-127877114D01*
X128459436Y-127877116D01*
X128123513Y-128101573D01*
X127750255Y-128256181D01*
X127750254Y-128256181D01*
X127750252Y-128256182D01*
X127354007Y-128335000D01*
X126949993Y-128335000D01*
X126553748Y-128256182D01*
X126553746Y-128256181D01*
X126553745Y-128256181D01*
X126180487Y-128101573D01*
X125844564Y-127877116D01*
X125844561Y-127877114D01*
X125558886Y-127591439D01*
X125409810Y-127368331D01*
X125334427Y-127255513D01*
X125179819Y-126882255D01*
X125132629Y-126645014D01*
X125101000Y-126486007D01*
X125101000Y-126081993D01*
X125179818Y-125685748D01*
X125223247Y-125580900D01*
X125334427Y-125312487D01*
X125558884Y-124976564D01*
X125558886Y-124976561D01*
X125844561Y-124690886D01*
X126180486Y-124466428D01*
X126180487Y-124466427D01*
X126553745Y-124311819D01*
X126553746Y-124311819D01*
X126553748Y-124311818D01*
X126949993Y-124233000D01*
X127354007Y-124233000D01*
X127750252Y-124311818D01*
X127750252Y-124311818D01*
G37*
G36*
X192882252Y-124311818D02*
X192882254Y-124311819D01*
X192882255Y-124311819D01*
X193255513Y-124466427D01*
X193255514Y-124466428D01*
X193591439Y-124690886D01*
X193877114Y-124976561D01*
X193877116Y-124976564D01*
X194101573Y-125312487D01*
X194212753Y-125580900D01*
X194256182Y-125685748D01*
X194335000Y-126081993D01*
X194335000Y-126486007D01*
X194303372Y-126645014D01*
X194256181Y-126882255D01*
X194101573Y-127255513D01*
X194026190Y-127368331D01*
X193877114Y-127591439D01*
X193591439Y-127877114D01*
X193591436Y-127877116D01*
X193255513Y-128101573D01*
X192882255Y-128256181D01*
X192882254Y-128256181D01*
X192882252Y-128256182D01*
X192486007Y-128335000D01*
X192081993Y-128335000D01*
X191685748Y-128256182D01*
X191685746Y-128256181D01*
X191685745Y-128256181D01*
X191312487Y-128101573D01*
X190976564Y-127877116D01*
X190976561Y-127877114D01*
X190690886Y-127591439D01*
X190541810Y-127368331D01*
X190466427Y-127255513D01*
X190311819Y-126882255D01*
X190264629Y-126645014D01*
X190233000Y-126486007D01*
X190233000Y-126081993D01*
X190311818Y-125685748D01*
X190355247Y-125580900D01*
X190466427Y-125312487D01*
X190690884Y-124976564D01*
X190690886Y-124976561D01*
X190976561Y-124690886D01*
X191312486Y-124466428D01*
X191312487Y-124466427D01*
X191685745Y-124311819D01*
X191685746Y-124311819D01*
X191685748Y-124311818D01*
X192081993Y-124233000D01*
X192486007Y-124233000D01*
X192882252Y-124311818D01*
X192882252Y-124311818D01*
G37*
G36*
X167882252Y-124311818D02*
X167882254Y-124311819D01*
X167882255Y-124311819D01*
X168255513Y-124466427D01*
X168255514Y-124466428D01*
X168591439Y-124690886D01*
X168877114Y-124976561D01*
X168877116Y-124976564D01*
X169101573Y-125312487D01*
X169212753Y-125580900D01*
X169256182Y-125685748D01*
X169335000Y-126081993D01*
X169335000Y-126486007D01*
X169303372Y-126645014D01*
X169256181Y-126882255D01*
X169101573Y-127255513D01*
X169026190Y-127368331D01*
X168877114Y-127591439D01*
X168591439Y-127877114D01*
X168591436Y-127877116D01*
X168255513Y-128101573D01*
X167882255Y-128256181D01*
X167882254Y-128256181D01*
X167882252Y-128256182D01*
X167486007Y-128335000D01*
X167081993Y-128335000D01*
X166685748Y-128256182D01*
X166685746Y-128256181D01*
X166685745Y-128256181D01*
X166312487Y-128101573D01*
X165976564Y-127877116D01*
X165976561Y-127877114D01*
X165690886Y-127591439D01*
X165541810Y-127368331D01*
X165466427Y-127255513D01*
X165311819Y-126882255D01*
X165264629Y-126645014D01*
X165233000Y-126486007D01*
X165233000Y-126081993D01*
X165311818Y-125685748D01*
X165355247Y-125580900D01*
X165466427Y-125312487D01*
X165690884Y-124976564D01*
X165690886Y-124976561D01*
X165976561Y-124690886D01*
X166312486Y-124466428D01*
X166312487Y-124466427D01*
X166685745Y-124311819D01*
X166685746Y-124311819D01*
X166685748Y-124311818D01*
X167081993Y-124233000D01*
X167486007Y-124233000D01*
X167882252Y-124311818D01*
X167882252Y-124311818D01*
G37*
G36*
X152750252Y-124311818D02*
X152750254Y-124311819D01*
X152750255Y-124311819D01*
X153123513Y-124466427D01*
X153123514Y-124466428D01*
X153459439Y-124690886D01*
X153745114Y-124976561D01*
X153745116Y-124976564D01*
X153969573Y-125312487D01*
X154080753Y-125580900D01*
X154124182Y-125685748D01*
X154203000Y-126081993D01*
X154203000Y-126486007D01*
X154171372Y-126645014D01*
X154124181Y-126882255D01*
X153969573Y-127255513D01*
X153894190Y-127368331D01*
X153745114Y-127591439D01*
X153459439Y-127877114D01*
X153459436Y-127877116D01*
X153123513Y-128101573D01*
X152750255Y-128256181D01*
X152750254Y-128256181D01*
X152750252Y-128256182D01*
X152354007Y-128335000D01*
X151949993Y-128335000D01*
X151553748Y-128256182D01*
X151553746Y-128256181D01*
X151553745Y-128256181D01*
X151180487Y-128101573D01*
X150844564Y-127877116D01*
X150844561Y-127877114D01*
X150558886Y-127591439D01*
X150409810Y-127368331D01*
X150334427Y-127255513D01*
X150179819Y-126882255D01*
X150132629Y-126645014D01*
X150101000Y-126486007D01*
X150101000Y-126081993D01*
X150179818Y-125685748D01*
X150223247Y-125580900D01*
X150334427Y-125312487D01*
X150558884Y-124976564D01*
X150558886Y-124976561D01*
X150844561Y-124690886D01*
X151180486Y-124466428D01*
X151180487Y-124466427D01*
X151553745Y-124311819D01*
X151553746Y-124311819D01*
X151553748Y-124311818D01*
X151949993Y-124233000D01*
X152354007Y-124233000D01*
X152750252Y-124311818D01*
X152750252Y-124311818D01*
G37*
G36*
X182802228Y-125165703D02*
X182957100Y-125229853D01*
X183096481Y-125322985D01*
X183215015Y-125441519D01*
X183308147Y-125580900D01*
X183372297Y-125735772D01*
X183405000Y-125900184D01*
X183405000Y-126067816D01*
X183372297Y-126232228D01*
X183308147Y-126387100D01*
X183215015Y-126526481D01*
X183096481Y-126645015D01*
X182957100Y-126738147D01*
X182802228Y-126802297D01*
X182637816Y-126835000D01*
X182470184Y-126835000D01*
X182305772Y-126802297D01*
X182150900Y-126738147D01*
X182011519Y-126645015D01*
X181892985Y-126526481D01*
X181799853Y-126387100D01*
X181735703Y-126232228D01*
X181703000Y-126067816D01*
X181703000Y-125900184D01*
X181735703Y-125735772D01*
X181799853Y-125580900D01*
X181892985Y-125441519D01*
X182011519Y-125322985D01*
X182150900Y-125229853D01*
X182305772Y-125165703D01*
X182470184Y-125133000D01*
X182637816Y-125133000D01*
X182802228Y-125165703D01*
X182802228Y-125165703D01*
G37*
G36*
X180032228Y-125165703D02*
X180187100Y-125229853D01*
X180326481Y-125322985D01*
X180445015Y-125441519D01*
X180538147Y-125580900D01*
X180602297Y-125735772D01*
X180635000Y-125900184D01*
X180635000Y-126067816D01*
X180602297Y-126232228D01*
X180538147Y-126387100D01*
X180445015Y-126526481D01*
X180326481Y-126645015D01*
X180187100Y-126738147D01*
X180032228Y-126802297D01*
X179867816Y-126835000D01*
X179700184Y-126835000D01*
X179535772Y-126802297D01*
X179380900Y-126738147D01*
X179241519Y-126645015D01*
X179122985Y-126526481D01*
X179029853Y-126387100D01*
X178965703Y-126232228D01*
X178933000Y-126067816D01*
X178933000Y-125900184D01*
X178965703Y-125735772D01*
X179029853Y-125580900D01*
X179122985Y-125441519D01*
X179241519Y-125322985D01*
X179380900Y-125229853D01*
X179535772Y-125165703D01*
X179700184Y-125133000D01*
X179867816Y-125133000D01*
X180032228Y-125165703D01*
X180032228Y-125165703D01*
G37*
G36*
X177262228Y-125165703D02*
X177417100Y-125229853D01*
X177556481Y-125322985D01*
X177675015Y-125441519D01*
X177768147Y-125580900D01*
X177832297Y-125735772D01*
X177865000Y-125900184D01*
X177865000Y-126067816D01*
X177832297Y-126232228D01*
X177768147Y-126387100D01*
X177675015Y-126526481D01*
X177556481Y-126645015D01*
X177417100Y-126738147D01*
X177262228Y-126802297D01*
X177097816Y-126835000D01*
X176930184Y-126835000D01*
X176765772Y-126802297D01*
X176610900Y-126738147D01*
X176471519Y-126645015D01*
X176352985Y-126526481D01*
X176259853Y-126387100D01*
X176195703Y-126232228D01*
X176163000Y-126067816D01*
X176163000Y-125900184D01*
X176195703Y-125735772D01*
X176259853Y-125580900D01*
X176352985Y-125441519D01*
X176471519Y-125322985D01*
X176610900Y-125229853D01*
X176765772Y-125165703D01*
X176930184Y-125133000D01*
X177097816Y-125133000D01*
X177262228Y-125165703D01*
X177262228Y-125165703D01*
G37*
G36*
X145440228Y-125165703D02*
X145595100Y-125229853D01*
X145734481Y-125322985D01*
X145853015Y-125441519D01*
X145946147Y-125580900D01*
X146010297Y-125735772D01*
X146043000Y-125900184D01*
X146043000Y-126067816D01*
X146010297Y-126232228D01*
X145946147Y-126387100D01*
X145853015Y-126526481D01*
X145734481Y-126645015D01*
X145595100Y-126738147D01*
X145440228Y-126802297D01*
X145275816Y-126835000D01*
X145108184Y-126835000D01*
X144943772Y-126802297D01*
X144788900Y-126738147D01*
X144649519Y-126645015D01*
X144530985Y-126526481D01*
X144437853Y-126387100D01*
X144373703Y-126232228D01*
X144341000Y-126067816D01*
X144341000Y-125900184D01*
X144373703Y-125735772D01*
X144437853Y-125580900D01*
X144530985Y-125441519D01*
X144649519Y-125322985D01*
X144788900Y-125229853D01*
X144943772Y-125165703D01*
X145108184Y-125133000D01*
X145275816Y-125133000D01*
X145440228Y-125165703D01*
X145440228Y-125165703D01*
G37*
G36*
X142670228Y-125165703D02*
X142825100Y-125229853D01*
X142964481Y-125322985D01*
X143083015Y-125441519D01*
X143176147Y-125580900D01*
X143240297Y-125735772D01*
X143273000Y-125900184D01*
X143273000Y-126067816D01*
X143240297Y-126232228D01*
X143176147Y-126387100D01*
X143083015Y-126526481D01*
X142964481Y-126645015D01*
X142825100Y-126738147D01*
X142670228Y-126802297D01*
X142505816Y-126835000D01*
X142338184Y-126835000D01*
X142173772Y-126802297D01*
X142018900Y-126738147D01*
X141879519Y-126645015D01*
X141760985Y-126526481D01*
X141667853Y-126387100D01*
X141603703Y-126232228D01*
X141571000Y-126067816D01*
X141571000Y-125900184D01*
X141603703Y-125735772D01*
X141667853Y-125580900D01*
X141760985Y-125441519D01*
X141879519Y-125322985D01*
X142018900Y-125229853D01*
X142173772Y-125165703D01*
X142338184Y-125133000D01*
X142505816Y-125133000D01*
X142670228Y-125165703D01*
X142670228Y-125165703D01*
G37*
G36*
X139900228Y-125165703D02*
X140055100Y-125229853D01*
X140194481Y-125322985D01*
X140313015Y-125441519D01*
X140406147Y-125580900D01*
X140470297Y-125735772D01*
X140503000Y-125900184D01*
X140503000Y-126067816D01*
X140470297Y-126232228D01*
X140406147Y-126387100D01*
X140313015Y-126526481D01*
X140194481Y-126645015D01*
X140055100Y-126738147D01*
X139900228Y-126802297D01*
X139735816Y-126835000D01*
X139568184Y-126835000D01*
X139403772Y-126802297D01*
X139248900Y-126738147D01*
X139109519Y-126645015D01*
X138990985Y-126526481D01*
X138897853Y-126387100D01*
X138833703Y-126232228D01*
X138801000Y-126067816D01*
X138801000Y-125900184D01*
X138833703Y-125735772D01*
X138897853Y-125580900D01*
X138990985Y-125441519D01*
X139109519Y-125322985D01*
X139248900Y-125229853D01*
X139403772Y-125165703D01*
X139568184Y-125133000D01*
X139735816Y-125133000D01*
X139900228Y-125165703D01*
X139900228Y-125165703D01*
G37*
G36*
X134963000Y-126835000D02*
X133261000Y-126835000D01*
X133261000Y-125133000D01*
X134963000Y-125133000D01*
X134963000Y-126835000D01*
X134963000Y-126835000D01*
G37*
G36*
X137130228Y-125165703D02*
X137285100Y-125229853D01*
X137424481Y-125322985D01*
X137543015Y-125441519D01*
X137636147Y-125580900D01*
X137700297Y-125735772D01*
X137733000Y-125900184D01*
X137733000Y-126067816D01*
X137700297Y-126232228D01*
X137636147Y-126387100D01*
X137543015Y-126526481D01*
X137424481Y-126645015D01*
X137285100Y-126738147D01*
X137130228Y-126802297D01*
X136965816Y-126835000D01*
X136798184Y-126835000D01*
X136633772Y-126802297D01*
X136478900Y-126738147D01*
X136339519Y-126645015D01*
X136220985Y-126526481D01*
X136127853Y-126387100D01*
X136063703Y-126232228D01*
X136031000Y-126067816D01*
X136031000Y-125900184D01*
X136063703Y-125735772D01*
X136127853Y-125580900D01*
X136220985Y-125441519D01*
X136339519Y-125322985D01*
X136478900Y-125229853D01*
X136633772Y-125165703D01*
X136798184Y-125133000D01*
X136965816Y-125133000D01*
X137130228Y-125165703D01*
X137130228Y-125165703D01*
G37*
G36*
X185572228Y-125165703D02*
X185727100Y-125229853D01*
X185866481Y-125322985D01*
X185985015Y-125441519D01*
X186078147Y-125580900D01*
X186142297Y-125735772D01*
X186175000Y-125900184D01*
X186175000Y-126067816D01*
X186142297Y-126232228D01*
X186078147Y-126387100D01*
X185985015Y-126526481D01*
X185866481Y-126645015D01*
X185727100Y-126738147D01*
X185572228Y-126802297D01*
X185407816Y-126835000D01*
X185240184Y-126835000D01*
X185075772Y-126802297D01*
X184920900Y-126738147D01*
X184781519Y-126645015D01*
X184662985Y-126526481D01*
X184569853Y-126387100D01*
X184505703Y-126232228D01*
X184473000Y-126067816D01*
X184473000Y-125900184D01*
X184505703Y-125735772D01*
X184569853Y-125580900D01*
X184662985Y-125441519D01*
X184781519Y-125322985D01*
X184920900Y-125229853D01*
X185075772Y-125165703D01*
X185240184Y-125133000D01*
X185407816Y-125133000D01*
X185572228Y-125165703D01*
X185572228Y-125165703D01*
G37*
G36*
X175095000Y-126835000D02*
X173393000Y-126835000D01*
X173393000Y-125133000D01*
X175095000Y-125133000D01*
X175095000Y-126835000D01*
X175095000Y-126835000D01*
G37*
G36*
X112603734Y-119725232D02*
X112813202Y-119811996D01*
X113001723Y-119937962D01*
X113162038Y-120098277D01*
X113288004Y-120286798D01*
X113374768Y-120496266D01*
X113419000Y-120718635D01*
X113419000Y-120945365D01*
X113374768Y-121167734D01*
X113288004Y-121377202D01*
X113162038Y-121565723D01*
X113001723Y-121726038D01*
X112813202Y-121852004D01*
X112603734Y-121938768D01*
X112381365Y-121983000D01*
X112154635Y-121983000D01*
X111932266Y-121938768D01*
X111722798Y-121852004D01*
X111534277Y-121726038D01*
X111373962Y-121565723D01*
X111247996Y-121377202D01*
X111161232Y-121167734D01*
X111117000Y-120945365D01*
X111117000Y-120718635D01*
X111161232Y-120496266D01*
X111247996Y-120286798D01*
X111373962Y-120098277D01*
X111534277Y-119937962D01*
X111722798Y-119811996D01*
X111932266Y-119725232D01*
X112154635Y-119681000D01*
X112381365Y-119681000D01*
X112603734Y-119725232D01*
X112603734Y-119725232D01*
G37*
G36*
X119103734Y-119725232D02*
X119313202Y-119811996D01*
X119501723Y-119937962D01*
X119662038Y-120098277D01*
X119788004Y-120286798D01*
X119874768Y-120496266D01*
X119919000Y-120718635D01*
X119919000Y-120945365D01*
X119874768Y-121167734D01*
X119788004Y-121377202D01*
X119662038Y-121565723D01*
X119501723Y-121726038D01*
X119313202Y-121852004D01*
X119103734Y-121938768D01*
X118881365Y-121983000D01*
X118654635Y-121983000D01*
X118432266Y-121938768D01*
X118222798Y-121852004D01*
X118034277Y-121726038D01*
X117873962Y-121565723D01*
X117747996Y-121377202D01*
X117661232Y-121167734D01*
X117617000Y-120945365D01*
X117617000Y-120718635D01*
X117661232Y-120496266D01*
X117747996Y-120286798D01*
X117873962Y-120098277D01*
X118034277Y-119937962D01*
X118222798Y-119811996D01*
X118432266Y-119725232D01*
X118654635Y-119681000D01*
X118881365Y-119681000D01*
X119103734Y-119725232D01*
X119103734Y-119725232D01*
G37*
G36*
X119103734Y-115225232D02*
X119313202Y-115311996D01*
X119501723Y-115437962D01*
X119662038Y-115598277D01*
X119788004Y-115786798D01*
X119874768Y-115996266D01*
X119919000Y-116218635D01*
X119919000Y-116445365D01*
X119874768Y-116667734D01*
X119788004Y-116877202D01*
X119662038Y-117065723D01*
X119501723Y-117226038D01*
X119313202Y-117352004D01*
X119103734Y-117438768D01*
X118881365Y-117483000D01*
X118654635Y-117483000D01*
X118432266Y-117438768D01*
X118222798Y-117352004D01*
X118034277Y-117226038D01*
X117873962Y-117065723D01*
X117747996Y-116877202D01*
X117661232Y-116667734D01*
X117617000Y-116445365D01*
X117617000Y-116218635D01*
X117661232Y-115996266D01*
X117747996Y-115786798D01*
X117873962Y-115598277D01*
X118034277Y-115437962D01*
X118222798Y-115311996D01*
X118432266Y-115225232D01*
X118654635Y-115181000D01*
X118881365Y-115181000D01*
X119103734Y-115225232D01*
X119103734Y-115225232D01*
G37*
G36*
X113419000Y-117483000D02*
X111117000Y-117483000D01*
X111117000Y-115181000D01*
X113419000Y-115181000D01*
X113419000Y-117483000D01*
X113419000Y-117483000D01*
G37*
G36*
X196829643Y-111497781D02*
X196975415Y-111558162D01*
X197106611Y-111645824D01*
X197218176Y-111757389D01*
X197305838Y-111888585D01*
X197366219Y-112034357D01*
X197397000Y-112189107D01*
X197397000Y-112346893D01*
X197366219Y-112501643D01*
X197305838Y-112647415D01*
X197218176Y-112778611D01*
X197106611Y-112890176D01*
X196975415Y-112977838D01*
X196829643Y-113038219D01*
X196674893Y-113069000D01*
X196517107Y-113069000D01*
X196362357Y-113038219D01*
X196216585Y-112977838D01*
X196085389Y-112890176D01*
X195973824Y-112778611D01*
X195886162Y-112647415D01*
X195825781Y-112501643D01*
X195795000Y-112346893D01*
X195795000Y-112189107D01*
X195825781Y-112034357D01*
X195886162Y-111888585D01*
X195973824Y-111757389D01*
X196085389Y-111645824D01*
X196216585Y-111558162D01*
X196362357Y-111497781D01*
X196517107Y-111467000D01*
X196674893Y-111467000D01*
X196829643Y-111497781D01*
X196829643Y-111497781D01*
G37*
G36*
X201709643Y-111497781D02*
X201855415Y-111558162D01*
X201986611Y-111645824D01*
X202098176Y-111757389D01*
X202185838Y-111888585D01*
X202246219Y-112034357D01*
X202277000Y-112189107D01*
X202277000Y-112346893D01*
X202246219Y-112501643D01*
X202185838Y-112647415D01*
X202098176Y-112778611D01*
X201986611Y-112890176D01*
X201855415Y-112977838D01*
X201709643Y-113038219D01*
X201554893Y-113069000D01*
X201397107Y-113069000D01*
X201242357Y-113038219D01*
X201096585Y-112977838D01*
X200965389Y-112890176D01*
X200853824Y-112778611D01*
X200766162Y-112647415D01*
X200705781Y-112501643D01*
X200675000Y-112346893D01*
X200675000Y-112189107D01*
X200705781Y-112034357D01*
X200766162Y-111888585D01*
X200853824Y-111757389D01*
X200965389Y-111645824D01*
X201096585Y-111558162D01*
X201242357Y-111497781D01*
X201397107Y-111467000D01*
X201554893Y-111467000D01*
X201709643Y-111497781D01*
X201709643Y-111497781D01*
G37*
G36*
X150534821Y-109905313D02*
X150534824Y-109905314D01*
X150534825Y-109905314D01*
X150695239Y-109953975D01*
X150695241Y-109953976D01*
X150695244Y-109953977D01*
X150843078Y-110032995D01*
X150972659Y-110139341D01*
X151079005Y-110268922D01*
X151158023Y-110416756D01*
X151158024Y-110416759D01*
X151158025Y-110416761D01*
X151206686Y-110577175D01*
X151206687Y-110577179D01*
X151223117Y-110744000D01*
X151206687Y-110910821D01*
X151158023Y-111071244D01*
X151079005Y-111219078D01*
X150972659Y-111348659D01*
X150843078Y-111455005D01*
X150695244Y-111534023D01*
X150695241Y-111534024D01*
X150695239Y-111534025D01*
X150534825Y-111582686D01*
X150534824Y-111582686D01*
X150534821Y-111582687D01*
X150409804Y-111595000D01*
X150326196Y-111595000D01*
X150201179Y-111582687D01*
X150201176Y-111582686D01*
X150201175Y-111582686D01*
X150040761Y-111534025D01*
X150040759Y-111534024D01*
X150040756Y-111534023D01*
X149892922Y-111455005D01*
X149763341Y-111348659D01*
X149656995Y-111219078D01*
X149577977Y-111071244D01*
X149529313Y-110910821D01*
X149512883Y-110744000D01*
X149529313Y-110577179D01*
X149529314Y-110577175D01*
X149577975Y-110416761D01*
X149577976Y-110416759D01*
X149577977Y-110416756D01*
X149656995Y-110268922D01*
X149763341Y-110139341D01*
X149892922Y-110032995D01*
X150040756Y-109953977D01*
X150040759Y-109953976D01*
X150040761Y-109953975D01*
X150201175Y-109905314D01*
X150201176Y-109905314D01*
X150201179Y-109905313D01*
X150326196Y-109893000D01*
X150409804Y-109893000D01*
X150534821Y-109905313D01*
X150534821Y-109905313D01*
G37*
G36*
X147994821Y-109905313D02*
X147994824Y-109905314D01*
X147994825Y-109905314D01*
X148155239Y-109953975D01*
X148155241Y-109953976D01*
X148155244Y-109953977D01*
X148303078Y-110032995D01*
X148432659Y-110139341D01*
X148539005Y-110268922D01*
X148618023Y-110416756D01*
X148618024Y-110416759D01*
X148618025Y-110416761D01*
X148666686Y-110577175D01*
X148666687Y-110577179D01*
X148683117Y-110744000D01*
X148666687Y-110910821D01*
X148618023Y-111071244D01*
X148539005Y-111219078D01*
X148432659Y-111348659D01*
X148303078Y-111455005D01*
X148155244Y-111534023D01*
X148155241Y-111534024D01*
X148155239Y-111534025D01*
X147994825Y-111582686D01*
X147994824Y-111582686D01*
X147994821Y-111582687D01*
X147869804Y-111595000D01*
X147786196Y-111595000D01*
X147661179Y-111582687D01*
X147661176Y-111582686D01*
X147661175Y-111582686D01*
X147500761Y-111534025D01*
X147500759Y-111534024D01*
X147500756Y-111534023D01*
X147352922Y-111455005D01*
X147223341Y-111348659D01*
X147116995Y-111219078D01*
X147037977Y-111071244D01*
X146989313Y-110910821D01*
X146972883Y-110744000D01*
X146989313Y-110577179D01*
X146989314Y-110577175D01*
X147037975Y-110416761D01*
X147037976Y-110416759D01*
X147037977Y-110416756D01*
X147116995Y-110268922D01*
X147223341Y-110139341D01*
X147352922Y-110032995D01*
X147500756Y-109953977D01*
X147500759Y-109953976D01*
X147500761Y-109953975D01*
X147661175Y-109905314D01*
X147661176Y-109905314D01*
X147661179Y-109905313D01*
X147786196Y-109893000D01*
X147869804Y-109893000D01*
X147994821Y-109905313D01*
X147994821Y-109905313D01*
G37*
G36*
X145454821Y-109905313D02*
X145454824Y-109905314D01*
X145454825Y-109905314D01*
X145615239Y-109953975D01*
X145615241Y-109953976D01*
X145615244Y-109953977D01*
X145763078Y-110032995D01*
X145892659Y-110139341D01*
X145999005Y-110268922D01*
X146078023Y-110416756D01*
X146078024Y-110416759D01*
X146078025Y-110416761D01*
X146126686Y-110577175D01*
X146126687Y-110577179D01*
X146143117Y-110744000D01*
X146126687Y-110910821D01*
X146078023Y-111071244D01*
X145999005Y-111219078D01*
X145892659Y-111348659D01*
X145763078Y-111455005D01*
X145615244Y-111534023D01*
X145615241Y-111534024D01*
X145615239Y-111534025D01*
X145454825Y-111582686D01*
X145454824Y-111582686D01*
X145454821Y-111582687D01*
X145329804Y-111595000D01*
X145246196Y-111595000D01*
X145121179Y-111582687D01*
X145121176Y-111582686D01*
X145121175Y-111582686D01*
X144960761Y-111534025D01*
X144960759Y-111534024D01*
X144960756Y-111534023D01*
X144812922Y-111455005D01*
X144683341Y-111348659D01*
X144576995Y-111219078D01*
X144497977Y-111071244D01*
X144449313Y-110910821D01*
X144432883Y-110744000D01*
X144449313Y-110577179D01*
X144449314Y-110577175D01*
X144497975Y-110416761D01*
X144497976Y-110416759D01*
X144497977Y-110416756D01*
X144576995Y-110268922D01*
X144683341Y-110139341D01*
X144812922Y-110032995D01*
X144960756Y-109953977D01*
X144960759Y-109953976D01*
X144960761Y-109953975D01*
X145121175Y-109905314D01*
X145121176Y-109905314D01*
X145121179Y-109905313D01*
X145246196Y-109893000D01*
X145329804Y-109893000D01*
X145454821Y-109905313D01*
X145454821Y-109905313D01*
G37*
G36*
X140374821Y-109905313D02*
X140374824Y-109905314D01*
X140374825Y-109905314D01*
X140535239Y-109953975D01*
X140535241Y-109953976D01*
X140535244Y-109953977D01*
X140683078Y-110032995D01*
X140812659Y-110139341D01*
X140919005Y-110268922D01*
X140998023Y-110416756D01*
X140998024Y-110416759D01*
X140998025Y-110416761D01*
X141046686Y-110577175D01*
X141046687Y-110577179D01*
X141063117Y-110744000D01*
X141046687Y-110910821D01*
X140998023Y-111071244D01*
X140919005Y-111219078D01*
X140812659Y-111348659D01*
X140683078Y-111455005D01*
X140535244Y-111534023D01*
X140535241Y-111534024D01*
X140535239Y-111534025D01*
X140374825Y-111582686D01*
X140374824Y-111582686D01*
X140374821Y-111582687D01*
X140249804Y-111595000D01*
X140166196Y-111595000D01*
X140041179Y-111582687D01*
X140041176Y-111582686D01*
X140041175Y-111582686D01*
X139880761Y-111534025D01*
X139880759Y-111534024D01*
X139880756Y-111534023D01*
X139732922Y-111455005D01*
X139603341Y-111348659D01*
X139496995Y-111219078D01*
X139417977Y-111071244D01*
X139369313Y-110910821D01*
X139352883Y-110744000D01*
X139369313Y-110577179D01*
X139369314Y-110577175D01*
X139417975Y-110416761D01*
X139417976Y-110416759D01*
X139417977Y-110416756D01*
X139496995Y-110268922D01*
X139603341Y-110139341D01*
X139732922Y-110032995D01*
X139880756Y-109953977D01*
X139880759Y-109953976D01*
X139880761Y-109953975D01*
X140041175Y-109905314D01*
X140041176Y-109905314D01*
X140041179Y-109905313D01*
X140166196Y-109893000D01*
X140249804Y-109893000D01*
X140374821Y-109905313D01*
X140374821Y-109905313D01*
G37*
G36*
X137834821Y-109905313D02*
X137834824Y-109905314D01*
X137834825Y-109905314D01*
X137995239Y-109953975D01*
X137995241Y-109953976D01*
X137995244Y-109953977D01*
X138143078Y-110032995D01*
X138272659Y-110139341D01*
X138379005Y-110268922D01*
X138458023Y-110416756D01*
X138458024Y-110416759D01*
X138458025Y-110416761D01*
X138506686Y-110577175D01*
X138506687Y-110577179D01*
X138523117Y-110744000D01*
X138506687Y-110910821D01*
X138458023Y-111071244D01*
X138379005Y-111219078D01*
X138272659Y-111348659D01*
X138143078Y-111455005D01*
X137995244Y-111534023D01*
X137995241Y-111534024D01*
X137995239Y-111534025D01*
X137834825Y-111582686D01*
X137834824Y-111582686D01*
X137834821Y-111582687D01*
X137709804Y-111595000D01*
X137626196Y-111595000D01*
X137501179Y-111582687D01*
X137501176Y-111582686D01*
X137501175Y-111582686D01*
X137340761Y-111534025D01*
X137340759Y-111534024D01*
X137340756Y-111534023D01*
X137192922Y-111455005D01*
X137063341Y-111348659D01*
X136956995Y-111219078D01*
X136877977Y-111071244D01*
X136829313Y-110910821D01*
X136812883Y-110744000D01*
X136829313Y-110577179D01*
X136829314Y-110577175D01*
X136877975Y-110416761D01*
X136877976Y-110416759D01*
X136877977Y-110416756D01*
X136956995Y-110268922D01*
X137063341Y-110139341D01*
X137192922Y-110032995D01*
X137340756Y-109953977D01*
X137340759Y-109953976D01*
X137340761Y-109953975D01*
X137501175Y-109905314D01*
X137501176Y-109905314D01*
X137501179Y-109905313D01*
X137626196Y-109893000D01*
X137709804Y-109893000D01*
X137834821Y-109905313D01*
X137834821Y-109905313D01*
G37*
G36*
X142914821Y-109905313D02*
X142914824Y-109905314D01*
X142914825Y-109905314D01*
X143075239Y-109953975D01*
X143075241Y-109953976D01*
X143075244Y-109953977D01*
X143223078Y-110032995D01*
X143352659Y-110139341D01*
X143459005Y-110268922D01*
X143538023Y-110416756D01*
X143538024Y-110416759D01*
X143538025Y-110416761D01*
X143586686Y-110577175D01*
X143586687Y-110577179D01*
X143603117Y-110744000D01*
X143586687Y-110910821D01*
X143538023Y-111071244D01*
X143459005Y-111219078D01*
X143352659Y-111348659D01*
X143223078Y-111455005D01*
X143075244Y-111534023D01*
X143075241Y-111534024D01*
X143075239Y-111534025D01*
X142914825Y-111582686D01*
X142914824Y-111582686D01*
X142914821Y-111582687D01*
X142789804Y-111595000D01*
X142706196Y-111595000D01*
X142581179Y-111582687D01*
X142581176Y-111582686D01*
X142581175Y-111582686D01*
X142420761Y-111534025D01*
X142420759Y-111534024D01*
X142420756Y-111534023D01*
X142272922Y-111455005D01*
X142143341Y-111348659D01*
X142036995Y-111219078D01*
X141957977Y-111071244D01*
X141909313Y-110910821D01*
X141892883Y-110744000D01*
X141909313Y-110577179D01*
X141909314Y-110577175D01*
X141957975Y-110416761D01*
X141957976Y-110416759D01*
X141957977Y-110416756D01*
X142036995Y-110268922D01*
X142143341Y-110139341D01*
X142272922Y-110032995D01*
X142420756Y-109953977D01*
X142420759Y-109953976D01*
X142420761Y-109953975D01*
X142581175Y-109905314D01*
X142581176Y-109905314D01*
X142581179Y-109905313D01*
X142706196Y-109893000D01*
X142789804Y-109893000D01*
X142914821Y-109905313D01*
X142914821Y-109905313D01*
G37*
G36*
X153074821Y-109905313D02*
X153074824Y-109905314D01*
X153074825Y-109905314D01*
X153235239Y-109953975D01*
X153235241Y-109953976D01*
X153235244Y-109953977D01*
X153383078Y-110032995D01*
X153512659Y-110139341D01*
X153619005Y-110268922D01*
X153698023Y-110416756D01*
X153698024Y-110416759D01*
X153698025Y-110416761D01*
X153746686Y-110577175D01*
X153746687Y-110577179D01*
X153763117Y-110744000D01*
X153746687Y-110910821D01*
X153698023Y-111071244D01*
X153619005Y-111219078D01*
X153512659Y-111348659D01*
X153383078Y-111455005D01*
X153235244Y-111534023D01*
X153235241Y-111534024D01*
X153235239Y-111534025D01*
X153074825Y-111582686D01*
X153074824Y-111582686D01*
X153074821Y-111582687D01*
X152949804Y-111595000D01*
X152866196Y-111595000D01*
X152741179Y-111582687D01*
X152741176Y-111582686D01*
X152741175Y-111582686D01*
X152580761Y-111534025D01*
X152580759Y-111534024D01*
X152580756Y-111534023D01*
X152432922Y-111455005D01*
X152303341Y-111348659D01*
X152196995Y-111219078D01*
X152117977Y-111071244D01*
X152069313Y-110910821D01*
X152052883Y-110744000D01*
X152069313Y-110577179D01*
X152069314Y-110577175D01*
X152117975Y-110416761D01*
X152117976Y-110416759D01*
X152117977Y-110416756D01*
X152196995Y-110268922D01*
X152303341Y-110139341D01*
X152432922Y-110032995D01*
X152580756Y-109953977D01*
X152580759Y-109953976D01*
X152580761Y-109953975D01*
X152741175Y-109905314D01*
X152741176Y-109905314D01*
X152741179Y-109905313D01*
X152866196Y-109893000D01*
X152949804Y-109893000D01*
X153074821Y-109905313D01*
X153074821Y-109905313D01*
G37*
G36*
X165774821Y-109905313D02*
X165774824Y-109905314D01*
X165774825Y-109905314D01*
X165935239Y-109953975D01*
X165935241Y-109953976D01*
X165935244Y-109953977D01*
X166083078Y-110032995D01*
X166212659Y-110139341D01*
X166319005Y-110268922D01*
X166398023Y-110416756D01*
X166398024Y-110416759D01*
X166398025Y-110416761D01*
X166446686Y-110577175D01*
X166446687Y-110577179D01*
X166463117Y-110744000D01*
X166446687Y-110910821D01*
X166398023Y-111071244D01*
X166319005Y-111219078D01*
X166212659Y-111348659D01*
X166083078Y-111455005D01*
X165935244Y-111534023D01*
X165935241Y-111534024D01*
X165935239Y-111534025D01*
X165774825Y-111582686D01*
X165774824Y-111582686D01*
X165774821Y-111582687D01*
X165649804Y-111595000D01*
X165566196Y-111595000D01*
X165441179Y-111582687D01*
X165441176Y-111582686D01*
X165441175Y-111582686D01*
X165280761Y-111534025D01*
X165280759Y-111534024D01*
X165280756Y-111534023D01*
X165132922Y-111455005D01*
X165003341Y-111348659D01*
X164896995Y-111219078D01*
X164817977Y-111071244D01*
X164769313Y-110910821D01*
X164752883Y-110744000D01*
X164769313Y-110577179D01*
X164769314Y-110577175D01*
X164817975Y-110416761D01*
X164817976Y-110416759D01*
X164817977Y-110416756D01*
X164896995Y-110268922D01*
X165003341Y-110139341D01*
X165132922Y-110032995D01*
X165280756Y-109953977D01*
X165280759Y-109953976D01*
X165280761Y-109953975D01*
X165441175Y-109905314D01*
X165441176Y-109905314D01*
X165441179Y-109905313D01*
X165566196Y-109893000D01*
X165649804Y-109893000D01*
X165774821Y-109905313D01*
X165774821Y-109905313D01*
G37*
G36*
X163234821Y-109905313D02*
X163234824Y-109905314D01*
X163234825Y-109905314D01*
X163395239Y-109953975D01*
X163395241Y-109953976D01*
X163395244Y-109953977D01*
X163543078Y-110032995D01*
X163672659Y-110139341D01*
X163779005Y-110268922D01*
X163858023Y-110416756D01*
X163858024Y-110416759D01*
X163858025Y-110416761D01*
X163906686Y-110577175D01*
X163906687Y-110577179D01*
X163923117Y-110744000D01*
X163906687Y-110910821D01*
X163858023Y-111071244D01*
X163779005Y-111219078D01*
X163672659Y-111348659D01*
X163543078Y-111455005D01*
X163395244Y-111534023D01*
X163395241Y-111534024D01*
X163395239Y-111534025D01*
X163234825Y-111582686D01*
X163234824Y-111582686D01*
X163234821Y-111582687D01*
X163109804Y-111595000D01*
X163026196Y-111595000D01*
X162901179Y-111582687D01*
X162901176Y-111582686D01*
X162901175Y-111582686D01*
X162740761Y-111534025D01*
X162740759Y-111534024D01*
X162740756Y-111534023D01*
X162592922Y-111455005D01*
X162463341Y-111348659D01*
X162356995Y-111219078D01*
X162277977Y-111071244D01*
X162229313Y-110910821D01*
X162212883Y-110744000D01*
X162229313Y-110577179D01*
X162229314Y-110577175D01*
X162277975Y-110416761D01*
X162277976Y-110416759D01*
X162277977Y-110416756D01*
X162356995Y-110268922D01*
X162463341Y-110139341D01*
X162592922Y-110032995D01*
X162740756Y-109953977D01*
X162740759Y-109953976D01*
X162740761Y-109953975D01*
X162901175Y-109905314D01*
X162901176Y-109905314D01*
X162901179Y-109905313D01*
X163026196Y-109893000D01*
X163109804Y-109893000D01*
X163234821Y-109905313D01*
X163234821Y-109905313D01*
G37*
G36*
X160694821Y-109905313D02*
X160694824Y-109905314D01*
X160694825Y-109905314D01*
X160855239Y-109953975D01*
X160855241Y-109953976D01*
X160855244Y-109953977D01*
X161003078Y-110032995D01*
X161132659Y-110139341D01*
X161239005Y-110268922D01*
X161318023Y-110416756D01*
X161318024Y-110416759D01*
X161318025Y-110416761D01*
X161366686Y-110577175D01*
X161366687Y-110577179D01*
X161383117Y-110744000D01*
X161366687Y-110910821D01*
X161318023Y-111071244D01*
X161239005Y-111219078D01*
X161132659Y-111348659D01*
X161003078Y-111455005D01*
X160855244Y-111534023D01*
X160855241Y-111534024D01*
X160855239Y-111534025D01*
X160694825Y-111582686D01*
X160694824Y-111582686D01*
X160694821Y-111582687D01*
X160569804Y-111595000D01*
X160486196Y-111595000D01*
X160361179Y-111582687D01*
X160361176Y-111582686D01*
X160361175Y-111582686D01*
X160200761Y-111534025D01*
X160200759Y-111534024D01*
X160200756Y-111534023D01*
X160052922Y-111455005D01*
X159923341Y-111348659D01*
X159816995Y-111219078D01*
X159737977Y-111071244D01*
X159689313Y-110910821D01*
X159672883Y-110744000D01*
X159689313Y-110577179D01*
X159689314Y-110577175D01*
X159737975Y-110416761D01*
X159737976Y-110416759D01*
X159737977Y-110416756D01*
X159816995Y-110268922D01*
X159923341Y-110139341D01*
X160052922Y-110032995D01*
X160200756Y-109953977D01*
X160200759Y-109953976D01*
X160200761Y-109953975D01*
X160361175Y-109905314D01*
X160361176Y-109905314D01*
X160361179Y-109905313D01*
X160486196Y-109893000D01*
X160569804Y-109893000D01*
X160694821Y-109905313D01*
X160694821Y-109905313D01*
G37*
G36*
X158154821Y-109905313D02*
X158154824Y-109905314D01*
X158154825Y-109905314D01*
X158315239Y-109953975D01*
X158315241Y-109953976D01*
X158315244Y-109953977D01*
X158463078Y-110032995D01*
X158592659Y-110139341D01*
X158699005Y-110268922D01*
X158778023Y-110416756D01*
X158778024Y-110416759D01*
X158778025Y-110416761D01*
X158826686Y-110577175D01*
X158826687Y-110577179D01*
X158843117Y-110744000D01*
X158826687Y-110910821D01*
X158778023Y-111071244D01*
X158699005Y-111219078D01*
X158592659Y-111348659D01*
X158463078Y-111455005D01*
X158315244Y-111534023D01*
X158315241Y-111534024D01*
X158315239Y-111534025D01*
X158154825Y-111582686D01*
X158154824Y-111582686D01*
X158154821Y-111582687D01*
X158029804Y-111595000D01*
X157946196Y-111595000D01*
X157821179Y-111582687D01*
X157821176Y-111582686D01*
X157821175Y-111582686D01*
X157660761Y-111534025D01*
X157660759Y-111534024D01*
X157660756Y-111534023D01*
X157512922Y-111455005D01*
X157383341Y-111348659D01*
X157276995Y-111219078D01*
X157197977Y-111071244D01*
X157149313Y-110910821D01*
X157132883Y-110744000D01*
X157149313Y-110577179D01*
X157149314Y-110577175D01*
X157197975Y-110416761D01*
X157197976Y-110416759D01*
X157197977Y-110416756D01*
X157276995Y-110268922D01*
X157383341Y-110139341D01*
X157512922Y-110032995D01*
X157660756Y-109953977D01*
X157660759Y-109953976D01*
X157660761Y-109953975D01*
X157821175Y-109905314D01*
X157821176Y-109905314D01*
X157821179Y-109905313D01*
X157946196Y-109893000D01*
X158029804Y-109893000D01*
X158154821Y-109905313D01*
X158154821Y-109905313D01*
G37*
G36*
X155614821Y-109905313D02*
X155614824Y-109905314D01*
X155614825Y-109905314D01*
X155775239Y-109953975D01*
X155775241Y-109953976D01*
X155775244Y-109953977D01*
X155923078Y-110032995D01*
X156052659Y-110139341D01*
X156159005Y-110268922D01*
X156238023Y-110416756D01*
X156238024Y-110416759D01*
X156238025Y-110416761D01*
X156286686Y-110577175D01*
X156286687Y-110577179D01*
X156303117Y-110744000D01*
X156286687Y-110910821D01*
X156238023Y-111071244D01*
X156159005Y-111219078D01*
X156052659Y-111348659D01*
X155923078Y-111455005D01*
X155775244Y-111534023D01*
X155775241Y-111534024D01*
X155775239Y-111534025D01*
X155614825Y-111582686D01*
X155614824Y-111582686D01*
X155614821Y-111582687D01*
X155489804Y-111595000D01*
X155406196Y-111595000D01*
X155281179Y-111582687D01*
X155281176Y-111582686D01*
X155281175Y-111582686D01*
X155120761Y-111534025D01*
X155120759Y-111534024D01*
X155120756Y-111534023D01*
X154972922Y-111455005D01*
X154843341Y-111348659D01*
X154736995Y-111219078D01*
X154657977Y-111071244D01*
X154609313Y-110910821D01*
X154592883Y-110744000D01*
X154609313Y-110577179D01*
X154609314Y-110577175D01*
X154657975Y-110416761D01*
X154657976Y-110416759D01*
X154657977Y-110416756D01*
X154736995Y-110268922D01*
X154843341Y-110139341D01*
X154972922Y-110032995D01*
X155120756Y-109953977D01*
X155120759Y-109953976D01*
X155120761Y-109953975D01*
X155281175Y-109905314D01*
X155281176Y-109905314D01*
X155281179Y-109905313D01*
X155406196Y-109893000D01*
X155489804Y-109893000D01*
X155614821Y-109905313D01*
X155614821Y-109905313D01*
G37*
G36*
X119103734Y-108549232D02*
X119313202Y-108635996D01*
X119501723Y-108761962D01*
X119662038Y-108922277D01*
X119788004Y-109110798D01*
X119874768Y-109320266D01*
X119919000Y-109542635D01*
X119919000Y-109769365D01*
X119874768Y-109991734D01*
X119788004Y-110201202D01*
X119662038Y-110389723D01*
X119501723Y-110550038D01*
X119313202Y-110676004D01*
X119103734Y-110762768D01*
X118881365Y-110807000D01*
X118654635Y-110807000D01*
X118432266Y-110762768D01*
X118222798Y-110676004D01*
X118034277Y-110550038D01*
X117873962Y-110389723D01*
X117747996Y-110201202D01*
X117661232Y-109991734D01*
X117617000Y-109769365D01*
X117617000Y-109542635D01*
X117661232Y-109320266D01*
X117747996Y-109110798D01*
X117873962Y-108922277D01*
X118034277Y-108761962D01*
X118222798Y-108635996D01*
X118432266Y-108549232D01*
X118654635Y-108505000D01*
X118881365Y-108505000D01*
X119103734Y-108549232D01*
X119103734Y-108549232D01*
G37*
G36*
X112603734Y-108549232D02*
X112813202Y-108635996D01*
X113001723Y-108761962D01*
X113162038Y-108922277D01*
X113288004Y-109110798D01*
X113374768Y-109320266D01*
X113419000Y-109542635D01*
X113419000Y-109769365D01*
X113374768Y-109991734D01*
X113288004Y-110201202D01*
X113162038Y-110389723D01*
X113001723Y-110550038D01*
X112813202Y-110676004D01*
X112603734Y-110762768D01*
X112381365Y-110807000D01*
X112154635Y-110807000D01*
X111932266Y-110762768D01*
X111722798Y-110676004D01*
X111534277Y-110550038D01*
X111373962Y-110389723D01*
X111247996Y-110201202D01*
X111161232Y-109991734D01*
X111117000Y-109769365D01*
X111117000Y-109542635D01*
X111161232Y-109320266D01*
X111247996Y-109110798D01*
X111373962Y-108922277D01*
X111534277Y-108761962D01*
X111722798Y-108635996D01*
X111932266Y-108549232D01*
X112154635Y-108505000D01*
X112381365Y-108505000D01*
X112603734Y-108549232D01*
X112603734Y-108549232D01*
G37*
G36*
X119103734Y-104049232D02*
X119313202Y-104135996D01*
X119501723Y-104261962D01*
X119662038Y-104422277D01*
X119788004Y-104610798D01*
X119874768Y-104820266D01*
X119919000Y-105042635D01*
X119919000Y-105269365D01*
X119874768Y-105491734D01*
X119788004Y-105701202D01*
X119662038Y-105889723D01*
X119501723Y-106050038D01*
X119313202Y-106176004D01*
X119103734Y-106262768D01*
X118881365Y-106307000D01*
X118654635Y-106307000D01*
X118432266Y-106262768D01*
X118222798Y-106176004D01*
X118034277Y-106050038D01*
X117873962Y-105889723D01*
X117747996Y-105701202D01*
X117661232Y-105491734D01*
X117617000Y-105269365D01*
X117617000Y-105042635D01*
X117661232Y-104820266D01*
X117747996Y-104610798D01*
X117873962Y-104422277D01*
X118034277Y-104261962D01*
X118222798Y-104135996D01*
X118432266Y-104049232D01*
X118654635Y-104005000D01*
X118881365Y-104005000D01*
X119103734Y-104049232D01*
X119103734Y-104049232D01*
G37*
G36*
X113419000Y-106307000D02*
X111117000Y-106307000D01*
X111117000Y-104005000D01*
X113419000Y-104005000D01*
X113419000Y-106307000D01*
X113419000Y-106307000D01*
G37*
G36*
X163652466Y-99463565D02*
X163691137Y-99475296D01*
X163726779Y-99494348D01*
X163758017Y-99519983D01*
X163783652Y-99551221D01*
X163802704Y-99586863D01*
X163814435Y-99625534D01*
X163819000Y-99671888D01*
X163819000Y-100323112D01*
X163814435Y-100369466D01*
X163802704Y-100408137D01*
X163783652Y-100443779D01*
X163758017Y-100475017D01*
X163726779Y-100500652D01*
X163691137Y-100519704D01*
X163652466Y-100531435D01*
X163606112Y-100536000D01*
X162529888Y-100536000D01*
X162483534Y-100531435D01*
X162444863Y-100519704D01*
X162409221Y-100500652D01*
X162377983Y-100475017D01*
X162352348Y-100443779D01*
X162333296Y-100408137D01*
X162321565Y-100369466D01*
X162317000Y-100323112D01*
X162317000Y-99671888D01*
X162321565Y-99625534D01*
X162333296Y-99586863D01*
X162352348Y-99551221D01*
X162377983Y-99519983D01*
X162409221Y-99494348D01*
X162444863Y-99475296D01*
X162483534Y-99463565D01*
X162529888Y-99459000D01*
X163606112Y-99459000D01*
X163652466Y-99463565D01*
X163652466Y-99463565D01*
G37*
G36*
X116075981Y-97081468D02*
X116258150Y-97156925D01*
X116422103Y-97266475D01*
X116561525Y-97405897D01*
X116671075Y-97569850D01*
X116746532Y-97752019D01*
X116785000Y-97945410D01*
X116785000Y-98142590D01*
X116746532Y-98335981D01*
X116671075Y-98518150D01*
X116561525Y-98682103D01*
X116422103Y-98821525D01*
X116258150Y-98931075D01*
X116075981Y-99006532D01*
X115882590Y-99045000D01*
X115685410Y-99045000D01*
X115492019Y-99006532D01*
X115309850Y-98931075D01*
X115145897Y-98821525D01*
X115006475Y-98682103D01*
X114896925Y-98518150D01*
X114821468Y-98335981D01*
X114783000Y-98142590D01*
X114783000Y-97945410D01*
X114821468Y-97752019D01*
X114896925Y-97569850D01*
X115006475Y-97405897D01*
X115145897Y-97266475D01*
X115309850Y-97156925D01*
X115492019Y-97081468D01*
X115685410Y-97043000D01*
X115882590Y-97043000D01*
X116075981Y-97081468D01*
X116075981Y-97081468D01*
G37*
G36*
X118575981Y-97081468D02*
X118758150Y-97156925D01*
X118922103Y-97266475D01*
X119061525Y-97405897D01*
X119171075Y-97569850D01*
X119246532Y-97752019D01*
X119285000Y-97945410D01*
X119285000Y-98142590D01*
X119246532Y-98335981D01*
X119171075Y-98518150D01*
X119061525Y-98682103D01*
X118922103Y-98821525D01*
X118758150Y-98931075D01*
X118575981Y-99006532D01*
X118382590Y-99045000D01*
X118185410Y-99045000D01*
X117992019Y-99006532D01*
X117809850Y-98931075D01*
X117645897Y-98821525D01*
X117506475Y-98682103D01*
X117396925Y-98518150D01*
X117321468Y-98335981D01*
X117283000Y-98142590D01*
X117283000Y-97945410D01*
X117321468Y-97752019D01*
X117396925Y-97569850D01*
X117506475Y-97405897D01*
X117645897Y-97266475D01*
X117809850Y-97156925D01*
X117992019Y-97081468D01*
X118185410Y-97043000D01*
X118382590Y-97043000D01*
X118575981Y-97081468D01*
X118575981Y-97081468D01*
G37*
G36*
X114285000Y-99045000D02*
X112283000Y-99045000D01*
X112283000Y-97043000D01*
X114285000Y-97043000D01*
X114285000Y-99045000D01*
X114285000Y-99045000D01*
G37*
G36*
X163652466Y-97588565D02*
X163691137Y-97600296D01*
X163726779Y-97619348D01*
X163758017Y-97644983D01*
X163783652Y-97676221D01*
X163802704Y-97711863D01*
X163814435Y-97750534D01*
X163819000Y-97796888D01*
X163819000Y-98448112D01*
X163814435Y-98494466D01*
X163802704Y-98533137D01*
X163783652Y-98568779D01*
X163758017Y-98600017D01*
X163726779Y-98625652D01*
X163691137Y-98644704D01*
X163652466Y-98656435D01*
X163606112Y-98661000D01*
X162529888Y-98661000D01*
X162483534Y-98656435D01*
X162444863Y-98644704D01*
X162409221Y-98625652D01*
X162377983Y-98600017D01*
X162352348Y-98568779D01*
X162333296Y-98533137D01*
X162321565Y-98494466D01*
X162317000Y-98448112D01*
X162317000Y-97796888D01*
X162321565Y-97750534D01*
X162333296Y-97711863D01*
X162352348Y-97676221D01*
X162377983Y-97644983D01*
X162409221Y-97619348D01*
X162444863Y-97600296D01*
X162483534Y-97588565D01*
X162529888Y-97584000D01*
X163606112Y-97584000D01*
X163652466Y-97588565D01*
X163652466Y-97588565D01*
G37*
G36*
X137834821Y-94665313D02*
X137834824Y-94665314D01*
X137834825Y-94665314D01*
X137995239Y-94713975D01*
X137995241Y-94713976D01*
X137995244Y-94713977D01*
X138143078Y-94792995D01*
X138272659Y-94899341D01*
X138379005Y-95028922D01*
X138458023Y-95176756D01*
X138506687Y-95337179D01*
X138523117Y-95504000D01*
X138506687Y-95670821D01*
X138458023Y-95831244D01*
X138379005Y-95979078D01*
X138272659Y-96108659D01*
X138143078Y-96215005D01*
X137995244Y-96294023D01*
X137995241Y-96294024D01*
X137995239Y-96294025D01*
X137834825Y-96342686D01*
X137834824Y-96342686D01*
X137834821Y-96342687D01*
X137709804Y-96355000D01*
X137626196Y-96355000D01*
X137501179Y-96342687D01*
X137501176Y-96342686D01*
X137501175Y-96342686D01*
X137340761Y-96294025D01*
X137340759Y-96294024D01*
X137340756Y-96294023D01*
X137192922Y-96215005D01*
X137063341Y-96108659D01*
X136956995Y-95979078D01*
X136877977Y-95831244D01*
X136829313Y-95670821D01*
X136812883Y-95504000D01*
X136829313Y-95337179D01*
X136877977Y-95176756D01*
X136956995Y-95028922D01*
X137063341Y-94899341D01*
X137192922Y-94792995D01*
X137340756Y-94713977D01*
X137340759Y-94713976D01*
X137340761Y-94713975D01*
X137501175Y-94665314D01*
X137501176Y-94665314D01*
X137501179Y-94665313D01*
X137626196Y-94653000D01*
X137709804Y-94653000D01*
X137834821Y-94665313D01*
X137834821Y-94665313D01*
G37*
G36*
X145454821Y-94665313D02*
X145454824Y-94665314D01*
X145454825Y-94665314D01*
X145615239Y-94713975D01*
X145615241Y-94713976D01*
X145615244Y-94713977D01*
X145763078Y-94792995D01*
X145892659Y-94899341D01*
X145999005Y-95028922D01*
X146078023Y-95176756D01*
X146126687Y-95337179D01*
X146143117Y-95504000D01*
X146126687Y-95670821D01*
X146078023Y-95831244D01*
X145999005Y-95979078D01*
X145892659Y-96108659D01*
X145763078Y-96215005D01*
X145615244Y-96294023D01*
X145615241Y-96294024D01*
X145615239Y-96294025D01*
X145454825Y-96342686D01*
X145454824Y-96342686D01*
X145454821Y-96342687D01*
X145329804Y-96355000D01*
X145246196Y-96355000D01*
X145121179Y-96342687D01*
X145121176Y-96342686D01*
X145121175Y-96342686D01*
X144960761Y-96294025D01*
X144960759Y-96294024D01*
X144960756Y-96294023D01*
X144812922Y-96215005D01*
X144683341Y-96108659D01*
X144576995Y-95979078D01*
X144497977Y-95831244D01*
X144449313Y-95670821D01*
X144432883Y-95504000D01*
X144449313Y-95337179D01*
X144497977Y-95176756D01*
X144576995Y-95028922D01*
X144683341Y-94899341D01*
X144812922Y-94792995D01*
X144960756Y-94713977D01*
X144960759Y-94713976D01*
X144960761Y-94713975D01*
X145121175Y-94665314D01*
X145121176Y-94665314D01*
X145121179Y-94665313D01*
X145246196Y-94653000D01*
X145329804Y-94653000D01*
X145454821Y-94665313D01*
X145454821Y-94665313D01*
G37*
G36*
X140374821Y-94665313D02*
X140374824Y-94665314D01*
X140374825Y-94665314D01*
X140535239Y-94713975D01*
X140535241Y-94713976D01*
X140535244Y-94713977D01*
X140683078Y-94792995D01*
X140812659Y-94899341D01*
X140919005Y-95028922D01*
X140998023Y-95176756D01*
X141046687Y-95337179D01*
X141063117Y-95504000D01*
X141046687Y-95670821D01*
X140998023Y-95831244D01*
X140919005Y-95979078D01*
X140812659Y-96108659D01*
X140683078Y-96215005D01*
X140535244Y-96294023D01*
X140535241Y-96294024D01*
X140535239Y-96294025D01*
X140374825Y-96342686D01*
X140374824Y-96342686D01*
X140374821Y-96342687D01*
X140249804Y-96355000D01*
X140166196Y-96355000D01*
X140041179Y-96342687D01*
X140041176Y-96342686D01*
X140041175Y-96342686D01*
X139880761Y-96294025D01*
X139880759Y-96294024D01*
X139880756Y-96294023D01*
X139732922Y-96215005D01*
X139603341Y-96108659D01*
X139496995Y-95979078D01*
X139417977Y-95831244D01*
X139369313Y-95670821D01*
X139352883Y-95504000D01*
X139369313Y-95337179D01*
X139417977Y-95176756D01*
X139496995Y-95028922D01*
X139603341Y-94899341D01*
X139732922Y-94792995D01*
X139880756Y-94713977D01*
X139880759Y-94713976D01*
X139880761Y-94713975D01*
X140041175Y-94665314D01*
X140041176Y-94665314D01*
X140041179Y-94665313D01*
X140166196Y-94653000D01*
X140249804Y-94653000D01*
X140374821Y-94665313D01*
X140374821Y-94665313D01*
G37*
G36*
X147994821Y-94665313D02*
X147994824Y-94665314D01*
X147994825Y-94665314D01*
X148155239Y-94713975D01*
X148155241Y-94713976D01*
X148155244Y-94713977D01*
X148303078Y-94792995D01*
X148432659Y-94899341D01*
X148539005Y-95028922D01*
X148618023Y-95176756D01*
X148666687Y-95337179D01*
X148683117Y-95504000D01*
X148666687Y-95670821D01*
X148618023Y-95831244D01*
X148539005Y-95979078D01*
X148432659Y-96108659D01*
X148303078Y-96215005D01*
X148155244Y-96294023D01*
X148155241Y-96294024D01*
X148155239Y-96294025D01*
X147994825Y-96342686D01*
X147994824Y-96342686D01*
X147994821Y-96342687D01*
X147869804Y-96355000D01*
X147786196Y-96355000D01*
X147661179Y-96342687D01*
X147661176Y-96342686D01*
X147661175Y-96342686D01*
X147500761Y-96294025D01*
X147500759Y-96294024D01*
X147500756Y-96294023D01*
X147352922Y-96215005D01*
X147223341Y-96108659D01*
X147116995Y-95979078D01*
X147037977Y-95831244D01*
X146989313Y-95670821D01*
X146972883Y-95504000D01*
X146989313Y-95337179D01*
X147037977Y-95176756D01*
X147116995Y-95028922D01*
X147223341Y-94899341D01*
X147352922Y-94792995D01*
X147500756Y-94713977D01*
X147500759Y-94713976D01*
X147500761Y-94713975D01*
X147661175Y-94665314D01*
X147661176Y-94665314D01*
X147661179Y-94665313D01*
X147786196Y-94653000D01*
X147869804Y-94653000D01*
X147994821Y-94665313D01*
X147994821Y-94665313D01*
G37*
G36*
X150534821Y-94665313D02*
X150534824Y-94665314D01*
X150534825Y-94665314D01*
X150695239Y-94713975D01*
X150695241Y-94713976D01*
X150695244Y-94713977D01*
X150843078Y-94792995D01*
X150972659Y-94899341D01*
X151079005Y-95028922D01*
X151158023Y-95176756D01*
X151206687Y-95337179D01*
X151223117Y-95504000D01*
X151206687Y-95670821D01*
X151158023Y-95831244D01*
X151079005Y-95979078D01*
X150972659Y-96108659D01*
X150843078Y-96215005D01*
X150695244Y-96294023D01*
X150695241Y-96294024D01*
X150695239Y-96294025D01*
X150534825Y-96342686D01*
X150534824Y-96342686D01*
X150534821Y-96342687D01*
X150409804Y-96355000D01*
X150326196Y-96355000D01*
X150201179Y-96342687D01*
X150201176Y-96342686D01*
X150201175Y-96342686D01*
X150040761Y-96294025D01*
X150040759Y-96294024D01*
X150040756Y-96294023D01*
X149892922Y-96215005D01*
X149763341Y-96108659D01*
X149656995Y-95979078D01*
X149577977Y-95831244D01*
X149529313Y-95670821D01*
X149512883Y-95504000D01*
X149529313Y-95337179D01*
X149577977Y-95176756D01*
X149656995Y-95028922D01*
X149763341Y-94899341D01*
X149892922Y-94792995D01*
X150040756Y-94713977D01*
X150040759Y-94713976D01*
X150040761Y-94713975D01*
X150201175Y-94665314D01*
X150201176Y-94665314D01*
X150201179Y-94665313D01*
X150326196Y-94653000D01*
X150409804Y-94653000D01*
X150534821Y-94665313D01*
X150534821Y-94665313D01*
G37*
G36*
X153074821Y-94665313D02*
X153074824Y-94665314D01*
X153074825Y-94665314D01*
X153235239Y-94713975D01*
X153235241Y-94713976D01*
X153235244Y-94713977D01*
X153383078Y-94792995D01*
X153512659Y-94899341D01*
X153619005Y-95028922D01*
X153698023Y-95176756D01*
X153746687Y-95337179D01*
X153763117Y-95504000D01*
X153746687Y-95670821D01*
X153698023Y-95831244D01*
X153619005Y-95979078D01*
X153512659Y-96108659D01*
X153383078Y-96215005D01*
X153235244Y-96294023D01*
X153235241Y-96294024D01*
X153235239Y-96294025D01*
X153074825Y-96342686D01*
X153074824Y-96342686D01*
X153074821Y-96342687D01*
X152949804Y-96355000D01*
X152866196Y-96355000D01*
X152741179Y-96342687D01*
X152741176Y-96342686D01*
X152741175Y-96342686D01*
X152580761Y-96294025D01*
X152580759Y-96294024D01*
X152580756Y-96294023D01*
X152432922Y-96215005D01*
X152303341Y-96108659D01*
X152196995Y-95979078D01*
X152117977Y-95831244D01*
X152069313Y-95670821D01*
X152052883Y-95504000D01*
X152069313Y-95337179D01*
X152117977Y-95176756D01*
X152196995Y-95028922D01*
X152303341Y-94899341D01*
X152432922Y-94792995D01*
X152580756Y-94713977D01*
X152580759Y-94713976D01*
X152580761Y-94713975D01*
X152741175Y-94665314D01*
X152741176Y-94665314D01*
X152741179Y-94665313D01*
X152866196Y-94653000D01*
X152949804Y-94653000D01*
X153074821Y-94665313D01*
X153074821Y-94665313D01*
G37*
G36*
X155614821Y-94665313D02*
X155614824Y-94665314D01*
X155614825Y-94665314D01*
X155775239Y-94713975D01*
X155775241Y-94713976D01*
X155775244Y-94713977D01*
X155923078Y-94792995D01*
X156052659Y-94899341D01*
X156159005Y-95028922D01*
X156238023Y-95176756D01*
X156286687Y-95337179D01*
X156303117Y-95504000D01*
X156286687Y-95670821D01*
X156238023Y-95831244D01*
X156159005Y-95979078D01*
X156052659Y-96108659D01*
X155923078Y-96215005D01*
X155775244Y-96294023D01*
X155775241Y-96294024D01*
X155775239Y-96294025D01*
X155614825Y-96342686D01*
X155614824Y-96342686D01*
X155614821Y-96342687D01*
X155489804Y-96355000D01*
X155406196Y-96355000D01*
X155281179Y-96342687D01*
X155281176Y-96342686D01*
X155281175Y-96342686D01*
X155120761Y-96294025D01*
X155120759Y-96294024D01*
X155120756Y-96294023D01*
X154972922Y-96215005D01*
X154843341Y-96108659D01*
X154736995Y-95979078D01*
X154657977Y-95831244D01*
X154609313Y-95670821D01*
X154592883Y-95504000D01*
X154609313Y-95337179D01*
X154657977Y-95176756D01*
X154736995Y-95028922D01*
X154843341Y-94899341D01*
X154972922Y-94792995D01*
X155120756Y-94713977D01*
X155120759Y-94713976D01*
X155120761Y-94713975D01*
X155281175Y-94665314D01*
X155281176Y-94665314D01*
X155281179Y-94665313D01*
X155406196Y-94653000D01*
X155489804Y-94653000D01*
X155614821Y-94665313D01*
X155614821Y-94665313D01*
G37*
G36*
X158154821Y-94665313D02*
X158154824Y-94665314D01*
X158154825Y-94665314D01*
X158315239Y-94713975D01*
X158315241Y-94713976D01*
X158315244Y-94713977D01*
X158463078Y-94792995D01*
X158592659Y-94899341D01*
X158699005Y-95028922D01*
X158778023Y-95176756D01*
X158826687Y-95337179D01*
X158843117Y-95504000D01*
X158826687Y-95670821D01*
X158778023Y-95831244D01*
X158699005Y-95979078D01*
X158592659Y-96108659D01*
X158463078Y-96215005D01*
X158315244Y-96294023D01*
X158315241Y-96294024D01*
X158315239Y-96294025D01*
X158154825Y-96342686D01*
X158154824Y-96342686D01*
X158154821Y-96342687D01*
X158029804Y-96355000D01*
X157946196Y-96355000D01*
X157821179Y-96342687D01*
X157821176Y-96342686D01*
X157821175Y-96342686D01*
X157660761Y-96294025D01*
X157660759Y-96294024D01*
X157660756Y-96294023D01*
X157512922Y-96215005D01*
X157383341Y-96108659D01*
X157276995Y-95979078D01*
X157197977Y-95831244D01*
X157149313Y-95670821D01*
X157132883Y-95504000D01*
X157149313Y-95337179D01*
X157197977Y-95176756D01*
X157276995Y-95028922D01*
X157383341Y-94899341D01*
X157512922Y-94792995D01*
X157660756Y-94713977D01*
X157660759Y-94713976D01*
X157660761Y-94713975D01*
X157821175Y-94665314D01*
X157821176Y-94665314D01*
X157821179Y-94665313D01*
X157946196Y-94653000D01*
X158029804Y-94653000D01*
X158154821Y-94665313D01*
X158154821Y-94665313D01*
G37*
G36*
X160694821Y-94665313D02*
X160694824Y-94665314D01*
X160694825Y-94665314D01*
X160855239Y-94713975D01*
X160855241Y-94713976D01*
X160855244Y-94713977D01*
X161003078Y-94792995D01*
X161132659Y-94899341D01*
X161239005Y-95028922D01*
X161318023Y-95176756D01*
X161366687Y-95337179D01*
X161383117Y-95504000D01*
X161366687Y-95670821D01*
X161318023Y-95831244D01*
X161239005Y-95979078D01*
X161132659Y-96108659D01*
X161003078Y-96215005D01*
X160855244Y-96294023D01*
X160855241Y-96294024D01*
X160855239Y-96294025D01*
X160694825Y-96342686D01*
X160694824Y-96342686D01*
X160694821Y-96342687D01*
X160569804Y-96355000D01*
X160486196Y-96355000D01*
X160361179Y-96342687D01*
X160361176Y-96342686D01*
X160361175Y-96342686D01*
X160200761Y-96294025D01*
X160200759Y-96294024D01*
X160200756Y-96294023D01*
X160052922Y-96215005D01*
X159923341Y-96108659D01*
X159816995Y-95979078D01*
X159737977Y-95831244D01*
X159689313Y-95670821D01*
X159672883Y-95504000D01*
X159689313Y-95337179D01*
X159737977Y-95176756D01*
X159816995Y-95028922D01*
X159923341Y-94899341D01*
X160052922Y-94792995D01*
X160200756Y-94713977D01*
X160200759Y-94713976D01*
X160200761Y-94713975D01*
X160361175Y-94665314D01*
X160361176Y-94665314D01*
X160361179Y-94665313D01*
X160486196Y-94653000D01*
X160569804Y-94653000D01*
X160694821Y-94665313D01*
X160694821Y-94665313D01*
G37*
G36*
X163234821Y-94665313D02*
X163234824Y-94665314D01*
X163234825Y-94665314D01*
X163395239Y-94713975D01*
X163395241Y-94713976D01*
X163395244Y-94713977D01*
X163543078Y-94792995D01*
X163672659Y-94899341D01*
X163779005Y-95028922D01*
X163858023Y-95176756D01*
X163906687Y-95337179D01*
X163923117Y-95504000D01*
X163906687Y-95670821D01*
X163858023Y-95831244D01*
X163779005Y-95979078D01*
X163672659Y-96108659D01*
X163543078Y-96215005D01*
X163395244Y-96294023D01*
X163395241Y-96294024D01*
X163395239Y-96294025D01*
X163234825Y-96342686D01*
X163234824Y-96342686D01*
X163234821Y-96342687D01*
X163109804Y-96355000D01*
X163026196Y-96355000D01*
X162901179Y-96342687D01*
X162901176Y-96342686D01*
X162901175Y-96342686D01*
X162740761Y-96294025D01*
X162740759Y-96294024D01*
X162740756Y-96294023D01*
X162592922Y-96215005D01*
X162463341Y-96108659D01*
X162356995Y-95979078D01*
X162277977Y-95831244D01*
X162229313Y-95670821D01*
X162212883Y-95504000D01*
X162229313Y-95337179D01*
X162277977Y-95176756D01*
X162356995Y-95028922D01*
X162463341Y-94899341D01*
X162592922Y-94792995D01*
X162740756Y-94713977D01*
X162740759Y-94713976D01*
X162740761Y-94713975D01*
X162901175Y-94665314D01*
X162901176Y-94665314D01*
X162901179Y-94665313D01*
X163026196Y-94653000D01*
X163109804Y-94653000D01*
X163234821Y-94665313D01*
X163234821Y-94665313D01*
G37*
G36*
X142914821Y-94665313D02*
X142914824Y-94665314D01*
X142914825Y-94665314D01*
X143075239Y-94713975D01*
X143075241Y-94713976D01*
X143075244Y-94713977D01*
X143223078Y-94792995D01*
X143352659Y-94899341D01*
X143459005Y-95028922D01*
X143538023Y-95176756D01*
X143586687Y-95337179D01*
X143603117Y-95504000D01*
X143586687Y-95670821D01*
X143538023Y-95831244D01*
X143459005Y-95979078D01*
X143352659Y-96108659D01*
X143223078Y-96215005D01*
X143075244Y-96294023D01*
X143075241Y-96294024D01*
X143075239Y-96294025D01*
X142914825Y-96342686D01*
X142914824Y-96342686D01*
X142914821Y-96342687D01*
X142789804Y-96355000D01*
X142706196Y-96355000D01*
X142581179Y-96342687D01*
X142581176Y-96342686D01*
X142581175Y-96342686D01*
X142420761Y-96294025D01*
X142420759Y-96294024D01*
X142420756Y-96294023D01*
X142272922Y-96215005D01*
X142143341Y-96108659D01*
X142036995Y-95979078D01*
X141957977Y-95831244D01*
X141909313Y-95670821D01*
X141892883Y-95504000D01*
X141909313Y-95337179D01*
X141957977Y-95176756D01*
X142036995Y-95028922D01*
X142143341Y-94899341D01*
X142272922Y-94792995D01*
X142420756Y-94713977D01*
X142420759Y-94713976D01*
X142420761Y-94713975D01*
X142581175Y-94665314D01*
X142581176Y-94665314D01*
X142581179Y-94665313D01*
X142706196Y-94653000D01*
X142789804Y-94653000D01*
X142914821Y-94665313D01*
X142914821Y-94665313D01*
G37*
G36*
X166459000Y-96355000D02*
X164757000Y-96355000D01*
X164757000Y-94653000D01*
X166459000Y-94653000D01*
X166459000Y-96355000D01*
X166459000Y-96355000D01*
G37*
G36*
X114285000Y-91425000D02*
X112283000Y-91425000D01*
X112283000Y-89423000D01*
X114285000Y-89423000D01*
X114285000Y-91425000D01*
X114285000Y-91425000D01*
G37*
G36*
X116075981Y-89461468D02*
X116258150Y-89536925D01*
X116422103Y-89646475D01*
X116561525Y-89785897D01*
X116671075Y-89949850D01*
X116746532Y-90132019D01*
X116785000Y-90325410D01*
X116785000Y-90522590D01*
X116746532Y-90715981D01*
X116671075Y-90898150D01*
X116561525Y-91062103D01*
X116422103Y-91201525D01*
X116258150Y-91311075D01*
X116075981Y-91386532D01*
X115882590Y-91425000D01*
X115685410Y-91425000D01*
X115492019Y-91386532D01*
X115309850Y-91311075D01*
X115145897Y-91201525D01*
X115006475Y-91062103D01*
X114896925Y-90898150D01*
X114821468Y-90715981D01*
X114783000Y-90522590D01*
X114783000Y-90325410D01*
X114821468Y-90132019D01*
X114896925Y-89949850D01*
X115006475Y-89785897D01*
X115145897Y-89646475D01*
X115309850Y-89536925D01*
X115492019Y-89461468D01*
X115685410Y-89423000D01*
X115882590Y-89423000D01*
X116075981Y-89461468D01*
X116075981Y-89461468D01*
G37*
G36*
X118575981Y-89461468D02*
X118758150Y-89536925D01*
X118922103Y-89646475D01*
X119061525Y-89785897D01*
X119171075Y-89949850D01*
X119246532Y-90132019D01*
X119285000Y-90325410D01*
X119285000Y-90522590D01*
X119246532Y-90715981D01*
X119171075Y-90898150D01*
X119061525Y-91062103D01*
X118922103Y-91201525D01*
X118758150Y-91311075D01*
X118575981Y-91386532D01*
X118382590Y-91425000D01*
X118185410Y-91425000D01*
X117992019Y-91386532D01*
X117809850Y-91311075D01*
X117645897Y-91201525D01*
X117506475Y-91062103D01*
X117396925Y-90898150D01*
X117321468Y-90715981D01*
X117283000Y-90522590D01*
X117283000Y-90325410D01*
X117321468Y-90132019D01*
X117396925Y-89949850D01*
X117506475Y-89785897D01*
X117645897Y-89646475D01*
X117809850Y-89536925D01*
X117992019Y-89461468D01*
X118185410Y-89423000D01*
X118382590Y-89423000D01*
X118575981Y-89461468D01*
X118575981Y-89461468D01*
G37*
G36*
X114285000Y-83805000D02*
X112283000Y-83805000D01*
X112283000Y-81803000D01*
X114285000Y-81803000D01*
X114285000Y-83805000D01*
X114285000Y-83805000D01*
G37*
G36*
X118575981Y-81841468D02*
X118758150Y-81916925D01*
X118922103Y-82026475D01*
X119061525Y-82165897D01*
X119171075Y-82329850D01*
X119246532Y-82512019D01*
X119285000Y-82705410D01*
X119285000Y-82902590D01*
X119246532Y-83095981D01*
X119171075Y-83278150D01*
X119061525Y-83442103D01*
X118922103Y-83581525D01*
X118758150Y-83691075D01*
X118575981Y-83766532D01*
X118382590Y-83805000D01*
X118185410Y-83805000D01*
X117992019Y-83766532D01*
X117809850Y-83691075D01*
X117645897Y-83581525D01*
X117506475Y-83442103D01*
X117396925Y-83278150D01*
X117321468Y-83095981D01*
X117283000Y-82902590D01*
X117283000Y-82705410D01*
X117321468Y-82512019D01*
X117396925Y-82329850D01*
X117506475Y-82165897D01*
X117645897Y-82026475D01*
X117809850Y-81916925D01*
X117992019Y-81841468D01*
X118185410Y-81803000D01*
X118382590Y-81803000D01*
X118575981Y-81841468D01*
X118575981Y-81841468D01*
G37*
G36*
X116075981Y-81841468D02*
X116258150Y-81916925D01*
X116422103Y-82026475D01*
X116561525Y-82165897D01*
X116671075Y-82329850D01*
X116746532Y-82512019D01*
X116785000Y-82705410D01*
X116785000Y-82902590D01*
X116746532Y-83095981D01*
X116671075Y-83278150D01*
X116561525Y-83442103D01*
X116422103Y-83581525D01*
X116258150Y-83691075D01*
X116075981Y-83766532D01*
X115882590Y-83805000D01*
X115685410Y-83805000D01*
X115492019Y-83766532D01*
X115309850Y-83691075D01*
X115145897Y-83581525D01*
X115006475Y-83442103D01*
X114896925Y-83278150D01*
X114821468Y-83095981D01*
X114783000Y-82902590D01*
X114783000Y-82705410D01*
X114821468Y-82512019D01*
X114896925Y-82329850D01*
X115006475Y-82165897D01*
X115145897Y-82026475D01*
X115309850Y-81916925D01*
X115492019Y-81841468D01*
X115685410Y-81803000D01*
X115882590Y-81803000D01*
X116075981Y-81841468D01*
X116075981Y-81841468D01*
G37*
G36*
X133329643Y-80001781D02*
X133475415Y-80062162D01*
X133606611Y-80149824D01*
X133718176Y-80261389D01*
X133805838Y-80392585D01*
X133866219Y-80538357D01*
X133897000Y-80693107D01*
X133897000Y-80850893D01*
X133866219Y-81005643D01*
X133805838Y-81151415D01*
X133718176Y-81282611D01*
X133606611Y-81394176D01*
X133475415Y-81481838D01*
X133329643Y-81542219D01*
X133174893Y-81573000D01*
X133017107Y-81573000D01*
X132862357Y-81542219D01*
X132716585Y-81481838D01*
X132585389Y-81394176D01*
X132473824Y-81282611D01*
X132386162Y-81151415D01*
X132325781Y-81005643D01*
X132295000Y-80850893D01*
X132295000Y-80693107D01*
X132325781Y-80538357D01*
X132386162Y-80392585D01*
X132473824Y-80261389D01*
X132585389Y-80149824D01*
X132716585Y-80062162D01*
X132862357Y-80001781D01*
X133017107Y-79971000D01*
X133174893Y-79971000D01*
X133329643Y-80001781D01*
X133329643Y-80001781D01*
G37*
G36*
X133329643Y-75121781D02*
X133475415Y-75182162D01*
X133606611Y-75269824D01*
X133718176Y-75381389D01*
X133805838Y-75512585D01*
X133866219Y-75658357D01*
X133897000Y-75813107D01*
X133897000Y-75970893D01*
X133866219Y-76125643D01*
X133805838Y-76271415D01*
X133718176Y-76402611D01*
X133606611Y-76514176D01*
X133475415Y-76601838D01*
X133329643Y-76662219D01*
X133174893Y-76693000D01*
X133017107Y-76693000D01*
X132862357Y-76662219D01*
X132716585Y-76601838D01*
X132585389Y-76514176D01*
X132473824Y-76402611D01*
X132386162Y-76271415D01*
X132325781Y-76125643D01*
X132295000Y-75970893D01*
X132295000Y-75813107D01*
X132325781Y-75658357D01*
X132386162Y-75512585D01*
X132473824Y-75381389D01*
X132585389Y-75269824D01*
X132716585Y-75182162D01*
X132862357Y-75121781D01*
X133017107Y-75091000D01*
X133174893Y-75091000D01*
X133329643Y-75121781D01*
X133329643Y-75121781D01*
G37*
G36*
X116075981Y-74221468D02*
X116258150Y-74296925D01*
X116422103Y-74406475D01*
X116561525Y-74545897D01*
X116671075Y-74709850D01*
X116746532Y-74892019D01*
X116785000Y-75085410D01*
X116785000Y-75282590D01*
X116746532Y-75475981D01*
X116671075Y-75658150D01*
X116561525Y-75822103D01*
X116422103Y-75961525D01*
X116258150Y-76071075D01*
X116126411Y-76125643D01*
X116075981Y-76146532D01*
X115882590Y-76185000D01*
X115685410Y-76185000D01*
X115492019Y-76146532D01*
X115441589Y-76125643D01*
X115309850Y-76071075D01*
X115145897Y-75961525D01*
X115006475Y-75822103D01*
X114896925Y-75658150D01*
X114821468Y-75475981D01*
X114783000Y-75282590D01*
X114783000Y-75085410D01*
X114821468Y-74892019D01*
X114896925Y-74709850D01*
X115006475Y-74545897D01*
X115145897Y-74406475D01*
X115309850Y-74296925D01*
X115492019Y-74221468D01*
X115685410Y-74183000D01*
X115882590Y-74183000D01*
X116075981Y-74221468D01*
X116075981Y-74221468D01*
G37*
G36*
X118575981Y-74221468D02*
X118758150Y-74296925D01*
X118922103Y-74406475D01*
X119061525Y-74545897D01*
X119171075Y-74709850D01*
X119246532Y-74892019D01*
X119285000Y-75085410D01*
X119285000Y-75282590D01*
X119246532Y-75475981D01*
X119171075Y-75658150D01*
X119061525Y-75822103D01*
X118922103Y-75961525D01*
X118758150Y-76071075D01*
X118626411Y-76125643D01*
X118575981Y-76146532D01*
X118382590Y-76185000D01*
X118185410Y-76185000D01*
X117992019Y-76146532D01*
X117941589Y-76125643D01*
X117809850Y-76071075D01*
X117645897Y-75961525D01*
X117506475Y-75822103D01*
X117396925Y-75658150D01*
X117321468Y-75475981D01*
X117283000Y-75282590D01*
X117283000Y-75085410D01*
X117321468Y-74892019D01*
X117396925Y-74709850D01*
X117506475Y-74545897D01*
X117645897Y-74406475D01*
X117809850Y-74296925D01*
X117992019Y-74221468D01*
X118185410Y-74183000D01*
X118382590Y-74183000D01*
X118575981Y-74221468D01*
X118575981Y-74221468D01*
G37*
G36*
X114285000Y-76185000D02*
X112283000Y-76185000D01*
X112283000Y-74183000D01*
X114285000Y-74183000D01*
X114285000Y-76185000D01*
X114285000Y-76185000D01*
G37*
G36*
X194783000Y-69023000D02*
X190281000Y-69023000D01*
X190281000Y-67121000D01*
X194783000Y-67121000D01*
X194783000Y-69023000D01*
X194783000Y-69023000D01*
G37*
G36*
X118575981Y-66601468D02*
X118758150Y-66676925D01*
X118922103Y-66786475D01*
X119061525Y-66925897D01*
X119171075Y-67089850D01*
X119246532Y-67272019D01*
X119285000Y-67465410D01*
X119285000Y-67662590D01*
X119246532Y-67855981D01*
X119171075Y-68038150D01*
X119061525Y-68202103D01*
X118922103Y-68341525D01*
X118758150Y-68451075D01*
X118575981Y-68526532D01*
X118382590Y-68565000D01*
X118185410Y-68565000D01*
X117992019Y-68526532D01*
X117809850Y-68451075D01*
X117645897Y-68341525D01*
X117506475Y-68202103D01*
X117396925Y-68038150D01*
X117321468Y-67855981D01*
X117283000Y-67662590D01*
X117283000Y-67465410D01*
X117321468Y-67272019D01*
X117396925Y-67089850D01*
X117506475Y-66925897D01*
X117645897Y-66786475D01*
X117809850Y-66676925D01*
X117992019Y-66601468D01*
X118185410Y-66563000D01*
X118382590Y-66563000D01*
X118575981Y-66601468D01*
X118575981Y-66601468D01*
G37*
G36*
X116075981Y-66601468D02*
X116258150Y-66676925D01*
X116422103Y-66786475D01*
X116561525Y-66925897D01*
X116671075Y-67089850D01*
X116746532Y-67272019D01*
X116785000Y-67465410D01*
X116785000Y-67662590D01*
X116746532Y-67855981D01*
X116671075Y-68038150D01*
X116561525Y-68202103D01*
X116422103Y-68341525D01*
X116258150Y-68451075D01*
X116075981Y-68526532D01*
X115882590Y-68565000D01*
X115685410Y-68565000D01*
X115492019Y-68526532D01*
X115309850Y-68451075D01*
X115145897Y-68341525D01*
X115006475Y-68202103D01*
X114896925Y-68038150D01*
X114821468Y-67855981D01*
X114783000Y-67662590D01*
X114783000Y-67465410D01*
X114821468Y-67272019D01*
X114896925Y-67089850D01*
X115006475Y-66925897D01*
X115145897Y-66786475D01*
X115309850Y-66676925D01*
X115492019Y-66601468D01*
X115685410Y-66563000D01*
X115882590Y-66563000D01*
X116075981Y-66601468D01*
X116075981Y-66601468D01*
G37*
G36*
X114285000Y-68565000D02*
X112283000Y-68565000D01*
X112283000Y-66563000D01*
X114285000Y-66563000D01*
X114285000Y-68565000D01*
X114285000Y-68565000D01*
G37*
G36*
X187918425Y-63034760D02*
X187918428Y-63034761D01*
X187918429Y-63034761D01*
X188097693Y-63089140D01*
X188097695Y-63089141D01*
X188262905Y-63177448D01*
X188407712Y-63296288D01*
X188526552Y-63441095D01*
X188614859Y-63606305D01*
X188669240Y-63785575D01*
X188683000Y-63925282D01*
X188683000Y-66218718D01*
X188669240Y-66358425D01*
X188614859Y-66537695D01*
X188526552Y-66702905D01*
X188407712Y-66847712D01*
X188262904Y-66966554D01*
X188097697Y-67054858D01*
X188097694Y-67054859D01*
X188097692Y-67054860D01*
X187918428Y-67109239D01*
X187918427Y-67109239D01*
X187918424Y-67109240D01*
X187732000Y-67127601D01*
X187545575Y-67109240D01*
X187545572Y-67109239D01*
X187545571Y-67109239D01*
X187366307Y-67054860D01*
X187201097Y-66966553D01*
X187201095Y-66966552D01*
X187056288Y-66847712D01*
X186937446Y-66702904D01*
X186849142Y-66537697D01*
X186794762Y-66358429D01*
X186794761Y-66358428D01*
X186794761Y-66358427D01*
X186794760Y-66358424D01*
X186781000Y-66218717D01*
X186781001Y-63925282D01*
X186794761Y-63785575D01*
X186849142Y-63606305D01*
X186937449Y-63441095D01*
X187056289Y-63296288D01*
X187201096Y-63177448D01*
X187366306Y-63089141D01*
X187366308Y-63089140D01*
X187545572Y-63034761D01*
X187545573Y-63034761D01*
X187545576Y-63034760D01*
X187732000Y-63016399D01*
X187918425Y-63034760D01*
X187918425Y-63034760D01*
G37*
G36*
X157229552Y-61420353D02*
X157342827Y-61442885D01*
X157426266Y-61477447D01*
X157662934Y-61575478D01*
X157951028Y-61767976D01*
X158196024Y-62012972D01*
X158388522Y-62301066D01*
X158521115Y-62621174D01*
X158588710Y-62960997D01*
X158588710Y-63307483D01*
X158521115Y-63647306D01*
X158388522Y-63967414D01*
X158196024Y-64255508D01*
X157951028Y-64500504D01*
X157662934Y-64693002D01*
X157475420Y-64770673D01*
X157342827Y-64825595D01*
X157229552Y-64848127D01*
X157003003Y-64893190D01*
X156656517Y-64893190D01*
X156429968Y-64848127D01*
X156316693Y-64825595D01*
X156184100Y-64770673D01*
X155996586Y-64693002D01*
X155708492Y-64500504D01*
X155463496Y-64255508D01*
X155270998Y-63967414D01*
X155138405Y-63647306D01*
X155070810Y-63307483D01*
X155070810Y-62960997D01*
X155138405Y-62621174D01*
X155270998Y-62301066D01*
X155463496Y-62012972D01*
X155708492Y-61767976D01*
X155996586Y-61575478D01*
X156233254Y-61477447D01*
X156316693Y-61442885D01*
X156429968Y-61420353D01*
X156656517Y-61375290D01*
X157003003Y-61375290D01*
X157229552Y-61420353D01*
X157229552Y-61420353D01*
G37*
G36*
X164626032Y-61420353D02*
X164739307Y-61442885D01*
X164822746Y-61477447D01*
X165059414Y-61575478D01*
X165347508Y-61767976D01*
X165592504Y-62012972D01*
X165785002Y-62301066D01*
X165917595Y-62621174D01*
X165985190Y-62960997D01*
X165985190Y-63307483D01*
X165917595Y-63647306D01*
X165785002Y-63967414D01*
X165592504Y-64255508D01*
X165347508Y-64500504D01*
X165059414Y-64693002D01*
X164871900Y-64770673D01*
X164739307Y-64825595D01*
X164626032Y-64848127D01*
X164399483Y-64893190D01*
X164052997Y-64893190D01*
X163826448Y-64848127D01*
X163713173Y-64825595D01*
X163580580Y-64770673D01*
X163393066Y-64693002D01*
X163104972Y-64500504D01*
X162859976Y-64255508D01*
X162667478Y-63967414D01*
X162534885Y-63647306D01*
X162467290Y-63307483D01*
X162467290Y-62960997D01*
X162534885Y-62621174D01*
X162667478Y-62301066D01*
X162859976Y-62012972D01*
X163104972Y-61767976D01*
X163393066Y-61575478D01*
X163629734Y-61477447D01*
X163713173Y-61442885D01*
X163826448Y-61420353D01*
X164052997Y-61375290D01*
X164399483Y-61375290D01*
X164626032Y-61420353D01*
X164626032Y-61420353D01*
G37*
G36*
X171961552Y-61420353D02*
X172074827Y-61442885D01*
X172158266Y-61477447D01*
X172394934Y-61575478D01*
X172683028Y-61767976D01*
X172928024Y-62012972D01*
X173120522Y-62301066D01*
X173253115Y-62621174D01*
X173320710Y-62960997D01*
X173320710Y-63307483D01*
X173253115Y-63647306D01*
X173120522Y-63967414D01*
X172928024Y-64255508D01*
X172683028Y-64500504D01*
X172394934Y-64693002D01*
X172207420Y-64770673D01*
X172074827Y-64825595D01*
X171961552Y-64848127D01*
X171735003Y-64893190D01*
X171388517Y-64893190D01*
X171161968Y-64848127D01*
X171048693Y-64825595D01*
X170916100Y-64770673D01*
X170728586Y-64693002D01*
X170440492Y-64500504D01*
X170195496Y-64255508D01*
X170002998Y-63967414D01*
X169870405Y-63647306D01*
X169802810Y-63307483D01*
X169802810Y-62960997D01*
X169870405Y-62621174D01*
X170002998Y-62301066D01*
X170195496Y-62012972D01*
X170440492Y-61767976D01*
X170728586Y-61575478D01*
X170965254Y-61477447D01*
X171048693Y-61442885D01*
X171161968Y-61420353D01*
X171388517Y-61375290D01*
X171735003Y-61375290D01*
X171961552Y-61420353D01*
X171961552Y-61420353D01*
G37*
G36*
X179358032Y-61420353D02*
X179471307Y-61442885D01*
X179554746Y-61477447D01*
X179791414Y-61575478D01*
X180079508Y-61767976D01*
X180324504Y-62012972D01*
X180517002Y-62301066D01*
X180649595Y-62621174D01*
X180717190Y-62960997D01*
X180717190Y-63307483D01*
X180649595Y-63647306D01*
X180517002Y-63967414D01*
X180324504Y-64255508D01*
X180079508Y-64500504D01*
X179791414Y-64693002D01*
X179603900Y-64770673D01*
X179471307Y-64825595D01*
X179358032Y-64848127D01*
X179131483Y-64893190D01*
X178784997Y-64893190D01*
X178558448Y-64848127D01*
X178445173Y-64825595D01*
X178312580Y-64770673D01*
X178125066Y-64693002D01*
X177836972Y-64500504D01*
X177591976Y-64255508D01*
X177399478Y-63967414D01*
X177266885Y-63647306D01*
X177199290Y-63307483D01*
X177199290Y-62960997D01*
X177266885Y-62621174D01*
X177399478Y-62301066D01*
X177591976Y-62012972D01*
X177836972Y-61767976D01*
X178125066Y-61575478D01*
X178361734Y-61477447D01*
X178445173Y-61442885D01*
X178558448Y-61420353D01*
X178784997Y-61375290D01*
X179131483Y-61375290D01*
X179358032Y-61420353D01*
X179358032Y-61420353D01*
G37*
G36*
X193818425Y-61334760D02*
X193818428Y-61334761D01*
X193818429Y-61334761D01*
X193997693Y-61389140D01*
X193997695Y-61389141D01*
X194162905Y-61477448D01*
X194307712Y-61596288D01*
X194426552Y-61741095D01*
X194514859Y-61906305D01*
X194569240Y-62085575D01*
X194587601Y-62272000D01*
X194569240Y-62458425D01*
X194514859Y-62637695D01*
X194426552Y-62802905D01*
X194307712Y-62947712D01*
X194162905Y-63066552D01*
X194162903Y-63066553D01*
X193997693Y-63154860D01*
X193818429Y-63209239D01*
X193818428Y-63209239D01*
X193818425Y-63209240D01*
X193678718Y-63223000D01*
X191385282Y-63223000D01*
X191245575Y-63209240D01*
X191245572Y-63209239D01*
X191245571Y-63209239D01*
X191066307Y-63154860D01*
X190901097Y-63066553D01*
X190901095Y-63066552D01*
X190756288Y-62947712D01*
X190637448Y-62802905D01*
X190549141Y-62637695D01*
X190494760Y-62458425D01*
X190476399Y-62272000D01*
X190494760Y-62085575D01*
X190549141Y-61906305D01*
X190637448Y-61741095D01*
X190756288Y-61596288D01*
X190901095Y-61477448D01*
X191066305Y-61389141D01*
X191066307Y-61389140D01*
X191245571Y-61334761D01*
X191245572Y-61334761D01*
X191245575Y-61334760D01*
X191385282Y-61321000D01*
X193678718Y-61321000D01*
X193818425Y-61334760D01*
X193818425Y-61334760D01*
G37*
G36*
X205637639Y-54792047D02*
X205951682Y-54854514D01*
X206543326Y-55099581D01*
X206869515Y-55317534D01*
X207075795Y-55455366D01*
X207528614Y-55908185D01*
X207528616Y-55908188D01*
X207884399Y-56440654D01*
X208129466Y-57032298D01*
X208168979Y-57230943D01*
X208254400Y-57660383D01*
X208254400Y-58300777D01*
X208194319Y-58602825D01*
X208129466Y-58928862D01*
X207884399Y-59520506D01*
X207636665Y-59891265D01*
X207528614Y-60052975D01*
X207075795Y-60505794D01*
X207075792Y-60505796D01*
X206543326Y-60861579D01*
X205951682Y-61106646D01*
X205637639Y-61169113D01*
X205323597Y-61231580D01*
X204683203Y-61231580D01*
X204369161Y-61169113D01*
X204055118Y-61106646D01*
X203463474Y-60861579D01*
X202931008Y-60505796D01*
X202931005Y-60505794D01*
X202478186Y-60052975D01*
X202370135Y-59891265D01*
X202122401Y-59520506D01*
X201877334Y-58928862D01*
X201812481Y-58602825D01*
X201752400Y-58300777D01*
X201752400Y-57660383D01*
X201837821Y-57230943D01*
X201877334Y-57032298D01*
X202122401Y-56440654D01*
X202478184Y-55908188D01*
X202478186Y-55908185D01*
X202931005Y-55455366D01*
X203137285Y-55317534D01*
X203463474Y-55099581D01*
X204055118Y-54854514D01*
X204369161Y-54792047D01*
X204683203Y-54729580D01*
X205323597Y-54729580D01*
X205637639Y-54792047D01*
X205637639Y-54792047D01*
G37*
G36*
X113638839Y-54792047D02*
X113952882Y-54854514D01*
X114544526Y-55099581D01*
X114870715Y-55317534D01*
X115076995Y-55455366D01*
X115529814Y-55908185D01*
X115529816Y-55908188D01*
X115885599Y-56440654D01*
X116130666Y-57032298D01*
X116170179Y-57230943D01*
X116255600Y-57660383D01*
X116255600Y-58300777D01*
X116195519Y-58602825D01*
X116130666Y-58928862D01*
X115885599Y-59520506D01*
X115637865Y-59891265D01*
X115529814Y-60052975D01*
X115076995Y-60505794D01*
X115076992Y-60505796D01*
X114544526Y-60861579D01*
X113952882Y-61106646D01*
X113638839Y-61169113D01*
X113324797Y-61231580D01*
X112684403Y-61231580D01*
X112370361Y-61169113D01*
X112056318Y-61106646D01*
X111464674Y-60861579D01*
X110932208Y-60505796D01*
X110932205Y-60505794D01*
X110479386Y-60052975D01*
X110371335Y-59891265D01*
X110123601Y-59520506D01*
X109878534Y-58928862D01*
X109813681Y-58602825D01*
X109753600Y-58300777D01*
X109753600Y-57660383D01*
X109839021Y-57230943D01*
X109878534Y-57032298D01*
X110123601Y-56440654D01*
X110479384Y-55908188D01*
X110479386Y-55908185D01*
X110932205Y-55455366D01*
X111138485Y-55317534D01*
X111464674Y-55099581D01*
X112056318Y-54854514D01*
X112370361Y-54792047D01*
X112684403Y-54729580D01*
X113324797Y-54729580D01*
X113638839Y-54792047D01*
X113638839Y-54792047D01*
G37*
G36*
X175659792Y-57722113D02*
X175773067Y-57744645D01*
X175905660Y-57799567D01*
X176093174Y-57877238D01*
X176381268Y-58069736D01*
X176626264Y-58314732D01*
X176818762Y-58602826D01*
X176951355Y-58922934D01*
X177015213Y-59243968D01*
X177018950Y-59262759D01*
X177018950Y-59609241D01*
X176951355Y-59949067D01*
X176918680Y-60027950D01*
X176818762Y-60269174D01*
X176626264Y-60557268D01*
X176381268Y-60802264D01*
X176093174Y-60994762D01*
X175905660Y-61072433D01*
X175773067Y-61127355D01*
X175659792Y-61149887D01*
X175433243Y-61194950D01*
X175086757Y-61194950D01*
X174860208Y-61149887D01*
X174746933Y-61127355D01*
X174614340Y-61072433D01*
X174426826Y-60994762D01*
X174138732Y-60802264D01*
X173893736Y-60557268D01*
X173701238Y-60269174D01*
X173601320Y-60027950D01*
X173568645Y-59949067D01*
X173501050Y-59609241D01*
X173501050Y-59262759D01*
X173504788Y-59243968D01*
X173568645Y-58922934D01*
X173701238Y-58602826D01*
X173893736Y-58314732D01*
X174138732Y-58069736D01*
X174426826Y-57877238D01*
X174614340Y-57799567D01*
X174746933Y-57744645D01*
X174860208Y-57722113D01*
X175086757Y-57677050D01*
X175433243Y-57677050D01*
X175659792Y-57722113D01*
X175659792Y-57722113D01*
G37*
G36*
X160927792Y-57722113D02*
X161041067Y-57744645D01*
X161173660Y-57799567D01*
X161361174Y-57877238D01*
X161649268Y-58069736D01*
X161894264Y-58314732D01*
X162086762Y-58602826D01*
X162219355Y-58922934D01*
X162283213Y-59243968D01*
X162286950Y-59262759D01*
X162286950Y-59609241D01*
X162219355Y-59949067D01*
X162186680Y-60027950D01*
X162086762Y-60269174D01*
X161894264Y-60557268D01*
X161649268Y-60802264D01*
X161361174Y-60994762D01*
X161173660Y-61072433D01*
X161041067Y-61127355D01*
X160927792Y-61149887D01*
X160701243Y-61194950D01*
X160354757Y-61194950D01*
X160128208Y-61149887D01*
X160014933Y-61127355D01*
X159882340Y-61072433D01*
X159694826Y-60994762D01*
X159406732Y-60802264D01*
X159161736Y-60557268D01*
X158969238Y-60269174D01*
X158869320Y-60027950D01*
X158836645Y-59949067D01*
X158769050Y-59609241D01*
X158769050Y-59262759D01*
X158772788Y-59243968D01*
X158836645Y-58922934D01*
X158969238Y-58602826D01*
X159161736Y-58314732D01*
X159406732Y-58069736D01*
X159694826Y-57877238D01*
X159882340Y-57799567D01*
X160014933Y-57744645D01*
X160128208Y-57722113D01*
X160354757Y-57677050D01*
X160701243Y-57677050D01*
X160927792Y-57722113D01*
X160927792Y-57722113D01*
G37*
G36*
X165113044Y-55230798D02*
X165322442Y-55317533D01*
X165510900Y-55443457D01*
X165671163Y-55603720D01*
X165797087Y-55792178D01*
X165883822Y-56001576D01*
X165928040Y-56223873D01*
X165928040Y-56450527D01*
X165883822Y-56672824D01*
X165797087Y-56882222D01*
X165671163Y-57070680D01*
X165510900Y-57230943D01*
X165322442Y-57356867D01*
X165113044Y-57443602D01*
X164890747Y-57487820D01*
X164664093Y-57487820D01*
X164441796Y-57443602D01*
X164232398Y-57356867D01*
X164043940Y-57230943D01*
X163883677Y-57070680D01*
X163757753Y-56882222D01*
X163671018Y-56672824D01*
X163626800Y-56450527D01*
X163626800Y-56223873D01*
X163671018Y-56001576D01*
X163757753Y-55792178D01*
X163883677Y-55603720D01*
X164043940Y-55443457D01*
X164232398Y-55317533D01*
X164441796Y-55230798D01*
X164664093Y-55186580D01*
X164890747Y-55186580D01*
X165113044Y-55230798D01*
X165113044Y-55230798D01*
G37*
G36*
X156614204Y-55230798D02*
X156823602Y-55317533D01*
X157012060Y-55443457D01*
X157172323Y-55603720D01*
X157298247Y-55792178D01*
X157384982Y-56001576D01*
X157429200Y-56223873D01*
X157429200Y-56450527D01*
X157384982Y-56672824D01*
X157298247Y-56882222D01*
X157172323Y-57070680D01*
X157012060Y-57230943D01*
X156823602Y-57356867D01*
X156614204Y-57443602D01*
X156391907Y-57487820D01*
X156165253Y-57487820D01*
X155942956Y-57443602D01*
X155733558Y-57356867D01*
X155545100Y-57230943D01*
X155384837Y-57070680D01*
X155258913Y-56882222D01*
X155172178Y-56672824D01*
X155127960Y-56450527D01*
X155127960Y-56223873D01*
X155172178Y-56001576D01*
X155258913Y-55792178D01*
X155384837Y-55603720D01*
X155545100Y-55443457D01*
X155733558Y-55317533D01*
X155942956Y-55230798D01*
X156165253Y-55186580D01*
X156391907Y-55186580D01*
X156614204Y-55230798D01*
X156614204Y-55230798D01*
G37*
G36*
X171346204Y-55230798D02*
X171555602Y-55317533D01*
X171744060Y-55443457D01*
X171904323Y-55603720D01*
X172030247Y-55792178D01*
X172116982Y-56001576D01*
X172161200Y-56223873D01*
X172161200Y-56450527D01*
X172116982Y-56672824D01*
X172030247Y-56882222D01*
X171904323Y-57070680D01*
X171744060Y-57230943D01*
X171555602Y-57356867D01*
X171346204Y-57443602D01*
X171123907Y-57487820D01*
X170897253Y-57487820D01*
X170674956Y-57443602D01*
X170465558Y-57356867D01*
X170277100Y-57230943D01*
X170116837Y-57070680D01*
X169990913Y-56882222D01*
X169904178Y-56672824D01*
X169859960Y-56450527D01*
X169859960Y-56223873D01*
X169904178Y-56001576D01*
X169990913Y-55792178D01*
X170116837Y-55603720D01*
X170277100Y-55443457D01*
X170465558Y-55317533D01*
X170674956Y-55230798D01*
X170897253Y-55186580D01*
X171123907Y-55186580D01*
X171346204Y-55230798D01*
X171346204Y-55230798D01*
G37*
G36*
X179845044Y-55230798D02*
X180054442Y-55317533D01*
X180242900Y-55443457D01*
X180403163Y-55603720D01*
X180529087Y-55792178D01*
X180615822Y-56001576D01*
X180660040Y-56223873D01*
X180660040Y-56450527D01*
X180615822Y-56672824D01*
X180529087Y-56882222D01*
X180403163Y-57070680D01*
X180242900Y-57230943D01*
X180054442Y-57356867D01*
X179845044Y-57443602D01*
X179622747Y-57487820D01*
X179396093Y-57487820D01*
X179173796Y-57443602D01*
X178964398Y-57356867D01*
X178775940Y-57230943D01*
X178615677Y-57070680D01*
X178489753Y-56882222D01*
X178403018Y-56672824D01*
X178358800Y-56450527D01*
X178358800Y-56223873D01*
X178403018Y-56001576D01*
X178489753Y-55792178D01*
X178615677Y-55603720D01*
X178775940Y-55443457D01*
X178964398Y-55317533D01*
X179173796Y-55230798D01*
X179396093Y-55186580D01*
X179622747Y-55186580D01*
X179845044Y-55230798D01*
X179845044Y-55230798D01*
G37*
M02*
