G04 #@! TF.GenerationSoftware,KiCad,Pcbnew,5.0.2-bee76a0~70~ubuntu18.04.1*
G04 #@! TF.CreationDate,2020-01-13T15:24:33+02:00*
G04 #@! TF.ProjectId,videosport,76696465-6f73-4706-9f72-742e6b696361,rev?*
G04 #@! TF.SameCoordinates,Original*
G04 #@! TF.FileFunction,Legend,Bot*
G04 #@! TF.FilePolarity,Positive*
%FSLAX46Y46*%
G04 Gerber Fmt 4.6, Leading zero omitted, Abs format (unit mm)*
G04 Created by KiCad (PCBNEW 5.0.2-bee76a0~70~ubuntu18.04.1) date Пнд 13 янв 2020 15:24:33*
%MOMM*%
%LPD*%
G01*
G04 APERTURE LIST*
%ADD10C,0.300000*%
%ADD11C,0.120000*%
%ADD12C,0.010000*%
%ADD13C,0.150000*%
G04 APERTURE END LIST*
D10*
X141988857Y-122090571D02*
X141988857Y-120590571D01*
X141488857Y-121662000D01*
X140988857Y-120590571D01*
X140988857Y-122090571D01*
X139631714Y-122090571D02*
X139631714Y-121304857D01*
X139703142Y-121162000D01*
X139846000Y-121090571D01*
X140131714Y-121090571D01*
X140274571Y-121162000D01*
X139631714Y-122019142D02*
X139774571Y-122090571D01*
X140131714Y-122090571D01*
X140274571Y-122019142D01*
X140346000Y-121876285D01*
X140346000Y-121733428D01*
X140274571Y-121590571D01*
X140131714Y-121519142D01*
X139774571Y-121519142D01*
X139631714Y-121447714D01*
X138274571Y-122090571D02*
X138274571Y-120590571D01*
X138274571Y-122019142D02*
X138417428Y-122090571D01*
X138703142Y-122090571D01*
X138846000Y-122019142D01*
X138917428Y-121947714D01*
X138988857Y-121804857D01*
X138988857Y-121376285D01*
X138917428Y-121233428D01*
X138846000Y-121162000D01*
X138703142Y-121090571D01*
X138417428Y-121090571D01*
X138274571Y-121162000D01*
X136988857Y-122019142D02*
X137131714Y-122090571D01*
X137417428Y-122090571D01*
X137560285Y-122019142D01*
X137631714Y-121876285D01*
X137631714Y-121304857D01*
X137560285Y-121162000D01*
X137417428Y-121090571D01*
X137131714Y-121090571D01*
X136988857Y-121162000D01*
X136917428Y-121304857D01*
X136917428Y-121447714D01*
X137631714Y-121590571D01*
X135131714Y-122090571D02*
X135131714Y-121090571D01*
X135131714Y-120590571D02*
X135203142Y-120662000D01*
X135131714Y-120733428D01*
X135060285Y-120662000D01*
X135131714Y-120590571D01*
X135131714Y-120733428D01*
X134417428Y-121090571D02*
X134417428Y-122090571D01*
X134417428Y-121233428D02*
X134346000Y-121162000D01*
X134203142Y-121090571D01*
X133988857Y-121090571D01*
X133846000Y-121162000D01*
X133774571Y-121304857D01*
X133774571Y-122090571D01*
X131917428Y-120590571D02*
X131917428Y-121804857D01*
X131846000Y-121947714D01*
X131774571Y-122019142D01*
X131631714Y-122090571D01*
X131346000Y-122090571D01*
X131203142Y-122019142D01*
X131131714Y-121947714D01*
X131060285Y-121804857D01*
X131060285Y-120590571D01*
X130346000Y-122090571D02*
X130346000Y-120590571D01*
X130203142Y-121519142D02*
X129774571Y-122090571D01*
X129774571Y-121090571D02*
X130346000Y-121662000D01*
X129131714Y-122090571D02*
X129131714Y-121090571D01*
X129131714Y-121376285D02*
X129060285Y-121233428D01*
X128988857Y-121162000D01*
X128846000Y-121090571D01*
X128703142Y-121090571D01*
X127560285Y-122090571D02*
X127560285Y-121304857D01*
X127631714Y-121162000D01*
X127774571Y-121090571D01*
X128060285Y-121090571D01*
X128203142Y-121162000D01*
X127560285Y-122019142D02*
X127703142Y-122090571D01*
X128060285Y-122090571D01*
X128203142Y-122019142D01*
X128274571Y-121876285D01*
X128274571Y-121733428D01*
X128203142Y-121590571D01*
X128060285Y-121519142D01*
X127703142Y-121519142D01*
X127560285Y-121447714D01*
X126846000Y-122090571D02*
X126846000Y-121090571D01*
X126846000Y-120590571D02*
X126917428Y-120662000D01*
X126846000Y-120733428D01*
X126774571Y-120662000D01*
X126846000Y-120590571D01*
X126846000Y-120733428D01*
X126131714Y-121090571D02*
X126131714Y-122090571D01*
X126131714Y-121233428D02*
X126060285Y-121162000D01*
X125917428Y-121090571D01*
X125703142Y-121090571D01*
X125560285Y-121162000D01*
X125488857Y-121304857D01*
X125488857Y-122090571D01*
X124203142Y-122019142D02*
X124346000Y-122090571D01*
X124631714Y-122090571D01*
X124774571Y-122019142D01*
X124846000Y-121876285D01*
X124846000Y-121304857D01*
X124774571Y-121162000D01*
X124631714Y-121090571D01*
X124346000Y-121090571D01*
X124203142Y-121162000D01*
X124131714Y-121304857D01*
X124131714Y-121447714D01*
X124846000Y-121590571D01*
D11*
G04 #@! TO.C,C15*
X162358000Y-99318578D02*
X162358000Y-98801422D01*
X163778000Y-99318578D02*
X163778000Y-98801422D01*
D12*
G04 #@! TO.C,REF\002A\002A*
G36*
X197606380Y-80386594D02*
X197412970Y-80435286D01*
X197239029Y-80521332D01*
X197088740Y-80641421D01*
X196966284Y-80792243D01*
X196875845Y-80970486D01*
X196823086Y-81163967D01*
X196811332Y-81359364D01*
X196841173Y-81547920D01*
X196908874Y-81724419D01*
X197010703Y-81883645D01*
X197142925Y-82020385D01*
X197301808Y-82129422D01*
X197483617Y-82205540D01*
X197586606Y-82230498D01*
X197675999Y-82245608D01*
X197744909Y-82251579D01*
X197811124Y-82247913D01*
X197892434Y-82234113D01*
X197958922Y-82220100D01*
X198146588Y-82156800D01*
X198314681Y-82054096D01*
X198459416Y-81915102D01*
X198577007Y-81742935D01*
X198605029Y-81688214D01*
X198638051Y-81615155D01*
X198658760Y-81553803D01*
X198669941Y-81489252D01*
X198674380Y-81406599D01*
X198674939Y-81314018D01*
X198666729Y-81144549D01*
X198639779Y-81005373D01*
X198589174Y-80883582D01*
X198510002Y-80766272D01*
X198432562Y-80677349D01*
X198288136Y-80545125D01*
X198137279Y-80453855D01*
X197971038Y-80399208D01*
X197815078Y-80378567D01*
X197606380Y-80386594D01*
X197606380Y-80386594D01*
G37*
X197606380Y-80386594D02*
X197412970Y-80435286D01*
X197239029Y-80521332D01*
X197088740Y-80641421D01*
X196966284Y-80792243D01*
X196875845Y-80970486D01*
X196823086Y-81163967D01*
X196811332Y-81359364D01*
X196841173Y-81547920D01*
X196908874Y-81724419D01*
X197010703Y-81883645D01*
X197142925Y-82020385D01*
X197301808Y-82129422D01*
X197483617Y-82205540D01*
X197586606Y-82230498D01*
X197675999Y-82245608D01*
X197744909Y-82251579D01*
X197811124Y-82247913D01*
X197892434Y-82234113D01*
X197958922Y-82220100D01*
X198146588Y-82156800D01*
X198314681Y-82054096D01*
X198459416Y-81915102D01*
X198577007Y-81742935D01*
X198605029Y-81688214D01*
X198638051Y-81615155D01*
X198658760Y-81553803D01*
X198669941Y-81489252D01*
X198674380Y-81406599D01*
X198674939Y-81314018D01*
X198666729Y-81144549D01*
X198639779Y-81005373D01*
X198589174Y-80883582D01*
X198510002Y-80766272D01*
X198432562Y-80677349D01*
X198288136Y-80545125D01*
X198137279Y-80453855D01*
X197971038Y-80399208D01*
X197815078Y-80378567D01*
X197606380Y-80386594D01*
G36*
X180611749Y-85299777D02*
X180611710Y-85770705D01*
X180611658Y-86198488D01*
X180611512Y-86585338D01*
X180611195Y-86933466D01*
X180610629Y-87245085D01*
X180609735Y-87522406D01*
X180608435Y-87767640D01*
X180606651Y-87983001D01*
X180604303Y-88170700D01*
X180601315Y-88332948D01*
X180597607Y-88471957D01*
X180593101Y-88589940D01*
X180587718Y-88689109D01*
X180581381Y-88771674D01*
X180574012Y-88839848D01*
X180565530Y-88895843D01*
X180555859Y-88941870D01*
X180544921Y-88980143D01*
X180532635Y-89012871D01*
X180518925Y-89042268D01*
X180503712Y-89070544D01*
X180486917Y-89099913D01*
X180476484Y-89118207D01*
X180407648Y-89240179D01*
X182131607Y-89240179D01*
X182131607Y-89047411D01*
X182133077Y-88960296D01*
X182136998Y-88893671D01*
X182142641Y-88857950D01*
X182145136Y-88854643D01*
X182168082Y-88868472D01*
X182213714Y-88904317D01*
X182259316Y-88943239D01*
X182368973Y-89025072D01*
X182508550Y-89107445D01*
X182663341Y-89182791D01*
X182818640Y-89243543D01*
X182880620Y-89262926D01*
X183018227Y-89292188D01*
X183184669Y-89312199D01*
X183364254Y-89322331D01*
X183541287Y-89321956D01*
X183700075Y-89310445D01*
X183775803Y-89298777D01*
X184053230Y-89222314D01*
X184308969Y-89106351D01*
X184541645Y-88951942D01*
X184749881Y-88760144D01*
X184932299Y-88532012D01*
X185066499Y-88309426D01*
X185176724Y-88074872D01*
X185261100Y-87835108D01*
X185321361Y-87581996D01*
X185359241Y-87307398D01*
X185376474Y-87003174D01*
X185377934Y-86847589D01*
X185373726Y-86733527D01*
X183708091Y-86733527D01*
X183707673Y-86920495D01*
X183701821Y-87096658D01*
X183690446Y-87251506D01*
X183673460Y-87374527D01*
X183668270Y-87399319D01*
X183604384Y-87614843D01*
X183520694Y-87789670D01*
X183416502Y-87924237D01*
X183291109Y-88018983D01*
X183143815Y-88074350D01*
X182973923Y-88090774D01*
X182780733Y-88068695D01*
X182653214Y-88037111D01*
X182554489Y-88000569D01*
X182445748Y-87948642D01*
X182364062Y-87901026D01*
X182222321Y-87807877D01*
X182222321Y-85497225D01*
X182357738Y-85409701D01*
X182515490Y-85327490D01*
X182684613Y-85273951D01*
X182855621Y-85249996D01*
X183019029Y-85256539D01*
X183165353Y-85294493D01*
X183229546Y-85325770D01*
X183345912Y-85412148D01*
X183444264Y-85526199D01*
X183526940Y-85672092D01*
X183596279Y-85853992D01*
X183654620Y-86076069D01*
X183657194Y-86087857D01*
X183677626Y-86212921D01*
X183692979Y-86369229D01*
X183703163Y-86546268D01*
X183708091Y-86733527D01*
X185373726Y-86733527D01*
X185362161Y-86420058D01*
X185318076Y-86026637D01*
X185245786Y-85667587D01*
X185145394Y-85343170D01*
X185017005Y-85053646D01*
X184860722Y-84799276D01*
X184676650Y-84580321D01*
X184464893Y-84397042D01*
X184374161Y-84334864D01*
X184171362Y-84222068D01*
X183963859Y-84142492D01*
X183742700Y-84093957D01*
X183498934Y-84074280D01*
X183313097Y-84076380D01*
X183052631Y-84098410D01*
X182826438Y-84142236D01*
X182627973Y-84209872D01*
X182450694Y-84303331D01*
X182352527Y-84372060D01*
X182293532Y-84416085D01*
X182249957Y-84446160D01*
X182233464Y-84455000D01*
X182230220Y-84433245D01*
X182227627Y-84371665D01*
X182225660Y-84275788D01*
X182224295Y-84151141D01*
X182223505Y-84003250D01*
X182223265Y-83837644D01*
X182223550Y-83659849D01*
X182224335Y-83475393D01*
X182225594Y-83289803D01*
X182227302Y-83108606D01*
X182229433Y-82937330D01*
X182231963Y-82781501D01*
X182234865Y-82646648D01*
X182238114Y-82538297D01*
X182241685Y-82461975D01*
X182242673Y-82447946D01*
X182257895Y-82306486D01*
X182281121Y-82195696D01*
X182316757Y-82101032D01*
X182369209Y-82007952D01*
X182381799Y-81988705D01*
X182430882Y-81915000D01*
X180612143Y-81915000D01*
X180611749Y-85299777D01*
X180611749Y-85299777D01*
G37*
X180611749Y-85299777D02*
X180611710Y-85770705D01*
X180611658Y-86198488D01*
X180611512Y-86585338D01*
X180611195Y-86933466D01*
X180610629Y-87245085D01*
X180609735Y-87522406D01*
X180608435Y-87767640D01*
X180606651Y-87983001D01*
X180604303Y-88170700D01*
X180601315Y-88332948D01*
X180597607Y-88471957D01*
X180593101Y-88589940D01*
X180587718Y-88689109D01*
X180581381Y-88771674D01*
X180574012Y-88839848D01*
X180565530Y-88895843D01*
X180555859Y-88941870D01*
X180544921Y-88980143D01*
X180532635Y-89012871D01*
X180518925Y-89042268D01*
X180503712Y-89070544D01*
X180486917Y-89099913D01*
X180476484Y-89118207D01*
X180407648Y-89240179D01*
X182131607Y-89240179D01*
X182131607Y-89047411D01*
X182133077Y-88960296D01*
X182136998Y-88893671D01*
X182142641Y-88857950D01*
X182145136Y-88854643D01*
X182168082Y-88868472D01*
X182213714Y-88904317D01*
X182259316Y-88943239D01*
X182368973Y-89025072D01*
X182508550Y-89107445D01*
X182663341Y-89182791D01*
X182818640Y-89243543D01*
X182880620Y-89262926D01*
X183018227Y-89292188D01*
X183184669Y-89312199D01*
X183364254Y-89322331D01*
X183541287Y-89321956D01*
X183700075Y-89310445D01*
X183775803Y-89298777D01*
X184053230Y-89222314D01*
X184308969Y-89106351D01*
X184541645Y-88951942D01*
X184749881Y-88760144D01*
X184932299Y-88532012D01*
X185066499Y-88309426D01*
X185176724Y-88074872D01*
X185261100Y-87835108D01*
X185321361Y-87581996D01*
X185359241Y-87307398D01*
X185376474Y-87003174D01*
X185377934Y-86847589D01*
X185373726Y-86733527D01*
X183708091Y-86733527D01*
X183707673Y-86920495D01*
X183701821Y-87096658D01*
X183690446Y-87251506D01*
X183673460Y-87374527D01*
X183668270Y-87399319D01*
X183604384Y-87614843D01*
X183520694Y-87789670D01*
X183416502Y-87924237D01*
X183291109Y-88018983D01*
X183143815Y-88074350D01*
X182973923Y-88090774D01*
X182780733Y-88068695D01*
X182653214Y-88037111D01*
X182554489Y-88000569D01*
X182445748Y-87948642D01*
X182364062Y-87901026D01*
X182222321Y-87807877D01*
X182222321Y-85497225D01*
X182357738Y-85409701D01*
X182515490Y-85327490D01*
X182684613Y-85273951D01*
X182855621Y-85249996D01*
X183019029Y-85256539D01*
X183165353Y-85294493D01*
X183229546Y-85325770D01*
X183345912Y-85412148D01*
X183444264Y-85526199D01*
X183526940Y-85672092D01*
X183596279Y-85853992D01*
X183654620Y-86076069D01*
X183657194Y-86087857D01*
X183677626Y-86212921D01*
X183692979Y-86369229D01*
X183703163Y-86546268D01*
X183708091Y-86733527D01*
X185373726Y-86733527D01*
X185362161Y-86420058D01*
X185318076Y-86026637D01*
X185245786Y-85667587D01*
X185145394Y-85343170D01*
X185017005Y-85053646D01*
X184860722Y-84799276D01*
X184676650Y-84580321D01*
X184464893Y-84397042D01*
X184374161Y-84334864D01*
X184171362Y-84222068D01*
X183963859Y-84142492D01*
X183742700Y-84093957D01*
X183498934Y-84074280D01*
X183313097Y-84076380D01*
X183052631Y-84098410D01*
X182826438Y-84142236D01*
X182627973Y-84209872D01*
X182450694Y-84303331D01*
X182352527Y-84372060D01*
X182293532Y-84416085D01*
X182249957Y-84446160D01*
X182233464Y-84455000D01*
X182230220Y-84433245D01*
X182227627Y-84371665D01*
X182225660Y-84275788D01*
X182224295Y-84151141D01*
X182223505Y-84003250D01*
X182223265Y-83837644D01*
X182223550Y-83659849D01*
X182224335Y-83475393D01*
X182225594Y-83289803D01*
X182227302Y-83108606D01*
X182229433Y-82937330D01*
X182231963Y-82781501D01*
X182234865Y-82646648D01*
X182238114Y-82538297D01*
X182241685Y-82461975D01*
X182242673Y-82447946D01*
X182257895Y-82306486D01*
X182281121Y-82195696D01*
X182316757Y-82101032D01*
X182369209Y-82007952D01*
X182381799Y-81988705D01*
X182430882Y-81915000D01*
X180612143Y-81915000D01*
X180611749Y-85299777D01*
G36*
X187668981Y-84082984D02*
X187363788Y-84123192D01*
X187092052Y-84190762D01*
X186852019Y-84286233D01*
X186641934Y-84410143D01*
X186486022Y-84537831D01*
X186347726Y-84686761D01*
X186239764Y-84847017D01*
X186153573Y-85032281D01*
X186122486Y-85118805D01*
X186096653Y-85197115D01*
X186074149Y-85269732D01*
X186054714Y-85340336D01*
X186038088Y-85412610D01*
X186024011Y-85490234D01*
X186012221Y-85576890D01*
X186002460Y-85676259D01*
X185994465Y-85792022D01*
X185987978Y-85927861D01*
X185982736Y-86087457D01*
X185978481Y-86274491D01*
X185974952Y-86492644D01*
X185971888Y-86745598D01*
X185969028Y-87037033D01*
X185966513Y-87323839D01*
X185963848Y-87637615D01*
X185961426Y-87909364D01*
X185958996Y-88142413D01*
X185956305Y-88340090D01*
X185953101Y-88505722D01*
X185949134Y-88642636D01*
X185944149Y-88754160D01*
X185937897Y-88843622D01*
X185930124Y-88914348D01*
X185920580Y-88969666D01*
X185909011Y-89012903D01*
X185895166Y-89047388D01*
X185878793Y-89076446D01*
X185859641Y-89103406D01*
X185837457Y-89131594D01*
X185828817Y-89142509D01*
X185797037Y-89188390D01*
X185782902Y-89219635D01*
X185782857Y-89220558D01*
X185804708Y-89224975D01*
X185866956Y-89229045D01*
X185964639Y-89232652D01*
X186092796Y-89235683D01*
X186246468Y-89238023D01*
X186420693Y-89239558D01*
X186610510Y-89240172D01*
X186632420Y-89240179D01*
X187481984Y-89240179D01*
X187488536Y-89047188D01*
X187495089Y-88854197D01*
X187619821Y-88956627D01*
X187815350Y-89092257D01*
X188036134Y-89202129D01*
X188209835Y-89262857D01*
X188348593Y-89292365D01*
X188516042Y-89312440D01*
X188696376Y-89322458D01*
X188873793Y-89321790D01*
X189032487Y-89309812D01*
X189105268Y-89298334D01*
X189386555Y-89222272D01*
X189640535Y-89112096D01*
X189865371Y-88969446D01*
X190059226Y-88795962D01*
X190220266Y-88593284D01*
X190346654Y-88363054D01*
X190435801Y-88109745D01*
X190460580Y-87996073D01*
X190475867Y-87871119D01*
X190483157Y-87720774D01*
X190484151Y-87652679D01*
X190484020Y-87646280D01*
X188957359Y-87646280D01*
X188938688Y-87797053D01*
X188882063Y-87925277D01*
X188784693Y-88037050D01*
X188774534Y-88045914D01*
X188677514Y-88115879D01*
X188573635Y-88161244D01*
X188451629Y-88185192D01*
X188300230Y-88190904D01*
X188263853Y-88190090D01*
X188155736Y-88184761D01*
X188075319Y-88173880D01*
X188004973Y-88153462D01*
X187927069Y-88119520D01*
X187905690Y-88109117D01*
X187783846Y-88037141D01*
X187689791Y-87951496D01*
X187664203Y-87920884D01*
X187574464Y-87807356D01*
X187574464Y-87413855D01*
X187575540Y-87255860D01*
X187578935Y-87139441D01*
X187584898Y-87060865D01*
X187593679Y-87016399D01*
X187601885Y-87003408D01*
X187633878Y-86997052D01*
X187701746Y-86991784D01*
X187796013Y-86988101D01*
X187907200Y-86986499D01*
X187925055Y-86986469D01*
X188167684Y-86997023D01*
X188373941Y-87029502D01*
X188547821Y-87085145D01*
X188693319Y-87165195D01*
X188803669Y-87259514D01*
X188893161Y-87375804D01*
X188942830Y-87502463D01*
X188957359Y-87646280D01*
X190484020Y-87646280D01*
X190480267Y-87464331D01*
X190463504Y-87305828D01*
X190430867Y-87162747D01*
X190379365Y-87020665D01*
X190331158Y-86915454D01*
X190213397Y-86724009D01*
X190056506Y-86547171D01*
X189865259Y-86388160D01*
X189644431Y-86250192D01*
X189398795Y-86136488D01*
X189133126Y-86050265D01*
X189003214Y-86020253D01*
X188729635Y-85975846D01*
X188431418Y-85946549D01*
X188127154Y-85933731D01*
X187872907Y-85937010D01*
X187547688Y-85950629D01*
X187562594Y-85832145D01*
X187601352Y-85632953D01*
X187663897Y-85470792D01*
X187751959Y-85344418D01*
X187867268Y-85252590D01*
X188011554Y-85194063D01*
X188186547Y-85167594D01*
X188393978Y-85171941D01*
X188470268Y-85179979D01*
X188753909Y-85230539D01*
X189028757Y-85312974D01*
X189218660Y-85389316D01*
X189309383Y-85428238D01*
X189386591Y-85459518D01*
X189439529Y-85478893D01*
X189454974Y-85483007D01*
X189474550Y-85464769D01*
X189508136Y-85406571D01*
X189556050Y-85307757D01*
X189618607Y-85167669D01*
X189696123Y-84985649D01*
X189709377Y-84953929D01*
X189769758Y-84808649D01*
X189823958Y-84677371D01*
X189869636Y-84565837D01*
X189904452Y-84479787D01*
X189926064Y-84424961D01*
X189932305Y-84407204D01*
X189912218Y-84397652D01*
X189859430Y-84387051D01*
X189802634Y-84379659D01*
X189742050Y-84370103D01*
X189646049Y-84351128D01*
X189523144Y-84324594D01*
X189381850Y-84292361D01*
X189230680Y-84256289D01*
X189173303Y-84242182D01*
X188962243Y-84190777D01*
X188786133Y-84150473D01*
X188636291Y-84119982D01*
X188504033Y-84098016D01*
X188380676Y-84083289D01*
X188257540Y-84074511D01*
X188125939Y-84070397D01*
X188009386Y-84069598D01*
X187668981Y-84082984D01*
X187668981Y-84082984D01*
G37*
X187668981Y-84082984D02*
X187363788Y-84123192D01*
X187092052Y-84190762D01*
X186852019Y-84286233D01*
X186641934Y-84410143D01*
X186486022Y-84537831D01*
X186347726Y-84686761D01*
X186239764Y-84847017D01*
X186153573Y-85032281D01*
X186122486Y-85118805D01*
X186096653Y-85197115D01*
X186074149Y-85269732D01*
X186054714Y-85340336D01*
X186038088Y-85412610D01*
X186024011Y-85490234D01*
X186012221Y-85576890D01*
X186002460Y-85676259D01*
X185994465Y-85792022D01*
X185987978Y-85927861D01*
X185982736Y-86087457D01*
X185978481Y-86274491D01*
X185974952Y-86492644D01*
X185971888Y-86745598D01*
X185969028Y-87037033D01*
X185966513Y-87323839D01*
X185963848Y-87637615D01*
X185961426Y-87909364D01*
X185958996Y-88142413D01*
X185956305Y-88340090D01*
X185953101Y-88505722D01*
X185949134Y-88642636D01*
X185944149Y-88754160D01*
X185937897Y-88843622D01*
X185930124Y-88914348D01*
X185920580Y-88969666D01*
X185909011Y-89012903D01*
X185895166Y-89047388D01*
X185878793Y-89076446D01*
X185859641Y-89103406D01*
X185837457Y-89131594D01*
X185828817Y-89142509D01*
X185797037Y-89188390D01*
X185782902Y-89219635D01*
X185782857Y-89220558D01*
X185804708Y-89224975D01*
X185866956Y-89229045D01*
X185964639Y-89232652D01*
X186092796Y-89235683D01*
X186246468Y-89238023D01*
X186420693Y-89239558D01*
X186610510Y-89240172D01*
X186632420Y-89240179D01*
X187481984Y-89240179D01*
X187488536Y-89047188D01*
X187495089Y-88854197D01*
X187619821Y-88956627D01*
X187815350Y-89092257D01*
X188036134Y-89202129D01*
X188209835Y-89262857D01*
X188348593Y-89292365D01*
X188516042Y-89312440D01*
X188696376Y-89322458D01*
X188873793Y-89321790D01*
X189032487Y-89309812D01*
X189105268Y-89298334D01*
X189386555Y-89222272D01*
X189640535Y-89112096D01*
X189865371Y-88969446D01*
X190059226Y-88795962D01*
X190220266Y-88593284D01*
X190346654Y-88363054D01*
X190435801Y-88109745D01*
X190460580Y-87996073D01*
X190475867Y-87871119D01*
X190483157Y-87720774D01*
X190484151Y-87652679D01*
X190484020Y-87646280D01*
X188957359Y-87646280D01*
X188938688Y-87797053D01*
X188882063Y-87925277D01*
X188784693Y-88037050D01*
X188774534Y-88045914D01*
X188677514Y-88115879D01*
X188573635Y-88161244D01*
X188451629Y-88185192D01*
X188300230Y-88190904D01*
X188263853Y-88190090D01*
X188155736Y-88184761D01*
X188075319Y-88173880D01*
X188004973Y-88153462D01*
X187927069Y-88119520D01*
X187905690Y-88109117D01*
X187783846Y-88037141D01*
X187689791Y-87951496D01*
X187664203Y-87920884D01*
X187574464Y-87807356D01*
X187574464Y-87413855D01*
X187575540Y-87255860D01*
X187578935Y-87139441D01*
X187584898Y-87060865D01*
X187593679Y-87016399D01*
X187601885Y-87003408D01*
X187633878Y-86997052D01*
X187701746Y-86991784D01*
X187796013Y-86988101D01*
X187907200Y-86986499D01*
X187925055Y-86986469D01*
X188167684Y-86997023D01*
X188373941Y-87029502D01*
X188547821Y-87085145D01*
X188693319Y-87165195D01*
X188803669Y-87259514D01*
X188893161Y-87375804D01*
X188942830Y-87502463D01*
X188957359Y-87646280D01*
X190484020Y-87646280D01*
X190480267Y-87464331D01*
X190463504Y-87305828D01*
X190430867Y-87162747D01*
X190379365Y-87020665D01*
X190331158Y-86915454D01*
X190213397Y-86724009D01*
X190056506Y-86547171D01*
X189865259Y-86388160D01*
X189644431Y-86250192D01*
X189398795Y-86136488D01*
X189133126Y-86050265D01*
X189003214Y-86020253D01*
X188729635Y-85975846D01*
X188431418Y-85946549D01*
X188127154Y-85933731D01*
X187872907Y-85937010D01*
X187547688Y-85950629D01*
X187562594Y-85832145D01*
X187601352Y-85632953D01*
X187663897Y-85470792D01*
X187751959Y-85344418D01*
X187867268Y-85252590D01*
X188011554Y-85194063D01*
X188186547Y-85167594D01*
X188393978Y-85171941D01*
X188470268Y-85179979D01*
X188753909Y-85230539D01*
X189028757Y-85312974D01*
X189218660Y-85389316D01*
X189309383Y-85428238D01*
X189386591Y-85459518D01*
X189439529Y-85478893D01*
X189454974Y-85483007D01*
X189474550Y-85464769D01*
X189508136Y-85406571D01*
X189556050Y-85307757D01*
X189618607Y-85167669D01*
X189696123Y-84985649D01*
X189709377Y-84953929D01*
X189769758Y-84808649D01*
X189823958Y-84677371D01*
X189869636Y-84565837D01*
X189904452Y-84479787D01*
X189926064Y-84424961D01*
X189932305Y-84407204D01*
X189912218Y-84397652D01*
X189859430Y-84387051D01*
X189802634Y-84379659D01*
X189742050Y-84370103D01*
X189646049Y-84351128D01*
X189523144Y-84324594D01*
X189381850Y-84292361D01*
X189230680Y-84256289D01*
X189173303Y-84242182D01*
X188962243Y-84190777D01*
X188786133Y-84150473D01*
X188636291Y-84119982D01*
X188504033Y-84098016D01*
X188380676Y-84083289D01*
X188257540Y-84074511D01*
X188125939Y-84070397D01*
X188009386Y-84069598D01*
X187668981Y-84082984D01*
G36*
X192380209Y-82239830D02*
X192058497Y-82282366D01*
X191729153Y-82363005D01*
X191388031Y-82482544D01*
X191030985Y-82641783D01*
X191008349Y-82652922D01*
X190892444Y-82709223D01*
X190788889Y-82757593D01*
X190705240Y-82794652D01*
X190649049Y-82817025D01*
X190629821Y-82822143D01*
X190591216Y-82832203D01*
X190581952Y-82840652D01*
X190592204Y-82861611D01*
X190624427Y-82914422D01*
X190674912Y-82993551D01*
X190739949Y-83093463D01*
X190815828Y-83208625D01*
X190898839Y-83333501D01*
X190985271Y-83462558D01*
X191071417Y-83590261D01*
X191153564Y-83711076D01*
X191228004Y-83819469D01*
X191291026Y-83909905D01*
X191338921Y-83976851D01*
X191367979Y-84014771D01*
X191371967Y-84019169D01*
X191392294Y-84009831D01*
X191437175Y-83975324D01*
X191498589Y-83922045D01*
X191530217Y-83892963D01*
X191724057Y-83741728D01*
X191938431Y-83630351D01*
X192170471Y-83559836D01*
X192417308Y-83531188D01*
X192556728Y-83533540D01*
X192800087Y-83568015D01*
X193019498Y-83640100D01*
X193215615Y-83750320D01*
X193389095Y-83899203D01*
X193540593Y-84087275D01*
X193670766Y-84315064D01*
X193745935Y-84489018D01*
X193834032Y-84761629D01*
X193898961Y-85057913D01*
X193940890Y-85370229D01*
X193959987Y-85690938D01*
X193956418Y-86012400D01*
X193930351Y-86326975D01*
X193881953Y-86627022D01*
X193811391Y-86904901D01*
X193718833Y-87152973D01*
X193686124Y-87221786D01*
X193549022Y-87450977D01*
X193387384Y-87644824D01*
X193203585Y-87801748D01*
X192999999Y-87920168D01*
X192778999Y-87998506D01*
X192542960Y-88035181D01*
X192459654Y-88037879D01*
X192215452Y-88015940D01*
X191973502Y-87950014D01*
X191736875Y-87841463D01*
X191508638Y-87691648D01*
X191325007Y-87534296D01*
X191231531Y-87444837D01*
X190867377Y-88042017D01*
X190776779Y-88191004D01*
X190693935Y-88328039D01*
X190621782Y-88448199D01*
X190563259Y-88546558D01*
X190521305Y-88618194D01*
X190498858Y-88658182D01*
X190495941Y-88664399D01*
X190512473Y-88683764D01*
X190563859Y-88718479D01*
X190643602Y-88765256D01*
X190745206Y-88820805D01*
X190862172Y-88881839D01*
X190988004Y-88945070D01*
X191116206Y-89007209D01*
X191240280Y-89064968D01*
X191353729Y-89115060D01*
X191450056Y-89154196D01*
X191497170Y-89171130D01*
X191765895Y-89247097D01*
X192042914Y-89297326D01*
X192339643Y-89323450D01*
X192594352Y-89328127D01*
X192730870Y-89325928D01*
X192862658Y-89321714D01*
X192978031Y-89316005D01*
X193065305Y-89309320D01*
X193093641Y-89305938D01*
X193372912Y-89248010D01*
X193657229Y-89157368D01*
X193933421Y-89039408D01*
X194188314Y-88899527D01*
X194344018Y-88793697D01*
X194599970Y-88576328D01*
X194837632Y-88322063D01*
X195052601Y-88037187D01*
X195240475Y-87727982D01*
X195396853Y-87400731D01*
X195484954Y-87165089D01*
X195585898Y-86796195D01*
X195653194Y-86405364D01*
X195686865Y-86001055D01*
X195686931Y-85591722D01*
X195653412Y-85185823D01*
X195586331Y-84791814D01*
X195485708Y-84418152D01*
X195478041Y-84394872D01*
X195351713Y-84069318D01*
X195197533Y-83772163D01*
X195010272Y-83494996D01*
X194784699Y-83229408D01*
X194696577Y-83138479D01*
X194423077Y-82889489D01*
X194141915Y-82683489D01*
X193848773Y-82518237D01*
X193539335Y-82391490D01*
X193209287Y-82301005D01*
X193017321Y-82265869D01*
X192698435Y-82234597D01*
X192380209Y-82239830D01*
X192380209Y-82239830D01*
G37*
X192380209Y-82239830D02*
X192058497Y-82282366D01*
X191729153Y-82363005D01*
X191388031Y-82482544D01*
X191030985Y-82641783D01*
X191008349Y-82652922D01*
X190892444Y-82709223D01*
X190788889Y-82757593D01*
X190705240Y-82794652D01*
X190649049Y-82817025D01*
X190629821Y-82822143D01*
X190591216Y-82832203D01*
X190581952Y-82840652D01*
X190592204Y-82861611D01*
X190624427Y-82914422D01*
X190674912Y-82993551D01*
X190739949Y-83093463D01*
X190815828Y-83208625D01*
X190898839Y-83333501D01*
X190985271Y-83462558D01*
X191071417Y-83590261D01*
X191153564Y-83711076D01*
X191228004Y-83819469D01*
X191291026Y-83909905D01*
X191338921Y-83976851D01*
X191367979Y-84014771D01*
X191371967Y-84019169D01*
X191392294Y-84009831D01*
X191437175Y-83975324D01*
X191498589Y-83922045D01*
X191530217Y-83892963D01*
X191724057Y-83741728D01*
X191938431Y-83630351D01*
X192170471Y-83559836D01*
X192417308Y-83531188D01*
X192556728Y-83533540D01*
X192800087Y-83568015D01*
X193019498Y-83640100D01*
X193215615Y-83750320D01*
X193389095Y-83899203D01*
X193540593Y-84087275D01*
X193670766Y-84315064D01*
X193745935Y-84489018D01*
X193834032Y-84761629D01*
X193898961Y-85057913D01*
X193940890Y-85370229D01*
X193959987Y-85690938D01*
X193956418Y-86012400D01*
X193930351Y-86326975D01*
X193881953Y-86627022D01*
X193811391Y-86904901D01*
X193718833Y-87152973D01*
X193686124Y-87221786D01*
X193549022Y-87450977D01*
X193387384Y-87644824D01*
X193203585Y-87801748D01*
X192999999Y-87920168D01*
X192778999Y-87998506D01*
X192542960Y-88035181D01*
X192459654Y-88037879D01*
X192215452Y-88015940D01*
X191973502Y-87950014D01*
X191736875Y-87841463D01*
X191508638Y-87691648D01*
X191325007Y-87534296D01*
X191231531Y-87444837D01*
X190867377Y-88042017D01*
X190776779Y-88191004D01*
X190693935Y-88328039D01*
X190621782Y-88448199D01*
X190563259Y-88546558D01*
X190521305Y-88618194D01*
X190498858Y-88658182D01*
X190495941Y-88664399D01*
X190512473Y-88683764D01*
X190563859Y-88718479D01*
X190643602Y-88765256D01*
X190745206Y-88820805D01*
X190862172Y-88881839D01*
X190988004Y-88945070D01*
X191116206Y-89007209D01*
X191240280Y-89064968D01*
X191353729Y-89115060D01*
X191450056Y-89154196D01*
X191497170Y-89171130D01*
X191765895Y-89247097D01*
X192042914Y-89297326D01*
X192339643Y-89323450D01*
X192594352Y-89328127D01*
X192730870Y-89325928D01*
X192862658Y-89321714D01*
X192978031Y-89316005D01*
X193065305Y-89309320D01*
X193093641Y-89305938D01*
X193372912Y-89248010D01*
X193657229Y-89157368D01*
X193933421Y-89039408D01*
X194188314Y-88899527D01*
X194344018Y-88793697D01*
X194599970Y-88576328D01*
X194837632Y-88322063D01*
X195052601Y-88037187D01*
X195240475Y-87727982D01*
X195396853Y-87400731D01*
X195484954Y-87165089D01*
X195585898Y-86796195D01*
X195653194Y-86405364D01*
X195686865Y-86001055D01*
X195686931Y-85591722D01*
X195653412Y-85185823D01*
X195586331Y-84791814D01*
X195485708Y-84418152D01*
X195478041Y-84394872D01*
X195351713Y-84069318D01*
X195197533Y-83772163D01*
X195010272Y-83494996D01*
X194784699Y-83229408D01*
X194696577Y-83138479D01*
X194423077Y-82889489D01*
X194141915Y-82683489D01*
X193848773Y-82518237D01*
X193539335Y-82391490D01*
X193209287Y-82301005D01*
X193017321Y-82265869D01*
X192698435Y-82234597D01*
X192380209Y-82239830D01*
G36*
X198959107Y-81315689D02*
X198937280Y-81544585D01*
X198873763Y-81760791D01*
X198771503Y-81959673D01*
X198633446Y-82136597D01*
X198462538Y-82286929D01*
X198267698Y-82403181D01*
X198054212Y-82482777D01*
X197839229Y-82520080D01*
X197626986Y-82517791D01*
X197421724Y-82478609D01*
X197227680Y-82405234D01*
X197049093Y-82300368D01*
X196890204Y-82166708D01*
X196755250Y-82006957D01*
X196648471Y-81823814D01*
X196574105Y-81619978D01*
X196536392Y-81398151D01*
X196532500Y-81297914D01*
X196532500Y-81121250D01*
X196428178Y-81121250D01*
X196355239Y-81126965D01*
X196301204Y-81150669D01*
X196246750Y-81198357D01*
X196169643Y-81275464D01*
X196169643Y-85678173D01*
X196169661Y-86204789D01*
X196169726Y-86687939D01*
X196169854Y-87129515D01*
X196170062Y-87531409D01*
X196170366Y-87895512D01*
X196170783Y-88223715D01*
X196171328Y-88517911D01*
X196172019Y-88779990D01*
X196172872Y-89011845D01*
X196173902Y-89215366D01*
X196175127Y-89392446D01*
X196176563Y-89544976D01*
X196178226Y-89674847D01*
X196180133Y-89783951D01*
X196182299Y-89874179D01*
X196184742Y-89947424D01*
X196187478Y-90005576D01*
X196190523Y-90050528D01*
X196193893Y-90084170D01*
X196197606Y-90108395D01*
X196201676Y-90125093D01*
X196206122Y-90136157D01*
X196208296Y-90139874D01*
X196216659Y-90153960D01*
X196223760Y-90166911D01*
X196231453Y-90178772D01*
X196241593Y-90189593D01*
X196256034Y-90199420D01*
X196276631Y-90208300D01*
X196305239Y-90216282D01*
X196343711Y-90223412D01*
X196393903Y-90229738D01*
X196457669Y-90235308D01*
X196536864Y-90240168D01*
X196633342Y-90244366D01*
X196748958Y-90247950D01*
X196885565Y-90250968D01*
X197045020Y-90253465D01*
X197229175Y-90255490D01*
X197439886Y-90257091D01*
X197679008Y-90258314D01*
X197948395Y-90259208D01*
X198249900Y-90259819D01*
X198585380Y-90260194D01*
X198956688Y-90260383D01*
X199365679Y-90260431D01*
X199814208Y-90260386D01*
X200304128Y-90260295D01*
X200837295Y-90260207D01*
X200914405Y-90260198D01*
X201450745Y-90260111D01*
X201943575Y-90259969D01*
X202394742Y-90259758D01*
X202806093Y-90259462D01*
X203179476Y-90259067D01*
X203516738Y-90258559D01*
X203819725Y-90257924D01*
X204090286Y-90257146D01*
X204330267Y-90256211D01*
X204541515Y-90255105D01*
X204725878Y-90253813D01*
X204885202Y-90252320D01*
X205021335Y-90250613D01*
X205136125Y-90248676D01*
X205231417Y-90246496D01*
X205309060Y-90244057D01*
X205370900Y-90241345D01*
X205418785Y-90238346D01*
X205454562Y-90235045D01*
X205480078Y-90231427D01*
X205497181Y-90227479D01*
X205505935Y-90224127D01*
X205522935Y-90216954D01*
X205538542Y-90211659D01*
X205552816Y-90206362D01*
X205565816Y-90199188D01*
X205577600Y-90188256D01*
X205588228Y-90171691D01*
X205597759Y-90147614D01*
X205606253Y-90114147D01*
X205613769Y-90069413D01*
X205620366Y-90011533D01*
X205626104Y-89938631D01*
X205631040Y-89848828D01*
X205635236Y-89740246D01*
X205638750Y-89611007D01*
X205641641Y-89459235D01*
X205643968Y-89283050D01*
X205645791Y-89080576D01*
X205647170Y-88849935D01*
X205648162Y-88589248D01*
X205648828Y-88296638D01*
X205649227Y-87970227D01*
X205649417Y-87608138D01*
X205649459Y-87208492D01*
X205649412Y-86769412D01*
X205649334Y-86289020D01*
X205649286Y-85765438D01*
X205649285Y-85680759D01*
X205649313Y-85152618D01*
X205649363Y-84667943D01*
X205649385Y-84224841D01*
X205649326Y-83821421D01*
X205649136Y-83455791D01*
X205648763Y-83126060D01*
X205648154Y-82830334D01*
X205647260Y-82566724D01*
X205646096Y-82345893D01*
X205037716Y-82345893D01*
X204957781Y-82462098D01*
X204935340Y-82493775D01*
X204915109Y-82521823D01*
X204896973Y-82548628D01*
X204880820Y-82576571D01*
X204866534Y-82608036D01*
X204854001Y-82645406D01*
X204843107Y-82691066D01*
X204833739Y-82747399D01*
X204825782Y-82816787D01*
X204819122Y-82901614D01*
X204813644Y-83004264D01*
X204809236Y-83127120D01*
X204805782Y-83272566D01*
X204803168Y-83442984D01*
X204801281Y-83640759D01*
X204800006Y-83868274D01*
X204799230Y-84127911D01*
X204798837Y-84422055D01*
X204798714Y-84753090D01*
X204798747Y-85123397D01*
X204798822Y-85535361D01*
X204798839Y-85781696D01*
X204798791Y-86217532D01*
X204798723Y-86610396D01*
X204798747Y-86962675D01*
X204798977Y-87276756D01*
X204799525Y-87555025D01*
X204800504Y-87799867D01*
X204802028Y-88013669D01*
X204804209Y-88198817D01*
X204807160Y-88357696D01*
X204810994Y-88492694D01*
X204815825Y-88606196D01*
X204821765Y-88700588D01*
X204828926Y-88778257D01*
X204837423Y-88841588D01*
X204847368Y-88892968D01*
X204858873Y-88934783D01*
X204872053Y-88969418D01*
X204887019Y-88999261D01*
X204903885Y-89026696D01*
X204922764Y-89054111D01*
X204943768Y-89083891D01*
X204956004Y-89101752D01*
X205033897Y-89217500D01*
X203966023Y-89217500D01*
X203718425Y-89217430D01*
X203512518Y-89217128D01*
X203344637Y-89216452D01*
X203211116Y-89215261D01*
X203108290Y-89213415D01*
X203032492Y-89210772D01*
X202980057Y-89207193D01*
X202947320Y-89202535D01*
X202930614Y-89196659D01*
X202926275Y-89189423D01*
X202930636Y-89180686D01*
X202933039Y-89177812D01*
X202983563Y-89103339D01*
X203035590Y-88997265D01*
X203083019Y-88872708D01*
X203099631Y-88819646D01*
X203108906Y-88783603D01*
X203116744Y-88741293D01*
X203123310Y-88688526D01*
X203128769Y-88621113D01*
X203133288Y-88534863D01*
X203137030Y-88425588D01*
X203140161Y-88289098D01*
X203142845Y-88121203D01*
X203145249Y-87917714D01*
X203147537Y-87674441D01*
X203148295Y-87584643D01*
X203150337Y-87333223D01*
X203151861Y-87123557D01*
X203152750Y-86952046D01*
X203152886Y-86815088D01*
X203152152Y-86709082D01*
X203150430Y-86630429D01*
X203147604Y-86575527D01*
X203143555Y-86540776D01*
X203138166Y-86522575D01*
X203131321Y-86517323D01*
X203122901Y-86521420D01*
X203113913Y-86530089D01*
X203093111Y-86556075D01*
X203048798Y-86614483D01*
X202984109Y-86701033D01*
X202902179Y-86811443D01*
X202806144Y-86941430D01*
X202699139Y-87086714D01*
X202584299Y-87243013D01*
X202464760Y-87406045D01*
X202343658Y-87571529D01*
X202224127Y-87735183D01*
X202109304Y-87892725D01*
X202002322Y-88039874D01*
X201906318Y-88172349D01*
X201824428Y-88285866D01*
X201759786Y-88376146D01*
X201715528Y-88438907D01*
X201706351Y-88452231D01*
X201660303Y-88526366D01*
X201606447Y-88622774D01*
X201555423Y-88722292D01*
X201548953Y-88735713D01*
X201505404Y-88832534D01*
X201480119Y-88907992D01*
X201468608Y-88979963D01*
X201466362Y-89064420D01*
X201467635Y-89217500D01*
X199148450Y-89217500D01*
X199331591Y-89029201D01*
X199425603Y-88928967D01*
X199526627Y-88815504D01*
X199619127Y-88706480D01*
X199660160Y-88655549D01*
X199721309Y-88576105D01*
X199801775Y-88469207D01*
X199899207Y-88338126D01*
X200011252Y-88186138D01*
X200135557Y-88016516D01*
X200269769Y-87832532D01*
X200411536Y-87637462D01*
X200558505Y-87434577D01*
X200708322Y-87227153D01*
X200858636Y-87018462D01*
X201007094Y-86811779D01*
X201151342Y-86610376D01*
X201289029Y-86417527D01*
X201417801Y-86236506D01*
X201535306Y-86070586D01*
X201639190Y-85923041D01*
X201727102Y-85797145D01*
X201796688Y-85696171D01*
X201845595Y-85623393D01*
X201871472Y-85582084D01*
X201875004Y-85573843D01*
X201859014Y-85551089D01*
X201817239Y-85496486D01*
X201752416Y-85413451D01*
X201667284Y-85305400D01*
X201564581Y-85175749D01*
X201447045Y-85027914D01*
X201317416Y-84865312D01*
X201178432Y-84691360D01*
X201032830Y-84509472D01*
X200883350Y-84323066D01*
X200763358Y-84173687D01*
X198732321Y-84173687D01*
X198720449Y-84199717D01*
X198691662Y-84244414D01*
X198689558Y-84247392D01*
X198651816Y-84307967D01*
X198612347Y-84381959D01*
X198604514Y-84398304D01*
X198597410Y-84415237D01*
X198591132Y-84435565D01*
X198585618Y-84462086D01*
X198580809Y-84497598D01*
X198576644Y-84544901D01*
X198573061Y-84606794D01*
X198570001Y-84686074D01*
X198567404Y-84785541D01*
X198565208Y-84907993D01*
X198563353Y-85056228D01*
X198561779Y-85233046D01*
X198560424Y-85441246D01*
X198559230Y-85683625D01*
X198558134Y-85962983D01*
X198557077Y-86282118D01*
X198556004Y-86641428D01*
X198554923Y-87013317D01*
X198554050Y-87342658D01*
X198553521Y-87632261D01*
X198553471Y-87884935D01*
X198554036Y-88103490D01*
X198555350Y-88290735D01*
X198557550Y-88449480D01*
X198560771Y-88582535D01*
X198565149Y-88692708D01*
X198570818Y-88782809D01*
X198577914Y-88855648D01*
X198586573Y-88914034D01*
X198596930Y-88960777D01*
X198609121Y-88998686D01*
X198623280Y-89030570D01*
X198639544Y-89059240D01*
X198658047Y-89087504D01*
X198675124Y-89112550D01*
X198709549Y-89165373D01*
X198729932Y-89200698D01*
X198732321Y-89207168D01*
X198710410Y-89209332D01*
X198647745Y-89211342D01*
X198548930Y-89213150D01*
X198418569Y-89214708D01*
X198261265Y-89215967D01*
X198081621Y-89216880D01*
X197884241Y-89217398D01*
X197745803Y-89217500D01*
X197534880Y-89217057D01*
X197340331Y-89215788D01*
X197166554Y-89213782D01*
X197017944Y-89211126D01*
X196898898Y-89207910D01*
X196813812Y-89204223D01*
X196767084Y-89200153D01*
X196759285Y-89197598D01*
X196774749Y-89167659D01*
X196790818Y-89151527D01*
X196817279Y-89117121D01*
X196851912Y-89056349D01*
X196875862Y-89007009D01*
X196929375Y-88888661D01*
X196935552Y-86524420D01*
X196941730Y-84160178D01*
X197837026Y-84160179D01*
X198033532Y-84160509D01*
X198215127Y-84161450D01*
X198376979Y-84162930D01*
X198514253Y-84164875D01*
X198622120Y-84167214D01*
X198695745Y-84169872D01*
X198730297Y-84172777D01*
X198732321Y-84173687D01*
X200763358Y-84173687D01*
X200732729Y-84135558D01*
X200583707Y-83950364D01*
X200439021Y-83770901D01*
X200301411Y-83600584D01*
X200173614Y-83442831D01*
X200058369Y-83301057D01*
X199958414Y-83178679D01*
X199876488Y-83079112D01*
X199842006Y-83037589D01*
X199668651Y-82835368D01*
X199514769Y-82668109D01*
X199376528Y-82531863D01*
X199250095Y-82422679D01*
X199231250Y-82407878D01*
X199151875Y-82346396D01*
X200288687Y-82346144D01*
X201425500Y-82345893D01*
X201414874Y-82442277D01*
X201421510Y-82557476D01*
X201464764Y-82694635D01*
X201545071Y-82854846D01*
X201636089Y-83000057D01*
X201668671Y-83045550D01*
X201725028Y-83120997D01*
X201801801Y-83222095D01*
X201895631Y-83344544D01*
X202003158Y-83484040D01*
X202121022Y-83636283D01*
X202245865Y-83796969D01*
X202374327Y-83961797D01*
X202503048Y-84126465D01*
X202628669Y-84286671D01*
X202747830Y-84438112D01*
X202857172Y-84576487D01*
X202953336Y-84697494D01*
X203032962Y-84796831D01*
X203092691Y-84870195D01*
X203129162Y-84913285D01*
X203135306Y-84919911D01*
X203141051Y-84903826D01*
X203145498Y-84842968D01*
X203148640Y-84737902D01*
X203150468Y-84589192D01*
X203150977Y-84397404D01*
X203150159Y-84163103D01*
X203148333Y-83922054D01*
X203145676Y-83656651D01*
X203142613Y-83432176D01*
X203138644Y-83244201D01*
X203133269Y-83088298D01*
X203125989Y-82960036D01*
X203116304Y-82854989D01*
X203103714Y-82768727D01*
X203087720Y-82696821D01*
X203067822Y-82634843D01*
X203043520Y-82578364D01*
X203014316Y-82522956D01*
X202984820Y-82472655D01*
X202908487Y-82345893D01*
X205037716Y-82345893D01*
X205646096Y-82345893D01*
X205646029Y-82333337D01*
X205644409Y-82128281D01*
X205642349Y-81949665D01*
X205639798Y-81795596D01*
X205636704Y-81664184D01*
X205633016Y-81553535D01*
X205628683Y-81461760D01*
X205623653Y-81386965D01*
X205617875Y-81327259D01*
X205611298Y-81280750D01*
X205603869Y-81245547D01*
X205595539Y-81219757D01*
X205586255Y-81201490D01*
X205575966Y-81188852D01*
X205564621Y-81179954D01*
X205552168Y-81172902D01*
X205538556Y-81165804D01*
X205526510Y-81158636D01*
X205515998Y-81153461D01*
X205499573Y-81148783D01*
X205475038Y-81144577D01*
X205440193Y-81140818D01*
X205392839Y-81137483D01*
X205330778Y-81134544D01*
X205251811Y-81131979D01*
X205153738Y-81129762D01*
X205034361Y-81127868D01*
X204891481Y-81126273D01*
X204722898Y-81124951D01*
X204526415Y-81123878D01*
X204299832Y-81123029D01*
X204040950Y-81122380D01*
X203747570Y-81121904D01*
X203417493Y-81121578D01*
X203048521Y-81121377D01*
X202638454Y-81121276D01*
X202214280Y-81121250D01*
X198959107Y-81121250D01*
X198959107Y-81315689D01*
X198959107Y-81315689D01*
G37*
X198959107Y-81315689D02*
X198937280Y-81544585D01*
X198873763Y-81760791D01*
X198771503Y-81959673D01*
X198633446Y-82136597D01*
X198462538Y-82286929D01*
X198267698Y-82403181D01*
X198054212Y-82482777D01*
X197839229Y-82520080D01*
X197626986Y-82517791D01*
X197421724Y-82478609D01*
X197227680Y-82405234D01*
X197049093Y-82300368D01*
X196890204Y-82166708D01*
X196755250Y-82006957D01*
X196648471Y-81823814D01*
X196574105Y-81619978D01*
X196536392Y-81398151D01*
X196532500Y-81297914D01*
X196532500Y-81121250D01*
X196428178Y-81121250D01*
X196355239Y-81126965D01*
X196301204Y-81150669D01*
X196246750Y-81198357D01*
X196169643Y-81275464D01*
X196169643Y-85678173D01*
X196169661Y-86204789D01*
X196169726Y-86687939D01*
X196169854Y-87129515D01*
X196170062Y-87531409D01*
X196170366Y-87895512D01*
X196170783Y-88223715D01*
X196171328Y-88517911D01*
X196172019Y-88779990D01*
X196172872Y-89011845D01*
X196173902Y-89215366D01*
X196175127Y-89392446D01*
X196176563Y-89544976D01*
X196178226Y-89674847D01*
X196180133Y-89783951D01*
X196182299Y-89874179D01*
X196184742Y-89947424D01*
X196187478Y-90005576D01*
X196190523Y-90050528D01*
X196193893Y-90084170D01*
X196197606Y-90108395D01*
X196201676Y-90125093D01*
X196206122Y-90136157D01*
X196208296Y-90139874D01*
X196216659Y-90153960D01*
X196223760Y-90166911D01*
X196231453Y-90178772D01*
X196241593Y-90189593D01*
X196256034Y-90199420D01*
X196276631Y-90208300D01*
X196305239Y-90216282D01*
X196343711Y-90223412D01*
X196393903Y-90229738D01*
X196457669Y-90235308D01*
X196536864Y-90240168D01*
X196633342Y-90244366D01*
X196748958Y-90247950D01*
X196885565Y-90250968D01*
X197045020Y-90253465D01*
X197229175Y-90255490D01*
X197439886Y-90257091D01*
X197679008Y-90258314D01*
X197948395Y-90259208D01*
X198249900Y-90259819D01*
X198585380Y-90260194D01*
X198956688Y-90260383D01*
X199365679Y-90260431D01*
X199814208Y-90260386D01*
X200304128Y-90260295D01*
X200837295Y-90260207D01*
X200914405Y-90260198D01*
X201450745Y-90260111D01*
X201943575Y-90259969D01*
X202394742Y-90259758D01*
X202806093Y-90259462D01*
X203179476Y-90259067D01*
X203516738Y-90258559D01*
X203819725Y-90257924D01*
X204090286Y-90257146D01*
X204330267Y-90256211D01*
X204541515Y-90255105D01*
X204725878Y-90253813D01*
X204885202Y-90252320D01*
X205021335Y-90250613D01*
X205136125Y-90248676D01*
X205231417Y-90246496D01*
X205309060Y-90244057D01*
X205370900Y-90241345D01*
X205418785Y-90238346D01*
X205454562Y-90235045D01*
X205480078Y-90231427D01*
X205497181Y-90227479D01*
X205505935Y-90224127D01*
X205522935Y-90216954D01*
X205538542Y-90211659D01*
X205552816Y-90206362D01*
X205565816Y-90199188D01*
X205577600Y-90188256D01*
X205588228Y-90171691D01*
X205597759Y-90147614D01*
X205606253Y-90114147D01*
X205613769Y-90069413D01*
X205620366Y-90011533D01*
X205626104Y-89938631D01*
X205631040Y-89848828D01*
X205635236Y-89740246D01*
X205638750Y-89611007D01*
X205641641Y-89459235D01*
X205643968Y-89283050D01*
X205645791Y-89080576D01*
X205647170Y-88849935D01*
X205648162Y-88589248D01*
X205648828Y-88296638D01*
X205649227Y-87970227D01*
X205649417Y-87608138D01*
X205649459Y-87208492D01*
X205649412Y-86769412D01*
X205649334Y-86289020D01*
X205649286Y-85765438D01*
X205649285Y-85680759D01*
X205649313Y-85152618D01*
X205649363Y-84667943D01*
X205649385Y-84224841D01*
X205649326Y-83821421D01*
X205649136Y-83455791D01*
X205648763Y-83126060D01*
X205648154Y-82830334D01*
X205647260Y-82566724D01*
X205646096Y-82345893D01*
X205037716Y-82345893D01*
X204957781Y-82462098D01*
X204935340Y-82493775D01*
X204915109Y-82521823D01*
X204896973Y-82548628D01*
X204880820Y-82576571D01*
X204866534Y-82608036D01*
X204854001Y-82645406D01*
X204843107Y-82691066D01*
X204833739Y-82747399D01*
X204825782Y-82816787D01*
X204819122Y-82901614D01*
X204813644Y-83004264D01*
X204809236Y-83127120D01*
X204805782Y-83272566D01*
X204803168Y-83442984D01*
X204801281Y-83640759D01*
X204800006Y-83868274D01*
X204799230Y-84127911D01*
X204798837Y-84422055D01*
X204798714Y-84753090D01*
X204798747Y-85123397D01*
X204798822Y-85535361D01*
X204798839Y-85781696D01*
X204798791Y-86217532D01*
X204798723Y-86610396D01*
X204798747Y-86962675D01*
X204798977Y-87276756D01*
X204799525Y-87555025D01*
X204800504Y-87799867D01*
X204802028Y-88013669D01*
X204804209Y-88198817D01*
X204807160Y-88357696D01*
X204810994Y-88492694D01*
X204815825Y-88606196D01*
X204821765Y-88700588D01*
X204828926Y-88778257D01*
X204837423Y-88841588D01*
X204847368Y-88892968D01*
X204858873Y-88934783D01*
X204872053Y-88969418D01*
X204887019Y-88999261D01*
X204903885Y-89026696D01*
X204922764Y-89054111D01*
X204943768Y-89083891D01*
X204956004Y-89101752D01*
X205033897Y-89217500D01*
X203966023Y-89217500D01*
X203718425Y-89217430D01*
X203512518Y-89217128D01*
X203344637Y-89216452D01*
X203211116Y-89215261D01*
X203108290Y-89213415D01*
X203032492Y-89210772D01*
X202980057Y-89207193D01*
X202947320Y-89202535D01*
X202930614Y-89196659D01*
X202926275Y-89189423D01*
X202930636Y-89180686D01*
X202933039Y-89177812D01*
X202983563Y-89103339D01*
X203035590Y-88997265D01*
X203083019Y-88872708D01*
X203099631Y-88819646D01*
X203108906Y-88783603D01*
X203116744Y-88741293D01*
X203123310Y-88688526D01*
X203128769Y-88621113D01*
X203133288Y-88534863D01*
X203137030Y-88425588D01*
X203140161Y-88289098D01*
X203142845Y-88121203D01*
X203145249Y-87917714D01*
X203147537Y-87674441D01*
X203148295Y-87584643D01*
X203150337Y-87333223D01*
X203151861Y-87123557D01*
X203152750Y-86952046D01*
X203152886Y-86815088D01*
X203152152Y-86709082D01*
X203150430Y-86630429D01*
X203147604Y-86575527D01*
X203143555Y-86540776D01*
X203138166Y-86522575D01*
X203131321Y-86517323D01*
X203122901Y-86521420D01*
X203113913Y-86530089D01*
X203093111Y-86556075D01*
X203048798Y-86614483D01*
X202984109Y-86701033D01*
X202902179Y-86811443D01*
X202806144Y-86941430D01*
X202699139Y-87086714D01*
X202584299Y-87243013D01*
X202464760Y-87406045D01*
X202343658Y-87571529D01*
X202224127Y-87735183D01*
X202109304Y-87892725D01*
X202002322Y-88039874D01*
X201906318Y-88172349D01*
X201824428Y-88285866D01*
X201759786Y-88376146D01*
X201715528Y-88438907D01*
X201706351Y-88452231D01*
X201660303Y-88526366D01*
X201606447Y-88622774D01*
X201555423Y-88722292D01*
X201548953Y-88735713D01*
X201505404Y-88832534D01*
X201480119Y-88907992D01*
X201468608Y-88979963D01*
X201466362Y-89064420D01*
X201467635Y-89217500D01*
X199148450Y-89217500D01*
X199331591Y-89029201D01*
X199425603Y-88928967D01*
X199526627Y-88815504D01*
X199619127Y-88706480D01*
X199660160Y-88655549D01*
X199721309Y-88576105D01*
X199801775Y-88469207D01*
X199899207Y-88338126D01*
X200011252Y-88186138D01*
X200135557Y-88016516D01*
X200269769Y-87832532D01*
X200411536Y-87637462D01*
X200558505Y-87434577D01*
X200708322Y-87227153D01*
X200858636Y-87018462D01*
X201007094Y-86811779D01*
X201151342Y-86610376D01*
X201289029Y-86417527D01*
X201417801Y-86236506D01*
X201535306Y-86070586D01*
X201639190Y-85923041D01*
X201727102Y-85797145D01*
X201796688Y-85696171D01*
X201845595Y-85623393D01*
X201871472Y-85582084D01*
X201875004Y-85573843D01*
X201859014Y-85551089D01*
X201817239Y-85496486D01*
X201752416Y-85413451D01*
X201667284Y-85305400D01*
X201564581Y-85175749D01*
X201447045Y-85027914D01*
X201317416Y-84865312D01*
X201178432Y-84691360D01*
X201032830Y-84509472D01*
X200883350Y-84323066D01*
X200763358Y-84173687D01*
X198732321Y-84173687D01*
X198720449Y-84199717D01*
X198691662Y-84244414D01*
X198689558Y-84247392D01*
X198651816Y-84307967D01*
X198612347Y-84381959D01*
X198604514Y-84398304D01*
X198597410Y-84415237D01*
X198591132Y-84435565D01*
X198585618Y-84462086D01*
X198580809Y-84497598D01*
X198576644Y-84544901D01*
X198573061Y-84606794D01*
X198570001Y-84686074D01*
X198567404Y-84785541D01*
X198565208Y-84907993D01*
X198563353Y-85056228D01*
X198561779Y-85233046D01*
X198560424Y-85441246D01*
X198559230Y-85683625D01*
X198558134Y-85962983D01*
X198557077Y-86282118D01*
X198556004Y-86641428D01*
X198554923Y-87013317D01*
X198554050Y-87342658D01*
X198553521Y-87632261D01*
X198553471Y-87884935D01*
X198554036Y-88103490D01*
X198555350Y-88290735D01*
X198557550Y-88449480D01*
X198560771Y-88582535D01*
X198565149Y-88692708D01*
X198570818Y-88782809D01*
X198577914Y-88855648D01*
X198586573Y-88914034D01*
X198596930Y-88960777D01*
X198609121Y-88998686D01*
X198623280Y-89030570D01*
X198639544Y-89059240D01*
X198658047Y-89087504D01*
X198675124Y-89112550D01*
X198709549Y-89165373D01*
X198729932Y-89200698D01*
X198732321Y-89207168D01*
X198710410Y-89209332D01*
X198647745Y-89211342D01*
X198548930Y-89213150D01*
X198418569Y-89214708D01*
X198261265Y-89215967D01*
X198081621Y-89216880D01*
X197884241Y-89217398D01*
X197745803Y-89217500D01*
X197534880Y-89217057D01*
X197340331Y-89215788D01*
X197166554Y-89213782D01*
X197017944Y-89211126D01*
X196898898Y-89207910D01*
X196813812Y-89204223D01*
X196767084Y-89200153D01*
X196759285Y-89197598D01*
X196774749Y-89167659D01*
X196790818Y-89151527D01*
X196817279Y-89117121D01*
X196851912Y-89056349D01*
X196875862Y-89007009D01*
X196929375Y-88888661D01*
X196935552Y-86524420D01*
X196941730Y-84160178D01*
X197837026Y-84160179D01*
X198033532Y-84160509D01*
X198215127Y-84161450D01*
X198376979Y-84162930D01*
X198514253Y-84164875D01*
X198622120Y-84167214D01*
X198695745Y-84169872D01*
X198730297Y-84172777D01*
X198732321Y-84173687D01*
X200763358Y-84173687D01*
X200732729Y-84135558D01*
X200583707Y-83950364D01*
X200439021Y-83770901D01*
X200301411Y-83600584D01*
X200173614Y-83442831D01*
X200058369Y-83301057D01*
X199958414Y-83178679D01*
X199876488Y-83079112D01*
X199842006Y-83037589D01*
X199668651Y-82835368D01*
X199514769Y-82668109D01*
X199376528Y-82531863D01*
X199250095Y-82422679D01*
X199231250Y-82407878D01*
X199151875Y-82346396D01*
X200288687Y-82346144D01*
X201425500Y-82345893D01*
X201414874Y-82442277D01*
X201421510Y-82557476D01*
X201464764Y-82694635D01*
X201545071Y-82854846D01*
X201636089Y-83000057D01*
X201668671Y-83045550D01*
X201725028Y-83120997D01*
X201801801Y-83222095D01*
X201895631Y-83344544D01*
X202003158Y-83484040D01*
X202121022Y-83636283D01*
X202245865Y-83796969D01*
X202374327Y-83961797D01*
X202503048Y-84126465D01*
X202628669Y-84286671D01*
X202747830Y-84438112D01*
X202857172Y-84576487D01*
X202953336Y-84697494D01*
X203032962Y-84796831D01*
X203092691Y-84870195D01*
X203129162Y-84913285D01*
X203135306Y-84919911D01*
X203141051Y-84903826D01*
X203145498Y-84842968D01*
X203148640Y-84737902D01*
X203150468Y-84589192D01*
X203150977Y-84397404D01*
X203150159Y-84163103D01*
X203148333Y-83922054D01*
X203145676Y-83656651D01*
X203142613Y-83432176D01*
X203138644Y-83244201D01*
X203133269Y-83088298D01*
X203125989Y-82960036D01*
X203116304Y-82854989D01*
X203103714Y-82768727D01*
X203087720Y-82696821D01*
X203067822Y-82634843D01*
X203043520Y-82578364D01*
X203014316Y-82522956D01*
X202984820Y-82472655D01*
X202908487Y-82345893D01*
X205037716Y-82345893D01*
X205646096Y-82345893D01*
X205646029Y-82333337D01*
X205644409Y-82128281D01*
X205642349Y-81949665D01*
X205639798Y-81795596D01*
X205636704Y-81664184D01*
X205633016Y-81553535D01*
X205628683Y-81461760D01*
X205623653Y-81386965D01*
X205617875Y-81327259D01*
X205611298Y-81280750D01*
X205603869Y-81245547D01*
X205595539Y-81219757D01*
X205586255Y-81201490D01*
X205575966Y-81188852D01*
X205564621Y-81179954D01*
X205552168Y-81172902D01*
X205538556Y-81165804D01*
X205526510Y-81158636D01*
X205515998Y-81153461D01*
X205499573Y-81148783D01*
X205475038Y-81144577D01*
X205440193Y-81140818D01*
X205392839Y-81137483D01*
X205330778Y-81134544D01*
X205251811Y-81131979D01*
X205153738Y-81129762D01*
X205034361Y-81127868D01*
X204891481Y-81126273D01*
X204722898Y-81124951D01*
X204526415Y-81123878D01*
X204299832Y-81123029D01*
X204040950Y-81122380D01*
X203747570Y-81121904D01*
X203417493Y-81121578D01*
X203048521Y-81121377D01*
X202638454Y-81121276D01*
X202214280Y-81121250D01*
X198959107Y-81121250D01*
X198959107Y-81315689D01*
G36*
X180526738Y-90929374D02*
X180463701Y-90974058D01*
X180408035Y-91029724D01*
X180408035Y-91651357D01*
X180408181Y-91835936D01*
X180408870Y-91980660D01*
X180410483Y-92091032D01*
X180413400Y-92172553D01*
X180417998Y-92230726D01*
X180424659Y-92271054D01*
X180433762Y-92299037D01*
X180445686Y-92320180D01*
X180455039Y-92332745D01*
X180516775Y-92382112D01*
X180587663Y-92387470D01*
X180652454Y-92357196D01*
X180673863Y-92339323D01*
X180688174Y-92315582D01*
X180696806Y-92277352D01*
X180701178Y-92216010D01*
X180702710Y-92122937D01*
X180702857Y-92051035D01*
X180702857Y-91780179D01*
X181700714Y-91780179D01*
X181700714Y-92026584D01*
X181701746Y-92139259D01*
X181705874Y-92216695D01*
X181714649Y-92268985D01*
X181729618Y-92306221D01*
X181747717Y-92332745D01*
X181809799Y-92381973D01*
X181880008Y-92387802D01*
X181947221Y-92352812D01*
X181965572Y-92334470D01*
X181978532Y-92310154D01*
X181987081Y-92272278D01*
X181992195Y-92213255D01*
X181994851Y-92125499D01*
X181996029Y-92001423D01*
X181996166Y-91972946D01*
X181997138Y-91739169D01*
X181997639Y-91546505D01*
X181997476Y-91390712D01*
X181996455Y-91267548D01*
X181994383Y-91172770D01*
X181991067Y-91102136D01*
X181986313Y-91051403D01*
X181979929Y-91016329D01*
X181971720Y-90992670D01*
X181961493Y-90976186D01*
X181950178Y-90963750D01*
X181886171Y-90923971D01*
X181819417Y-90929374D01*
X181756380Y-90974058D01*
X181730871Y-91002887D01*
X181714611Y-91034732D01*
X181705539Y-91080085D01*
X181701594Y-91149443D01*
X181700715Y-91253299D01*
X181700714Y-91257541D01*
X181700714Y-91485357D01*
X180702857Y-91485357D01*
X180702857Y-91247232D01*
X180701839Y-91137528D01*
X180697749Y-91063453D01*
X180689035Y-91015304D01*
X180674145Y-90983378D01*
X180657500Y-90963750D01*
X180593493Y-90923971D01*
X180526738Y-90929374D01*
X180526738Y-90929374D01*
G37*
X180526738Y-90929374D02*
X180463701Y-90974058D01*
X180408035Y-91029724D01*
X180408035Y-91651357D01*
X180408181Y-91835936D01*
X180408870Y-91980660D01*
X180410483Y-92091032D01*
X180413400Y-92172553D01*
X180417998Y-92230726D01*
X180424659Y-92271054D01*
X180433762Y-92299037D01*
X180445686Y-92320180D01*
X180455039Y-92332745D01*
X180516775Y-92382112D01*
X180587663Y-92387470D01*
X180652454Y-92357196D01*
X180673863Y-92339323D01*
X180688174Y-92315582D01*
X180696806Y-92277352D01*
X180701178Y-92216010D01*
X180702710Y-92122937D01*
X180702857Y-92051035D01*
X180702857Y-91780179D01*
X181700714Y-91780179D01*
X181700714Y-92026584D01*
X181701746Y-92139259D01*
X181705874Y-92216695D01*
X181714649Y-92268985D01*
X181729618Y-92306221D01*
X181747717Y-92332745D01*
X181809799Y-92381973D01*
X181880008Y-92387802D01*
X181947221Y-92352812D01*
X181965572Y-92334470D01*
X181978532Y-92310154D01*
X181987081Y-92272278D01*
X181992195Y-92213255D01*
X181994851Y-92125499D01*
X181996029Y-92001423D01*
X181996166Y-91972946D01*
X181997138Y-91739169D01*
X181997639Y-91546505D01*
X181997476Y-91390712D01*
X181996455Y-91267548D01*
X181994383Y-91172770D01*
X181991067Y-91102136D01*
X181986313Y-91051403D01*
X181979929Y-91016329D01*
X181971720Y-90992670D01*
X181961493Y-90976186D01*
X181950178Y-90963750D01*
X181886171Y-90923971D01*
X181819417Y-90929374D01*
X181756380Y-90974058D01*
X181730871Y-91002887D01*
X181714611Y-91034732D01*
X181705539Y-91080085D01*
X181701594Y-91149443D01*
X181700715Y-91253299D01*
X181700714Y-91257541D01*
X181700714Y-91485357D01*
X180702857Y-91485357D01*
X180702857Y-91247232D01*
X180701839Y-91137528D01*
X180697749Y-91063453D01*
X180689035Y-91015304D01*
X180674145Y-90983378D01*
X180657500Y-90963750D01*
X180593493Y-90923971D01*
X180526738Y-90929374D01*
G36*
X183069557Y-90918587D02*
X182911439Y-90919347D01*
X182788712Y-90920937D01*
X182696394Y-90923622D01*
X182629501Y-90927667D01*
X182583052Y-90933337D01*
X182552063Y-90940897D01*
X182531552Y-90950612D01*
X182521626Y-90958080D01*
X182470109Y-91023442D01*
X182463877Y-91091305D01*
X182495713Y-91152954D01*
X182516532Y-91177589D01*
X182538935Y-91194387D01*
X182571403Y-91204847D01*
X182622414Y-91210472D01*
X182700450Y-91212760D01*
X182813990Y-91213212D01*
X182836289Y-91213214D01*
X183129464Y-91213214D01*
X183129464Y-91757500D01*
X183129657Y-91929059D01*
X183130534Y-92061066D01*
X183132542Y-92159322D01*
X183136126Y-92229633D01*
X183141733Y-92277800D01*
X183149809Y-92309628D01*
X183160802Y-92330919D01*
X183174821Y-92347143D01*
X183240981Y-92387011D01*
X183310046Y-92383869D01*
X183372680Y-92338382D01*
X183377282Y-92332745D01*
X183392263Y-92311435D01*
X183403677Y-92286502D01*
X183412006Y-92251886D01*
X183417733Y-92201530D01*
X183421341Y-92129375D01*
X183423314Y-92029363D01*
X183424134Y-91895435D01*
X183424285Y-91743102D01*
X183424285Y-91213214D01*
X183704253Y-91213214D01*
X183824398Y-91212401D01*
X183907575Y-91209233D01*
X183962157Y-91202616D01*
X183996514Y-91191456D01*
X184019020Y-91174661D01*
X184021753Y-91171741D01*
X184054614Y-91104967D01*
X184051708Y-91029477D01*
X184013928Y-90963750D01*
X183999318Y-90951001D01*
X183980480Y-90940892D01*
X183952392Y-90933117D01*
X183910030Y-90927372D01*
X183848370Y-90923351D01*
X183762388Y-90920749D01*
X183647062Y-90919259D01*
X183497368Y-90918576D01*
X183308282Y-90918396D01*
X183268048Y-90918393D01*
X183069557Y-90918587D01*
X183069557Y-90918587D01*
G37*
X183069557Y-90918587D02*
X182911439Y-90919347D01*
X182788712Y-90920937D01*
X182696394Y-90923622D01*
X182629501Y-90927667D01*
X182583052Y-90933337D01*
X182552063Y-90940897D01*
X182531552Y-90950612D01*
X182521626Y-90958080D01*
X182470109Y-91023442D01*
X182463877Y-91091305D01*
X182495713Y-91152954D01*
X182516532Y-91177589D01*
X182538935Y-91194387D01*
X182571403Y-91204847D01*
X182622414Y-91210472D01*
X182700450Y-91212760D01*
X182813990Y-91213212D01*
X182836289Y-91213214D01*
X183129464Y-91213214D01*
X183129464Y-91757500D01*
X183129657Y-91929059D01*
X183130534Y-92061066D01*
X183132542Y-92159322D01*
X183136126Y-92229633D01*
X183141733Y-92277800D01*
X183149809Y-92309628D01*
X183160802Y-92330919D01*
X183174821Y-92347143D01*
X183240981Y-92387011D01*
X183310046Y-92383869D01*
X183372680Y-92338382D01*
X183377282Y-92332745D01*
X183392263Y-92311435D01*
X183403677Y-92286502D01*
X183412006Y-92251886D01*
X183417733Y-92201530D01*
X183421341Y-92129375D01*
X183423314Y-92029363D01*
X183424134Y-91895435D01*
X183424285Y-91743102D01*
X183424285Y-91213214D01*
X183704253Y-91213214D01*
X183824398Y-91212401D01*
X183907575Y-91209233D01*
X183962157Y-91202616D01*
X183996514Y-91191456D01*
X184019020Y-91174661D01*
X184021753Y-91171741D01*
X184054614Y-91104967D01*
X184051708Y-91029477D01*
X184013928Y-90963750D01*
X183999318Y-90951001D01*
X183980480Y-90940892D01*
X183952392Y-90933117D01*
X183910030Y-90927372D01*
X183848370Y-90923351D01*
X183762388Y-90920749D01*
X183647062Y-90919259D01*
X183497368Y-90918576D01*
X183308282Y-90918396D01*
X183268048Y-90918393D01*
X183069557Y-90918587D01*
G36*
X184625373Y-90932074D02*
X184577735Y-90961746D01*
X184524196Y-91005100D01*
X184524196Y-91651062D01*
X184524367Y-91840015D01*
X184525097Y-91988881D01*
X184526715Y-92102932D01*
X184529549Y-92187436D01*
X184533928Y-92247663D01*
X184540179Y-92288885D01*
X184548631Y-92316370D01*
X184559612Y-92335390D01*
X184567399Y-92344762D01*
X184630557Y-92385931D01*
X184702477Y-92384252D01*
X184765478Y-92349147D01*
X184819018Y-92305793D01*
X184819018Y-91005100D01*
X184765478Y-90961746D01*
X184713805Y-90930210D01*
X184671607Y-90918393D01*
X184625373Y-90932074D01*
X184625373Y-90932074D01*
G37*
X184625373Y-90932074D02*
X184577735Y-90961746D01*
X184524196Y-91005100D01*
X184524196Y-91651062D01*
X184524367Y-91840015D01*
X184525097Y-91988881D01*
X184526715Y-92102932D01*
X184529549Y-92187436D01*
X184533928Y-92247663D01*
X184540179Y-92288885D01*
X184548631Y-92316370D01*
X184559612Y-92335390D01*
X184567399Y-92344762D01*
X184630557Y-92385931D01*
X184702477Y-92384252D01*
X184765478Y-92349147D01*
X184819018Y-92305793D01*
X184819018Y-91005100D01*
X184765478Y-90961746D01*
X184713805Y-90930210D01*
X184671607Y-90918393D01*
X184625373Y-90932074D01*
G36*
X185517235Y-90922345D02*
X185477881Y-90936409D01*
X185476362Y-90937097D01*
X185422920Y-90977881D01*
X185393475Y-91019832D01*
X185387713Y-91039501D01*
X185387998Y-91065637D01*
X185396105Y-91102868D01*
X185413812Y-91155828D01*
X185442896Y-91229145D01*
X185485133Y-91327451D01*
X185542300Y-91455376D01*
X185616174Y-91617552D01*
X185656836Y-91706193D01*
X185730261Y-91864435D01*
X185799189Y-92009957D01*
X185860988Y-92137437D01*
X185913029Y-92241556D01*
X185952679Y-92316993D01*
X185977309Y-92358428D01*
X185982183Y-92364152D01*
X186044542Y-92389402D01*
X186114980Y-92386020D01*
X186171472Y-92355310D01*
X186173774Y-92352812D01*
X186196246Y-92318792D01*
X186233942Y-92252528D01*
X186282214Y-92162549D01*
X186336412Y-92057386D01*
X186355890Y-92018633D01*
X186502918Y-91724140D01*
X186663177Y-92044049D01*
X186720379Y-92154583D01*
X186773449Y-92250444D01*
X186818051Y-92324293D01*
X186849850Y-92368793D01*
X186860627Y-92378229D01*
X186944394Y-92391009D01*
X187013516Y-92364152D01*
X187033849Y-92335449D01*
X187069034Y-92271658D01*
X187116201Y-92179056D01*
X187172480Y-92063920D01*
X187235001Y-91932526D01*
X187300893Y-91791152D01*
X187367286Y-91646074D01*
X187431310Y-91503570D01*
X187490094Y-91369917D01*
X187540768Y-91251391D01*
X187580462Y-91154269D01*
X187606305Y-91084829D01*
X187615428Y-91049347D01*
X187615335Y-91048062D01*
X187593139Y-91003414D01*
X187548774Y-90957940D01*
X187546161Y-90955962D01*
X187491634Y-90925140D01*
X187441199Y-90925438D01*
X187422296Y-90931249D01*
X187399261Y-90943807D01*
X187374800Y-90968511D01*
X187345978Y-91010484D01*
X187309860Y-91074852D01*
X187263512Y-91166740D01*
X187204001Y-91291271D01*
X187150333Y-91406223D01*
X187088588Y-91539472D01*
X187033260Y-91659300D01*
X186987223Y-91759448D01*
X186953350Y-91833655D01*
X186934518Y-91875661D01*
X186931771Y-91882232D01*
X186919418Y-91871490D01*
X186891027Y-91826513D01*
X186850375Y-91753865D01*
X186801241Y-91660111D01*
X186781689Y-91621429D01*
X186715455Y-91490812D01*
X186664376Y-91395688D01*
X186624260Y-91330529D01*
X186590916Y-91289802D01*
X186560151Y-91267978D01*
X186527775Y-91259526D01*
X186506676Y-91258571D01*
X186469458Y-91261869D01*
X186436844Y-91275509D01*
X186404438Y-91305111D01*
X186367844Y-91356293D01*
X186322666Y-91434675D01*
X186264508Y-91545877D01*
X186232420Y-91609135D01*
X186180372Y-91709952D01*
X186134976Y-91793557D01*
X186100240Y-91852897D01*
X186080167Y-91880916D01*
X186077437Y-91882083D01*
X186064474Y-91860031D01*
X186035451Y-91802770D01*
X185993275Y-91716293D01*
X185940852Y-91606593D01*
X185881089Y-91479663D01*
X185851691Y-91416616D01*
X185775212Y-91253907D01*
X185713628Y-91128706D01*
X185663742Y-91036928D01*
X185622357Y-90974487D01*
X185586276Y-90937300D01*
X185552301Y-90921281D01*
X185517235Y-90922345D01*
X185517235Y-90922345D01*
G37*
X185517235Y-90922345D02*
X185477881Y-90936409D01*
X185476362Y-90937097D01*
X185422920Y-90977881D01*
X185393475Y-91019832D01*
X185387713Y-91039501D01*
X185387998Y-91065637D01*
X185396105Y-91102868D01*
X185413812Y-91155828D01*
X185442896Y-91229145D01*
X185485133Y-91327451D01*
X185542300Y-91455376D01*
X185616174Y-91617552D01*
X185656836Y-91706193D01*
X185730261Y-91864435D01*
X185799189Y-92009957D01*
X185860988Y-92137437D01*
X185913029Y-92241556D01*
X185952679Y-92316993D01*
X185977309Y-92358428D01*
X185982183Y-92364152D01*
X186044542Y-92389402D01*
X186114980Y-92386020D01*
X186171472Y-92355310D01*
X186173774Y-92352812D01*
X186196246Y-92318792D01*
X186233942Y-92252528D01*
X186282214Y-92162549D01*
X186336412Y-92057386D01*
X186355890Y-92018633D01*
X186502918Y-91724140D01*
X186663177Y-92044049D01*
X186720379Y-92154583D01*
X186773449Y-92250444D01*
X186818051Y-92324293D01*
X186849850Y-92368793D01*
X186860627Y-92378229D01*
X186944394Y-92391009D01*
X187013516Y-92364152D01*
X187033849Y-92335449D01*
X187069034Y-92271658D01*
X187116201Y-92179056D01*
X187172480Y-92063920D01*
X187235001Y-91932526D01*
X187300893Y-91791152D01*
X187367286Y-91646074D01*
X187431310Y-91503570D01*
X187490094Y-91369917D01*
X187540768Y-91251391D01*
X187580462Y-91154269D01*
X187606305Y-91084829D01*
X187615428Y-91049347D01*
X187615335Y-91048062D01*
X187593139Y-91003414D01*
X187548774Y-90957940D01*
X187546161Y-90955962D01*
X187491634Y-90925140D01*
X187441199Y-90925438D01*
X187422296Y-90931249D01*
X187399261Y-90943807D01*
X187374800Y-90968511D01*
X187345978Y-91010484D01*
X187309860Y-91074852D01*
X187263512Y-91166740D01*
X187204001Y-91291271D01*
X187150333Y-91406223D01*
X187088588Y-91539472D01*
X187033260Y-91659300D01*
X186987223Y-91759448D01*
X186953350Y-91833655D01*
X186934518Y-91875661D01*
X186931771Y-91882232D01*
X186919418Y-91871490D01*
X186891027Y-91826513D01*
X186850375Y-91753865D01*
X186801241Y-91660111D01*
X186781689Y-91621429D01*
X186715455Y-91490812D01*
X186664376Y-91395688D01*
X186624260Y-91330529D01*
X186590916Y-91289802D01*
X186560151Y-91267978D01*
X186527775Y-91259526D01*
X186506676Y-91258571D01*
X186469458Y-91261869D01*
X186436844Y-91275509D01*
X186404438Y-91305111D01*
X186367844Y-91356293D01*
X186322666Y-91434675D01*
X186264508Y-91545877D01*
X186232420Y-91609135D01*
X186180372Y-91709952D01*
X186134976Y-91793557D01*
X186100240Y-91852897D01*
X186080167Y-91880916D01*
X186077437Y-91882083D01*
X186064474Y-91860031D01*
X186035451Y-91802770D01*
X185993275Y-91716293D01*
X185940852Y-91606593D01*
X185881089Y-91479663D01*
X185851691Y-91416616D01*
X185775212Y-91253907D01*
X185713628Y-91128706D01*
X185663742Y-91036928D01*
X185622357Y-90974487D01*
X185586276Y-90937300D01*
X185552301Y-90921281D01*
X185517235Y-90922345D01*
G36*
X190994290Y-90918811D02*
X190735179Y-90927572D01*
X190514794Y-90954140D01*
X190329501Y-91000105D01*
X190175665Y-91067060D01*
X190049654Y-91156593D01*
X189947833Y-91270296D01*
X189866569Y-91409759D01*
X189864970Y-91413160D01*
X189816471Y-91537979D01*
X189799191Y-91648523D01*
X189813195Y-91759774D01*
X189858552Y-91886710D01*
X189867154Y-91906026D01*
X189925814Y-92019083D01*
X189991740Y-92106442D01*
X190076826Y-92180704D01*
X190192966Y-92254468D01*
X190199713Y-92258319D01*
X190300816Y-92306885D01*
X190415091Y-92343156D01*
X190549879Y-92368383D01*
X190712525Y-92383816D01*
X190910371Y-92390708D01*
X190980273Y-92391307D01*
X191313136Y-92392500D01*
X191360139Y-92332745D01*
X191374082Y-92313096D01*
X191384959Y-92290150D01*
X191393149Y-92258406D01*
X191399033Y-92212359D01*
X191402989Y-92146510D01*
X191404279Y-92097679D01*
X191089643Y-92097679D01*
X190901040Y-92097679D01*
X190790675Y-92094451D01*
X190677379Y-92085958D01*
X190584395Y-92073980D01*
X190578782Y-92072971D01*
X190413630Y-92028665D01*
X190285530Y-91962099D01*
X190190430Y-91870184D01*
X190124277Y-91749832D01*
X190112773Y-91717935D01*
X190101498Y-91668257D01*
X190106380Y-91619177D01*
X190130133Y-91553884D01*
X190144451Y-91521809D01*
X190191338Y-91436574D01*
X190247829Y-91376776D01*
X190309985Y-91335134D01*
X190434488Y-91280945D01*
X190593826Y-91241692D01*
X190779447Y-91219089D01*
X190913884Y-91214114D01*
X191089643Y-91213214D01*
X191089643Y-92097679D01*
X191404279Y-92097679D01*
X191405398Y-92055355D01*
X191406639Y-91933392D01*
X191407092Y-91775118D01*
X191407143Y-91651357D01*
X191407143Y-91029724D01*
X191351477Y-90974058D01*
X191326772Y-90951495D01*
X191300059Y-90936043D01*
X191262756Y-90926375D01*
X191206277Y-90921164D01*
X191122042Y-90919082D01*
X191001465Y-90918801D01*
X190994290Y-90918811D01*
X190994290Y-90918811D01*
G37*
X190994290Y-90918811D02*
X190735179Y-90927572D01*
X190514794Y-90954140D01*
X190329501Y-91000105D01*
X190175665Y-91067060D01*
X190049654Y-91156593D01*
X189947833Y-91270296D01*
X189866569Y-91409759D01*
X189864970Y-91413160D01*
X189816471Y-91537979D01*
X189799191Y-91648523D01*
X189813195Y-91759774D01*
X189858552Y-91886710D01*
X189867154Y-91906026D01*
X189925814Y-92019083D01*
X189991740Y-92106442D01*
X190076826Y-92180704D01*
X190192966Y-92254468D01*
X190199713Y-92258319D01*
X190300816Y-92306885D01*
X190415091Y-92343156D01*
X190549879Y-92368383D01*
X190712525Y-92383816D01*
X190910371Y-92390708D01*
X190980273Y-92391307D01*
X191313136Y-92392500D01*
X191360139Y-92332745D01*
X191374082Y-92313096D01*
X191384959Y-92290150D01*
X191393149Y-92258406D01*
X191399033Y-92212359D01*
X191402989Y-92146510D01*
X191404279Y-92097679D01*
X191089643Y-92097679D01*
X190901040Y-92097679D01*
X190790675Y-92094451D01*
X190677379Y-92085958D01*
X190584395Y-92073980D01*
X190578782Y-92072971D01*
X190413630Y-92028665D01*
X190285530Y-91962099D01*
X190190430Y-91870184D01*
X190124277Y-91749832D01*
X190112773Y-91717935D01*
X190101498Y-91668257D01*
X190106380Y-91619177D01*
X190130133Y-91553884D01*
X190144451Y-91521809D01*
X190191338Y-91436574D01*
X190247829Y-91376776D01*
X190309985Y-91335134D01*
X190434488Y-91280945D01*
X190593826Y-91241692D01*
X190779447Y-91219089D01*
X190913884Y-91214114D01*
X191089643Y-91213214D01*
X191089643Y-92097679D01*
X191404279Y-92097679D01*
X191405398Y-92055355D01*
X191406639Y-91933392D01*
X191407092Y-91775118D01*
X191407143Y-91651357D01*
X191407143Y-91029724D01*
X191351477Y-90974058D01*
X191326772Y-90951495D01*
X191300059Y-90936043D01*
X191262756Y-90926375D01*
X191206277Y-90921164D01*
X191122042Y-90919082D01*
X191001465Y-90918801D01*
X190994290Y-90918811D01*
G36*
X192577257Y-90918780D02*
X192423858Y-90920617D01*
X192306305Y-90924911D01*
X192219844Y-90932672D01*
X192159720Y-90944910D01*
X192121180Y-90962635D01*
X192099468Y-90986856D01*
X192089830Y-91018582D01*
X192087512Y-91058823D01*
X192087500Y-91063575D01*
X192089512Y-91109091D01*
X192099025Y-91144269D01*
X192121249Y-91170528D01*
X192161398Y-91189289D01*
X192224684Y-91201973D01*
X192316318Y-91209999D01*
X192441513Y-91214789D01*
X192605481Y-91217761D01*
X192655737Y-91218420D01*
X193142053Y-91224554D01*
X193148855Y-91354955D01*
X193155656Y-91485357D01*
X192817861Y-91485357D01*
X192685893Y-91485844D01*
X192591663Y-91487903D01*
X192527555Y-91492432D01*
X192485956Y-91500330D01*
X192459250Y-91512495D01*
X192439822Y-91529825D01*
X192439698Y-91529963D01*
X192404463Y-91597501D01*
X192405737Y-91670498D01*
X192442716Y-91732725D01*
X192450035Y-91739121D01*
X192476010Y-91755605D01*
X192511603Y-91767073D01*
X192564747Y-91774388D01*
X192643372Y-91778415D01*
X192755410Y-91780017D01*
X192827066Y-91780179D01*
X193153393Y-91780179D01*
X193153393Y-92097679D01*
X192657979Y-92097679D01*
X192494414Y-92097965D01*
X192370203Y-92099134D01*
X192279345Y-92101654D01*
X192215840Y-92105992D01*
X192173687Y-92112614D01*
X192146884Y-92121987D01*
X192129431Y-92134579D01*
X192125033Y-92139152D01*
X192092560Y-92202526D01*
X192090184Y-92274624D01*
X192116825Y-92337135D01*
X192137903Y-92357196D01*
X192159830Y-92368240D01*
X192193805Y-92376785D01*
X192245202Y-92383129D01*
X192319395Y-92387572D01*
X192421759Y-92390413D01*
X192557667Y-92391952D01*
X192732495Y-92392487D01*
X192772020Y-92392500D01*
X192949776Y-92392384D01*
X193087758Y-92391742D01*
X193191544Y-92390134D01*
X193266717Y-92387121D01*
X193318859Y-92382263D01*
X193353549Y-92375121D01*
X193376370Y-92365254D01*
X193392903Y-92352223D01*
X193401973Y-92342866D01*
X193415626Y-92326294D01*
X193426292Y-92305764D01*
X193434340Y-92275893D01*
X193440136Y-92231298D01*
X193444047Y-92166594D01*
X193446443Y-92076397D01*
X193447690Y-91955324D01*
X193448156Y-91797990D01*
X193448214Y-91665568D01*
X193448071Y-91480012D01*
X193447394Y-91334342D01*
X193445808Y-91223088D01*
X193442939Y-91140778D01*
X193438413Y-91081943D01*
X193431856Y-91041111D01*
X193422894Y-91012812D01*
X193411153Y-90991575D01*
X193401211Y-90978148D01*
X193354208Y-90918393D01*
X192771257Y-90918393D01*
X192577257Y-90918780D01*
X192577257Y-90918780D01*
G37*
X192577257Y-90918780D02*
X192423858Y-90920617D01*
X192306305Y-90924911D01*
X192219844Y-90932672D01*
X192159720Y-90944910D01*
X192121180Y-90962635D01*
X192099468Y-90986856D01*
X192089830Y-91018582D01*
X192087512Y-91058823D01*
X192087500Y-91063575D01*
X192089512Y-91109091D01*
X192099025Y-91144269D01*
X192121249Y-91170528D01*
X192161398Y-91189289D01*
X192224684Y-91201973D01*
X192316318Y-91209999D01*
X192441513Y-91214789D01*
X192605481Y-91217761D01*
X192655737Y-91218420D01*
X193142053Y-91224554D01*
X193148855Y-91354955D01*
X193155656Y-91485357D01*
X192817861Y-91485357D01*
X192685893Y-91485844D01*
X192591663Y-91487903D01*
X192527555Y-91492432D01*
X192485956Y-91500330D01*
X192459250Y-91512495D01*
X192439822Y-91529825D01*
X192439698Y-91529963D01*
X192404463Y-91597501D01*
X192405737Y-91670498D01*
X192442716Y-91732725D01*
X192450035Y-91739121D01*
X192476010Y-91755605D01*
X192511603Y-91767073D01*
X192564747Y-91774388D01*
X192643372Y-91778415D01*
X192755410Y-91780017D01*
X192827066Y-91780179D01*
X193153393Y-91780179D01*
X193153393Y-92097679D01*
X192657979Y-92097679D01*
X192494414Y-92097965D01*
X192370203Y-92099134D01*
X192279345Y-92101654D01*
X192215840Y-92105992D01*
X192173687Y-92112614D01*
X192146884Y-92121987D01*
X192129431Y-92134579D01*
X192125033Y-92139152D01*
X192092560Y-92202526D01*
X192090184Y-92274624D01*
X192116825Y-92337135D01*
X192137903Y-92357196D01*
X192159830Y-92368240D01*
X192193805Y-92376785D01*
X192245202Y-92383129D01*
X192319395Y-92387572D01*
X192421759Y-92390413D01*
X192557667Y-92391952D01*
X192732495Y-92392487D01*
X192772020Y-92392500D01*
X192949776Y-92392384D01*
X193087758Y-92391742D01*
X193191544Y-92390134D01*
X193266717Y-92387121D01*
X193318859Y-92382263D01*
X193353549Y-92375121D01*
X193376370Y-92365254D01*
X193392903Y-92352223D01*
X193401973Y-92342866D01*
X193415626Y-92326294D01*
X193426292Y-92305764D01*
X193434340Y-92275893D01*
X193440136Y-92231298D01*
X193444047Y-92166594D01*
X193446443Y-92076397D01*
X193447690Y-91955324D01*
X193448156Y-91797990D01*
X193448214Y-91665568D01*
X193448071Y-91480012D01*
X193447394Y-91334342D01*
X193445808Y-91223088D01*
X193442939Y-91140778D01*
X193438413Y-91081943D01*
X193431856Y-91041111D01*
X193422894Y-91012812D01*
X193411153Y-90991575D01*
X193401211Y-90978148D01*
X193354208Y-90918393D01*
X192771257Y-90918393D01*
X192577257Y-90918780D01*
G36*
X195651835Y-90927195D02*
X195604493Y-90954967D01*
X195542592Y-91000385D01*
X195462923Y-91065589D01*
X195362280Y-91152717D01*
X195237452Y-91263910D01*
X195085232Y-91401307D01*
X194910982Y-91559276D01*
X194548125Y-91888327D01*
X194536785Y-91446665D01*
X194532691Y-91294634D01*
X194528742Y-91181417D01*
X194524062Y-91100480D01*
X194517779Y-91045293D01*
X194509018Y-91009322D01*
X194496906Y-90986035D01*
X194480569Y-90968899D01*
X194471907Y-90961698D01*
X194402537Y-90923623D01*
X194336527Y-90929190D01*
X194284164Y-90961717D01*
X194230625Y-91005042D01*
X194223966Y-91637759D01*
X194222123Y-91823841D01*
X194221185Y-91970021D01*
X194221477Y-92081751D01*
X194223323Y-92164482D01*
X194227050Y-92223666D01*
X194232980Y-92264753D01*
X194241440Y-92293196D01*
X194252753Y-92314445D01*
X194265300Y-92331488D01*
X194292444Y-92363095D01*
X194319453Y-92384046D01*
X194350070Y-92392088D01*
X194388043Y-92384965D01*
X194437118Y-92360426D01*
X194501040Y-92316214D01*
X194583555Y-92250076D01*
X194688410Y-92159759D01*
X194819351Y-92043008D01*
X194967678Y-91908859D01*
X195500625Y-91425429D01*
X195511964Y-91865647D01*
X195516065Y-92017401D01*
X195520025Y-92130354D01*
X195524721Y-92211052D01*
X195531033Y-92266041D01*
X195539837Y-92301865D01*
X195552012Y-92325070D01*
X195568437Y-92342201D01*
X195576843Y-92349183D01*
X195651134Y-92387534D01*
X195721332Y-92381749D01*
X195782461Y-92332745D01*
X195796445Y-92313030D01*
X195807344Y-92290006D01*
X195815541Y-92258149D01*
X195821420Y-92211935D01*
X195825364Y-92145840D01*
X195827756Y-92054339D01*
X195828979Y-91931911D01*
X195829418Y-91773029D01*
X195829464Y-91655446D01*
X195829317Y-91471533D01*
X195828619Y-91327452D01*
X195826987Y-91217680D01*
X195824039Y-91136693D01*
X195819389Y-91078968D01*
X195812657Y-91038981D01*
X195803457Y-91011207D01*
X195791406Y-90990123D01*
X195782461Y-90978148D01*
X195759786Y-90949780D01*
X195738595Y-90928362D01*
X195715678Y-90916032D01*
X195687828Y-90914930D01*
X195651835Y-90927195D01*
X195651835Y-90927195D01*
G37*
X195651835Y-90927195D02*
X195604493Y-90954967D01*
X195542592Y-91000385D01*
X195462923Y-91065589D01*
X195362280Y-91152717D01*
X195237452Y-91263910D01*
X195085232Y-91401307D01*
X194910982Y-91559276D01*
X194548125Y-91888327D01*
X194536785Y-91446665D01*
X194532691Y-91294634D01*
X194528742Y-91181417D01*
X194524062Y-91100480D01*
X194517779Y-91045293D01*
X194509018Y-91009322D01*
X194496906Y-90986035D01*
X194480569Y-90968899D01*
X194471907Y-90961698D01*
X194402537Y-90923623D01*
X194336527Y-90929190D01*
X194284164Y-90961717D01*
X194230625Y-91005042D01*
X194223966Y-91637759D01*
X194222123Y-91823841D01*
X194221185Y-91970021D01*
X194221477Y-92081751D01*
X194223323Y-92164482D01*
X194227050Y-92223666D01*
X194232980Y-92264753D01*
X194241440Y-92293196D01*
X194252753Y-92314445D01*
X194265300Y-92331488D01*
X194292444Y-92363095D01*
X194319453Y-92384046D01*
X194350070Y-92392088D01*
X194388043Y-92384965D01*
X194437118Y-92360426D01*
X194501040Y-92316214D01*
X194583555Y-92250076D01*
X194688410Y-92159759D01*
X194819351Y-92043008D01*
X194967678Y-91908859D01*
X195500625Y-91425429D01*
X195511964Y-91865647D01*
X195516065Y-92017401D01*
X195520025Y-92130354D01*
X195524721Y-92211052D01*
X195531033Y-92266041D01*
X195539837Y-92301865D01*
X195552012Y-92325070D01*
X195568437Y-92342201D01*
X195576843Y-92349183D01*
X195651134Y-92387534D01*
X195721332Y-92381749D01*
X195782461Y-92332745D01*
X195796445Y-92313030D01*
X195807344Y-92290006D01*
X195815541Y-92258149D01*
X195821420Y-92211935D01*
X195825364Y-92145840D01*
X195827756Y-92054339D01*
X195828979Y-91931911D01*
X195829418Y-91773029D01*
X195829464Y-91655446D01*
X195829317Y-91471533D01*
X195828619Y-91327452D01*
X195826987Y-91217680D01*
X195824039Y-91136693D01*
X195819389Y-91078968D01*
X195812657Y-91038981D01*
X195803457Y-91011207D01*
X195791406Y-90990123D01*
X195782461Y-90978148D01*
X195759786Y-90949780D01*
X195738595Y-90928362D01*
X195715678Y-90916032D01*
X195687828Y-90914930D01*
X195651835Y-90927195D01*
G36*
X196957573Y-90929506D02*
X196819928Y-90952602D01*
X196714214Y-90988505D01*
X196645440Y-91035778D01*
X196626699Y-91062748D01*
X196607641Y-91125475D01*
X196620466Y-91182222D01*
X196660953Y-91236035D01*
X196723862Y-91261210D01*
X196815143Y-91259165D01*
X196885744Y-91245526D01*
X197042626Y-91219540D01*
X197202954Y-91217070D01*
X197382409Y-91238163D01*
X197431978Y-91247100D01*
X197598843Y-91294146D01*
X197729386Y-91364129D01*
X197822176Y-91455856D01*
X197875781Y-91568134D01*
X197886868Y-91626182D01*
X197879611Y-91743953D01*
X197832759Y-91848150D01*
X197750582Y-91936742D01*
X197637349Y-92007698D01*
X197497329Y-92058987D01*
X197334791Y-92088579D01*
X197154005Y-92094443D01*
X196959238Y-92074548D01*
X196948241Y-92072672D01*
X196870774Y-92058243D01*
X196827822Y-92044306D01*
X196809205Y-92023626D01*
X196804744Y-91988970D01*
X196804643Y-91970618D01*
X196804643Y-91893571D01*
X196942205Y-91893571D01*
X197063682Y-91885250D01*
X197146581Y-91858732D01*
X197194814Y-91811689D01*
X197212296Y-91741790D01*
X197212510Y-91732667D01*
X197202281Y-91672922D01*
X197167208Y-91630261D01*
X197101930Y-91602029D01*
X197001090Y-91585571D01*
X196903415Y-91579520D01*
X196761451Y-91576048D01*
X196658477Y-91581346D01*
X196588247Y-91600893D01*
X196544514Y-91640173D01*
X196521030Y-91704666D01*
X196511549Y-91799854D01*
X196509821Y-91924875D01*
X196512652Y-92064423D01*
X196521167Y-92159347D01*
X196535406Y-92210024D01*
X196538169Y-92213993D01*
X196616350Y-92277316D01*
X196730975Y-92327462D01*
X196874780Y-92363362D01*
X197040496Y-92383944D01*
X197220858Y-92388137D01*
X197408598Y-92374869D01*
X197519018Y-92358572D01*
X197692208Y-92309551D01*
X197853174Y-92229410D01*
X197987944Y-92125398D01*
X198008428Y-92104609D01*
X198074981Y-92017213D01*
X198135031Y-91908898D01*
X198181564Y-91795340D01*
X198207563Y-91692217D01*
X198210696Y-91652611D01*
X198197356Y-91569994D01*
X198161900Y-91467203D01*
X198111131Y-91359006D01*
X198051852Y-91260169D01*
X197999479Y-91194152D01*
X197877026Y-91095952D01*
X197718732Y-91017792D01*
X197530269Y-90961439D01*
X197317310Y-90928663D01*
X197122143Y-90920654D01*
X196957573Y-90929506D01*
X196957573Y-90929506D01*
G37*
X196957573Y-90929506D02*
X196819928Y-90952602D01*
X196714214Y-90988505D01*
X196645440Y-91035778D01*
X196626699Y-91062748D01*
X196607641Y-91125475D01*
X196620466Y-91182222D01*
X196660953Y-91236035D01*
X196723862Y-91261210D01*
X196815143Y-91259165D01*
X196885744Y-91245526D01*
X197042626Y-91219540D01*
X197202954Y-91217070D01*
X197382409Y-91238163D01*
X197431978Y-91247100D01*
X197598843Y-91294146D01*
X197729386Y-91364129D01*
X197822176Y-91455856D01*
X197875781Y-91568134D01*
X197886868Y-91626182D01*
X197879611Y-91743953D01*
X197832759Y-91848150D01*
X197750582Y-91936742D01*
X197637349Y-92007698D01*
X197497329Y-92058987D01*
X197334791Y-92088579D01*
X197154005Y-92094443D01*
X196959238Y-92074548D01*
X196948241Y-92072672D01*
X196870774Y-92058243D01*
X196827822Y-92044306D01*
X196809205Y-92023626D01*
X196804744Y-91988970D01*
X196804643Y-91970618D01*
X196804643Y-91893571D01*
X196942205Y-91893571D01*
X197063682Y-91885250D01*
X197146581Y-91858732D01*
X197194814Y-91811689D01*
X197212296Y-91741790D01*
X197212510Y-91732667D01*
X197202281Y-91672922D01*
X197167208Y-91630261D01*
X197101930Y-91602029D01*
X197001090Y-91585571D01*
X196903415Y-91579520D01*
X196761451Y-91576048D01*
X196658477Y-91581346D01*
X196588247Y-91600893D01*
X196544514Y-91640173D01*
X196521030Y-91704666D01*
X196511549Y-91799854D01*
X196509821Y-91924875D01*
X196512652Y-92064423D01*
X196521167Y-92159347D01*
X196535406Y-92210024D01*
X196538169Y-92213993D01*
X196616350Y-92277316D01*
X196730975Y-92327462D01*
X196874780Y-92363362D01*
X197040496Y-92383944D01*
X197220858Y-92388137D01*
X197408598Y-92374869D01*
X197519018Y-92358572D01*
X197692208Y-92309551D01*
X197853174Y-92229410D01*
X197987944Y-92125398D01*
X198008428Y-92104609D01*
X198074981Y-92017213D01*
X198135031Y-91908898D01*
X198181564Y-91795340D01*
X198207563Y-91692217D01*
X198210696Y-91652611D01*
X198197356Y-91569994D01*
X198161900Y-91467203D01*
X198111131Y-91359006D01*
X198051852Y-91260169D01*
X197999479Y-91194152D01*
X197877026Y-91095952D01*
X197718732Y-91017792D01*
X197530269Y-90961439D01*
X197317310Y-90928663D01*
X197122143Y-90920654D01*
X196957573Y-90929506D01*
G36*
X198913750Y-90963750D02*
X198900529Y-90978964D01*
X198890159Y-90998591D01*
X198882293Y-91027888D01*
X198876587Y-91072113D01*
X198872697Y-91136524D01*
X198870278Y-91226378D01*
X198868984Y-91346934D01*
X198868472Y-91503448D01*
X198868393Y-91655446D01*
X198868533Y-91843978D01*
X198869182Y-91992410D01*
X198870686Y-92106001D01*
X198873389Y-92190009D01*
X198877636Y-92249690D01*
X198883772Y-92290302D01*
X198892141Y-92317104D01*
X198903089Y-92335353D01*
X198913750Y-92347143D01*
X198980051Y-92386680D01*
X199050696Y-92383131D01*
X199113904Y-92340011D01*
X199128427Y-92323177D01*
X199139777Y-92303644D01*
X199148345Y-92276015D01*
X199154522Y-92234889D01*
X199158698Y-92174868D01*
X199161265Y-92090551D01*
X199162612Y-91976540D01*
X199163132Y-91827434D01*
X199163214Y-91658623D01*
X199163214Y-91029724D01*
X199107548Y-90974058D01*
X199038934Y-90927225D01*
X198972377Y-90925538D01*
X198913750Y-90963750D01*
X198913750Y-90963750D01*
G37*
X198913750Y-90963750D02*
X198900529Y-90978964D01*
X198890159Y-90998591D01*
X198882293Y-91027888D01*
X198876587Y-91072113D01*
X198872697Y-91136524D01*
X198870278Y-91226378D01*
X198868984Y-91346934D01*
X198868472Y-91503448D01*
X198868393Y-91655446D01*
X198868533Y-91843978D01*
X198869182Y-91992410D01*
X198870686Y-92106001D01*
X198873389Y-92190009D01*
X198877636Y-92249690D01*
X198883772Y-92290302D01*
X198892141Y-92317104D01*
X198903089Y-92335353D01*
X198913750Y-92347143D01*
X198980051Y-92386680D01*
X199050696Y-92383131D01*
X199113904Y-92340011D01*
X199128427Y-92323177D01*
X199139777Y-92303644D01*
X199148345Y-92276015D01*
X199154522Y-92234889D01*
X199158698Y-92174868D01*
X199161265Y-92090551D01*
X199162612Y-91976540D01*
X199163132Y-91827434D01*
X199163214Y-91658623D01*
X199163214Y-91029724D01*
X199107548Y-90974058D01*
X199038934Y-90927225D01*
X198972377Y-90925538D01*
X198913750Y-90963750D01*
G36*
X200456366Y-90920973D02*
X200306068Y-90931480D01*
X200166283Y-90947891D01*
X200045137Y-90969587D01*
X199950754Y-90995950D01*
X199891261Y-91026364D01*
X199882129Y-91035317D01*
X199850375Y-91104788D01*
X199860004Y-91176108D01*
X199909257Y-91237127D01*
X199911607Y-91238875D01*
X199940577Y-91257676D01*
X199970819Y-91267562D01*
X200013001Y-91268763D01*
X200077792Y-91261507D01*
X200175861Y-91246024D01*
X200183750Y-91244721D01*
X200329877Y-91226769D01*
X200487534Y-91217913D01*
X200645656Y-91217827D01*
X200793180Y-91226185D01*
X200919040Y-91242659D01*
X201012172Y-91266923D01*
X201018291Y-91269362D01*
X201085855Y-91307217D01*
X201109593Y-91345527D01*
X201091010Y-91383204D01*
X201031611Y-91419160D01*
X200932901Y-91452306D01*
X200796385Y-91481554D01*
X200705357Y-91495636D01*
X200516138Y-91522723D01*
X200365645Y-91547484D01*
X200247466Y-91572063D01*
X200155191Y-91598605D01*
X200082410Y-91629253D01*
X200022710Y-91666152D01*
X199969682Y-91711445D01*
X199927069Y-91755923D01*
X199876514Y-91817895D01*
X199851635Y-91871184D01*
X199843854Y-91936839D01*
X199843571Y-91960883D01*
X199849415Y-92040671D01*
X199872771Y-92100030D01*
X199913193Y-92152716D01*
X199995344Y-92233254D01*
X200086952Y-92294674D01*
X200194824Y-92338979D01*
X200325765Y-92368172D01*
X200486584Y-92384256D01*
X200684086Y-92389233D01*
X200716696Y-92389149D01*
X200848401Y-92386419D01*
X200979015Y-92380216D01*
X201094301Y-92371430D01*
X201180020Y-92360950D01*
X201186953Y-92359747D01*
X201272179Y-92339558D01*
X201344467Y-92314055D01*
X201385390Y-92290739D01*
X201423474Y-92229229D01*
X201426125Y-92157602D01*
X201393295Y-92093771D01*
X201385950Y-92086553D01*
X201355588Y-92065107D01*
X201317618Y-92055867D01*
X201258852Y-92057440D01*
X201187512Y-92065613D01*
X201107797Y-92072914D01*
X200996049Y-92079074D01*
X200865592Y-92083544D01*
X200729746Y-92085776D01*
X200694018Y-92085923D01*
X200557666Y-92085373D01*
X200457876Y-92082726D01*
X200385868Y-92077063D01*
X200332860Y-92067466D01*
X200290073Y-92053017D01*
X200264360Y-92040982D01*
X200207857Y-92007565D01*
X200171833Y-91977301D01*
X200166568Y-91968722D01*
X200177675Y-91933296D01*
X200230477Y-91899001D01*
X200321316Y-91867394D01*
X200446532Y-91840031D01*
X200483424Y-91833936D01*
X200676118Y-91803670D01*
X200829904Y-91778373D01*
X200950717Y-91756206D01*
X201044495Y-91735330D01*
X201117171Y-91713907D01*
X201174683Y-91690099D01*
X201222965Y-91662068D01*
X201267953Y-91627975D01*
X201315583Y-91585982D01*
X201331611Y-91571259D01*
X201387806Y-91516314D01*
X201417552Y-91472781D01*
X201429189Y-91422965D01*
X201431071Y-91360189D01*
X201410351Y-91237085D01*
X201348429Y-91132491D01*
X201245659Y-91046745D01*
X201102398Y-90980184D01*
X201000178Y-90950329D01*
X200889083Y-90931047D01*
X200755999Y-90920139D01*
X200609052Y-90916987D01*
X200456366Y-90920973D01*
X200456366Y-90920973D01*
G37*
X200456366Y-90920973D02*
X200306068Y-90931480D01*
X200166283Y-90947891D01*
X200045137Y-90969587D01*
X199950754Y-90995950D01*
X199891261Y-91026364D01*
X199882129Y-91035317D01*
X199850375Y-91104788D01*
X199860004Y-91176108D01*
X199909257Y-91237127D01*
X199911607Y-91238875D01*
X199940577Y-91257676D01*
X199970819Y-91267562D01*
X200013001Y-91268763D01*
X200077792Y-91261507D01*
X200175861Y-91246024D01*
X200183750Y-91244721D01*
X200329877Y-91226769D01*
X200487534Y-91217913D01*
X200645656Y-91217827D01*
X200793180Y-91226185D01*
X200919040Y-91242659D01*
X201012172Y-91266923D01*
X201018291Y-91269362D01*
X201085855Y-91307217D01*
X201109593Y-91345527D01*
X201091010Y-91383204D01*
X201031611Y-91419160D01*
X200932901Y-91452306D01*
X200796385Y-91481554D01*
X200705357Y-91495636D01*
X200516138Y-91522723D01*
X200365645Y-91547484D01*
X200247466Y-91572063D01*
X200155191Y-91598605D01*
X200082410Y-91629253D01*
X200022710Y-91666152D01*
X199969682Y-91711445D01*
X199927069Y-91755923D01*
X199876514Y-91817895D01*
X199851635Y-91871184D01*
X199843854Y-91936839D01*
X199843571Y-91960883D01*
X199849415Y-92040671D01*
X199872771Y-92100030D01*
X199913193Y-92152716D01*
X199995344Y-92233254D01*
X200086952Y-92294674D01*
X200194824Y-92338979D01*
X200325765Y-92368172D01*
X200486584Y-92384256D01*
X200684086Y-92389233D01*
X200716696Y-92389149D01*
X200848401Y-92386419D01*
X200979015Y-92380216D01*
X201094301Y-92371430D01*
X201180020Y-92360950D01*
X201186953Y-92359747D01*
X201272179Y-92339558D01*
X201344467Y-92314055D01*
X201385390Y-92290739D01*
X201423474Y-92229229D01*
X201426125Y-92157602D01*
X201393295Y-92093771D01*
X201385950Y-92086553D01*
X201355588Y-92065107D01*
X201317618Y-92055867D01*
X201258852Y-92057440D01*
X201187512Y-92065613D01*
X201107797Y-92072914D01*
X200996049Y-92079074D01*
X200865592Y-92083544D01*
X200729746Y-92085776D01*
X200694018Y-92085923D01*
X200557666Y-92085373D01*
X200457876Y-92082726D01*
X200385868Y-92077063D01*
X200332860Y-92067466D01*
X200290073Y-92053017D01*
X200264360Y-92040982D01*
X200207857Y-92007565D01*
X200171833Y-91977301D01*
X200166568Y-91968722D01*
X200177675Y-91933296D01*
X200230477Y-91899001D01*
X200321316Y-91867394D01*
X200446532Y-91840031D01*
X200483424Y-91833936D01*
X200676118Y-91803670D01*
X200829904Y-91778373D01*
X200950717Y-91756206D01*
X201044495Y-91735330D01*
X201117171Y-91713907D01*
X201174683Y-91690099D01*
X201222965Y-91662068D01*
X201267953Y-91627975D01*
X201315583Y-91585982D01*
X201331611Y-91571259D01*
X201387806Y-91516314D01*
X201417552Y-91472781D01*
X201429189Y-91422965D01*
X201431071Y-91360189D01*
X201410351Y-91237085D01*
X201348429Y-91132491D01*
X201245659Y-91046745D01*
X201102398Y-90980184D01*
X201000178Y-90950329D01*
X200889083Y-90931047D01*
X200755999Y-90920139D01*
X200609052Y-90916987D01*
X200456366Y-90920973D01*
G36*
X202507666Y-90918552D02*
X202368230Y-90919300D01*
X202262983Y-90921040D01*
X202186344Y-90924177D01*
X202132730Y-90929113D01*
X202096557Y-90936253D01*
X202072241Y-90946001D01*
X202054201Y-90958761D01*
X202047669Y-90964633D01*
X202007942Y-91027027D01*
X202000789Y-91098718D01*
X202026923Y-91162364D01*
X202039007Y-91175227D01*
X202058552Y-91187698D01*
X202090023Y-91197320D01*
X202139256Y-91204559D01*
X202212086Y-91209883D01*
X202314349Y-91213762D01*
X202451882Y-91216664D01*
X202577623Y-91218429D01*
X203075268Y-91224554D01*
X203082069Y-91354955D01*
X203088870Y-91485357D01*
X202751075Y-91485357D01*
X202604426Y-91486622D01*
X202497064Y-91491914D01*
X202422957Y-91503478D01*
X202376069Y-91523558D01*
X202350367Y-91554398D01*
X202339816Y-91598244D01*
X202338214Y-91638937D01*
X202343193Y-91688868D01*
X202361984Y-91725660D01*
X202400367Y-91751235D01*
X202464120Y-91767516D01*
X202559024Y-91776426D01*
X202690858Y-91779887D01*
X202762814Y-91780179D01*
X203086607Y-91780179D01*
X203086607Y-92097679D01*
X202587678Y-92097679D01*
X202424133Y-92097906D01*
X202299837Y-92098929D01*
X202208686Y-92101256D01*
X202144572Y-92105395D01*
X202101390Y-92111857D01*
X202073033Y-92121148D01*
X202053395Y-92133779D01*
X202043393Y-92143036D01*
X202009082Y-92197063D01*
X201998035Y-92245089D01*
X202013809Y-92303751D01*
X202043393Y-92347143D01*
X202059176Y-92360803D01*
X202079551Y-92371410D01*
X202109998Y-92379348D01*
X202155997Y-92385003D01*
X202223030Y-92388759D01*
X202316578Y-92391000D01*
X202442120Y-92392111D01*
X202605138Y-92392476D01*
X202689732Y-92392500D01*
X202870888Y-92392340D01*
X203012168Y-92391602D01*
X203119052Y-92389904D01*
X203197022Y-92386859D01*
X203251559Y-92382083D01*
X203288142Y-92375192D01*
X203312253Y-92365801D01*
X203329373Y-92353525D01*
X203336071Y-92347143D01*
X203349328Y-92331882D01*
X203359719Y-92312193D01*
X203367591Y-92282801D01*
X203373293Y-92238430D01*
X203377172Y-92173803D01*
X203379577Y-92083644D01*
X203380856Y-91962678D01*
X203381355Y-91805628D01*
X203381428Y-91659400D01*
X203381361Y-91472134D01*
X203380890Y-91324928D01*
X203379613Y-91212482D01*
X203377129Y-91129499D01*
X203373036Y-91070680D01*
X203366931Y-91030727D01*
X203358412Y-91004341D01*
X203347078Y-90986225D01*
X203332525Y-90971080D01*
X203328940Y-90967703D01*
X203311541Y-90952755D01*
X203291325Y-90941180D01*
X203262684Y-90932545D01*
X203220009Y-90926422D01*
X203157695Y-90922379D01*
X203070132Y-90919986D01*
X202951713Y-90918811D01*
X202796831Y-90918425D01*
X202686877Y-90918393D01*
X202507666Y-90918552D01*
X202507666Y-90918552D01*
G37*
X202507666Y-90918552D02*
X202368230Y-90919300D01*
X202262983Y-90921040D01*
X202186344Y-90924177D01*
X202132730Y-90929113D01*
X202096557Y-90936253D01*
X202072241Y-90946001D01*
X202054201Y-90958761D01*
X202047669Y-90964633D01*
X202007942Y-91027027D01*
X202000789Y-91098718D01*
X202026923Y-91162364D01*
X202039007Y-91175227D01*
X202058552Y-91187698D01*
X202090023Y-91197320D01*
X202139256Y-91204559D01*
X202212086Y-91209883D01*
X202314349Y-91213762D01*
X202451882Y-91216664D01*
X202577623Y-91218429D01*
X203075268Y-91224554D01*
X203082069Y-91354955D01*
X203088870Y-91485357D01*
X202751075Y-91485357D01*
X202604426Y-91486622D01*
X202497064Y-91491914D01*
X202422957Y-91503478D01*
X202376069Y-91523558D01*
X202350367Y-91554398D01*
X202339816Y-91598244D01*
X202338214Y-91638937D01*
X202343193Y-91688868D01*
X202361984Y-91725660D01*
X202400367Y-91751235D01*
X202464120Y-91767516D01*
X202559024Y-91776426D01*
X202690858Y-91779887D01*
X202762814Y-91780179D01*
X203086607Y-91780179D01*
X203086607Y-92097679D01*
X202587678Y-92097679D01*
X202424133Y-92097906D01*
X202299837Y-92098929D01*
X202208686Y-92101256D01*
X202144572Y-92105395D01*
X202101390Y-92111857D01*
X202073033Y-92121148D01*
X202053395Y-92133779D01*
X202043393Y-92143036D01*
X202009082Y-92197063D01*
X201998035Y-92245089D01*
X202013809Y-92303751D01*
X202043393Y-92347143D01*
X202059176Y-92360803D01*
X202079551Y-92371410D01*
X202109998Y-92379348D01*
X202155997Y-92385003D01*
X202223030Y-92388759D01*
X202316578Y-92391000D01*
X202442120Y-92392111D01*
X202605138Y-92392476D01*
X202689732Y-92392500D01*
X202870888Y-92392340D01*
X203012168Y-92391602D01*
X203119052Y-92389904D01*
X203197022Y-92386859D01*
X203251559Y-92382083D01*
X203288142Y-92375192D01*
X203312253Y-92365801D01*
X203329373Y-92353525D01*
X203336071Y-92347143D01*
X203349328Y-92331882D01*
X203359719Y-92312193D01*
X203367591Y-92282801D01*
X203373293Y-92238430D01*
X203377172Y-92173803D01*
X203379577Y-92083644D01*
X203380856Y-91962678D01*
X203381355Y-91805628D01*
X203381428Y-91659400D01*
X203381361Y-91472134D01*
X203380890Y-91324928D01*
X203379613Y-91212482D01*
X203377129Y-91129499D01*
X203373036Y-91070680D01*
X203366931Y-91030727D01*
X203358412Y-91004341D01*
X203347078Y-90986225D01*
X203332525Y-90971080D01*
X203328940Y-90967703D01*
X203311541Y-90952755D01*
X203291325Y-90941180D01*
X203262684Y-90932545D01*
X203220009Y-90926422D01*
X203157695Y-90922379D01*
X203070132Y-90919986D01*
X202951713Y-90918811D01*
X202796831Y-90918425D01*
X202686877Y-90918393D01*
X202507666Y-90918552D01*
G36*
X205337397Y-90918391D02*
X205258080Y-90919197D01*
X205025669Y-90924805D01*
X204831026Y-90941462D01*
X204667516Y-90970957D01*
X204528506Y-91015074D01*
X204407361Y-91075602D01*
X204297449Y-91154327D01*
X204258191Y-91188525D01*
X204193069Y-91268542D01*
X204134348Y-91377123D01*
X204089089Y-91497480D01*
X204064355Y-91612824D01*
X204061785Y-91655446D01*
X204077890Y-91773599D01*
X204121047Y-91902659D01*
X204183524Y-92024819D01*
X204257587Y-92122269D01*
X204269617Y-92134027D01*
X204371519Y-92216671D01*
X204483108Y-92281186D01*
X204610818Y-92329260D01*
X204761082Y-92362584D01*
X204940334Y-92382849D01*
X205155007Y-92391746D01*
X205253337Y-92392500D01*
X205378360Y-92391898D01*
X205466282Y-92389381D01*
X205525353Y-92383881D01*
X205563820Y-92374332D01*
X205589932Y-92359666D01*
X205603928Y-92347143D01*
X205617149Y-92331929D01*
X205627520Y-92312302D01*
X205635385Y-92283005D01*
X205641091Y-92238780D01*
X205644981Y-92174369D01*
X205647400Y-92084514D01*
X205648694Y-91963959D01*
X205649206Y-91807444D01*
X205649285Y-91655446D01*
X205649785Y-91452717D01*
X205649677Y-91290768D01*
X205647748Y-91213214D01*
X205354464Y-91213214D01*
X205354464Y-92097679D01*
X205167366Y-92097507D01*
X205054784Y-92094278D01*
X204936872Y-92085960D01*
X204838493Y-92074325D01*
X204835500Y-92073846D01*
X204676500Y-92035404D01*
X204553174Y-91975533D01*
X204459363Y-91890335D01*
X204399757Y-91798091D01*
X204363030Y-91695766D01*
X204365878Y-91599686D01*
X204408502Y-91496696D01*
X204491874Y-91390153D01*
X204607406Y-91311204D01*
X204757577Y-91258433D01*
X204857939Y-91239758D01*
X204971863Y-91226643D01*
X205092605Y-91217150D01*
X205195301Y-91213204D01*
X205201384Y-91213185D01*
X205354464Y-91213214D01*
X205647748Y-91213214D01*
X205646549Y-91165059D01*
X205637986Y-91071048D01*
X205621578Y-91004197D01*
X205594910Y-90959963D01*
X205555571Y-90933806D01*
X205501148Y-90921186D01*
X205429227Y-90917561D01*
X205337397Y-90918391D01*
X205337397Y-90918391D01*
G37*
X205337397Y-90918391D02*
X205258080Y-90919197D01*
X205025669Y-90924805D01*
X204831026Y-90941462D01*
X204667516Y-90970957D01*
X204528506Y-91015074D01*
X204407361Y-91075602D01*
X204297449Y-91154327D01*
X204258191Y-91188525D01*
X204193069Y-91268542D01*
X204134348Y-91377123D01*
X204089089Y-91497480D01*
X204064355Y-91612824D01*
X204061785Y-91655446D01*
X204077890Y-91773599D01*
X204121047Y-91902659D01*
X204183524Y-92024819D01*
X204257587Y-92122269D01*
X204269617Y-92134027D01*
X204371519Y-92216671D01*
X204483108Y-92281186D01*
X204610818Y-92329260D01*
X204761082Y-92362584D01*
X204940334Y-92382849D01*
X205155007Y-92391746D01*
X205253337Y-92392500D01*
X205378360Y-92391898D01*
X205466282Y-92389381D01*
X205525353Y-92383881D01*
X205563820Y-92374332D01*
X205589932Y-92359666D01*
X205603928Y-92347143D01*
X205617149Y-92331929D01*
X205627520Y-92312302D01*
X205635385Y-92283005D01*
X205641091Y-92238780D01*
X205644981Y-92174369D01*
X205647400Y-92084514D01*
X205648694Y-91963959D01*
X205649206Y-91807444D01*
X205649285Y-91655446D01*
X205649785Y-91452717D01*
X205649677Y-91290768D01*
X205647748Y-91213214D01*
X205354464Y-91213214D01*
X205354464Y-92097679D01*
X205167366Y-92097507D01*
X205054784Y-92094278D01*
X204936872Y-92085960D01*
X204838493Y-92074325D01*
X204835500Y-92073846D01*
X204676500Y-92035404D01*
X204553174Y-91975533D01*
X204459363Y-91890335D01*
X204399757Y-91798091D01*
X204363030Y-91695766D01*
X204365878Y-91599686D01*
X204408502Y-91496696D01*
X204491874Y-91390153D01*
X204607406Y-91311204D01*
X204757577Y-91258433D01*
X204857939Y-91239758D01*
X204971863Y-91226643D01*
X205092605Y-91217150D01*
X205195301Y-91213204D01*
X205201384Y-91213185D01*
X205354464Y-91213214D01*
X205647748Y-91213214D01*
X205646549Y-91165059D01*
X205637986Y-91071048D01*
X205621578Y-91004197D01*
X205594910Y-90959963D01*
X205555571Y-90933806D01*
X205501148Y-90921186D01*
X205429227Y-90917561D01*
X205337397Y-90918391D01*
G04 #@! TO.C,C15*
D13*
X165075142Y-98417142D02*
X165122761Y-98369523D01*
X165170380Y-98226666D01*
X165170380Y-98131428D01*
X165122761Y-97988571D01*
X165027523Y-97893333D01*
X164932285Y-97845714D01*
X164741809Y-97798095D01*
X164598952Y-97798095D01*
X164408476Y-97845714D01*
X164313238Y-97893333D01*
X164218000Y-97988571D01*
X164170380Y-98131428D01*
X164170380Y-98226666D01*
X164218000Y-98369523D01*
X164265619Y-98417142D01*
X165170380Y-99369523D02*
X165170380Y-98798095D01*
X165170380Y-99083809D02*
X164170380Y-99083809D01*
X164313238Y-98988571D01*
X164408476Y-98893333D01*
X164456095Y-98798095D01*
X164170380Y-100274285D02*
X164170380Y-99798095D01*
X164646571Y-99750476D01*
X164598952Y-99798095D01*
X164551333Y-99893333D01*
X164551333Y-100131428D01*
X164598952Y-100226666D01*
X164646571Y-100274285D01*
X164741809Y-100321904D01*
X164979904Y-100321904D01*
X165075142Y-100274285D01*
X165122761Y-100226666D01*
X165170380Y-100131428D01*
X165170380Y-99893333D01*
X165122761Y-99798095D01*
X165075142Y-99750476D01*
G04 #@! TD*
M02*
