G04 #@! TF.GenerationSoftware,KiCad,Pcbnew,5.0.2-bee76a0~70~ubuntu18.04.1*
G04 #@! TF.CreationDate,2020-01-13T15:24:33+02:00*
G04 #@! TF.ProjectId,videosport,76696465-6f73-4706-9f72-742e6b696361,rev?*
G04 #@! TF.SameCoordinates,Original*
G04 #@! TF.FileFunction,Copper,L2,Bot*
G04 #@! TF.FilePolarity,Positive*
%FSLAX46Y46*%
G04 Gerber Fmt 4.6, Leading zero omitted, Abs format (unit mm)*
G04 Created by KiCad (PCBNEW 5.0.2-bee76a0~70~ubuntu18.04.1) date Пнд 13 янв 2020 15:24:33*
%MOMM*%
%LPD*%
G01*
G04 APERTURE LIST*
G04 #@! TA.AperFunction,Conductor*
%ADD10C,0.100000*%
G04 #@! TD*
G04 #@! TA.AperFunction,SMDPad,CuDef*
%ADD11C,0.975000*%
G04 #@! TD*
G04 #@! TA.AperFunction,ComponentPad*
%ADD12C,0.800000*%
G04 #@! TD*
G04 #@! TA.AperFunction,ComponentPad*
%ADD13C,6.400000*%
G04 #@! TD*
G04 #@! TA.AperFunction,ComponentPad*
%ADD14R,1.600000X1.600000*%
G04 #@! TD*
G04 #@! TA.AperFunction,ComponentPad*
%ADD15O,1.600000X1.600000*%
G04 #@! TD*
G04 #@! TA.AperFunction,ComponentPad*
%ADD16C,1.900000*%
G04 #@! TD*
G04 #@! TA.AperFunction,ComponentPad*
%ADD17R,1.900000X1.900000*%
G04 #@! TD*
G04 #@! TA.AperFunction,ComponentPad*
%ADD18C,2.200000*%
G04 #@! TD*
G04 #@! TA.AperFunction,ComponentPad*
%ADD19R,2.200000X2.200000*%
G04 #@! TD*
G04 #@! TA.AperFunction,ComponentPad*
%ADD20C,1.500000*%
G04 #@! TD*
G04 #@! TA.AperFunction,ComponentPad*
%ADD21C,3.314700*%
G04 #@! TD*
G04 #@! TA.AperFunction,ComponentPad*
%ADD22O,1.800000X4.000000*%
G04 #@! TD*
G04 #@! TA.AperFunction,ComponentPad*
%ADD23O,4.000000X1.800000*%
G04 #@! TD*
G04 #@! TA.AperFunction,ComponentPad*
%ADD24R,4.400000X1.800000*%
G04 #@! TD*
G04 #@! TA.AperFunction,ComponentPad*
%ADD25C,4.000000*%
G04 #@! TD*
G04 #@! TA.AperFunction,ComponentPad*
%ADD26C,1.600000*%
G04 #@! TD*
G04 #@! TA.AperFunction,ViaPad*
%ADD27C,0.800000*%
G04 #@! TD*
G04 #@! TA.AperFunction,Conductor*
%ADD28C,0.250000*%
G04 #@! TD*
G04 #@! TA.AperFunction,Conductor*
%ADD29C,0.500000*%
G04 #@! TD*
G04 #@! TA.AperFunction,Conductor*
%ADD30C,0.254000*%
G04 #@! TD*
G04 APERTURE END LIST*
D10*
G04 #@! TO.N,+6V*
G04 #@! TO.C,C15*
G36*
X163548142Y-97636174D02*
X163571803Y-97639684D01*
X163595007Y-97645496D01*
X163617529Y-97653554D01*
X163639153Y-97663782D01*
X163659670Y-97676079D01*
X163678883Y-97690329D01*
X163696607Y-97706393D01*
X163712671Y-97724117D01*
X163726921Y-97743330D01*
X163739218Y-97763847D01*
X163749446Y-97785471D01*
X163757504Y-97807993D01*
X163763316Y-97831197D01*
X163766826Y-97854858D01*
X163768000Y-97878750D01*
X163768000Y-98366250D01*
X163766826Y-98390142D01*
X163763316Y-98413803D01*
X163757504Y-98437007D01*
X163749446Y-98459529D01*
X163739218Y-98481153D01*
X163726921Y-98501670D01*
X163712671Y-98520883D01*
X163696607Y-98538607D01*
X163678883Y-98554671D01*
X163659670Y-98568921D01*
X163639153Y-98581218D01*
X163617529Y-98591446D01*
X163595007Y-98599504D01*
X163571803Y-98605316D01*
X163548142Y-98608826D01*
X163524250Y-98610000D01*
X162611750Y-98610000D01*
X162587858Y-98608826D01*
X162564197Y-98605316D01*
X162540993Y-98599504D01*
X162518471Y-98591446D01*
X162496847Y-98581218D01*
X162476330Y-98568921D01*
X162457117Y-98554671D01*
X162439393Y-98538607D01*
X162423329Y-98520883D01*
X162409079Y-98501670D01*
X162396782Y-98481153D01*
X162386554Y-98459529D01*
X162378496Y-98437007D01*
X162372684Y-98413803D01*
X162369174Y-98390142D01*
X162368000Y-98366250D01*
X162368000Y-97878750D01*
X162369174Y-97854858D01*
X162372684Y-97831197D01*
X162378496Y-97807993D01*
X162386554Y-97785471D01*
X162396782Y-97763847D01*
X162409079Y-97743330D01*
X162423329Y-97724117D01*
X162439393Y-97706393D01*
X162457117Y-97690329D01*
X162476330Y-97676079D01*
X162496847Y-97663782D01*
X162518471Y-97653554D01*
X162540993Y-97645496D01*
X162564197Y-97639684D01*
X162587858Y-97636174D01*
X162611750Y-97635000D01*
X163524250Y-97635000D01*
X163548142Y-97636174D01*
X163548142Y-97636174D01*
G37*
D11*
G04 #@! TD*
G04 #@! TO.P,C15,2*
G04 #@! TO.N,+6V*
X163068000Y-98122500D03*
D10*
G04 #@! TO.N,GND*
G04 #@! TO.C,C15*
G36*
X163548142Y-99511174D02*
X163571803Y-99514684D01*
X163595007Y-99520496D01*
X163617529Y-99528554D01*
X163639153Y-99538782D01*
X163659670Y-99551079D01*
X163678883Y-99565329D01*
X163696607Y-99581393D01*
X163712671Y-99599117D01*
X163726921Y-99618330D01*
X163739218Y-99638847D01*
X163749446Y-99660471D01*
X163757504Y-99682993D01*
X163763316Y-99706197D01*
X163766826Y-99729858D01*
X163768000Y-99753750D01*
X163768000Y-100241250D01*
X163766826Y-100265142D01*
X163763316Y-100288803D01*
X163757504Y-100312007D01*
X163749446Y-100334529D01*
X163739218Y-100356153D01*
X163726921Y-100376670D01*
X163712671Y-100395883D01*
X163696607Y-100413607D01*
X163678883Y-100429671D01*
X163659670Y-100443921D01*
X163639153Y-100456218D01*
X163617529Y-100466446D01*
X163595007Y-100474504D01*
X163571803Y-100480316D01*
X163548142Y-100483826D01*
X163524250Y-100485000D01*
X162611750Y-100485000D01*
X162587858Y-100483826D01*
X162564197Y-100480316D01*
X162540993Y-100474504D01*
X162518471Y-100466446D01*
X162496847Y-100456218D01*
X162476330Y-100443921D01*
X162457117Y-100429671D01*
X162439393Y-100413607D01*
X162423329Y-100395883D01*
X162409079Y-100376670D01*
X162396782Y-100356153D01*
X162386554Y-100334529D01*
X162378496Y-100312007D01*
X162372684Y-100288803D01*
X162369174Y-100265142D01*
X162368000Y-100241250D01*
X162368000Y-99753750D01*
X162369174Y-99729858D01*
X162372684Y-99706197D01*
X162378496Y-99682993D01*
X162386554Y-99660471D01*
X162396782Y-99638847D01*
X162409079Y-99618330D01*
X162423329Y-99599117D01*
X162439393Y-99581393D01*
X162457117Y-99565329D01*
X162476330Y-99551079D01*
X162496847Y-99538782D01*
X162518471Y-99528554D01*
X162540993Y-99520496D01*
X162564197Y-99514684D01*
X162587858Y-99511174D01*
X162611750Y-99510000D01*
X163524250Y-99510000D01*
X163548142Y-99511174D01*
X163548142Y-99511174D01*
G37*
D11*
G04 #@! TD*
G04 #@! TO.P,C15,1*
G04 #@! TO.N,GND*
X163068000Y-99997500D03*
D12*
G04 #@! TO.P,H3,1*
G04 #@! TO.N,N/C*
X114701656Y-128284904D03*
X113004600Y-127581960D03*
X111307544Y-128284904D03*
X110604600Y-129981960D03*
X111307544Y-131679016D03*
X113004600Y-132381960D03*
X114701656Y-131679016D03*
X115404600Y-129981960D03*
D13*
X113004600Y-129981960D03*
G04 #@! TD*
G04 #@! TO.P,H2,1*
G04 #@! TO.N,N/C*
X205003400Y-57980580D03*
D12*
X207403400Y-57980580D03*
X206700456Y-59677636D03*
X205003400Y-60380580D03*
X203306344Y-59677636D03*
X202603400Y-57980580D03*
X203306344Y-56283524D03*
X205003400Y-55580580D03*
X206700456Y-56283524D03*
G04 #@! TD*
G04 #@! TO.P,H4,1*
G04 #@! TO.N,N/C*
X206700456Y-128284904D03*
X205003400Y-127581960D03*
X203306344Y-128284904D03*
X202603400Y-129981960D03*
X203306344Y-131679016D03*
X205003400Y-132381960D03*
X206700456Y-131679016D03*
X207403400Y-129981960D03*
D13*
X205003400Y-129981960D03*
G04 #@! TD*
G04 #@! TO.P,H1,1*
G04 #@! TO.N,N/C*
X113004600Y-57980580D03*
D12*
X115404600Y-57980580D03*
X114701656Y-59677636D03*
X113004600Y-60380580D03*
X111307544Y-59677636D03*
X110604600Y-57980580D03*
X111307544Y-56283524D03*
X113004600Y-55580580D03*
X114701656Y-56283524D03*
G04 #@! TD*
D14*
G04 #@! TO.P,U5,1*
G04 #@! TO.N,Net-(R19-Pad1)*
X165608000Y-95504000D03*
D15*
G04 #@! TO.P,U5,13*
G04 #@! TO.N,Net-(U5-Pad13)*
X137668000Y-110744000D03*
G04 #@! TO.P,U5,2*
G04 #@! TO.N,+6V*
X163068000Y-95504000D03*
G04 #@! TO.P,U5,14*
G04 #@! TO.N,F2MHZ*
X140208000Y-110744000D03*
G04 #@! TO.P,U5,3*
G04 #@! TO.N,BA*
X160528000Y-95504000D03*
G04 #@! TO.P,U5,15*
G04 #@! TO.N,Net-(U5-Pad15)*
X142748000Y-110744000D03*
G04 #@! TO.P,U5,4*
G04 #@! TO.N,Net-(D5-Pad2)*
X157988000Y-95504000D03*
G04 #@! TO.P,U5,16*
G04 #@! TO.N,N/C*
X145288000Y-110744000D03*
G04 #@! TO.P,U5,5*
G04 #@! TO.N,BS*
X155448000Y-95504000D03*
G04 #@! TO.P,U5,17*
G04 #@! TO.N,N/C*
X147828000Y-110744000D03*
G04 #@! TO.P,U5,6*
G04 #@! TO.N,RUN*
X152908000Y-95504000D03*
G04 #@! TO.P,U5,18*
G04 #@! TO.N,N/C*
X150368000Y-110744000D03*
G04 #@! TO.P,U5,7*
G04 #@! TO.N,Net-(D2-Pad2)*
X150368000Y-95504000D03*
G04 #@! TO.P,U5,19*
G04 #@! TO.N,Net-(C13-Pad2)*
X152908000Y-110744000D03*
G04 #@! TO.P,U5,8*
G04 #@! TO.N,Net-(D3-Pad2)*
X147828000Y-95504000D03*
G04 #@! TO.P,U5,20*
G04 #@! TO.N,Net-(D1-Pad2)*
X155448000Y-110744000D03*
G04 #@! TO.P,U5,9*
G04 #@! TO.N,PR*
X145288000Y-95504000D03*
G04 #@! TO.P,U5,21*
G04 #@! TO.N,RESET*
X157988000Y-110744000D03*
G04 #@! TO.P,U5,10*
G04 #@! TO.N,PL*
X142748000Y-95504000D03*
G04 #@! TO.P,U5,22*
G04 #@! TO.N,Net-(U5-Pad22)*
X160528000Y-110744000D03*
G04 #@! TO.P,U5,11*
G04 #@! TO.N,PS*
X140208000Y-95504000D03*
G04 #@! TO.P,U5,23*
G04 #@! TO.N,Net-(U5-Pad23)*
X163068000Y-110744000D03*
G04 #@! TO.P,U5,12*
G04 #@! TO.N,Net-(U1-Pad1)*
X137668000Y-95504000D03*
G04 #@! TO.P,U5,24*
G04 #@! TO.N,GND*
X165608000Y-110744000D03*
G04 #@! TD*
D16*
G04 #@! TO.P,S5,3*
G04 #@! TO.N,E_PL*
X118284000Y-98044000D03*
G04 #@! TO.P,S5,2*
G04 #@! TO.N,RUN*
X115784000Y-98044000D03*
D17*
G04 #@! TO.P,S5,1*
G04 #@! TO.N,GND*
X113284000Y-98044000D03*
G04 #@! TD*
G04 #@! TO.P,S2,1*
G04 #@! TO.N,GND*
X113284000Y-75184000D03*
D16*
G04 #@! TO.P,S2,2*
G04 #@! TO.N,BS*
X115784000Y-75184000D03*
G04 #@! TO.P,S2,3*
G04 #@! TO.N,Net-(S2-Pad3)*
X118284000Y-75184000D03*
G04 #@! TD*
G04 #@! TO.P,S3,3*
G04 #@! TO.N,Net-(S3-Pad3)*
X118284000Y-82804000D03*
G04 #@! TO.P,S3,2*
G04 #@! TO.N,BA*
X115784000Y-82804000D03*
D17*
G04 #@! TO.P,S3,1*
G04 #@! TO.N,GND*
X113284000Y-82804000D03*
G04 #@! TD*
G04 #@! TO.P,S4,1*
G04 #@! TO.N,Net-(S4-Pad1)*
X113284000Y-90424000D03*
D16*
G04 #@! TO.P,S4,2*
G04 #@! TO.N,FS1*
X115784000Y-90424000D03*
G04 #@! TO.P,S4,3*
G04 #@! TO.N,FS2*
X118284000Y-90424000D03*
G04 #@! TD*
D18*
G04 #@! TO.P,S7,3*
G04 #@! TO.N,GND*
X112268000Y-120832000D03*
G04 #@! TO.P,S7,4*
X118768000Y-120832000D03*
G04 #@! TO.P,S7,2*
G04 #@! TO.N,GAME_SEL*
X118768000Y-116332000D03*
D19*
G04 #@! TO.P,S7,1*
X112268000Y-116332000D03*
G04 #@! TD*
G04 #@! TO.P,S6,1*
G04 #@! TO.N,RESET*
X112268000Y-105156000D03*
D18*
G04 #@! TO.P,S6,2*
X118768000Y-105156000D03*
G04 #@! TO.P,S6,4*
G04 #@! TO.N,GND*
X118768000Y-109656000D03*
G04 #@! TO.P,S6,3*
X112268000Y-109656000D03*
G04 #@! TD*
D20*
G04 #@! TO.P,Y2,1*
G04 #@! TO.N,GND*
X133096000Y-80772000D03*
G04 #@! TO.P,Y2,2*
G04 #@! TO.N,Net-(C10-Pad2)*
X133096000Y-75892000D03*
G04 #@! TD*
D17*
G04 #@! TO.P,S1,1*
G04 #@! TO.N,GND*
X113284000Y-67564000D03*
D16*
G04 #@! TO.P,S1,2*
G04 #@! TO.N,PS*
X115784000Y-67564000D03*
G04 #@! TO.P,S1,3*
G04 #@! TO.N,Net-(S1-Pad3)*
X118284000Y-67564000D03*
G04 #@! TD*
D20*
G04 #@! TO.P,Y1,1*
G04 #@! TO.N,Net-(C2-Pad2)*
X196596000Y-112268000D03*
G04 #@! TO.P,Y1,2*
G04 #@! TO.N,Net-(R10-Pad2)*
X201476000Y-112268000D03*
G04 #@! TD*
D21*
G04 #@! TO.P,J5,PIN*
G04 #@! TO.N,Net-(C6-Pad2)*
X178958240Y-63134240D03*
G04 #@! TO.P,J5,SHEL*
G04 #@! TO.N,GND*
X175260000Y-59436000D03*
G04 #@! TO.P,J5,SWIT*
G04 #@! TO.N,Net-(C6-Pad2)*
X171561760Y-63134240D03*
G04 #@! TD*
D22*
G04 #@! TO.P,J4,3*
G04 #@! TO.N,N/C*
X187732000Y-65072000D03*
D23*
G04 #@! TO.P,J4,2*
G04 #@! TO.N,GND*
X192532000Y-62272000D03*
D24*
G04 #@! TO.P,J4,1*
G04 #@! TO.N,+9V*
X192532000Y-68072000D03*
G04 #@! TD*
D21*
G04 #@! TO.P,J3,PIN*
G04 #@! TO.N,Net-(J3-PadPIN)*
X164226240Y-63134240D03*
G04 #@! TO.P,J3,SHEL*
G04 #@! TO.N,GND*
X160528000Y-59436000D03*
G04 #@! TO.P,J3,SWIT*
G04 #@! TO.N,Net-(J3-PadPIN)*
X156829760Y-63134240D03*
G04 #@! TD*
D25*
G04 #@! TO.P,J2,0*
G04 #@! TO.N,N/C*
X192284000Y-126284000D03*
X167284000Y-126284000D03*
D26*
G04 #@! TO.P,J2,9*
G04 #@! TO.N,Net-(J2-Pad9)*
X183939000Y-128824000D03*
G04 #@! TO.P,J2,8*
G04 #@! TO.N,Net-(J2-Pad8)*
X181169000Y-128824000D03*
G04 #@! TO.P,J2,7*
G04 #@! TO.N,Net-(J2-Pad7)*
X178399000Y-128824000D03*
G04 #@! TO.P,J2,6*
G04 #@! TO.N,Net-(J2-Pad6)*
X175629000Y-128824000D03*
G04 #@! TO.P,J2,5*
G04 #@! TO.N,GND*
X185324000Y-125984000D03*
G04 #@! TO.P,J2,4*
G04 #@! TO.N,Net-(J2-Pad4)*
X182554000Y-125984000D03*
G04 #@! TO.P,J2,3*
G04 #@! TO.N,Net-(J2-Pad3)*
X179784000Y-125984000D03*
G04 #@! TO.P,J2,2*
G04 #@! TO.N,Net-(J2-Pad2)*
X177014000Y-125984000D03*
D14*
G04 #@! TO.P,J2,1*
G04 #@! TO.N,+6V*
X174244000Y-125984000D03*
G04 #@! TD*
G04 #@! TO.P,J1,1*
G04 #@! TO.N,+6V*
X134112000Y-125984000D03*
D26*
G04 #@! TO.P,J1,2*
G04 #@! TO.N,Net-(J1-Pad2)*
X136882000Y-125984000D03*
G04 #@! TO.P,J1,3*
G04 #@! TO.N,Net-(J1-Pad3)*
X139652000Y-125984000D03*
G04 #@! TO.P,J1,4*
G04 #@! TO.N,E_PL*
X142422000Y-125984000D03*
G04 #@! TO.P,J1,5*
G04 #@! TO.N,GND*
X145192000Y-125984000D03*
G04 #@! TO.P,J1,6*
G04 #@! TO.N,Net-(J1-Pad6)*
X135497000Y-128824000D03*
G04 #@! TO.P,J1,7*
G04 #@! TO.N,Net-(J1-Pad7)*
X138267000Y-128824000D03*
G04 #@! TO.P,J1,8*
G04 #@! TO.N,Net-(J1-Pad8)*
X141037000Y-128824000D03*
G04 #@! TO.P,J1,9*
G04 #@! TO.N,Net-(J1-Pad9)*
X143807000Y-128824000D03*
D25*
G04 #@! TO.P,J1,0*
G04 #@! TO.N,N/C*
X127152000Y-126284000D03*
X152152000Y-126284000D03*
G04 #@! TD*
D27*
G04 #@! TO.N,Net-(D1-Pad2)*
X155448000Y-101600000D03*
X155448000Y-98044000D03*
G04 #@! TO.N,Net-(U1-Pad1)*
X168496000Y-75184000D03*
X137668000Y-87376002D03*
G04 #@! TO.N,+6V*
X163068000Y-98160840D03*
G04 #@! TO.N,+5V*
X202262500Y-64516000D03*
X190500000Y-77470000D03*
G04 #@! TO.N,GND*
X154432000Y-84328000D03*
X150484840Y-84328000D03*
X146618841Y-84324961D03*
X186436000Y-92964000D03*
X189484000Y-92964000D03*
X190500000Y-92964000D03*
X191516000Y-92964000D03*
X189484000Y-93980000D03*
X190500000Y-93980000D03*
X191516000Y-93980000D03*
X166624000Y-81280000D03*
X165608000Y-81280000D03*
X185420000Y-98044000D03*
X185420000Y-99060000D03*
X185420000Y-100076000D03*
X185420000Y-101092000D03*
X185420000Y-102108000D03*
X143764000Y-119888000D03*
X137160000Y-64516000D03*
X138176000Y-64516000D03*
X139192000Y-64516000D03*
X184150000Y-81280000D03*
X184150000Y-82550000D03*
X182880000Y-80010000D03*
X182880000Y-81280000D03*
X182880000Y-82550000D03*
X164084000Y-84836000D03*
X165100000Y-84836000D03*
X166116000Y-84836000D03*
X167132000Y-84836000D03*
X168148000Y-84836000D03*
X133604000Y-110744000D03*
X133604000Y-111760000D03*
X134620000Y-111760000D03*
X134620000Y-110744000D03*
X130556000Y-113284000D03*
X131572000Y-114300000D03*
X132588000Y-115316000D03*
X128524000Y-117348000D03*
X128524000Y-118364000D03*
X128524000Y-119380000D03*
X165608000Y-76708000D03*
X166624000Y-76708000D03*
X166624000Y-77724000D03*
X148844000Y-77216000D03*
X149860000Y-77216000D03*
X150876000Y-77216000D03*
X151892000Y-77216000D03*
X152908000Y-77216000D03*
X153924000Y-77216000D03*
X154940000Y-77216000D03*
X165481000Y-79629000D03*
X154940000Y-79502000D03*
X153924000Y-79502000D03*
X152908000Y-79502000D03*
X151892000Y-79502000D03*
G04 #@! TO.N,Net-(R7-Pad1)*
X172212000Y-80264000D03*
X144272000Y-80439500D03*
G04 #@! TO.N,Net-(R6-Pad1)*
X172216660Y-81284660D03*
X141732000Y-80439500D03*
G04 #@! TO.N,Net-(R5-Pad1)*
X165608000Y-78522990D03*
X139192000Y-80439500D03*
G04 #@! TO.N,Net-(C1-Pad1)*
X195380157Y-101095735D03*
X203708000Y-107579160D03*
G04 #@! TO.N,Net-(R11-Pad1)*
X191008000Y-99451160D03*
X199136000Y-100076000D03*
G04 #@! TO.N,Net-(R25-Pad1)*
X133604000Y-64516000D03*
X144272000Y-67680840D03*
G04 #@! TO.N,Net-(C2-Pad2)*
X196088000Y-107188000D03*
X195380157Y-102365735D03*
G04 #@! TO.N,PL*
X139700000Y-114517010D03*
G04 #@! TO.N,PR*
X180340000Y-114300000D03*
G04 #@! TO.N,RESET*
X124068840Y-109728000D03*
G04 #@! TO.N,FS2*
X176276000Y-80264000D03*
X148844000Y-87658000D03*
X145288000Y-87658000D03*
G04 #@! TO.N,RUN*
X133604000Y-94488000D03*
G04 #@! TO.N,Net-(C13-Pad2)*
X131572000Y-110236000D03*
X128016000Y-115316000D03*
G04 #@! TO.N,Net-(R19-Pad1)*
X178308000Y-74676000D03*
G04 #@! TO.N,+6V*
X168910000Y-93980000D03*
X201597500Y-85090000D03*
G04 #@! TD*
D28*
G04 #@! TO.N,Net-(D1-Pad2)*
X155448000Y-101600000D02*
X155448000Y-98044000D01*
G04 #@! TO.N,Net-(U1-Pad1)*
X137668000Y-95504000D02*
X137668000Y-87376002D01*
D29*
G04 #@! TO.N,+6V*
X170464000Y-131064000D02*
X135128000Y-131064000D01*
X133604000Y-126492000D02*
X134112000Y-125984000D01*
X174244000Y-125984000D02*
X174244000Y-127284000D01*
X174244000Y-127284000D02*
X170464000Y-131064000D01*
X135128000Y-131064000D02*
X133604000Y-129540000D01*
X133604000Y-129540000D02*
X133604000Y-126492000D01*
D28*
G04 #@! TO.N,+5V*
X202262500Y-64516000D02*
X202262500Y-70787500D01*
X202262500Y-70787500D02*
X195580000Y-77470000D01*
X195580000Y-77470000D02*
X190500000Y-77470000D01*
G04 #@! TO.N,Net-(R7-Pad1)*
X172036500Y-80439500D02*
X172212000Y-80264000D01*
X144272000Y-80439500D02*
X172036500Y-80439500D01*
G04 #@! TO.N,Net-(R6-Pad1)*
X171816661Y-81684659D02*
X172216660Y-81284660D01*
X171496319Y-82005001D02*
X171816661Y-81684659D01*
X142710001Y-82005001D02*
X171496319Y-82005001D01*
X141732000Y-81027000D02*
X142710001Y-82005001D01*
X141732000Y-80439500D02*
X141732000Y-81027000D01*
G04 #@! TO.N,Net-(R5-Pad1)*
X141108510Y-78522990D02*
X165608000Y-78522990D01*
X139192000Y-80439500D02*
X141108510Y-78522990D01*
G04 #@! TO.N,Net-(C1-Pad1)*
X195380157Y-101095735D02*
X197224575Y-101095735D01*
X197224575Y-101095735D02*
X203708000Y-107579160D01*
G04 #@! TO.N,Net-(R11-Pad1)*
X191008000Y-99451160D02*
X198511160Y-99451160D01*
X198511160Y-99451160D02*
X199136000Y-100076000D01*
G04 #@! TO.N,Net-(R25-Pad1)*
X133604000Y-64516000D02*
X136768840Y-67680840D01*
X136768840Y-67680840D02*
X144272000Y-67680840D01*
G04 #@! TO.N,Net-(C2-Pad2)*
X196088000Y-107188000D02*
X196088000Y-103073578D01*
X196088000Y-103073578D02*
X195380157Y-102365735D01*
G04 #@! TO.N,PL*
X141622999Y-112594011D02*
X140099999Y-114117011D01*
X140099999Y-114117011D02*
X139700000Y-114517010D01*
X142748000Y-95504000D02*
X141622999Y-96629001D01*
X141622999Y-96629001D02*
X141622999Y-112594011D01*
G04 #@! TO.N,PR*
X145288000Y-96635370D02*
X152792630Y-104140000D01*
X145288000Y-95504000D02*
X145288000Y-96635370D01*
X152792630Y-104140000D02*
X170180000Y-104140000D01*
X170180000Y-104140000D02*
X180340000Y-114300000D01*
G04 #@! TO.N,RESET*
X124068840Y-110577440D02*
X124068840Y-109728000D01*
X124068840Y-113400840D02*
X124068840Y-110577440D01*
X127000000Y-116332000D02*
X124068840Y-113400840D01*
X157988000Y-110744000D02*
X152400000Y-116332000D01*
X152400000Y-116332000D02*
X127000000Y-116332000D01*
G04 #@! TO.N,FS2*
X149070000Y-87884000D02*
X148844000Y-87658000D01*
X176276000Y-80264000D02*
X168656000Y-87884000D01*
X168656000Y-87884000D02*
X149070000Y-87884000D01*
X118284000Y-90424000D02*
X129032000Y-90424000D01*
X143264999Y-85634999D02*
X145288000Y-87658000D01*
X133821001Y-85634999D02*
X143264999Y-85634999D01*
X129032000Y-90424000D02*
X133821001Y-85634999D01*
G04 #@! TO.N,RUN*
X133604000Y-94488000D02*
X116840000Y-94488000D01*
X115784000Y-95544000D02*
X115784000Y-98044000D01*
X116840000Y-94488000D02*
X115784000Y-95544000D01*
G04 #@! TO.N,Net-(C13-Pad2)*
X128016000Y-113792000D02*
X128016000Y-115316000D01*
X131572000Y-110236000D02*
X128016000Y-113792000D01*
G04 #@! TO.N,Net-(R19-Pad1)*
X178308000Y-81754000D02*
X178308000Y-74676000D01*
X165608000Y-94454000D02*
X178308000Y-81754000D01*
X165608000Y-95504000D02*
X165608000Y-94454000D01*
D29*
G04 #@! TO.N,+6V*
X163068000Y-98160840D02*
X163068000Y-95504000D01*
X196517500Y-90170000D02*
X201597500Y-85090000D01*
X168910000Y-93980000D02*
X172720000Y-90170000D01*
X184150000Y-114778000D02*
X184150000Y-90170000D01*
X174244000Y-124684000D02*
X184150000Y-114778000D01*
X174244000Y-125984000D02*
X174244000Y-124684000D01*
X172720000Y-90170000D02*
X184150000Y-90170000D01*
X184150000Y-90170000D02*
X196517500Y-90170000D01*
G04 #@! TD*
D30*
G04 #@! TO.N,GND*
G36*
X202831047Y-54729424D02*
X201752244Y-55808227D01*
X201168400Y-57217751D01*
X201168400Y-58743409D01*
X201752244Y-60152933D01*
X202831047Y-61231736D01*
X204240571Y-61815580D01*
X205766229Y-61815580D01*
X207175753Y-61231736D01*
X208254556Y-60152933D01*
X208586000Y-59352756D01*
X208586001Y-128609786D01*
X208254556Y-127809607D01*
X207175753Y-126730804D01*
X205766229Y-126146960D01*
X204240571Y-126146960D01*
X202831047Y-126730804D01*
X201752244Y-127809607D01*
X201168400Y-129219131D01*
X201168400Y-130744789D01*
X201752244Y-132154313D01*
X202831047Y-133233116D01*
X203238769Y-133402000D01*
X114769231Y-133402000D01*
X115176953Y-133233116D01*
X116255756Y-132154313D01*
X116839600Y-130744789D01*
X116839600Y-129219131D01*
X116255756Y-127809607D01*
X115176953Y-126730804D01*
X113767429Y-126146960D01*
X112241771Y-126146960D01*
X110832247Y-126730804D01*
X109753444Y-127809607D01*
X109422000Y-128609784D01*
X109422000Y-125759866D01*
X124517000Y-125759866D01*
X124517000Y-126808134D01*
X124918155Y-127776608D01*
X125659392Y-128517845D01*
X126627866Y-128919000D01*
X127676134Y-128919000D01*
X128644608Y-128517845D01*
X129385845Y-127776608D01*
X129787000Y-126808134D01*
X129787000Y-125759866D01*
X129548469Y-125184000D01*
X132664560Y-125184000D01*
X132664560Y-126784000D01*
X132713843Y-127031765D01*
X132719001Y-127039484D01*
X132719000Y-129452839D01*
X132701663Y-129540000D01*
X132719000Y-129627161D01*
X132719000Y-129627164D01*
X132770348Y-129885309D01*
X132965951Y-130178049D01*
X133039847Y-130227425D01*
X134440577Y-131628156D01*
X134489951Y-131702049D01*
X134563844Y-131751423D01*
X134563845Y-131751424D01*
X134630079Y-131795680D01*
X134782690Y-131897652D01*
X135040835Y-131949000D01*
X135040839Y-131949000D01*
X135127999Y-131966337D01*
X135215159Y-131949000D01*
X170376839Y-131949000D01*
X170464000Y-131966337D01*
X170551161Y-131949000D01*
X170551165Y-131949000D01*
X170809310Y-131897652D01*
X171102049Y-131702049D01*
X171151425Y-131628153D01*
X174194000Y-128585579D01*
X174194000Y-129109439D01*
X174412466Y-129636862D01*
X174816138Y-130040534D01*
X175343561Y-130259000D01*
X175914439Y-130259000D01*
X176441862Y-130040534D01*
X176845534Y-129636862D01*
X177014000Y-129230150D01*
X177182466Y-129636862D01*
X177586138Y-130040534D01*
X178113561Y-130259000D01*
X178684439Y-130259000D01*
X179211862Y-130040534D01*
X179615534Y-129636862D01*
X179784000Y-129230150D01*
X179952466Y-129636862D01*
X180356138Y-130040534D01*
X180883561Y-130259000D01*
X181454439Y-130259000D01*
X181981862Y-130040534D01*
X182385534Y-129636862D01*
X182554000Y-129230150D01*
X182722466Y-129636862D01*
X183126138Y-130040534D01*
X183653561Y-130259000D01*
X184224439Y-130259000D01*
X184751862Y-130040534D01*
X185155534Y-129636862D01*
X185374000Y-129109439D01*
X185374000Y-128538561D01*
X185155534Y-128011138D01*
X184751862Y-127607466D01*
X184224439Y-127389000D01*
X183653561Y-127389000D01*
X183126138Y-127607466D01*
X182722466Y-128011138D01*
X182554000Y-128417850D01*
X182385534Y-128011138D01*
X181981862Y-127607466D01*
X181454439Y-127389000D01*
X180883561Y-127389000D01*
X180356138Y-127607466D01*
X179952466Y-128011138D01*
X179784000Y-128417850D01*
X179615534Y-128011138D01*
X179211862Y-127607466D01*
X178684439Y-127389000D01*
X178113561Y-127389000D01*
X177586138Y-127607466D01*
X177182466Y-128011138D01*
X177014000Y-128417850D01*
X176845534Y-128011138D01*
X176441862Y-127607466D01*
X175914439Y-127389000D01*
X175343561Y-127389000D01*
X175105868Y-127487456D01*
X175120018Y-127416319D01*
X175291765Y-127382157D01*
X175501809Y-127241809D01*
X175642157Y-127031765D01*
X175691440Y-126784000D01*
X175691440Y-126540893D01*
X175797466Y-126796862D01*
X176201138Y-127200534D01*
X176728561Y-127419000D01*
X177299439Y-127419000D01*
X177826862Y-127200534D01*
X178230534Y-126796862D01*
X178399000Y-126390150D01*
X178567466Y-126796862D01*
X178971138Y-127200534D01*
X179498561Y-127419000D01*
X180069439Y-127419000D01*
X180596862Y-127200534D01*
X181000534Y-126796862D01*
X181169000Y-126390150D01*
X181337466Y-126796862D01*
X181741138Y-127200534D01*
X182268561Y-127419000D01*
X182839439Y-127419000D01*
X183366862Y-127200534D01*
X183575651Y-126991745D01*
X184495861Y-126991745D01*
X184569995Y-127237864D01*
X185107223Y-127430965D01*
X185677454Y-127403778D01*
X186078005Y-127237864D01*
X186152139Y-126991745D01*
X185324000Y-126163605D01*
X184495861Y-126991745D01*
X183575651Y-126991745D01*
X183770534Y-126796862D01*
X183932525Y-126405782D01*
X184070136Y-126738005D01*
X184316255Y-126812139D01*
X185144395Y-125984000D01*
X185503605Y-125984000D01*
X186331745Y-126812139D01*
X186577864Y-126738005D01*
X186770965Y-126200777D01*
X186749944Y-125759866D01*
X189649000Y-125759866D01*
X189649000Y-126808134D01*
X190050155Y-127776608D01*
X190791392Y-128517845D01*
X191759866Y-128919000D01*
X192808134Y-128919000D01*
X193776608Y-128517845D01*
X194517845Y-127776608D01*
X194919000Y-126808134D01*
X194919000Y-125759866D01*
X194517845Y-124791392D01*
X193776608Y-124050155D01*
X192808134Y-123649000D01*
X191759866Y-123649000D01*
X190791392Y-124050155D01*
X190050155Y-124791392D01*
X189649000Y-125759866D01*
X186749944Y-125759866D01*
X186743778Y-125630546D01*
X186577864Y-125229995D01*
X186331745Y-125155861D01*
X185503605Y-125984000D01*
X185144395Y-125984000D01*
X184316255Y-125155861D01*
X184070136Y-125229995D01*
X183942268Y-125585739D01*
X183770534Y-125171138D01*
X183575651Y-124976255D01*
X184495861Y-124976255D01*
X185324000Y-125804395D01*
X186152139Y-124976255D01*
X186078005Y-124730136D01*
X185540777Y-124537035D01*
X184970546Y-124564222D01*
X184569995Y-124730136D01*
X184495861Y-124976255D01*
X183575651Y-124976255D01*
X183366862Y-124767466D01*
X182839439Y-124549000D01*
X182268561Y-124549000D01*
X181741138Y-124767466D01*
X181337466Y-125171138D01*
X181169000Y-125577850D01*
X181000534Y-125171138D01*
X180596862Y-124767466D01*
X180069439Y-124549000D01*
X179498561Y-124549000D01*
X178971138Y-124767466D01*
X178567466Y-125171138D01*
X178399000Y-125577850D01*
X178230534Y-125171138D01*
X177826862Y-124767466D01*
X177299439Y-124549000D01*
X176728561Y-124549000D01*
X176201138Y-124767466D01*
X175797466Y-125171138D01*
X175691440Y-125427107D01*
X175691440Y-125184000D01*
X175642157Y-124936235D01*
X175501809Y-124726191D01*
X175472782Y-124706796D01*
X184714157Y-115465422D01*
X184788049Y-115416049D01*
X184871005Y-115291898D01*
X184983652Y-115123310D01*
X184993284Y-115074888D01*
X185035000Y-114865165D01*
X185035000Y-114865161D01*
X185052337Y-114778000D01*
X185035000Y-114690839D01*
X185035000Y-111992506D01*
X195211000Y-111992506D01*
X195211000Y-112543494D01*
X195421853Y-113052540D01*
X195811460Y-113442147D01*
X196320506Y-113653000D01*
X196871494Y-113653000D01*
X197380540Y-113442147D01*
X197770147Y-113052540D01*
X197981000Y-112543494D01*
X197981000Y-111992506D01*
X200091000Y-111992506D01*
X200091000Y-112543494D01*
X200301853Y-113052540D01*
X200691460Y-113442147D01*
X201200506Y-113653000D01*
X201751494Y-113653000D01*
X202260540Y-113442147D01*
X202650147Y-113052540D01*
X202861000Y-112543494D01*
X202861000Y-111992506D01*
X202650147Y-111483460D01*
X202260540Y-111093853D01*
X201751494Y-110883000D01*
X201200506Y-110883000D01*
X200691460Y-111093853D01*
X200301853Y-111483460D01*
X200091000Y-111992506D01*
X197981000Y-111992506D01*
X197770147Y-111483460D01*
X197380540Y-111093853D01*
X196871494Y-110883000D01*
X196320506Y-110883000D01*
X195811460Y-111093853D01*
X195421853Y-111483460D01*
X195211000Y-111992506D01*
X185035000Y-111992506D01*
X185035000Y-99245286D01*
X189973000Y-99245286D01*
X189973000Y-99657034D01*
X190130569Y-100037440D01*
X190421720Y-100328591D01*
X190802126Y-100486160D01*
X191213874Y-100486160D01*
X191594280Y-100328591D01*
X191711711Y-100211160D01*
X194811124Y-100211160D01*
X194793877Y-100218304D01*
X194502726Y-100509455D01*
X194345157Y-100889861D01*
X194345157Y-101301609D01*
X194502726Y-101682015D01*
X194551446Y-101730735D01*
X194502726Y-101779455D01*
X194345157Y-102159861D01*
X194345157Y-102571609D01*
X194502726Y-102952015D01*
X194793877Y-103243166D01*
X195174283Y-103400735D01*
X195328001Y-103400735D01*
X195328000Y-106484289D01*
X195210569Y-106601720D01*
X195053000Y-106982126D01*
X195053000Y-107393874D01*
X195210569Y-107774280D01*
X195501720Y-108065431D01*
X195882126Y-108223000D01*
X196293874Y-108223000D01*
X196674280Y-108065431D01*
X196965431Y-107774280D01*
X197123000Y-107393874D01*
X197123000Y-106982126D01*
X196965431Y-106601720D01*
X196848000Y-106484289D01*
X196848000Y-103148424D01*
X196862888Y-103073577D01*
X196848000Y-102998730D01*
X196848000Y-102998726D01*
X196803904Y-102777041D01*
X196635929Y-102525649D01*
X196572473Y-102483249D01*
X196415157Y-102325933D01*
X196415157Y-102159861D01*
X196289184Y-101855735D01*
X196909774Y-101855735D01*
X202673000Y-107618962D01*
X202673000Y-107785034D01*
X202830569Y-108165440D01*
X203121720Y-108456591D01*
X203502126Y-108614160D01*
X203913874Y-108614160D01*
X204294280Y-108456591D01*
X204585431Y-108165440D01*
X204743000Y-107785034D01*
X204743000Y-107373286D01*
X204585431Y-106992880D01*
X204294280Y-106701729D01*
X203913874Y-106544160D01*
X203747802Y-106544160D01*
X197814906Y-100611265D01*
X197772504Y-100547806D01*
X197521112Y-100379831D01*
X197299427Y-100335735D01*
X197299422Y-100335735D01*
X197224575Y-100320847D01*
X197149728Y-100335735D01*
X196083868Y-100335735D01*
X195966437Y-100218304D01*
X195949190Y-100211160D01*
X198101000Y-100211160D01*
X198101000Y-100281874D01*
X198258569Y-100662280D01*
X198549720Y-100953431D01*
X198930126Y-101111000D01*
X199341874Y-101111000D01*
X199722280Y-100953431D01*
X200013431Y-100662280D01*
X200171000Y-100281874D01*
X200171000Y-99870126D01*
X200013431Y-99489720D01*
X199722280Y-99198569D01*
X199341874Y-99041000D01*
X199175801Y-99041000D01*
X199101491Y-98966690D01*
X199059089Y-98903231D01*
X198807697Y-98735256D01*
X198586012Y-98691160D01*
X198586007Y-98691160D01*
X198511160Y-98676272D01*
X198436313Y-98691160D01*
X191711711Y-98691160D01*
X191594280Y-98573729D01*
X191213874Y-98416160D01*
X190802126Y-98416160D01*
X190421720Y-98573729D01*
X190130569Y-98864880D01*
X189973000Y-99245286D01*
X185035000Y-99245286D01*
X185035000Y-91055000D01*
X196430339Y-91055000D01*
X196517500Y-91072337D01*
X196604661Y-91055000D01*
X196604665Y-91055000D01*
X196862810Y-91003652D01*
X197155549Y-90808049D01*
X197204925Y-90734153D01*
X201821648Y-86117431D01*
X202183780Y-85967431D01*
X202474931Y-85676280D01*
X202632500Y-85295874D01*
X202632500Y-84884126D01*
X202474931Y-84503720D01*
X202183780Y-84212569D01*
X201803374Y-84055000D01*
X201391626Y-84055000D01*
X201011220Y-84212569D01*
X200720069Y-84503720D01*
X200570069Y-84865852D01*
X196150922Y-89285000D01*
X184237165Y-89285000D01*
X184150000Y-89267662D01*
X184062836Y-89285000D01*
X172807161Y-89285000D01*
X172720000Y-89267663D01*
X172632839Y-89285000D01*
X172632835Y-89285000D01*
X172374690Y-89336348D01*
X172155845Y-89482576D01*
X172155844Y-89482577D01*
X172081951Y-89531951D01*
X172032577Y-89605844D01*
X168685853Y-92952569D01*
X168323720Y-93102569D01*
X168032569Y-93393720D01*
X167875000Y-93774126D01*
X167875000Y-94185874D01*
X168032569Y-94566280D01*
X168323720Y-94857431D01*
X168704126Y-95015000D01*
X169115874Y-95015000D01*
X169496280Y-94857431D01*
X169787431Y-94566280D01*
X169937431Y-94204147D01*
X173086579Y-91055000D01*
X183265001Y-91055000D01*
X183265000Y-114411421D01*
X173679845Y-123996577D01*
X173605952Y-124045951D01*
X173556578Y-124119844D01*
X173556576Y-124119846D01*
X173410348Y-124338691D01*
X173367982Y-124551681D01*
X173196235Y-124585843D01*
X172986191Y-124726191D01*
X172845843Y-124936235D01*
X172796560Y-125184000D01*
X172796560Y-126784000D01*
X172845843Y-127031765D01*
X172986191Y-127241809D01*
X173015217Y-127261204D01*
X170097422Y-130179000D01*
X144285576Y-130179000D01*
X144619862Y-130040534D01*
X145023534Y-129636862D01*
X145242000Y-129109439D01*
X145242000Y-128538561D01*
X145023534Y-128011138D01*
X144619862Y-127607466D01*
X144092439Y-127389000D01*
X143521561Y-127389000D01*
X142994138Y-127607466D01*
X142590466Y-128011138D01*
X142422000Y-128417850D01*
X142253534Y-128011138D01*
X141849862Y-127607466D01*
X141322439Y-127389000D01*
X140751561Y-127389000D01*
X140224138Y-127607466D01*
X139820466Y-128011138D01*
X139652000Y-128417850D01*
X139483534Y-128011138D01*
X139079862Y-127607466D01*
X138552439Y-127389000D01*
X137981561Y-127389000D01*
X137454138Y-127607466D01*
X137050466Y-128011138D01*
X136882000Y-128417850D01*
X136713534Y-128011138D01*
X136309862Y-127607466D01*
X135782439Y-127389000D01*
X135211561Y-127389000D01*
X134684138Y-127607466D01*
X134489000Y-127802604D01*
X134489000Y-127431440D01*
X134912000Y-127431440D01*
X135159765Y-127382157D01*
X135369809Y-127241809D01*
X135510157Y-127031765D01*
X135559440Y-126784000D01*
X135559440Y-126540893D01*
X135665466Y-126796862D01*
X136069138Y-127200534D01*
X136596561Y-127419000D01*
X137167439Y-127419000D01*
X137694862Y-127200534D01*
X138098534Y-126796862D01*
X138267000Y-126390150D01*
X138435466Y-126796862D01*
X138839138Y-127200534D01*
X139366561Y-127419000D01*
X139937439Y-127419000D01*
X140464862Y-127200534D01*
X140868534Y-126796862D01*
X141037000Y-126390150D01*
X141205466Y-126796862D01*
X141609138Y-127200534D01*
X142136561Y-127419000D01*
X142707439Y-127419000D01*
X143234862Y-127200534D01*
X143443651Y-126991745D01*
X144363861Y-126991745D01*
X144437995Y-127237864D01*
X144975223Y-127430965D01*
X145545454Y-127403778D01*
X145946005Y-127237864D01*
X146020139Y-126991745D01*
X145192000Y-126163605D01*
X144363861Y-126991745D01*
X143443651Y-126991745D01*
X143638534Y-126796862D01*
X143800525Y-126405782D01*
X143938136Y-126738005D01*
X144184255Y-126812139D01*
X145012395Y-125984000D01*
X145371605Y-125984000D01*
X146199745Y-126812139D01*
X146445864Y-126738005D01*
X146638965Y-126200777D01*
X146617944Y-125759866D01*
X149517000Y-125759866D01*
X149517000Y-126808134D01*
X149918155Y-127776608D01*
X150659392Y-128517845D01*
X151627866Y-128919000D01*
X152676134Y-128919000D01*
X153644608Y-128517845D01*
X154385845Y-127776608D01*
X154787000Y-126808134D01*
X154787000Y-125759866D01*
X164649000Y-125759866D01*
X164649000Y-126808134D01*
X165050155Y-127776608D01*
X165791392Y-128517845D01*
X166759866Y-128919000D01*
X167808134Y-128919000D01*
X168776608Y-128517845D01*
X169517845Y-127776608D01*
X169919000Y-126808134D01*
X169919000Y-125759866D01*
X169517845Y-124791392D01*
X168776608Y-124050155D01*
X167808134Y-123649000D01*
X166759866Y-123649000D01*
X165791392Y-124050155D01*
X165050155Y-124791392D01*
X164649000Y-125759866D01*
X154787000Y-125759866D01*
X154385845Y-124791392D01*
X153644608Y-124050155D01*
X152676134Y-123649000D01*
X151627866Y-123649000D01*
X150659392Y-124050155D01*
X149918155Y-124791392D01*
X149517000Y-125759866D01*
X146617944Y-125759866D01*
X146611778Y-125630546D01*
X146445864Y-125229995D01*
X146199745Y-125155861D01*
X145371605Y-125984000D01*
X145012395Y-125984000D01*
X144184255Y-125155861D01*
X143938136Y-125229995D01*
X143810268Y-125585739D01*
X143638534Y-125171138D01*
X143443651Y-124976255D01*
X144363861Y-124976255D01*
X145192000Y-125804395D01*
X146020139Y-124976255D01*
X145946005Y-124730136D01*
X145408777Y-124537035D01*
X144838546Y-124564222D01*
X144437995Y-124730136D01*
X144363861Y-124976255D01*
X143443651Y-124976255D01*
X143234862Y-124767466D01*
X142707439Y-124549000D01*
X142136561Y-124549000D01*
X141609138Y-124767466D01*
X141205466Y-125171138D01*
X141037000Y-125577850D01*
X140868534Y-125171138D01*
X140464862Y-124767466D01*
X139937439Y-124549000D01*
X139366561Y-124549000D01*
X138839138Y-124767466D01*
X138435466Y-125171138D01*
X138267000Y-125577850D01*
X138098534Y-125171138D01*
X137694862Y-124767466D01*
X137167439Y-124549000D01*
X136596561Y-124549000D01*
X136069138Y-124767466D01*
X135665466Y-125171138D01*
X135559440Y-125427107D01*
X135559440Y-125184000D01*
X135510157Y-124936235D01*
X135369809Y-124726191D01*
X135159765Y-124585843D01*
X134912000Y-124536560D01*
X133312000Y-124536560D01*
X133064235Y-124585843D01*
X132854191Y-124726191D01*
X132713843Y-124936235D01*
X132664560Y-125184000D01*
X129548469Y-125184000D01*
X129385845Y-124791392D01*
X128644608Y-124050155D01*
X127676134Y-123649000D01*
X126627866Y-123649000D01*
X125659392Y-124050155D01*
X124918155Y-124791392D01*
X124517000Y-125759866D01*
X109422000Y-125759866D01*
X109422000Y-122056868D01*
X111222737Y-122056868D01*
X111333641Y-122334099D01*
X111979593Y-122577323D01*
X112669453Y-122554836D01*
X113202359Y-122334099D01*
X113313263Y-122056868D01*
X117722737Y-122056868D01*
X117833641Y-122334099D01*
X118479593Y-122577323D01*
X119169453Y-122554836D01*
X119702359Y-122334099D01*
X119813263Y-122056868D01*
X118768000Y-121011605D01*
X117722737Y-122056868D01*
X113313263Y-122056868D01*
X112268000Y-121011605D01*
X111222737Y-122056868D01*
X109422000Y-122056868D01*
X109422000Y-120543593D01*
X110522677Y-120543593D01*
X110545164Y-121233453D01*
X110765901Y-121766359D01*
X111043132Y-121877263D01*
X112088395Y-120832000D01*
X112447605Y-120832000D01*
X113492868Y-121877263D01*
X113770099Y-121766359D01*
X114013323Y-121120407D01*
X113994521Y-120543593D01*
X117022677Y-120543593D01*
X117045164Y-121233453D01*
X117265901Y-121766359D01*
X117543132Y-121877263D01*
X118588395Y-120832000D01*
X118947605Y-120832000D01*
X119992868Y-121877263D01*
X120270099Y-121766359D01*
X120513323Y-121120407D01*
X120490836Y-120430547D01*
X120270099Y-119897641D01*
X119992868Y-119786737D01*
X118947605Y-120832000D01*
X118588395Y-120832000D01*
X117543132Y-119786737D01*
X117265901Y-119897641D01*
X117022677Y-120543593D01*
X113994521Y-120543593D01*
X113990836Y-120430547D01*
X113770099Y-119897641D01*
X113492868Y-119786737D01*
X112447605Y-120832000D01*
X112088395Y-120832000D01*
X111043132Y-119786737D01*
X110765901Y-119897641D01*
X110522677Y-120543593D01*
X109422000Y-120543593D01*
X109422000Y-119607132D01*
X111222737Y-119607132D01*
X112268000Y-120652395D01*
X113313263Y-119607132D01*
X117722737Y-119607132D01*
X118768000Y-120652395D01*
X119813263Y-119607132D01*
X119702359Y-119329901D01*
X119056407Y-119086677D01*
X118366547Y-119109164D01*
X117833641Y-119329901D01*
X117722737Y-119607132D01*
X113313263Y-119607132D01*
X113202359Y-119329901D01*
X112556407Y-119086677D01*
X111866547Y-119109164D01*
X111333641Y-119329901D01*
X111222737Y-119607132D01*
X109422000Y-119607132D01*
X109422000Y-115232000D01*
X110520560Y-115232000D01*
X110520560Y-117432000D01*
X110569843Y-117679765D01*
X110710191Y-117889809D01*
X110920235Y-118030157D01*
X111168000Y-118079440D01*
X113368000Y-118079440D01*
X113615765Y-118030157D01*
X113825809Y-117889809D01*
X113966157Y-117679765D01*
X114015440Y-117432000D01*
X114015440Y-115986887D01*
X117033000Y-115986887D01*
X117033000Y-116677113D01*
X117297138Y-117314799D01*
X117785201Y-117802862D01*
X118422887Y-118067000D01*
X119113113Y-118067000D01*
X119750799Y-117802862D01*
X120238862Y-117314799D01*
X120503000Y-116677113D01*
X120503000Y-115986887D01*
X120238862Y-115349201D01*
X119750799Y-114861138D01*
X119113113Y-114597000D01*
X118422887Y-114597000D01*
X117785201Y-114861138D01*
X117297138Y-115349201D01*
X117033000Y-115986887D01*
X114015440Y-115986887D01*
X114015440Y-115232000D01*
X113966157Y-114984235D01*
X113825809Y-114774191D01*
X113615765Y-114633843D01*
X113368000Y-114584560D01*
X111168000Y-114584560D01*
X110920235Y-114633843D01*
X110710191Y-114774191D01*
X110569843Y-114984235D01*
X110520560Y-115232000D01*
X109422000Y-115232000D01*
X109422000Y-110880868D01*
X111222737Y-110880868D01*
X111333641Y-111158099D01*
X111979593Y-111401323D01*
X112669453Y-111378836D01*
X113202359Y-111158099D01*
X113313263Y-110880868D01*
X117722737Y-110880868D01*
X117833641Y-111158099D01*
X118479593Y-111401323D01*
X119169453Y-111378836D01*
X119702359Y-111158099D01*
X119813263Y-110880868D01*
X118768000Y-109835605D01*
X117722737Y-110880868D01*
X113313263Y-110880868D01*
X112268000Y-109835605D01*
X111222737Y-110880868D01*
X109422000Y-110880868D01*
X109422000Y-109367593D01*
X110522677Y-109367593D01*
X110545164Y-110057453D01*
X110765901Y-110590359D01*
X111043132Y-110701263D01*
X112088395Y-109656000D01*
X112447605Y-109656000D01*
X113492868Y-110701263D01*
X113770099Y-110590359D01*
X114013323Y-109944407D01*
X113994521Y-109367593D01*
X117022677Y-109367593D01*
X117045164Y-110057453D01*
X117265901Y-110590359D01*
X117543132Y-110701263D01*
X118588395Y-109656000D01*
X118947605Y-109656000D01*
X119992868Y-110701263D01*
X120270099Y-110590359D01*
X120513323Y-109944407D01*
X120490836Y-109254547D01*
X120270099Y-108721641D01*
X119992868Y-108610737D01*
X118947605Y-109656000D01*
X118588395Y-109656000D01*
X117543132Y-108610737D01*
X117265901Y-108721641D01*
X117022677Y-109367593D01*
X113994521Y-109367593D01*
X113990836Y-109254547D01*
X113770099Y-108721641D01*
X113492868Y-108610737D01*
X112447605Y-109656000D01*
X112088395Y-109656000D01*
X111043132Y-108610737D01*
X110765901Y-108721641D01*
X110522677Y-109367593D01*
X109422000Y-109367593D01*
X109422000Y-108431132D01*
X111222737Y-108431132D01*
X112268000Y-109476395D01*
X113313263Y-108431132D01*
X117722737Y-108431132D01*
X118768000Y-109476395D01*
X119813263Y-108431132D01*
X119702359Y-108153901D01*
X119056407Y-107910677D01*
X118366547Y-107933164D01*
X117833641Y-108153901D01*
X117722737Y-108431132D01*
X113313263Y-108431132D01*
X113202359Y-108153901D01*
X112556407Y-107910677D01*
X111866547Y-107933164D01*
X111333641Y-108153901D01*
X111222737Y-108431132D01*
X109422000Y-108431132D01*
X109422000Y-104056000D01*
X110520560Y-104056000D01*
X110520560Y-106256000D01*
X110569843Y-106503765D01*
X110710191Y-106713809D01*
X110920235Y-106854157D01*
X111168000Y-106903440D01*
X113368000Y-106903440D01*
X113615765Y-106854157D01*
X113825809Y-106713809D01*
X113966157Y-106503765D01*
X114015440Y-106256000D01*
X114015440Y-104810887D01*
X117033000Y-104810887D01*
X117033000Y-105501113D01*
X117297138Y-106138799D01*
X117785201Y-106626862D01*
X118422887Y-106891000D01*
X119113113Y-106891000D01*
X119750799Y-106626862D01*
X120238862Y-106138799D01*
X120503000Y-105501113D01*
X120503000Y-104810887D01*
X120238862Y-104173201D01*
X119750799Y-103685138D01*
X119113113Y-103421000D01*
X118422887Y-103421000D01*
X117785201Y-103685138D01*
X117297138Y-104173201D01*
X117033000Y-104810887D01*
X114015440Y-104810887D01*
X114015440Y-104056000D01*
X113966157Y-103808235D01*
X113825809Y-103598191D01*
X113615765Y-103457843D01*
X113368000Y-103408560D01*
X111168000Y-103408560D01*
X110920235Y-103457843D01*
X110710191Y-103598191D01*
X110569843Y-103808235D01*
X110520560Y-104056000D01*
X109422000Y-104056000D01*
X109422000Y-98329750D01*
X111699000Y-98329750D01*
X111699000Y-99120310D01*
X111795673Y-99353699D01*
X111974302Y-99532327D01*
X112207691Y-99629000D01*
X112998250Y-99629000D01*
X113157000Y-99470250D01*
X113157000Y-98171000D01*
X111857750Y-98171000D01*
X111699000Y-98329750D01*
X109422000Y-98329750D01*
X109422000Y-96967690D01*
X111699000Y-96967690D01*
X111699000Y-97758250D01*
X111857750Y-97917000D01*
X113157000Y-97917000D01*
X113157000Y-96617750D01*
X113411000Y-96617750D01*
X113411000Y-97917000D01*
X113431000Y-97917000D01*
X113431000Y-98171000D01*
X113411000Y-98171000D01*
X113411000Y-99470250D01*
X113569750Y-99629000D01*
X114360309Y-99629000D01*
X114593698Y-99532327D01*
X114772327Y-99353699D01*
X114795713Y-99297241D01*
X114886170Y-99387698D01*
X115468724Y-99629000D01*
X116099276Y-99629000D01*
X116681830Y-99387698D01*
X117034000Y-99035528D01*
X117386170Y-99387698D01*
X117968724Y-99629000D01*
X118599276Y-99629000D01*
X119181830Y-99387698D01*
X119627698Y-98941830D01*
X119869000Y-98359276D01*
X119869000Y-97728724D01*
X119627698Y-97146170D01*
X119181830Y-96700302D01*
X118599276Y-96459000D01*
X117968724Y-96459000D01*
X117386170Y-96700302D01*
X117034000Y-97052472D01*
X116681830Y-96700302D01*
X116544000Y-96643211D01*
X116544000Y-95858801D01*
X117154802Y-95248000D01*
X132900289Y-95248000D01*
X133017720Y-95365431D01*
X133398126Y-95523000D01*
X133809874Y-95523000D01*
X134190280Y-95365431D01*
X134481431Y-95074280D01*
X134639000Y-94693874D01*
X134639000Y-94282126D01*
X134481431Y-93901720D01*
X134190280Y-93610569D01*
X133809874Y-93453000D01*
X133398126Y-93453000D01*
X133017720Y-93610569D01*
X132900289Y-93728000D01*
X116914848Y-93728000D01*
X116840000Y-93713112D01*
X116765152Y-93728000D01*
X116765148Y-93728000D01*
X116543463Y-93772096D01*
X116292071Y-93940071D01*
X116249671Y-94003527D01*
X115299530Y-94953669D01*
X115236071Y-94996071D01*
X115068096Y-95247464D01*
X115024000Y-95469149D01*
X115024000Y-95469153D01*
X115009112Y-95544000D01*
X115024000Y-95618847D01*
X115024000Y-96643211D01*
X114886170Y-96700302D01*
X114795713Y-96790759D01*
X114772327Y-96734301D01*
X114593698Y-96555673D01*
X114360309Y-96459000D01*
X113569750Y-96459000D01*
X113411000Y-96617750D01*
X113157000Y-96617750D01*
X112998250Y-96459000D01*
X112207691Y-96459000D01*
X111974302Y-96555673D01*
X111795673Y-96734301D01*
X111699000Y-96967690D01*
X109422000Y-96967690D01*
X109422000Y-89474000D01*
X111686560Y-89474000D01*
X111686560Y-91374000D01*
X111735843Y-91621765D01*
X111876191Y-91831809D01*
X112086235Y-91972157D01*
X112334000Y-92021440D01*
X114234000Y-92021440D01*
X114481765Y-91972157D01*
X114691809Y-91831809D01*
X114795339Y-91676867D01*
X114886170Y-91767698D01*
X115468724Y-92009000D01*
X116099276Y-92009000D01*
X116681830Y-91767698D01*
X117034000Y-91415528D01*
X117386170Y-91767698D01*
X117968724Y-92009000D01*
X118599276Y-92009000D01*
X119181830Y-91767698D01*
X119627698Y-91321830D01*
X119684789Y-91184000D01*
X128957153Y-91184000D01*
X129032000Y-91198888D01*
X129106847Y-91184000D01*
X129106852Y-91184000D01*
X129328537Y-91139904D01*
X129579929Y-90971929D01*
X129622331Y-90908470D01*
X134135803Y-86394999D01*
X137331765Y-86394999D01*
X137081720Y-86498571D01*
X136790569Y-86789722D01*
X136633000Y-87170128D01*
X136633000Y-87581876D01*
X136790569Y-87962282D01*
X136908001Y-88079714D01*
X136908000Y-94285956D01*
X136633423Y-94469423D01*
X136316260Y-94944091D01*
X136204887Y-95504000D01*
X136316260Y-96063909D01*
X136633423Y-96538577D01*
X137108091Y-96855740D01*
X137526667Y-96939000D01*
X137809333Y-96939000D01*
X138227909Y-96855740D01*
X138702577Y-96538577D01*
X138938000Y-96186242D01*
X139173423Y-96538577D01*
X139648091Y-96855740D01*
X140066667Y-96939000D01*
X140349333Y-96939000D01*
X140767909Y-96855740D01*
X140862999Y-96792203D01*
X140863000Y-109455798D01*
X140767909Y-109392260D01*
X140349333Y-109309000D01*
X140066667Y-109309000D01*
X139648091Y-109392260D01*
X139173423Y-109709423D01*
X138938000Y-110061758D01*
X138702577Y-109709423D01*
X138227909Y-109392260D01*
X137809333Y-109309000D01*
X137526667Y-109309000D01*
X137108091Y-109392260D01*
X136633423Y-109709423D01*
X136316260Y-110184091D01*
X136204887Y-110744000D01*
X136316260Y-111303909D01*
X136633423Y-111778577D01*
X137108091Y-112095740D01*
X137526667Y-112179000D01*
X137809333Y-112179000D01*
X138227909Y-112095740D01*
X138702577Y-111778577D01*
X138938000Y-111426242D01*
X139173423Y-111778577D01*
X139648091Y-112095740D01*
X140066667Y-112179000D01*
X140349333Y-112179000D01*
X140767909Y-112095740D01*
X140863000Y-112032202D01*
X140863000Y-112279208D01*
X139660199Y-113482010D01*
X139494126Y-113482010D01*
X139113720Y-113639579D01*
X138822569Y-113930730D01*
X138665000Y-114311136D01*
X138665000Y-114722884D01*
X138822569Y-115103290D01*
X139113720Y-115394441D01*
X139494126Y-115552010D01*
X139905874Y-115552010D01*
X140286280Y-115394441D01*
X140577431Y-115103290D01*
X140735000Y-114722884D01*
X140735000Y-114556811D01*
X142107472Y-113184340D01*
X142170928Y-113141940D01*
X142338903Y-112890548D01*
X142382999Y-112668863D01*
X142382999Y-112668859D01*
X142397887Y-112594012D01*
X142382999Y-112519165D01*
X142382999Y-112134510D01*
X142606667Y-112179000D01*
X142889333Y-112179000D01*
X143307909Y-112095740D01*
X143782577Y-111778577D01*
X144018000Y-111426242D01*
X144253423Y-111778577D01*
X144728091Y-112095740D01*
X145146667Y-112179000D01*
X145429333Y-112179000D01*
X145847909Y-112095740D01*
X146322577Y-111778577D01*
X146558000Y-111426242D01*
X146793423Y-111778577D01*
X147268091Y-112095740D01*
X147686667Y-112179000D01*
X147969333Y-112179000D01*
X148387909Y-112095740D01*
X148862577Y-111778577D01*
X149098000Y-111426242D01*
X149333423Y-111778577D01*
X149808091Y-112095740D01*
X150226667Y-112179000D01*
X150509333Y-112179000D01*
X150927909Y-112095740D01*
X151402577Y-111778577D01*
X151638000Y-111426242D01*
X151873423Y-111778577D01*
X152348091Y-112095740D01*
X152766667Y-112179000D01*
X153049333Y-112179000D01*
X153467909Y-112095740D01*
X153942577Y-111778577D01*
X154178000Y-111426242D01*
X154413423Y-111778577D01*
X154888091Y-112095740D01*
X155306667Y-112179000D01*
X155478198Y-112179000D01*
X152085199Y-115572000D01*
X129030237Y-115572000D01*
X129051000Y-115521874D01*
X129051000Y-115110126D01*
X128893431Y-114729720D01*
X128776000Y-114612289D01*
X128776000Y-114106801D01*
X131611803Y-111271000D01*
X131777874Y-111271000D01*
X132158280Y-111113431D01*
X132449431Y-110822280D01*
X132607000Y-110441874D01*
X132607000Y-110030126D01*
X132449431Y-109649720D01*
X132158280Y-109358569D01*
X131777874Y-109201000D01*
X131366126Y-109201000D01*
X130985720Y-109358569D01*
X130694569Y-109649720D01*
X130537000Y-110030126D01*
X130537000Y-110196197D01*
X127531530Y-113201669D01*
X127468071Y-113244071D01*
X127300096Y-113495464D01*
X127256000Y-113717149D01*
X127256000Y-113717153D01*
X127241112Y-113792000D01*
X127256000Y-113866847D01*
X127256001Y-114612288D01*
X127138569Y-114729720D01*
X126981000Y-115110126D01*
X126981000Y-115238198D01*
X124828840Y-113086039D01*
X124828840Y-110431711D01*
X124946271Y-110314280D01*
X125103840Y-109933874D01*
X125103840Y-109522126D01*
X124946271Y-109141720D01*
X124655120Y-108850569D01*
X124274714Y-108693000D01*
X123862966Y-108693000D01*
X123482560Y-108850569D01*
X123191409Y-109141720D01*
X123033840Y-109522126D01*
X123033840Y-109933874D01*
X123191409Y-110314280D01*
X123308840Y-110431711D01*
X123308840Y-110652291D01*
X123308841Y-110652296D01*
X123308840Y-113325993D01*
X123293952Y-113400840D01*
X123308840Y-113475687D01*
X123308840Y-113475691D01*
X123352936Y-113697376D01*
X123520911Y-113948769D01*
X123584370Y-113991171D01*
X126409671Y-116816473D01*
X126452071Y-116879929D01*
X126703463Y-117047904D01*
X126925148Y-117092000D01*
X126925152Y-117092000D01*
X126999999Y-117106888D01*
X127074846Y-117092000D01*
X152325153Y-117092000D01*
X152400000Y-117106888D01*
X152474847Y-117092000D01*
X152474852Y-117092000D01*
X152696537Y-117047904D01*
X152947929Y-116879929D01*
X152990331Y-116816470D01*
X157664115Y-112142688D01*
X157846667Y-112179000D01*
X158129333Y-112179000D01*
X158547909Y-112095740D01*
X159022577Y-111778577D01*
X159258000Y-111426242D01*
X159493423Y-111778577D01*
X159968091Y-112095740D01*
X160386667Y-112179000D01*
X160669333Y-112179000D01*
X161087909Y-112095740D01*
X161562577Y-111778577D01*
X161798000Y-111426242D01*
X162033423Y-111778577D01*
X162508091Y-112095740D01*
X162926667Y-112179000D01*
X163209333Y-112179000D01*
X163627909Y-112095740D01*
X164102577Y-111778577D01*
X164358947Y-111394892D01*
X164455611Y-111599134D01*
X164870577Y-111975041D01*
X165258961Y-112135904D01*
X165481000Y-112013915D01*
X165481000Y-110871000D01*
X165735000Y-110871000D01*
X165735000Y-112013915D01*
X165957039Y-112135904D01*
X166345423Y-111975041D01*
X166760389Y-111599134D01*
X166999914Y-111093041D01*
X166878629Y-110871000D01*
X165735000Y-110871000D01*
X165481000Y-110871000D01*
X165461000Y-110871000D01*
X165461000Y-110617000D01*
X165481000Y-110617000D01*
X165481000Y-109474085D01*
X165735000Y-109474085D01*
X165735000Y-110617000D01*
X166878629Y-110617000D01*
X166999914Y-110394959D01*
X166760389Y-109888866D01*
X166345423Y-109512959D01*
X165957039Y-109352096D01*
X165735000Y-109474085D01*
X165481000Y-109474085D01*
X165258961Y-109352096D01*
X164870577Y-109512959D01*
X164455611Y-109888866D01*
X164358947Y-110093108D01*
X164102577Y-109709423D01*
X163627909Y-109392260D01*
X163209333Y-109309000D01*
X162926667Y-109309000D01*
X162508091Y-109392260D01*
X162033423Y-109709423D01*
X161798000Y-110061758D01*
X161562577Y-109709423D01*
X161087909Y-109392260D01*
X160669333Y-109309000D01*
X160386667Y-109309000D01*
X159968091Y-109392260D01*
X159493423Y-109709423D01*
X159258000Y-110061758D01*
X159022577Y-109709423D01*
X158547909Y-109392260D01*
X158129333Y-109309000D01*
X157846667Y-109309000D01*
X157428091Y-109392260D01*
X156953423Y-109709423D01*
X156718000Y-110061758D01*
X156482577Y-109709423D01*
X156007909Y-109392260D01*
X155589333Y-109309000D01*
X155306667Y-109309000D01*
X154888091Y-109392260D01*
X154413423Y-109709423D01*
X154178000Y-110061758D01*
X153942577Y-109709423D01*
X153467909Y-109392260D01*
X153049333Y-109309000D01*
X152766667Y-109309000D01*
X152348091Y-109392260D01*
X151873423Y-109709423D01*
X151638000Y-110061758D01*
X151402577Y-109709423D01*
X150927909Y-109392260D01*
X150509333Y-109309000D01*
X150226667Y-109309000D01*
X149808091Y-109392260D01*
X149333423Y-109709423D01*
X149098000Y-110061758D01*
X148862577Y-109709423D01*
X148387909Y-109392260D01*
X147969333Y-109309000D01*
X147686667Y-109309000D01*
X147268091Y-109392260D01*
X146793423Y-109709423D01*
X146558000Y-110061758D01*
X146322577Y-109709423D01*
X145847909Y-109392260D01*
X145429333Y-109309000D01*
X145146667Y-109309000D01*
X144728091Y-109392260D01*
X144253423Y-109709423D01*
X144018000Y-110061758D01*
X143782577Y-109709423D01*
X143307909Y-109392260D01*
X142889333Y-109309000D01*
X142606667Y-109309000D01*
X142382999Y-109353490D01*
X142382999Y-96943802D01*
X142424113Y-96902688D01*
X142606667Y-96939000D01*
X142889333Y-96939000D01*
X143307909Y-96855740D01*
X143782577Y-96538577D01*
X144018000Y-96186242D01*
X144253423Y-96538577D01*
X144530713Y-96723856D01*
X144572097Y-96931907D01*
X144740072Y-97183299D01*
X144803528Y-97225699D01*
X152202300Y-104624472D01*
X152244701Y-104687929D01*
X152496093Y-104855904D01*
X152717778Y-104900000D01*
X152717782Y-104900000D01*
X152792630Y-104914888D01*
X152867478Y-104900000D01*
X169865199Y-104900000D01*
X179305000Y-114339802D01*
X179305000Y-114505874D01*
X179462569Y-114886280D01*
X179753720Y-115177431D01*
X180134126Y-115335000D01*
X180545874Y-115335000D01*
X180926280Y-115177431D01*
X181217431Y-114886280D01*
X181375000Y-114505874D01*
X181375000Y-114094126D01*
X181217431Y-113713720D01*
X180926280Y-113422569D01*
X180545874Y-113265000D01*
X180379802Y-113265000D01*
X170770331Y-103655530D01*
X170727929Y-103592071D01*
X170476537Y-103424096D01*
X170254852Y-103380000D01*
X170254847Y-103380000D01*
X170180000Y-103365112D01*
X170105153Y-103380000D01*
X153107432Y-103380000D01*
X147565558Y-97838126D01*
X154413000Y-97838126D01*
X154413000Y-98249874D01*
X154570569Y-98630280D01*
X154688001Y-98747712D01*
X154688000Y-100896289D01*
X154570569Y-101013720D01*
X154413000Y-101394126D01*
X154413000Y-101805874D01*
X154570569Y-102186280D01*
X154861720Y-102477431D01*
X155242126Y-102635000D01*
X155653874Y-102635000D01*
X156034280Y-102477431D01*
X156325431Y-102186280D01*
X156483000Y-101805874D01*
X156483000Y-101394126D01*
X156325431Y-101013720D01*
X156208000Y-100896289D01*
X156208000Y-100283250D01*
X161733000Y-100283250D01*
X161733000Y-100611309D01*
X161829673Y-100844698D01*
X162008301Y-101023327D01*
X162241690Y-101120000D01*
X162782250Y-101120000D01*
X162941000Y-100961250D01*
X162941000Y-100124500D01*
X163195000Y-100124500D01*
X163195000Y-100961250D01*
X163353750Y-101120000D01*
X163894310Y-101120000D01*
X164127699Y-101023327D01*
X164306327Y-100844698D01*
X164403000Y-100611309D01*
X164403000Y-100283250D01*
X164244250Y-100124500D01*
X163195000Y-100124500D01*
X162941000Y-100124500D01*
X161891750Y-100124500D01*
X161733000Y-100283250D01*
X156208000Y-100283250D01*
X156208000Y-98747711D01*
X156325431Y-98630280D01*
X156483000Y-98249874D01*
X156483000Y-97838126D01*
X156325431Y-97457720D01*
X156034280Y-97166569D01*
X155653874Y-97009000D01*
X155242126Y-97009000D01*
X154861720Y-97166569D01*
X154570569Y-97457720D01*
X154413000Y-97838126D01*
X147565558Y-97838126D01*
X146288666Y-96561235D01*
X146322577Y-96538577D01*
X146558000Y-96186242D01*
X146793423Y-96538577D01*
X147268091Y-96855740D01*
X147686667Y-96939000D01*
X147969333Y-96939000D01*
X148387909Y-96855740D01*
X148862577Y-96538577D01*
X149098000Y-96186242D01*
X149333423Y-96538577D01*
X149808091Y-96855740D01*
X150226667Y-96939000D01*
X150509333Y-96939000D01*
X150927909Y-96855740D01*
X151402577Y-96538577D01*
X151638000Y-96186242D01*
X151873423Y-96538577D01*
X152348091Y-96855740D01*
X152766667Y-96939000D01*
X153049333Y-96939000D01*
X153467909Y-96855740D01*
X153942577Y-96538577D01*
X154178000Y-96186242D01*
X154413423Y-96538577D01*
X154888091Y-96855740D01*
X155306667Y-96939000D01*
X155589333Y-96939000D01*
X156007909Y-96855740D01*
X156482577Y-96538577D01*
X156718000Y-96186242D01*
X156953423Y-96538577D01*
X157428091Y-96855740D01*
X157846667Y-96939000D01*
X158129333Y-96939000D01*
X158547909Y-96855740D01*
X159022577Y-96538577D01*
X159258000Y-96186242D01*
X159493423Y-96538577D01*
X159968091Y-96855740D01*
X160386667Y-96939000D01*
X160669333Y-96939000D01*
X161087909Y-96855740D01*
X161562577Y-96538577D01*
X161798000Y-96186242D01*
X162033423Y-96538577D01*
X162183001Y-96638522D01*
X162183000Y-97114001D01*
X161981584Y-97248584D01*
X161788398Y-97537706D01*
X161720560Y-97878750D01*
X161720560Y-98366250D01*
X161788398Y-98707294D01*
X161981584Y-98996416D01*
X161982767Y-98997207D01*
X161829673Y-99150302D01*
X161733000Y-99383691D01*
X161733000Y-99711750D01*
X161891750Y-99870500D01*
X162941000Y-99870500D01*
X162941000Y-99850500D01*
X163195000Y-99850500D01*
X163195000Y-99870500D01*
X164244250Y-99870500D01*
X164403000Y-99711750D01*
X164403000Y-99383691D01*
X164306327Y-99150302D01*
X164153233Y-98997207D01*
X164154416Y-98996416D01*
X164347602Y-98707294D01*
X164415440Y-98366250D01*
X164415440Y-97878750D01*
X164347602Y-97537706D01*
X164154416Y-97248584D01*
X163953000Y-97114002D01*
X163953000Y-96638521D01*
X164102577Y-96538577D01*
X164183215Y-96417894D01*
X164209843Y-96551765D01*
X164350191Y-96761809D01*
X164560235Y-96902157D01*
X164808000Y-96951440D01*
X166408000Y-96951440D01*
X166655765Y-96902157D01*
X166865809Y-96761809D01*
X167006157Y-96551765D01*
X167055440Y-96304000D01*
X167055440Y-94704000D01*
X167006157Y-94456235D01*
X166875743Y-94261058D01*
X178792473Y-82344329D01*
X178855929Y-82301929D01*
X179023904Y-82050537D01*
X179068000Y-81828852D01*
X179068000Y-81828848D01*
X179082888Y-81754001D01*
X179068000Y-81679154D01*
X179068000Y-77264126D01*
X189465000Y-77264126D01*
X189465000Y-77675874D01*
X189622569Y-78056280D01*
X189913720Y-78347431D01*
X190294126Y-78505000D01*
X190705874Y-78505000D01*
X191086280Y-78347431D01*
X191203711Y-78230000D01*
X195505153Y-78230000D01*
X195580000Y-78244888D01*
X195654847Y-78230000D01*
X195654852Y-78230000D01*
X195876537Y-78185904D01*
X196127929Y-78017929D01*
X196170331Y-77954470D01*
X202746973Y-71377829D01*
X202810429Y-71335429D01*
X202978404Y-71084037D01*
X203022500Y-70862352D01*
X203022500Y-70862348D01*
X203037388Y-70787501D01*
X203022500Y-70712654D01*
X203022500Y-65219711D01*
X203139931Y-65102280D01*
X203297500Y-64721874D01*
X203297500Y-64310126D01*
X203139931Y-63929720D01*
X202848780Y-63638569D01*
X202468374Y-63481000D01*
X202056626Y-63481000D01*
X201676220Y-63638569D01*
X201385069Y-63929720D01*
X201227500Y-64310126D01*
X201227500Y-64721874D01*
X201385069Y-65102280D01*
X201502500Y-65219711D01*
X201502501Y-70472697D01*
X195265199Y-76710000D01*
X191203711Y-76710000D01*
X191086280Y-76592569D01*
X190705874Y-76435000D01*
X190294126Y-76435000D01*
X189913720Y-76592569D01*
X189622569Y-76883720D01*
X189465000Y-77264126D01*
X179068000Y-77264126D01*
X179068000Y-75379711D01*
X179185431Y-75262280D01*
X179343000Y-74881874D01*
X179343000Y-74470126D01*
X179185431Y-74089720D01*
X178894280Y-73798569D01*
X178513874Y-73641000D01*
X178102126Y-73641000D01*
X177721720Y-73798569D01*
X177430569Y-74089720D01*
X177273000Y-74470126D01*
X177273000Y-74881874D01*
X177430569Y-75262280D01*
X177548001Y-75379712D01*
X177548000Y-81439198D01*
X165123528Y-93863671D01*
X165060072Y-93906071D01*
X165017672Y-93969527D01*
X165017671Y-93969528D01*
X164959518Y-94056560D01*
X164808000Y-94056560D01*
X164560235Y-94105843D01*
X164350191Y-94246191D01*
X164209843Y-94456235D01*
X164183215Y-94590106D01*
X164102577Y-94469423D01*
X163627909Y-94152260D01*
X163209333Y-94069000D01*
X162926667Y-94069000D01*
X162508091Y-94152260D01*
X162033423Y-94469423D01*
X161798000Y-94821758D01*
X161562577Y-94469423D01*
X161087909Y-94152260D01*
X160669333Y-94069000D01*
X160386667Y-94069000D01*
X159968091Y-94152260D01*
X159493423Y-94469423D01*
X159258000Y-94821758D01*
X159022577Y-94469423D01*
X158547909Y-94152260D01*
X158129333Y-94069000D01*
X157846667Y-94069000D01*
X157428091Y-94152260D01*
X156953423Y-94469423D01*
X156718000Y-94821758D01*
X156482577Y-94469423D01*
X156007909Y-94152260D01*
X155589333Y-94069000D01*
X155306667Y-94069000D01*
X154888091Y-94152260D01*
X154413423Y-94469423D01*
X154178000Y-94821758D01*
X153942577Y-94469423D01*
X153467909Y-94152260D01*
X153049333Y-94069000D01*
X152766667Y-94069000D01*
X152348091Y-94152260D01*
X151873423Y-94469423D01*
X151638000Y-94821758D01*
X151402577Y-94469423D01*
X150927909Y-94152260D01*
X150509333Y-94069000D01*
X150226667Y-94069000D01*
X149808091Y-94152260D01*
X149333423Y-94469423D01*
X149098000Y-94821758D01*
X148862577Y-94469423D01*
X148387909Y-94152260D01*
X147969333Y-94069000D01*
X147686667Y-94069000D01*
X147268091Y-94152260D01*
X146793423Y-94469423D01*
X146558000Y-94821758D01*
X146322577Y-94469423D01*
X145847909Y-94152260D01*
X145429333Y-94069000D01*
X145146667Y-94069000D01*
X144728091Y-94152260D01*
X144253423Y-94469423D01*
X144018000Y-94821758D01*
X143782577Y-94469423D01*
X143307909Y-94152260D01*
X142889333Y-94069000D01*
X142606667Y-94069000D01*
X142188091Y-94152260D01*
X141713423Y-94469423D01*
X141478000Y-94821758D01*
X141242577Y-94469423D01*
X140767909Y-94152260D01*
X140349333Y-94069000D01*
X140066667Y-94069000D01*
X139648091Y-94152260D01*
X139173423Y-94469423D01*
X138938000Y-94821758D01*
X138702577Y-94469423D01*
X138428000Y-94285957D01*
X138428000Y-88079713D01*
X138545431Y-87962282D01*
X138703000Y-87581876D01*
X138703000Y-87170128D01*
X138545431Y-86789722D01*
X138254280Y-86498571D01*
X138004235Y-86394999D01*
X142950198Y-86394999D01*
X144253000Y-87697802D01*
X144253000Y-87863874D01*
X144410569Y-88244280D01*
X144701720Y-88535431D01*
X145082126Y-88693000D01*
X145493874Y-88693000D01*
X145874280Y-88535431D01*
X146165431Y-88244280D01*
X146323000Y-87863874D01*
X146323000Y-87452126D01*
X147809000Y-87452126D01*
X147809000Y-87863874D01*
X147966569Y-88244280D01*
X148257720Y-88535431D01*
X148638126Y-88693000D01*
X149049874Y-88693000D01*
X149168171Y-88644000D01*
X168581153Y-88644000D01*
X168656000Y-88658888D01*
X168730847Y-88644000D01*
X168730852Y-88644000D01*
X168952537Y-88599904D01*
X169203929Y-88431929D01*
X169246331Y-88368470D01*
X176315803Y-81299000D01*
X176481874Y-81299000D01*
X176862280Y-81141431D01*
X177153431Y-80850280D01*
X177311000Y-80469874D01*
X177311000Y-80058126D01*
X177153431Y-79677720D01*
X176862280Y-79386569D01*
X176481874Y-79229000D01*
X176070126Y-79229000D01*
X175689720Y-79386569D01*
X175398569Y-79677720D01*
X175241000Y-80058126D01*
X175241000Y-80224197D01*
X168341199Y-87124000D01*
X149743086Y-87124000D01*
X149721431Y-87071720D01*
X149430280Y-86780569D01*
X149049874Y-86623000D01*
X148638126Y-86623000D01*
X148257720Y-86780569D01*
X147966569Y-87071720D01*
X147809000Y-87452126D01*
X146323000Y-87452126D01*
X146165431Y-87071720D01*
X145874280Y-86780569D01*
X145493874Y-86623000D01*
X145327802Y-86623000D01*
X143855330Y-85150529D01*
X143812928Y-85087070D01*
X143561536Y-84919095D01*
X143339851Y-84874999D01*
X143339846Y-84874999D01*
X143264999Y-84860111D01*
X143190152Y-84874999D01*
X133895847Y-84874999D01*
X133821000Y-84860111D01*
X133746153Y-84874999D01*
X133746149Y-84874999D01*
X133524464Y-84919095D01*
X133273072Y-85087070D01*
X133230672Y-85150526D01*
X128717199Y-89664000D01*
X119684789Y-89664000D01*
X119627698Y-89526170D01*
X119181830Y-89080302D01*
X118599276Y-88839000D01*
X117968724Y-88839000D01*
X117386170Y-89080302D01*
X117034000Y-89432472D01*
X116681830Y-89080302D01*
X116099276Y-88839000D01*
X115468724Y-88839000D01*
X114886170Y-89080302D01*
X114795339Y-89171133D01*
X114691809Y-89016191D01*
X114481765Y-88875843D01*
X114234000Y-88826560D01*
X112334000Y-88826560D01*
X112086235Y-88875843D01*
X111876191Y-89016191D01*
X111735843Y-89226235D01*
X111686560Y-89474000D01*
X109422000Y-89474000D01*
X109422000Y-83089750D01*
X111699000Y-83089750D01*
X111699000Y-83880310D01*
X111795673Y-84113699D01*
X111974302Y-84292327D01*
X112207691Y-84389000D01*
X112998250Y-84389000D01*
X113157000Y-84230250D01*
X113157000Y-82931000D01*
X111857750Y-82931000D01*
X111699000Y-83089750D01*
X109422000Y-83089750D01*
X109422000Y-81727690D01*
X111699000Y-81727690D01*
X111699000Y-82518250D01*
X111857750Y-82677000D01*
X113157000Y-82677000D01*
X113157000Y-81377750D01*
X113411000Y-81377750D01*
X113411000Y-82677000D01*
X113431000Y-82677000D01*
X113431000Y-82931000D01*
X113411000Y-82931000D01*
X113411000Y-84230250D01*
X113569750Y-84389000D01*
X114360309Y-84389000D01*
X114593698Y-84292327D01*
X114772327Y-84113699D01*
X114795713Y-84057241D01*
X114886170Y-84147698D01*
X115468724Y-84389000D01*
X116099276Y-84389000D01*
X116681830Y-84147698D01*
X117034000Y-83795528D01*
X117386170Y-84147698D01*
X117968724Y-84389000D01*
X118599276Y-84389000D01*
X119181830Y-84147698D01*
X119627698Y-83701830D01*
X119869000Y-83119276D01*
X119869000Y-82488724D01*
X119627698Y-81906170D01*
X119465045Y-81743517D01*
X132304088Y-81743517D01*
X132372077Y-81984460D01*
X132891171Y-82169201D01*
X133441448Y-82141230D01*
X133819923Y-81984460D01*
X133887912Y-81743517D01*
X133096000Y-80951605D01*
X132304088Y-81743517D01*
X119465045Y-81743517D01*
X119181830Y-81460302D01*
X118599276Y-81219000D01*
X117968724Y-81219000D01*
X117386170Y-81460302D01*
X117034000Y-81812472D01*
X116681830Y-81460302D01*
X116099276Y-81219000D01*
X115468724Y-81219000D01*
X114886170Y-81460302D01*
X114795713Y-81550759D01*
X114772327Y-81494301D01*
X114593698Y-81315673D01*
X114360309Y-81219000D01*
X113569750Y-81219000D01*
X113411000Y-81377750D01*
X113157000Y-81377750D01*
X112998250Y-81219000D01*
X112207691Y-81219000D01*
X111974302Y-81315673D01*
X111795673Y-81494301D01*
X111699000Y-81727690D01*
X109422000Y-81727690D01*
X109422000Y-80567171D01*
X131698799Y-80567171D01*
X131726770Y-81117448D01*
X131883540Y-81495923D01*
X132124483Y-81563912D01*
X132916395Y-80772000D01*
X133275605Y-80772000D01*
X134067517Y-81563912D01*
X134308460Y-81495923D01*
X134493201Y-80976829D01*
X134465230Y-80426552D01*
X134385318Y-80233626D01*
X138157000Y-80233626D01*
X138157000Y-80645374D01*
X138314569Y-81025780D01*
X138605720Y-81316931D01*
X138986126Y-81474500D01*
X139397874Y-81474500D01*
X139778280Y-81316931D01*
X140069431Y-81025780D01*
X140227000Y-80645374D01*
X140227000Y-80479302D01*
X140472676Y-80233626D01*
X140697000Y-80233626D01*
X140697000Y-80645374D01*
X140854569Y-81025780D01*
X140982270Y-81153481D01*
X141016096Y-81323537D01*
X141184072Y-81574929D01*
X141247528Y-81617329D01*
X142119672Y-82489474D01*
X142162072Y-82552930D01*
X142413464Y-82720905D01*
X142635149Y-82765001D01*
X142635153Y-82765001D01*
X142710000Y-82779889D01*
X142784847Y-82765001D01*
X171421472Y-82765001D01*
X171496319Y-82779889D01*
X171571166Y-82765001D01*
X171571171Y-82765001D01*
X171792856Y-82720905D01*
X172044248Y-82552930D01*
X172086650Y-82489471D01*
X172256461Y-82319660D01*
X172422534Y-82319660D01*
X172802940Y-82162091D01*
X173094091Y-81870940D01*
X173251660Y-81490534D01*
X173251660Y-81078786D01*
X173123220Y-80768705D01*
X173247000Y-80469874D01*
X173247000Y-80058126D01*
X173089431Y-79677720D01*
X172798280Y-79386569D01*
X172417874Y-79229000D01*
X172006126Y-79229000D01*
X171625720Y-79386569D01*
X171334569Y-79677720D01*
X171333832Y-79679500D01*
X144975711Y-79679500D01*
X144858280Y-79562069D01*
X144477874Y-79404500D01*
X144066126Y-79404500D01*
X143685720Y-79562069D01*
X143394569Y-79853220D01*
X143237000Y-80233626D01*
X143237000Y-80645374D01*
X143394569Y-81025780D01*
X143613790Y-81245001D01*
X143024803Y-81245001D01*
X142666882Y-80887081D01*
X142767000Y-80645374D01*
X142767000Y-80233626D01*
X142609431Y-79853220D01*
X142318280Y-79562069D01*
X141937874Y-79404500D01*
X141526126Y-79404500D01*
X141145720Y-79562069D01*
X140854569Y-79853220D01*
X140697000Y-80233626D01*
X140472676Y-80233626D01*
X141423313Y-79282990D01*
X164904289Y-79282990D01*
X165021720Y-79400421D01*
X165402126Y-79557990D01*
X165813874Y-79557990D01*
X166194280Y-79400421D01*
X166485431Y-79109270D01*
X166643000Y-78728864D01*
X166643000Y-78317116D01*
X166485431Y-77936710D01*
X166194280Y-77645559D01*
X165813874Y-77487990D01*
X165402126Y-77487990D01*
X165021720Y-77645559D01*
X164904289Y-77762990D01*
X141183356Y-77762990D01*
X141108509Y-77748102D01*
X141033662Y-77762990D01*
X141033658Y-77762990D01*
X140811973Y-77807086D01*
X140811971Y-77807087D01*
X140811972Y-77807087D01*
X140624036Y-77932661D01*
X140624034Y-77932663D01*
X140560581Y-77975061D01*
X140518183Y-78038514D01*
X139152198Y-79404500D01*
X138986126Y-79404500D01*
X138605720Y-79562069D01*
X138314569Y-79853220D01*
X138157000Y-80233626D01*
X134385318Y-80233626D01*
X134308460Y-80048077D01*
X134067517Y-79980088D01*
X133275605Y-80772000D01*
X132916395Y-80772000D01*
X132124483Y-79980088D01*
X131883540Y-80048077D01*
X131698799Y-80567171D01*
X109422000Y-80567171D01*
X109422000Y-79800483D01*
X132304088Y-79800483D01*
X133096000Y-80592395D01*
X133887912Y-79800483D01*
X133819923Y-79559540D01*
X133300829Y-79374799D01*
X132750552Y-79402770D01*
X132372077Y-79559540D01*
X132304088Y-79800483D01*
X109422000Y-79800483D01*
X109422000Y-75469750D01*
X111699000Y-75469750D01*
X111699000Y-76260310D01*
X111795673Y-76493699D01*
X111974302Y-76672327D01*
X112207691Y-76769000D01*
X112998250Y-76769000D01*
X113157000Y-76610250D01*
X113157000Y-75311000D01*
X111857750Y-75311000D01*
X111699000Y-75469750D01*
X109422000Y-75469750D01*
X109422000Y-74107690D01*
X111699000Y-74107690D01*
X111699000Y-74898250D01*
X111857750Y-75057000D01*
X113157000Y-75057000D01*
X113157000Y-73757750D01*
X113411000Y-73757750D01*
X113411000Y-75057000D01*
X113431000Y-75057000D01*
X113431000Y-75311000D01*
X113411000Y-75311000D01*
X113411000Y-76610250D01*
X113569750Y-76769000D01*
X114360309Y-76769000D01*
X114593698Y-76672327D01*
X114772327Y-76493699D01*
X114795713Y-76437241D01*
X114886170Y-76527698D01*
X115468724Y-76769000D01*
X116099276Y-76769000D01*
X116681830Y-76527698D01*
X117034000Y-76175528D01*
X117386170Y-76527698D01*
X117968724Y-76769000D01*
X118599276Y-76769000D01*
X119181830Y-76527698D01*
X119627698Y-76081830D01*
X119820441Y-75616506D01*
X131711000Y-75616506D01*
X131711000Y-76167494D01*
X131921853Y-76676540D01*
X132311460Y-77066147D01*
X132820506Y-77277000D01*
X133371494Y-77277000D01*
X133880540Y-77066147D01*
X134270147Y-76676540D01*
X134481000Y-76167494D01*
X134481000Y-75616506D01*
X134270147Y-75107460D01*
X134140813Y-74978126D01*
X167461000Y-74978126D01*
X167461000Y-75389874D01*
X167618569Y-75770280D01*
X167909720Y-76061431D01*
X168290126Y-76219000D01*
X168701874Y-76219000D01*
X169082280Y-76061431D01*
X169373431Y-75770280D01*
X169531000Y-75389874D01*
X169531000Y-74978126D01*
X169373431Y-74597720D01*
X169082280Y-74306569D01*
X168701874Y-74149000D01*
X168290126Y-74149000D01*
X167909720Y-74306569D01*
X167618569Y-74597720D01*
X167461000Y-74978126D01*
X134140813Y-74978126D01*
X133880540Y-74717853D01*
X133371494Y-74507000D01*
X132820506Y-74507000D01*
X132311460Y-74717853D01*
X131921853Y-75107460D01*
X131711000Y-75616506D01*
X119820441Y-75616506D01*
X119869000Y-75499276D01*
X119869000Y-74868724D01*
X119627698Y-74286170D01*
X119181830Y-73840302D01*
X118599276Y-73599000D01*
X117968724Y-73599000D01*
X117386170Y-73840302D01*
X117034000Y-74192472D01*
X116681830Y-73840302D01*
X116099276Y-73599000D01*
X115468724Y-73599000D01*
X114886170Y-73840302D01*
X114795713Y-73930759D01*
X114772327Y-73874301D01*
X114593698Y-73695673D01*
X114360309Y-73599000D01*
X113569750Y-73599000D01*
X113411000Y-73757750D01*
X113157000Y-73757750D01*
X112998250Y-73599000D01*
X112207691Y-73599000D01*
X111974302Y-73695673D01*
X111795673Y-73874301D01*
X111699000Y-74107690D01*
X109422000Y-74107690D01*
X109422000Y-67849750D01*
X111699000Y-67849750D01*
X111699000Y-68640310D01*
X111795673Y-68873699D01*
X111974302Y-69052327D01*
X112207691Y-69149000D01*
X112998250Y-69149000D01*
X113157000Y-68990250D01*
X113157000Y-67691000D01*
X111857750Y-67691000D01*
X111699000Y-67849750D01*
X109422000Y-67849750D01*
X109422000Y-66487690D01*
X111699000Y-66487690D01*
X111699000Y-67278250D01*
X111857750Y-67437000D01*
X113157000Y-67437000D01*
X113157000Y-66137750D01*
X113411000Y-66137750D01*
X113411000Y-67437000D01*
X113431000Y-67437000D01*
X113431000Y-67691000D01*
X113411000Y-67691000D01*
X113411000Y-68990250D01*
X113569750Y-69149000D01*
X114360309Y-69149000D01*
X114593698Y-69052327D01*
X114772327Y-68873699D01*
X114795713Y-68817241D01*
X114886170Y-68907698D01*
X115468724Y-69149000D01*
X116099276Y-69149000D01*
X116681830Y-68907698D01*
X117034000Y-68555528D01*
X117386170Y-68907698D01*
X117968724Y-69149000D01*
X118599276Y-69149000D01*
X119181830Y-68907698D01*
X119627698Y-68461830D01*
X119869000Y-67879276D01*
X119869000Y-67248724D01*
X119627698Y-66666170D01*
X119181830Y-66220302D01*
X118599276Y-65979000D01*
X117968724Y-65979000D01*
X117386170Y-66220302D01*
X117034000Y-66572472D01*
X116681830Y-66220302D01*
X116099276Y-65979000D01*
X115468724Y-65979000D01*
X114886170Y-66220302D01*
X114795713Y-66310759D01*
X114772327Y-66254301D01*
X114593698Y-66075673D01*
X114360309Y-65979000D01*
X113569750Y-65979000D01*
X113411000Y-66137750D01*
X113157000Y-66137750D01*
X112998250Y-65979000D01*
X112207691Y-65979000D01*
X111974302Y-66075673D01*
X111795673Y-66254301D01*
X111699000Y-66487690D01*
X109422000Y-66487690D01*
X109422000Y-64310126D01*
X132569000Y-64310126D01*
X132569000Y-64721874D01*
X132726569Y-65102280D01*
X133017720Y-65393431D01*
X133398126Y-65551000D01*
X133564199Y-65551000D01*
X136178511Y-68165313D01*
X136220911Y-68228769D01*
X136284367Y-68271169D01*
X136472302Y-68396744D01*
X136520445Y-68406320D01*
X136693988Y-68440840D01*
X136693992Y-68440840D01*
X136768840Y-68455728D01*
X136843688Y-68440840D01*
X143568289Y-68440840D01*
X143685720Y-68558271D01*
X144066126Y-68715840D01*
X144477874Y-68715840D01*
X144858280Y-68558271D01*
X145149431Y-68267120D01*
X145307000Y-67886714D01*
X145307000Y-67474966D01*
X145149431Y-67094560D01*
X144858280Y-66803409D01*
X144477874Y-66645840D01*
X144066126Y-66645840D01*
X143685720Y-66803409D01*
X143568289Y-66920840D01*
X137083642Y-66920840D01*
X136485983Y-66323181D01*
X186197000Y-66323181D01*
X186286062Y-66770926D01*
X186625327Y-67278673D01*
X187133073Y-67617938D01*
X187732000Y-67737072D01*
X188330926Y-67617938D01*
X188838673Y-67278673D01*
X188909949Y-67172000D01*
X189684560Y-67172000D01*
X189684560Y-68972000D01*
X189733843Y-69219765D01*
X189874191Y-69429809D01*
X190084235Y-69570157D01*
X190332000Y-69619440D01*
X194732000Y-69619440D01*
X194979765Y-69570157D01*
X195189809Y-69429809D01*
X195330157Y-69219765D01*
X195379440Y-68972000D01*
X195379440Y-67172000D01*
X195330157Y-66924235D01*
X195189809Y-66714191D01*
X194979765Y-66573843D01*
X194732000Y-66524560D01*
X190332000Y-66524560D01*
X190084235Y-66573843D01*
X189874191Y-66714191D01*
X189733843Y-66924235D01*
X189684560Y-67172000D01*
X188909949Y-67172000D01*
X189177938Y-66770927D01*
X189267000Y-66323182D01*
X189267000Y-63820818D01*
X189177938Y-63373073D01*
X188838673Y-62865327D01*
X188496569Y-62636740D01*
X189940964Y-62636740D01*
X189965244Y-62742086D01*
X190256788Y-63267606D01*
X190727248Y-63641554D01*
X191305000Y-63807000D01*
X192405000Y-63807000D01*
X192405000Y-62399000D01*
X192659000Y-62399000D01*
X192659000Y-63807000D01*
X193759000Y-63807000D01*
X194336752Y-63641554D01*
X194807212Y-63267606D01*
X195098756Y-62742086D01*
X195123036Y-62636740D01*
X195002378Y-62399000D01*
X192659000Y-62399000D01*
X192405000Y-62399000D01*
X190061622Y-62399000D01*
X189940964Y-62636740D01*
X188496569Y-62636740D01*
X188330927Y-62526062D01*
X187732000Y-62406928D01*
X187133074Y-62526062D01*
X186625328Y-62865327D01*
X186286063Y-63373073D01*
X186197001Y-63820818D01*
X186197000Y-66323181D01*
X136485983Y-66323181D01*
X134639000Y-64476199D01*
X134639000Y-64310126D01*
X134481431Y-63929720D01*
X134190280Y-63638569D01*
X133809874Y-63481000D01*
X133398126Y-63481000D01*
X133017720Y-63638569D01*
X132726569Y-63929720D01*
X132569000Y-64310126D01*
X109422000Y-64310126D01*
X109422000Y-62678263D01*
X154537410Y-62678263D01*
X154537410Y-63590217D01*
X154886399Y-64432752D01*
X155531248Y-65077601D01*
X156373783Y-65426590D01*
X157285737Y-65426590D01*
X158128272Y-65077601D01*
X158773121Y-64432752D01*
X159122110Y-63590217D01*
X159122110Y-62678263D01*
X161933890Y-62678263D01*
X161933890Y-63590217D01*
X162282879Y-64432752D01*
X162927728Y-65077601D01*
X163770263Y-65426590D01*
X164682217Y-65426590D01*
X165524752Y-65077601D01*
X166169601Y-64432752D01*
X166518590Y-63590217D01*
X166518590Y-62678263D01*
X169269410Y-62678263D01*
X169269410Y-63590217D01*
X169618399Y-64432752D01*
X170263248Y-65077601D01*
X171105783Y-65426590D01*
X172017737Y-65426590D01*
X172860272Y-65077601D01*
X173505121Y-64432752D01*
X173854110Y-63590217D01*
X173854110Y-62678263D01*
X176665890Y-62678263D01*
X176665890Y-63590217D01*
X177014879Y-64432752D01*
X177659728Y-65077601D01*
X178502263Y-65426590D01*
X179414217Y-65426590D01*
X180256752Y-65077601D01*
X180901601Y-64432752D01*
X181250590Y-63590217D01*
X181250590Y-62678263D01*
X180931231Y-61907260D01*
X189940964Y-61907260D01*
X190061622Y-62145000D01*
X192405000Y-62145000D01*
X192405000Y-60737000D01*
X192659000Y-60737000D01*
X192659000Y-62145000D01*
X195002378Y-62145000D01*
X195123036Y-61907260D01*
X195098756Y-61801914D01*
X194807212Y-61276394D01*
X194336752Y-60902446D01*
X193759000Y-60737000D01*
X192659000Y-60737000D01*
X192405000Y-60737000D01*
X191305000Y-60737000D01*
X190727248Y-60902446D01*
X190256788Y-61276394D01*
X189965244Y-61801914D01*
X189940964Y-61907260D01*
X180931231Y-61907260D01*
X180901601Y-61835728D01*
X180256752Y-61190879D01*
X179414217Y-60841890D01*
X178502263Y-60841890D01*
X177659728Y-61190879D01*
X177014879Y-61835728D01*
X176665890Y-62678263D01*
X173854110Y-62678263D01*
X173505121Y-61835728D01*
X172860272Y-61190879D01*
X172553047Y-61063622D01*
X173811983Y-61063622D01*
X173990967Y-61398738D01*
X174838674Y-61734972D01*
X175750524Y-61721207D01*
X176529033Y-61398738D01*
X176708017Y-61063622D01*
X175260000Y-59615605D01*
X173811983Y-61063622D01*
X172553047Y-61063622D01*
X172017737Y-60841890D01*
X171105783Y-60841890D01*
X170263248Y-61190879D01*
X169618399Y-61835728D01*
X169269410Y-62678263D01*
X166518590Y-62678263D01*
X166169601Y-61835728D01*
X165524752Y-61190879D01*
X164682217Y-60841890D01*
X163770263Y-60841890D01*
X162927728Y-61190879D01*
X162282879Y-61835728D01*
X161933890Y-62678263D01*
X159122110Y-62678263D01*
X158773121Y-61835728D01*
X158128272Y-61190879D01*
X157821047Y-61063622D01*
X159079983Y-61063622D01*
X159258967Y-61398738D01*
X160106674Y-61734972D01*
X161018524Y-61721207D01*
X161797033Y-61398738D01*
X161976017Y-61063622D01*
X160528000Y-59615605D01*
X159079983Y-61063622D01*
X157821047Y-61063622D01*
X157285737Y-60841890D01*
X156373783Y-60841890D01*
X155531248Y-61190879D01*
X154886399Y-61835728D01*
X154537410Y-62678263D01*
X109422000Y-62678263D01*
X109422000Y-59352756D01*
X109753444Y-60152933D01*
X110832247Y-61231736D01*
X112241771Y-61815580D01*
X113767429Y-61815580D01*
X115176953Y-61231736D01*
X116255756Y-60152933D01*
X116727238Y-59014674D01*
X158229028Y-59014674D01*
X158242793Y-59926524D01*
X158565262Y-60705033D01*
X158900378Y-60884017D01*
X160348395Y-59436000D01*
X160707605Y-59436000D01*
X162155622Y-60884017D01*
X162490738Y-60705033D01*
X162826972Y-59857326D01*
X162814252Y-59014674D01*
X172961028Y-59014674D01*
X172974793Y-59926524D01*
X173297262Y-60705033D01*
X173632378Y-60884017D01*
X175080395Y-59436000D01*
X175439605Y-59436000D01*
X176887622Y-60884017D01*
X177222738Y-60705033D01*
X177558972Y-59857326D01*
X177545207Y-58945476D01*
X177222738Y-58166967D01*
X176887622Y-57987983D01*
X175439605Y-59436000D01*
X175080395Y-59436000D01*
X173632378Y-57987983D01*
X173297262Y-58166967D01*
X172961028Y-59014674D01*
X162814252Y-59014674D01*
X162813207Y-58945476D01*
X162490738Y-58166967D01*
X162155622Y-57987983D01*
X160707605Y-59436000D01*
X160348395Y-59436000D01*
X158900378Y-57987983D01*
X158565262Y-58166967D01*
X158229028Y-59014674D01*
X116727238Y-59014674D01*
X116839600Y-58743409D01*
X116839600Y-57217751D01*
X116336114Y-56002228D01*
X154594560Y-56002228D01*
X154594560Y-56672172D01*
X154850937Y-57291121D01*
X155324659Y-57764843D01*
X155943608Y-58021220D01*
X156613552Y-58021220D01*
X157127398Y-57808378D01*
X159079983Y-57808378D01*
X160528000Y-59256395D01*
X161976017Y-57808378D01*
X161797033Y-57473262D01*
X160949326Y-57137028D01*
X160037476Y-57150793D01*
X159258967Y-57473262D01*
X159079983Y-57808378D01*
X157127398Y-57808378D01*
X157232501Y-57764843D01*
X157706223Y-57291121D01*
X157962600Y-56672172D01*
X157962600Y-56002228D01*
X163093400Y-56002228D01*
X163093400Y-56672172D01*
X163349777Y-57291121D01*
X163823499Y-57764843D01*
X164442448Y-58021220D01*
X165112392Y-58021220D01*
X165731341Y-57764843D01*
X166205063Y-57291121D01*
X166461440Y-56672172D01*
X166461440Y-56002228D01*
X169326560Y-56002228D01*
X169326560Y-56672172D01*
X169582937Y-57291121D01*
X170056659Y-57764843D01*
X170675608Y-58021220D01*
X171345552Y-58021220D01*
X171859398Y-57808378D01*
X173811983Y-57808378D01*
X175260000Y-59256395D01*
X176708017Y-57808378D01*
X176529033Y-57473262D01*
X175681326Y-57137028D01*
X174769476Y-57150793D01*
X173990967Y-57473262D01*
X173811983Y-57808378D01*
X171859398Y-57808378D01*
X171964501Y-57764843D01*
X172438223Y-57291121D01*
X172694600Y-56672172D01*
X172694600Y-56002228D01*
X177825400Y-56002228D01*
X177825400Y-56672172D01*
X178081777Y-57291121D01*
X178555499Y-57764843D01*
X179174448Y-58021220D01*
X179844392Y-58021220D01*
X180463341Y-57764843D01*
X180937063Y-57291121D01*
X181193440Y-56672172D01*
X181193440Y-56002228D01*
X180937063Y-55383279D01*
X180463341Y-54909557D01*
X179844392Y-54653180D01*
X179174448Y-54653180D01*
X178555499Y-54909557D01*
X178081777Y-55383279D01*
X177825400Y-56002228D01*
X172694600Y-56002228D01*
X172438223Y-55383279D01*
X171964501Y-54909557D01*
X171345552Y-54653180D01*
X170675608Y-54653180D01*
X170056659Y-54909557D01*
X169582937Y-55383279D01*
X169326560Y-56002228D01*
X166461440Y-56002228D01*
X166205063Y-55383279D01*
X165731341Y-54909557D01*
X165112392Y-54653180D01*
X164442448Y-54653180D01*
X163823499Y-54909557D01*
X163349777Y-55383279D01*
X163093400Y-56002228D01*
X157962600Y-56002228D01*
X157706223Y-55383279D01*
X157232501Y-54909557D01*
X156613552Y-54653180D01*
X155943608Y-54653180D01*
X155324659Y-54909557D01*
X154850937Y-55383279D01*
X154594560Y-56002228D01*
X116336114Y-56002228D01*
X116255756Y-55808227D01*
X115176953Y-54729424D01*
X114763099Y-54558000D01*
X203244901Y-54558000D01*
X202831047Y-54729424D01*
X202831047Y-54729424D01*
G37*
X202831047Y-54729424D02*
X201752244Y-55808227D01*
X201168400Y-57217751D01*
X201168400Y-58743409D01*
X201752244Y-60152933D01*
X202831047Y-61231736D01*
X204240571Y-61815580D01*
X205766229Y-61815580D01*
X207175753Y-61231736D01*
X208254556Y-60152933D01*
X208586000Y-59352756D01*
X208586001Y-128609786D01*
X208254556Y-127809607D01*
X207175753Y-126730804D01*
X205766229Y-126146960D01*
X204240571Y-126146960D01*
X202831047Y-126730804D01*
X201752244Y-127809607D01*
X201168400Y-129219131D01*
X201168400Y-130744789D01*
X201752244Y-132154313D01*
X202831047Y-133233116D01*
X203238769Y-133402000D01*
X114769231Y-133402000D01*
X115176953Y-133233116D01*
X116255756Y-132154313D01*
X116839600Y-130744789D01*
X116839600Y-129219131D01*
X116255756Y-127809607D01*
X115176953Y-126730804D01*
X113767429Y-126146960D01*
X112241771Y-126146960D01*
X110832247Y-126730804D01*
X109753444Y-127809607D01*
X109422000Y-128609784D01*
X109422000Y-125759866D01*
X124517000Y-125759866D01*
X124517000Y-126808134D01*
X124918155Y-127776608D01*
X125659392Y-128517845D01*
X126627866Y-128919000D01*
X127676134Y-128919000D01*
X128644608Y-128517845D01*
X129385845Y-127776608D01*
X129787000Y-126808134D01*
X129787000Y-125759866D01*
X129548469Y-125184000D01*
X132664560Y-125184000D01*
X132664560Y-126784000D01*
X132713843Y-127031765D01*
X132719001Y-127039484D01*
X132719000Y-129452839D01*
X132701663Y-129540000D01*
X132719000Y-129627161D01*
X132719000Y-129627164D01*
X132770348Y-129885309D01*
X132965951Y-130178049D01*
X133039847Y-130227425D01*
X134440577Y-131628156D01*
X134489951Y-131702049D01*
X134563844Y-131751423D01*
X134563845Y-131751424D01*
X134630079Y-131795680D01*
X134782690Y-131897652D01*
X135040835Y-131949000D01*
X135040839Y-131949000D01*
X135127999Y-131966337D01*
X135215159Y-131949000D01*
X170376839Y-131949000D01*
X170464000Y-131966337D01*
X170551161Y-131949000D01*
X170551165Y-131949000D01*
X170809310Y-131897652D01*
X171102049Y-131702049D01*
X171151425Y-131628153D01*
X174194000Y-128585579D01*
X174194000Y-129109439D01*
X174412466Y-129636862D01*
X174816138Y-130040534D01*
X175343561Y-130259000D01*
X175914439Y-130259000D01*
X176441862Y-130040534D01*
X176845534Y-129636862D01*
X177014000Y-129230150D01*
X177182466Y-129636862D01*
X177586138Y-130040534D01*
X178113561Y-130259000D01*
X178684439Y-130259000D01*
X179211862Y-130040534D01*
X179615534Y-129636862D01*
X179784000Y-129230150D01*
X179952466Y-129636862D01*
X180356138Y-130040534D01*
X180883561Y-130259000D01*
X181454439Y-130259000D01*
X181981862Y-130040534D01*
X182385534Y-129636862D01*
X182554000Y-129230150D01*
X182722466Y-129636862D01*
X183126138Y-130040534D01*
X183653561Y-130259000D01*
X184224439Y-130259000D01*
X184751862Y-130040534D01*
X185155534Y-129636862D01*
X185374000Y-129109439D01*
X185374000Y-128538561D01*
X185155534Y-128011138D01*
X184751862Y-127607466D01*
X184224439Y-127389000D01*
X183653561Y-127389000D01*
X183126138Y-127607466D01*
X182722466Y-128011138D01*
X182554000Y-128417850D01*
X182385534Y-128011138D01*
X181981862Y-127607466D01*
X181454439Y-127389000D01*
X180883561Y-127389000D01*
X180356138Y-127607466D01*
X179952466Y-128011138D01*
X179784000Y-128417850D01*
X179615534Y-128011138D01*
X179211862Y-127607466D01*
X178684439Y-127389000D01*
X178113561Y-127389000D01*
X177586138Y-127607466D01*
X177182466Y-128011138D01*
X177014000Y-128417850D01*
X176845534Y-128011138D01*
X176441862Y-127607466D01*
X175914439Y-127389000D01*
X175343561Y-127389000D01*
X175105868Y-127487456D01*
X175120018Y-127416319D01*
X175291765Y-127382157D01*
X175501809Y-127241809D01*
X175642157Y-127031765D01*
X175691440Y-126784000D01*
X175691440Y-126540893D01*
X175797466Y-126796862D01*
X176201138Y-127200534D01*
X176728561Y-127419000D01*
X177299439Y-127419000D01*
X177826862Y-127200534D01*
X178230534Y-126796862D01*
X178399000Y-126390150D01*
X178567466Y-126796862D01*
X178971138Y-127200534D01*
X179498561Y-127419000D01*
X180069439Y-127419000D01*
X180596862Y-127200534D01*
X181000534Y-126796862D01*
X181169000Y-126390150D01*
X181337466Y-126796862D01*
X181741138Y-127200534D01*
X182268561Y-127419000D01*
X182839439Y-127419000D01*
X183366862Y-127200534D01*
X183575651Y-126991745D01*
X184495861Y-126991745D01*
X184569995Y-127237864D01*
X185107223Y-127430965D01*
X185677454Y-127403778D01*
X186078005Y-127237864D01*
X186152139Y-126991745D01*
X185324000Y-126163605D01*
X184495861Y-126991745D01*
X183575651Y-126991745D01*
X183770534Y-126796862D01*
X183932525Y-126405782D01*
X184070136Y-126738005D01*
X184316255Y-126812139D01*
X185144395Y-125984000D01*
X185503605Y-125984000D01*
X186331745Y-126812139D01*
X186577864Y-126738005D01*
X186770965Y-126200777D01*
X186749944Y-125759866D01*
X189649000Y-125759866D01*
X189649000Y-126808134D01*
X190050155Y-127776608D01*
X190791392Y-128517845D01*
X191759866Y-128919000D01*
X192808134Y-128919000D01*
X193776608Y-128517845D01*
X194517845Y-127776608D01*
X194919000Y-126808134D01*
X194919000Y-125759866D01*
X194517845Y-124791392D01*
X193776608Y-124050155D01*
X192808134Y-123649000D01*
X191759866Y-123649000D01*
X190791392Y-124050155D01*
X190050155Y-124791392D01*
X189649000Y-125759866D01*
X186749944Y-125759866D01*
X186743778Y-125630546D01*
X186577864Y-125229995D01*
X186331745Y-125155861D01*
X185503605Y-125984000D01*
X185144395Y-125984000D01*
X184316255Y-125155861D01*
X184070136Y-125229995D01*
X183942268Y-125585739D01*
X183770534Y-125171138D01*
X183575651Y-124976255D01*
X184495861Y-124976255D01*
X185324000Y-125804395D01*
X186152139Y-124976255D01*
X186078005Y-124730136D01*
X185540777Y-124537035D01*
X184970546Y-124564222D01*
X184569995Y-124730136D01*
X184495861Y-124976255D01*
X183575651Y-124976255D01*
X183366862Y-124767466D01*
X182839439Y-124549000D01*
X182268561Y-124549000D01*
X181741138Y-124767466D01*
X181337466Y-125171138D01*
X181169000Y-125577850D01*
X181000534Y-125171138D01*
X180596862Y-124767466D01*
X180069439Y-124549000D01*
X179498561Y-124549000D01*
X178971138Y-124767466D01*
X178567466Y-125171138D01*
X178399000Y-125577850D01*
X178230534Y-125171138D01*
X177826862Y-124767466D01*
X177299439Y-124549000D01*
X176728561Y-124549000D01*
X176201138Y-124767466D01*
X175797466Y-125171138D01*
X175691440Y-125427107D01*
X175691440Y-125184000D01*
X175642157Y-124936235D01*
X175501809Y-124726191D01*
X175472782Y-124706796D01*
X184714157Y-115465422D01*
X184788049Y-115416049D01*
X184871005Y-115291898D01*
X184983652Y-115123310D01*
X184993284Y-115074888D01*
X185035000Y-114865165D01*
X185035000Y-114865161D01*
X185052337Y-114778000D01*
X185035000Y-114690839D01*
X185035000Y-111992506D01*
X195211000Y-111992506D01*
X195211000Y-112543494D01*
X195421853Y-113052540D01*
X195811460Y-113442147D01*
X196320506Y-113653000D01*
X196871494Y-113653000D01*
X197380540Y-113442147D01*
X197770147Y-113052540D01*
X197981000Y-112543494D01*
X197981000Y-111992506D01*
X200091000Y-111992506D01*
X200091000Y-112543494D01*
X200301853Y-113052540D01*
X200691460Y-113442147D01*
X201200506Y-113653000D01*
X201751494Y-113653000D01*
X202260540Y-113442147D01*
X202650147Y-113052540D01*
X202861000Y-112543494D01*
X202861000Y-111992506D01*
X202650147Y-111483460D01*
X202260540Y-111093853D01*
X201751494Y-110883000D01*
X201200506Y-110883000D01*
X200691460Y-111093853D01*
X200301853Y-111483460D01*
X200091000Y-111992506D01*
X197981000Y-111992506D01*
X197770147Y-111483460D01*
X197380540Y-111093853D01*
X196871494Y-110883000D01*
X196320506Y-110883000D01*
X195811460Y-111093853D01*
X195421853Y-111483460D01*
X195211000Y-111992506D01*
X185035000Y-111992506D01*
X185035000Y-99245286D01*
X189973000Y-99245286D01*
X189973000Y-99657034D01*
X190130569Y-100037440D01*
X190421720Y-100328591D01*
X190802126Y-100486160D01*
X191213874Y-100486160D01*
X191594280Y-100328591D01*
X191711711Y-100211160D01*
X194811124Y-100211160D01*
X194793877Y-100218304D01*
X194502726Y-100509455D01*
X194345157Y-100889861D01*
X194345157Y-101301609D01*
X194502726Y-101682015D01*
X194551446Y-101730735D01*
X194502726Y-101779455D01*
X194345157Y-102159861D01*
X194345157Y-102571609D01*
X194502726Y-102952015D01*
X194793877Y-103243166D01*
X195174283Y-103400735D01*
X195328001Y-103400735D01*
X195328000Y-106484289D01*
X195210569Y-106601720D01*
X195053000Y-106982126D01*
X195053000Y-107393874D01*
X195210569Y-107774280D01*
X195501720Y-108065431D01*
X195882126Y-108223000D01*
X196293874Y-108223000D01*
X196674280Y-108065431D01*
X196965431Y-107774280D01*
X197123000Y-107393874D01*
X197123000Y-106982126D01*
X196965431Y-106601720D01*
X196848000Y-106484289D01*
X196848000Y-103148424D01*
X196862888Y-103073577D01*
X196848000Y-102998730D01*
X196848000Y-102998726D01*
X196803904Y-102777041D01*
X196635929Y-102525649D01*
X196572473Y-102483249D01*
X196415157Y-102325933D01*
X196415157Y-102159861D01*
X196289184Y-101855735D01*
X196909774Y-101855735D01*
X202673000Y-107618962D01*
X202673000Y-107785034D01*
X202830569Y-108165440D01*
X203121720Y-108456591D01*
X203502126Y-108614160D01*
X203913874Y-108614160D01*
X204294280Y-108456591D01*
X204585431Y-108165440D01*
X204743000Y-107785034D01*
X204743000Y-107373286D01*
X204585431Y-106992880D01*
X204294280Y-106701729D01*
X203913874Y-106544160D01*
X203747802Y-106544160D01*
X197814906Y-100611265D01*
X197772504Y-100547806D01*
X197521112Y-100379831D01*
X197299427Y-100335735D01*
X197299422Y-100335735D01*
X197224575Y-100320847D01*
X197149728Y-100335735D01*
X196083868Y-100335735D01*
X195966437Y-100218304D01*
X195949190Y-100211160D01*
X198101000Y-100211160D01*
X198101000Y-100281874D01*
X198258569Y-100662280D01*
X198549720Y-100953431D01*
X198930126Y-101111000D01*
X199341874Y-101111000D01*
X199722280Y-100953431D01*
X200013431Y-100662280D01*
X200171000Y-100281874D01*
X200171000Y-99870126D01*
X200013431Y-99489720D01*
X199722280Y-99198569D01*
X199341874Y-99041000D01*
X199175801Y-99041000D01*
X199101491Y-98966690D01*
X199059089Y-98903231D01*
X198807697Y-98735256D01*
X198586012Y-98691160D01*
X198586007Y-98691160D01*
X198511160Y-98676272D01*
X198436313Y-98691160D01*
X191711711Y-98691160D01*
X191594280Y-98573729D01*
X191213874Y-98416160D01*
X190802126Y-98416160D01*
X190421720Y-98573729D01*
X190130569Y-98864880D01*
X189973000Y-99245286D01*
X185035000Y-99245286D01*
X185035000Y-91055000D01*
X196430339Y-91055000D01*
X196517500Y-91072337D01*
X196604661Y-91055000D01*
X196604665Y-91055000D01*
X196862810Y-91003652D01*
X197155549Y-90808049D01*
X197204925Y-90734153D01*
X201821648Y-86117431D01*
X202183780Y-85967431D01*
X202474931Y-85676280D01*
X202632500Y-85295874D01*
X202632500Y-84884126D01*
X202474931Y-84503720D01*
X202183780Y-84212569D01*
X201803374Y-84055000D01*
X201391626Y-84055000D01*
X201011220Y-84212569D01*
X200720069Y-84503720D01*
X200570069Y-84865852D01*
X196150922Y-89285000D01*
X184237165Y-89285000D01*
X184150000Y-89267662D01*
X184062836Y-89285000D01*
X172807161Y-89285000D01*
X172720000Y-89267663D01*
X172632839Y-89285000D01*
X172632835Y-89285000D01*
X172374690Y-89336348D01*
X172155845Y-89482576D01*
X172155844Y-89482577D01*
X172081951Y-89531951D01*
X172032577Y-89605844D01*
X168685853Y-92952569D01*
X168323720Y-93102569D01*
X168032569Y-93393720D01*
X167875000Y-93774126D01*
X167875000Y-94185874D01*
X168032569Y-94566280D01*
X168323720Y-94857431D01*
X168704126Y-95015000D01*
X169115874Y-95015000D01*
X169496280Y-94857431D01*
X169787431Y-94566280D01*
X169937431Y-94204147D01*
X173086579Y-91055000D01*
X183265001Y-91055000D01*
X183265000Y-114411421D01*
X173679845Y-123996577D01*
X173605952Y-124045951D01*
X173556578Y-124119844D01*
X173556576Y-124119846D01*
X173410348Y-124338691D01*
X173367982Y-124551681D01*
X173196235Y-124585843D01*
X172986191Y-124726191D01*
X172845843Y-124936235D01*
X172796560Y-125184000D01*
X172796560Y-126784000D01*
X172845843Y-127031765D01*
X172986191Y-127241809D01*
X173015217Y-127261204D01*
X170097422Y-130179000D01*
X144285576Y-130179000D01*
X144619862Y-130040534D01*
X145023534Y-129636862D01*
X145242000Y-129109439D01*
X145242000Y-128538561D01*
X145023534Y-128011138D01*
X144619862Y-127607466D01*
X144092439Y-127389000D01*
X143521561Y-127389000D01*
X142994138Y-127607466D01*
X142590466Y-128011138D01*
X142422000Y-128417850D01*
X142253534Y-128011138D01*
X141849862Y-127607466D01*
X141322439Y-127389000D01*
X140751561Y-127389000D01*
X140224138Y-127607466D01*
X139820466Y-128011138D01*
X139652000Y-128417850D01*
X139483534Y-128011138D01*
X139079862Y-127607466D01*
X138552439Y-127389000D01*
X137981561Y-127389000D01*
X137454138Y-127607466D01*
X137050466Y-128011138D01*
X136882000Y-128417850D01*
X136713534Y-128011138D01*
X136309862Y-127607466D01*
X135782439Y-127389000D01*
X135211561Y-127389000D01*
X134684138Y-127607466D01*
X134489000Y-127802604D01*
X134489000Y-127431440D01*
X134912000Y-127431440D01*
X135159765Y-127382157D01*
X135369809Y-127241809D01*
X135510157Y-127031765D01*
X135559440Y-126784000D01*
X135559440Y-126540893D01*
X135665466Y-126796862D01*
X136069138Y-127200534D01*
X136596561Y-127419000D01*
X137167439Y-127419000D01*
X137694862Y-127200534D01*
X138098534Y-126796862D01*
X138267000Y-126390150D01*
X138435466Y-126796862D01*
X138839138Y-127200534D01*
X139366561Y-127419000D01*
X139937439Y-127419000D01*
X140464862Y-127200534D01*
X140868534Y-126796862D01*
X141037000Y-126390150D01*
X141205466Y-126796862D01*
X141609138Y-127200534D01*
X142136561Y-127419000D01*
X142707439Y-127419000D01*
X143234862Y-127200534D01*
X143443651Y-126991745D01*
X144363861Y-126991745D01*
X144437995Y-127237864D01*
X144975223Y-127430965D01*
X145545454Y-127403778D01*
X145946005Y-127237864D01*
X146020139Y-126991745D01*
X145192000Y-126163605D01*
X144363861Y-126991745D01*
X143443651Y-126991745D01*
X143638534Y-126796862D01*
X143800525Y-126405782D01*
X143938136Y-126738005D01*
X144184255Y-126812139D01*
X145012395Y-125984000D01*
X145371605Y-125984000D01*
X146199745Y-126812139D01*
X146445864Y-126738005D01*
X146638965Y-126200777D01*
X146617944Y-125759866D01*
X149517000Y-125759866D01*
X149517000Y-126808134D01*
X149918155Y-127776608D01*
X150659392Y-128517845D01*
X151627866Y-128919000D01*
X152676134Y-128919000D01*
X153644608Y-128517845D01*
X154385845Y-127776608D01*
X154787000Y-126808134D01*
X154787000Y-125759866D01*
X164649000Y-125759866D01*
X164649000Y-126808134D01*
X165050155Y-127776608D01*
X165791392Y-128517845D01*
X166759866Y-128919000D01*
X167808134Y-128919000D01*
X168776608Y-128517845D01*
X169517845Y-127776608D01*
X169919000Y-126808134D01*
X169919000Y-125759866D01*
X169517845Y-124791392D01*
X168776608Y-124050155D01*
X167808134Y-123649000D01*
X166759866Y-123649000D01*
X165791392Y-124050155D01*
X165050155Y-124791392D01*
X164649000Y-125759866D01*
X154787000Y-125759866D01*
X154385845Y-124791392D01*
X153644608Y-124050155D01*
X152676134Y-123649000D01*
X151627866Y-123649000D01*
X150659392Y-124050155D01*
X149918155Y-124791392D01*
X149517000Y-125759866D01*
X146617944Y-125759866D01*
X146611778Y-125630546D01*
X146445864Y-125229995D01*
X146199745Y-125155861D01*
X145371605Y-125984000D01*
X145012395Y-125984000D01*
X144184255Y-125155861D01*
X143938136Y-125229995D01*
X143810268Y-125585739D01*
X143638534Y-125171138D01*
X143443651Y-124976255D01*
X144363861Y-124976255D01*
X145192000Y-125804395D01*
X146020139Y-124976255D01*
X145946005Y-124730136D01*
X145408777Y-124537035D01*
X144838546Y-124564222D01*
X144437995Y-124730136D01*
X144363861Y-124976255D01*
X143443651Y-124976255D01*
X143234862Y-124767466D01*
X142707439Y-124549000D01*
X142136561Y-124549000D01*
X141609138Y-124767466D01*
X141205466Y-125171138D01*
X141037000Y-125577850D01*
X140868534Y-125171138D01*
X140464862Y-124767466D01*
X139937439Y-124549000D01*
X139366561Y-124549000D01*
X138839138Y-124767466D01*
X138435466Y-125171138D01*
X138267000Y-125577850D01*
X138098534Y-125171138D01*
X137694862Y-124767466D01*
X137167439Y-124549000D01*
X136596561Y-124549000D01*
X136069138Y-124767466D01*
X135665466Y-125171138D01*
X135559440Y-125427107D01*
X135559440Y-125184000D01*
X135510157Y-124936235D01*
X135369809Y-124726191D01*
X135159765Y-124585843D01*
X134912000Y-124536560D01*
X133312000Y-124536560D01*
X133064235Y-124585843D01*
X132854191Y-124726191D01*
X132713843Y-124936235D01*
X132664560Y-125184000D01*
X129548469Y-125184000D01*
X129385845Y-124791392D01*
X128644608Y-124050155D01*
X127676134Y-123649000D01*
X126627866Y-123649000D01*
X125659392Y-124050155D01*
X124918155Y-124791392D01*
X124517000Y-125759866D01*
X109422000Y-125759866D01*
X109422000Y-122056868D01*
X111222737Y-122056868D01*
X111333641Y-122334099D01*
X111979593Y-122577323D01*
X112669453Y-122554836D01*
X113202359Y-122334099D01*
X113313263Y-122056868D01*
X117722737Y-122056868D01*
X117833641Y-122334099D01*
X118479593Y-122577323D01*
X119169453Y-122554836D01*
X119702359Y-122334099D01*
X119813263Y-122056868D01*
X118768000Y-121011605D01*
X117722737Y-122056868D01*
X113313263Y-122056868D01*
X112268000Y-121011605D01*
X111222737Y-122056868D01*
X109422000Y-122056868D01*
X109422000Y-120543593D01*
X110522677Y-120543593D01*
X110545164Y-121233453D01*
X110765901Y-121766359D01*
X111043132Y-121877263D01*
X112088395Y-120832000D01*
X112447605Y-120832000D01*
X113492868Y-121877263D01*
X113770099Y-121766359D01*
X114013323Y-121120407D01*
X113994521Y-120543593D01*
X117022677Y-120543593D01*
X117045164Y-121233453D01*
X117265901Y-121766359D01*
X117543132Y-121877263D01*
X118588395Y-120832000D01*
X118947605Y-120832000D01*
X119992868Y-121877263D01*
X120270099Y-121766359D01*
X120513323Y-121120407D01*
X120490836Y-120430547D01*
X120270099Y-119897641D01*
X119992868Y-119786737D01*
X118947605Y-120832000D01*
X118588395Y-120832000D01*
X117543132Y-119786737D01*
X117265901Y-119897641D01*
X117022677Y-120543593D01*
X113994521Y-120543593D01*
X113990836Y-120430547D01*
X113770099Y-119897641D01*
X113492868Y-119786737D01*
X112447605Y-120832000D01*
X112088395Y-120832000D01*
X111043132Y-119786737D01*
X110765901Y-119897641D01*
X110522677Y-120543593D01*
X109422000Y-120543593D01*
X109422000Y-119607132D01*
X111222737Y-119607132D01*
X112268000Y-120652395D01*
X113313263Y-119607132D01*
X117722737Y-119607132D01*
X118768000Y-120652395D01*
X119813263Y-119607132D01*
X119702359Y-119329901D01*
X119056407Y-119086677D01*
X118366547Y-119109164D01*
X117833641Y-119329901D01*
X117722737Y-119607132D01*
X113313263Y-119607132D01*
X113202359Y-119329901D01*
X112556407Y-119086677D01*
X111866547Y-119109164D01*
X111333641Y-119329901D01*
X111222737Y-119607132D01*
X109422000Y-119607132D01*
X109422000Y-115232000D01*
X110520560Y-115232000D01*
X110520560Y-117432000D01*
X110569843Y-117679765D01*
X110710191Y-117889809D01*
X110920235Y-118030157D01*
X111168000Y-118079440D01*
X113368000Y-118079440D01*
X113615765Y-118030157D01*
X113825809Y-117889809D01*
X113966157Y-117679765D01*
X114015440Y-117432000D01*
X114015440Y-115986887D01*
X117033000Y-115986887D01*
X117033000Y-116677113D01*
X117297138Y-117314799D01*
X117785201Y-117802862D01*
X118422887Y-118067000D01*
X119113113Y-118067000D01*
X119750799Y-117802862D01*
X120238862Y-117314799D01*
X120503000Y-116677113D01*
X120503000Y-115986887D01*
X120238862Y-115349201D01*
X119750799Y-114861138D01*
X119113113Y-114597000D01*
X118422887Y-114597000D01*
X117785201Y-114861138D01*
X117297138Y-115349201D01*
X117033000Y-115986887D01*
X114015440Y-115986887D01*
X114015440Y-115232000D01*
X113966157Y-114984235D01*
X113825809Y-114774191D01*
X113615765Y-114633843D01*
X113368000Y-114584560D01*
X111168000Y-114584560D01*
X110920235Y-114633843D01*
X110710191Y-114774191D01*
X110569843Y-114984235D01*
X110520560Y-115232000D01*
X109422000Y-115232000D01*
X109422000Y-110880868D01*
X111222737Y-110880868D01*
X111333641Y-111158099D01*
X111979593Y-111401323D01*
X112669453Y-111378836D01*
X113202359Y-111158099D01*
X113313263Y-110880868D01*
X117722737Y-110880868D01*
X117833641Y-111158099D01*
X118479593Y-111401323D01*
X119169453Y-111378836D01*
X119702359Y-111158099D01*
X119813263Y-110880868D01*
X118768000Y-109835605D01*
X117722737Y-110880868D01*
X113313263Y-110880868D01*
X112268000Y-109835605D01*
X111222737Y-110880868D01*
X109422000Y-110880868D01*
X109422000Y-109367593D01*
X110522677Y-109367593D01*
X110545164Y-110057453D01*
X110765901Y-110590359D01*
X111043132Y-110701263D01*
X112088395Y-109656000D01*
X112447605Y-109656000D01*
X113492868Y-110701263D01*
X113770099Y-110590359D01*
X114013323Y-109944407D01*
X113994521Y-109367593D01*
X117022677Y-109367593D01*
X117045164Y-110057453D01*
X117265901Y-110590359D01*
X117543132Y-110701263D01*
X118588395Y-109656000D01*
X118947605Y-109656000D01*
X119992868Y-110701263D01*
X120270099Y-110590359D01*
X120513323Y-109944407D01*
X120490836Y-109254547D01*
X120270099Y-108721641D01*
X119992868Y-108610737D01*
X118947605Y-109656000D01*
X118588395Y-109656000D01*
X117543132Y-108610737D01*
X117265901Y-108721641D01*
X117022677Y-109367593D01*
X113994521Y-109367593D01*
X113990836Y-109254547D01*
X113770099Y-108721641D01*
X113492868Y-108610737D01*
X112447605Y-109656000D01*
X112088395Y-109656000D01*
X111043132Y-108610737D01*
X110765901Y-108721641D01*
X110522677Y-109367593D01*
X109422000Y-109367593D01*
X109422000Y-108431132D01*
X111222737Y-108431132D01*
X112268000Y-109476395D01*
X113313263Y-108431132D01*
X117722737Y-108431132D01*
X118768000Y-109476395D01*
X119813263Y-108431132D01*
X119702359Y-108153901D01*
X119056407Y-107910677D01*
X118366547Y-107933164D01*
X117833641Y-108153901D01*
X117722737Y-108431132D01*
X113313263Y-108431132D01*
X113202359Y-108153901D01*
X112556407Y-107910677D01*
X111866547Y-107933164D01*
X111333641Y-108153901D01*
X111222737Y-108431132D01*
X109422000Y-108431132D01*
X109422000Y-104056000D01*
X110520560Y-104056000D01*
X110520560Y-106256000D01*
X110569843Y-106503765D01*
X110710191Y-106713809D01*
X110920235Y-106854157D01*
X111168000Y-106903440D01*
X113368000Y-106903440D01*
X113615765Y-106854157D01*
X113825809Y-106713809D01*
X113966157Y-106503765D01*
X114015440Y-106256000D01*
X114015440Y-104810887D01*
X117033000Y-104810887D01*
X117033000Y-105501113D01*
X117297138Y-106138799D01*
X117785201Y-106626862D01*
X118422887Y-106891000D01*
X119113113Y-106891000D01*
X119750799Y-106626862D01*
X120238862Y-106138799D01*
X120503000Y-105501113D01*
X120503000Y-104810887D01*
X120238862Y-104173201D01*
X119750799Y-103685138D01*
X119113113Y-103421000D01*
X118422887Y-103421000D01*
X117785201Y-103685138D01*
X117297138Y-104173201D01*
X117033000Y-104810887D01*
X114015440Y-104810887D01*
X114015440Y-104056000D01*
X113966157Y-103808235D01*
X113825809Y-103598191D01*
X113615765Y-103457843D01*
X113368000Y-103408560D01*
X111168000Y-103408560D01*
X110920235Y-103457843D01*
X110710191Y-103598191D01*
X110569843Y-103808235D01*
X110520560Y-104056000D01*
X109422000Y-104056000D01*
X109422000Y-98329750D01*
X111699000Y-98329750D01*
X111699000Y-99120310D01*
X111795673Y-99353699D01*
X111974302Y-99532327D01*
X112207691Y-99629000D01*
X112998250Y-99629000D01*
X113157000Y-99470250D01*
X113157000Y-98171000D01*
X111857750Y-98171000D01*
X111699000Y-98329750D01*
X109422000Y-98329750D01*
X109422000Y-96967690D01*
X111699000Y-96967690D01*
X111699000Y-97758250D01*
X111857750Y-97917000D01*
X113157000Y-97917000D01*
X113157000Y-96617750D01*
X113411000Y-96617750D01*
X113411000Y-97917000D01*
X113431000Y-97917000D01*
X113431000Y-98171000D01*
X113411000Y-98171000D01*
X113411000Y-99470250D01*
X113569750Y-99629000D01*
X114360309Y-99629000D01*
X114593698Y-99532327D01*
X114772327Y-99353699D01*
X114795713Y-99297241D01*
X114886170Y-99387698D01*
X115468724Y-99629000D01*
X116099276Y-99629000D01*
X116681830Y-99387698D01*
X117034000Y-99035528D01*
X117386170Y-99387698D01*
X117968724Y-99629000D01*
X118599276Y-99629000D01*
X119181830Y-99387698D01*
X119627698Y-98941830D01*
X119869000Y-98359276D01*
X119869000Y-97728724D01*
X119627698Y-97146170D01*
X119181830Y-96700302D01*
X118599276Y-96459000D01*
X117968724Y-96459000D01*
X117386170Y-96700302D01*
X117034000Y-97052472D01*
X116681830Y-96700302D01*
X116544000Y-96643211D01*
X116544000Y-95858801D01*
X117154802Y-95248000D01*
X132900289Y-95248000D01*
X133017720Y-95365431D01*
X133398126Y-95523000D01*
X133809874Y-95523000D01*
X134190280Y-95365431D01*
X134481431Y-95074280D01*
X134639000Y-94693874D01*
X134639000Y-94282126D01*
X134481431Y-93901720D01*
X134190280Y-93610569D01*
X133809874Y-93453000D01*
X133398126Y-93453000D01*
X133017720Y-93610569D01*
X132900289Y-93728000D01*
X116914848Y-93728000D01*
X116840000Y-93713112D01*
X116765152Y-93728000D01*
X116765148Y-93728000D01*
X116543463Y-93772096D01*
X116292071Y-93940071D01*
X116249671Y-94003527D01*
X115299530Y-94953669D01*
X115236071Y-94996071D01*
X115068096Y-95247464D01*
X115024000Y-95469149D01*
X115024000Y-95469153D01*
X115009112Y-95544000D01*
X115024000Y-95618847D01*
X115024000Y-96643211D01*
X114886170Y-96700302D01*
X114795713Y-96790759D01*
X114772327Y-96734301D01*
X114593698Y-96555673D01*
X114360309Y-96459000D01*
X113569750Y-96459000D01*
X113411000Y-96617750D01*
X113157000Y-96617750D01*
X112998250Y-96459000D01*
X112207691Y-96459000D01*
X111974302Y-96555673D01*
X111795673Y-96734301D01*
X111699000Y-96967690D01*
X109422000Y-96967690D01*
X109422000Y-89474000D01*
X111686560Y-89474000D01*
X111686560Y-91374000D01*
X111735843Y-91621765D01*
X111876191Y-91831809D01*
X112086235Y-91972157D01*
X112334000Y-92021440D01*
X114234000Y-92021440D01*
X114481765Y-91972157D01*
X114691809Y-91831809D01*
X114795339Y-91676867D01*
X114886170Y-91767698D01*
X115468724Y-92009000D01*
X116099276Y-92009000D01*
X116681830Y-91767698D01*
X117034000Y-91415528D01*
X117386170Y-91767698D01*
X117968724Y-92009000D01*
X118599276Y-92009000D01*
X119181830Y-91767698D01*
X119627698Y-91321830D01*
X119684789Y-91184000D01*
X128957153Y-91184000D01*
X129032000Y-91198888D01*
X129106847Y-91184000D01*
X129106852Y-91184000D01*
X129328537Y-91139904D01*
X129579929Y-90971929D01*
X129622331Y-90908470D01*
X134135803Y-86394999D01*
X137331765Y-86394999D01*
X137081720Y-86498571D01*
X136790569Y-86789722D01*
X136633000Y-87170128D01*
X136633000Y-87581876D01*
X136790569Y-87962282D01*
X136908001Y-88079714D01*
X136908000Y-94285956D01*
X136633423Y-94469423D01*
X136316260Y-94944091D01*
X136204887Y-95504000D01*
X136316260Y-96063909D01*
X136633423Y-96538577D01*
X137108091Y-96855740D01*
X137526667Y-96939000D01*
X137809333Y-96939000D01*
X138227909Y-96855740D01*
X138702577Y-96538577D01*
X138938000Y-96186242D01*
X139173423Y-96538577D01*
X139648091Y-96855740D01*
X140066667Y-96939000D01*
X140349333Y-96939000D01*
X140767909Y-96855740D01*
X140862999Y-96792203D01*
X140863000Y-109455798D01*
X140767909Y-109392260D01*
X140349333Y-109309000D01*
X140066667Y-109309000D01*
X139648091Y-109392260D01*
X139173423Y-109709423D01*
X138938000Y-110061758D01*
X138702577Y-109709423D01*
X138227909Y-109392260D01*
X137809333Y-109309000D01*
X137526667Y-109309000D01*
X137108091Y-109392260D01*
X136633423Y-109709423D01*
X136316260Y-110184091D01*
X136204887Y-110744000D01*
X136316260Y-111303909D01*
X136633423Y-111778577D01*
X137108091Y-112095740D01*
X137526667Y-112179000D01*
X137809333Y-112179000D01*
X138227909Y-112095740D01*
X138702577Y-111778577D01*
X138938000Y-111426242D01*
X139173423Y-111778577D01*
X139648091Y-112095740D01*
X140066667Y-112179000D01*
X140349333Y-112179000D01*
X140767909Y-112095740D01*
X140863000Y-112032202D01*
X140863000Y-112279208D01*
X139660199Y-113482010D01*
X139494126Y-113482010D01*
X139113720Y-113639579D01*
X138822569Y-113930730D01*
X138665000Y-114311136D01*
X138665000Y-114722884D01*
X138822569Y-115103290D01*
X139113720Y-115394441D01*
X139494126Y-115552010D01*
X139905874Y-115552010D01*
X140286280Y-115394441D01*
X140577431Y-115103290D01*
X140735000Y-114722884D01*
X140735000Y-114556811D01*
X142107472Y-113184340D01*
X142170928Y-113141940D01*
X142338903Y-112890548D01*
X142382999Y-112668863D01*
X142382999Y-112668859D01*
X142397887Y-112594012D01*
X142382999Y-112519165D01*
X142382999Y-112134510D01*
X142606667Y-112179000D01*
X142889333Y-112179000D01*
X143307909Y-112095740D01*
X143782577Y-111778577D01*
X144018000Y-111426242D01*
X144253423Y-111778577D01*
X144728091Y-112095740D01*
X145146667Y-112179000D01*
X145429333Y-112179000D01*
X145847909Y-112095740D01*
X146322577Y-111778577D01*
X146558000Y-111426242D01*
X146793423Y-111778577D01*
X147268091Y-112095740D01*
X147686667Y-112179000D01*
X147969333Y-112179000D01*
X148387909Y-112095740D01*
X148862577Y-111778577D01*
X149098000Y-111426242D01*
X149333423Y-111778577D01*
X149808091Y-112095740D01*
X150226667Y-112179000D01*
X150509333Y-112179000D01*
X150927909Y-112095740D01*
X151402577Y-111778577D01*
X151638000Y-111426242D01*
X151873423Y-111778577D01*
X152348091Y-112095740D01*
X152766667Y-112179000D01*
X153049333Y-112179000D01*
X153467909Y-112095740D01*
X153942577Y-111778577D01*
X154178000Y-111426242D01*
X154413423Y-111778577D01*
X154888091Y-112095740D01*
X155306667Y-112179000D01*
X155478198Y-112179000D01*
X152085199Y-115572000D01*
X129030237Y-115572000D01*
X129051000Y-115521874D01*
X129051000Y-115110126D01*
X128893431Y-114729720D01*
X128776000Y-114612289D01*
X128776000Y-114106801D01*
X131611803Y-111271000D01*
X131777874Y-111271000D01*
X132158280Y-111113431D01*
X132449431Y-110822280D01*
X132607000Y-110441874D01*
X132607000Y-110030126D01*
X132449431Y-109649720D01*
X132158280Y-109358569D01*
X131777874Y-109201000D01*
X131366126Y-109201000D01*
X130985720Y-109358569D01*
X130694569Y-109649720D01*
X130537000Y-110030126D01*
X130537000Y-110196197D01*
X127531530Y-113201669D01*
X127468071Y-113244071D01*
X127300096Y-113495464D01*
X127256000Y-113717149D01*
X127256000Y-113717153D01*
X127241112Y-113792000D01*
X127256000Y-113866847D01*
X127256001Y-114612288D01*
X127138569Y-114729720D01*
X126981000Y-115110126D01*
X126981000Y-115238198D01*
X124828840Y-113086039D01*
X124828840Y-110431711D01*
X124946271Y-110314280D01*
X125103840Y-109933874D01*
X125103840Y-109522126D01*
X124946271Y-109141720D01*
X124655120Y-108850569D01*
X124274714Y-108693000D01*
X123862966Y-108693000D01*
X123482560Y-108850569D01*
X123191409Y-109141720D01*
X123033840Y-109522126D01*
X123033840Y-109933874D01*
X123191409Y-110314280D01*
X123308840Y-110431711D01*
X123308840Y-110652291D01*
X123308841Y-110652296D01*
X123308840Y-113325993D01*
X123293952Y-113400840D01*
X123308840Y-113475687D01*
X123308840Y-113475691D01*
X123352936Y-113697376D01*
X123520911Y-113948769D01*
X123584370Y-113991171D01*
X126409671Y-116816473D01*
X126452071Y-116879929D01*
X126703463Y-117047904D01*
X126925148Y-117092000D01*
X126925152Y-117092000D01*
X126999999Y-117106888D01*
X127074846Y-117092000D01*
X152325153Y-117092000D01*
X152400000Y-117106888D01*
X152474847Y-117092000D01*
X152474852Y-117092000D01*
X152696537Y-117047904D01*
X152947929Y-116879929D01*
X152990331Y-116816470D01*
X157664115Y-112142688D01*
X157846667Y-112179000D01*
X158129333Y-112179000D01*
X158547909Y-112095740D01*
X159022577Y-111778577D01*
X159258000Y-111426242D01*
X159493423Y-111778577D01*
X159968091Y-112095740D01*
X160386667Y-112179000D01*
X160669333Y-112179000D01*
X161087909Y-112095740D01*
X161562577Y-111778577D01*
X161798000Y-111426242D01*
X162033423Y-111778577D01*
X162508091Y-112095740D01*
X162926667Y-112179000D01*
X163209333Y-112179000D01*
X163627909Y-112095740D01*
X164102577Y-111778577D01*
X164358947Y-111394892D01*
X164455611Y-111599134D01*
X164870577Y-111975041D01*
X165258961Y-112135904D01*
X165481000Y-112013915D01*
X165481000Y-110871000D01*
X165735000Y-110871000D01*
X165735000Y-112013915D01*
X165957039Y-112135904D01*
X166345423Y-111975041D01*
X166760389Y-111599134D01*
X166999914Y-111093041D01*
X166878629Y-110871000D01*
X165735000Y-110871000D01*
X165481000Y-110871000D01*
X165461000Y-110871000D01*
X165461000Y-110617000D01*
X165481000Y-110617000D01*
X165481000Y-109474085D01*
X165735000Y-109474085D01*
X165735000Y-110617000D01*
X166878629Y-110617000D01*
X166999914Y-110394959D01*
X166760389Y-109888866D01*
X166345423Y-109512959D01*
X165957039Y-109352096D01*
X165735000Y-109474085D01*
X165481000Y-109474085D01*
X165258961Y-109352096D01*
X164870577Y-109512959D01*
X164455611Y-109888866D01*
X164358947Y-110093108D01*
X164102577Y-109709423D01*
X163627909Y-109392260D01*
X163209333Y-109309000D01*
X162926667Y-109309000D01*
X162508091Y-109392260D01*
X162033423Y-109709423D01*
X161798000Y-110061758D01*
X161562577Y-109709423D01*
X161087909Y-109392260D01*
X160669333Y-109309000D01*
X160386667Y-109309000D01*
X159968091Y-109392260D01*
X159493423Y-109709423D01*
X159258000Y-110061758D01*
X159022577Y-109709423D01*
X158547909Y-109392260D01*
X158129333Y-109309000D01*
X157846667Y-109309000D01*
X157428091Y-109392260D01*
X156953423Y-109709423D01*
X156718000Y-110061758D01*
X156482577Y-109709423D01*
X156007909Y-109392260D01*
X155589333Y-109309000D01*
X155306667Y-109309000D01*
X154888091Y-109392260D01*
X154413423Y-109709423D01*
X154178000Y-110061758D01*
X153942577Y-109709423D01*
X153467909Y-109392260D01*
X153049333Y-109309000D01*
X152766667Y-109309000D01*
X152348091Y-109392260D01*
X151873423Y-109709423D01*
X151638000Y-110061758D01*
X151402577Y-109709423D01*
X150927909Y-109392260D01*
X150509333Y-109309000D01*
X150226667Y-109309000D01*
X149808091Y-109392260D01*
X149333423Y-109709423D01*
X149098000Y-110061758D01*
X148862577Y-109709423D01*
X148387909Y-109392260D01*
X147969333Y-109309000D01*
X147686667Y-109309000D01*
X147268091Y-109392260D01*
X146793423Y-109709423D01*
X146558000Y-110061758D01*
X146322577Y-109709423D01*
X145847909Y-109392260D01*
X145429333Y-109309000D01*
X145146667Y-109309000D01*
X144728091Y-109392260D01*
X144253423Y-109709423D01*
X144018000Y-110061758D01*
X143782577Y-109709423D01*
X143307909Y-109392260D01*
X142889333Y-109309000D01*
X142606667Y-109309000D01*
X142382999Y-109353490D01*
X142382999Y-96943802D01*
X142424113Y-96902688D01*
X142606667Y-96939000D01*
X142889333Y-96939000D01*
X143307909Y-96855740D01*
X143782577Y-96538577D01*
X144018000Y-96186242D01*
X144253423Y-96538577D01*
X144530713Y-96723856D01*
X144572097Y-96931907D01*
X144740072Y-97183299D01*
X144803528Y-97225699D01*
X152202300Y-104624472D01*
X152244701Y-104687929D01*
X152496093Y-104855904D01*
X152717778Y-104900000D01*
X152717782Y-104900000D01*
X152792630Y-104914888D01*
X152867478Y-104900000D01*
X169865199Y-104900000D01*
X179305000Y-114339802D01*
X179305000Y-114505874D01*
X179462569Y-114886280D01*
X179753720Y-115177431D01*
X180134126Y-115335000D01*
X180545874Y-115335000D01*
X180926280Y-115177431D01*
X181217431Y-114886280D01*
X181375000Y-114505874D01*
X181375000Y-114094126D01*
X181217431Y-113713720D01*
X180926280Y-113422569D01*
X180545874Y-113265000D01*
X180379802Y-113265000D01*
X170770331Y-103655530D01*
X170727929Y-103592071D01*
X170476537Y-103424096D01*
X170254852Y-103380000D01*
X170254847Y-103380000D01*
X170180000Y-103365112D01*
X170105153Y-103380000D01*
X153107432Y-103380000D01*
X147565558Y-97838126D01*
X154413000Y-97838126D01*
X154413000Y-98249874D01*
X154570569Y-98630280D01*
X154688001Y-98747712D01*
X154688000Y-100896289D01*
X154570569Y-101013720D01*
X154413000Y-101394126D01*
X154413000Y-101805874D01*
X154570569Y-102186280D01*
X154861720Y-102477431D01*
X155242126Y-102635000D01*
X155653874Y-102635000D01*
X156034280Y-102477431D01*
X156325431Y-102186280D01*
X156483000Y-101805874D01*
X156483000Y-101394126D01*
X156325431Y-101013720D01*
X156208000Y-100896289D01*
X156208000Y-100283250D01*
X161733000Y-100283250D01*
X161733000Y-100611309D01*
X161829673Y-100844698D01*
X162008301Y-101023327D01*
X162241690Y-101120000D01*
X162782250Y-101120000D01*
X162941000Y-100961250D01*
X162941000Y-100124500D01*
X163195000Y-100124500D01*
X163195000Y-100961250D01*
X163353750Y-101120000D01*
X163894310Y-101120000D01*
X164127699Y-101023327D01*
X164306327Y-100844698D01*
X164403000Y-100611309D01*
X164403000Y-100283250D01*
X164244250Y-100124500D01*
X163195000Y-100124500D01*
X162941000Y-100124500D01*
X161891750Y-100124500D01*
X161733000Y-100283250D01*
X156208000Y-100283250D01*
X156208000Y-98747711D01*
X156325431Y-98630280D01*
X156483000Y-98249874D01*
X156483000Y-97838126D01*
X156325431Y-97457720D01*
X156034280Y-97166569D01*
X155653874Y-97009000D01*
X155242126Y-97009000D01*
X154861720Y-97166569D01*
X154570569Y-97457720D01*
X154413000Y-97838126D01*
X147565558Y-97838126D01*
X146288666Y-96561235D01*
X146322577Y-96538577D01*
X146558000Y-96186242D01*
X146793423Y-96538577D01*
X147268091Y-96855740D01*
X147686667Y-96939000D01*
X147969333Y-96939000D01*
X148387909Y-96855740D01*
X148862577Y-96538577D01*
X149098000Y-96186242D01*
X149333423Y-96538577D01*
X149808091Y-96855740D01*
X150226667Y-96939000D01*
X150509333Y-96939000D01*
X150927909Y-96855740D01*
X151402577Y-96538577D01*
X151638000Y-96186242D01*
X151873423Y-96538577D01*
X152348091Y-96855740D01*
X152766667Y-96939000D01*
X153049333Y-96939000D01*
X153467909Y-96855740D01*
X153942577Y-96538577D01*
X154178000Y-96186242D01*
X154413423Y-96538577D01*
X154888091Y-96855740D01*
X155306667Y-96939000D01*
X155589333Y-96939000D01*
X156007909Y-96855740D01*
X156482577Y-96538577D01*
X156718000Y-96186242D01*
X156953423Y-96538577D01*
X157428091Y-96855740D01*
X157846667Y-96939000D01*
X158129333Y-96939000D01*
X158547909Y-96855740D01*
X159022577Y-96538577D01*
X159258000Y-96186242D01*
X159493423Y-96538577D01*
X159968091Y-96855740D01*
X160386667Y-96939000D01*
X160669333Y-96939000D01*
X161087909Y-96855740D01*
X161562577Y-96538577D01*
X161798000Y-96186242D01*
X162033423Y-96538577D01*
X162183001Y-96638522D01*
X162183000Y-97114001D01*
X161981584Y-97248584D01*
X161788398Y-97537706D01*
X161720560Y-97878750D01*
X161720560Y-98366250D01*
X161788398Y-98707294D01*
X161981584Y-98996416D01*
X161982767Y-98997207D01*
X161829673Y-99150302D01*
X161733000Y-99383691D01*
X161733000Y-99711750D01*
X161891750Y-99870500D01*
X162941000Y-99870500D01*
X162941000Y-99850500D01*
X163195000Y-99850500D01*
X163195000Y-99870500D01*
X164244250Y-99870500D01*
X164403000Y-99711750D01*
X164403000Y-99383691D01*
X164306327Y-99150302D01*
X164153233Y-98997207D01*
X164154416Y-98996416D01*
X164347602Y-98707294D01*
X164415440Y-98366250D01*
X164415440Y-97878750D01*
X164347602Y-97537706D01*
X164154416Y-97248584D01*
X163953000Y-97114002D01*
X163953000Y-96638521D01*
X164102577Y-96538577D01*
X164183215Y-96417894D01*
X164209843Y-96551765D01*
X164350191Y-96761809D01*
X164560235Y-96902157D01*
X164808000Y-96951440D01*
X166408000Y-96951440D01*
X166655765Y-96902157D01*
X166865809Y-96761809D01*
X167006157Y-96551765D01*
X167055440Y-96304000D01*
X167055440Y-94704000D01*
X167006157Y-94456235D01*
X166875743Y-94261058D01*
X178792473Y-82344329D01*
X178855929Y-82301929D01*
X179023904Y-82050537D01*
X179068000Y-81828852D01*
X179068000Y-81828848D01*
X179082888Y-81754001D01*
X179068000Y-81679154D01*
X179068000Y-77264126D01*
X189465000Y-77264126D01*
X189465000Y-77675874D01*
X189622569Y-78056280D01*
X189913720Y-78347431D01*
X190294126Y-78505000D01*
X190705874Y-78505000D01*
X191086280Y-78347431D01*
X191203711Y-78230000D01*
X195505153Y-78230000D01*
X195580000Y-78244888D01*
X195654847Y-78230000D01*
X195654852Y-78230000D01*
X195876537Y-78185904D01*
X196127929Y-78017929D01*
X196170331Y-77954470D01*
X202746973Y-71377829D01*
X202810429Y-71335429D01*
X202978404Y-71084037D01*
X203022500Y-70862352D01*
X203022500Y-70862348D01*
X203037388Y-70787501D01*
X203022500Y-70712654D01*
X203022500Y-65219711D01*
X203139931Y-65102280D01*
X203297500Y-64721874D01*
X203297500Y-64310126D01*
X203139931Y-63929720D01*
X202848780Y-63638569D01*
X202468374Y-63481000D01*
X202056626Y-63481000D01*
X201676220Y-63638569D01*
X201385069Y-63929720D01*
X201227500Y-64310126D01*
X201227500Y-64721874D01*
X201385069Y-65102280D01*
X201502500Y-65219711D01*
X201502501Y-70472697D01*
X195265199Y-76710000D01*
X191203711Y-76710000D01*
X191086280Y-76592569D01*
X190705874Y-76435000D01*
X190294126Y-76435000D01*
X189913720Y-76592569D01*
X189622569Y-76883720D01*
X189465000Y-77264126D01*
X179068000Y-77264126D01*
X179068000Y-75379711D01*
X179185431Y-75262280D01*
X179343000Y-74881874D01*
X179343000Y-74470126D01*
X179185431Y-74089720D01*
X178894280Y-73798569D01*
X178513874Y-73641000D01*
X178102126Y-73641000D01*
X177721720Y-73798569D01*
X177430569Y-74089720D01*
X177273000Y-74470126D01*
X177273000Y-74881874D01*
X177430569Y-75262280D01*
X177548001Y-75379712D01*
X177548000Y-81439198D01*
X165123528Y-93863671D01*
X165060072Y-93906071D01*
X165017672Y-93969527D01*
X165017671Y-93969528D01*
X164959518Y-94056560D01*
X164808000Y-94056560D01*
X164560235Y-94105843D01*
X164350191Y-94246191D01*
X164209843Y-94456235D01*
X164183215Y-94590106D01*
X164102577Y-94469423D01*
X163627909Y-94152260D01*
X163209333Y-94069000D01*
X162926667Y-94069000D01*
X162508091Y-94152260D01*
X162033423Y-94469423D01*
X161798000Y-94821758D01*
X161562577Y-94469423D01*
X161087909Y-94152260D01*
X160669333Y-94069000D01*
X160386667Y-94069000D01*
X159968091Y-94152260D01*
X159493423Y-94469423D01*
X159258000Y-94821758D01*
X159022577Y-94469423D01*
X158547909Y-94152260D01*
X158129333Y-94069000D01*
X157846667Y-94069000D01*
X157428091Y-94152260D01*
X156953423Y-94469423D01*
X156718000Y-94821758D01*
X156482577Y-94469423D01*
X156007909Y-94152260D01*
X155589333Y-94069000D01*
X155306667Y-94069000D01*
X154888091Y-94152260D01*
X154413423Y-94469423D01*
X154178000Y-94821758D01*
X153942577Y-94469423D01*
X153467909Y-94152260D01*
X153049333Y-94069000D01*
X152766667Y-94069000D01*
X152348091Y-94152260D01*
X151873423Y-94469423D01*
X151638000Y-94821758D01*
X151402577Y-94469423D01*
X150927909Y-94152260D01*
X150509333Y-94069000D01*
X150226667Y-94069000D01*
X149808091Y-94152260D01*
X149333423Y-94469423D01*
X149098000Y-94821758D01*
X148862577Y-94469423D01*
X148387909Y-94152260D01*
X147969333Y-94069000D01*
X147686667Y-94069000D01*
X147268091Y-94152260D01*
X146793423Y-94469423D01*
X146558000Y-94821758D01*
X146322577Y-94469423D01*
X145847909Y-94152260D01*
X145429333Y-94069000D01*
X145146667Y-94069000D01*
X144728091Y-94152260D01*
X144253423Y-94469423D01*
X144018000Y-94821758D01*
X143782577Y-94469423D01*
X143307909Y-94152260D01*
X142889333Y-94069000D01*
X142606667Y-94069000D01*
X142188091Y-94152260D01*
X141713423Y-94469423D01*
X141478000Y-94821758D01*
X141242577Y-94469423D01*
X140767909Y-94152260D01*
X140349333Y-94069000D01*
X140066667Y-94069000D01*
X139648091Y-94152260D01*
X139173423Y-94469423D01*
X138938000Y-94821758D01*
X138702577Y-94469423D01*
X138428000Y-94285957D01*
X138428000Y-88079713D01*
X138545431Y-87962282D01*
X138703000Y-87581876D01*
X138703000Y-87170128D01*
X138545431Y-86789722D01*
X138254280Y-86498571D01*
X138004235Y-86394999D01*
X142950198Y-86394999D01*
X144253000Y-87697802D01*
X144253000Y-87863874D01*
X144410569Y-88244280D01*
X144701720Y-88535431D01*
X145082126Y-88693000D01*
X145493874Y-88693000D01*
X145874280Y-88535431D01*
X146165431Y-88244280D01*
X146323000Y-87863874D01*
X146323000Y-87452126D01*
X147809000Y-87452126D01*
X147809000Y-87863874D01*
X147966569Y-88244280D01*
X148257720Y-88535431D01*
X148638126Y-88693000D01*
X149049874Y-88693000D01*
X149168171Y-88644000D01*
X168581153Y-88644000D01*
X168656000Y-88658888D01*
X168730847Y-88644000D01*
X168730852Y-88644000D01*
X168952537Y-88599904D01*
X169203929Y-88431929D01*
X169246331Y-88368470D01*
X176315803Y-81299000D01*
X176481874Y-81299000D01*
X176862280Y-81141431D01*
X177153431Y-80850280D01*
X177311000Y-80469874D01*
X177311000Y-80058126D01*
X177153431Y-79677720D01*
X176862280Y-79386569D01*
X176481874Y-79229000D01*
X176070126Y-79229000D01*
X175689720Y-79386569D01*
X175398569Y-79677720D01*
X175241000Y-80058126D01*
X175241000Y-80224197D01*
X168341199Y-87124000D01*
X149743086Y-87124000D01*
X149721431Y-87071720D01*
X149430280Y-86780569D01*
X149049874Y-86623000D01*
X148638126Y-86623000D01*
X148257720Y-86780569D01*
X147966569Y-87071720D01*
X147809000Y-87452126D01*
X146323000Y-87452126D01*
X146165431Y-87071720D01*
X145874280Y-86780569D01*
X145493874Y-86623000D01*
X145327802Y-86623000D01*
X143855330Y-85150529D01*
X143812928Y-85087070D01*
X143561536Y-84919095D01*
X143339851Y-84874999D01*
X143339846Y-84874999D01*
X143264999Y-84860111D01*
X143190152Y-84874999D01*
X133895847Y-84874999D01*
X133821000Y-84860111D01*
X133746153Y-84874999D01*
X133746149Y-84874999D01*
X133524464Y-84919095D01*
X133273072Y-85087070D01*
X133230672Y-85150526D01*
X128717199Y-89664000D01*
X119684789Y-89664000D01*
X119627698Y-89526170D01*
X119181830Y-89080302D01*
X118599276Y-88839000D01*
X117968724Y-88839000D01*
X117386170Y-89080302D01*
X117034000Y-89432472D01*
X116681830Y-89080302D01*
X116099276Y-88839000D01*
X115468724Y-88839000D01*
X114886170Y-89080302D01*
X114795339Y-89171133D01*
X114691809Y-89016191D01*
X114481765Y-88875843D01*
X114234000Y-88826560D01*
X112334000Y-88826560D01*
X112086235Y-88875843D01*
X111876191Y-89016191D01*
X111735843Y-89226235D01*
X111686560Y-89474000D01*
X109422000Y-89474000D01*
X109422000Y-83089750D01*
X111699000Y-83089750D01*
X111699000Y-83880310D01*
X111795673Y-84113699D01*
X111974302Y-84292327D01*
X112207691Y-84389000D01*
X112998250Y-84389000D01*
X113157000Y-84230250D01*
X113157000Y-82931000D01*
X111857750Y-82931000D01*
X111699000Y-83089750D01*
X109422000Y-83089750D01*
X109422000Y-81727690D01*
X111699000Y-81727690D01*
X111699000Y-82518250D01*
X111857750Y-82677000D01*
X113157000Y-82677000D01*
X113157000Y-81377750D01*
X113411000Y-81377750D01*
X113411000Y-82677000D01*
X113431000Y-82677000D01*
X113431000Y-82931000D01*
X113411000Y-82931000D01*
X113411000Y-84230250D01*
X113569750Y-84389000D01*
X114360309Y-84389000D01*
X114593698Y-84292327D01*
X114772327Y-84113699D01*
X114795713Y-84057241D01*
X114886170Y-84147698D01*
X115468724Y-84389000D01*
X116099276Y-84389000D01*
X116681830Y-84147698D01*
X117034000Y-83795528D01*
X117386170Y-84147698D01*
X117968724Y-84389000D01*
X118599276Y-84389000D01*
X119181830Y-84147698D01*
X119627698Y-83701830D01*
X119869000Y-83119276D01*
X119869000Y-82488724D01*
X119627698Y-81906170D01*
X119465045Y-81743517D01*
X132304088Y-81743517D01*
X132372077Y-81984460D01*
X132891171Y-82169201D01*
X133441448Y-82141230D01*
X133819923Y-81984460D01*
X133887912Y-81743517D01*
X133096000Y-80951605D01*
X132304088Y-81743517D01*
X119465045Y-81743517D01*
X119181830Y-81460302D01*
X118599276Y-81219000D01*
X117968724Y-81219000D01*
X117386170Y-81460302D01*
X117034000Y-81812472D01*
X116681830Y-81460302D01*
X116099276Y-81219000D01*
X115468724Y-81219000D01*
X114886170Y-81460302D01*
X114795713Y-81550759D01*
X114772327Y-81494301D01*
X114593698Y-81315673D01*
X114360309Y-81219000D01*
X113569750Y-81219000D01*
X113411000Y-81377750D01*
X113157000Y-81377750D01*
X112998250Y-81219000D01*
X112207691Y-81219000D01*
X111974302Y-81315673D01*
X111795673Y-81494301D01*
X111699000Y-81727690D01*
X109422000Y-81727690D01*
X109422000Y-80567171D01*
X131698799Y-80567171D01*
X131726770Y-81117448D01*
X131883540Y-81495923D01*
X132124483Y-81563912D01*
X132916395Y-80772000D01*
X133275605Y-80772000D01*
X134067517Y-81563912D01*
X134308460Y-81495923D01*
X134493201Y-80976829D01*
X134465230Y-80426552D01*
X134385318Y-80233626D01*
X138157000Y-80233626D01*
X138157000Y-80645374D01*
X138314569Y-81025780D01*
X138605720Y-81316931D01*
X138986126Y-81474500D01*
X139397874Y-81474500D01*
X139778280Y-81316931D01*
X140069431Y-81025780D01*
X140227000Y-80645374D01*
X140227000Y-80479302D01*
X140472676Y-80233626D01*
X140697000Y-80233626D01*
X140697000Y-80645374D01*
X140854569Y-81025780D01*
X140982270Y-81153481D01*
X141016096Y-81323537D01*
X141184072Y-81574929D01*
X141247528Y-81617329D01*
X142119672Y-82489474D01*
X142162072Y-82552930D01*
X142413464Y-82720905D01*
X142635149Y-82765001D01*
X142635153Y-82765001D01*
X142710000Y-82779889D01*
X142784847Y-82765001D01*
X171421472Y-82765001D01*
X171496319Y-82779889D01*
X171571166Y-82765001D01*
X171571171Y-82765001D01*
X171792856Y-82720905D01*
X172044248Y-82552930D01*
X172086650Y-82489471D01*
X172256461Y-82319660D01*
X172422534Y-82319660D01*
X172802940Y-82162091D01*
X173094091Y-81870940D01*
X173251660Y-81490534D01*
X173251660Y-81078786D01*
X173123220Y-80768705D01*
X173247000Y-80469874D01*
X173247000Y-80058126D01*
X173089431Y-79677720D01*
X172798280Y-79386569D01*
X172417874Y-79229000D01*
X172006126Y-79229000D01*
X171625720Y-79386569D01*
X171334569Y-79677720D01*
X171333832Y-79679500D01*
X144975711Y-79679500D01*
X144858280Y-79562069D01*
X144477874Y-79404500D01*
X144066126Y-79404500D01*
X143685720Y-79562069D01*
X143394569Y-79853220D01*
X143237000Y-80233626D01*
X143237000Y-80645374D01*
X143394569Y-81025780D01*
X143613790Y-81245001D01*
X143024803Y-81245001D01*
X142666882Y-80887081D01*
X142767000Y-80645374D01*
X142767000Y-80233626D01*
X142609431Y-79853220D01*
X142318280Y-79562069D01*
X141937874Y-79404500D01*
X141526126Y-79404500D01*
X141145720Y-79562069D01*
X140854569Y-79853220D01*
X140697000Y-80233626D01*
X140472676Y-80233626D01*
X141423313Y-79282990D01*
X164904289Y-79282990D01*
X165021720Y-79400421D01*
X165402126Y-79557990D01*
X165813874Y-79557990D01*
X166194280Y-79400421D01*
X166485431Y-79109270D01*
X166643000Y-78728864D01*
X166643000Y-78317116D01*
X166485431Y-77936710D01*
X166194280Y-77645559D01*
X165813874Y-77487990D01*
X165402126Y-77487990D01*
X165021720Y-77645559D01*
X164904289Y-77762990D01*
X141183356Y-77762990D01*
X141108509Y-77748102D01*
X141033662Y-77762990D01*
X141033658Y-77762990D01*
X140811973Y-77807086D01*
X140811971Y-77807087D01*
X140811972Y-77807087D01*
X140624036Y-77932661D01*
X140624034Y-77932663D01*
X140560581Y-77975061D01*
X140518183Y-78038514D01*
X139152198Y-79404500D01*
X138986126Y-79404500D01*
X138605720Y-79562069D01*
X138314569Y-79853220D01*
X138157000Y-80233626D01*
X134385318Y-80233626D01*
X134308460Y-80048077D01*
X134067517Y-79980088D01*
X133275605Y-80772000D01*
X132916395Y-80772000D01*
X132124483Y-79980088D01*
X131883540Y-80048077D01*
X131698799Y-80567171D01*
X109422000Y-80567171D01*
X109422000Y-79800483D01*
X132304088Y-79800483D01*
X133096000Y-80592395D01*
X133887912Y-79800483D01*
X133819923Y-79559540D01*
X133300829Y-79374799D01*
X132750552Y-79402770D01*
X132372077Y-79559540D01*
X132304088Y-79800483D01*
X109422000Y-79800483D01*
X109422000Y-75469750D01*
X111699000Y-75469750D01*
X111699000Y-76260310D01*
X111795673Y-76493699D01*
X111974302Y-76672327D01*
X112207691Y-76769000D01*
X112998250Y-76769000D01*
X113157000Y-76610250D01*
X113157000Y-75311000D01*
X111857750Y-75311000D01*
X111699000Y-75469750D01*
X109422000Y-75469750D01*
X109422000Y-74107690D01*
X111699000Y-74107690D01*
X111699000Y-74898250D01*
X111857750Y-75057000D01*
X113157000Y-75057000D01*
X113157000Y-73757750D01*
X113411000Y-73757750D01*
X113411000Y-75057000D01*
X113431000Y-75057000D01*
X113431000Y-75311000D01*
X113411000Y-75311000D01*
X113411000Y-76610250D01*
X113569750Y-76769000D01*
X114360309Y-76769000D01*
X114593698Y-76672327D01*
X114772327Y-76493699D01*
X114795713Y-76437241D01*
X114886170Y-76527698D01*
X115468724Y-76769000D01*
X116099276Y-76769000D01*
X116681830Y-76527698D01*
X117034000Y-76175528D01*
X117386170Y-76527698D01*
X117968724Y-76769000D01*
X118599276Y-76769000D01*
X119181830Y-76527698D01*
X119627698Y-76081830D01*
X119820441Y-75616506D01*
X131711000Y-75616506D01*
X131711000Y-76167494D01*
X131921853Y-76676540D01*
X132311460Y-77066147D01*
X132820506Y-77277000D01*
X133371494Y-77277000D01*
X133880540Y-77066147D01*
X134270147Y-76676540D01*
X134481000Y-76167494D01*
X134481000Y-75616506D01*
X134270147Y-75107460D01*
X134140813Y-74978126D01*
X167461000Y-74978126D01*
X167461000Y-75389874D01*
X167618569Y-75770280D01*
X167909720Y-76061431D01*
X168290126Y-76219000D01*
X168701874Y-76219000D01*
X169082280Y-76061431D01*
X169373431Y-75770280D01*
X169531000Y-75389874D01*
X169531000Y-74978126D01*
X169373431Y-74597720D01*
X169082280Y-74306569D01*
X168701874Y-74149000D01*
X168290126Y-74149000D01*
X167909720Y-74306569D01*
X167618569Y-74597720D01*
X167461000Y-74978126D01*
X134140813Y-74978126D01*
X133880540Y-74717853D01*
X133371494Y-74507000D01*
X132820506Y-74507000D01*
X132311460Y-74717853D01*
X131921853Y-75107460D01*
X131711000Y-75616506D01*
X119820441Y-75616506D01*
X119869000Y-75499276D01*
X119869000Y-74868724D01*
X119627698Y-74286170D01*
X119181830Y-73840302D01*
X118599276Y-73599000D01*
X117968724Y-73599000D01*
X117386170Y-73840302D01*
X117034000Y-74192472D01*
X116681830Y-73840302D01*
X116099276Y-73599000D01*
X115468724Y-73599000D01*
X114886170Y-73840302D01*
X114795713Y-73930759D01*
X114772327Y-73874301D01*
X114593698Y-73695673D01*
X114360309Y-73599000D01*
X113569750Y-73599000D01*
X113411000Y-73757750D01*
X113157000Y-73757750D01*
X112998250Y-73599000D01*
X112207691Y-73599000D01*
X111974302Y-73695673D01*
X111795673Y-73874301D01*
X111699000Y-74107690D01*
X109422000Y-74107690D01*
X109422000Y-67849750D01*
X111699000Y-67849750D01*
X111699000Y-68640310D01*
X111795673Y-68873699D01*
X111974302Y-69052327D01*
X112207691Y-69149000D01*
X112998250Y-69149000D01*
X113157000Y-68990250D01*
X113157000Y-67691000D01*
X111857750Y-67691000D01*
X111699000Y-67849750D01*
X109422000Y-67849750D01*
X109422000Y-66487690D01*
X111699000Y-66487690D01*
X111699000Y-67278250D01*
X111857750Y-67437000D01*
X113157000Y-67437000D01*
X113157000Y-66137750D01*
X113411000Y-66137750D01*
X113411000Y-67437000D01*
X113431000Y-67437000D01*
X113431000Y-67691000D01*
X113411000Y-67691000D01*
X113411000Y-68990250D01*
X113569750Y-69149000D01*
X114360309Y-69149000D01*
X114593698Y-69052327D01*
X114772327Y-68873699D01*
X114795713Y-68817241D01*
X114886170Y-68907698D01*
X115468724Y-69149000D01*
X116099276Y-69149000D01*
X116681830Y-68907698D01*
X117034000Y-68555528D01*
X117386170Y-68907698D01*
X117968724Y-69149000D01*
X118599276Y-69149000D01*
X119181830Y-68907698D01*
X119627698Y-68461830D01*
X119869000Y-67879276D01*
X119869000Y-67248724D01*
X119627698Y-66666170D01*
X119181830Y-66220302D01*
X118599276Y-65979000D01*
X117968724Y-65979000D01*
X117386170Y-66220302D01*
X117034000Y-66572472D01*
X116681830Y-66220302D01*
X116099276Y-65979000D01*
X115468724Y-65979000D01*
X114886170Y-66220302D01*
X114795713Y-66310759D01*
X114772327Y-66254301D01*
X114593698Y-66075673D01*
X114360309Y-65979000D01*
X113569750Y-65979000D01*
X113411000Y-66137750D01*
X113157000Y-66137750D01*
X112998250Y-65979000D01*
X112207691Y-65979000D01*
X111974302Y-66075673D01*
X111795673Y-66254301D01*
X111699000Y-66487690D01*
X109422000Y-66487690D01*
X109422000Y-64310126D01*
X132569000Y-64310126D01*
X132569000Y-64721874D01*
X132726569Y-65102280D01*
X133017720Y-65393431D01*
X133398126Y-65551000D01*
X133564199Y-65551000D01*
X136178511Y-68165313D01*
X136220911Y-68228769D01*
X136284367Y-68271169D01*
X136472302Y-68396744D01*
X136520445Y-68406320D01*
X136693988Y-68440840D01*
X136693992Y-68440840D01*
X136768840Y-68455728D01*
X136843688Y-68440840D01*
X143568289Y-68440840D01*
X143685720Y-68558271D01*
X144066126Y-68715840D01*
X144477874Y-68715840D01*
X144858280Y-68558271D01*
X145149431Y-68267120D01*
X145307000Y-67886714D01*
X145307000Y-67474966D01*
X145149431Y-67094560D01*
X144858280Y-66803409D01*
X144477874Y-66645840D01*
X144066126Y-66645840D01*
X143685720Y-66803409D01*
X143568289Y-66920840D01*
X137083642Y-66920840D01*
X136485983Y-66323181D01*
X186197000Y-66323181D01*
X186286062Y-66770926D01*
X186625327Y-67278673D01*
X187133073Y-67617938D01*
X187732000Y-67737072D01*
X188330926Y-67617938D01*
X188838673Y-67278673D01*
X188909949Y-67172000D01*
X189684560Y-67172000D01*
X189684560Y-68972000D01*
X189733843Y-69219765D01*
X189874191Y-69429809D01*
X190084235Y-69570157D01*
X190332000Y-69619440D01*
X194732000Y-69619440D01*
X194979765Y-69570157D01*
X195189809Y-69429809D01*
X195330157Y-69219765D01*
X195379440Y-68972000D01*
X195379440Y-67172000D01*
X195330157Y-66924235D01*
X195189809Y-66714191D01*
X194979765Y-66573843D01*
X194732000Y-66524560D01*
X190332000Y-66524560D01*
X190084235Y-66573843D01*
X189874191Y-66714191D01*
X189733843Y-66924235D01*
X189684560Y-67172000D01*
X188909949Y-67172000D01*
X189177938Y-66770927D01*
X189267000Y-66323182D01*
X189267000Y-63820818D01*
X189177938Y-63373073D01*
X188838673Y-62865327D01*
X188496569Y-62636740D01*
X189940964Y-62636740D01*
X189965244Y-62742086D01*
X190256788Y-63267606D01*
X190727248Y-63641554D01*
X191305000Y-63807000D01*
X192405000Y-63807000D01*
X192405000Y-62399000D01*
X192659000Y-62399000D01*
X192659000Y-63807000D01*
X193759000Y-63807000D01*
X194336752Y-63641554D01*
X194807212Y-63267606D01*
X195098756Y-62742086D01*
X195123036Y-62636740D01*
X195002378Y-62399000D01*
X192659000Y-62399000D01*
X192405000Y-62399000D01*
X190061622Y-62399000D01*
X189940964Y-62636740D01*
X188496569Y-62636740D01*
X188330927Y-62526062D01*
X187732000Y-62406928D01*
X187133074Y-62526062D01*
X186625328Y-62865327D01*
X186286063Y-63373073D01*
X186197001Y-63820818D01*
X186197000Y-66323181D01*
X136485983Y-66323181D01*
X134639000Y-64476199D01*
X134639000Y-64310126D01*
X134481431Y-63929720D01*
X134190280Y-63638569D01*
X133809874Y-63481000D01*
X133398126Y-63481000D01*
X133017720Y-63638569D01*
X132726569Y-63929720D01*
X132569000Y-64310126D01*
X109422000Y-64310126D01*
X109422000Y-62678263D01*
X154537410Y-62678263D01*
X154537410Y-63590217D01*
X154886399Y-64432752D01*
X155531248Y-65077601D01*
X156373783Y-65426590D01*
X157285737Y-65426590D01*
X158128272Y-65077601D01*
X158773121Y-64432752D01*
X159122110Y-63590217D01*
X159122110Y-62678263D01*
X161933890Y-62678263D01*
X161933890Y-63590217D01*
X162282879Y-64432752D01*
X162927728Y-65077601D01*
X163770263Y-65426590D01*
X164682217Y-65426590D01*
X165524752Y-65077601D01*
X166169601Y-64432752D01*
X166518590Y-63590217D01*
X166518590Y-62678263D01*
X169269410Y-62678263D01*
X169269410Y-63590217D01*
X169618399Y-64432752D01*
X170263248Y-65077601D01*
X171105783Y-65426590D01*
X172017737Y-65426590D01*
X172860272Y-65077601D01*
X173505121Y-64432752D01*
X173854110Y-63590217D01*
X173854110Y-62678263D01*
X176665890Y-62678263D01*
X176665890Y-63590217D01*
X177014879Y-64432752D01*
X177659728Y-65077601D01*
X178502263Y-65426590D01*
X179414217Y-65426590D01*
X180256752Y-65077601D01*
X180901601Y-64432752D01*
X181250590Y-63590217D01*
X181250590Y-62678263D01*
X180931231Y-61907260D01*
X189940964Y-61907260D01*
X190061622Y-62145000D01*
X192405000Y-62145000D01*
X192405000Y-60737000D01*
X192659000Y-60737000D01*
X192659000Y-62145000D01*
X195002378Y-62145000D01*
X195123036Y-61907260D01*
X195098756Y-61801914D01*
X194807212Y-61276394D01*
X194336752Y-60902446D01*
X193759000Y-60737000D01*
X192659000Y-60737000D01*
X192405000Y-60737000D01*
X191305000Y-60737000D01*
X190727248Y-60902446D01*
X190256788Y-61276394D01*
X189965244Y-61801914D01*
X189940964Y-61907260D01*
X180931231Y-61907260D01*
X180901601Y-61835728D01*
X180256752Y-61190879D01*
X179414217Y-60841890D01*
X178502263Y-60841890D01*
X177659728Y-61190879D01*
X177014879Y-61835728D01*
X176665890Y-62678263D01*
X173854110Y-62678263D01*
X173505121Y-61835728D01*
X172860272Y-61190879D01*
X172553047Y-61063622D01*
X173811983Y-61063622D01*
X173990967Y-61398738D01*
X174838674Y-61734972D01*
X175750524Y-61721207D01*
X176529033Y-61398738D01*
X176708017Y-61063622D01*
X175260000Y-59615605D01*
X173811983Y-61063622D01*
X172553047Y-61063622D01*
X172017737Y-60841890D01*
X171105783Y-60841890D01*
X170263248Y-61190879D01*
X169618399Y-61835728D01*
X169269410Y-62678263D01*
X166518590Y-62678263D01*
X166169601Y-61835728D01*
X165524752Y-61190879D01*
X164682217Y-60841890D01*
X163770263Y-60841890D01*
X162927728Y-61190879D01*
X162282879Y-61835728D01*
X161933890Y-62678263D01*
X159122110Y-62678263D01*
X158773121Y-61835728D01*
X158128272Y-61190879D01*
X157821047Y-61063622D01*
X159079983Y-61063622D01*
X159258967Y-61398738D01*
X160106674Y-61734972D01*
X161018524Y-61721207D01*
X161797033Y-61398738D01*
X161976017Y-61063622D01*
X160528000Y-59615605D01*
X159079983Y-61063622D01*
X157821047Y-61063622D01*
X157285737Y-60841890D01*
X156373783Y-60841890D01*
X155531248Y-61190879D01*
X154886399Y-61835728D01*
X154537410Y-62678263D01*
X109422000Y-62678263D01*
X109422000Y-59352756D01*
X109753444Y-60152933D01*
X110832247Y-61231736D01*
X112241771Y-61815580D01*
X113767429Y-61815580D01*
X115176953Y-61231736D01*
X116255756Y-60152933D01*
X116727238Y-59014674D01*
X158229028Y-59014674D01*
X158242793Y-59926524D01*
X158565262Y-60705033D01*
X158900378Y-60884017D01*
X160348395Y-59436000D01*
X160707605Y-59436000D01*
X162155622Y-60884017D01*
X162490738Y-60705033D01*
X162826972Y-59857326D01*
X162814252Y-59014674D01*
X172961028Y-59014674D01*
X172974793Y-59926524D01*
X173297262Y-60705033D01*
X173632378Y-60884017D01*
X175080395Y-59436000D01*
X175439605Y-59436000D01*
X176887622Y-60884017D01*
X177222738Y-60705033D01*
X177558972Y-59857326D01*
X177545207Y-58945476D01*
X177222738Y-58166967D01*
X176887622Y-57987983D01*
X175439605Y-59436000D01*
X175080395Y-59436000D01*
X173632378Y-57987983D01*
X173297262Y-58166967D01*
X172961028Y-59014674D01*
X162814252Y-59014674D01*
X162813207Y-58945476D01*
X162490738Y-58166967D01*
X162155622Y-57987983D01*
X160707605Y-59436000D01*
X160348395Y-59436000D01*
X158900378Y-57987983D01*
X158565262Y-58166967D01*
X158229028Y-59014674D01*
X116727238Y-59014674D01*
X116839600Y-58743409D01*
X116839600Y-57217751D01*
X116336114Y-56002228D01*
X154594560Y-56002228D01*
X154594560Y-56672172D01*
X154850937Y-57291121D01*
X155324659Y-57764843D01*
X155943608Y-58021220D01*
X156613552Y-58021220D01*
X157127398Y-57808378D01*
X159079983Y-57808378D01*
X160528000Y-59256395D01*
X161976017Y-57808378D01*
X161797033Y-57473262D01*
X160949326Y-57137028D01*
X160037476Y-57150793D01*
X159258967Y-57473262D01*
X159079983Y-57808378D01*
X157127398Y-57808378D01*
X157232501Y-57764843D01*
X157706223Y-57291121D01*
X157962600Y-56672172D01*
X157962600Y-56002228D01*
X163093400Y-56002228D01*
X163093400Y-56672172D01*
X163349777Y-57291121D01*
X163823499Y-57764843D01*
X164442448Y-58021220D01*
X165112392Y-58021220D01*
X165731341Y-57764843D01*
X166205063Y-57291121D01*
X166461440Y-56672172D01*
X166461440Y-56002228D01*
X169326560Y-56002228D01*
X169326560Y-56672172D01*
X169582937Y-57291121D01*
X170056659Y-57764843D01*
X170675608Y-58021220D01*
X171345552Y-58021220D01*
X171859398Y-57808378D01*
X173811983Y-57808378D01*
X175260000Y-59256395D01*
X176708017Y-57808378D01*
X176529033Y-57473262D01*
X175681326Y-57137028D01*
X174769476Y-57150793D01*
X173990967Y-57473262D01*
X173811983Y-57808378D01*
X171859398Y-57808378D01*
X171964501Y-57764843D01*
X172438223Y-57291121D01*
X172694600Y-56672172D01*
X172694600Y-56002228D01*
X177825400Y-56002228D01*
X177825400Y-56672172D01*
X178081777Y-57291121D01*
X178555499Y-57764843D01*
X179174448Y-58021220D01*
X179844392Y-58021220D01*
X180463341Y-57764843D01*
X180937063Y-57291121D01*
X181193440Y-56672172D01*
X181193440Y-56002228D01*
X180937063Y-55383279D01*
X180463341Y-54909557D01*
X179844392Y-54653180D01*
X179174448Y-54653180D01*
X178555499Y-54909557D01*
X178081777Y-55383279D01*
X177825400Y-56002228D01*
X172694600Y-56002228D01*
X172438223Y-55383279D01*
X171964501Y-54909557D01*
X171345552Y-54653180D01*
X170675608Y-54653180D01*
X170056659Y-54909557D01*
X169582937Y-55383279D01*
X169326560Y-56002228D01*
X166461440Y-56002228D01*
X166205063Y-55383279D01*
X165731341Y-54909557D01*
X165112392Y-54653180D01*
X164442448Y-54653180D01*
X163823499Y-54909557D01*
X163349777Y-55383279D01*
X163093400Y-56002228D01*
X157962600Y-56002228D01*
X157706223Y-55383279D01*
X157232501Y-54909557D01*
X156613552Y-54653180D01*
X155943608Y-54653180D01*
X155324659Y-54909557D01*
X154850937Y-55383279D01*
X154594560Y-56002228D01*
X116336114Y-56002228D01*
X116255756Y-55808227D01*
X115176953Y-54729424D01*
X114763099Y-54558000D01*
X203244901Y-54558000D01*
X202831047Y-54729424D01*
G04 #@! TD*
M02*
