M48
;DRILL file {KiCad 5.0.2-bee76a0~70~ubuntu18.04.1} date Пнд 13 янв 2020 15:24:23
;FORMAT={-:-/ absolute / inch / decimal}
FMAT,2
INCH,TZ
T1C0.0157
T2C0.0197
T3C0.0315
T4C0.0354
T5C0.0394
T6C0.0472
T7C0.0905
T8C0.1260
%
G90
G05
T1
X4.8846Y-4.32
X5.04Y-4.54
X5.06Y-4.62
X5.06Y-4.66
X5.06Y-4.7
X5.14Y-4.46
X5.18Y-4.34
X5.18Y-4.5
X5.22Y-4.54
X5.26Y-2.54
X5.26Y-3.72
X5.26Y-4.36
X5.26Y-4.4
X5.3Y-4.36
X5.3Y-4.4
X5.4Y-2.54
X5.42Y-3.44
X5.44Y-2.54
X5.48Y-2.54
X5.48Y-3.1669
X5.5Y-4.5085
X5.58Y-3.1669
X5.66Y-4.72
X5.68Y-2.6646
X5.68Y-3.1669
X5.72Y-3.4511
X5.7724Y-3.3199
X5.86Y-3.04
X5.86Y-3.4511
X5.9Y-3.04
X5.9246Y-3.32
X5.94Y-3.04
X5.98Y-3.04
X5.98Y-3.13
X6.02Y-3.04
X6.02Y-3.13
X6.06Y-3.04
X6.06Y-3.13
X6.08Y-3.32
X6.1Y-3.04
X6.1Y-3.13
X6.12Y-3.86
X6.12Y-4.
X6.42Y-3.8646
X6.46Y-3.34
X6.5Y-3.34
X6.515Y-3.135
X6.52Y-3.02
X6.52Y-3.0915
X6.52Y-3.2
X6.54Y-3.34
X6.56Y-3.02
X6.56Y-3.06
X6.56Y-3.2
X6.58Y-3.34
X6.62Y-3.34
X6.6337Y-2.96
X6.65Y-3.7
X6.78Y-3.16
X6.7802Y-3.2002
X6.94Y-3.16
X7.02Y-2.94
X7.1Y-4.5
X7.2Y-3.15
X7.2Y-3.2
X7.2Y-3.25
X7.25Y-3.2
X7.25Y-3.25
X7.3Y-3.86
X7.3Y-3.9
X7.3Y-3.94
X7.3Y-3.98
X7.3Y-4.02
X7.34Y-3.66
X7.46Y-3.66
X7.46Y-3.7
X7.5Y-3.05
X7.5Y-3.66
X7.5Y-3.7
X7.52Y-3.9154
X7.54Y-3.66
X7.54Y-3.7
X7.6921Y-3.9801
X7.6921Y-4.0301
X7.72Y-4.22
X7.84Y-3.94
X7.9369Y-3.35
X7.9631Y-2.54
X8.02Y-4.2354
T2
X7.9765Y-5.1174
X8.0042Y-5.0506
X8.0042Y-5.1842
X8.071Y-5.0229
X8.071Y-5.2119
X8.1378Y-5.0506
X8.1378Y-5.1842
X8.1655Y-5.1174
X7.9765Y-2.2827
X8.0042Y-2.2159
X8.0042Y-2.3495
X8.071Y-2.1882
X8.071Y-2.3772
X8.1378Y-2.2159
X8.1378Y-2.3495
X8.1655Y-2.2827
X4.3545Y-5.1174
X4.3822Y-5.0506
X4.3822Y-5.1842
X4.449Y-5.0229
X4.449Y-5.2119
X4.5158Y-5.0506
X4.5158Y-5.1842
X4.5435Y-5.1174
X4.3545Y-2.2827
X4.3822Y-2.2159
X4.3822Y-2.3495
X4.449Y-2.1882
X4.449Y-2.3772
X4.5158Y-2.2159
X4.5158Y-2.3495
X4.5435Y-2.2827
T3
X7.74Y-4.42
X7.9321Y-4.42
X5.24Y-2.9879
X5.24Y-3.18
X5.42Y-3.76
X5.42Y-4.36
X5.52Y-3.76
X5.52Y-4.36
X5.62Y-3.76
X5.62Y-4.36
X5.72Y-3.76
X5.72Y-4.36
X5.82Y-3.76
X5.82Y-4.36
X5.92Y-3.76
X5.92Y-4.36
X6.02Y-3.76
X6.02Y-4.36
X6.12Y-3.76
X6.12Y-4.36
X6.22Y-3.76
X6.22Y-4.36
X6.32Y-3.76
X6.32Y-4.36
X6.42Y-3.76
X6.42Y-4.36
X6.52Y-3.76
X6.52Y-4.36
T4
X4.46Y-3.56
X4.5584Y-3.56
X4.6569Y-3.56
X4.46Y-2.66
X4.5584Y-2.66
X4.6569Y-2.66
X4.46Y-3.86
X4.5584Y-3.86
X4.6569Y-3.86
X4.46Y-2.96
X4.5584Y-2.96
X4.6569Y-2.96
X4.46Y-3.26
X4.5584Y-3.26
X4.6569Y-3.26
T5
X6.86Y-4.96
X6.9145Y-5.0718
X6.9691Y-4.96
X7.0236Y-5.0718
X7.0781Y-4.96
X7.1326Y-5.0718
X7.1872Y-4.96
X7.2417Y-5.0718
X7.2962Y-4.96
X5.28Y-4.96
X5.3345Y-5.0718
X5.3891Y-4.96
X5.4436Y-5.0718
X5.4981Y-4.96
X5.5526Y-5.0718
X5.6072Y-4.96
X5.6617Y-5.0718
X5.7162Y-4.96
T6
X4.42Y-4.58
X4.42Y-4.7572
X4.6759Y-4.58
X4.6759Y-4.7572
X4.42Y-4.14
X4.42Y-4.3172
X4.6759Y-4.14
X4.6759Y-4.3172
T7
X6.7544Y-2.4856
X6.9Y-2.34
X7.0456Y-2.4856
X6.1744Y-2.4856
X6.32Y-2.34
X6.4656Y-2.4856
T8
X8.071Y-5.1174
X8.071Y-2.2827
X4.449Y-5.1174
X6.586Y-4.9718
X7.5702Y-4.9718
X5.006Y-4.9718
X5.9902Y-4.9718
X4.449Y-2.2827
T3
X7.391Y-2.5186G85X7.391Y-2.6052
G05
X7.6233Y-2.4517G85X7.5367Y-2.4517
G05
X7.6312Y-2.68G85X7.5288Y-2.68
G05
T0
M30
